<?xml version="1.0" encoding="UTF-8" standalone="no"?><svg height="500" width="1500" xmlns="http://www.w3.org/2000/svg"><title>F01.bam</title><desc>Made with wgscoverageplotter undefined Author: Pierre Lindenbaum</desc><style>g.maing {stroke:black;stroke-width:0.5px;fill:none;}
text.title {stroke:none;fill:black;stroke-width:1px;text-anchor:middle;}
rect.frame {stroke:darkgray;fill:none;stroke-width:0.5px;}
text.ruler {stroke:none;fill:darkgray;stroke-width:1px;text-anchor:end;}
text.chromName {stroke:none;fill:darkgray;stroke-width:1px;text-anchor:middle;}
text.xLabel {stroke:none;fill:black;stroke-width:1px;text-anchor:middle;}
text.yLabel {stroke:none;fill:black;stroke-width:1px;text-anchor:middle;}
.cov0 {stroke:gray;fill:antiquewhite;stroke-width:0.5px;}
.cov1 {stroke:gray;fill:beige;stroke-width:0.5px;}
rect.average {stroke:green;fill:green;stroke-width:0.5px;opacity:0.3;}
rect.median {stroke:red;fill:red;stroke-width:0.5px;opacity:0.3;}
line.ruler {stroke:darkgray;stroke-dasharray:4;fill:none;stroke-width:1;}
</style><g class="maing"><g id="chromosomes" transform="translate(100.0,80.0)"><g id="chrom-LR761634.1" transform="translate(10.0,0)"><polygon class="cov0" points="0,370 0,336.36 1,168.18 2,185 3,269.09 4,252.27 5,151.36 6,302.73 7,201.82 8,151.36 9,134.55 10,151.36 11,100.91 12,168.18 13,252.27 14,201.82 15,134.55 16,117.73 17,168.18 18,151.36 19,117.73 21,117.73 22,151.36 23,168.18 24,151.36 25,117.73 31,117.73 32,269.09 33,100.91 34,117.73 35,134.55 36,100.91 37,185 38,201.82 39,134.55 40,134.55 41,100.91 42,117.73 43,151.36 44,151.36 45,201.82 46,168.18 47,134.55 51,134.55 52,100.91 53,117.73 54,185 55,201.82 56,100.91 57,100.91 58,117.73 59,134.55 60,134.55 61,100.91 62,134.55 63,168.18 64,201.82 65,168.18 66,134.55 67,168.18 68,117.73 69,201.82 70,117.73 71,117.73 72,201.82 73,151.36 74,151.36 75,100.91 76,117.73 77,168.18 78,168.18 79,134.55 80,235.45 81,269.09 82,100.91 83,134.55 84,134.55 85,117.73 86,100.91 87,185 88,117.73 89,269.09 90,134.55 91,151.36 92,100.91 93,151.36 94,84.09 95,117.73 96,100.91 97,168.18 98,218.64 99,151.36 100,134.55 101,185 102,151.36 103,168.18 104,201.82 105,117.73 106,218.64 107,201.82 108,302.73 109,100.91 110,117.73 111,134.55 112,134.55 113,185 114,336.36 115,201.82 116,100.91 117,134.55 118,117.73 119,168.18 120,201.82 121,151.36 122,134.55 123,117.73 124,151.36 125,134.55 126,134.55 127,151.36 128,201.82 129,185 130,235.45 130.72,370"><title>LR761634.1</title></polygon><rect class="average" height="1" width="130.72" x="0" y="145.4"><title>average:13.35</title></rect><rect class="median" height="1" width="130.72" x="0" y="151.36"><title>median:13</title></rect><text class="chromName" x="65.36" y="-12">LR761634.1<title>LR761634.1 55,785,328 bp</title></text><rect class="frame" height="370" width="130.72" x="0" y="0"/></g><g id="chrom-LR761635.1" transform="translate(141.71753661284166,0)"><polygon class="cov1" points="0,370 0,353.18 1,353.18 2,336.36 3,218.64 4,353.18 5,370 6,269.09 7,302.73 8,302.73 9,235.45 10,235.45 11,302.73 12,252.27 13,185 14,235.45 15,302.73 16,353.18 17,269.09 18,252.27 19,302.73 20,235.45 21,252.27 22,252.27 23,201.82 24,269.09 25,353.18 26,353.18 27,370 28,269.09 29,370 31,370 32,302.73 33,252.27 34,218.64 35,218.64 36,252.27 37,302.73 38,336.36 39,201.82 40,235.45 41,269.09 42,185 43,252.27 44,134.55 45,185 46,185 47,168.18 48,319.55 49,201.82 50,252.27 51,336.36 52,269.09 53,218.64 54,319.55 55,285.91 56,370 57,336.36 58,185 59,302.73 60,336.36 61,302.73 62,151.36 63,285.91 64,302.73 65,285.91 66,269.09 67,319.55 68,252.27 69,269.09 70,269.09 71,201.82 72,235.45 73,235.45 74,269.09 75,168.18 76,353.18 77,0 78,235.45 79,336.36 80,134.55 81,285.91 82,302.73 83,269.09 84,370 85,353.18 86,353.18 87,370 89,370 90,336.36 91,353.18 92,319.55 93,336.36 94,285.91 95,302.73 96,370 97,319.55 98,336.36 99,302.73 100,319.55 101,319.55 102,336.36 103,285.91 104,218.64 105,168.18 106,319.55 107,302.73 108,185 109,151.36 110,353.18 111,201.82 112,370 113,336.36 114,302.73 115,201.82 117,201.82 118,151.36 119,151.36 120,134.55 121,201.82 122,168.18 123,235.45 124,302.73 125,151.36 126,218.64 127,302.73 128,235.45 129,185 130,151.36 131,319.55 132,185 133,302.73 134,319.55 135,252.27 136,302.73 137,353.18 138,336.36 139,370 140,370 141,302.73 142,302.73 143,336.36 144,269.09 145,218.64 146,285.91 147,185 148,185 149,151.36 150,285.91 151,269.09 152,319.55 153,218.64 154,336.36 155,252.27 156,285.91 157,285.91 158,235.45 159,185 160,235.45 161,269.09 162,302.73 163,269.09 164,235.45 165,235.45 166,302.73 167,336.36 168,319.55 169,285.91 170,353.18 171,336.36 171.58,370"><title>LR761635.1</title></polygon><rect class="average" height="1" width="171.58" x="0" y="211.87"><title>average:9.4</title></rect><rect class="median" height="1" width="171.58" x="0" y="269.09"><title>median:6</title></rect><text class="chromName" x="85.79" y="-12">LR761635.1<title>LR761635.1 73,222,313 bp</title></text><rect class="frame" height="370" width="171.58" x="0" y="0"/></g><g id="chrom-LR761636.1" transform="translate(314.2938403401308,0)"><polygon class="cov0" points="0,370 0,336.36 1,151.36 2,269.09 3,353.18 4,269.09 5,151.36 6,185 7,185 8,117.73 9,151.36 10,117.73 11,117.73 12,134.55 13,168.18 14,117.73 15,134.55 16,117.73 17,117.73 18,151.36 19,100.91 20,117.73 22,117.73 23,100.91 24,185 25,100.91 26,151.36 27,235.45 28,100.91 29,84.09 30,100.91 31,100.91 32,134.55 33,117.73 34,134.55 35,185 36,134.55 37,151.36 38,134.55 39,134.55 40,168.18 41,151.36 43,151.36 44,117.73 45,134.55 46,168.18 47,100.91 48,201.82 49,134.55 50,168.18 51,100.91 52,117.73 53,134.55 54,269.09 55,168.18 56,151.36 57,100.91 58,117.73 59,117.73 60,134.55 61,218.64 62,134.55 63,117.73 64,117.73 65,134.55 67,134.55 68,151.36 69,134.55 70,151.36 71,100.91 72,100.91 73,117.73 74,151.36 75,151.36 76,336.36 77,218.64 78,235.45 79,252.27 80,269.09 81,117.73 82,218.64 83,134.55 84,100.91 85,134.55 86,319.55 87,151.36 88,117.73 89,201.82 90,134.55 91,100.91 92,185 93,151.36 94,134.55 95,168.18 96,201.82 97,117.73 98,134.55 99,185 100,100.91 101,100.91 102,151.36 103,100.91 104,117.73 105,117.73 106,134.55 107,117.73 108,100.91 109,117.73 110,100.91 111,134.55 112,134.55 113,168.18 114,100.91 116,100.91 117,134.55 118,151.36 119,117.73 120,117.73 121,185 122,100.91 123,117.73 124,185 125,117.73 126,117.73 127,235.45 128,185 129,134.55 130,151.36 131,151.36 132,185 133,168.18 134,134.55 135,168.18 136,336.36 136.65,370"><title>LR761636.1</title></polygon><rect class="average" height="1" width="136.65" x="0" y="139.95"><title>average:13.68</title></rect><rect class="median" height="1" width="136.65" x="0" y="134.55"><title>median:14</title></rect><text class="chromName" x="68.33" y="-12">LR761636.1<title>LR761636.1 58,319,100 bp</title></text><rect class="frame" height="370" width="136.65" x="0" y="0"/></g><g id="chrom-LR761637.1" transform="translate(451.9485730949149,0)"><polygon class="cov1" points="0,370 0,353.18 1,269.09 2,336.36 3,252.27 4,218.64 5,168.18 6,185 7,269.09 8,218.64 9,319.55 10,336.36 11,252.27 12,235.45 13,319.55 14,252.27 15,168.18 16,185 17,117.73 18,302.73 19,336.36 20,218.64 21,151.36 22,168.18 23,252.27 24,336.36 25,168.18 26,134.55 27,218.64 28,218.64 29,235.45 30,285.91 31,168.18 32,134.55 33,151.36 34,117.73 35,185 36,319.55 37,353.18 38,168.18 39,151.36 40,134.55 41,269.09 42,185 43,285.91 44,319.55 45,201.82 46,134.55 47,117.73 49,117.73 50,168.18 51,134.55 52,84.09 53,168.18 54,100.91 55,134.55 56,151.36 57,201.82 58,269.09 59,285.91 60,302.73 61,218.64 62,117.73 63,134.55 64,117.73 65,134.55 66,117.73 67,134.55 68,168.18 69,117.73 70,134.55 71,134.55 72,168.18 73,117.73 74,168.18 75,134.55 77,134.55 78,117.73 79,168.18 80,151.36 81,151.36 82,117.73 83,134.55 84,151.36 85,117.73 86,218.64 87,168.18 88,117.73 89,134.55 90,117.73 91,117.73 92,100.91 93,201.82 94,185 95,201.82 96,168.18 97,134.55 98,117.73 99,117.73 100,269.09 101,336.36 102,319.55 103,336.36 104,336.36 105,235.45 106,134.55 107,117.73 109,117.73 110,100.91 111,168.18 112,151.36 113,117.73 114,285.91 115,201.82 116,185 117,168.18 118,134.55 119,285.91 120,201.82 121,134.55 122,353.18 123,370 124,302.73 124.49,370"><title>LR761637.1</title></polygon><rect class="average" height="1" width="124.49" x="0" y="169.9"><title>average:11.9</title></rect><rect class="median" height="1" width="124.49" x="0" y="185"><title>median:11</title></rect><text class="chromName" x="62.25" y="-12">LR761637.1<title>LR761637.1 53,127,865 bp</title></text><rect class="frame" height="370" width="124.49" x="0" y="0"/></g><g id="chrom-LR761638.1" transform="translate(577.4390778079033,0)"><polygon class="cov0" points="0,370 0,218.64 1,134.55 2,319.55 3,151.36 4,235.45 5,185 6,185 7,201.82 8,235.45 9,117.73 10,185 11,319.55 12,151.36 13,168.18 14,117.73 15,168.18 16,134.55 17,134.55 18,252.27 19,336.36 20,134.55 21,218.64 22,134.55 23,100.91 24,117.73 25,168.18 26,370 27,117.73 28,185 29,336.36 30,252.27 31,151.36 32,370 33,353.18 34,185 35,269.09 36,151.36 37,336.36 38,269.09 39,353.18 40,353.18 41,319.55 42,252.27 43,134.55 44,151.36 45,302.73 46,302.73 47,117.73 48,134.55 49,269.09 50,353.18 51,252.27 52,185 53,185 54,269.09 55,285.91 56,151.36 57,252.27 58,168.18 59,168.18 60,185 61,185 62,151.36 63,370 64,353.18 65,370 66,185 67,201.82 68,168.18 69,302.73 70,151.36 71,353.18 72,353.18 73,319.55 74,269.09 75,353.18 76,336.36 77,235.45 78,370 79,353.18 80,353.18 81,185 82,269.09 83,353.18 84,302.73 85,185 86,117.73 87,168.18 88,336.36 89,134.55 90,285.91 91,134.55 92,117.73 93,117.73 94,151.36 95,235.45 96,269.09 97,100.91 98,302.73 99,185 100,151.36 101,134.55 102,201.82 103,134.55 104,185 105,218.64 106,235.45 107,201.82 108,235.45 109,218.64 110,201.82 111,185 112,302.73 113,235.45 114,353.18 115,353.18 116,336.36 117,353.18 118,319.55 119,252.27 120,302.73 121,370 123,370 124,336.36 125,302.73 126,353.18 127,218.64 128,201.82 129,185 130,201.82 131,185 132,353.18 133,353.18 134,252.27 135,302.73 136,168.18 137,370 138,370 139,336.36 140,370 141,370 142,353.18 143,252.27 144,185 145,201.82 146,336.36 147,134.55 148,168.18 149,168.18 150,185 151,168.18 152,134.55 153,168.18 154,269.09 155,302.73 156,252.27 157,285.91 158,336.36 159,185 160,218.64 161,201.82 162,185 163,185 164,151.36 165,168.18 166,201.82 168,201.82 169,168.18 170,201.82 171,218.64 172,218.64 172.35,370"><title>LR761638.1</title></polygon><rect class="average" height="1" width="172.35" x="0" y="196.93"><title>average:10.29</title></rect><rect class="median" height="1" width="172.35" x="0" y="235.45"><title>median:8</title></rect><text class="chromName" x="86.17" y="-12">LR761638.1<title>LR761638.1 73,550,375 bp</title></text><rect class="frame" height="370" width="172.35" x="0" y="0"/></g><g id="chrom-LR761639.1" transform="translate(750.784104388203,0)"><polygon class="cov1" points="0,370 0,302.73 1,201.82 2,201.82 3,319.55 4,168.18 5,235.45 6,370 7,235.45 8,151.36 9,134.55 10,134.55 11,218.64 12,269.09 13,134.55 14,168.18 15,117.73 16,117.73 17,100.91 18,117.73 19,100.91 20,100.91 21,117.73 22,134.55 23,117.73 24,185 25,168.18 26,168.18 27,319.55 28,218.64 29,168.18 30,336.36 31,134.55 32,117.73 33,117.73 34,185 35,218.64 36,218.64 37,134.55 38,117.73 39,117.73 40,185 41,100.91 42,134.55 43,84.09 44,117.73 45,100.91 46,134.55 47,117.73 48,100.91 49,134.55 50,134.55 51,117.73 52,168.18 53,134.55 54,134.55 55,117.73 56,100.91 57,117.73 59,117.73 60,100.91 61,134.55 63,134.55 64,100.91 65,100.91 66,151.36 67,134.55 68,117.73 69,201.82 70,117.73 71,134.55 72,117.73 73,100.91 74,302.73 75,100.91 76,117.73 77,117.73 78,100.91 79,117.73 80,151.36 81,100.91 82,117.73 83,100.91 84,185 85,134.55 86,100.91 87,117.73 88,100.91 89,117.73 90,117.73 91,134.55 92,134.55 93,168.18 94,134.55 95,117.73 96,151.36 97,100.91 98,100.91 99,134.55 100,117.73 101,134.55 102,117.73 103,117.73 104,100.91 105,117.73 106,235.45 107,117.73 108,100.91 109,117.73 110,117.73 111,302.73 112,168.18 113,117.73 114,168.18 115,100.91 116,151.36 117,134.55 118,117.73 119,100.91 120,151.36 121,117.73 122,117.73 123,134.55 124,168.18 125,151.36 126,134.55 127,134.55 128,151.36 129,134.55 130,185 131,168.18 132,168.18 133,336.36 134,134.55 135,134.55 136,168.18 137,168.18 138,218.64 139,201.82 140,201.82 140.95,370"><title>LR761639.1</title></polygon><rect class="average" height="1" width="140.95" x="0" y="140.23"><title>average:13.66</title></rect><rect class="median" height="1" width="140.95" x="0" y="134.55"><title>median:14</title></rect><text class="chromName" x="70.47" y="-12">LR761639.1<title>LR761639.1 60,151,564 bp</title></text><rect class="frame" height="370" width="140.95" x="0" y="0"/></g><g id="chrom-LR761640.1" transform="translate(892.7327113317651,0)"><polygon class="cov0" points="0,370 0,218.64 1,134.55 2,201.82 3,185 4,168.18 5,134.55 6,185 7,201.82 8,151.36 9,201.82 10,134.55 12,134.55 13,252.27 14,168.18 15,134.55 16,235.45 17,134.55 18,117.73 19,185 20,117.73 22,117.73 23,100.91 24,117.73 25,134.55 26,100.91 27,117.73 30,117.73 31,134.55 32,117.73 33,100.91 34,134.55 35,117.73 36,100.91 37,168.18 38,100.91 39,134.55 40,100.91 44,100.91 45,134.55 46,134.55 47,235.45 48,353.18 49,100.91 50,151.36 51,134.55 52,100.91 53,134.55 54,100.91 55,117.73 56,117.73 57,218.64 58,134.55 59,168.18 60,218.64 61,117.73 62,134.55 63,168.18 64,117.73 65,269.09 66,117.73 67,134.55 68,134.55 69,168.18 70,151.36 71,117.73 72,168.18 73,185 74,168.18 75,117.73 76,117.73 77,201.82 78,117.73 79,151.36 80,67.27 81,67.27 82,100.91 83,117.73 84,117.73 85,100.91 86,353.18 87,168.18 88,151.36 89,168.18 90,134.55 91,218.64 92,285.91 93,185 94,252.27 95,134.55 96,134.55 97,117.73 98,151.36 99,134.55 100,117.73 101,117.73 102,353.18 103,218.64 104,117.73 105,100.91 106,117.73 107,168.18 108,185 109,117.73 110,151.36 111,185 112,151.36 113,134.55 114,151.36 115,117.73 116,336.36 117,353.18 118,370 119,302.73 120,117.73 121,100.91 122,117.73 123,117.73 124,134.55 125,100.91 126,117.73 127,117.73 128,252.27 129,151.36 130,117.73 131,117.73 132,151.36 133,117.73 134,100.91 135,100.91 136,134.55 137,134.55 138,117.73 139,168.18 140,168.18 141,134.55 142,185 143,185 144,168.18 145,117.73 145.53,370"><title>LR761640.1</title></polygon><rect class="average" height="1" width="145.53" x="0" y="144.33"><title>average:13.42</title></rect><rect class="median" height="1" width="145.53" x="0" y="134.55"><title>median:14</title></rect><text class="chromName" x="72.77" y="-12">LR761640.1<title>LR761640.1 62,107,823 bp</title></text><rect class="frame" height="370" width="145.53" x="0" y="0"/></g><g id="chrom-LR761641.1" transform="translate(1039.265271917344,0)"><polygon class="cov1" points="0,370 0,336.36 1,185 2,218.64 3,218.64 4,235.45 5,201.82 6,336.36 7,252.27 8,185 9,168.18 10,117.73 11,235.45 12,235.45 13,134.55 14,252.27 15,151.36 16,168.18 17,235.45 18,134.55 19,100.91 20,117.73 21,134.55 22,218.64 23,168.18 24,201.82 25,168.18 26,252.27 27,218.64 28,252.27 29,269.09 30,218.64 31,185 32,252.27 33,218.64 34,336.36 35,285.91 36,353.18 37,285.91 38,269.09 39,252.27 40,134.55 41,302.73 42,201.82 43,302.73 44,235.45 45,201.82 46,269.09 47,252.27 48,302.73 49,134.55 50,168.18 51,151.36 52,117.73 54,117.73 55,100.91 56,117.73 57,185 58,168.18 59,201.82 60,134.55 61,218.64 62,168.18 63,201.82 64,168.18 65,185 66,218.64 67,252.27 68,201.82 69,151.36 70,235.45 71,134.55 72,201.82 73,319.55 74,218.64 75,319.55 76,235.45 77,235.45 78,185 79,269.09 80,285.91 81,370 82,370 83,336.36 84,185 85,151.36 86,252.27 87,117.73 88,201.82 89,201.82 90,285.91 91,252.27 92,134.55 93,285.91 94,269.09 95,151.36 96,168.18 97,302.73 98,151.36 99,370 100,302.73 101,168.18 102,151.36 103,117.73 104,201.82 105,134.55 106,235.45 107,117.73 108,151.36 110,151.36 111,302.73 112,168.18 113,252.27 114,151.36 115,185 116,117.73 117,168.18 118,134.55 119,218.64 120,235.45 121,168.18 122,201.82 123,235.45 124,151.36 125,218.64 126,269.09 127,134.55 128,302.73 129,201.82 130,252.27 131,168.18 132,201.82 133,185 134,117.73 135,370 136,269.09 136.99,370"><title>LR761641.1</title></polygon><rect class="average" height="1" width="136.99" x="0" y="178.37"><title>average:11.39</title></rect><rect class="median" height="1" width="136.99" x="0" y="201.82"><title>median:10</title></rect><text class="chromName" x="68.5" y="-12">LR761641.1<title>LR761641.1 58,462,999 bp</title></text><rect class="frame" height="370" width="136.99" x="0" y="0"/></g><g id="chrom-LR761642.1" transform="translate(1177.25719230686,0)"><polygon class="cov0" points="0,370 0,353.18 1,353.18 2,370 3,252.27 4,302.73 5,336.36 6,319.55 7,319.55 8,336.36 9,353.18 10,285.91 11,269.09 12,252.27 13,134.55 14,168.18 15,201.82 16,269.09 17,185 18,319.55 19,269.09 20,185 21,151.36 22,285.91 23,302.73 24,151.36 25,134.55 26,185 27,168.18 28,269.09 29,151.36 30,201.82 31,134.55 32,168.18 33,235.45 34,201.82 35,336.36 36,151.36 37,201.82 38,117.73 39,168.18 40,134.55 41,151.36 42,117.73 43,134.55 44,134.55 45,201.82 46,134.55 47,252.27 48,218.64 49,302.73 50,201.82 51,218.64 52,168.18 53,117.73 54,134.55 55,185 56,134.55 57,201.82 58,168.18 59,151.36 60,100.91 61,353.18 62,168.18 63,134.55 64,218.64 65,151.36 66,168.18 67,285.91 68,201.82 69,168.18 70,218.64 71,252.27 72,185 73,252.27 74,151.36 75,134.55 76,336.36 77,134.55 78,134.55 79,319.55 80,285.91 81,168.18 82,353.18 83,252.27 84,319.55 85,185 86,336.36 86.91,370"><title>LR761642.1</title></polygon><rect class="average" height="1" width="86.91" x="0" y="176.54"><title>average:11.5</title></rect><rect class="median" height="1" width="86.91" x="0" y="218.64"><title>median:9</title></rect><text class="chromName" x="43.45" y="-12">LR761642.1<title>LR761642.1 37,089,910 bp</title></text><rect class="frame" height="370" width="86.91" x="0" y="0"/></g><g id="chrom-LR761643.1" transform="translate(1265.1671710093603,0)"><polygon class="cov1" points="0,370 0,353.18 1,269.09 2,168.18 3,134.55 4,168.18 5,269.09 6,185 7,185 8,151.36 9,117.73 10,134.55 11,168.18 12,134.55 13,185 14,218.64 15,134.55 16,117.73 17,134.55 18,151.36 19,185 20,370 21,151.36 22,134.55 23,117.73 24,168.18 25,168.18 26,319.55 27,353.18 28,336.36 29,117.73 30,235.45 31,134.55 32,185 33,117.73 34,100.91 35,168.18 36,252.27 37,117.73 38,117.73 39,100.91 40,117.73 41,134.55 42,201.82 43,302.73 44,134.55 45,151.36 46,84.09 47,252.27 48,151.36 49,134.55 50,185 51,117.73 52,117.73 53,134.55 54,134.55 55,117.73 56,117.73 57,134.55 58,151.36 59,134.55 60,100.91 61,117.73 62,151.36 63,117.73 64,134.55 65,185 66,151.36 67,134.55 69,134.55 70,151.36 71,168.18 72,185 73,235.45 74,100.91 75,235.45 76,134.55 77,100.91 78,168.18 79,218.64 80,117.73 81,100.91 82,134.55 83,117.73 84,84.09 85,117.73 86,117.73 87,84.09 88,134.55 89,370 90,151.36 91,117.73 92,100.91 93,134.55 94,100.91 95,134.55 96,100.91 100,100.91 101,252.27 102,117.73 103,134.55 104,151.36 105,134.55 106,100.91 107,100.91 108,134.55 109,100.91 111,100.91 112,117.73 113,201.82 114,134.55 115,117.73 116,84.09 117,100.91 118,151.36 119,168.18 120,117.73 121,100.91 122,100.91 123,117.73 124,134.55 125,117.73 126,117.73 127,185 128,185 129,134.55 130,151.36 131,201.82 132,134.55 133,269.09 134,319.55 134.83,370"><title>LR761643.1</title></polygon><rect class="average" height="1" width="134.83" x="0" y="147.79"><title>average:13.21</title></rect><rect class="median" height="1" width="134.83" x="0" y="151.36"><title>median:13</title></rect><text class="chromName" x="67.42" y="-12">LR761643.1<title>LR761643.1 57,541,580 bp</title></text><rect class="frame" height="370" width="134.83" x="0" y="0"/></g><g><line class="ruler" x1="-2" x2="1390" y1="333" y2="333"><title>2</title></line><text class="ruler" x="-5" y="333">2</text><line class="ruler" x1="-2" x2="1390" y1="296" y2="296"><title>4</title></line><text class="ruler" x="-5" y="296">4</text><line class="ruler" x1="-2" x2="1390" y1="259" y2="259"><title>6</title></line><text class="ruler" x="-5" y="259">6</text><line class="ruler" x1="-2" x2="1390" y1="222" y2="222"><title>8</title></line><text class="ruler" x="-5" y="222">8</text><line class="ruler" x1="-2" x2="1390" y1="185" y2="185"><title>11</title></line><text class="ruler" x="-5" y="185">11</text><line class="ruler" x1="-2" x2="1390" y1="148" y2="148"><title>13</title></line><text class="ruler" x="-5" y="148">13</text><line class="ruler" x1="-2" x2="1390" y1="111" y2="111"><title>15</title></line><text class="ruler" x="-5" y="111">15</text><line class="ruler" x1="-2" x2="1390" y1="74" y2="74"><title>17</title></line><text class="ruler" x="-5" y="74">17</text><line class="ruler" x1="-2" x2="1390" y1="37" y2="37"><title>19</title></line><text class="ruler" x="-5" y="37">19</text><line class="ruler" x1="-2" x2="1390" y1="0" y2="0"><title>22</title></line><text class="ruler" x="-5" y="0">22</text></g></g><text class="title" x="795" y="40">F01.bam F01<title>./F01.bam</title></text><text class="xLabel" x="795" y="475">GCA_902806645.1_cgigas_uk_roslin_v1_genomic.fna  (589,358,857 bp)<title>../ref/GCA_902806645.1_cgigas_uk_roslin_v1_genomic.fna</title></text><text class="yLabel" transform="translate(25,265) rotate(90)" x="0" y="0">Coverage bp (median)</text></g></svg>