<?xml version="1.0" encoding="UTF-8" standalone="no"?><svg height="500" width="1500" xmlns="http://www.w3.org/2000/svg"><title>F04.realigned.bam</title><desc>Made with wgscoverageplotter undefined Author: Pierre Lindenbaum</desc><style>g.maing {stroke:black;stroke-width:0.5px;fill:none;}
text.title {stroke:none;fill:black;stroke-width:1px;text-anchor:middle;}
rect.frame {stroke:darkgray;fill:none;stroke-width:0.5px;}
text.ruler {stroke:none;fill:darkgray;stroke-width:1px;text-anchor:end;}
text.chromName {stroke:none;fill:darkgray;stroke-width:1px;text-anchor:middle;}
text.xLabel {stroke:none;fill:black;stroke-width:1px;text-anchor:middle;}
text.yLabel {stroke:none;fill:black;stroke-width:1px;text-anchor:middle;}
.cov0 {stroke:gray;fill:antiquewhite;stroke-width:0.5px;}
.cov1 {stroke:gray;fill:beige;stroke-width:0.5px;}
rect.average {stroke:green;fill:green;stroke-width:0.5px;opacity:0.3;}
rect.median {stroke:red;fill:red;stroke-width:0.5px;opacity:0.3;}
line.ruler {stroke:darkgray;stroke-dasharray:4;fill:none;stroke-width:1;}
</style><g class="maing"><g id="chromosomes" transform="translate(100.0,80.0)"><g id="chrom-LR761634.1" transform="translate(10.0,0)"><polygon class="cov0" points="0,370 0,328.89 1,143.89 2,164.44 3,267.22 4,205.56 5,205.56 6,287.78 7,205.56 8,164.44 9,123.33 10,164.44 11,102.78 12,164.44 13,226.11 14,267.22 15,123.33 16,123.33 17,185 18,123.33 21,123.33 22,143.89 23,143.89 24,164.44 25,102.78 27,102.78 28,123.33 29,102.78 31,102.78 32,267.22 33,102.78 34,123.33 35,123.33 36,82.22 37,185 38,205.56 39,123.33 40,102.78 42,102.78 43,143.89 44,143.89 45,205.56 46,185 47,123.33 48,143.89 49,123.33 51,123.33 52,102.78 53,123.33 54,185 55,226.11 56,102.78 58,102.78 59,123.33 60,123.33 61,102.78 62,143.89 63,185 64,185 65,143.89 66,143.89 67,185 68,102.78 69,185 70,102.78 71,102.78 72,205.56 73,164.44 74,123.33 75,102.78 76,102.78 77,164.44 78,164.44 79,123.33 80,226.11 81,267.22 82,102.78 83,123.33 85,123.33 86,82.22 87,185 88,102.78 89,287.78 90,143.89 91,164.44 92,102.78 93,143.89 94,102.78 95,102.78 96,82.22 97,143.89 98,328.89 99,143.89 100,164.44 101,164.44 102,143.89 103,143.89 104,164.44 105,123.33 106,185 107,185 108,246.67 109,102.78 110,102.78 111,123.33 112,123.33 113,143.89 114,267.22 115,205.56 116,102.78 117,143.89 118,123.33 119,185 120,226.11 121,123.33 122,143.89 123,123.33 124,164.44 125,123.33 126,143.89 127,143.89 128,226.11 129,205.56 130,226.11 130.72,370"><title>LR761634.1</title></polygon><rect class="average" height="1" width="130.72" x="0" y="140.31"><title>average:11.17</title></rect><rect class="median" height="1" width="130.72" x="0" y="143.89"><title>median:11</title></rect><text class="chromName" x="65.36" y="-12">LR761634.1<title>LR761634.1 55,785,328 bp</title></text><rect class="frame" height="370" width="130.72" x="0" y="0"/></g><g id="chrom-LR761635.1" transform="translate(141.71753661284166,0)"><polygon class="cov1" points="0,370 0,370 1,370 2,328.89 3,205.56 4,370 5,370 6,308.33 8,308.33 9,246.67 10,246.67 11,287.78 12,267.22 13,205.56 14,246.67 15,308.33 16,349.44 17,226.11 18,287.78 19,246.67 20,267.22 21,267.22 22,287.78 23,267.22 24,349.44 25,287.78 26,349.44 27,370 28,349.44 29,370 31,370 32,246.67 34,246.67 35,267.22 36,267.22 37,328.89 38,246.67 39,205.56 40,164.44 41,287.78 42,185 43,185 44,123.33 45,185 46,185 47,205.56 48,308.33 49,185 50,267.22 51,308.33 52,205.56 53,246.67 54,205.56 55,267.22 56,328.89 57,328.89 58,164.44 59,308.33 60,287.78 61,246.67 62,123.33 63,185 64,205.56 65,185 66,328.89 67,226.11 68,308.33 69,328.89 70,246.67 71,185 72,226.11 73,226.11 74,185 75,123.33 76,226.11 77,0 78,185 79,205.56 80,123.33 81,205.56 82,185 83,164.44 84,226.11 85,205.56 86,205.56 87,226.11 88,205.56 89,226.11 90,205.56 91,370 92,349.44 93,370 94,349.44 95,328.89 96,370 97,349.44 98,328.89 99,370 100,349.44 101,308.33 102,370 103,185 104,61.67 105,61.67 106,287.78 107,267.22 108,185 109,226.11 110,328.89 111,226.11 112,370 113,370 114,328.89 115,185 117,185 118,164.44 119,143.89 120,143.89 121,205.56 122,164.44 123,246.67 124,328.89 125,164.44 126,287.78 127,328.89 128,226.11 129,287.78 130,185 131,287.78 132,246.67 133,267.22 134,328.89 135,308.33 136,349.44 137,328.89 138,349.44 139,287.78 140,328.89 141,328.89 142,308.33 143,328.89 144,287.78 145,205.56 146,267.22 147,82.22 148,164.44 149,123.33 150,267.22 151,287.78 152,308.33 153,226.11 154,328.89 155,287.78 156,287.78 157,267.22 158,246.67 159,185 160,287.78 161,267.22 162,328.89 163,308.33 164,185 165,185 166,226.11 167,287.78 168,185 169,308.33 170,308.33 171,328.89 171.58,370"><title>LR761635.1</title></polygon><rect class="average" height="1" width="171.58" x="0" y="198.95"><title>average:8.32</title></rect><rect class="median" height="1" width="171.58" x="0" y="246.67"><title>median:6</title></rect><text class="chromName" x="85.79" y="-12">LR761635.1<title>LR761635.1 73,222,313 bp</title></text><rect class="frame" height="370" width="171.58" x="0" y="0"/></g><g id="chrom-LR761636.1" transform="translate(314.2938403401308,0)"><polygon class="cov0" points="0,370 0,349.44 1,185 2,246.67 3,328.89 4,205.56 5,164.44 7,164.44 8,123.33 9,143.89 10,123.33 11,123.33 12,143.89 13,267.22 14,102.78 15,143.89 16,123.33 17,102.78 18,143.89 19,164.44 20,123.33 21,143.89 22,102.78 23,102.78 24,205.56 25,123.33 26,185 27,246.67 28,102.78 29,82.22 31,82.22 32,102.78 33,102.78 34,123.33 35,205.56 36,123.33 37,185 38,123.33 39,102.78 40,164.44 41,123.33 42,143.89 43,123.33 44,102.78 45,123.33 46,164.44 47,123.33 48,226.11 49,123.33 50,143.89 51,102.78 52,102.78 53,123.33 54,205.56 55,143.89 56,164.44 57,102.78 58,123.33 59,102.78 60,143.89 61,226.11 62,143.89 63,123.33 64,123.33 65,143.89 66,123.33 67,123.33 68,143.89 69,143.89 70,164.44 71,82.22 72,102.78 73,143.89 74,164.44 75,143.89 76,308.33 77,205.56 78,226.11 79,246.67 80,267.22 81,123.33 82,185 83,123.33 84,102.78 85,143.89 86,246.67 87,123.33 88,123.33 89,185 90,143.89 91,102.78 92,143.89 93,82.22 94,123.33 95,185 96,164.44 97,123.33 98,123.33 99,143.89 102,143.89 103,82.22 104,123.33 105,102.78 106,123.33 107,102.78 110,102.78 111,123.33 112,143.89 113,143.89 114,82.22 115,82.22 116,102.78 117,123.33 118,143.89 119,102.78 120,102.78 121,185 122,102.78 123,102.78 124,164.44 125,123.33 126,123.33 127,205.56 128,267.22 129,123.33 130,143.89 131,143.89 132,164.44 133,164.44 134,123.33 135,143.89 136,328.89 136.65,370"><title>LR761636.1</title></polygon><rect class="average" height="1" width="136.65" x="0" y="135.2"><title>average:11.42</title></rect><rect class="median" height="1" width="136.65" x="0" y="143.89"><title>median:11</title></rect><text class="chromName" x="68.33" y="-12">LR761636.1<title>LR761636.1 58,319,100 bp</title></text><rect class="frame" height="370" width="136.65" x="0" y="0"/></g><g id="chrom-LR761637.1" transform="translate(451.9485730949149,0)"><polygon class="cov1" points="0,370 0,349.44 1,328.89 2,287.78 3,267.22 4,246.67 5,205.56 6,246.67 7,267.22 8,267.22 9,328.89 10,267.22 11,226.11 12,267.22 13,287.78 14,328.89 15,185 16,226.11 17,82.22 18,287.78 19,287.78 20,246.67 21,164.44 22,164.44 23,205.56 24,349.44 25,143.89 26,143.89 27,246.67 28,205.56 29,205.56 30,267.22 31,143.89 32,143.89 33,185 34,123.33 35,185 36,308.33 37,328.89 38,164.44 39,143.89 40,143.89 41,267.22 42,205.56 43,287.78 44,308.33 45,246.67 46,143.89 47,123.33 49,123.33 50,185 51,123.33 52,82.22 53,185 54,102.78 55,143.89 56,164.44 57,226.11 58,287.78 59,287.78 60,308.33 61,205.56 62,102.78 63,123.33 64,102.78 65,143.89 66,123.33 67,143.89 68,143.89 69,102.78 70,123.33 71,123.33 72,164.44 73,102.78 74,164.44 75,123.33 76,123.33 77,143.89 80,143.89 81,164.44 82,102.78 83,123.33 84,123.33 85,102.78 86,205.56 87,143.89 88,102.78 89,123.33 90,102.78 91,123.33 92,102.78 93,205.56 94,143.89 95,185 96,164.44 97,123.33 98,102.78 99,102.78 100,328.89 101,370 103,370 104,349.44 105,287.78 106,123.33 107,102.78 108,123.33 109,123.33 110,102.78 111,123.33 112,143.89 113,123.33 114,308.33 115,164.44 116,185 117,185 118,164.44 119,287.78 120,185 121,143.89 122,349.44 123,349.44 124,287.78 124.49,370"><title>LR761637.1</title></polygon><rect class="average" height="1" width="124.49" x="0" y="169.21"><title>average:9.77</title></rect><rect class="median" height="1" width="124.49" x="0" y="185"><title>median:9</title></rect><text class="chromName" x="62.25" y="-12">LR761637.1<title>LR761637.1 53,127,865 bp</title></text><rect class="frame" height="370" width="124.49" x="0" y="0"/></g><g id="chrom-LR761638.1" transform="translate(577.4390778079033,0)"><polygon class="cov0" points="0,370 0,246.67 1,226.11 2,308.33 3,143.89 4,185 5,123.33 6,226.11 7,185 8,185 9,123.33 10,164.44 11,308.33 12,123.33 13,164.44 14,123.33 15,164.44 16,143.89 17,123.33 18,267.22 19,267.22 20,164.44 21,226.11 22,143.89 23,123.33 24,123.33 25,164.44 26,370 27,123.33 28,185 29,287.78 30,267.22 31,123.33 32,246.67 33,370 34,226.11 35,205.56 36,143.89 37,370 38,308.33 39,349.44 40,349.44 41,308.33 42,267.22 43,143.89 44,143.89 45,267.22 46,205.56 47,123.33 48,123.33 49,164.44 50,205.56 51,185 52,143.89 53,123.33 54,185 55,164.44 56,164.44 57,185 58,123.33 59,205.56 60,246.67 61,246.67 62,164.44 63,349.44 64,328.89 65,328.89 66,185 67,246.67 68,185 69,328.89 70,164.44 71,349.44 72,349.44 73,328.89 74,246.67 75,349.44 76,349.44 77,205.56 78,370 79,349.44 80,308.33 81,164.44 82,308.33 83,349.44 84,328.89 85,185 86,123.33 87,164.44 88,328.89 89,123.33 90,287.78 91,164.44 92,102.78 93,123.33 94,143.89 95,205.56 96,246.67 97,143.89 98,226.11 99,185 100,185 101,164.44 102,267.22 103,185 104,246.67 105,308.33 106,246.67 107,164.44 108,267.22 109,226.11 110,246.67 111,185 112,328.89 113,267.22 114,287.78 115,267.22 116,349.44 117,370 118,267.22 119,349.44 120,328.89 121,349.44 122,370 123,370 124,308.33 125,328.89 126,349.44 127,246.67 128,370 129,267.22 130,370 131,328.89 132,267.22 133,349.44 134,267.22 135,349.44 136,164.44 137,370 138,370 139,267.22 140,328.89 141,370 142,370 143,226.11 144,164.44 145,164.44 146,267.22 147,164.44 148,185 149,143.89 150,205.56 151,308.33 152,185 153,164.44 154,267.22 155,287.78 156,226.11 157,328.89 158,287.78 159,308.33 160,308.33 161,349.44 162,205.56 163,246.67 164,349.44 165,287.78 166,370 167,370 168,226.11 169,226.11 170,370 171,370 172,349.44 172.35,370"><title>LR761638.1</title></polygon><rect class="average" height="1" width="172.35" x="0" y="200.14"><title>average:8.26</title></rect><rect class="median" height="1" width="172.35" x="0" y="246.67"><title>median:6</title></rect><text class="chromName" x="86.17" y="-12">LR761638.1<title>LR761638.1 73,550,375 bp</title></text><rect class="frame" height="370" width="172.35" x="0" y="0"/></g><g id="chrom-LR761639.1" transform="translate(750.784104388203,0)"><polygon class="cov1" points="0,370 0,370 1,185 2,123.33 3,287.78 4,185 5,246.67 6,287.78 7,328.89 8,143.89 9,123.33 10,123.33 11,226.11 12,226.11 13,123.33 14,185 15,123.33 16,123.33 17,102.78 19,102.78 20,82.22 21,102.78 22,143.89 23,143.89 24,164.44 25,205.56 26,143.89 27,328.89 28,349.44 29,205.56 30,226.11 31,102.78 32,143.89 33,123.33 34,185 35,185 36,205.56 37,123.33 38,102.78 39,102.78 40,287.78 41,123.33 42,123.33 43,82.22 44,123.33 45,102.78 46,143.89 47,102.78 48,102.78 49,123.33 50,123.33 51,102.78 52,143.89 53,123.33 54,102.78 55,82.22 56,102.78 58,102.78 59,82.22 60,82.22 61,123.33 62,82.22 63,61.67 64,82.22 65,82.22 66,123.33 68,123.33 69,164.44 70,102.78 71,102.78 72,123.33 73,102.78 74,185 75,102.78 76,102.78 77,123.33 78,102.78 79,102.78 80,143.89 81,82.22 82,102.78 83,123.33 84,164.44 85,123.33 86,82.22 87,102.78 89,102.78 90,82.22 91,123.33 92,102.78 93,143.89 94,143.89 95,102.78 96,102.78 97,82.22 98,102.78 103,102.78 104,82.22 105,102.78 106,246.67 107,102.78 108,82.22 109,102.78 110,102.78 111,328.89 112,164.44 113,82.22 114,164.44 115,102.78 116,123.33 117,102.78 118,123.33 119,102.78 120,143.89 121,102.78 122,102.78 123,123.33 124,164.44 125,123.33 126,143.89 128,143.89 129,123.33 130,185 131,164.44 132,185 133,308.33 134,123.33 135,185 136,164.44 137,164.44 138,143.89 139,226.11 140,308.33 140.95,370"><title>LR761639.1</title></polygon><rect class="average" height="1" width="140.95" x="0" y="129.79"><title>average:11.69</title></rect><rect class="median" height="1" width="140.95" x="0" y="123.33"><title>median:12</title></rect><text class="chromName" x="70.47" y="-12">LR761639.1<title>LR761639.1 60,151,564 bp</title></text><rect class="frame" height="370" width="140.95" x="0" y="0"/></g><g id="chrom-LR761640.1" transform="translate(892.7327113317651,0)"><polygon class="cov0" points="0,370 0,226.11 1,143.89 2,185 4,185 5,123.33 6,185 7,205.56 8,143.89 9,164.44 10,143.89 11,164.44 12,143.89 13,246.67 14,164.44 15,123.33 16,205.56 17,143.89 18,102.78 19,185 20,102.78 22,102.78 23,82.22 24,123.33 25,143.89 26,102.78 27,82.22 28,102.78 30,102.78 31,143.89 32,82.22 33,82.22 34,143.89 35,102.78 36,82.22 37,164.44 38,82.22 39,143.89 40,82.22 41,102.78 42,61.67 43,82.22 44,102.78 45,123.33 46,82.22 47,246.67 48,308.33 49,82.22 50,123.33 51,123.33 52,102.78 53,123.33 54,82.22 55,102.78 56,102.78 57,185 58,123.33 59,164.44 60,267.22 61,102.78 62,143.89 63,164.44 64,102.78 65,226.11 66,102.78 67,123.33 68,123.33 69,164.44 70,164.44 71,123.33 72,143.89 73,205.56 74,164.44 75,123.33 76,102.78 77,205.56 78,102.78 79,164.44 80,61.67 81,61.67 82,102.78 83,123.33 84,102.78 85,102.78 86,308.33 87,143.89 88,123.33 89,164.44 90,143.89 91,349.44 92,328.89 93,164.44 94,308.33 95,102.78 96,123.33 98,123.33 99,102.78 100,102.78 101,205.56 102,349.44 103,226.11 104,102.78 106,102.78 107,143.89 108,164.44 109,102.78 110,143.89 111,185 112,102.78 113,143.89 114,143.89 115,123.33 116,287.78 117,349.44 118,370 119,349.44 120,143.89 121,102.78 122,102.78 123,123.33 124,123.33 125,82.22 126,123.33 127,102.78 128,205.56 129,143.89 130,102.78 131,102.78 132,123.33 133,123.33 134,82.22 135,123.33 138,123.33 139,185 140,123.33 141,102.78 142,164.44 143,226.11 144,143.89 145,123.33 145.53,370"><title>LR761640.1</title></polygon><rect class="average" height="1" width="145.53" x="0" y="135.55"><title>average:11.41</title></rect><rect class="median" height="1" width="145.53" x="0" y="143.89"><title>median:11</title></rect><text class="chromName" x="72.77" y="-12">LR761640.1<title>LR761640.1 62,107,823 bp</title></text><rect class="frame" height="370" width="145.53" x="0" y="0"/></g><g id="chrom-LR761641.1" transform="translate(1039.265271917344,0)"><polygon class="cov1" points="0,370 0,267.22 1,205.56 2,267.22 3,205.56 4,185 5,287.78 6,328.89 7,226.11 8,226.11 9,185 10,164.44 11,226.11 12,226.11 13,143.89 14,205.56 15,164.44 16,205.56 17,349.44 18,143.89 19,123.33 20,123.33 21,205.56 22,205.56 23,164.44 24,185 25,185 26,226.11 27,205.56 28,205.56 29,328.89 30,205.56 31,185 32,267.22 33,226.11 34,267.22 35,328.89 36,370 37,328.89 38,246.67 39,246.67 40,226.11 41,308.33 42,349.44 43,349.44 44,246.67 45,226.11 46,226.11 47,287.78 48,205.56 49,123.33 50,226.11 51,143.89 52,123.33 54,123.33 55,102.78 56,123.33 57,185 58,205.56 59,143.89 60,164.44 61,287.78 62,123.33 63,164.44 64,164.44 65,226.11 66,205.56 67,226.11 68,267.22 69,164.44 70,328.89 71,143.89 72,226.11 73,308.33 74,205.56 75,328.89 76,185 77,226.11 78,164.44 79,246.67 80,308.33 81,308.33 82,328.89 83,328.89 84,185 85,164.44 86,246.67 87,123.33 88,205.56 89,185 90,328.89 91,267.22 92,123.33 93,267.22 94,226.11 95,205.56 96,185 97,349.44 98,143.89 99,267.22 100,308.33 101,143.89 102,164.44 103,123.33 104,205.56 105,143.89 106,267.22 107,143.89 110,143.89 111,328.89 112,185 113,267.22 114,123.33 115,164.44 116,123.33 117,185 118,164.44 119,205.56 120,246.67 121,205.56 122,164.44 123,246.67 124,164.44 125,226.11 126,267.22 127,123.33 128,246.67 129,205.56 130,287.78 131,205.56 132,349.44 133,287.78 134,164.44 135,370 136,349.44 136.99,370"><title>LR761641.1</title></polygon><rect class="average" height="1" width="136.99" x="0" y="183.38"><title>average:9.08</title></rect><rect class="median" height="1" width="136.99" x="0" y="205.56"><title>median:8</title></rect><text class="chromName" x="68.5" y="-12">LR761641.1<title>LR761641.1 58,462,999 bp</title></text><rect class="frame" height="370" width="136.99" x="0" y="0"/></g><g id="chrom-LR761642.1" transform="translate(1177.25719230686,0)"><polygon class="cov0" points="0,370 0,349.44 1,308.33 2,205.56 4,205.56 5,267.22 6,287.78 7,287.78 8,205.56 9,185 10,205.56 11,205.56 12,185 13,123.33 14,164.44 15,226.11 16,267.22 17,164.44 18,185 19,143.89 20,143.89 21,123.33 22,143.89 23,246.67 24,164.44 25,102.78 26,205.56 27,205.56 28,308.33 29,164.44 30,205.56 31,123.33 32,143.89 33,205.56 34,185 35,267.22 36,164.44 37,143.89 38,123.33 39,205.56 40,143.89 41,164.44 42,123.33 43,143.89 44,164.44 45,226.11 46,143.89 47,246.67 48,308.33 49,267.22 50,205.56 52,205.56 53,123.33 54,123.33 55,205.56 56,164.44 57,205.56 58,246.67 59,143.89 60,164.44 61,328.89 62,205.56 63,164.44 64,205.56 65,185 66,185 67,267.22 68,267.22 69,164.44 70,123.33 71,267.22 72,143.89 73,205.56 74,143.89 75,185 76,328.89 77,185 78,143.89 79,246.67 80,226.11 81,205.56 82,308.33 83,246.67 84,308.33 85,226.11 86,328.89 86.91,370"><title>LR761642.1</title></polygon><rect class="average" height="1" width="86.91" x="0" y="167.04"><title>average:9.87</title></rect><rect class="median" height="1" width="86.91" x="0" y="205.56"><title>median:8</title></rect><text class="chromName" x="43.45" y="-12">LR761642.1<title>LR761642.1 37,089,910 bp</title></text><rect class="frame" height="370" width="86.91" x="0" y="0"/></g><g id="chrom-LR761643.1" transform="translate(1265.1671710093603,0)"><polygon class="cov1" points="0,370 0,349.44 1,287.78 2,205.56 3,123.33 4,164.44 5,226.11 6,205.56 7,185 8,164.44 9,123.33 10,143.89 11,185 12,123.33 13,185 14,226.11 15,123.33 16,102.78 17,123.33 18,143.89 19,164.44 20,370 21,143.89 22,102.78 23,102.78 24,143.89 25,164.44 26,287.78 27,349.44 28,308.33 29,123.33 30,246.67 31,123.33 32,205.56 33,102.78 34,123.33 35,185 36,246.67 37,102.78 40,102.78 41,123.33 42,164.44 43,246.67 44,123.33 45,164.44 46,102.78 47,267.22 48,143.89 49,102.78 50,164.44 51,102.78 52,102.78 53,143.89 54,123.33 55,102.78 56,102.78 57,82.22 58,82.22 59,123.33 60,102.78 61,102.78 62,143.89 63,123.33 64,123.33 65,185 66,123.33 68,123.33 69,102.78 70,123.33 71,226.11 72,164.44 73,164.44 74,82.22 75,205.56 76,123.33 77,102.78 78,205.56 79,267.22 80,102.78 81,82.22 82,102.78 83,102.78 84,82.22 85,102.78 86,102.78 87,82.22 88,143.89 89,349.44 90,143.89 91,102.78 92,82.22 93,123.33 94,82.22 95,123.33 96,82.22 99,82.22 100,102.78 101,205.56 102,102.78 103,102.78 104,123.33 105,123.33 106,102.78 108,102.78 109,82.22 111,82.22 112,102.78 113,226.11 114,123.33 115,102.78 116,82.22 117,82.22 118,102.78 119,143.89 120,102.78 123,102.78 124,123.33 126,123.33 127,185 128,164.44 129,123.33 130,164.44 131,246.67 132,143.89 133,328.89 134,349.44 134.83,370"><title>LR761643.1</title></polygon><rect class="average" height="1" width="134.83" x="0" y="137.91"><title>average:11.29</title></rect><rect class="median" height="1" width="134.83" x="0" y="143.89"><title>median:11</title></rect><text class="chromName" x="67.42" y="-12">LR761643.1<title>LR761643.1 57,541,580 bp</title></text><rect class="frame" height="370" width="134.83" x="0" y="0"/></g><g><line class="ruler" x1="-2" x2="1390" y1="333" y2="333"><title>1</title></line><text class="ruler" x="-5" y="333">1</text><line class="ruler" x1="-2" x2="1390" y1="296" y2="296"><title>3</title></line><text class="ruler" x="-5" y="296">3</text><line class="ruler" x1="-2" x2="1390" y1="259" y2="259"><title>5</title></line><text class="ruler" x="-5" y="259">5</text><line class="ruler" x1="-2" x2="1390" y1="222" y2="222"><title>7</title></line><text class="ruler" x="-5" y="222">7</text><line class="ruler" x1="-2" x2="1390" y1="185" y2="185"><title>9</title></line><text class="ruler" x="-5" y="185">9</text><line class="ruler" x1="-2" x2="1390" y1="148" y2="148"><title>10</title></line><text class="ruler" x="-5" y="148">10</text><line class="ruler" x1="-2" x2="1390" y1="111" y2="111"><title>12</title></line><text class="ruler" x="-5" y="111">12</text><line class="ruler" x1="-2" x2="1390" y1="74" y2="74"><title>14</title></line><text class="ruler" x="-5" y="74">14</text><line class="ruler" x1="-2" x2="1390" y1="37" y2="37"><title>16</title></line><text class="ruler" x="-5" y="37">16</text><line class="ruler" x1="-2" x2="1390" y1="0" y2="0"><title>18</title></line><text class="ruler" x="-5" y="0">18</text></g></g><text class="title" x="795" y="40">F04.realigned.bam F04<title>./F04.realigned.bam</title></text><text class="xLabel" x="795" y="475">GCA_902806645.1_cgigas_uk_roslin_v1_genomic.fna  (589,358,857 bp)<title>../ref/GCA_902806645.1_cgigas_uk_roslin_v1_genomic.fna</title></text><text class="yLabel" transform="translate(25,265) rotate(90)" x="0" y="0">Coverage bp (median)</text></g></svg>