<?xml version="1.0" encoding="UTF-8" standalone="no"?><svg height="500" width="1500" xmlns="http://www.w3.org/2000/svg"><title>F05.realigned.bam</title><desc>Made with wgscoverageplotter undefined Author: Pierre Lindenbaum</desc><style>g.maing {stroke:black;stroke-width:0.5px;fill:none;}
text.title {stroke:none;fill:black;stroke-width:1px;text-anchor:middle;}
rect.frame {stroke:darkgray;fill:none;stroke-width:0.5px;}
text.ruler {stroke:none;fill:darkgray;stroke-width:1px;text-anchor:end;}
text.chromName {stroke:none;fill:darkgray;stroke-width:1px;text-anchor:middle;}
text.xLabel {stroke:none;fill:black;stroke-width:1px;text-anchor:middle;}
text.yLabel {stroke:none;fill:black;stroke-width:1px;text-anchor:middle;}
.cov0 {stroke:gray;fill:antiquewhite;stroke-width:0.5px;}
.cov1 {stroke:gray;fill:beige;stroke-width:0.5px;}
rect.average {stroke:green;fill:green;stroke-width:0.5px;opacity:0.3;}
rect.median {stroke:red;fill:red;stroke-width:0.5px;opacity:0.3;}
line.ruler {stroke:darkgray;stroke-dasharray:4;fill:none;stroke-width:1;}
</style><g class="maing"><g id="chromosomes" transform="translate(100.0,80.0)"><g id="chrom-LR761634.1" transform="translate(10.0,0)"><polygon class="cov0" points="0,370 0,323.75 1,138.75 2,185 3,277.5 4,231.25 5,185 6,323.75 7,185 8,185 9,92.5 10,138.75 11,92.5 12,185 13,231.25 14,277.5 15,92.5 16,92.5 17,231.25 18,92.5 20,92.5 21,138.75 24,138.75 25,92.5 31,92.5 32,231.25 33,92.5 35,92.5 36,46.25 37,138.75 38,138.75 39,92.5 42,92.5 43,138.75 44,92.5 45,185 46,138.75 47,92.5 48,138.75 49,92.5 50,138.75 51,92.5 53,92.5 54,185 55,185 56,92.5 58,92.5 59,138.75 60,138.75 61,92.5 62,138.75 63,138.75 64,185 65,138.75 66,92.5 67,185 68,92.5 69,185 70,92.5 71,92.5 72,185 73,138.75 74,138.75 75,92.5 76,92.5 77,138.75 78,138.75 79,92.5 80,323.75 81,277.5 82,92.5 83,92.5 84,138.75 85,92.5 86,92.5 87,185 88,92.5 89,277.5 90,92.5 92,92.5 93,138.75 94,46.25 95,92.5 96,46.25 97,185 98,231.25 99,92.5 100,92.5 101,138.75 104,138.75 105,92.5 106,185 107,185 108,277.5 109,92.5 110,92.5 111,138.75 112,92.5 113,185 114,323.75 115,231.25 116,92.5 118,92.5 119,138.75 120,231.25 121,92.5 122,138.75 123,92.5 124,138.75 125,92.5 126,138.75 127,138.75 128,185 129,185 130,231.25 130.72,370"><title>LR761634.1</title></polygon><rect class="average" height="1" width="130.72" x="0" y="112.55"><title>average:5.57</title></rect><rect class="median" height="1" width="130.72" x="0" y="138.75"><title>median:5</title></rect><text class="chromName" x="65.36" y="-12">LR761634.1<title>LR761634.1 55,785,328 bp</title></text><rect class="frame" height="370" width="130.72" x="0" y="0"/></g><g id="chrom-LR761635.1" transform="translate(141.71753661284166,0)"><polygon class="cov1" points="0,370 0,370 1,323.75 2,370 5,370 6,185 7,323.75 8,323.75 9,277.5 10,323.75 12,323.75 13,138.75 14,231.25 15,277.5 18,277.5 19,138.75 20,323.75 21,277.5 23,277.5 24,323.75 25,370 26,323.75 27,370 28,323.75 29,370 30,370 31,323.75 32,277.5 33,231.25 35,231.25 36,277.5 37,370 38,323.75 39,185 40,231.25 41,277.5 42,185 45,185 46,231.25 47,138.75 48,323.75 49,185 50,231.25 51,370 52,277.5 53,231.25 54,323.75 55,323.75 56,370 57,323.75 58,138.75 59,277.5 61,277.5 62,92.5 63,323.75 64,323.75 65,277.5 66,231.25 67,370 68,277.5 69,323.75 70,277.5 71,231.25 74,231.25 75,185 76,370 77,370 78,323.75 79,323.75 80,138.75 81,323.75 82,323.75 83,277.5 84,370 85,277.5 86,370 87,370 88,323.75 89,370 90,277.5 91,323.75 92,277.5 93,323.75 94,277.5 95,277.5 96,370 97,370 98,323.75 99,370 100,323.75 101,277.5 102,323.75 103,231.25 104,185 105,185 106,231.25 107,277.5 108,185 109,185 110,231.25 111,185 112,323.75 113,370 114,323.75 115,323.75 116,370 117,277.5 118,138.75 120,138.75 121,277.5 122,185 123,231.25 124,185 125,138.75 126,277.5 127,323.75 128,92.5 129,185 130,185 131,277.5 132,185 133,231.25 134,323.75 135,323.75 136,370 137,323.75 138,323.75 139,277.5 140,323.75 142,323.75 143,370 144,277.5 145,231.25 146,185 147,138.75 149,138.75 150,231.25 151,231.25 152,370 153,231.25 154,370 155,323.75 156,277.5 157,231.25 158,277.5 159,138.75 160,277.5 161,231.25 162,323.75 163,231.25 164,185 166,185 167,231.25 168,231.25 169,323.75 171,323.75 171.58,370"><title>LR761635.1</title></polygon><rect class="average" height="1" width="171.58" x="0" y="194.02"><title>average:3.81</title></rect><rect class="median" height="1" width="171.58" x="0" y="277.5"><title>median:2</title></rect><text class="chromName" x="85.79" y="-12">LR761635.1<title>LR761635.1 73,222,313 bp</title></text><rect class="frame" height="370" width="171.58" x="0" y="0"/></g><g id="chrom-LR761636.1" transform="translate(314.2938403401308,0)"><polygon class="cov0" points="0,370 0,185 2,185 3,323.75 4,185 5,92.5 6,138.75 7,185 8,92.5 9,138.75 10,92.5 11,92.5 12,138.75 13,277.5 14,92.5 15,138.75 16,92.5 18,92.5 19,138.75 20,138.75 21,92.5 23,92.5 24,185 25,92.5 26,231.25 27,277.5 28,92.5 29,46.25 30,92.5 31,46.25 32,46.25 33,92.5 34,92.5 35,231.25 36,92.5 37,138.75 38,92.5 39,92.5 40,138.75 41,92.5 42,138.75 43,92.5 44,92.5 45,138.75 46,138.75 47,92.5 48,185 49,138.75 50,138.75 51,46.25 52,92.5 53,92.5 54,231.25 55,138.75 56,138.75 57,92.5 58,138.75 59,92.5 60,92.5 61,138.75 62,138.75 63,92.5 64,92.5 65,138.75 68,138.75 69,92.5 70,138.75 71,46.25 72,92.5 73,138.75 75,138.75 76,277.5 77,185 78,231.25 80,231.25 81,92.5 82,138.75 83,92.5 85,92.5 86,277.5 87,138.75 88,92.5 89,185 90,92.5 91,92.5 92,138.75 94,138.75 95,185 96,185 97,92.5 98,92.5 99,138.75 102,138.75 103,46.25 104,92.5 110,92.5 111,138.75 112,92.5 114,92.5 115,46.25 116,46.25 117,92.5 118,138.75 119,92.5 123,92.5 124,138.75 125,92.5 126,92.5 127,185 128,185 129,92.5 130,138.75 131,138.75 132,185 133,138.75 134,92.5 135,138.75 136,185 136.65,370"><title>LR761636.1</title></polygon><rect class="average" height="1" width="136.65" x="0" y="108.55"><title>average:5.65</title></rect><rect class="median" height="1" width="136.65" x="0" y="138.75"><title>median:5</title></rect><text class="chromName" x="68.33" y="-12">LR761636.1<title>LR761636.1 58,319,100 bp</title></text><rect class="frame" height="370" width="136.65" x="0" y="0"/></g><g id="chrom-LR761637.1" transform="translate(451.9485730949149,0)"><polygon class="cov1" points="0,370 0,370 1,231.25 2,277.5 3,231.25 4,231.25 5,185 6,185 7,277.5 9,277.5 10,323.75 11,185 12,231.25 13,277.5 14,323.75 15,185 16,185 17,92.5 18,277.5 19,323.75 20,277.5 21,138.75 22,185 23,231.25 24,277.5 25,138.75 26,138.75 27,231.25 30,231.25 31,138.75 33,138.75 34,92.5 35,138.75 36,231.25 37,138.75 40,138.75 41,185 42,138.75 43,277.5 44,323.75 45,138.75 46,138.75 47,92.5 49,92.5 50,138.75 51,92.5 52,46.25 53,185 54,92.5 55,92.5 56,138.75 57,231.25 58,277.5 59,323.75 60,323.75 61,185 62,92.5 64,92.5 65,138.75 66,92.5 67,138.75 68,138.75 69,92.5 70,138.75 71,92.5 72,138.75 73,92.5 74,138.75 75,138.75 76,92.5 77,138.75 78,138.75 79,185 80,138.75 81,138.75 82,92.5 83,138.75 84,138.75 85,92.5 86,231.25 87,138.75 88,92.5 92,92.5 93,138.75 94,185 96,185 97,138.75 98,92.5 99,92.5 100,185 101,277.5 104,277.5 105,185 106,138.75 107,92.5 110,92.5 111,138.75 112,138.75 113,92.5 114,277.5 115,185 117,185 118,138.75 119,277.5 120,185 121,138.75 122,370 123,370 124,277.5 124.49,370"><title>LR761637.1</title></polygon><rect class="average" height="1" width="124.49" x="0" y="138.14"><title>average:5.01</title></rect><rect class="median" height="1" width="124.49" x="0" y="185"><title>median:4</title></rect><text class="chromName" x="62.25" y="-12">LR761637.1<title>LR761637.1 53,127,865 bp</title></text><rect class="frame" height="370" width="124.49" x="0" y="0"/></g><g id="chrom-LR761638.1" transform="translate(577.4390778079033,0)"><polygon class="cov0" points="0,370 0,231.25 1,138.75 2,185 3,138.75 4,231.25 5,138.75 6,231.25 7,185 8,185 9,92.5 10,138.75 11,323.75 12,138.75 13,138.75 14,92.5 15,138.75 16,92.5 17,92.5 18,277.5 19,323.75 20,138.75 21,231.25 22,138.75 23,92.5 24,92.5 25,185 26,323.75 27,92.5 28,138.75 29,277.5 30,277.5 31,138.75 32,370 33,370 34,185 35,231.25 36,138.75 37,323.75 41,323.75 42,231.25 43,138.75 44,138.75 45,323.75 46,92.5 47,92.5 48,138.75 49,185 50,370 51,231.25 52,185 53,185 54,277.5 55,277.5 56,138.75 57,185 58,138.75 59,185 60,138.75 61,231.25 62,138.75 63,185 64,277.5 65,370 66,185 67,185 68,138.75 69,185 70,92.5 71,231.25 72,370 73,277.5 74,277.5 75,370 76,185 77,138.75 78,370 79,277.5 81,277.5 82,370 83,231.25 84,185 85,138.75 86,92.5 87,138.75 88,323.75 89,138.75 90,277.5 91,138.75 92,92.5 94,92.5 95,185 96,277.5 97,138.75 98,231.25 99,185 100,92.5 101,138.75 102,185 103,138.75 104,92.5 105,185 106,277.5 107,138.75 108,138.75 109,92.5 110,185 111,185 112,231.25 113,231.25 114,138.75 115,231.25 116,323.75 117,370 118,323.75 119,370 123,370 124,323.75 126,323.75 127,231.25 128,370 129,277.5 130,323.75 131,277.5 132,323.75 135,323.75 136,138.75 137,370 138,370 139,277.5 140,370 141,370 142,277.5 143,231.25 144,185 145,185 146,231.25 147,138.75 148,138.75 149,185 150,231.25 151,277.5 152,185 153,185 154,231.25 155,277.5 156,185 157,370 158,277.5 159,323.75 160,370 161,323.75 162,277.5 163,277.5 164,323.75 165,370 168,370 169,231.25 170,370 171,323.75 172,323.75 172.35,370"><title>LR761638.1</title></polygon><rect class="average" height="1" width="172.35" x="0" y="176.43"><title>average:4.19</title></rect><rect class="median" height="1" width="172.35" x="0" y="231.25"><title>median:3</title></rect><text class="chromName" x="86.17" y="-12">LR761638.1<title>LR761638.1 73,550,375 bp</title></text><rect class="frame" height="370" width="172.35" x="0" y="0"/></g><g id="chrom-LR761639.1" transform="translate(750.784104388203,0)"><polygon class="cov1" points="0,370 0,185 1,138.75 2,138.75 3,277.5 4,92.5 5,231.25 6,370 7,185 8,138.75 9,92.5 10,138.75 11,185 12,277.5 13,92.5 14,185 15,92.5 18,92.5 19,46.25 20,92.5 21,92.5 22,138.75 24,138.75 25,185 26,138.75 27,323.75 28,370 29,185 30,277.5 31,92.5 32,138.75 33,92.5 34,185 35,185 36,231.25 37,138.75 38,92.5 39,92.5 40,231.25 41,92.5 42,138.75 43,46.25 44,92.5 45,92.5 46,138.75 47,92.5 48,92.5 49,138.75 50,138.75 51,92.5 52,138.75 53,138.75 54,92.5 63,92.5 64,46.25 65,92.5 66,138.75 67,92.5 68,92.5 69,185 70,92.5 73,92.5 74,185 75,92.5 79,92.5 80,138.75 81,92.5 83,92.5 84,138.75 85,92.5 87,92.5 88,46.25 89,92.5 92,92.5 93,138.75 94,138.75 95,92.5 96,92.5 97,46.25 98,92.5 100,92.5 101,46.25 102,92.5 103,92.5 104,46.25 105,92.5 106,231.25 107,92.5 108,46.25 109,92.5 110,92.5 111,370 112,92.5 113,46.25 114,138.75 115,92.5 118,92.5 119,46.25 120,138.75 121,92.5 123,92.5 124,138.75 125,92.5 129,92.5 130,185 131,138.75 132,185 133,370 134,92.5 135,185 136,185 137,138.75 138,231.25 139,185 140,277.5 140.95,370"><title>LR761639.1</title></polygon><rect class="average" height="1" width="140.95" x="0" y="103.81"><title>average:5.76</title></rect><rect class="median" height="1" width="140.95" x="0" y="138.75"><title>median:5</title></rect><text class="chromName" x="70.47" y="-12">LR761639.1<title>LR761639.1 60,151,564 bp</title></text><rect class="frame" height="370" width="140.95" x="0" y="0"/></g><g id="chrom-LR761640.1" transform="translate(892.7327113317651,0)"><polygon class="cov0" points="0,370 0,185 1,138.75 2,185 4,185 5,92.5 6,185 7,185 8,138.75 10,138.75 11,92.5 12,92.5 13,277.5 14,185 15,92.5 16,277.5 17,92.5 18,92.5 19,185 20,92.5 22,92.5 23,46.25 24,92.5 25,92.5 26,46.25 27,92.5 32,92.5 33,46.25 34,138.75 35,92.5 36,92.5 37,185 38,46.25 39,138.75 40,46.25 41,92.5 42,46.25 43,46.25 44,92.5 45,92.5 46,138.75 47,231.25 48,323.75 49,46.25 50,92.5 53,92.5 54,46.25 55,46.25 56,92.5 57,231.25 58,92.5 59,138.75 60,231.25 61,92.5 62,138.75 63,138.75 64,92.5 65,231.25 66,92.5 68,92.5 69,138.75 70,138.75 71,92.5 72,138.75 73,231.25 74,138.75 75,92.5 76,92.5 77,231.25 78,92.5 79,138.75 80,46.25 82,46.25 83,92.5 85,92.5 86,323.75 87,138.75 90,138.75 91,323.75 92,231.25 93,138.75 94,277.5 95,92.5 100,92.5 101,231.25 102,370 103,185 104,92.5 105,92.5 106,46.25 107,138.75 108,185 109,92.5 110,92.5 111,185 112,92.5 115,92.5 116,138.75 117,185 119,185 120,92.5 121,46.25 122,92.5 127,92.5 128,185 129,138.75 130,92.5 131,92.5 132,138.75 133,92.5 134,46.25 135,92.5 138,92.5 139,185 140,92.5 141,92.5 142,185 143,185 144,138.75 145,92.5 145.53,370"><title>LR761640.1</title></polygon><rect class="average" height="1" width="145.53" x="0" y="102.85"><title>average:5.78</title></rect><rect class="median" height="1" width="145.53" x="0" y="138.75"><title>median:5</title></rect><text class="chromName" x="72.77" y="-12">LR761640.1<title>LR761640.1 62,107,823 bp</title></text><rect class="frame" height="370" width="145.53" x="0" y="0"/></g><g id="chrom-LR761641.1" transform="translate(1039.265271917344,0)"><polygon class="cov1" points="0,370 0,277.5 1,185 2,231.25 3,185 4,46.25 5,231.25 6,277.5 7,277.5 8,323.75 9,185 10,185 11,231.25 12,231.25 13,92.5 14,185 15,138.75 16,185 17,323.75 18,138.75 19,138.75 20,92.5 21,231.25 22,231.25 23,185 25,185 26,231.25 27,185 28,231.25 29,323.75 30,231.25 31,185 32,231.25 33,185 34,277.5 35,277.5 36,323.75 37,185 38,277.5 39,277.5 40,231.25 41,323.75 42,277.5 43,323.75 44,277.5 45,231.25 46,231.25 47,277.5 48,277.5 49,92.5 50,185 51,138.75 52,92.5 56,92.5 57,138.75 58,185 60,185 61,323.75 62,138.75 63,185 64,185 65,231.25 66,185 67,185 68,231.25 69,138.75 70,138.75 71,92.5 72,185 73,231.25 74,231.25 75,370 76,231.25 77,231.25 78,185 79,231.25 80,231.25 81,370 82,370 83,323.75 84,185 85,185 86,277.5 87,92.5 88,138.75 89,185 90,185 91,277.5 92,138.75 93,277.5 94,277.5 95,185 96,185 97,370 98,138.75 99,370 100,323.75 101,92.5 102,138.75 103,92.5 104,185 105,138.75 106,231.25 107,138.75 110,138.75 111,185 112,92.5 113,277.5 114,138.75 115,138.75 116,92.5 117,185 118,138.75 119,231.25 120,185 121,231.25 122,138.75 123,231.25 124,138.75 125,231.25 126,277.5 127,138.75 128,231.25 129,185 130,277.5 131,231.25 132,323.75 133,277.5 134,138.75 135,370 136,277.5 136.99,370"><title>LR761641.1</title></polygon><rect class="average" height="1" width="136.99" x="0" y="156.52"><title>average:4.62</title></rect><rect class="median" height="1" width="136.99" x="0" y="185"><title>median:4</title></rect><text class="chromName" x="68.5" y="-12">LR761641.1<title>LR761641.1 58,462,999 bp</title></text><rect class="frame" height="370" width="136.99" x="0" y="0"/></g><g id="chrom-LR761642.1" transform="translate(1177.25719230686,0)"><polygon class="cov0" points="0,370 0,323.75 2,323.75 3,277.5 4,323.75 7,323.75 8,370 9,323.75 10,277.5 11,231.25 12,231.25 13,138.75 14,185 15,185 16,323.75 17,231.25 18,277.5 19,277.5 20,185 21,138.75 22,277.5 23,277.5 24,138.75 25,92.5 26,185 27,231.25 28,277.5 29,138.75 30,231.25 31,92.5 32,138.75 33,185 34,138.75 35,277.5 36,138.75 37,138.75 38,92.5 39,138.75 41,138.75 42,92.5 43,138.75 44,138.75 45,231.25 46,138.75 47,231.25 48,323.75 49,277.5 50,231.25 51,185 52,185 53,92.5 54,92.5 55,185 57,185 58,231.25 59,138.75 60,138.75 61,370 62,185 63,138.75 64,185 65,185 66,138.75 67,277.5 68,185 69,138.75 70,138.75 71,231.25 72,138.75 73,231.25 74,138.75 75,185 76,323.75 77,138.75 78,138.75 79,231.25 80,231.25 81,185 82,323.75 83,231.25 84,323.75 85,277.5 86,277.5 86.91,370"><title>LR761642.1</title></polygon><rect class="average" height="1" width="86.91" x="0" y="148.38"><title>average:4.79</title></rect><rect class="median" height="1" width="86.91" x="0" y="231.25"><title>median:3</title></rect><text class="chromName" x="43.45" y="-12">LR761642.1<title>LR761642.1 37,089,910 bp</title></text><rect class="frame" height="370" width="86.91" x="0" y="0"/></g><g id="chrom-LR761643.1" transform="translate(1265.1671710093603,0)"><polygon class="cov1" points="0,370 0,370 1,277.5 2,138.75 4,138.75 5,231.25 6,138.75 7,185 8,138.75 9,46.25 10,138.75 11,185 12,92.5 13,231.25 14,231.25 15,92.5 16,92.5 17,138.75 18,138.75 19,185 20,370 21,138.75 22,92.5 23,92.5 24,185 25,138.75 26,370 27,370 28,277.5 29,92.5 30,231.25 31,138.75 32,231.25 33,92.5 34,92.5 35,185 36,231.25 37,92.5 38,92.5 39,46.25 40,92.5 41,138.75 42,138.75 43,277.5 44,92.5 45,138.75 46,46.25 47,138.75 48,138.75 49,92.5 50,185 51,92.5 53,92.5 54,138.75 55,92.5 57,92.5 58,46.25 59,92.5 61,92.5 62,138.75 63,92.5 64,138.75 66,138.75 67,92.5 68,138.75 69,92.5 70,138.75 71,185 72,138.75 73,277.5 74,46.25 75,138.75 76,92.5 77,92.5 78,138.75 79,231.25 80,92.5 81,46.25 82,92.5 83,92.5 84,46.25 85,92.5 86,92.5 87,46.25 88,138.75 89,323.75 90,185 91,92.5 92,92.5 93,138.75 94,46.25 95,92.5 96,46.25 97,92.5 98,92.5 99,46.25 100,92.5 101,231.25 102,92.5 103,92.5 104,138.75 105,92.5 106,46.25 107,92.5 108,92.5 109,46.25 110,92.5 111,46.25 112,92.5 113,185 114,92.5 115,92.5 116,46.25 117,92.5 118,92.5 119,138.75 120,92.5 126,92.5 127,185 128,138.75 129,92.5 130,185 131,185 132,138.75 133,277.5 134,323.75 134.83,370"><title>LR761643.1</title></polygon><rect class="average" height="1" width="134.83" x="0" y="109.86"><title>average:5.62</title></rect><rect class="median" height="1" width="134.83" x="0" y="138.75"><title>median:5</title></rect><text class="chromName" x="67.42" y="-12">LR761643.1<title>LR761643.1 57,541,580 bp</title></text><rect class="frame" height="370" width="134.83" x="0" y="0"/></g><g><line class="ruler" x1="-2" x2="1390" y1="296" y2="296"><title>1</title></line><text class="ruler" x="-5" y="296">1</text><line class="ruler" x1="-2" x2="1390" y1="259" y2="259"><title>2</title></line><text class="ruler" x="-5" y="259">2</text><line class="ruler" x1="-2" x2="1390" y1="222" y2="222"><title>3</title></line><text class="ruler" x="-5" y="222">3</text><line class="ruler" x1="-2" x2="1390" y1="185" y2="185"><title>4</title></line><text class="ruler" x="-5" y="185">4</text><line class="ruler" x1="-2" x2="1390" y1="111" y2="111"><title>5</title></line><text class="ruler" x="-5" y="111">5</text><line class="ruler" x1="-2" x2="1390" y1="74" y2="74"><title>6</title></line><text class="ruler" x="-5" y="74">6</text><line class="ruler" x1="-2" x2="1390" y1="37" y2="37"><title>7</title></line><text class="ruler" x="-5" y="37">7</text><line class="ruler" x1="-2" x2="1390" y1="0" y2="0"><title>8</title></line><text class="ruler" x="-5" y="0">8</text></g></g><text class="title" x="795" y="40">F05.realigned.bam F05<title>./F05.realigned.bam</title></text><text class="xLabel" x="795" y="475">GCA_902806645.1_cgigas_uk_roslin_v1_genomic.fna  (589,358,857 bp)<title>../ref/GCA_902806645.1_cgigas_uk_roslin_v1_genomic.fna</title></text><text class="yLabel" transform="translate(25,265) rotate(90)" x="0" y="0">Coverage bp (median)</text></g></svg>