<?xml version="1.0" encoding="UTF-8" standalone="no"?><svg height="500" width="1500" xmlns="http://www.w3.org/2000/svg"><title>F06.realigned.bam</title><desc>Made with wgscoverageplotter undefined Author: Pierre Lindenbaum</desc><style>g.maing {stroke:black;stroke-width:0.5px;fill:none;}
text.title {stroke:none;fill:black;stroke-width:1px;text-anchor:middle;}
rect.frame {stroke:darkgray;fill:none;stroke-width:0.5px;}
text.ruler {stroke:none;fill:darkgray;stroke-width:1px;text-anchor:end;}
text.chromName {stroke:none;fill:darkgray;stroke-width:1px;text-anchor:middle;}
text.xLabel {stroke:none;fill:black;stroke-width:1px;text-anchor:middle;}
text.yLabel {stroke:none;fill:black;stroke-width:1px;text-anchor:middle;}
.cov0 {stroke:gray;fill:antiquewhite;stroke-width:0.5px;}
.cov1 {stroke:gray;fill:beige;stroke-width:0.5px;}
rect.average {stroke:green;fill:green;stroke-width:0.5px;opacity:0.3;}
rect.median {stroke:red;fill:red;stroke-width:0.5px;opacity:0.3;}
line.ruler {stroke:darkgray;stroke-dasharray:4;fill:none;stroke-width:1;}
</style><g class="maing"><g id="chromosomes" transform="translate(100.0,80.0)"><g id="chrom-LR761634.1" transform="translate(10.0,0)"><polygon class="cov0" points="0,370 0,317.14 1,158.57 2,211.43 3,290.71 4,237.86 5,211.43 6,290.71 7,211.43 8,185 9,158.57 10,158.57 11,132.14 12,185 13,237.86 14,290.71 15,158.57 16,158.57 17,211.43 18,158.57 19,158.57 20,132.14 21,158.57 22,185 23,185 24,158.57 25,132.14 27,132.14 28,158.57 29,132.14 31,132.14 32,264.29 33,132.14 34,158.57 35,158.57 36,105.71 37,185 39,185 40,132.14 42,132.14 43,185 44,158.57 45,211.43 46,185 47,158.57 51,158.57 52,132.14 53,158.57 54,290.71 55,343.57 56,132.14 57,105.71 58,132.14 59,158.57 60,158.57 61,132.14 62,158.57 63,211.43 64,185 65,158.57 66,158.57 67,211.43 68,132.14 69,158.57 70,132.14 71,132.14 72,237.86 73,185 74,158.57 75,132.14 76,132.14 77,158.57 78,185 79,158.57 80,158.57 81,185 82,132.14 83,158.57 84,158.57 85,132.14 86,132.14 87,211.43 88,132.14 89,290.71 90,158.57 91,132.14 92,132.14 93,185 94,105.71 95,158.57 96,105.71 97,158.57 98,237.86 99,158.57 100,158.57 101,237.86 102,185 104,185 105,132.14 106,211.43 107,211.43 108,264.29 109,132.14 110,132.14 111,158.57 113,158.57 114,317.14 115,211.43 116,132.14 117,158.57 118,132.14 119,185 120,185 121,132.14 122,158.57 123,158.57 124,185 125,158.57 126,158.57 127,185 128,237.86 129,211.43 130,237.86 130.72,370"><title>LR761634.1</title></polygon><rect class="average" height="1" width="130.72" x="0" y="160.36"><title>average:7.93</title></rect><rect class="median" height="1" width="130.72" x="0" y="158.57"><title>median:8</title></rect><text class="chromName" x="65.36" y="-12">LR761634.1<title>LR761634.1 55,785,328 bp</title></text><rect class="frame" height="370" width="130.72" x="0" y="0"/></g><g id="chrom-LR761635.1" transform="translate(141.71753661284166,0)"><polygon class="cov1" points="0,370 0,370 1,370 2,343.57 3,317.14 4,343.57 5,370 6,264.29 7,317.14 8,343.57 9,237.86 10,185 11,290.71 12,132.14 13,158.57 14,211.43 15,317.14 16,343.57 17,237.86 18,290.71 19,211.43 20,290.71 21,317.14 22,290.71 23,185 24,290.71 25,370 26,290.71 27,317.14 28,290.71 29,370 30,343.57 31,343.57 32,264.29 33,237.86 34,211.43 35,211.43 36,237.86 37,317.14 38,343.57 39,185 42,185 43,237.86 44,211.43 45,185 46,237.86 47,132.14 48,185 49,158.57 50,185 51,211.43 52,185 53,317.14 54,317.14 55,237.86 56,237.86 57,264.29 58,211.43 59,317.14 60,370 61,290.71 62,158.57 63,290.71 64,237.86 65,290.71 66,290.71 67,317.14 68,290.71 69,264.29 71,264.29 72,237.86 73,264.29 74,264.29 75,237.86 76,343.57 77,79.29 78,264.29 79,317.14 80,185 81,317.14 82,343.57 83,290.71 84,343.57 85,290.71 86,370 89,370 90,290.71 91,343.57 92,343.57 93,264.29 94,317.14 95,317.14 96,370 97,317.14 98,343.57 99,343.57 100,290.71 101,317.14 102,343.57 103,264.29 104,290.71 105,185 106,211.43 107,264.29 108,211.43 109,211.43 110,343.57 111,211.43 112,370 113,343.57 114,317.14 115,237.86 116,343.57 117,317.14 118,185 119,211.43 120,158.57 121,237.86 122,264.29 123,264.29 124,237.86 125,185 126,237.86 127,317.14 128,264.29 129,185 130,185 131,317.14 132,211.43 133,237.86 134,317.14 135,290.71 136,317.14 137,343.57 138,317.14 139,290.71 140,343.57 141,317.14 142,290.71 143,343.57 144,290.71 145,264.29 146,264.29 147,132.14 148,211.43 149,158.57 150,237.86 151,317.14 152,343.57 153,237.86 154,264.29 155,317.14 156,317.14 157,290.71 158,343.57 159,211.43 160,237.86 161,264.29 162,290.71 163,237.86 164,264.29 165,317.14 166,343.57 167,370 168,343.57 169,317.14 170,317.14 171,343.57 171.58,370"><title>LR761635.1</title></polygon><rect class="average" height="1" width="171.58" x="0" y="216.75"><title>average:5.8</title></rect><rect class="median" height="1" width="171.58" x="0" y="290.71"><title>median:3</title></rect><text class="chromName" x="85.79" y="-12">LR761635.1<title>LR761635.1 73,222,313 bp</title></text><rect class="frame" height="370" width="171.58" x="0" y="0"/></g><g id="chrom-LR761636.1" transform="translate(314.2938403401308,0)"><polygon class="cov0" points="0,370 0,343.57 1,185 2,237.86 3,264.29 4,237.86 5,185 6,158.57 12,158.57 13,264.29 14,132.14 15,158.57 16,158.57 17,132.14 18,211.43 19,158.57 22,158.57 23,132.14 24,237.86 25,158.57 26,211.43 27,264.29 28,132.14 29,132.14 30,158.57 31,132.14 32,105.71 33,132.14 34,158.57 35,264.29 36,158.57 37,185 38,158.57 39,132.14 40,185 41,158.57 42,185 43,158.57 44,132.14 45,158.57 46,185 47,158.57 48,211.43 49,158.57 50,185 51,132.14 52,132.14 53,158.57 54,290.71 55,185 56,185 57,132.14 58,185 59,132.14 60,185 61,237.86 62,185 63,158.57 64,132.14 65,158.57 67,158.57 68,185 69,158.57 70,237.86 71,105.71 72,105.71 73,185 74,158.57 75,158.57 76,290.71 77,237.86 78,211.43 79,237.86 80,264.29 81,158.57 82,211.43 83,158.57 84,105.71 85,158.57 86,264.29 87,158.57 88,158.57 89,211.43 90,158.57 91,132.14 92,185 93,185 94,158.57 95,185 96,211.43 97,132.14 98,132.14 99,211.43 100,185 101,158.57 102,185 103,132.14 105,132.14 106,158.57 107,132.14 110,132.14 111,185 112,158.57 113,185 114,105.71 115,105.71 116,132.14 117,158.57 118,185 119,132.14 120,158.57 121,211.43 122,132.14 123,132.14 124,185 125,132.14 126,132.14 127,185 128,264.29 129,132.14 130,158.57 131,132.14 132,185 133,185 134,158.57 135,185 136,343.57 136.65,370"><title>LR761636.1</title></polygon><rect class="average" height="1" width="136.65" x="0" y="159.11"><title>average:7.98</title></rect><rect class="median" height="1" width="136.65" x="0" y="158.57"><title>median:8</title></rect><text class="chromName" x="68.33" y="-12">LR761636.1<title>LR761636.1 58,319,100 bp</title></text><rect class="frame" height="370" width="136.65" x="0" y="0"/></g><g id="chrom-LR761637.1" transform="translate(451.9485730949149,0)"><polygon class="cov1" points="0,370 0,237.86 3,237.86 4,211.43 5,158.57 6,185 7,237.86 8,158.57 9,237.86 10,343.57 11,211.43 12,185 13,264.29 14,343.57 15,211.43 16,237.86 17,105.71 18,185 20,185 21,158.57 22,185 23,185 24,317.14 25,132.14 26,158.57 27,237.86 28,237.86 29,211.43 30,264.29 31,185 32,185 33,158.57 34,132.14 35,185 36,343.57 37,343.57 38,185 39,185 40,158.57 41,132.14 42,158.57 43,290.71 44,317.14 45,158.57 47,158.57 48,132.14 49,132.14 50,185 51,132.14 52,105.71 53,158.57 54,105.71 55,132.14 56,132.14 57,237.86 58,290.71 59,237.86 61,237.86 62,132.14 63,158.57 64,132.14 65,158.57 66,158.57 67,185 68,211.43 69,132.14 70,158.57 71,158.57 72,211.43 73,132.14 74,185 75,158.57 76,158.57 77,185 78,185 79,158.57 80,185 81,185 82,132.14 83,158.57 84,158.57 85,132.14 86,237.86 87,185 88,132.14 89,158.57 90,132.14 91,158.57 92,132.14 93,185 94,185 95,237.86 96,211.43 97,158.57 98,132.14 99,158.57 100,185 101,211.43 102,185 103,211.43 104,211.43 105,264.29 106,132.14 108,132.14 109,158.57 110,132.14 111,211.43 112,158.57 113,158.57 114,290.71 115,237.86 116,211.43 117,185 118,185 119,343.57 120,211.43 121,158.57 122,343.57 124,343.57 124.49,370"><title>LR761637.1</title></polygon><rect class="average" height="1" width="124.49" x="0" y="173.03"><title>average:7.45</title></rect><rect class="median" height="1" width="124.49" x="0" y="185"><title>median:7</title></rect><text class="chromName" x="62.25" y="-12">LR761637.1<title>LR761637.1 53,127,865 bp</title></text><rect class="frame" height="370" width="124.49" x="0" y="0"/></g><g id="chrom-LR761638.1" transform="translate(577.4390778079033,0)"><polygon class="cov0" points="0,370 0,290.71 1,211.43 2,317.14 3,185 4,237.86 5,185 6,211.43 7,211.43 8,237.86 9,158.57 10,211.43 11,343.57 12,158.57 13,211.43 14,158.57 15,185 16,211.43 17,158.57 18,264.29 19,343.57 20,158.57 21,237.86 22,158.57 23,132.14 24,132.14 25,185 26,370 27,158.57 28,211.43 29,317.14 30,237.86 31,158.57 32,370 33,370 34,211.43 35,237.86 36,185 37,370 38,317.14 39,343.57 40,343.57 41,317.14 42,237.86 43,158.57 44,185 45,290.71 46,158.57 48,158.57 49,211.43 50,370 51,264.29 52,237.86 53,185 54,264.29 55,290.71 56,185 57,211.43 58,185 60,185 61,264.29 62,185 63,211.43 64,290.71 65,343.57 66,211.43 67,211.43 68,185 69,211.43 70,132.14 71,237.86 72,343.57 73,317.14 74,290.71 75,370 76,211.43 77,185 78,370 79,290.71 80,290.71 81,211.43 82,317.14 83,264.29 84,211.43 85,185 86,158.57 87,185 88,317.14 89,158.57 90,290.71 91,185 92,132.14 94,132.14 95,211.43 96,290.71 97,185 98,237.86 99,211.43 100,158.57 101,158.57 102,211.43 103,158.57 104,158.57 105,185 106,290.71 107,158.57 109,158.57 110,185 111,211.43 112,264.29 113,237.86 114,185 115,290.71 116,317.14 117,343.57 118,370 119,343.57 120,343.57 121,370 123,370 124,290.71 125,317.14 126,370 127,237.86 128,211.43 129,185 130,211.43 131,211.43 132,343.57 133,317.14 134,237.86 135,290.71 136,185 137,370 138,370 139,264.29 140,317.14 141,343.57 142,343.57 143,264.29 144,185 145,211.43 146,211.43 147,185 148,158.57 149,185 150,237.86 151,317.14 152,211.43 153,185 154,290.71 155,317.14 156,237.86 157,237.86 158,343.57 159,290.71 160,290.71 161,264.29 162,290.71 163,343.57 165,343.57 166,370 168,370 169,211.43 170,211.43 171,237.86 172,211.43 172.35,370"><title>LR761638.1</title></polygon><rect class="average" height="1" width="172.35" x="0" y="208.95"><title>average:6.09</title></rect><rect class="median" height="1" width="172.35" x="0" y="237.86"><title>median:5</title></rect><text class="chromName" x="86.17" y="-12">LR761638.1<title>LR761638.1 73,550,375 bp</title></text><rect class="frame" height="370" width="172.35" x="0" y="0"/></g><g id="chrom-LR761639.1" transform="translate(750.784104388203,0)"><polygon class="cov1" points="0,370 0,370 1,185 2,158.57 3,264.29 4,185 5,264.29 6,343.57 7,211.43 8,158.57 9,132.14 10,132.14 11,343.57 12,343.57 13,158.57 14,158.57 15,132.14 16,158.57 17,132.14 21,132.14 22,185 23,185 24,211.43 25,211.43 26,185 27,343.57 28,343.57 29,237.86 30,317.14 31,158.57 33,158.57 34,211.43 35,237.86 36,211.43 37,158.57 39,158.57 40,211.43 41,158.57 42,158.57 43,105.71 44,158.57 45,132.14 46,185 47,158.57 48,132.14 49,158.57 50,185 51,132.14 52,185 53,158.57 54,185 55,132.14 56,132.14 57,158.57 58,158.57 59,132.14 61,132.14 62,158.57 63,158.57 64,132.14 65,132.14 66,185 67,158.57 68,132.14 69,158.57 70,132.14 73,132.14 74,211.43 75,132.14 76,132.14 77,158.57 78,132.14 79,132.14 80,185 81,132.14 82,132.14 83,158.57 84,211.43 85,158.57 86,132.14 90,132.14 91,158.57 92,158.57 93,185 94,158.57 96,158.57 97,132.14 98,105.71 99,132.14 102,132.14 103,158.57 104,132.14 105,132.14 106,264.29 107,132.14 108,105.71 109,132.14 110,132.14 111,343.57 112,211.43 113,105.71 114,185 115,132.14 116,158.57 117,132.14 119,132.14 120,185 121,132.14 123,132.14 124,185 125,158.57 127,158.57 128,185 129,158.57 130,211.43 131,185 132,211.43 133,343.57 134,132.14 135,211.43 136,158.57 137,158.57 138,185 139,211.43 140,317.14 140.95,370"><title>LR761639.1</title></polygon><rect class="average" height="1" width="140.95" x="0" y="159.3"><title>average:7.97</title></rect><rect class="median" height="1" width="140.95" x="0" y="158.57"><title>median:8</title></rect><text class="chromName" x="70.47" y="-12">LR761639.1<title>LR761639.1 60,151,564 bp</title></text><rect class="frame" height="370" width="140.95" x="0" y="0"/></g><g id="chrom-LR761640.1" transform="translate(892.7327113317651,0)"><polygon class="cov0" points="0,370 0,185 1,132.14 2,211.43 4,211.43 5,158.57 6,211.43 7,211.43 8,158.57 9,185 10,158.57 12,158.57 13,264.29 14,185 15,158.57 16,237.86 17,158.57 18,158.57 19,211.43 20,132.14 21,158.57 22,132.14 23,105.71 24,132.14 30,132.14 31,105.71 32,132.14 33,132.14 34,158.57 35,132.14 36,158.57 37,211.43 38,105.71 39,158.57 40,105.71 41,132.14 42,105.71 43,132.14 44,132.14 45,158.57 46,158.57 47,237.86 48,343.57 49,132.14 50,158.57 51,158.57 52,132.14 53,158.57 54,132.14 55,105.71 56,132.14 57,185 58,158.57 59,185 60,290.71 61,158.57 62,158.57 63,185 64,132.14 65,264.29 66,132.14 67,158.57 68,158.57 69,211.43 70,185 71,158.57 72,132.14 73,185 74,185 75,132.14 76,132.14 77,211.43 78,132.14 79,185 80,105.71 81,105.71 82,132.14 83,132.14 84,158.57 85,132.14 86,317.14 87,158.57 88,158.57 89,185 90,158.57 91,343.57 92,317.14 93,185 94,317.14 95,158.57 99,158.57 100,132.14 101,237.86 102,370 103,237.86 104,132.14 106,132.14 107,185 108,211.43 109,132.14 110,185 111,211.43 112,158.57 113,158.57 114,185 115,132.14 116,343.57 117,370 118,370 119,317.14 120,158.57 121,132.14 123,132.14 124,158.57 125,132.14 127,132.14 128,264.29 129,158.57 130,132.14 131,132.14 132,158.57 133,132.14 134,105.71 135,158.57 136,132.14 137,158.57 138,158.57 139,185 140,158.57 141,158.57 142,185 143,237.86 144,185 145,158.57 145.53,370"><title>LR761640.1</title></polygon><rect class="average" height="1" width="145.53" x="0" y="159.31"><title>average:7.97</title></rect><rect class="median" height="1" width="145.53" x="0" y="158.57"><title>median:8</title></rect><text class="chromName" x="72.77" y="-12">LR761640.1<title>LR761640.1 62,107,823 bp</title></text><rect class="frame" height="370" width="145.53" x="0" y="0"/></g><g id="chrom-LR761641.1" transform="translate(1039.265271917344,0)"><polygon class="cov1" points="0,370 0,317.14 1,264.29 2,290.71 3,211.43 4,158.57 5,264.29 6,317.14 7,317.14 8,343.57 9,211.43 10,185 11,211.43 12,237.86 13,158.57 14,185 16,185 17,370 18,158.57 21,158.57 22,237.86 23,185 24,211.43 25,185 26,264.29 27,211.43 28,264.29 29,343.57 30,237.86 31,211.43 32,290.71 33,211.43 34,290.71 35,317.14 36,370 37,343.57 38,290.71 39,290.71 40,211.43 41,264.29 42,343.57 43,343.57 44,264.29 46,264.29 47,290.71 48,237.86 49,158.57 50,211.43 51,158.57 52,132.14 53,132.14 54,158.57 55,132.14 56,132.14 57,185 59,185 60,158.57 61,264.29 62,158.57 63,211.43 64,185 65,211.43 66,237.86 67,237.86 68,264.29 69,185 70,185 71,132.14 72,211.43 73,343.57 74,237.86 75,317.14 76,237.86 77,237.86 78,185 79,211.43 80,264.29 81,370 82,370 83,343.57 84,211.43 85,211.43 86,290.71 87,158.57 88,264.29 89,211.43 90,264.29 91,264.29 92,158.57 93,264.29 94,343.57 95,237.86 96,185 97,317.14 98,158.57 99,370 100,317.14 101,158.57 102,185 103,158.57 104,211.43 105,158.57 106,290.71 107,158.57 108,158.57 109,185 110,158.57 111,317.14 112,158.57 113,290.71 114,185 115,185 116,158.57 117,185 118,158.57 119,237.86 120,237.86 121,185 122,211.43 123,264.29 124,185 125,237.86 126,264.29 127,158.57 128,264.29 129,211.43 130,290.71 131,237.86 132,370 133,290.71 134,158.57 135,370 136,370 136.99,370"><title>LR761641.1</title></polygon><rect class="average" height="1" width="136.99" x="0" y="198.12"><title>average:6.5</title></rect><rect class="median" height="1" width="136.99" x="0" y="237.86"><title>median:5</title></rect><text class="chromName" x="68.5" y="-12">LR761641.1<title>LR761641.1 58,462,999 bp</title></text><rect class="frame" height="370" width="136.99" x="0" y="0"/></g><g id="chrom-LR761642.1" transform="translate(1177.25719230686,0)"><polygon class="cov0" points="0,370 0,317.14 1,317.14 2,290.71 3,317.14 4,370 5,370 6,343.57 7,343.57 8,370 9,317.14 10,317.14 11,290.71 12,264.29 13,158.57 14,211.43 15,185 16,317.14 17,264.29 18,237.86 19,211.43 20,237.86 21,158.57 22,317.14 23,317.14 24,185 25,158.57 26,211.43 27,211.43 28,264.29 29,185 30,237.86 31,158.57 32,158.57 33,237.86 34,158.57 35,317.14 36,158.57 38,158.57 39,185 40,158.57 41,185 42,158.57 44,158.57 45,237.86 46,158.57 47,290.71 48,264.29 49,317.14 50,211.43 52,211.43 53,132.14 54,158.57 55,237.86 56,211.43 57,211.43 58,290.71 59,185 60,185 61,343.57 62,211.43 63,185 64,211.43 65,211.43 66,185 67,317.14 68,264.29 69,158.57 70,158.57 71,290.71 72,185 73,211.43 74,158.57 75,211.43 76,290.71 77,185 78,158.57 79,237.86 80,237.86 81,211.43 82,343.57 83,290.71 84,317.14 85,185 86,343.57 86.91,370"><title>LR761642.1</title></polygon><rect class="average" height="1" width="86.91" x="0" y="191.13"><title>average:6.77</title></rect><rect class="median" height="1" width="86.91" x="0" y="237.86"><title>median:5</title></rect><text class="chromName" x="43.45" y="-12">LR761642.1<title>LR761642.1 37,089,910 bp</title></text><rect class="frame" height="370" width="86.91" x="0" y="0"/></g><g id="chrom-LR761643.1" transform="translate(1265.1671710093603,0)"><polygon class="cov1" points="0,370 0,237.86 1,237.86 2,158.57 4,158.57 5,185 7,185 8,158.57 9,132.14 10,158.57 11,185 12,158.57 13,211.43 14,264.29 15,158.57 16,132.14 17,158.57 18,185 19,185 20,370 21,185 22,158.57 23,158.57 24,211.43 25,185 26,370 27,343.57 28,370 29,132.14 30,211.43 31,158.57 32,237.86 33,132.14 34,132.14 35,211.43 36,264.29 37,132.14 39,132.14 40,158.57 41,158.57 42,185 43,317.14 44,158.57 45,185 46,132.14 47,185 48,185 49,158.57 50,185 51,132.14 52,158.57 54,158.57 55,132.14 58,132.14 59,158.57 60,132.14 61,132.14 62,185 63,132.14 64,158.57 65,211.43 66,158.57 67,158.57 68,132.14 69,158.57 70,158.57 71,211.43 72,185 73,211.43 74,132.14 75,185 76,132.14 77,132.14 78,185 79,264.29 80,132.14 81,132.14 82,158.57 83,132.14 86,132.14 87,105.71 88,158.57 89,290.71 90,185 91,132.14 92,132.14 93,185 94,105.71 95,158.57 96,132.14 100,132.14 101,237.86 102,132.14 103,158.57 104,158.57 105,132.14 107,132.14 108,158.57 109,132.14 110,132.14 111,105.71 112,132.14 113,264.29 114,158.57 115,132.14 117,132.14 118,185 119,158.57 120,132.14 123,132.14 124,158.57 125,132.14 126,132.14 127,211.43 128,185 129,132.14 130,158.57 131,237.86 132,158.57 133,237.86 134,317.14 134.83,370"><title>LR761643.1</title></polygon><rect class="average" height="1" width="134.83" x="0" y="158.66"><title>average:8</title></rect><rect class="median" height="1" width="134.83" x="0" y="158.57"><title>median:8</title></rect><text class="chromName" x="67.42" y="-12">LR761643.1<title>LR761643.1 57,541,580 bp</title></text><rect class="frame" height="370" width="134.83" x="0" y="0"/></g><g><line class="ruler" x1="-2" x2="1390" y1="333" y2="333"><title>1</title></line><text class="ruler" x="-5" y="333">1</text><line class="ruler" x1="-2" x2="1390" y1="296" y2="296"><title>2</title></line><text class="ruler" x="-5" y="296">2</text><line class="ruler" x1="-2" x2="1390" y1="259" y2="259"><title>4</title></line><text class="ruler" x="-5" y="259">4</text><line class="ruler" x1="-2" x2="1390" y1="222" y2="222"><title>5</title></line><text class="ruler" x="-5" y="222">5</text><line class="ruler" x1="-2" x2="1390" y1="185" y2="185"><title>7</title></line><text class="ruler" x="-5" y="185">7</text><line class="ruler" x1="-2" x2="1390" y1="148" y2="148"><title>8</title></line><text class="ruler" x="-5" y="148">8</text><line class="ruler" x1="-2" x2="1390" y1="111" y2="111"><title>9</title></line><text class="ruler" x="-5" y="111">9</text><line class="ruler" x1="-2" x2="1390" y1="74" y2="74"><title>11</title></line><text class="ruler" x="-5" y="74">11</text><line class="ruler" x1="-2" x2="1390" y1="37" y2="37"><title>12</title></line><text class="ruler" x="-5" y="37">12</text><line class="ruler" x1="-2" x2="1390" y1="0" y2="0"><title>14</title></line><text class="ruler" x="-5" y="0">14</text></g></g><text class="title" x="795" y="40">F06.realigned.bam F06<title>./F06.realigned.bam</title></text><text class="xLabel" x="795" y="475">GCA_902806645.1_cgigas_uk_roslin_v1_genomic.fna  (589,358,857 bp)<title>../ref/GCA_902806645.1_cgigas_uk_roslin_v1_genomic.fna</title></text><text class="yLabel" transform="translate(25,265) rotate(90)" x="0" y="0">Coverage bp (median)</text></g></svg>