<?xml version="1.0" encoding="UTF-8" standalone="no"?><svg height="500" width="1500" xmlns="http://www.w3.org/2000/svg"><title>F07.realigned.bam</title><desc>Made with wgscoverageplotter undefined Author: Pierre Lindenbaum</desc><style>g.maing {stroke:black;stroke-width:0.5px;fill:none;}
text.title {stroke:none;fill:black;stroke-width:1px;text-anchor:middle;}
rect.frame {stroke:darkgray;fill:none;stroke-width:0.5px;}
text.ruler {stroke:none;fill:darkgray;stroke-width:1px;text-anchor:end;}
text.chromName {stroke:none;fill:darkgray;stroke-width:1px;text-anchor:middle;}
text.xLabel {stroke:none;fill:black;stroke-width:1px;text-anchor:middle;}
text.yLabel {stroke:none;fill:black;stroke-width:1px;text-anchor:middle;}
.cov0 {stroke:gray;fill:antiquewhite;stroke-width:0.5px;}
.cov1 {stroke:gray;fill:beige;stroke-width:0.5px;}
rect.average {stroke:green;fill:green;stroke-width:0.5px;opacity:0.3;}
rect.median {stroke:red;fill:red;stroke-width:0.5px;opacity:0.3;}
line.ruler {stroke:darkgray;stroke-dasharray:4;fill:none;stroke-width:1;}
</style><g class="maing"><g id="chromosomes" transform="translate(100.0,80.0)"><g id="chrom-LR761634.1" transform="translate(10.0,0)"><polygon class="cov0" points="0,370 0,370 1,143.89 2,205.56 3,267.22 4,267.22 5,205.56 6,267.22 7,226.11 8,164.44 9,143.89 10,164.44 11,123.33 12,164.44 13,246.67 14,287.78 15,143.89 16,143.89 17,226.11 18,143.89 19,143.89 20,123.33 21,143.89 22,164.44 24,164.44 25,123.33 30,123.33 31,143.89 32,267.22 33,123.33 34,123.33 35,143.89 36,102.78 37,185 38,185 39,123.33 42,123.33 43,185 44,164.44 45,185 46,164.44 47,143.89 51,143.89 52,123.33 53,123.33 54,185 55,226.11 56,102.78 57,102.78 58,123.33 59,143.89 60,143.89 61,123.33 62,143.89 63,185 65,185 66,143.89 67,205.56 68,123.33 69,205.56 70,123.33 71,123.33 72,226.11 73,164.44 74,143.89 75,123.33 76,123.33 77,205.56 78,143.89 79,143.89 80,328.89 81,267.22 82,123.33 83,123.33 84,143.89 85,123.33 86,102.78 87,185 88,123.33 89,267.22 90,164.44 91,143.89 92,123.33 93,164.44 94,102.78 95,123.33 96,102.78 97,164.44 98,328.89 99,143.89 100,143.89 101,205.56 102,185 103,164.44 104,185 105,123.33 106,226.11 107,205.56 108,246.67 109,123.33 110,123.33 111,143.89 113,143.89 114,308.33 115,226.11 116,123.33 117,143.89 118,123.33 119,185 120,205.56 121,143.89 123,143.89 124,164.44 127,164.44 128,226.11 129,205.56 130,246.67 130.72,370"><title>LR761634.1</title></polygon><rect class="average" height="1" width="130.72" x="0" y="156.04"><title>average:10.41</title></rect><rect class="median" height="1" width="130.72" x="0" y="164.44"><title>median:10</title></rect><text class="chromName" x="65.36" y="-12">LR761634.1<title>LR761634.1 55,785,328 bp</title></text><rect class="frame" height="370" width="130.72" x="0" y="0"/></g><g id="chrom-LR761635.1" transform="translate(141.71753661284166,0)"><polygon class="cov1" points="0,370 0,349.44 1,349.44 2,328.89 3,246.67 4,349.44 5,370 6,246.67 7,308.33 8,328.89 9,246.67 10,185 11,246.67 12,205.56 14,205.56 15,308.33 16,328.89 17,246.67 18,287.78 19,246.67 20,287.78 21,287.78 22,267.22 23,267.22 24,287.78 25,349.44 26,287.78 27,328.89 28,349.44 30,349.44 31,328.89 32,246.67 33,226.11 34,226.11 35,246.67 36,308.33 37,349.44 38,328.89 39,164.44 40,164.44 41,205.56 42,185 43,205.56 44,185 45,205.56 46,226.11 47,185 48,308.33 49,205.56 50,226.11 51,349.44 52,287.78 53,267.22 54,349.44 55,328.89 56,370 57,328.89 58,185 59,308.33 60,287.78 61,267.22 62,205.56 63,308.33 64,287.78 65,246.67 66,246.67 67,328.89 68,267.22 69,287.78 70,308.33 71,267.22 72,205.56 73,226.11 75,226.11 76,349.44 77,0 78,226.11 79,287.78 80,164.44 81,308.33 82,287.78 83,287.78 84,370 85,308.33 86,349.44 87,349.44 88,328.89 89,370 90,267.22 91,287.78 92,349.44 93,349.44 94,308.33 95,287.78 96,349.44 97,308.33 98,328.89 99,328.89 100,287.78 101,328.89 102,328.89 103,287.78 104,308.33 105,246.67 106,287.78 107,267.22 108,226.11 109,246.67 110,287.78 111,205.56 112,370 113,349.44 114,308.33 115,349.44 116,349.44 117,287.78 118,185 119,185 120,143.89 121,226.11 122,226.11 123,246.67 124,246.67 125,164.44 126,246.67 127,308.33 128,205.56 129,349.44 130,205.56 131,246.67 132,226.11 133,246.67 134,328.89 135,328.89 136,349.44 137,328.89 138,308.33 139,308.33 140,328.89 141,308.33 142,328.89 143,349.44 144,287.78 145,226.11 146,287.78 147,102.78 148,185 149,164.44 150,246.67 151,308.33 152,349.44 153,246.67 154,308.33 156,308.33 157,267.22 158,328.89 159,185 160,308.33 161,267.22 162,370 163,370 164,308.33 165,328.89 166,349.44 169,349.44 170,328.89 171,328.89 171.58,370"><title>LR761635.1</title></polygon><rect class="average" height="1" width="171.58" x="0" y="222.17"><title>average:7.19</title></rect><rect class="median" height="1" width="171.58" x="0" y="287.78"><title>median:4</title></rect><text class="chromName" x="85.79" y="-12">LR761635.1<title>LR761635.1 73,222,313 bp</title></text><rect class="frame" height="370" width="171.58" x="0" y="0"/></g><g id="chrom-LR761636.1" transform="translate(314.2938403401308,0)"><polygon class="cov0" points="0,370 0,349.44 1,164.44 2,246.67 3,328.89 4,226.11 5,164.44 6,185 7,205.56 8,143.89 9,164.44 10,143.89 11,143.89 12,164.44 13,246.67 14,123.33 15,143.89 16,143.89 17,123.33 18,164.44 19,164.44 20,143.89 22,143.89 23,123.33 24,205.56 25,123.33 26,205.56 27,246.67 28,123.33 30,123.33 31,102.78 32,102.78 33,123.33 34,143.89 35,205.56 36,143.89 37,164.44 38,143.89 45,143.89 46,185 47,123.33 48,226.11 49,164.44 50,164.44 51,102.78 52,143.89 53,123.33 54,226.11 55,185 56,164.44 57,123.33 58,164.44 59,123.33 60,164.44 61,246.67 62,164.44 63,123.33 64,123.33 65,164.44 66,143.89 67,143.89 68,164.44 69,164.44 70,205.56 71,102.78 72,102.78 73,185 74,143.89 75,164.44 76,328.89 77,185 78,226.11 79,246.67 80,287.78 81,123.33 82,205.56 83,143.89 84,123.33 85,143.89 86,226.11 87,164.44 88,143.89 89,185 90,143.89 91,123.33 92,205.56 93,123.33 94,143.89 95,185 96,185 97,123.33 98,143.89 99,164.44 100,164.44 101,185 102,164.44 103,102.78 104,143.89 105,123.33 106,143.89 107,123.33 110,123.33 111,143.89 112,143.89 113,164.44 114,102.78 115,102.78 116,123.33 117,123.33 118,143.89 119,123.33 120,123.33 121,226.11 122,123.33 123,123.33 124,185 125,123.33 126,123.33 127,205.56 128,226.11 129,123.33 130,143.89 131,164.44 132,185 133,164.44 134,143.89 135,164.44 136,308.33 136.65,370"><title>LR761636.1</title></polygon><rect class="average" height="1" width="136.65" x="0" y="151.88"><title>average:10.61</title></rect><rect class="median" height="1" width="136.65" x="0" y="143.89"><title>median:11</title></rect><text class="chromName" x="68.33" y="-12">LR761636.1<title>LR761636.1 58,319,100 bp</title></text><rect class="frame" height="370" width="136.65" x="0" y="0"/></g><g id="chrom-LR761637.1" transform="translate(451.9485730949149,0)"><polygon class="cov1" points="0,370 0,370 1,267.22 2,287.78 3,246.67 4,246.67 5,205.56 6,246.67 7,267.22 8,246.67 9,328.89 10,267.22 11,185 12,267.22 13,287.78 14,308.33 15,164.44 16,246.67 17,143.89 18,308.33 19,287.78 20,267.22 21,164.44 22,185 23,267.22 24,370 25,164.44 26,164.44 27,246.67 28,205.56 29,267.22 30,308.33 31,164.44 32,143.89 33,185 34,123.33 35,205.56 36,349.44 37,246.67 38,164.44 39,143.89 40,143.89 41,328.89 42,246.67 43,267.22 44,328.89 45,205.56 46,143.89 47,143.89 48,123.33 49,123.33 50,185 51,143.89 52,102.78 53,143.89 54,102.78 55,143.89 56,143.89 57,205.56 58,287.78 59,328.89 60,308.33 61,226.11 62,123.33 63,143.89 64,123.33 65,143.89 67,143.89 68,185 69,102.78 70,143.89 71,143.89 72,185 73,123.33 74,164.44 75,143.89 76,143.89 77,164.44 78,164.44 79,205.56 80,164.44 81,164.44 82,123.33 83,143.89 84,164.44 85,123.33 86,226.11 87,143.89 88,123.33 89,143.89 90,123.33 92,123.33 93,164.44 94,185 95,205.56 96,185 97,164.44 98,123.33 99,123.33 100,308.33 101,328.89 102,308.33 103,349.44 104,349.44 105,246.67 106,143.89 107,123.33 108,143.89 109,143.89 110,123.33 111,123.33 112,143.89 113,143.89 114,308.33 115,226.11 116,185 117,205.56 118,164.44 119,287.78 120,185 121,164.44 122,287.78 123,349.44 124,328.89 124.49,370"><title>LR761637.1</title></polygon><rect class="average" height="1" width="124.49" x="0" y="179.37"><title>average:9.27</title></rect><rect class="median" height="1" width="124.49" x="0" y="185"><title>median:9</title></rect><text class="chromName" x="62.25" y="-12">LR761637.1<title>LR761637.1 53,127,865 bp</title></text><rect class="frame" height="370" width="124.49" x="0" y="0"/></g><g id="chrom-LR761638.1" transform="translate(577.4390778079033,0)"><polygon class="cov0" points="0,370 0,185 1,41.11 2,246.67 3,164.44 4,267.22 5,185 6,205.56 7,205.56 8,185 9,143.89 10,185 11,328.89 12,143.89 13,185 14,143.89 15,185 16,185 17,143.89 18,246.67 19,349.44 20,164.44 21,226.11 22,143.89 23,123.33 24,143.89 25,185 26,370 27,123.33 28,185 29,328.89 30,267.22 31,143.89 32,370 33,370 34,205.56 35,226.11 36,185 37,328.89 38,308.33 39,349.44 40,349.44 41,267.22 42,246.67 43,164.44 44,164.44 45,287.78 46,205.56 47,123.33 48,143.89 49,246.67 50,370 51,246.67 52,185 53,185 54,267.22 55,267.22 56,164.44 57,226.11 58,143.89 59,226.11 60,164.44 61,205.56 62,185 63,328.89 64,328.89 65,308.33 66,267.22 67,226.11 68,185 69,308.33 70,164.44 71,349.44 72,349.44 73,287.78 74,246.67 75,328.89 76,349.44 77,226.11 78,370 79,370 80,287.78 81,226.11 82,349.44 83,328.89 84,308.33 85,185 86,164.44 87,164.44 88,328.89 89,143.89 90,308.33 91,164.44 92,123.33 93,143.89 94,164.44 95,226.11 96,328.89 97,164.44 98,308.33 99,185 100,226.11 101,164.44 102,328.89 103,205.56 104,267.22 105,308.33 106,246.67 107,205.56 108,287.78 109,185 110,267.22 111,205.56 112,328.89 113,226.11 114,246.67 115,287.78 116,349.44 117,349.44 118,370 119,349.44 120,328.89 121,349.44 122,370 123,370 124,308.33 125,328.89 126,328.89 127,287.78 128,370 129,328.89 130,349.44 131,349.44 132,246.67 133,349.44 134,287.78 135,328.89 136,185 137,370 138,370 139,267.22 140,370 142,370 143,287.78 144,164.44 145,226.11 146,185 147,164.44 148,143.89 149,205.56 150,226.11 151,328.89 152,205.56 153,164.44 154,267.22 155,308.33 156,226.11 157,349.44 158,370 159,308.33 160,349.44 161,349.44 162,328.89 163,328.89 164,349.44 165,370 168,370 169,246.67 170,370 171,370 172,349.44 172.35,370"><title>LR761638.1</title></polygon><rect class="average" height="1" width="172.35" x="0" y="215.64"><title>average:7.51</title></rect><rect class="median" height="1" width="172.35" x="0" y="267.22"><title>median:5</title></rect><text class="chromName" x="86.17" y="-12">LR761638.1<title>LR761638.1 73,550,375 bp</title></text><rect class="frame" height="370" width="172.35" x="0" y="0"/></g><g id="chrom-LR761639.1" transform="translate(750.784104388203,0)"><polygon class="cov1" points="0,370 0,328.89 1,185 2,164.44 3,308.33 4,185 5,226.11 6,370 7,328.89 8,164.44 9,143.89 10,164.44 11,226.11 12,287.78 13,123.33 14,143.89 15,123.33 18,123.33 19,102.78 20,102.78 21,123.33 22,164.44 23,164.44 24,185 25,205.56 26,164.44 27,349.44 28,349.44 29,205.56 30,328.89 31,143.89 32,164.44 33,143.89 34,205.56 35,205.56 36,185 37,143.89 38,143.89 39,123.33 40,287.78 41,143.89 42,143.89 43,102.78 44,123.33 45,123.33 46,164.44 47,143.89 48,123.33 49,164.44 50,164.44 51,123.33 52,185 53,143.89 54,143.89 55,102.78 56,123.33 60,123.33 61,143.89 63,143.89 64,123.33 65,123.33 66,143.89 67,123.33 68,123.33 69,164.44 70,143.89 71,123.33 72,143.89 73,123.33 74,205.56 75,123.33 76,123.33 77,143.89 78,102.78 79,102.78 80,143.89 81,123.33 83,123.33 84,164.44 85,143.89 86,102.78 87,123.33 88,102.78 89,123.33 90,123.33 91,143.89 92,143.89 93,164.44 94,143.89 95,123.33 96,143.89 97,102.78 98,102.78 99,123.33 100,123.33 101,102.78 102,123.33 103,123.33 104,102.78 105,102.78 106,226.11 107,123.33 108,102.78 109,123.33 110,123.33 111,349.44 112,164.44 113,102.78 114,164.44 115,123.33 116,143.89 117,123.33 118,123.33 119,102.78 120,123.33 123,123.33 124,185 125,143.89 127,143.89 128,164.44 129,143.89 130,205.56 131,164.44 132,185 133,370 134,123.33 135,205.56 136,143.89 137,164.44 138,246.67 139,226.11 140,349.44 140.95,370"><title>LR761639.1</title></polygon><rect class="average" height="1" width="140.95" x="0" y="148.04"><title>average:10.8</title></rect><rect class="median" height="1" width="140.95" x="0" y="143.89"><title>median:11</title></rect><text class="chromName" x="70.47" y="-12">LR761639.1<title>LR761639.1 60,151,564 bp</title></text><rect class="frame" height="370" width="140.95" x="0" y="0"/></g><g id="chrom-LR761640.1" transform="translate(892.7327113317651,0)"><polygon class="cov0" points="0,370 0,226.11 1,143.89 2,205.56 3,185 4,185 5,143.89 6,205.56 7,205.56 8,123.33 9,185 10,164.44 11,164.44 12,143.89 13,308.33 14,143.89 15,143.89 16,205.56 17,143.89 18,123.33 19,226.11 20,123.33 22,123.33 23,102.78 24,123.33 25,143.89 26,102.78 27,102.78 28,143.89 29,123.33 30,123.33 31,143.89 32,123.33 33,102.78 34,143.89 35,123.33 36,123.33 37,205.56 38,102.78 39,164.44 40,102.78 41,123.33 42,102.78 43,102.78 44,123.33 45,143.89 46,123.33 47,246.67 48,308.33 49,102.78 50,143.89 51,123.33 52,123.33 53,143.89 54,102.78 55,123.33 56,123.33 57,226.11 58,143.89 59,164.44 60,246.67 61,123.33 62,143.89 63,164.44 64,123.33 65,308.33 66,123.33 67,143.89 68,123.33 69,185 70,164.44 71,143.89 72,164.44 73,205.56 74,185 75,123.33 76,123.33 77,226.11 78,123.33 79,164.44 80,82.22 81,82.22 82,102.78 83,123.33 84,123.33 85,102.78 86,349.44 87,143.89 88,143.89 89,164.44 90,143.89 91,226.11 92,267.22 93,185 94,226.11 95,143.89 96,143.89 97,123.33 98,143.89 99,143.89 100,123.33 101,185 102,349.44 103,246.67 104,123.33 105,123.33 106,143.89 107,185 108,226.11 109,123.33 110,164.44 111,185 112,123.33 113,143.89 114,185 115,123.33 116,370 117,349.44 118,370 119,328.89 120,123.33 121,102.78 122,143.89 123,123.33 124,123.33 125,102.78 126,123.33 127,102.78 128,185 129,143.89 130,123.33 131,123.33 132,143.89 133,123.33 134,102.78 135,82.22 136,143.89 138,143.89 139,185 140,164.44 141,143.89 142,185 143,267.22 144,143.89 145,143.89 145.53,370"><title>LR761640.1</title></polygon><rect class="average" height="1" width="145.53" x="0" y="149.6"><title>average:10.72</title></rect><rect class="median" height="1" width="145.53" x="0" y="143.89"><title>median:11</title></rect><text class="chromName" x="72.77" y="-12">LR761640.1<title>LR761640.1 62,107,823 bp</title></text><rect class="frame" height="370" width="145.53" x="0" y="0"/></g><g id="chrom-LR761641.1" transform="translate(1039.265271917344,0)"><polygon class="cov1" points="0,370 0,308.33 1,205.56 2,205.56 3,226.11 4,246.67 5,205.56 6,328.89 7,267.22 8,226.11 9,164.44 10,123.33 11,226.11 12,246.67 13,143.89 14,246.67 15,123.33 16,123.33 17,246.67 18,164.44 19,143.89 20,143.89 21,164.44 22,226.11 23,164.44 24,205.56 25,185 26,246.67 27,226.11 28,246.67 29,267.22 30,246.67 31,205.56 32,267.22 33,246.67 34,308.33 35,308.33 36,349.44 37,246.67 38,287.78 39,267.22 40,205.56 41,246.67 42,328.89 43,349.44 44,267.22 45,185 46,246.67 47,267.22 48,287.78 49,143.89 50,205.56 51,164.44 52,143.89 53,123.33 54,143.89 55,123.33 56,123.33 57,185 58,185 59,164.44 60,143.89 61,267.22 62,143.89 63,185 64,205.56 65,164.44 66,226.11 67,246.67 68,246.67 69,164.44 70,246.67 71,143.89 72,205.56 73,328.89 74,226.11 75,328.89 76,226.11 77,267.22 78,185 79,267.22 80,328.89 81,370 82,370 83,349.44 84,164.44 85,164.44 86,287.78 87,123.33 88,246.67 89,205.56 90,308.33 91,246.67 92,143.89 93,226.11 94,246.67 95,205.56 96,205.56 97,308.33 98,143.89 99,370 100,287.78 101,164.44 102,205.56 103,143.89 104,185 105,143.89 106,287.78 107,143.89 108,164.44 110,164.44 111,287.78 112,164.44 113,246.67 114,164.44 115,185 116,143.89 117,185 118,185 119,226.11 120,205.56 121,205.56 122,164.44 123,226.11 124,164.44 125,205.56 126,226.11 127,164.44 128,246.67 129,226.11 130,287.78 131,246.67 132,349.44 133,287.78 134,185 135,370 136,349.44 136.99,370"><title>LR761641.1</title></polygon><rect class="average" height="1" width="136.99" x="0" y="191.43"><title>average:8.69</title></rect><rect class="median" height="1" width="136.99" x="0" y="226.11"><title>median:7</title></rect><text class="chromName" x="68.5" y="-12">LR761641.1<title>LR761641.1 58,462,999 bp</title></text><rect class="frame" height="370" width="136.99" x="0" y="0"/></g><g id="chrom-LR761642.1" transform="translate(1177.25719230686,0)"><polygon class="cov0" points="0,370 0,349.44 2,349.44 3,246.67 4,287.78 5,308.33 6,267.22 7,287.78 8,287.78 9,328.89 10,287.78 11,226.11 12,267.22 13,164.44 14,226.11 15,205.56 16,308.33 17,267.22 18,308.33 19,226.11 20,226.11 21,185 22,308.33 23,308.33 24,185 25,143.89 26,164.44 27,205.56 28,267.22 29,185 30,246.67 31,123.33 32,185 33,246.67 34,143.89 35,205.56 36,143.89 37,164.44 38,123.33 39,205.56 40,143.89 41,164.44 42,123.33 43,164.44 44,164.44 45,185 46,164.44 47,246.67 48,143.89 49,267.22 50,164.44 51,164.44 52,226.11 53,123.33 54,143.89 55,246.67 56,185 57,226.11 58,246.67 59,143.89 60,185 61,349.44 62,185 63,205.56 64,205.56 65,185 66,185 67,349.44 68,267.22 69,164.44 70,164.44 71,267.22 72,164.44 73,246.67 74,164.44 75,226.11 76,308.33 77,143.89 78,164.44 79,246.67 80,246.67 81,185 82,328.89 83,267.22 84,308.33 85,246.67 86,328.89 86.91,370"><title>LR761642.1</title></polygon><rect class="average" height="1" width="86.91" x="0" y="176.88"><title>average:9.39</title></rect><rect class="median" height="1" width="86.91" x="0" y="205.56"><title>median:8</title></rect><text class="chromName" x="43.45" y="-12">LR761642.1<title>LR761642.1 37,089,910 bp</title></text><rect class="frame" height="370" width="86.91" x="0" y="0"/></g><g id="chrom-LR761643.1" transform="translate(1265.1671710093603,0)"><polygon class="cov1" points="0,370 0,349.44 1,287.78 2,185 3,143.89 4,164.44 5,246.67 6,185 7,185 8,143.89 9,123.33 10,143.89 11,164.44 12,123.33 13,205.56 14,246.67 15,143.89 16,123.33 17,143.89 18,164.44 19,164.44 20,370 21,164.44 22,143.89 23,123.33 24,205.56 25,164.44 26,370 27,287.78 28,328.89 29,123.33 30,205.56 31,143.89 32,226.11 33,123.33 34,123.33 35,185 36,246.67 37,102.78 38,123.33 39,102.78 40,123.33 41,143.89 42,143.89 43,246.67 44,143.89 45,185 46,123.33 47,185 48,143.89 49,123.33 50,164.44 51,123.33 52,123.33 53,143.89 54,143.89 55,123.33 57,123.33 58,164.44 59,123.33 60,102.78 61,123.33 62,143.89 63,123.33 64,164.44 65,226.11 66,143.89 67,143.89 68,123.33 69,143.89 70,143.89 71,246.67 72,205.56 73,205.56 74,102.78 75,246.67 76,123.33 77,102.78 78,164.44 79,226.11 80,123.33 81,102.78 82,143.89 83,102.78 85,102.78 86,123.33 87,102.78 88,164.44 89,349.44 90,164.44 91,123.33 92,102.78 93,143.89 94,102.78 95,143.89 96,102.78 99,102.78 100,123.33 101,226.11 102,123.33 103,123.33 104,143.89 105,123.33 106,102.78 107,102.78 108,143.89 109,102.78 111,102.78 112,123.33 113,205.56 114,143.89 115,123.33 116,82.22 117,102.78 118,123.33 119,164.44 120,123.33 121,102.78 122,102.78 123,123.33 124,143.89 125,123.33 126,123.33 127,185 128,205.56 129,123.33 130,185 131,226.11 132,143.89 133,246.67 134,328.89 134.83,370"><title>LR761643.1</title></polygon><rect class="average" height="1" width="134.83" x="0" y="149.99"><title>average:10.7</title></rect><rect class="median" height="1" width="134.83" x="0" y="143.89"><title>median:11</title></rect><text class="chromName" x="67.42" y="-12">LR761643.1<title>LR761643.1 57,541,580 bp</title></text><rect class="frame" height="370" width="134.83" x="0" y="0"/></g><g><line class="ruler" x1="-2" x2="1390" y1="333" y2="333"><title>1</title></line><text class="ruler" x="-5" y="333">1</text><line class="ruler" x1="-2" x2="1390" y1="296" y2="296"><title>3</title></line><text class="ruler" x="-5" y="296">3</text><line class="ruler" x1="-2" x2="1390" y1="259" y2="259"><title>5</title></line><text class="ruler" x="-5" y="259">5</text><line class="ruler" x1="-2" x2="1390" y1="222" y2="222"><title>7</title></line><text class="ruler" x="-5" y="222">7</text><line class="ruler" x1="-2" x2="1390" y1="185" y2="185"><title>9</title></line><text class="ruler" x="-5" y="185">9</text><line class="ruler" x1="-2" x2="1390" y1="148" y2="148"><title>10</title></line><text class="ruler" x="-5" y="148">10</text><line class="ruler" x1="-2" x2="1390" y1="111" y2="111"><title>12</title></line><text class="ruler" x="-5" y="111">12</text><line class="ruler" x1="-2" x2="1390" y1="74" y2="74"><title>14</title></line><text class="ruler" x="-5" y="74">14</text><line class="ruler" x1="-2" x2="1390" y1="37" y2="37"><title>16</title></line><text class="ruler" x="-5" y="37">16</text><line class="ruler" x1="-2" x2="1390" y1="0" y2="0"><title>18</title></line><text class="ruler" x="-5" y="0">18</text></g></g><text class="title" x="795" y="40">F07.realigned.bam F07<title>./F07.realigned.bam</title></text><text class="xLabel" x="795" y="475">GCA_902806645.1_cgigas_uk_roslin_v1_genomic.fna  (589,358,857 bp)<title>../ref/GCA_902806645.1_cgigas_uk_roslin_v1_genomic.fna</title></text><text class="yLabel" transform="translate(25,265) rotate(90)" x="0" y="0">Coverage bp (median)</text></g></svg>