<?xml version="1.0" encoding="UTF-8" standalone="no"?><svg height="500" width="1500" xmlns="http://www.w3.org/2000/svg"><title>F09.realigned.bam</title><desc>Made with wgscoverageplotter undefined Author: Pierre Lindenbaum</desc><style>g.maing {stroke:black;stroke-width:0.5px;fill:none;}
text.title {stroke:none;fill:black;stroke-width:1px;text-anchor:middle;}
rect.frame {stroke:darkgray;fill:none;stroke-width:0.5px;}
text.ruler {stroke:none;fill:darkgray;stroke-width:1px;text-anchor:end;}
text.chromName {stroke:none;fill:darkgray;stroke-width:1px;text-anchor:middle;}
text.xLabel {stroke:none;fill:black;stroke-width:1px;text-anchor:middle;}
text.yLabel {stroke:none;fill:black;stroke-width:1px;text-anchor:middle;}
.cov0 {stroke:gray;fill:antiquewhite;stroke-width:0.5px;}
.cov1 {stroke:gray;fill:beige;stroke-width:0.5px;}
rect.average {stroke:green;fill:green;stroke-width:0.5px;opacity:0.3;}
rect.median {stroke:red;fill:red;stroke-width:0.5px;opacity:0.3;}
line.ruler {stroke:darkgray;stroke-dasharray:4;fill:none;stroke-width:1;}
</style><g class="maing"><g id="chromosomes" transform="translate(100.0,80.0)"><g id="chrom-LR761634.1" transform="translate(10.0,0)"><polygon class="cov0" points="0,370 0,323.75 1,161.88 2,185 3,300.62 4,185 5,208.12 6,323.75 7,208.12 8,185 9,138.75 10,185 11,138.75 12,185 13,231.25 14,231.25 15,138.75 16,138.75 17,231.25 18,138.75 21,138.75 22,161.88 23,185 24,185 25,115.62 26,138.75 31,138.75 32,254.38 33,138.75 34,138.75 35,161.88 36,115.62 37,208.12 38,185 39,138.75 42,138.75 43,185 44,138.75 45,185 46,185 47,115.62 48,161.88 49,161.88 50,138.75 51,115.62 52,115.62 53,138.75 54,115.62 55,92.5 56,92.5 57,115.62 58,138.75 60,138.75 61,115.62 62,161.88 63,185 64,231.25 65,185 66,138.75 67,208.12 68,115.62 69,208.12 70,138.75 71,138.75 72,231.25 73,208.12 74,161.88 75,138.75 76,138.75 77,208.12 78,208.12 79,138.75 80,323.75 81,300.62 82,138.75 83,161.88 84,138.75 85,138.75 86,115.62 87,208.12 88,138.75 89,277.5 90,161.88 91,161.88 92,138.75 93,161.88 94,115.62 95,138.75 96,115.62 97,185 98,231.25 99,138.75 100,138.75 101,161.88 102,138.75 103,185 104,208.12 105,138.75 106,208.12 107,185 108,277.5 109,115.62 110,115.62 111,138.75 112,138.75 113,208.12 114,231.25 115,231.25 116,115.62 117,138.75 118,138.75 119,185 120,254.38 121,161.88 122,161.88 123,138.75 124,161.88 125,138.75 126,161.88 127,161.88 128,208.12 129,231.25 130,254.38 130.72,370"><title>LR761634.1</title></polygon><rect class="average" height="1" width="130.72" x="0" y="156.23"><title>average:9.24</title></rect><rect class="median" height="1" width="130.72" x="0" y="161.88"><title>median:9</title></rect><text class="chromName" x="65.36" y="-12">LR761634.1<title>LR761634.1 55,785,328 bp</title></text><rect class="frame" height="370" width="130.72" x="0" y="0"/></g><g id="chrom-LR761635.1" transform="translate(141.71753661284166,0)"><polygon class="cov1" points="0,370 0,346.88 1,370 2,323.75 3,300.62 4,346.88 5,346.88 6,208.12 7,254.38 8,277.5 9,208.12 10,231.25 11,277.5 12,208.12 13,185 14,277.5 15,277.5 16,300.62 17,254.38 18,277.5 19,208.12 20,277.5 21,300.62 22,277.5 23,300.62 24,346.88 25,370 26,323.75 27,370 28,323.75 29,370 31,370 32,277.5 33,231.25 34,254.38 35,300.62 36,231.25 37,323.75 38,346.88 39,208.12 40,231.25 41,254.38 42,208.12 43,208.12 44,161.88 45,208.12 46,254.38 47,185 48,300.62 49,208.12 50,277.5 51,370 52,300.62 53,254.38 54,323.75 55,277.5 56,323.75 57,323.75 58,208.12 59,346.88 60,370 61,300.62 62,161.88 63,300.62 64,300.62 65,254.38 66,277.5 67,300.62 68,277.5 69,323.75 70,277.5 71,277.5 72,185 73,254.38 74,231.25 75,208.12 76,370 77,254.38 78,323.75 79,323.75 80,161.88 81,323.75 82,346.88 83,323.75 84,370 85,300.62 86,370 89,370 90,346.88 91,323.75 92,300.62 93,254.38 94,277.5 95,300.62 96,323.75 97,300.62 98,323.75 99,277.5 100,323.75 101,300.62 102,346.88 103,231.25 104,231.25 105,138.75 106,254.38 107,254.38 108,208.12 109,208.12 110,277.5 111,208.12 112,323.75 113,346.88 114,300.62 115,346.88 116,323.75 117,277.5 118,185 119,161.88 121,161.88 122,254.38 123,254.38 124,277.5 125,138.75 126,185 127,208.12 128,161.88 130,161.88 131,300.62 132,231.25 133,300.62 134,323.75 135,323.75 136,370 137,346.88 138,346.88 139,300.62 140,370 141,323.75 142,300.62 143,323.75 144,300.62 145,231.25 146,300.62 147,138.75 148,185 149,161.88 150,254.38 151,277.5 152,370 153,231.25 154,346.88 155,208.12 156,231.25 157,185 158,208.12 159,161.88 160,254.38 161,231.25 162,323.75 163,231.25 164,277.5 165,323.75 166,323.75 167,346.88 168,323.75 169,323.75 170,346.88 171,346.88 171.58,370"><title>LR761635.1</title></polygon><rect class="average" height="1" width="171.58" x="0" y="218.02"><title>average:6.57</title></rect><rect class="median" height="1" width="171.58" x="0" y="277.5"><title>median:4</title></rect><text class="chromName" x="85.79" y="-12">LR761635.1<title>LR761635.1 73,222,313 bp</title></text><rect class="frame" height="370" width="171.58" x="0" y="0"/></g><g id="chrom-LR761636.1" transform="translate(314.2938403401308,0)"><polygon class="cov0" points="0,370 0,346.88 1,161.88 2,254.38 3,346.88 4,231.25 5,161.88 6,138.75 7,161.88 8,138.75 9,161.88 10,138.75 11,138.75 12,161.88 13,254.38 14,138.75 15,161.88 16,138.75 17,138.75 18,161.88 19,161.88 20,138.75 23,138.75 24,208.12 25,138.75 26,231.25 27,277.5 28,138.75 29,115.62 30,138.75 31,115.62 32,115.62 33,138.75 34,138.75 35,277.5 36,161.88 37,208.12 38,138.75 39,138.75 40,208.12 41,161.88 43,161.88 44,138.75 45,161.88 46,185 47,161.88 48,254.38 49,161.88 50,185 51,138.75 52,138.75 53,161.88 54,254.38 55,185 56,185 57,138.75 58,161.88 59,138.75 60,161.88 61,231.25 62,161.88 63,138.75 65,138.75 66,161.88 67,161.88 68,185 69,161.88 70,185 71,115.62 72,115.62 73,185 74,161.88 75,161.88 76,300.62 77,208.12 78,254.38 79,277.5 80,277.5 81,138.75 82,231.25 83,138.75 84,115.62 85,161.88 86,277.5 87,185 88,161.88 89,208.12 90,161.88 91,115.62 92,208.12 93,138.75 94,138.75 95,185 96,231.25 97,138.75 98,138.75 99,185 100,161.88 101,115.62 102,161.88 103,115.62 104,138.75 110,138.75 111,185 112,161.88 113,185 114,115.62 115,115.62 116,138.75 117,138.75 118,161.88 119,138.75 120,138.75 121,231.25 122,138.75 123,138.75 124,185 125,138.75 126,138.75 127,231.25 128,231.25 129,138.75 130,161.88 131,161.88 132,185 133,185 134,161.88 135,161.88 136,323.75 136.65,370"><title>LR761636.1</title></polygon><rect class="average" height="1" width="136.65" x="0" y="160.09"><title>average:9.08</title></rect><rect class="median" height="1" width="136.65" x="0" y="161.88"><title>median:9</title></rect><text class="chromName" x="68.33" y="-12">LR761636.1<title>LR761636.1 58,319,100 bp</title></text><rect class="frame" height="370" width="136.65" x="0" y="0"/></g><g id="chrom-LR761637.1" transform="translate(451.9485730949149,0)"><polygon class="cov1" points="0,370 0,231.25 1,208.12 2,231.25 3,185 4,208.12 5,138.75 6,161.88 7,254.38 8,208.12 9,231.25 10,370 11,185 12,185 13,300.62 14,323.75 15,231.25 16,254.38 17,138.75 18,231.25 19,277.5 20,254.38 21,161.88 22,161.88 23,208.12 24,277.5 25,208.12 26,138.75 27,277.5 28,254.38 29,277.5 30,277.5 31,161.88 32,161.88 33,208.12 34,138.75 35,231.25 36,323.75 37,277.5 38,185 39,161.88 40,161.88 41,323.75 42,254.38 43,300.62 44,323.75 45,208.12 46,161.88 47,161.88 48,138.75 49,138.75 50,208.12 51,138.75 52,115.62 53,185 54,138.75 55,138.75 56,161.88 57,231.25 58,277.5 59,323.75 60,323.75 61,231.25 62,138.75 64,138.75 65,161.88 66,138.75 67,185 68,185 69,138.75 70,161.88 71,138.75 72,185 73,138.75 74,185 75,185 76,138.75 77,185 78,208.12 79,208.12 80,185 81,161.88 82,138.75 83,161.88 84,161.88 85,115.62 86,231.25 87,185 88,138.75 92,138.75 93,161.88 94,208.12 95,231.25 96,208.12 97,161.88 98,115.62 99,138.75 100,323.75 101,346.88 102,323.75 103,346.88 104,346.88 105,277.5 106,138.75 109,138.75 110,115.62 111,185 112,161.88 113,138.75 114,323.75 115,231.25 116,208.12 117,185 118,185 119,346.88 120,185 121,161.88 122,346.88 123,346.88 124,300.62 124.49,370"><title>LR761637.1</title></polygon><rect class="average" height="1" width="124.49" x="0" y="184.06"><title>average:8.04</title></rect><rect class="median" height="1" width="124.49" x="0" y="185"><title>median:8</title></rect><text class="chromName" x="62.25" y="-12">LR761637.1<title>LR761637.1 53,127,865 bp</title></text><rect class="frame" height="370" width="124.49" x="0" y="0"/></g><g id="chrom-LR761638.1" transform="translate(577.4390778079033,0)"><polygon class="cov0" points="0,370 0,138.75 1,115.62 2,208.12 3,161.88 4,300.62 5,185 6,208.12 7,208.12 8,231.25 9,161.88 10,161.88 11,231.25 12,161.88 13,185 14,138.75 15,161.88 16,115.62 17,138.75 18,277.5 19,370 20,185 21,231.25 22,161.88 23,138.75 24,138.75 25,161.88 26,300.62 27,138.75 28,208.12 29,346.88 30,254.38 31,161.88 32,370 33,370 34,208.12 35,231.25 36,185 37,346.88 38,254.38 39,346.88 40,346.88 41,323.75 42,277.5 43,161.88 44,185 45,346.88 46,231.25 47,138.75 48,138.75 49,277.5 50,370 51,277.5 52,185 53,185 54,254.38 55,277.5 56,161.88 57,254.38 58,185 59,185 60,161.88 61,231.25 62,161.88 63,346.88 64,346.88 65,370 66,185 67,208.12 68,185 69,300.62 70,185 71,370 72,370 73,323.75 74,277.5 75,370 76,346.88 77,231.25 78,370 79,370 80,346.88 81,231.25 82,346.88 83,346.88 84,300.62 85,185 86,138.75 87,185 88,323.75 89,138.75 90,300.62 91,161.88 92,138.75 94,138.75 95,231.25 96,346.88 97,138.75 98,323.75 99,208.12 101,208.12 102,277.5 103,208.12 104,346.88 105,346.88 106,254.38 107,208.12 108,185 109,208.12 110,254.38 111,231.25 112,323.75 113,277.5 114,254.38 115,277.5 116,300.62 117,300.62 118,370 119,346.88 120,254.38 121,370 123,370 124,323.75 125,323.75 126,346.88 127,300.62 128,370 129,277.5 130,346.88 131,323.75 132,277.5 133,346.88 134,254.38 135,300.62 136,185 137,370 138,346.88 139,300.62 140,370 141,370 142,323.75 143,323.75 144,185 145,185 146,254.38 147,161.88 148,185 149,161.88 150,208.12 151,277.5 152,208.12 153,185 154,254.38 155,300.62 156,231.25 157,277.5 158,300.62 159,208.12 160,208.12 161,185 162,185 163,231.25 164,323.75 165,370 167,370 168,277.5 169,208.12 170,370 171,346.88 172,346.88 172.35,370"><title>LR761638.1</title></polygon><rect class="average" height="1" width="172.35" x="0" y="215.68"><title>average:6.67</title></rect><rect class="median" height="1" width="172.35" x="0" y="254.38"><title>median:5</title></rect><text class="chromName" x="86.17" y="-12">LR761638.1<title>LR761638.1 73,550,375 bp</title></text><rect class="frame" height="370" width="172.35" x="0" y="0"/></g><g id="chrom-LR761639.1" transform="translate(750.784104388203,0)"><polygon class="cov1" points="0,370 0,370 1,161.88 2,161.88 3,277.5 4,185 5,231.25 6,346.88 7,254.38 8,161.88 9,138.75 10,161.88 11,277.5 12,254.38 13,138.75 14,161.88 15,138.75 19,138.75 20,115.62 21,138.75 22,161.88 23,185 25,185 26,208.12 27,346.88 28,370 29,254.38 30,323.75 31,161.88 32,161.88 33,138.75 34,185 35,231.25 36,185 37,138.75 39,138.75 40,208.12 41,138.75 43,138.75 44,161.88 45,138.75 46,161.88 47,138.75 48,138.75 49,161.88 50,161.88 51,138.75 52,185 53,161.88 54,161.88 55,138.75 61,138.75 62,161.88 63,208.12 64,115.62 65,138.75 66,161.88 67,138.75 68,138.75 69,185 70,138.75 73,138.75 74,208.12 75,138.75 76,138.75 77,161.88 78,138.75 79,138.75 80,185 81,138.75 83,138.75 84,208.12 85,138.75 86,115.62 87,138.75 88,115.62 89,138.75 90,115.62 91,138.75 92,138.75 93,161.88 94,138.75 95,138.75 96,115.62 98,115.62 99,138.75 100,138.75 101,115.62 102,115.62 103,138.75 104,115.62 105,138.75 106,254.38 107,138.75 108,115.62 109,138.75 110,138.75 111,346.88 112,185 113,115.62 114,185 115,115.62 116,161.88 117,138.75 118,138.75 119,115.62 120,161.88 121,138.75 123,138.75 124,161.88 125,138.75 126,161.88 127,138.75 128,161.88 129,138.75 130,208.12 131,185 132,208.12 133,346.88 134,138.75 135,185 137,185 138,208.12 139,208.12 140,346.88 140.95,370"><title>LR761639.1</title></polygon><rect class="average" height="1" width="140.95" x="0" y="157.63"><title>average:9.18</title></rect><rect class="median" height="1" width="140.95" x="0" y="161.88"><title>median:9</title></rect><text class="chromName" x="70.47" y="-12">LR761639.1<title>LR761639.1 60,151,564 bp</title></text><rect class="frame" height="370" width="140.95" x="0" y="0"/></g><g id="chrom-LR761640.1" transform="translate(892.7327113317651,0)"><polygon class="cov0" points="0,370 0,231.25 1,138.75 2,208.12 3,208.12 4,185 5,138.75 6,208.12 7,208.12 8,161.88 9,208.12 10,161.88 11,138.75 12,138.75 13,208.12 14,208.12 15,138.75 16,231.25 17,138.75 18,138.75 19,208.12 20,138.75 22,138.75 23,115.62 24,161.88 25,161.88 26,115.62 27,138.75 28,161.88 29,138.75 30,138.75 31,161.88 32,138.75 33,115.62 34,138.75 35,138.75 36,161.88 37,208.12 38,115.62 39,185 40,115.62 43,115.62 44,138.75 45,161.88 46,138.75 47,254.38 48,323.75 49,138.75 53,138.75 54,115.62 55,138.75 56,138.75 57,231.25 58,161.88 59,185 60,277.5 61,138.75 62,161.88 63,185 64,138.75 65,300.62 66,138.75 67,138.75 68,161.88 69,185 70,208.12 71,161.88 73,161.88 74,185 75,138.75 76,138.75 77,231.25 78,138.75 79,185 80,115.62 82,115.62 83,138.75 85,138.75 86,254.38 87,161.88 88,161.88 89,185 90,161.88 91,346.88 92,277.5 93,185 94,300.62 95,161.88 96,138.75 97,138.75 98,161.88 99,138.75 100,115.62 101,208.12 102,346.88 103,231.25 104,138.75 105,115.62 106,138.75 107,208.12 108,231.25 109,138.75 110,161.88 111,208.12 112,138.75 113,161.88 114,185 115,138.75 116,346.88 117,370 118,370 119,346.88 120,161.88 121,115.62 122,138.75 127,138.75 128,231.25 129,161.88 130,115.62 131,138.75 132,161.88 133,138.75 134,115.62 135,138.75 136,138.75 137,161.88 138,138.75 139,185 140,161.88 141,161.88 142,185 143,161.88 145,161.88 145.53,370"><title>LR761640.1</title></polygon><rect class="average" height="1" width="145.53" x="0" y="160.97"><title>average:9.04</title></rect><rect class="median" height="1" width="145.53" x="0" y="161.88"><title>median:9</title></rect><text class="chromName" x="72.77" y="-12">LR761640.1<title>LR761640.1 62,107,823 bp</title></text><rect class="frame" height="370" width="145.53" x="0" y="0"/></g><g id="chrom-LR761641.1" transform="translate(1039.265271917344,0)"><polygon class="cov1" points="0,370 0,370 1,208.12 2,161.88 3,277.5 4,208.12 5,138.75 6,370 7,323.75 8,138.75 9,138.75 10,92.5 11,300.62 12,277.5 13,138.75 14,277.5 15,138.75 16,161.88 17,254.38 18,138.75 20,138.75 21,161.88 22,231.25 23,161.88 24,208.12 25,185 26,231.25 28,231.25 29,277.5 30,231.25 31,208.12 32,277.5 33,231.25 34,300.62 35,254.38 36,370 37,254.38 38,277.5 39,277.5 40,231.25 41,346.88 43,346.88 44,254.38 46,254.38 47,277.5 48,323.75 49,138.75 50,208.12 51,161.88 52,115.62 53,138.75 54,138.75 55,115.62 56,138.75 57,185 58,161.88 59,185 60,185 61,277.5 62,161.88 63,208.12 64,185 65,208.12 66,208.12 67,231.25 68,277.5 69,161.88 70,185 71,138.75 72,208.12 73,346.88 74,208.12 75,300.62 76,208.12 79,208.12 80,323.75 81,370 82,370 83,346.88 84,208.12 85,161.88 86,254.38 87,138.75 88,254.38 89,208.12 90,300.62 91,277.5 92,138.75 93,254.38 94,300.62 95,231.25 96,185 97,300.62 98,161.88 99,370 100,208.12 101,138.75 102,185 103,138.75 104,185 105,138.75 106,277.5 107,161.88 109,161.88 110,138.75 111,346.88 112,161.88 113,254.38 114,185 115,208.12 116,138.75 117,185 118,138.75 119,231.25 120,254.38 121,208.12 122,208.12 123,277.5 124,161.88 125,254.38 126,254.38 127,138.75 128,277.5 129,208.12 130,300.62 131,208.12 132,370 133,277.5 134,138.75 135,370 136,370 136.99,370"><title>LR761641.1</title></polygon><rect class="average" height="1" width="136.99" x="0" y="194.6"><title>average:7.58</title></rect><rect class="median" height="1" width="136.99" x="0" y="208.12"><title>median:7</title></rect><text class="chromName" x="68.5" y="-12">LR761641.1<title>LR761641.1 58,462,999 bp</title></text><rect class="frame" height="370" width="136.99" x="0" y="0"/></g><g id="chrom-LR761642.1" transform="translate(1177.25719230686,0)"><polygon class="cov0" points="0,370 0,300.62 1,277.5 2,277.5 3,300.62 4,346.88 5,370 6,346.88 7,346.88 8,300.62 9,300.62 10,323.75 11,254.38 12,254.38 13,161.88 14,231.25 15,161.88 16,254.38 17,208.12 18,323.75 19,254.38 20,208.12 21,185 22,323.75 23,300.62 24,185 25,138.75 26,208.12 27,208.12 28,323.75 29,185 30,231.25 31,138.75 32,161.88 33,208.12 34,185 35,346.88 36,161.88 37,161.88 38,138.75 39,185 40,138.75 41,185 42,138.75 43,161.88 44,161.88 45,208.12 46,161.88 47,277.5 48,277.5 49,323.75 50,208.12 51,254.38 52,231.25 53,138.75 54,138.75 55,231.25 56,185 57,185 58,254.38 59,161.88 60,161.88 61,346.88 62,208.12 63,185 64,208.12 65,208.12 66,185 67,346.88 68,277.5 69,161.88 70,138.75 71,231.25 72,161.88 73,231.25 74,161.88 75,208.12 76,323.75 77,161.88 78,161.88 79,231.25 80,254.38 81,185 82,346.88 83,254.38 84,323.75 85,277.5 86,323.75 86.91,370"><title>LR761642.1</title></polygon><rect class="average" height="1" width="86.91" x="0" y="190.6"><title>average:7.76</title></rect><rect class="median" height="1" width="86.91" x="0" y="231.25"><title>median:6</title></rect><text class="chromName" x="43.45" y="-12">LR761642.1<title>LR761642.1 37,089,910 bp</title></text><rect class="frame" height="370" width="86.91" x="0" y="0"/></g><g id="chrom-LR761643.1" transform="translate(1265.1671710093603,0)"><polygon class="cov1" points="0,370 0,346.88 1,277.5 2,208.12 3,138.75 4,161.88 5,254.38 6,208.12 7,185 8,161.88 9,138.75 10,161.88 11,185 12,138.75 13,138.75 14,231.25 15,161.88 16,138.75 17,161.88 18,161.88 19,185 20,370 21,161.88 22,138.75 23,138.75 24,161.88 25,185 26,300.62 27,300.62 28,370 29,138.75 30,208.12 31,161.88 32,231.25 33,161.88 34,185 35,208.12 36,254.38 37,138.75 38,138.75 39,115.62 40,138.75 41,161.88 42,208.12 43,254.38 44,161.88 45,185 46,138.75 47,254.38 48,161.88 49,138.75 50,185 51,138.75 53,138.75 54,161.88 55,138.75 57,138.75 58,185 59,138.75 60,115.62 61,138.75 62,185 63,138.75 64,161.88 65,208.12 66,161.88 68,161.88 69,138.75 70,138.75 71,231.25 72,208.12 73,161.88 74,138.75 75,231.25 76,138.75 77,115.62 78,231.25 79,254.38 80,138.75 81,115.62 82,138.75 84,138.75 85,115.62 86,138.75 87,115.62 88,185 89,370 90,208.12 91,138.75 92,115.62 93,161.88 94,115.62 95,161.88 96,115.62 97,138.75 98,115.62 99,115.62 100,138.75 101,254.38 102,138.75 103,138.75 104,161.88 105,138.75 106,115.62 107,115.62 108,138.75 109,115.62 112,115.62 113,185 114,138.75 115,138.75 116,115.62 118,115.62 119,161.88 120,138.75 121,115.62 123,115.62 124,161.88 125,138.75 126,115.62 127,138.75 128,185 129,138.75 130,185 131,185 132,138.75 133,208.12 134,231.25 134.83,370"><title>LR761643.1</title></polygon><rect class="average" height="1" width="134.83" x="0" y="159.44"><title>average:9.11</title></rect><rect class="median" height="1" width="134.83" x="0" y="161.88"><title>median:9</title></rect><text class="chromName" x="67.42" y="-12">LR761643.1<title>LR761643.1 57,541,580 bp</title></text><rect class="frame" height="370" width="134.83" x="0" y="0"/></g><g><line class="ruler" x1="-2" x2="1390" y1="333" y2="333"><title>1</title></line><text class="ruler" x="-5" y="333">1</text><line class="ruler" x1="-2" x2="1390" y1="296" y2="296"><title>3</title></line><text class="ruler" x="-5" y="296">3</text><line class="ruler" x1="-2" x2="1390" y1="259" y2="259"><title>4</title></line><text class="ruler" x="-5" y="259">4</text><line class="ruler" x1="-2" x2="1390" y1="222" y2="222"><title>6</title></line><text class="ruler" x="-5" y="222">6</text><line class="ruler" x1="-2" x2="1390" y1="185" y2="185"><title>8</title></line><text class="ruler" x="-5" y="185">8</text><line class="ruler" x1="-2" x2="1390" y1="148" y2="148"><title>9</title></line><text class="ruler" x="-5" y="148">9</text><line class="ruler" x1="-2" x2="1390" y1="111" y2="111"><title>11</title></line><text class="ruler" x="-5" y="111">11</text><line class="ruler" x1="-2" x2="1390" y1="74" y2="74"><title>12</title></line><text class="ruler" x="-5" y="74">12</text><line class="ruler" x1="-2" x2="1390" y1="37" y2="37"><title>14</title></line><text class="ruler" x="-5" y="37">14</text><line class="ruler" x1="-2" x2="1390" y1="0" y2="0"><title>16</title></line><text class="ruler" x="-5" y="0">16</text></g></g><text class="title" x="795" y="40">F09.realigned.bam F09<title>./F09.realigned.bam</title></text><text class="xLabel" x="795" y="475">GCA_902806645.1_cgigas_uk_roslin_v1_genomic.fna  (589,358,857 bp)<title>../ref/GCA_902806645.1_cgigas_uk_roslin_v1_genomic.fna</title></text><text class="yLabel" transform="translate(25,265) rotate(90)" x="0" y="0">Coverage bp (median)</text></g></svg>