<?xml version="1.0" encoding="UTF-8" standalone="no"?><svg height="500" width="1500" xmlns="http://www.w3.org/2000/svg"><title>F10_M12_14.merged.realigned.bam</title><desc>Made with wgscoverageplotter undefined Author: Pierre Lindenbaum</desc><style>g.maing {stroke:black;stroke-width:0.5px;fill:none;}
text.title {stroke:none;fill:black;stroke-width:1px;text-anchor:middle;}
rect.frame {stroke:darkgray;fill:none;stroke-width:0.5px;}
text.ruler {stroke:none;fill:darkgray;stroke-width:1px;text-anchor:end;}
text.chromName {stroke:none;fill:darkgray;stroke-width:1px;text-anchor:middle;}
text.xLabel {stroke:none;fill:black;stroke-width:1px;text-anchor:middle;}
text.yLabel {stroke:none;fill:black;stroke-width:1px;text-anchor:middle;}
.cov0 {stroke:gray;fill:antiquewhite;stroke-width:0.5px;}
.cov1 {stroke:gray;fill:beige;stroke-width:0.5px;}
rect.average {stroke:green;fill:green;stroke-width:0.5px;opacity:0.3;}
rect.median {stroke:red;fill:red;stroke-width:0.5px;opacity:0.3;}
line.ruler {stroke:darkgray;stroke-dasharray:4;fill:none;stroke-width:1;}
</style><g class="maing"><g id="chromosomes" transform="translate(100.0,80.0)"><g id="chrom-LR761634.1" transform="translate(10.0,0)"><polygon class="cov0" points="0,370 0,333 1,129.5 2,166.5 3,277.5 4,203.5 5,166.5 6,259 7,185 8,148 9,129.5 10,148 11,111 12,148 13,222 14,277.5 15,129.5 16,129.5 17,203.5 18,129.5 19,129.5 20,111 21,148 22,148 23,129.5 24,148 25,111 27,111 28,129.5 29,111 30,129.5 31,129.5 32,259 33,129.5 35,129.5 36,111 37,185 38,185 39,129.5 40,129.5 41,111 42,129.5 43,166.5 44,148 45,203.5 46,185 47,129.5 49,129.5 50,148 51,129.5 52,111 53,129.5 54,259 55,333 56,111 57,92.5 58,129.5 60,129.5 61,111 62,148 63,166.5 64,185 65,166.5 66,148 67,166.5 68,111 69,185 70,111 71,111 72,203.5 73,166.5 74,129.5 75,111 76,129.5 77,185 78,148 79,148 80,314.5 81,277.5 82,111 83,129.5 84,148 85,129.5 86,111 87,185 88,111 89,259 90,148 91,129.5 92,111 93,148 94,92.5 95,111 96,111 97,185 98,296 99,129.5 100,129.5 101,185 102,148 103,148 104,185 105,111 106,185 107,203.5 108,222 109,111 110,111 111,129.5 112,129.5 113,203.5 114,296 115,185 116,111 117,129.5 118,111 119,166.5 120,203.5 121,129.5 122,148 123,111 124,129.5 127,129.5 128,166.5 129,166.5 130,203.5 130.72,370"><title>LR761634.1</title></polygon><rect class="average" height="1" width="130.72" x="0" y="147.88"><title>average:12.01</title></rect><rect class="median" height="1" width="130.72" x="0" y="148"><title>median:12</title></rect><text class="chromName" x="65.36" y="-12">LR761634.1<title>LR761634.1 55,785,328 bp</title></text><rect class="frame" height="370" width="130.72" x="0" y="0"/></g><g id="chrom-LR761635.1" transform="translate(141.71753661284166,0)"><polygon class="cov1" points="0,370 0,351.5 1,351.5 2,314.5 3,222 4,351.5 5,333 6,222 7,314.5 8,296 9,148 10,148 11,240.5 12,166.5 13,148 14,240.5 15,296 16,314.5 17,222 18,277.5 19,240.5 20,277.5 21,277.5 22,259 23,277.5 24,351.5 25,333 26,314.5 27,333 28,296 29,351.5 30,333 31,333 32,259 33,203.5 34,222 35,277.5 36,259 37,314.5 38,351.5 39,185 40,222 41,259 42,185 43,222 44,92.5 45,166.5 46,203.5 47,148 48,222 49,148 50,203.5 51,259 52,203.5 53,240.5 54,259 55,240.5 56,259 57,259 58,148 59,277.5 60,314.5 61,259 62,148 63,240.5 64,240.5 65,222 66,296 67,259 68,259 69,296 70,314.5 71,185 72,240.5 73,222 74,203.5 75,166.5 76,277.5 77,0 78,203.5 79,240.5 80,129.5 81,240.5 82,259 84,259 85,277.5 86,277.5 87,296 88,277.5 89,296 90,259 91,333 92,333 93,296 95,296 96,333 97,296 98,333 99,314.5 100,333 101,333 102,314.5 103,203.5 104,129.5 105,166.5 106,240.5 107,314.5 108,185 109,222 110,259 111,203.5 112,296 113,333 114,314.5 115,259 116,259 117,240.5 118,166.5 119,166.5 120,129.5 121,185 122,203.5 123,240.5 124,277.5 125,148 126,259 127,277.5 128,203.5 129,296 130,185 131,259 132,222 133,314.5 134,296 135,296 136,333 137,314.5 138,314.5 139,277.5 140,333 141,314.5 142,296 143,277.5 144,259 145,240.5 146,240.5 147,148 148,166.5 149,129.5 150,203.5 151,296 152,333 153,222 154,314.5 155,240.5 156,259 157,240.5 158,185 159,148 160,240.5 161,222 162,296 163,259 164,203.5 165,259 166,314.5 167,314.5 168,296 169,240.5 170,296 171,314.5 171.58,370"><title>LR761635.1</title></polygon><rect class="average" height="1" width="171.58" x="0" y="202.09"><title>average:9.08</title></rect><rect class="median" height="1" width="171.58" x="0" y="259"><title>median:6</title></rect><text class="chromName" x="85.79" y="-12">LR761635.1<title>LR761635.1 73,222,313 bp</title></text><rect class="frame" height="370" width="171.58" x="0" y="0"/></g><g id="chrom-LR761636.1" transform="translate(314.2938403401308,0)"><polygon class="cov0" points="0,370 0,259 1,166.5 2,240.5 3,333 4,222 5,148 6,166.5 7,185 8,111 9,129.5 10,111 11,129.5 12,129.5 13,203.5 14,111 15,148 16,129.5 17,111 18,148 19,111 23,111 24,166.5 25,92.5 26,148 27,240.5 28,111 29,92.5 30,111 33,111 34,129.5 35,166.5 36,129.5 37,166.5 38,129.5 39,129.5 40,148 43,148 44,129.5 45,148 46,166.5 47,129.5 48,203.5 49,148 50,166.5 51,111 52,129.5 53,129.5 54,259 55,166.5 56,148 57,129.5 58,148 59,129.5 60,166.5 61,203.5 62,166.5 63,148 64,111 65,148 66,129.5 67,129.5 68,148 69,148 70,185 71,92.5 72,111 73,166.5 74,148 75,148 76,296 77,203.5 78,222 79,259 80,240.5 81,129.5 82,203.5 83,148 84,111 85,129.5 86,259 87,148 88,129.5 89,185 90,129.5 91,111 92,185 93,148 94,129.5 95,185 96,185 97,129.5 98,129.5 99,166.5 100,166.5 101,148 102,148 103,111 104,129.5 107,129.5 108,111 109,129.5 110,111 111,148 112,148 113,129.5 114,111 116,111 117,129.5 118,166.5 119,129.5 120,129.5 121,203.5 122,129.5 123,111 124,185 125,111 126,111 127,185 128,277.5 129,111 130,148 131,166.5 132,166.5 133,129.5 135,129.5 136,222 136.65,370"><title>LR761636.1</title></polygon><rect class="average" height="1" width="136.65" x="0" y="143.04"><title>average:12.27</title></rect><rect class="median" height="1" width="136.65" x="0" y="148"><title>median:12</title></rect><text class="chromName" x="68.33" y="-12">LR761636.1<title>LR761636.1 58,319,100 bp</title></text><rect class="frame" height="370" width="136.65" x="0" y="0"/></g><g id="chrom-LR761637.1" transform="translate(451.9485730949149,0)"><polygon class="cov1" points="0,370 0,351.5 1,259 2,259 3,222 4,203.5 5,185 6,240.5 7,259 8,222 9,314.5 10,333 11,148 12,277.5 13,259 14,277.5 15,185 16,222 17,129.5 18,296 19,296 20,203.5 21,166.5 22,148 23,222 24,314.5 25,166.5 26,148 27,222 29,222 30,277.5 31,129.5 32,148 33,148 34,129.5 35,203.5 36,259 37,259 38,166.5 39,148 40,148 41,277.5 42,203.5 43,259 44,296 45,203.5 46,148 47,129.5 48,111 49,111 50,166.5 51,129.5 52,92.5 53,166.5 54,92.5 55,129.5 56,148 57,222 58,277.5 59,314.5 60,314.5 61,222 62,129.5 63,129.5 64,111 65,129.5 66,129.5 67,148 68,185 69,111 70,148 71,129.5 72,166.5 73,129.5 74,166.5 75,148 76,129.5 77,148 78,185 79,203.5 80,148 81,148 82,129.5 83,148 84,148 85,111 86,222 87,148 88,129.5 89,129.5 90,111 91,129.5 92,129.5 93,166.5 94,185 95,222 96,185 97,129.5 98,111 99,129.5 100,185 101,203.5 102,185 103,203.5 104,222 105,296 106,111 107,92.5 108,111 109,111 110,92.5 111,129.5 112,111 113,111 114,296 115,166.5 116,148 117,148 118,129.5 119,333 120,148 121,129.5 122,259 123,185 124,166.5 124.49,370"><title>LR761637.1</title></polygon><rect class="average" height="1" width="124.49" x="0" y="164.25"><title>average:11.12</title></rect><rect class="median" height="1" width="124.49" x="0" y="166.5"><title>median:11</title></rect><text class="chromName" x="62.25" y="-12">LR761637.1<title>LR761637.1 53,127,865 bp</title></text><rect class="frame" height="370" width="124.49" x="0" y="0"/></g><g id="chrom-LR761638.1" transform="translate(577.4390778079033,0)"><polygon class="cov0" points="0,370 0,240.5 1,203.5 2,314.5 3,129.5 4,222 5,148 6,203.5 7,185 8,166.5 9,129.5 10,148 11,277.5 12,111 13,166.5 14,111 15,148 16,111 17,129.5 18,259 19,314.5 20,148 21,222 22,129.5 23,111 24,111 25,166.5 26,351.5 27,129.5 28,185 29,277.5 30,240.5 31,148 32,370 33,351.5 34,185 35,240.5 36,148 37,277.5 38,296 39,333 41,333 42,259 43,148 44,148 45,314.5 46,185 47,111 48,129.5 49,203.5 50,351.5 51,240.5 52,203.5 53,148 54,240.5 55,222 56,129.5 57,203.5 58,148 59,185 60,222 61,203.5 62,166.5 63,314.5 65,314.5 66,203.5 67,203.5 68,185 69,277.5 70,185 71,351.5 72,351.5 73,296 74,259 75,333 76,351.5 77,185 78,314.5 79,314.5 80,277.5 81,166.5 82,333 83,333 84,296 85,222 86,148 87,166.5 88,314.5 89,129.5 90,277.5 91,129.5 92,92.5 93,129.5 94,148 95,222 96,296 97,148 98,314.5 99,203.5 100,203.5 101,166.5 102,259 103,185 104,296 105,314.5 106,240.5 107,185 108,222 109,166.5 110,222 111,185 112,314.5 113,222 114,259 115,259 116,314.5 117,296 118,314.5 119,296 120,259 121,351.5 122,351.5 123,370 124,277.5 125,314.5 126,333 127,259 128,370 129,277.5 130,314.5 131,277.5 132,259 133,333 134,277.5 135,314.5 136,166.5 137,370 138,351.5 139,277.5 140,370 141,370 142,314.5 143,277.5 144,166.5 145,203.5 146,296 147,129.5 148,166.5 149,166.5 150,203.5 151,296 152,166.5 153,166.5 154,240.5 155,296 156,203.5 157,296 158,296 159,314.5 160,351.5 161,277.5 162,277.5 163,240.5 164,277.5 165,351.5 166,333 167,351.5 168,351.5 169,222 170,351.5 172,351.5 172.35,370"><title>LR761638.1</title></polygon><rect class="average" height="1" width="172.35" x="0" y="207.71"><title>average:8.77</title></rect><rect class="median" height="1" width="172.35" x="0" y="259"><title>median:6</title></rect><text class="chromName" x="86.17" y="-12">LR761638.1<title>LR761638.1 73,550,375 bp</title></text><rect class="frame" height="370" width="172.35" x="0" y="0"/></g><g id="chrom-LR761639.1" transform="translate(750.784104388203,0)"><polygon class="cov1" points="0,370 0,333 1,148 2,129.5 3,277.5 4,166.5 5,240.5 6,351.5 7,277.5 8,148 9,129.5 10,148 11,277.5 12,222 13,111 14,166.5 15,129.5 16,129.5 17,111 18,129.5 19,111 20,111 21,129.5 22,148 23,148 24,185 25,203.5 26,166.5 27,259 28,351.5 29,259 30,277.5 31,129.5 32,148 33,111 34,203.5 35,203.5 36,240.5 37,129.5 39,129.5 40,259 41,129.5 42,129.5 43,92.5 44,129.5 45,111 46,148 47,129.5 48,129.5 49,148 50,166.5 51,129.5 52,185 53,148 54,148 55,111 56,129.5 58,129.5 59,111 62,111 63,129.5 64,92.5 65,111 66,166.5 67,129.5 68,129.5 69,185 70,129.5 73,129.5 74,222 75,129.5 77,129.5 78,111 79,129.5 80,148 81,111 82,129.5 83,148 84,185 85,129.5 86,111 87,129.5 88,111 90,111 91,129.5 92,129.5 93,166.5 94,148 95,129.5 96,129.5 97,111 98,111 99,129.5 101,129.5 102,148 103,129.5 104,111 105,129.5 106,240.5 107,129.5 108,111 109,129.5 110,111 111,333 112,166.5 113,111 114,166.5 115,111 116,148 117,129.5 118,129.5 119,111 120,148 121,111 123,111 124,166.5 125,129.5 126,111 127,129.5 128,148 129,111 130,166.5 131,148 132,166.5 133,351.5 134,111 135,166.5 136,148 137,148 138,203.5 139,148 140,185 140.95,370"><title>LR761639.1</title></polygon><rect class="average" height="1" width="140.95" x="0" y="144.97"><title>average:12.16</title></rect><rect class="median" height="1" width="140.95" x="0" y="148"><title>median:12</title></rect><text class="chromName" x="70.47" y="-12">LR761639.1<title>LR761639.1 60,151,564 bp</title></text><rect class="frame" height="370" width="140.95" x="0" y="0"/></g><g id="chrom-LR761640.1" transform="translate(892.7327113317651,0)"><polygon class="cov0" points="0,370 0,185 1,111 2,203.5 3,166.5 4,166.5 5,111 6,185 7,203.5 8,129.5 9,148 10,129.5 11,129.5 12,111 13,259 14,185 15,129.5 16,222 17,129.5 18,111 19,185 20,111 21,129.5 22,111 23,111 24,129.5 25,148 26,111 27,129.5 29,129.5 30,111 33,111 34,129.5 36,129.5 37,185 38,111 39,148 40,111 41,111 42,92.5 43,111 44,111 45,148 46,148 47,259 48,333 49,111 50,166.5 51,129.5 52,111 53,129.5 54,111 55,129.5 56,111 57,222 58,148 59,166.5 60,240.5 61,129.5 62,148 63,166.5 64,129.5 65,277.5 66,129.5 67,148 68,129.5 69,166.5 70,166.5 71,129.5 72,148 73,203.5 74,166.5 75,129.5 76,111 77,222 78,129.5 79,166.5 80,92.5 81,74 82,74 83,129.5 84,129.5 85,111 86,351.5 87,148 88,166.5 89,148 90,148 91,240.5 92,240.5 93,166.5 94,203.5 95,148 96,129.5 98,129.5 99,148 100,111 101,148 102,333 103,222 104,129.5 105,111 106,129.5 107,166.5 108,203.5 109,129.5 110,166.5 111,203.5 112,148 113,148 114,166.5 115,129.5 116,314.5 117,333 118,351.5 119,314.5 120,148 121,111 122,129.5 124,129.5 125,111 126,111 127,129.5 128,259 129,148 130,111 131,129.5 132,129.5 133,111 135,111 136,129.5 138,129.5 139,166.5 140,148 141,129.5 142,166.5 143,222 144,129.5 145,129.5 145.53,370"><title>LR761640.1</title></polygon><rect class="average" height="1" width="145.53" x="0" y="147.11"><title>average:12.05</title></rect><rect class="median" height="1" width="145.53" x="0" y="148"><title>median:12</title></rect><text class="chromName" x="72.77" y="-12">LR761640.1<title>LR761640.1 62,107,823 bp</title></text><rect class="frame" height="370" width="145.53" x="0" y="0"/></g><g id="chrom-LR761641.1" transform="translate(1039.265271917344,0)"><polygon class="cov1" points="0,370 0,296 1,148 2,240.5 3,203.5 4,148 5,222 6,296 7,240.5 8,259 9,185 10,129.5 11,222 12,222 13,111 14,203.5 15,129.5 16,111 17,314.5 18,129.5 19,148 20,148 21,166.5 22,203.5 23,148 24,166.5 25,148 26,203.5 27,185 28,203.5 29,240.5 30,203.5 31,166.5 32,222 33,203.5 34,314.5 35,277.5 36,333 37,259 38,240.5 39,222 40,185 41,222 42,259 43,259 44,166.5 45,240.5 46,296 47,185 48,185 49,148 50,166.5 51,148 52,111 54,111 55,92.5 56,111 57,166.5 58,185 59,166.5 60,148 61,240.5 62,148 63,185 64,222 65,185 66,185 67,222 68,259 69,148 70,185 71,111 72,185 73,314.5 74,203.5 75,314.5 76,222 77,185 78,148 79,203.5 80,259 81,351.5 82,333 83,314.5 84,185 85,166.5 86,277.5 87,111 88,203.5 89,166.5 90,296 91,240.5 92,129.5 93,259 94,296 95,166.5 96,185 97,351.5 98,129.5 99,370 100,277.5 101,129.5 102,166.5 103,111 104,185 105,129.5 106,277.5 107,129.5 108,148 109,148 110,129.5 111,296 112,166.5 113,222 114,129.5 115,129.5 116,111 117,166.5 118,148 119,203.5 120,222 121,185 122,166.5 123,240.5 124,148 125,222 126,277.5 127,129.5 128,259 129,185 130,277.5 131,240.5 132,333 133,277.5 134,148 135,370 136,314.5 136.99,370"><title>LR761641.1</title></polygon><rect class="average" height="1" width="136.99" x="0" y="176.84"><title>average:10.44</title></rect><rect class="median" height="1" width="136.99" x="0" y="203.5"><title>median:9</title></rect><text class="chromName" x="68.5" y="-12">LR761641.1<title>LR761641.1 58,462,999 bp</title></text><rect class="frame" height="370" width="136.99" x="0" y="0"/></g><g id="chrom-LR761642.1" transform="translate(1177.25719230686,0)"><polygon class="cov0" points="0,370 0,314.5 1,333 2,351.5 3,259 4,333 5,314.5 7,314.5 8,296 10,296 11,259 12,259 13,129.5 14,185 15,222 16,277.5 17,259 18,277.5 19,259 20,222 21,166.5 22,277.5 23,277.5 24,166.5 25,129.5 26,166.5 27,148 28,203.5 29,148 30,203.5 31,129.5 32,148 33,203.5 34,148 35,296 36,148 37,148 38,111 39,166.5 40,129.5 41,166.5 42,111 43,148 44,148 45,222 46,148 47,259 48,222 49,296 50,185 51,203.5 52,222 53,129.5 54,129.5 55,222 56,166.5 57,240.5 58,222 59,148 60,148 61,314.5 62,203.5 63,166.5 64,185 65,148 66,166.5 67,314.5 68,222 69,166.5 70,185 71,259 72,148 73,222 74,148 75,185 76,296 77,148 78,148 79,240.5 80,240.5 81,166.5 82,333 83,240.5 84,296 85,259 86,314.5 86.91,370"><title>LR761642.1</title></polygon><rect class="average" height="1" width="86.91" x="0" y="174.94"><title>average:10.54</title></rect><rect class="median" height="1" width="86.91" x="0" y="203.5"><title>median:9</title></rect><text class="chromName" x="43.45" y="-12">LR761642.1<title>LR761642.1 37,089,910 bp</title></text><rect class="frame" height="370" width="86.91" x="0" y="0"/></g><g id="chrom-LR761643.1" transform="translate(1265.1671710093603,0)"><polygon class="cov1" points="0,370 0,333 1,277.5 2,166.5 3,129.5 4,148 5,222 6,166.5 7,166.5 8,148 9,111 10,111 11,166.5 12,129.5 13,203.5 14,240.5 15,148 16,111 17,148 18,148 19,203.5 20,351.5 21,148 22,129.5 23,129.5 24,203.5 25,166.5 26,351.5 27,333 28,314.5 29,111 30,185 31,148 32,222 33,129.5 34,129.5 35,185 36,240.5 37,111 38,129.5 39,111 40,129.5 41,148 42,166.5 43,259 44,148 45,166.5 46,111 47,240.5 48,166.5 49,129.5 50,166.5 51,111 52,129.5 53,148 54,148 55,129.5 56,111 57,129.5 58,185 59,111 60,92.5 61,129.5 62,148 63,129.5 64,148 65,185 66,148 67,148 68,129.5 69,129.5 70,148 71,222 72,203.5 73,222 74,111 75,203.5 76,148 77,111 78,185 79,277.5 80,129.5 81,111 82,129.5 83,111 85,111 86,129.5 87,111 88,166.5 89,351.5 90,148 91,111 92,111 93,148 94,111 95,148 96,111 100,111 101,240.5 102,129.5 103,129.5 104,148 105,129.5 106,111 107,111 108,148 109,111 112,111 113,222 114,148 115,129.5 116,92.5 117,111 118,111 119,129.5 120,111 123,111 124,129.5 125,111 126,111 127,203.5 128,129.5 129,111 130,166.5 131,203.5 132,129.5 133,259 134,314.5 134.83,370"><title>LR761643.1</title></polygon><rect class="average" height="1" width="134.83" x="0" y="151.41"><title>average:11.82</title></rect><rect class="median" height="1" width="134.83" x="0" y="148"><title>median:12</title></rect><text class="chromName" x="67.42" y="-12">LR761643.1<title>LR761643.1 57,541,580 bp</title></text><rect class="frame" height="370" width="134.83" x="0" y="0"/></g><g><line class="ruler" x1="-2" x2="1390" y1="333" y2="333"><title>2</title></line><text class="ruler" x="-5" y="333">2</text><line class="ruler" x1="-2" x2="1390" y1="296" y2="296"><title>4</title></line><text class="ruler" x="-5" y="296">4</text><line class="ruler" x1="-2" x2="1390" y1="259" y2="259"><title>6</title></line><text class="ruler" x="-5" y="259">6</text><line class="ruler" x1="-2" x2="1390" y1="222" y2="222"><title>8</title></line><text class="ruler" x="-5" y="222">8</text><line class="ruler" x1="-2" x2="1390" y1="185" y2="185"><title>10</title></line><text class="ruler" x="-5" y="185">10</text><line class="ruler" x1="-2" x2="1390" y1="148" y2="148"><title>12</title></line><text class="ruler" x="-5" y="148">12</text><line class="ruler" x1="-2" x2="1390" y1="111" y2="111"><title>14</title></line><text class="ruler" x="-5" y="111">14</text><line class="ruler" x1="-2" x2="1390" y1="74" y2="74"><title>16</title></line><text class="ruler" x="-5" y="74">16</text><line class="ruler" x1="-2" x2="1390" y1="37" y2="37"><title>18</title></line><text class="ruler" x="-5" y="37">18</text><line class="ruler" x1="-2" x2="1390" y1="0" y2="0"><title>20</title></line><text class="ruler" x="-5" y="0">20</text></g></g><text class="title" x="795" y="40">F10_M12_14.merged.realigned.bam F10_M12_14 F10_M12_14_1 F10_M12_14_2<title>./F10_M12_14.merged.realigned.bam</title></text><text class="xLabel" x="795" y="475">GCA_902806645.1_cgigas_uk_roslin_v1_genomic.fna  (589,358,857 bp)<title>../ref/GCA_902806645.1_cgigas_uk_roslin_v1_genomic.fna</title></text><text class="yLabel" transform="translate(25,265) rotate(90)" x="0" y="0">Coverage bp (median)</text></g></svg>