<?xml version="1.0" encoding="UTF-8" standalone="no"?><svg height="500" width="1500" xmlns="http://www.w3.org/2000/svg"><title>F10_M12_24.merged.realigned.bam</title><desc>Made with wgscoverageplotter undefined Author: Pierre Lindenbaum</desc><style>g.maing {stroke:black;stroke-width:0.5px;fill:none;}
text.title {stroke:none;fill:black;stroke-width:1px;text-anchor:middle;}
rect.frame {stroke:darkgray;fill:none;stroke-width:0.5px;}
text.ruler {stroke:none;fill:darkgray;stroke-width:1px;text-anchor:end;}
text.chromName {stroke:none;fill:darkgray;stroke-width:1px;text-anchor:middle;}
text.xLabel {stroke:none;fill:black;stroke-width:1px;text-anchor:middle;}
text.yLabel {stroke:none;fill:black;stroke-width:1px;text-anchor:middle;}
.cov0 {stroke:gray;fill:antiquewhite;stroke-width:0.5px;}
.cov1 {stroke:gray;fill:beige;stroke-width:0.5px;}
rect.average {stroke:green;fill:green;stroke-width:0.5px;opacity:0.3;}
rect.median {stroke:red;fill:red;stroke-width:0.5px;opacity:0.3;}
line.ruler {stroke:darkgray;stroke-dasharray:4;fill:none;stroke-width:1;}
</style><g class="maing"><g id="chromosomes" transform="translate(100.0,80.0)"><g id="chrom-LR761634.1" transform="translate(10.0,0)"><polygon class="cov0" points="0,370 0,298.85 1,113.85 2,142.31 3,284.62 4,213.46 5,156.54 6,284.62 7,199.23 8,142.31 9,128.08 10,142.31 11,113.85 12,156.54 13,213.46 14,270.38 15,142.31 16,128.08 17,156.54 18,128.08 20,128.08 21,142.31 22,156.54 23,170.77 24,156.54 25,128.08 26,128.08 27,142.31 31,142.31 32,270.38 33,142.31 34,156.54 35,170.77 36,128.08 37,185 38,213.46 39,170.77 40,142.31 42,142.31 43,185 44,170.77 45,227.69 46,185 47,156.54 48,170.77 49,156.54 51,156.54 52,142.31 53,156.54 54,270.38 55,341.54 56,142.31 57,113.85 58,142.31 59,156.54 60,170.77 61,128.08 62,156.54 63,185 64,199.23 65,170.77 66,156.54 67,185 68,128.08 69,199.23 70,156.54 71,142.31 72,227.69 73,185 74,156.54 75,142.31 76,142.31 77,199.23 78,170.77 79,142.31 80,227.69 81,241.92 82,128.08 83,156.54 84,156.54 85,142.31 86,128.08 87,199.23 88,128.08 89,256.15 90,170.77 91,156.54 92,142.31 93,170.77 94,113.85 95,128.08 96,113.85 97,170.77 98,313.08 99,142.31 100,128.08 101,170.77 102,142.31 103,170.77 104,185 105,128.08 106,213.46 107,185 108,256.15 109,113.85 110,99.62 111,128.08 112,113.85 113,156.54 114,313.08 115,199.23 116,113.85 117,113.85 118,99.62 119,156.54 120,185 121,113.85 124,113.85 125,99.62 126,113.85 127,128.08 128,170.77 129,142.31 130,163.65 130.72,370"><title>LR761634.1</title></polygon><rect class="average" height="1" width="130.72" x="0" y="157.14"><title>average:14.96</title></rect><rect class="median" height="1" width="130.72" x="0" y="156.54"><title>median:15</title></rect><text class="chromName" x="65.36" y="-12">LR761634.1<title>LR761634.1 55,785,328 bp</title></text><rect class="frame" height="370" width="130.72" x="0" y="0"/></g><g id="chrom-LR761635.1" transform="translate(141.71753661284166,0)"><polygon class="cov1" points="0,370 0,341.54 1,355.77 2,313.08 3,270.38 4,355.77 5,327.31 6,256.15 7,298.85 8,298.85 9,270.38 10,284.62 11,327.31 12,298.85 13,128.08 14,213.46 15,241.92 16,284.62 17,213.46 18,256.15 19,227.69 20,327.31 21,256.15 22,270.38 23,256.15 24,355.77 25,341.54 26,355.77 27,355.77 28,313.08 29,355.77 30,341.54 31,327.31 32,256.15 33,185 34,170.77 35,227.69 36,213.46 37,298.85 38,313.08 39,156.54 40,170.77 41,213.46 42,156.54 43,170.77 45,170.77 46,185 47,113.85 48,227.69 49,156.54 50,185 51,256.15 52,170.77 53,256.15 54,284.62 55,241.92 56,270.38 57,256.15 58,170.77 59,284.62 60,341.54 61,284.62 62,128.08 63,270.38 64,298.85 65,241.92 66,270.38 67,227.69 68,199.23 69,298.85 70,256.15 71,170.77 72,199.23 73,199.23 74,241.92 75,199.23 76,341.54 77,0 78,241.92 79,284.62 80,128.08 81,256.15 82,270.38 83,313.08 84,341.54 85,298.85 86,341.54 87,355.77 88,313.08 89,355.77 90,256.15 91,313.08 92,313.08 93,284.62 94,270.38 95,256.15 96,284.62 97,241.92 98,284.62 99,284.62 100,270.38 101,284.62 102,298.85 103,185 104,142.31 105,170.77 106,227.69 107,270.38 108,185 109,213.46 110,270.38 111,170.77 112,341.54 113,298.85 114,298.85 115,355.77 116,284.62 117,284.62 118,170.77 119,170.77 120,128.08 121,213.46 122,227.69 123,227.69 124,256.15 125,142.31 126,227.69 127,256.15 128,113.85 129,199.23 130,156.54 131,313.08 132,185 133,327.31 134,341.54 135,270.38 136,341.54 137,327.31 138,327.31 139,298.85 140,355.77 141,313.08 142,313.08 143,341.54 144,313.08 145,199.23 146,284.62 147,113.85 148,142.31 149,113.85 150,241.92 151,270.38 152,355.77 153,227.69 154,256.15 155,284.62 156,284.62 157,256.15 158,241.92 159,156.54 160,241.92 161,199.23 162,170.77 163,170.77 164,241.92 165,256.15 166,313.08 167,341.54 168,313.08 169,327.31 170,284.62 171,327.31 171.58,370"><title>LR761635.1</title></polygon><rect class="average" height="1" width="171.58" x="0" y="197.76"><title>average:12.1</title></rect><rect class="median" height="1" width="171.58" x="0" y="270.38"><title>median:7</title></rect><text class="chromName" x="85.79" y="-12">LR761635.1<title>LR761635.1 73,222,313 bp</title></text><rect class="frame" height="370" width="171.58" x="0" y="0"/></g><g id="chrom-LR761636.1" transform="translate(314.2938403401308,0)"><polygon class="cov0" points="0,370 0,327.31 1,113.85 2,227.69 3,298.85 4,227.69 5,128.08 6,128.08 7,113.85 8,99.62 9,128.08 10,99.62 11,99.62 12,128.08 13,199.23 14,99.62 15,113.85 16,99.62 17,113.85 18,128.08 19,142.31 20,128.08 21,113.85 22,128.08 23,128.08 24,199.23 25,128.08 26,185 27,241.92 28,142.31 29,128.08 33,128.08 34,142.31 35,170.77 36,128.08 37,185 38,156.54 39,142.31 40,156.54 41,170.77 42,170.77 43,156.54 44,142.31 45,156.54 46,170.77 47,156.54 48,213.46 49,156.54 50,156.54 51,128.08 52,142.31 53,156.54 54,227.69 55,170.77 56,170.77 57,142.31 58,156.54 59,142.31 60,170.77 61,227.69 62,170.77 63,142.31 64,142.31 65,170.77 66,156.54 67,170.77 68,185 69,170.77 70,199.23 71,128.08 72,128.08 73,170.77 75,170.77 76,313.08 77,227.69 78,256.15 79,256.15 80,270.38 81,156.54 82,227.69 83,156.54 84,128.08 85,142.31 86,256.15 87,170.77 88,156.54 89,213.46 90,156.54 91,128.08 92,199.23 93,156.54 94,142.31 95,170.77 96,213.46 97,142.31 98,142.31 99,170.77 100,170.77 101,156.54 102,156.54 103,128.08 104,142.31 107,142.31 108,128.08 109,142.31 110,142.31 111,170.77 113,170.77 114,142.31 115,128.08 116,142.31 117,142.31 118,170.77 119,142.31 120,142.31 121,199.23 122,128.08 123,128.08 124,185 125,128.08 126,128.08 127,199.23 128,256.15 129,113.85 130,142.31 131,156.54 132,142.31 133,128.08 134,99.62 135,113.85 136,298.85 136.65,370"><title>LR761636.1</title></polygon><rect class="average" height="1" width="136.65" x="0" y="154.28"><title>average:15.16</title></rect><rect class="median" height="1" width="136.65" x="0" y="156.54"><title>median:15</title></rect><text class="chromName" x="68.33" y="-12">LR761636.1<title>LR761636.1 58,319,100 bp</title></text><rect class="frame" height="370" width="136.65" x="0" y="0"/></g><g id="chrom-LR761637.1" transform="translate(451.9485730949149,0)"><polygon class="cov1" points="0,370 0,355.77 1,256.15 2,298.85 3,298.85 4,227.69 5,170.77 6,170.77 7,241.92 8,170.77 9,270.38 10,298.85 11,113.85 12,256.15 14,256.15 15,156.54 16,213.46 17,128.08 18,284.62 19,298.85 20,227.69 21,142.31 22,142.31 23,170.77 24,313.08 25,156.54 26,128.08 27,213.46 28,199.23 29,241.92 30,241.92 31,128.08 32,142.31 33,170.77 34,113.85 35,170.77 36,256.15 37,284.62 38,142.31 40,142.31 41,270.38 42,227.69 43,256.15 44,313.08 45,199.23 46,142.31 49,142.31 50,199.23 51,156.54 52,113.85 53,185 54,128.08 55,156.54 56,170.77 57,241.92 58,284.62 59,313.08 60,313.08 61,227.69 62,156.54 63,156.54 64,142.31 65,156.54 66,156.54 67,170.77 68,199.23 69,142.31 70,170.77 71,156.54 72,185 73,142.31 74,185 75,170.77 76,142.31 77,156.54 78,156.54 79,185 80,170.77 81,170.77 82,142.31 83,156.54 84,156.54 85,128.08 86,227.69 87,156.54 88,128.08 89,142.31 90,128.08 91,142.31 92,128.08 93,213.46 94,199.23 95,199.23 96,185 97,128.08 98,99.62 99,113.85 100,213.46 101,256.15 102,270.38 103,298.85 104,270.38 105,170.77 106,99.62 109,99.62 110,85.38 111,142.31 112,128.08 113,99.62 114,270.38 115,185 116,170.77 117,170.77 118,128.08 119,298.85 120,170.77 121,99.62 122,341.54 123,341.54 124,298.85 124.49,370"><title>LR761637.1</title></polygon><rect class="average" height="1" width="124.49" x="0" y="172.35"><title>average:13.89</title></rect><rect class="median" height="1" width="124.49" x="0" y="185"><title>median:13</title></rect><text class="chromName" x="62.25" y="-12">LR761637.1<title>LR761637.1 53,127,865 bp</title></text><rect class="frame" height="370" width="124.49" x="0" y="0"/></g><g id="chrom-LR761638.1" transform="translate(577.4390778079033,0)"><polygon class="cov0" points="0,370 0,185 1,85.38 2,313.08 3,128.08 4,170.77 5,113.85 6,185 8,185 9,99.62 10,156.54 11,284.62 12,113.85 13,142.31 14,99.62 15,142.31 16,99.62 17,113.85 18,241.92 19,298.85 20,128.08 21,213.46 22,128.08 23,99.62 24,113.85 25,156.54 26,341.54 27,99.62 28,170.77 29,313.08 30,256.15 31,142.31 32,355.77 33,341.54 34,185 35,227.69 36,142.31 37,327.31 38,298.85 39,327.31 40,341.54 41,313.08 42,241.92 43,99.62 44,128.08 45,284.62 46,142.31 47,85.38 48,99.62 49,142.31 50,213.46 51,156.54 52,128.08 53,113.85 54,185 55,156.54 56,156.54 57,199.23 58,128.08 59,199.23 60,170.77 61,213.46 62,156.54 63,313.08 64,327.31 65,298.85 66,156.54 67,213.46 68,142.31 69,185 70,170.77 71,341.54 72,355.77 73,298.85 74,256.15 75,355.77 76,341.54 77,199.23 78,327.31 79,284.62 80,284.62 81,142.31 82,313.08 83,284.62 84,241.92 85,156.54 86,128.08 87,170.77 88,313.08 89,142.31 90,270.38 91,156.54 92,99.62 93,113.85 94,128.08 95,185 96,313.08 97,156.54 98,270.38 99,170.77 100,185 101,156.54 102,284.62 103,170.77 104,284.62 105,298.85 106,213.46 107,170.77 108,213.46 109,170.77 110,227.69 111,170.77 112,298.85 113,213.46 114,256.15 115,284.62 116,313.08 117,355.77 118,298.85 119,298.85 120,284.62 121,355.77 122,355.77 123,370 124,256.15 125,313.08 126,313.08 127,256.15 128,370 129,298.85 130,327.31 131,284.62 132,270.38 133,313.08 134,256.15 135,313.08 136,142.31 137,270.38 138,298.85 139,270.38 140,327.31 141,370 142,298.85 143,170.77 144,156.54 145,170.77 146,241.92 147,128.08 148,128.08 149,156.54 150,185 151,298.85 152,156.54 153,128.08 154,256.15 155,284.62 156,185 157,270.38 158,313.08 159,298.85 160,355.77 161,313.08 162,298.85 163,170.77 164,241.92 165,341.54 166,341.54 167,370 168,370 169,227.69 170,355.77 171,355.77 172,341.54 172.35,370"><title>LR761638.1</title></polygon><rect class="average" height="1" width="172.35" x="0" y="193.44"><title>average:12.41</title></rect><rect class="median" height="1" width="172.35" x="0" y="227.69"><title>median:10</title></rect><text class="chromName" x="86.17" y="-12">LR761638.1<title>LR761638.1 73,550,375 bp</title></text><rect class="frame" height="370" width="172.35" x="0" y="0"/></g><g id="chrom-LR761639.1" transform="translate(750.784104388203,0)"><polygon class="cov1" points="0,370 0,313.08 1,113.85 2,85.38 3,227.69 4,128.08 5,199.23 6,355.77 7,270.38 8,128.08 9,113.85 10,156.54 11,256.15 12,227.69 13,128.08 14,156.54 15,128.08 20,128.08 21,142.31 22,156.54 23,170.77 24,156.54 25,213.46 26,185 27,298.85 28,355.77 29,199.23 30,284.62 31,128.08 33,128.08 34,185 35,213.46 36,241.92 37,142.31 39,142.31 40,213.46 41,142.31 42,156.54 43,113.85 44,156.54 45,128.08 46,170.77 47,156.54 48,142.31 49,170.77 50,170.77 51,142.31 52,199.23 53,170.77 54,185 55,156.54 56,142.31 57,156.54 58,156.54 59,142.31 60,156.54 61,142.31 62,156.54 63,185 64,128.08 65,142.31 66,170.77 67,156.54 68,156.54 69,199.23 70,156.54 71,170.77 72,170.77 73,156.54 74,256.15 75,156.54 77,156.54 78,142.31 79,156.54 80,170.77 81,142.31 82,156.54 83,142.31 84,213.46 85,156.54 86,142.31 87,156.54 88,142.31 89,142.31 90,128.08 91,156.54 92,142.31 93,185 94,170.77 95,156.54 96,170.77 97,142.31 102,142.31 103,156.54 104,128.08 105,142.31 106,256.15 107,156.54 108,128.08 109,142.31 110,142.31 111,327.31 112,185 113,128.08 114,185 115,128.08 116,156.54 117,142.31 118,142.31 119,128.08 120,170.77 121,128.08 123,128.08 124,156.54 125,128.08 126,113.85 127,113.85 128,128.08 129,113.85 130,170.77 131,142.31 132,170.77 133,355.77 134,99.62 135,156.54 136,142.31 137,128.08 138,170.77 139,142.31 140,327.31 140.95,370"><title>LR761639.1</title></polygon><rect class="average" height="1" width="140.95" x="0" y="158.78"><title>average:14.84</title></rect><rect class="median" height="1" width="140.95" x="0" y="156.54"><title>median:15</title></rect><text class="chromName" x="70.47" y="-12">LR761639.1<title>LR761639.1 60,151,564 bp</title></text><rect class="frame" height="370" width="140.95" x="0" y="0"/></g><g id="chrom-LR761640.1" transform="translate(892.7327113317651,0)"><polygon class="cov0" points="0,370 0,156.54 1,99.62 2,185 3,156.54 4,156.54 5,113.85 6,170.77 7,185 8,99.62 9,170.77 10,113.85 11,128.08 12,113.85 13,256.15 14,156.54 15,142.31 16,213.46 17,156.54 18,128.08 19,213.46 20,142.31 22,142.31 23,128.08 24,142.31 25,170.77 26,128.08 27,142.31 28,170.77 29,142.31 30,156.54 31,156.54 32,142.31 33,156.54 34,170.77 35,156.54 36,156.54 37,213.46 38,128.08 39,170.77 40,128.08 41,128.08 42,113.85 43,128.08 44,128.08 45,156.54 46,156.54 47,256.15 48,327.31 49,128.08 50,170.77 51,142.31 52,128.08 53,156.54 54,128.08 55,142.31 56,142.31 57,227.69 58,156.54 59,185 60,256.15 61,156.54 62,156.54 63,199.23 64,142.31 65,284.62 66,156.54 68,156.54 69,199.23 70,199.23 71,142.31 72,185 73,199.23 74,185 75,156.54 76,156.54 77,241.92 78,156.54 79,185 80,128.08 82,128.08 83,156.54 84,142.31 85,128.08 86,298.85 87,170.77 88,170.77 89,185 90,170.77 91,341.54 92,298.85 93,199.23 94,256.15 95,170.77 96,156.54 97,156.54 98,170.77 99,156.54 100,128.08 101,213.46 102,284.62 103,199.23 104,142.31 105,128.08 106,142.31 107,185 108,185 109,142.31 110,170.77 111,213.46 112,156.54 113,156.54 114,185 115,142.31 116,270.38 117,341.54 118,355.77 119,298.85 120,156.54 121,128.08 122,142.31 123,142.31 124,156.54 125,142.31 127,142.31 128,270.38 129,170.77 130,142.31 131,142.31 132,170.77 133,142.31 134,113.85 135,128.08 136,142.31 138,142.31 139,185 140,156.54 141,128.08 142,142.31 143,227.69 144,142.31 145,113.85 145.53,370"><title>LR761640.1</title></polygon><rect class="average" height="1" width="145.53" x="0" y="164"><title>average:14.48</title></rect><rect class="median" height="1" width="145.53" x="0" y="156.54"><title>median:15</title></rect><text class="chromName" x="72.77" y="-12">LR761640.1<title>LR761640.1 62,107,823 bp</title></text><rect class="frame" height="370" width="145.53" x="0" y="0"/></g><g id="chrom-LR761641.1" transform="translate(1039.265271917344,0)"><polygon class="cov1" points="0,370 0,256.15 1,170.77 2,227.69 3,170.77 4,227.69 5,142.31 6,298.85 7,284.62 8,256.15 9,170.77 10,113.85 11,227.69 12,213.46 13,99.62 14,241.92 15,128.08 16,128.08 17,227.69 18,99.62 20,99.62 21,128.08 22,213.46 23,142.31 24,170.77 25,156.54 26,213.46 27,199.23 28,227.69 29,270.38 30,213.46 31,185 32,270.38 33,256.15 34,313.08 35,270.38 36,327.31 37,256.15 38,241.92 39,284.62 40,170.77 41,227.69 42,270.38 43,313.08 44,241.92 45,185 46,241.92 47,284.62 48,298.85 49,142.31 50,170.77 51,142.31 52,128.08 56,128.08 57,170.77 58,170.77 59,185 60,142.31 61,313.08 62,142.31 63,185 64,170.77 65,170.77 66,213.46 67,227.69 68,256.15 69,142.31 70,199.23 71,128.08 72,199.23 73,298.85 74,213.46 75,313.08 76,156.54 77,142.31 78,142.31 79,256.15 80,256.15 81,327.31 82,313.08 83,341.54 84,156.54 85,128.08 86,256.15 87,113.85 88,185 89,185 90,227.69 91,256.15 92,113.85 93,213.46 94,256.15 95,199.23 96,142.31 97,355.77 98,142.31 99,370 100,313.08 101,99.62 102,156.54 103,99.62 104,156.54 105,113.85 106,199.23 107,99.62 108,128.08 109,128.08 110,113.85 111,270.38 112,113.85 113,227.69 114,128.08 115,156.54 116,99.62 117,142.31 118,99.62 119,185 120,199.23 121,128.08 122,142.31 123,213.46 124,142.31 125,213.46 126,227.69 127,99.62 128,241.92 129,170.77 130,270.38 131,185 132,370 133,298.85 134,128.08 135,355.77 136,370 136.99,370"><title>LR761641.1</title></polygon><rect class="average" height="1" width="136.99" x="0" y="172.7"><title>average:13.86</title></rect><rect class="median" height="1" width="136.99" x="0" y="199.23"><title>median:12</title></rect><text class="chromName" x="68.5" y="-12">LR761641.1<title>LR761641.1 58,462,999 bp</title></text><rect class="frame" height="370" width="136.99" x="0" y="0"/></g><g id="chrom-LR761642.1" transform="translate(1177.25719230686,0)"><polygon class="cov0" points="0,370 0,298.85 1,327.31 2,327.31 3,256.15 4,298.85 5,327.31 6,327.31 7,313.08 8,327.31 9,284.62 10,298.85 11,256.15 12,227.69 13,113.85 14,185 15,142.31 16,256.15 17,170.77 18,227.69 19,156.54 20,185 21,128.08 22,227.69 23,185 24,156.54 25,113.85 26,156.54 27,199.23 28,256.15 29,142.31 30,213.46 31,128.08 32,156.54 33,241.92 34,142.31 35,298.85 36,142.31 37,170.77 38,128.08 39,170.77 40,142.31 41,170.77 42,142.31 43,142.31 44,156.54 45,241.92 46,142.31 47,256.15 48,270.38 49,298.85 50,199.23 51,185 52,213.46 53,113.85 54,113.85 55,199.23 56,156.54 57,199.23 58,227.69 59,142.31 60,142.31 61,341.54 62,213.46 63,156.54 64,170.77 65,156.54 66,156.54 67,327.31 68,227.69 69,156.54 70,142.31 71,185 72,128.08 73,199.23 74,128.08 75,199.23 76,284.62 77,128.08 78,128.08 79,213.46 80,213.46 81,170.77 82,298.85 83,256.15 84,270.38 85,156.54 86,313.08 86.91,370"><title>LR761642.1</title></polygon><rect class="average" height="1" width="86.91" x="0" y="167.85"><title>average:14.21</title></rect><rect class="median" height="1" width="86.91" x="0" y="199.23"><title>median:12</title></rect><text class="chromName" x="43.45" y="-12">LR761642.1<title>LR761642.1 37,089,910 bp</title></text><rect class="frame" height="370" width="86.91" x="0" y="0"/></g><g id="chrom-LR761643.1" transform="translate(1265.1671710093603,0)"><polygon class="cov1" points="0,370 0,341.54 1,256.15 2,142.31 3,113.85 4,142.31 5,227.69 6,170.77 7,156.54 8,142.31 9,128.08 10,128.08 11,170.77 12,128.08 13,170.77 14,241.92 15,142.31 16,128.08 17,156.54 18,142.31 19,170.77 20,327.31 21,156.54 22,128.08 23,128.08 24,185 25,170.77 26,355.77 27,327.31 28,241.92 29,142.31 30,227.69 31,170.77 32,213.46 33,142.31 34,142.31 35,227.69 36,227.69 37,142.31 38,156.54 39,142.31 40,156.54 41,170.77 42,199.23 43,284.62 44,170.77 45,185 46,156.54 47,270.38 48,185 49,156.54 50,199.23 51,156.54 52,156.54 53,185 54,185 55,156.54 56,142.31 57,142.31 58,156.54 60,156.54 61,142.31 62,185 63,170.77 64,170.77 65,199.23 66,170.77 68,170.77 69,156.54 70,170.77 71,241.92 72,199.23 73,241.92 74,142.31 75,213.46 76,156.54 77,142.31 78,199.23 79,284.62 80,142.31 81,142.31 82,156.54 83,156.54 84,142.31 85,142.31 86,156.54 87,128.08 88,185 89,341.54 90,185 91,142.31 92,128.08 93,156.54 94,128.08 95,170.77 96,128.08 97,142.31 98,142.31 99,128.08 100,142.31 101,241.92 102,156.54 103,156.54 104,170.77 105,156.54 106,142.31 107,128.08 108,156.54 109,128.08 110,128.08 111,142.31 112,142.31 113,227.69 114,170.77 115,156.54 116,128.08 117,128.08 118,142.31 119,170.77 120,128.08 123,128.08 124,142.31 125,128.08 126,113.85 127,185 128,128.08 129,113.85 130,156.54 131,185 132,113.85 133,213.46 134,270.38 134.83,370"><title>LR761643.1</title></polygon><rect class="average" height="1" width="134.83" x="0" y="166.42"><title>average:14.31</title></rect><rect class="median" height="1" width="134.83" x="0" y="156.54"><title>median:15</title></rect><text class="chromName" x="67.42" y="-12">LR761643.1<title>LR761643.1 57,541,580 bp</title></text><rect class="frame" height="370" width="134.83" x="0" y="0"/></g><g><line class="ruler" x1="-2" x2="1390" y1="333" y2="333"><title>2</title></line><text class="ruler" x="-5" y="333">2</text><line class="ruler" x1="-2" x2="1390" y1="296" y2="296"><title>5</title></line><text class="ruler" x="-5" y="296">5</text><line class="ruler" x1="-2" x2="1390" y1="259" y2="259"><title>7</title></line><text class="ruler" x="-5" y="259">7</text><line class="ruler" x1="-2" x2="1390" y1="222" y2="222"><title>10</title></line><text class="ruler" x="-5" y="222">10</text><line class="ruler" x1="-2" x2="1390" y1="185" y2="185"><title>13</title></line><text class="ruler" x="-5" y="185">13</text><line class="ruler" x1="-2" x2="1390" y1="148" y2="148"><title>15</title></line><text class="ruler" x="-5" y="148">15</text><line class="ruler" x1="-2" x2="1390" y1="111" y2="111"><title>18</title></line><text class="ruler" x="-5" y="111">18</text><line class="ruler" x1="-2" x2="1390" y1="74" y2="74"><title>20</title></line><text class="ruler" x="-5" y="74">20</text><line class="ruler" x1="-2" x2="1390" y1="37" y2="37"><title>23</title></line><text class="ruler" x="-5" y="37">23</text><line class="ruler" x1="-2" x2="1390" y1="0" y2="0"><title>26</title></line><text class="ruler" x="-5" y="0">26</text></g></g><text class="title" x="795" y="40">F10_M12_24.merged.realigned.bam F10_M12_24 F10_M12_24_1 F10_M12_24_2<title>./F10_M12_24.merged.realigned.bam</title></text><text class="xLabel" x="795" y="475">GCA_902806645.1_cgigas_uk_roslin_v1_genomic.fna  (589,358,857 bp)<title>../ref/GCA_902806645.1_cgigas_uk_roslin_v1_genomic.fna</title></text><text class="yLabel" transform="translate(25,265) rotate(90)" x="0" y="0">Coverage bp (median)</text></g></svg>