<?xml version="1.0" encoding="UTF-8" standalone="no"?><svg height="500" width="1500" xmlns="http://www.w3.org/2000/svg"><title>F10_M11_14.merged.realigned.bam</title><desc>Made with wgscoverageplotter undefined Author: Pierre Lindenbaum</desc><style>g.maing {stroke:black;stroke-width:0.5px;fill:none;}
text.title {stroke:none;fill:black;stroke-width:1px;text-anchor:middle;}
rect.frame {stroke:darkgray;fill:none;stroke-width:0.5px;}
text.ruler {stroke:none;fill:darkgray;stroke-width:1px;text-anchor:end;}
text.chromName {stroke:none;fill:darkgray;stroke-width:1px;text-anchor:middle;}
text.xLabel {stroke:none;fill:black;stroke-width:1px;text-anchor:middle;}
text.yLabel {stroke:none;fill:black;stroke-width:1px;text-anchor:middle;}
.cov0 {stroke:gray;fill:antiquewhite;stroke-width:0.5px;}
.cov1 {stroke:gray;fill:beige;stroke-width:0.5px;}
rect.average {stroke:green;fill:green;stroke-width:0.5px;opacity:0.3;}
rect.median {stroke:red;fill:red;stroke-width:0.5px;opacity:0.3;}
line.ruler {stroke:darkgray;stroke-dasharray:4;fill:none;stroke-width:1;}
</style><g class="maing"><g id="chromosomes" transform="translate(100.0,80.0)"><g id="chrom-LR761634.1" transform="translate(10.0,0)"><polygon class="cov0" points="0,370 0,264.29 1,132.14 2,158.57 3,303.93 4,237.86 5,185 6,277.5 7,185 8,145.36 9,145.36 10,158.57 11,132.14 12,145.36 13,185 14,237.86 15,145.36 16,132.14 17,224.64 18,145.36 19,145.36 20,132.14 21,145.36 22,158.57 23,171.79 24,158.57 25,132.14 26,132.14 27,145.36 28,145.36 29,132.14 30,145.36 31,145.36 32,264.29 33,145.36 34,145.36 35,158.57 36,132.14 37,198.21 38,198.21 39,145.36 40,132.14 41,145.36 42,145.36 43,185 44,171.79 45,224.64 46,198.21 47,158.57 51,158.57 52,145.36 53,158.57 54,198.21 55,224.64 56,132.14 57,132.14 58,145.36 59,158.57 60,158.57 61,132.14 62,158.57 63,185 64,198.21 65,171.79 66,158.57 67,185 68,145.36 69,185 70,145.36 71,132.14 72,224.64 73,185 74,158.57 75,145.36 76,145.36 77,198.21 78,171.79 79,158.57 80,264.29 81,264.29 82,132.14 83,145.36 84,158.57 85,145.36 86,132.14 87,211.43 88,132.14 89,277.5 90,171.79 91,145.36 92,145.36 93,171.79 94,118.93 95,145.36 96,132.14 97,198.21 98,277.5 99,132.14 100,145.36 101,158.57 102,145.36 103,171.79 104,198.21 105,132.14 106,198.21 107,185 108,264.29 109,118.93 110,118.93 111,158.57 112,132.14 113,198.21 114,264.29 115,198.21 116,118.93 117,132.14 118,105.71 119,171.79 120,224.64 121,132.14 123,132.14 124,158.57 125,118.93 126,132.14 127,145.36 128,198.21 129,158.57 130,198.21 130.72,370"><title>LR761634.1</title></polygon><rect class="average" height="1" width="130.72" x="0" y="162.86"><title>average:15.68</title></rect><rect class="median" height="1" width="130.72" x="0" y="158.57"><title>median:16</title></rect><text class="chromName" x="65.36" y="-12">LR761634.1<title>LR761634.1 55,785,328 bp</title></text><rect class="frame" height="370" width="130.72" x="0" y="0"/></g><g id="chrom-LR761635.1" transform="translate(141.71753661284166,0)"><polygon class="cov1" points="0,370 0,343.57 1,356.79 2,317.14 3,264.29 4,343.57 5,370 6,224.64 7,303.93 8,330.36 9,211.43 10,198.21 11,264.29 12,237.86 13,158.57 14,198.21 15,290.71 16,303.93 17,211.43 18,264.29 19,237.86 20,277.5 21,290.71 22,264.29 23,264.29 24,303.93 25,343.57 26,303.93 27,303.93 28,317.14 29,343.57 30,330.36 31,330.36 32,277.5 33,198.21 34,198.21 35,251.07 36,237.86 37,317.14 38,277.5 39,171.79 40,198.21 41,224.64 42,171.79 43,251.07 44,92.5 45,158.57 46,224.64 47,158.57 48,237.86 49,171.79 50,211.43 51,251.07 52,224.64 53,251.07 54,264.29 55,224.64 56,251.07 57,251.07 58,158.57 59,290.71 60,317.14 61,264.29 62,158.57 63,237.86 64,224.64 65,198.21 66,290.71 67,251.07 68,264.29 69,303.93 70,303.93 71,185 72,237.86 73,237.86 74,198.21 75,171.79 76,277.5 77,66.07 78,237.86 79,251.07 80,118.93 81,251.07 82,264.29 83,277.5 84,277.5 85,264.29 86,277.5 89,277.5 90,237.86 91,330.36 92,356.79 93,356.79 94,290.71 95,343.57 96,356.79 98,356.79 99,330.36 100,303.93 101,317.14 102,317.14 103,185 104,92.5 105,158.57 106,237.86 107,317.14 108,198.21 109,224.64 110,303.93 111,224.64 112,290.71 113,356.79 114,317.14 115,171.79 116,198.21 117,198.21 118,158.57 119,158.57 120,132.14 121,198.21 122,211.43 123,251.07 124,290.71 125,132.14 126,251.07 127,277.5 128,198.21 129,211.43 130,158.57 131,290.71 132,224.64 133,277.5 134,303.93 135,277.5 136,290.71 138,290.71 139,277.5 140,317.14 141,303.93 142,303.93 143,290.71 144,264.29 145,251.07 146,251.07 147,105.71 148,158.57 149,145.36 150,224.64 151,290.71 152,317.14 153,211.43 154,317.14 155,251.07 156,264.29 157,251.07 158,171.79 159,158.57 160,251.07 161,211.43 162,356.79 163,317.14 164,211.43 165,251.07 166,317.14 167,317.14 168,290.71 169,251.07 170,290.71 171,317.14 171.58,370"><title>LR761635.1</title></polygon><rect class="average" height="1" width="171.58" x="0" y="206"><title>average:12.41</title></rect><rect class="median" height="1" width="171.58" x="0" y="264.29"><title>median:8</title></rect><text class="chromName" x="85.79" y="-12">LR761635.1<title>LR761635.1 73,222,313 bp</title></text><rect class="frame" height="370" width="171.58" x="0" y="0"/></g><g id="chrom-LR761636.1" transform="translate(314.2938403401308,0)"><polygon class="cov0" points="0,370 0,330.36 1,158.57 2,290.71 3,317.14 4,224.64 5,132.14 6,132.14 7,158.57 8,132.14 9,145.36 10,118.93 11,132.14 12,145.36 13,198.21 14,118.93 15,145.36 16,132.14 17,132.14 18,171.79 19,145.36 20,132.14 21,145.36 22,132.14 23,132.14 24,198.21 25,132.14 26,198.21 27,277.5 28,145.36 29,118.93 30,145.36 31,132.14 33,132.14 34,158.57 35,185 36,145.36 37,185 38,158.57 39,158.57 40,171.79 41,171.79 42,185 43,171.79 44,145.36 45,171.79 46,185 47,158.57 48,237.86 49,171.79 50,171.79 51,132.14 52,145.36 53,158.57 54,264.29 55,185 56,171.79 57,145.36 58,171.79 59,145.36 60,171.79 61,198.21 62,185 63,158.57 64,158.57 65,171.79 66,158.57 67,158.57 68,171.79 69,158.57 70,211.43 71,118.93 72,132.14 73,171.79 74,171.79 75,158.57 76,317.14 77,224.64 78,237.86 79,264.29 80,264.29 81,145.36 82,224.64 83,158.57 84,132.14 85,158.57 86,277.5 87,158.57 88,145.36 89,198.21 90,158.57 91,132.14 92,198.21 93,171.79 94,145.36 95,185 96,185 97,145.36 98,145.36 99,171.79 100,185 101,145.36 102,158.57 103,132.14 104,145.36 106,145.36 107,158.57 108,145.36 110,145.36 111,171.79 113,171.79 114,145.36 115,132.14 116,145.36 117,158.57 118,185 119,145.36 120,145.36 121,198.21 122,145.36 123,145.36 124,198.21 125,145.36 126,132.14 127,198.21 128,264.29 129,132.14 130,145.36 131,158.57 132,171.79 133,145.36 134,132.14 135,145.36 136,264.29 136.65,370"><title>LR761636.1</title></polygon><rect class="average" height="1" width="136.65" x="0" y="164.15"><title>average:15.58</title></rect><rect class="median" height="1" width="136.65" x="0" y="158.57"><title>median:16</title></rect><text class="chromName" x="68.33" y="-12">LR761636.1<title>LR761636.1 58,319,100 bp</title></text><rect class="frame" height="370" width="136.65" x="0" y="0"/></g><g id="chrom-LR761637.1" transform="translate(451.9485730949149,0)"><polygon class="cov1" points="0,370 0,356.79 1,277.5 2,277.5 3,264.29 4,211.43 5,185 6,185 7,264.29 8,237.86 9,303.93 10,317.14 11,171.79 12,237.86 13,264.29 14,264.29 15,171.79 16,224.64 17,132.14 18,290.71 19,303.93 20,198.21 21,185 22,158.57 23,224.64 24,343.57 25,145.36 26,145.36 27,237.86 28,211.43 29,224.64 30,264.29 31,145.36 32,145.36 33,185 34,132.14 35,211.43 36,264.29 37,198.21 38,171.79 39,158.57 40,158.57 41,303.93 42,237.86 43,290.71 44,317.14 45,185 46,158.57 47,158.57 48,145.36 49,145.36 50,185 51,145.36 52,118.93 53,185 54,132.14 55,145.36 56,145.36 57,224.64 58,290.71 59,277.5 60,277.5 61,237.86 62,145.36 63,158.57 64,145.36 65,171.79 66,158.57 67,171.79 68,185 69,145.36 70,171.79 71,158.57 72,185 73,145.36 74,185 75,171.79 76,158.57 78,158.57 79,198.21 80,171.79 81,158.57 82,145.36 83,158.57 84,158.57 85,132.14 86,237.86 87,171.79 88,145.36 89,158.57 90,145.36 92,145.36 93,171.79 94,211.43 95,237.86 96,185 97,145.36 98,118.93 99,132.14 100,171.79 101,185 102,185 103,198.21 104,211.43 105,277.5 106,132.14 107,118.93 108,132.14 109,132.14 110,105.71 111,158.57 112,132.14 113,118.93 114,303.93 115,185 116,171.79 117,158.57 118,132.14 119,317.14 120,158.57 121,118.93 122,277.5 123,237.86 124,237.86 124.49,370"><title>LR761637.1</title></polygon><rect class="average" height="1" width="124.49" x="0" y="178.61"><title>average:14.48</title></rect><rect class="median" height="1" width="124.49" x="0" y="185"><title>median:14</title></rect><text class="chromName" x="62.25" y="-12">LR761637.1<title>LR761637.1 53,127,865 bp</title></text><rect class="frame" height="370" width="124.49" x="0" y="0"/></g><g id="chrom-LR761638.1" transform="translate(577.4390778079033,0)"><polygon class="cov0" points="0,370 0,224.64 1,185 2,317.14 3,132.14 4,211.43 5,145.36 6,211.43 7,198.21 8,198.21 9,132.14 10,171.79 11,290.71 12,132.14 13,171.79 14,132.14 15,171.79 16,145.36 17,145.36 18,264.29 19,303.93 20,145.36 21,185 22,145.36 23,145.36 24,132.14 25,171.79 26,343.57 27,132.14 28,185 29,264.29 30,224.64 31,158.57 32,370 33,356.79 34,198.21 35,237.86 36,171.79 37,290.71 38,290.71 39,277.5 40,303.93 41,317.14 42,264.29 43,145.36 44,158.57 45,303.93 46,171.79 47,105.71 48,132.14 49,224.64 50,317.14 51,237.86 52,198.21 53,171.79 54,264.29 55,224.64 56,158.57 57,237.86 58,158.57 59,198.21 60,237.86 61,224.64 62,171.79 63,317.14 64,317.14 65,290.71 66,224.64 67,198.21 68,171.79 69,277.5 70,171.79 71,303.93 72,343.57 73,303.93 74,251.07 75,317.14 76,330.36 77,185 78,330.36 79,330.36 80,290.71 81,185 82,290.71 83,343.57 84,317.14 85,224.64 86,171.79 87,185 88,317.14 89,132.14 90,277.5 91,158.57 92,118.93 93,132.14 94,158.57 95,224.64 96,303.93 97,171.79 98,317.14 99,264.29 100,211.43 101,171.79 102,264.29 103,185 104,317.14 105,303.93 106,251.07 107,171.79 108,224.64 109,185 110,211.43 111,185 112,303.93 113,251.07 115,251.07 116,303.93 117,343.57 118,290.71 119,290.71 120,277.5 121,343.57 122,343.57 123,356.79 124,290.71 125,317.14 126,290.71 127,251.07 128,356.79 129,264.29 130,317.14 131,290.71 132,290.71 133,343.57 134,303.93 135,317.14 136,171.79 137,370 138,356.79 139,290.71 140,370 141,356.79 142,330.36 143,290.71 144,171.79 145,198.21 146,264.29 147,145.36 148,171.79 149,158.57 150,185 151,290.71 152,171.79 153,158.57 154,237.86 155,290.71 156,198.21 157,251.07 158,290.71 159,303.93 160,303.93 161,264.29 162,290.71 163,237.86 164,264.29 165,356.79 166,343.57 167,356.79 168,303.93 169,237.86 170,343.57 171,303.93 172,330.36 172.35,370"><title>LR761638.1</title></polygon><rect class="average" height="1" width="172.35" x="0" y="212.68"><title>average:11.91</title></rect><rect class="median" height="1" width="172.35" x="0" y="251.07"><title>median:9</title></rect><text class="chromName" x="86.17" y="-12">LR761638.1<title>LR761638.1 73,550,375 bp</title></text><rect class="frame" height="370" width="172.35" x="0" y="0"/></g><g id="chrom-LR761639.1" transform="translate(750.784104388203,0)"><polygon class="cov1" points="0,370 0,317.14 1,158.57 2,145.36 3,251.07 4,132.14 5,224.64 6,303.93 7,264.29 8,145.36 9,145.36 10,158.57 11,277.5 12,224.64 13,132.14 14,171.79 15,145.36 18,145.36 19,132.14 20,132.14 21,145.36 22,158.57 23,171.79 24,185 25,224.64 26,198.21 27,303.93 28,343.57 29,264.29 30,330.36 31,145.36 32,145.36 33,132.14 34,211.43 35,198.21 36,251.07 37,145.36 39,145.36 40,211.43 41,145.36 42,158.57 43,118.93 44,158.57 45,132.14 46,171.79 47,158.57 48,145.36 49,171.79 50,171.79 51,145.36 52,211.43 53,171.79 54,171.79 55,158.57 56,145.36 57,158.57 58,158.57 59,145.36 60,158.57 61,132.14 62,132.14 63,171.79 64,132.14 65,145.36 66,171.79 67,158.57 68,145.36 69,185 70,158.57 71,171.79 72,171.79 73,158.57 74,237.86 75,145.36 76,158.57 77,158.57 78,145.36 79,158.57 80,185 81,145.36 82,145.36 83,171.79 84,224.64 85,158.57 86,145.36 87,158.57 88,145.36 89,145.36 90,132.14 91,158.57 92,145.36 93,185 94,171.79 95,145.36 98,145.36 99,158.57 103,158.57 104,132.14 105,145.36 106,264.29 107,158.57 108,132.14 109,145.36 110,145.36 111,317.14 112,185 113,132.14 114,185 115,132.14 116,171.79 117,145.36 118,145.36 119,132.14 120,171.79 121,145.36 122,145.36 123,132.14 124,171.79 125,145.36 126,132.14 127,132.14 128,145.36 129,132.14 130,171.79 131,158.57 132,171.79 133,343.57 134,118.93 135,171.79 136,145.36 137,171.79 138,185 139,171.79 140,290.71 140.95,370"><title>LR761639.1</title></polygon><rect class="average" height="1" width="140.95" x="0" y="166.58"><title>average:15.39</title></rect><rect class="median" height="1" width="140.95" x="0" y="158.57"><title>median:16</title></rect><text class="chromName" x="70.47" y="-12">LR761639.1<title>LR761639.1 60,151,564 bp</title></text><rect class="frame" height="370" width="140.95" x="0" y="0"/></g><g id="chrom-LR761640.1" transform="translate(892.7327113317651,0)"><polygon class="cov0" points="0,370 0,171.79 1,118.93 2,185 3,171.79 4,185 5,118.93 6,185 7,198.21 8,132.14 9,158.57 10,132.14 11,145.36 12,132.14 13,237.86 14,171.79 15,158.57 16,224.64 17,158.57 18,132.14 19,198.21 20,145.36 21,158.57 22,145.36 23,132.14 24,158.57 25,171.79 26,132.14 27,158.57 28,158.57 29,145.36 30,158.57 31,118.93 32,158.57 33,145.36 34,171.79 35,145.36 36,145.36 37,211.43 38,132.14 39,171.79 40,132.14 41,145.36 42,118.93 43,145.36 44,145.36 45,158.57 46,171.79 47,251.07 48,343.57 49,145.36 50,185 51,158.57 52,132.14 53,158.57 54,145.36 55,145.36 56,132.14 57,198.21 58,171.79 59,198.21 60,251.07 61,158.57 62,171.79 63,198.21 64,145.36 65,277.5 66,145.36 67,171.79 68,171.79 69,198.21 70,198.21 71,158.57 72,185 73,237.86 74,185 75,158.57 76,145.36 77,237.86 78,145.36 79,198.21 80,118.93 81,105.71 82,118.93 83,145.36 84,145.36 85,132.14 86,356.79 87,171.79 88,171.79 89,185 90,171.79 91,251.07 92,264.29 93,198.21 94,224.64 95,158.57 97,158.57 98,171.79 99,158.57 100,145.36 101,198.21 102,330.36 103,237.86 104,158.57 105,132.14 106,158.57 107,198.21 108,198.21 109,145.36 110,185 111,211.43 112,171.79 113,158.57 114,185 115,145.36 116,303.93 117,343.57 118,356.79 119,317.14 120,158.57 121,132.14 122,145.36 123,145.36 124,158.57 125,145.36 127,145.36 128,264.29 129,171.79 130,145.36 131,145.36 132,158.57 133,145.36 134,132.14 135,118.93 136,145.36 138,145.36 139,198.21 140,145.36 141,145.36 142,171.79 143,185 144,132.14 145,132.14 145.53,370"><title>LR761640.1</title></polygon><rect class="average" height="1" width="145.53" x="0" y="168.8"><title>average:15.23</title></rect><rect class="median" height="1" width="145.53" x="0" y="158.57"><title>median:16</title></rect><text class="chromName" x="72.77" y="-12">LR761640.1<title>LR761640.1 62,107,823 bp</title></text><rect class="frame" height="370" width="145.53" x="0" y="0"/></g><g id="chrom-LR761641.1" transform="translate(1039.265271917344,0)"><polygon class="cov1" points="0,370 0,290.71 1,158.57 2,264.29 3,198.21 4,198.21 5,224.64 6,277.5 7,224.64 8,237.86 9,198.21 10,145.36 11,237.86 12,237.86 13,145.36 14,211.43 15,158.57 16,132.14 17,290.71 18,132.14 19,132.14 20,145.36 21,171.79 22,224.64 23,171.79 24,158.57 25,158.57 26,237.86 27,237.86 28,211.43 29,303.93 30,237.86 31,211.43 32,290.71 33,251.07 34,277.5 35,264.29 36,330.36 37,264.29 39,264.29 40,198.21 41,251.07 42,290.71 43,330.36 44,224.64 45,224.64 46,277.5 47,237.86 48,237.86 49,158.57 50,198.21 51,158.57 52,145.36 53,132.14 56,132.14 57,171.79 58,198.21 59,185 60,145.36 61,224.64 62,158.57 63,185 64,211.43 65,158.57 66,224.64 67,224.64 68,264.29 69,171.79 70,277.5 71,118.93 72,198.21 73,303.93 74,224.64 75,303.93 76,198.21 77,198.21 78,158.57 79,211.43 80,290.71 81,343.57 82,343.57 83,330.36 84,198.21 85,171.79 86,277.5 87,118.93 88,224.64 89,185 90,303.93 91,198.21 92,132.14 93,237.86 94,330.36 95,224.64 96,224.64 97,303.93 98,132.14 99,370 100,303.93 101,145.36 102,171.79 103,132.14 104,198.21 105,132.14 106,277.5 107,145.36 110,145.36 111,290.71 112,145.36 113,237.86 114,145.36 115,145.36 116,118.93 117,185 118,132.14 119,211.43 120,224.64 121,171.79 122,171.79 123,237.86 124,158.57 125,224.64 126,264.29 127,132.14 128,251.07 129,158.57 130,277.5 131,224.64 132,330.36 133,277.5 134,132.14 135,356.79 136,303.93 136.99,370"><title>LR761641.1</title></polygon><rect class="average" height="1" width="136.99" x="0" y="188.65"><title>average:13.72</title></rect><rect class="median" height="1" width="136.99" x="0" y="211.43"><title>median:12</title></rect><text class="chromName" x="68.5" y="-12">LR761641.1<title>LR761641.1 58,462,999 bp</title></text><rect class="frame" height="370" width="136.99" x="0" y="0"/></g><g id="chrom-LR761642.1" transform="translate(1177.25719230686,0)"><polygon class="cov0" points="0,370 0,330.36 1,317.14 2,343.57 3,264.29 4,317.14 5,330.36 6,303.93 7,303.93 8,330.36 9,303.93 10,277.5 11,211.43 12,251.07 13,132.14 14,211.43 15,185 16,290.71 17,251.07 18,277.5 19,237.86 20,224.64 21,171.79 22,290.71 23,290.71 24,158.57 25,132.14 26,171.79 27,185 28,290.71 29,171.79 30,224.64 31,145.36 32,158.57 33,224.64 34,158.57 35,303.93 36,158.57 37,171.79 38,132.14 39,198.21 40,158.57 41,185 42,132.14 43,158.57 44,158.57 45,211.43 46,158.57 47,264.29 48,224.64 49,290.71 50,185 51,224.64 52,237.86 53,132.14 54,132.14 55,237.86 56,171.79 57,224.64 58,237.86 59,158.57 60,158.57 61,303.93 62,171.79 63,198.21 64,198.21 65,171.79 66,185 67,343.57 68,224.64 69,158.57 70,158.57 71,264.29 72,171.79 73,237.86 74,145.36 75,185 76,317.14 77,171.79 78,145.36 79,251.07 80,264.29 81,171.79 82,330.36 83,251.07 84,317.14 85,237.86 86,317.14 86.91,370"><title>LR761642.1</title></polygon><rect class="average" height="1" width="86.91" x="0" y="184.76"><title>average:14.02</title></rect><rect class="median" height="1" width="86.91" x="0" y="211.43"><title>median:12</title></rect><text class="chromName" x="43.45" y="-12">LR761642.1<title>LR761642.1 37,089,910 bp</title></text><rect class="frame" height="370" width="86.91" x="0" y="0"/></g><g id="chrom-LR761643.1" transform="translate(1265.1671710093603,0)"><polygon class="cov1" points="0,370 0,343.57 1,277.5 2,171.79 3,132.14 4,158.57 5,237.86 6,185 7,171.79 8,158.57 9,145.36 10,145.36 11,171.79 12,145.36 13,211.43 14,251.07 15,158.57 16,132.14 17,171.79 18,158.57 19,185 20,343.57 21,171.79 22,145.36 23,145.36 24,198.21 25,171.79 26,356.79 27,330.36 28,303.93 29,145.36 30,211.43 31,171.79 32,237.86 33,158.57 34,145.36 35,211.43 36,264.29 37,145.36 38,158.57 39,145.36 40,158.57 41,171.79 42,185 43,264.29 44,171.79 45,185 46,132.14 47,237.86 48,171.79 49,158.57 50,198.21 51,145.36 52,158.57 53,185 54,185 55,158.57 56,145.36 57,145.36 58,185 59,145.36 60,132.14 61,145.36 62,185 63,158.57 64,171.79 65,198.21 66,171.79 67,171.79 68,158.57 69,158.57 70,171.79 71,237.86 72,211.43 73,224.64 74,145.36 75,211.43 76,158.57 77,145.36 78,198.21 79,251.07 80,158.57 81,132.14 82,158.57 83,145.36 84,132.14 85,145.36 86,158.57 87,145.36 88,185 89,356.79 90,198.21 91,145.36 92,132.14 93,158.57 94,145.36 95,171.79 96,132.14 97,145.36 98,145.36 99,132.14 100,145.36 101,224.64 102,158.57 103,158.57 104,185 105,145.36 106,145.36 107,132.14 108,158.57 109,132.14 110,132.14 111,145.36 112,145.36 113,224.64 114,171.79 115,145.36 116,118.93 117,132.14 118,145.36 119,158.57 120,145.36 121,132.14 122,145.36 125,145.36 126,132.14 127,211.43 128,145.36 129,132.14 130,171.79 131,211.43 132,132.14 133,237.86 134,290.71 134.83,370"><title>LR761643.1</title></polygon><rect class="average" height="1" width="134.83" x="0" y="173.22"><title>average:14.89</title></rect><rect class="median" height="1" width="134.83" x="0" y="171.79"><title>median:15</title></rect><text class="chromName" x="67.42" y="-12">LR761643.1<title>LR761643.1 57,541,580 bp</title></text><rect class="frame" height="370" width="134.83" x="0" y="0"/></g><g><line class="ruler" x1="-2" x2="1390" y1="333" y2="333"><title>2</title></line><text class="ruler" x="-5" y="333">2</text><line class="ruler" x1="-2" x2="1390" y1="296" y2="296"><title>5</title></line><text class="ruler" x="-5" y="296">5</text><line class="ruler" x1="-2" x2="1390" y1="259" y2="259"><title>8</title></line><text class="ruler" x="-5" y="259">8</text><line class="ruler" x1="-2" x2="1390" y1="222" y2="222"><title>11</title></line><text class="ruler" x="-5" y="222">11</text><line class="ruler" x1="-2" x2="1390" y1="185" y2="185"><title>14</title></line><text class="ruler" x="-5" y="185">14</text><line class="ruler" x1="-2" x2="1390" y1="148" y2="148"><title>16</title></line><text class="ruler" x="-5" y="148">16</text><line class="ruler" x1="-2" x2="1390" y1="111" y2="111"><title>19</title></line><text class="ruler" x="-5" y="111">19</text><line class="ruler" x1="-2" x2="1390" y1="74" y2="74"><title>22</title></line><text class="ruler" x="-5" y="74">22</text><line class="ruler" x1="-2" x2="1390" y1="37" y2="37"><title>25</title></line><text class="ruler" x="-5" y="37">25</text><line class="ruler" x1="-2" x2="1390" y1="0" y2="0"><title>28</title></line><text class="ruler" x="-5" y="0">28</text></g></g><text class="title" x="795" y="40">F10_M11_14.merged.realigned.bam F10_M11_14 F10_M11_14_1 F10_M11_14_2<title>./F10_M11_14.merged.realigned.bam</title></text><text class="xLabel" x="795" y="475">GCA_902806645.1_cgigas_uk_roslin_v1_genomic.fna  (589,358,857 bp)<title>../ref/GCA_902806645.1_cgigas_uk_roslin_v1_genomic.fna</title></text><text class="yLabel" transform="translate(25,265) rotate(90)" x="0" y="0">Coverage bp (median)</text></g></svg>