<?xml version="1.0" encoding="UTF-8" standalone="no"?><svg height="500" width="1500" xmlns="http://www.w3.org/2000/svg"><title>F10_M11_24.merged.realigned.bam</title><desc>Made with wgscoverageplotter undefined Author: Pierre Lindenbaum</desc><style>g.maing {stroke:black;stroke-width:0.5px;fill:none;}
text.title {stroke:none;fill:black;stroke-width:1px;text-anchor:middle;}
rect.frame {stroke:darkgray;fill:none;stroke-width:0.5px;}
text.ruler {stroke:none;fill:darkgray;stroke-width:1px;text-anchor:end;}
text.chromName {stroke:none;fill:darkgray;stroke-width:1px;text-anchor:middle;}
text.xLabel {stroke:none;fill:black;stroke-width:1px;text-anchor:middle;}
text.yLabel {stroke:none;fill:black;stroke-width:1px;text-anchor:middle;}
.cov0 {stroke:gray;fill:antiquewhite;stroke-width:0.5px;}
.cov1 {stroke:gray;fill:beige;stroke-width:0.5px;}
rect.average {stroke:green;fill:green;stroke-width:0.5px;opacity:0.3;}
rect.median {stroke:red;fill:red;stroke-width:0.5px;opacity:0.3;}
line.ruler {stroke:darkgray;stroke-dasharray:4;fill:none;stroke-width:1;}
</style><g class="maing"><g id="chromosomes" transform="translate(100.0,80.0)"><g id="chrom-LR761634.1" transform="translate(10.0,0)"><polygon class="cov0" points="0,370 0,298.85 1,99.62 2,142.31 3,256.15 4,199.23 5,170.77 6,256.15 7,185 8,142.31 9,128.08 10,156.54 11,113.85 12,170.77 13,227.69 14,270.38 15,142.31 16,128.08 17,199.23 18,142.31 19,142.31 20,128.08 21,142.31 22,156.54 23,156.54 24,170.77 25,128.08 26,142.31 27,142.31 28,156.54 29,142.31 31,142.31 32,270.38 33,142.31 34,156.54 35,170.77 36,128.08 37,199.23 38,199.23 39,156.54 40,156.54 41,142.31 42,156.54 43,185 44,170.77 45,227.69 46,199.23 47,156.54 48,170.77 49,156.54 50,170.77 51,156.54 52,142.31 53,156.54 54,256.15 55,341.54 56,142.31 57,128.08 58,156.54 59,170.77 60,170.77 61,142.31 62,170.77 63,185 64,213.46 65,185 66,156.54 67,199.23 68,142.31 69,199.23 70,142.31 71,142.31 72,227.69 73,170.77 74,156.54 75,142.31 76,142.31 77,199.23 78,170.77 79,156.54 80,284.62 81,270.38 82,142.31 83,156.54 85,156.54 86,128.08 87,199.23 88,142.31 89,270.38 90,156.54 91,156.54 92,142.31 93,170.77 94,113.85 95,128.08 96,128.08 97,170.77 98,327.31 99,128.08 100,128.08 101,185 102,156.54 103,142.31 104,199.23 105,128.08 106,199.23 107,199.23 108,227.69 109,128.08 110,113.85 111,128.08 112,128.08 113,170.77 114,313.08 115,199.23 116,113.85 117,128.08 118,113.85 119,156.54 120,170.77 121,113.85 122,128.08 123,113.85 124,128.08 125,113.85 126,113.85 127,128.08 128,156.54 129,142.31 130,199.23 130.72,370"><title>LR761634.1</title></polygon><rect class="average" height="1" width="130.72" x="0" y="161.11"><title>average:14.68</title></rect><rect class="median" height="1" width="130.72" x="0" y="156.54"><title>median:15</title></rect><text class="chromName" x="65.36" y="-12">LR761634.1<title>LR761634.1 55,785,328 bp</title></text><rect class="frame" height="370" width="130.72" x="0" y="0"/></g><g id="chrom-LR761635.1" transform="translate(141.71753661284166,0)"><polygon class="cov1" points="0,370 0,341.54 1,355.77 2,327.31 3,227.69 4,341.54 5,327.31 6,241.92 7,298.85 8,298.85 9,156.54 10,170.77 11,256.15 12,170.77 13,142.31 14,241.92 15,298.85 16,313.08 17,227.69 18,284.62 19,241.92 20,284.62 21,270.38 22,256.15 23,270.38 24,355.77 25,327.31 26,313.08 27,355.77 28,284.62 29,355.77 30,327.31 31,327.31 32,241.92 33,185 34,213.46 35,256.15 36,241.92 37,298.85 38,341.54 39,170.77 40,199.23 41,256.15 42,156.54 43,185 44,128.08 45,185 46,185 47,142.31 48,298.85 49,170.77 50,227.69 51,313.08 52,227.69 53,213.46 54,256.15 55,270.38 56,313.08 57,284.62 58,170.77 59,298.85 60,370 61,270.38 62,128.08 63,284.62 64,313.08 65,270.38 66,284.62 67,241.92 68,199.23 69,298.85 70,284.62 71,156.54 72,241.92 73,185 74,241.92 75,199.23 76,341.54 77,0 78,227.69 79,298.85 80,142.31 81,270.38 82,298.85 83,313.08 84,298.85 85,313.08 86,341.54 87,341.54 88,327.31 89,370 90,270.38 91,341.54 92,313.08 93,270.38 94,256.15 95,270.38 96,313.08 97,270.38 98,327.31 99,284.62 100,270.38 101,313.08 102,298.85 103,213.46 104,199.23 105,170.77 106,241.92 107,313.08 108,185 109,199.23 110,256.15 111,185 112,327.31 113,313.08 114,313.08 115,327.31 116,298.85 117,284.62 118,170.77 119,170.77 120,128.08 121,213.46 122,241.92 123,241.92 124,270.38 125,142.31 126,227.69 127,241.92 128,156.54 129,256.15 130,185 131,256.15 132,213.46 133,327.31 134,313.08 135,284.62 136,327.31 137,313.08 138,313.08 139,284.62 140,341.54 141,298.85 142,284.62 143,313.08 144,270.38 145,213.46 146,256.15 147,142.31 148,156.54 149,128.08 150,213.46 151,270.38 152,327.31 153,227.69 154,284.62 155,256.15 156,284.62 157,270.38 158,199.23 159,142.31 160,227.69 161,199.23 162,241.92 163,227.69 164,213.46 165,270.38 166,313.08 167,327.31 168,284.62 169,270.38 170,284.62 171,313.08 171.58,370"><title>LR761635.1</title></polygon><rect class="average" height="1" width="171.58" x="0" y="203.43"><title>average:11.71</title></rect><rect class="median" height="1" width="171.58" x="0" y="270.38"><title>median:7</title></rect><text class="chromName" x="85.79" y="-12">LR761635.1<title>LR761635.1 73,222,313 bp</title></text><rect class="frame" height="370" width="171.58" x="0" y="0"/></g><g id="chrom-LR761636.1" transform="translate(314.2938403401308,0)"><polygon class="cov0" points="0,370 0,256.15 1,156.54 2,213.46 3,298.85 4,213.46 5,113.85 6,142.31 7,156.54 8,99.62 9,128.08 10,113.85 11,113.85 12,128.08 13,213.46 14,113.85 15,128.08 16,113.85 17,113.85 18,128.08 19,142.31 20,128.08 23,128.08 24,185 25,128.08 26,170.77 27,256.15 28,142.31 29,113.85 30,128.08 31,128.08 32,113.85 33,128.08 34,142.31 35,185 36,142.31 37,185 38,156.54 39,142.31 40,170.77 42,170.77 43,156.54 45,156.54 46,185 47,156.54 48,213.46 49,156.54 50,170.77 51,128.08 52,142.31 53,142.31 54,270.38 55,185 56,170.77 57,142.31 58,156.54 59,142.31 60,170.77 61,227.69 62,170.77 63,156.54 64,142.31 65,156.54 66,156.54 67,170.77 69,170.77 70,199.23 71,128.08 72,142.31 73,185 74,170.77 75,170.77 76,298.85 77,227.69 78,241.92 79,270.38 80,256.15 81,156.54 82,227.69 83,170.77 84,128.08 85,142.31 86,241.92 87,156.54 88,156.54 89,227.69 90,156.54 91,128.08 92,185 93,156.54 94,142.31 95,199.23 96,213.46 97,142.31 98,156.54 99,185 100,170.77 102,170.77 103,128.08 104,142.31 105,156.54 106,142.31 110,142.31 111,170.77 112,170.77 113,156.54 114,142.31 116,142.31 117,156.54 118,170.77 119,142.31 120,156.54 121,199.23 122,142.31 123,142.31 124,199.23 125,142.31 126,142.31 127,185 128,256.15 129,128.08 130,142.31 131,185 132,170.77 133,128.08 134,113.85 135,113.85 136,256.15 136.65,370"><title>LR761636.1</title></polygon><rect class="average" height="1" width="136.65" x="0" y="158.36"><title>average:14.87</title></rect><rect class="median" height="1" width="136.65" x="0" y="156.54"><title>median:15</title></rect><text class="chromName" x="68.33" y="-12">LR761636.1<title>LR761636.1 58,319,100 bp</title></text><rect class="frame" height="370" width="136.65" x="0" y="0"/></g><g id="chrom-LR761637.1" transform="translate(451.9485730949149,0)"><polygon class="cov1" points="0,370 0,355.77 1,241.92 2,270.38 3,227.69 4,213.46 5,170.77 6,213.46 7,256.15 8,199.23 9,298.85 10,313.08 11,128.08 12,241.92 13,256.15 14,270.38 15,170.77 16,199.23 17,142.31 18,284.62 19,298.85 20,241.92 21,170.77 22,156.54 23,213.46 24,298.85 25,185 26,128.08 27,213.46 28,227.69 29,241.92 30,270.38 31,156.54 32,142.31 33,156.54 34,113.85 35,185 36,284.62 37,327.31 38,156.54 39,156.54 40,142.31 41,241.92 42,199.23 43,256.15 44,298.85 45,227.69 46,156.54 47,142.31 49,142.31 50,199.23 51,156.54 52,113.85 53,185 54,128.08 55,156.54 56,185 57,241.92 58,284.62 59,313.08 60,313.08 61,227.69 62,156.54 63,156.54 64,142.31 65,170.77 67,170.77 68,199.23 69,142.31 70,170.77 71,170.77 72,199.23 73,156.54 74,185 75,170.77 76,156.54 77,170.77 78,170.77 79,199.23 80,170.77 81,170.77 82,142.31 83,156.54 84,170.77 85,142.31 86,227.69 87,170.77 88,128.08 89,156.54 90,142.31 91,142.31 92,128.08 93,185 94,185 95,213.46 96,185 97,128.08 98,99.62 99,113.85 100,170.77 101,213.46 102,199.23 103,241.92 104,227.69 105,213.46 106,113.85 107,99.62 108,99.62 109,113.85 110,85.38 111,142.31 112,113.85 113,113.85 114,270.38 115,185 116,156.54 117,170.77 118,128.08 119,313.08 120,142.31 121,113.85 122,270.38 123,270.38 124,213.46 124.49,370"><title>LR761637.1</title></polygon><rect class="average" height="1" width="124.49" x="0" y="174.09"><title>average:13.77</title></rect><rect class="median" height="1" width="124.49" x="0" y="185"><title>median:13</title></rect><text class="chromName" x="62.25" y="-12">LR761637.1<title>LR761637.1 53,127,865 bp</title></text><rect class="frame" height="370" width="124.49" x="0" y="0"/></g><g id="chrom-LR761638.1" transform="translate(577.4390778079033,0)"><polygon class="cov0" points="0,370 0,213.46 1,156.54 2,313.08 3,128.08 4,199.23 5,113.85 6,199.23 7,199.23 8,185 9,113.85 10,156.54 11,284.62 12,128.08 13,156.54 14,99.62 15,142.31 16,99.62 17,128.08 18,241.92 19,298.85 20,142.31 21,241.92 22,142.31 23,128.08 24,128.08 25,170.77 26,355.77 27,128.08 28,185 29,284.62 30,256.15 31,156.54 32,355.77 33,327.31 34,185 35,256.15 36,170.77 37,298.85 38,298.85 39,341.54 40,341.54 41,313.08 42,270.38 43,142.31 44,156.54 45,327.31 46,170.77 47,99.62 48,113.85 49,199.23 50,341.54 51,241.92 52,185 53,156.54 54,227.69 55,227.69 56,142.31 57,199.23 58,156.54 59,199.23 60,170.77 61,227.69 62,156.54 63,313.08 64,313.08 65,327.31 66,227.69 67,213.46 68,170.77 69,227.69 70,185 71,341.54 72,355.77 73,284.62 74,256.15 75,341.54 76,341.54 77,199.23 78,327.31 79,298.85 80,298.85 81,185 82,313.08 83,327.31 84,298.85 85,185 86,142.31 87,170.77 88,313.08 89,128.08 90,270.38 91,142.31 92,113.85 93,128.08 94,142.31 95,213.46 96,298.85 97,156.54 98,313.08 99,185 100,199.23 101,156.54 102,298.85 103,170.77 104,284.62 105,298.85 106,227.69 107,170.77 108,213.46 109,170.77 110,227.69 111,185 112,298.85 113,213.46 114,241.92 115,256.15 116,327.31 117,313.08 118,355.77 119,298.85 120,241.92 121,341.54 122,355.77 123,370 124,284.62 125,327.31 126,327.31 127,298.85 128,370 129,284.62 130,327.31 131,313.08 132,241.92 133,327.31 134,241.92 135,298.85 136,156.54 137,284.62 138,313.08 139,270.38 140,313.08 141,370 142,284.62 143,256.15 144,156.54 145,185 146,256.15 147,128.08 148,156.54 149,156.54 150,185 151,270.38 152,142.31 153,156.54 154,256.15 155,298.85 156,185 157,256.15 158,284.62 159,313.08 160,355.77 161,313.08 162,270.38 163,270.38 164,313.08 165,341.54 166,341.54 167,370 168,355.77 169,227.69 170,370 171,355.77 172,355.77 172.35,370"><title>LR761638.1</title></polygon><rect class="average" height="1" width="172.35" x="0" y="204.51"><title>average:11.63</title></rect><rect class="median" height="1" width="172.35" x="0" y="241.92"><title>median:9</title></rect><text class="chromName" x="86.17" y="-12">LR761638.1<title>LR761638.1 73,550,375 bp</title></text><rect class="frame" height="370" width="172.35" x="0" y="0"/></g><g id="chrom-LR761639.1" transform="translate(750.784104388203,0)"><polygon class="cov1" points="0,370 0,313.08 1,142.31 2,99.62 3,241.92 4,142.31 5,227.69 6,355.77 7,284.62 8,142.31 9,128.08 10,156.54 11,270.38 12,213.46 13,128.08 14,170.77 15,142.31 16,142.31 17,128.08 18,142.31 19,128.08 20,128.08 21,142.31 22,170.77 23,170.77 24,185 25,213.46 26,185 27,270.38 28,355.77 29,213.46 30,256.15 31,128.08 32,170.77 33,128.08 34,199.23 35,199.23 36,227.69 37,142.31 39,142.31 40,241.92 41,142.31 42,156.54 43,128.08 44,156.54 45,142.31 46,170.77 47,156.54 48,142.31 49,170.77 50,170.77 51,156.54 52,213.46 53,170.77 54,170.77 55,156.54 58,156.54 59,142.31 61,142.31 62,156.54 63,156.54 64,142.31 65,156.54 66,185 67,156.54 68,156.54 69,213.46 70,170.77 72,170.77 73,156.54 74,241.92 75,156.54 76,156.54 77,170.77 78,142.31 79,156.54 80,170.77 81,142.31 82,156.54 83,156.54 84,213.46 85,156.54 86,142.31 87,156.54 88,142.31 90,142.31 91,156.54 92,156.54 93,185 94,170.77 95,156.54 96,170.77 97,142.31 98,142.31 99,156.54 100,156.54 101,142.31 102,156.54 103,156.54 104,142.31 105,142.31 106,256.15 107,156.54 108,128.08 109,156.54 110,142.31 111,341.54 112,199.23 113,128.08 114,199.23 115,128.08 116,170.77 117,156.54 118,142.31 119,128.08 120,170.77 121,128.08 122,128.08 123,142.31 124,170.77 125,128.08 127,128.08 128,156.54 129,113.85 130,156.54 131,156.54 132,170.77 133,355.77 134,99.62 135,156.54 136,128.08 137,128.08 138,170.77 139,128.08 140,185 140.95,370"><title>LR761639.1</title></polygon><rect class="average" height="1" width="140.95" x="0" y="161.94"><title>average:14.62</title></rect><rect class="median" height="1" width="140.95" x="0" y="156.54"><title>median:15</title></rect><text class="chromName" x="70.47" y="-12">LR761639.1<title>LR761639.1 60,151,564 bp</title></text><rect class="frame" height="370" width="140.95" x="0" y="0"/></g><g id="chrom-LR761640.1" transform="translate(892.7327113317651,0)"><polygon class="cov0" points="0,370 0,170.77 1,99.62 2,199.23 3,156.54 4,156.54 5,113.85 6,199.23 7,185 8,128.08 9,170.77 10,128.08 11,128.08 12,113.85 13,256.15 14,170.77 15,142.31 16,227.69 17,156.54 18,142.31 19,227.69 20,142.31 21,156.54 22,142.31 23,128.08 24,156.54 25,170.77 26,142.31 27,156.54 32,156.54 33,142.31 34,170.77 35,156.54 36,156.54 37,213.46 38,142.31 39,185 40,142.31 41,142.31 42,113.85 43,142.31 44,142.31 45,170.77 46,142.31 47,270.38 48,313.08 49,142.31 50,185 51,156.54 52,142.31 53,156.54 54,128.08 55,142.31 56,142.31 57,227.69 58,156.54 59,199.23 60,256.15 61,142.31 62,170.77 63,199.23 64,142.31 65,284.62 66,156.54 67,170.77 68,156.54 69,199.23 70,199.23 71,156.54 72,170.77 73,199.23 74,185 75,170.77 76,156.54 77,241.92 78,156.54 79,185 80,142.31 81,128.08 82,128.08 83,156.54 85,156.54 86,313.08 87,170.77 88,185 89,185 90,170.77 91,341.54 92,270.38 93,213.46 94,241.92 95,185 96,156.54 97,156.54 98,170.77 99,170.77 100,142.31 101,170.77 102,327.31 103,241.92 104,156.54 105,142.31 106,142.31 107,185 108,227.69 109,142.31 110,170.77 111,213.46 112,170.77 113,156.54 114,185 115,142.31 116,298.85 117,341.54 118,355.77 119,298.85 120,156.54 121,128.08 122,142.31 126,142.31 127,156.54 128,284.62 129,170.77 130,156.54 131,142.31 132,156.54 133,142.31 134,128.08 135,142.31 136,156.54 137,142.31 138,142.31 139,185 140,142.31 141,128.08 142,156.54 143,227.69 144,128.08 145,113.85 145.53,370"><title>LR761640.1</title></polygon><rect class="average" height="1" width="145.53" x="0" y="168.49"><title>average:14.16</title></rect><rect class="median" height="1" width="145.53" x="0" y="170.77"><title>median:14</title></rect><text class="chromName" x="72.77" y="-12">LR761640.1<title>LR761640.1 62,107,823 bp</title></text><rect class="frame" height="370" width="145.53" x="0" y="0"/></g><g id="chrom-LR761641.1" transform="translate(1039.265271917344,0)"><polygon class="cov1" points="0,370 0,270.38 1,156.54 2,227.69 3,170.77 4,170.77 5,185 6,284.62 7,256.15 8,284.62 9,170.77 10,113.85 11,199.23 12,199.23 13,85.38 14,213.46 15,113.85 16,128.08 17,298.85 18,113.85 19,128.08 20,128.08 21,142.31 22,199.23 23,156.54 24,170.77 25,156.54 26,199.23 27,185 28,213.46 29,227.69 30,199.23 31,156.54 32,199.23 33,213.46 34,313.08 35,298.85 36,327.31 37,256.15 38,227.69 39,241.92 40,199.23 41,227.69 42,213.46 43,256.15 44,199.23 45,213.46 46,284.62 47,213.46 48,227.69 49,156.54 50,170.77 51,156.54 52,128.08 56,128.08 57,170.77 58,199.23 59,185 60,156.54 61,355.77 62,156.54 63,199.23 64,213.46 65,185 66,185 67,213.46 68,256.15 69,156.54 70,170.77 71,142.31 72,199.23 73,313.08 74,213.46 75,298.85 76,199.23 77,170.77 78,142.31 79,213.46 80,241.92 81,341.54 82,341.54 83,327.31 84,185 85,156.54 86,270.38 87,113.85 88,185 89,185 90,270.38 91,270.38 92,113.85 93,241.92 94,256.15 95,170.77 96,156.54 97,355.77 98,128.08 99,370 100,270.38 101,113.85 102,170.77 103,113.85 104,170.77 105,128.08 106,213.46 107,113.85 108,128.08 109,128.08 110,113.85 111,284.62 112,128.08 113,199.23 114,128.08 115,142.31 116,113.85 117,142.31 118,128.08 119,199.23 120,199.23 121,156.54 122,142.31 123,227.69 124,142.31 125,227.69 126,241.92 127,113.85 128,256.15 129,185 130,270.38 131,213.46 132,370 133,284.62 134,142.31 135,355.77 136,355.77 136.99,370"><title>LR761641.1</title></polygon><rect class="average" height="1" width="136.99" x="0" y="175.41"><title>average:13.67</title></rect><rect class="median" height="1" width="136.99" x="0" y="199.23"><title>median:12</title></rect><text class="chromName" x="68.5" y="-12">LR761641.1<title>LR761641.1 58,462,999 bp</title></text><rect class="frame" height="370" width="136.99" x="0" y="0"/></g><g id="chrom-LR761642.1" transform="translate(1177.25719230686,0)"><polygon class="cov0" points="0,370 0,313.08 1,355.77 2,341.54 3,256.15 4,298.85 5,327.31 6,327.31 7,313.08 8,284.62 9,298.85 10,298.85 11,270.38 12,256.15 13,113.85 14,199.23 15,199.23 16,270.38 17,241.92 18,284.62 19,227.69 20,199.23 21,156.54 22,284.62 23,256.15 24,170.77 25,128.08 26,142.31 27,156.54 28,213.46 29,142.31 30,185 31,142.31 32,156.54 33,213.46 34,156.54 35,284.62 36,142.31 37,156.54 38,128.08 39,170.77 40,142.31 41,185 42,142.31 43,156.54 44,156.54 45,227.69 46,156.54 47,256.15 48,298.85 49,298.85 50,199.23 51,185 52,199.23 53,128.08 54,128.08 55,199.23 56,156.54 57,213.46 58,227.69 59,142.31 60,142.31 61,313.08 62,213.46 63,142.31 64,199.23 65,156.54 66,156.54 67,313.08 68,241.92 69,156.54 70,142.31 71,241.92 72,128.08 73,213.46 74,142.31 75,199.23 76,284.62 77,142.31 78,128.08 79,241.92 80,227.69 81,170.77 82,298.85 83,241.92 84,284.62 85,199.23 86,313.08 86.91,370"><title>LR761642.1</title></polygon><rect class="average" height="1" width="86.91" x="0" y="173.42"><title>average:13.81</title></rect><rect class="median" height="1" width="86.91" x="0" y="199.23"><title>median:12</title></rect><text class="chromName" x="43.45" y="-12">LR761642.1<title>LR761642.1 37,089,910 bp</title></text><rect class="frame" height="370" width="86.91" x="0" y="0"/></g><g id="chrom-LR761643.1" transform="translate(1265.1671710093603,0)"><polygon class="cov1" points="0,370 0,341.54 1,256.15 2,142.31 3,113.85 4,156.54 5,213.46 6,170.77 7,185 8,156.54 9,128.08 10,128.08 11,170.77 12,142.31 13,199.23 14,241.92 15,156.54 16,128.08 17,170.77 18,156.54 19,185 20,341.54 21,170.77 22,128.08 23,142.31 24,170.77 25,170.77 26,355.77 27,341.54 28,298.85 29,142.31 30,213.46 31,170.77 32,227.69 33,156.54 34,128.08 35,213.46 36,256.15 37,142.31 38,156.54 39,142.31 40,170.77 41,170.77 42,199.23 43,284.62 44,170.77 45,185 46,156.54 47,256.15 48,170.77 49,170.77 50,185 51,156.54 52,156.54 53,170.77 54,185 55,156.54 56,142.31 57,156.54 58,185 59,156.54 60,142.31 61,142.31 62,185 63,156.54 64,170.77 65,213.46 66,170.77 68,170.77 69,156.54 70,170.77 71,256.15 72,213.46 73,227.69 74,142.31 75,227.69 76,156.54 77,142.31 78,199.23 79,284.62 80,156.54 81,142.31 82,170.77 83,156.54 84,128.08 85,142.31 86,156.54 87,142.31 88,185 89,355.77 90,185 91,142.31 92,142.31 93,156.54 94,142.31 95,170.77 96,142.31 99,142.31 100,156.54 101,256.15 102,156.54 103,156.54 104,170.77 105,156.54 106,142.31 107,142.31 108,170.77 109,142.31 110,128.08 111,142.31 112,142.31 113,227.69 114,170.77 115,156.54 116,128.08 118,128.08 119,170.77 120,142.31 121,128.08 123,128.08 124,142.31 125,128.08 126,113.85 127,185 128,128.08 129,113.85 130,170.77 131,199.23 132,113.85 133,241.92 134,298.85 134.83,370"><title>LR761643.1</title></polygon><rect class="average" height="1" width="134.83" x="0" y="170.8"><title>average:14</title></rect><rect class="median" height="1" width="134.83" x="0" y="170.77"><title>median:14</title></rect><text class="chromName" x="67.42" y="-12">LR761643.1<title>LR761643.1 57,541,580 bp</title></text><rect class="frame" height="370" width="134.83" x="0" y="0"/></g><g><line class="ruler" x1="-2" x2="1390" y1="333" y2="333"><title>2</title></line><text class="ruler" x="-5" y="333">2</text><line class="ruler" x1="-2" x2="1390" y1="296" y2="296"><title>5</title></line><text class="ruler" x="-5" y="296">5</text><line class="ruler" x1="-2" x2="1390" y1="259" y2="259"><title>7</title></line><text class="ruler" x="-5" y="259">7</text><line class="ruler" x1="-2" x2="1390" y1="222" y2="222"><title>10</title></line><text class="ruler" x="-5" y="222">10</text><line class="ruler" x1="-2" x2="1390" y1="185" y2="185"><title>13</title></line><text class="ruler" x="-5" y="185">13</text><line class="ruler" x1="-2" x2="1390" y1="148" y2="148"><title>15</title></line><text class="ruler" x="-5" y="148">15</text><line class="ruler" x1="-2" x2="1390" y1="111" y2="111"><title>18</title></line><text class="ruler" x="-5" y="111">18</text><line class="ruler" x1="-2" x2="1390" y1="74" y2="74"><title>20</title></line><text class="ruler" x="-5" y="74">20</text><line class="ruler" x1="-2" x2="1390" y1="37" y2="37"><title>23</title></line><text class="ruler" x="-5" y="37">23</text><line class="ruler" x1="-2" x2="1390" y1="0" y2="0"><title>26</title></line><text class="ruler" x="-5" y="0">26</text></g></g><text class="title" x="795" y="40">F10_M11_24.merged.realigned.bam F10_M11_24 F10_M11_24_1 F10_M11_24_2<title>./F10_M11_24.merged.realigned.bam</title></text><text class="xLabel" x="795" y="475">GCA_902806645.1_cgigas_uk_roslin_v1_genomic.fna  (589,358,857 bp)<title>../ref/GCA_902806645.1_cgigas_uk_roslin_v1_genomic.fna</title></text><text class="yLabel" transform="translate(25,265) rotate(90)" x="0" y="0">Coverage bp (median)</text></g></svg>