<?xml version="1.0" encoding="UTF-8" standalone="no"?><svg height="500" width="1500" xmlns="http://www.w3.org/2000/svg"><title>F10.realigned.bam</title><desc>Made with wgscoverageplotter undefined Author: Pierre Lindenbaum</desc><style>g.maing {stroke:black;stroke-width:0.5px;fill:none;}
text.title {stroke:none;fill:black;stroke-width:1px;text-anchor:middle;}
rect.frame {stroke:darkgray;fill:none;stroke-width:0.5px;}
text.ruler {stroke:none;fill:darkgray;stroke-width:1px;text-anchor:end;}
text.chromName {stroke:none;fill:darkgray;stroke-width:1px;text-anchor:middle;}
text.xLabel {stroke:none;fill:black;stroke-width:1px;text-anchor:middle;}
text.yLabel {stroke:none;fill:black;stroke-width:1px;text-anchor:middle;}
.cov0 {stroke:gray;fill:antiquewhite;stroke-width:0.5px;}
.cov1 {stroke:gray;fill:beige;stroke-width:0.5px;}
rect.average {stroke:green;fill:green;stroke-width:0.5px;opacity:0.3;}
rect.median {stroke:red;fill:red;stroke-width:0.5px;opacity:0.3;}
line.ruler {stroke:darkgray;stroke-dasharray:4;fill:none;stroke-width:1;}
</style><g class="maing"><g id="chromosomes" transform="translate(100.0,80.0)"><g id="chrom-LR761634.1" transform="translate(10.0,0)"><polygon class="cov0" points="0,370 0,339.17 1,154.17 2,185 3,308.33 4,215.83 5,215.83 6,277.5 7,215.83 8,185 9,154.17 10,185 11,123.33 12,185 13,215.83 14,277.5 15,154.17 16,154.17 17,185 18,154.17 22,154.17 23,185 24,185 25,123.33 31,123.33 32,277.5 33,123.33 34,123.33 35,154.17 36,123.33 37,185 38,185 39,154.17 40,123.33 42,123.33 43,185 44,154.17 45,215.83 46,185 47,154.17 51,154.17 52,123.33 53,154.17 54,277.5 55,339.17 56,123.33 57,92.5 58,123.33 59,154.17 60,154.17 61,123.33 62,154.17 63,185 64,215.83 65,185 66,154.17 67,185 68,123.33 69,185 70,154.17 71,123.33 72,215.83 73,185 74,154.17 75,123.33 76,123.33 77,185 78,185 79,154.17 80,246.67 81,246.67 82,123.33 83,154.17 84,154.17 85,123.33 86,123.33 87,185 88,123.33 89,246.67 90,185 91,154.17 92,154.17 93,185 94,123.33 95,154.17 96,123.33 97,185 98,339.17 99,154.17 101,154.17 102,185 103,154.17 104,215.83 105,123.33 106,246.67 107,215.83 108,277.5 109,123.33 110,123.33 111,154.17 112,154.17 113,185 114,339.17 115,215.83 116,123.33 118,123.33 119,185 120,215.83 121,154.17 122,123.33 123,123.33 124,154.17 127,154.17 128,185 129,185 130,215.83 130.72,370"><title>LR761634.1</title></polygon><rect class="average" height="1" width="130.72" x="0" y="155.7"><title>average:6.95</title></rect><rect class="median" height="1" width="130.72" x="0" y="154.17"><title>median:7</title></rect><text class="chromName" x="65.36" y="-12">LR761634.1<title>LR761634.1 55,785,328 bp</title></text><rect class="frame" height="370" width="130.72" x="0" y="0"/></g><g id="chrom-LR761635.1" transform="translate(141.71753661284166,0)"><polygon class="cov1" points="0,370 0,339.17 1,370 2,339.17 3,277.5 4,370 5,370 6,277.5 7,308.33 8,339.17 9,277.5 10,308.33 11,339.17 12,339.17 13,215.83 14,246.67 15,308.33 16,308.33 17,246.67 18,277.5 19,246.67 20,339.17 21,308.33 23,308.33 24,370 27,370 28,308.33 29,370 31,370 32,277.5 33,246.67 34,215.83 35,277.5 36,246.67 37,308.33 38,370 39,215.83 40,277.5 41,277.5 42,215.83 43,185 44,185 45,215.83 46,215.83 47,185 48,339.17 49,215.83 50,246.67 51,339.17 52,215.83 53,246.67 54,308.33 55,308.33 56,370 57,308.33 58,246.67 59,370 60,370 61,308.33 62,154.17 63,308.33 64,339.17 65,277.5 66,277.5 67,246.67 68,215.83 69,308.33 70,308.33 71,185 72,277.5 73,246.67 74,277.5 75,246.67 76,370 77,0 78,277.5 79,308.33 80,185 81,277.5 82,339.17 83,339.17 84,370 85,339.17 86,339.17 87,370 88,339.17 89,370 90,277.5 91,339.17 92,339.17 93,308.33 94,277.5 95,308.33 96,370 97,308.33 98,339.17 99,339.17 100,246.67 101,339.17 102,339.17 103,215.83 105,215.83 106,277.5 107,308.33 108,185 109,215.83 110,277.5 111,215.83 112,370 113,308.33 114,308.33 115,370 116,339.17 117,308.33 118,185 119,185 120,154.17 121,246.67 123,246.67 124,277.5 125,154.17 126,246.67 127,246.67 128,123.33 129,215.83 130,215.83 131,339.17 132,246.67 133,370 134,370 135,277.5 136,339.17 137,370 138,339.17 139,308.33 140,370 141,339.17 142,339.17 143,370 144,339.17 145,246.67 146,308.33 147,154.17 148,185 149,154.17 150,246.67 151,277.5 152,370 153,246.67 154,277.5 155,277.5 156,308.33 157,308.33 158,246.67 159,215.83 160,246.67 161,215.83 162,277.5 163,215.83 164,277.5 165,277.5 166,339.17 167,370 168,308.33 169,339.17 170,308.33 171,339.17 171.58,370"><title>LR761635.1</title></polygon><rect class="average" height="1" width="171.58" x="0" y="222.43"><title>average:4.79</title></rect><rect class="median" height="1" width="171.58" x="0" y="308.33"><title>median:2</title></rect><text class="chromName" x="85.79" y="-12">LR761635.1<title>LR761635.1 73,222,313 bp</title></text><rect class="frame" height="370" width="171.58" x="0" y="0"/></g><g id="chrom-LR761636.1" transform="translate(314.2938403401308,0)"><polygon class="cov0" points="0,370 0,339.17 1,154.17 2,246.67 3,308.33 4,246.67 5,154.17 6,185 7,185 8,123.33 9,185 10,154.17 12,154.17 13,246.67 14,123.33 15,154.17 16,154.17 17,123.33 18,154.17 19,185 20,154.17 23,154.17 24,215.83 25,123.33 26,215.83 27,246.67 28,123.33 31,123.33 32,92.5 33,123.33 34,154.17 35,185 36,123.33 37,185 38,154.17 39,123.33 40,154.17 45,154.17 46,185 47,154.17 48,246.67 49,123.33 50,154.17 51,123.33 52,154.17 53,154.17 54,246.67 55,185 56,185 57,123.33 58,154.17 60,154.17 61,215.83 62,154.17 63,154.17 64,123.33 65,154.17 67,154.17 68,185 69,185 70,246.67 71,123.33 72,123.33 73,154.17 75,154.17 76,308.33 77,246.67 78,246.67 79,277.5 80,277.5 81,154.17 82,215.83 83,154.17 84,123.33 85,154.17 86,246.67 87,154.17 88,154.17 89,246.67 90,154.17 91,123.33 92,185 93,185 94,154.17 95,185 96,215.83 97,154.17 98,154.17 99,185 100,154.17 101,185 102,185 103,123.33 104,154.17 105,123.33 106,154.17 107,123.33 110,123.33 111,154.17 113,154.17 114,123.33 117,123.33 118,185 119,123.33 120,123.33 121,185 122,123.33 123,123.33 124,185 125,123.33 126,123.33 127,185 128,215.83 129,154.17 130,154.17 131,215.83 132,185 133,154.17 135,154.17 136,308.33 136.65,370"><title>LR761636.1</title></polygon><rect class="average" height="1" width="136.65" x="0" y="152.43"><title>average:7.06</title></rect><rect class="median" height="1" width="136.65" x="0" y="154.17"><title>median:7</title></rect><text class="chromName" x="68.33" y="-12">LR761636.1<title>LR761636.1 58,319,100 bp</title></text><rect class="frame" height="370" width="136.65" x="0" y="0"/></g><g id="chrom-LR761637.1" transform="translate(451.9485730949149,0)"><polygon class="cov1" points="0,370 0,370 1,277.5 2,370 3,339.17 4,246.67 5,215.83 6,215.83 7,246.67 8,215.83 9,308.33 10,308.33 11,185 12,277.5 13,277.5 14,215.83 15,185 16,215.83 17,215.83 18,308.33 19,339.17 20,277.5 21,185 22,185 23,215.83 24,370 25,215.83 26,154.17 27,246.67 28,215.83 29,277.5 30,277.5 31,185 32,185 33,215.83 34,123.33 35,185 36,277.5 37,339.17 38,185 39,185 40,154.17 41,246.67 42,215.83 43,308.33 44,339.17 45,215.83 46,154.17 47,123.33 48,154.17 49,123.33 50,215.83 51,154.17 52,92.5 53,185 54,123.33 55,154.17 56,185 57,215.83 58,277.5 59,339.17 60,339.17 61,215.83 62,154.17 63,154.17 64,123.33 65,154.17 67,154.17 68,185 69,123.33 70,154.17 71,154.17 72,185 73,123.33 74,185 75,154.17 78,154.17 79,185 80,185 81,154.17 82,123.33 83,154.17 85,154.17 86,246.67 87,154.17 88,123.33 89,154.17 90,123.33 91,154.17 92,123.33 93,215.83 95,215.83 96,185 97,154.17 98,123.33 99,154.17 100,246.67 101,277.5 102,308.33 103,339.17 104,277.5 105,215.83 106,154.17 107,123.33 108,154.17 109,154.17 110,123.33 111,185 112,154.17 113,123.33 114,277.5 115,246.67 116,185 117,215.83 118,185 119,308.33 120,185 121,154.17 122,339.17 123,370 124,308.33 124.49,370"><title>LR761637.1</title></polygon><rect class="average" height="1" width="124.49" x="0" y="181.15"><title>average:6.12</title></rect><rect class="median" height="1" width="124.49" x="0" y="215.83"><title>median:5</title></rect><text class="chromName" x="62.25" y="-12">LR761637.1<title>LR761637.1 53,127,865 bp</title></text><rect class="frame" height="370" width="124.49" x="0" y="0"/></g><g id="chrom-LR761638.1" transform="translate(577.4390778079033,0)"><polygon class="cov0" points="0,370 0,277.5 1,215.83 2,308.33 3,154.17 4,215.83 5,154.17 6,215.83 7,215.83 8,246.67 9,154.17 10,215.83 11,308.33 12,154.17 14,154.17 15,185 16,123.33 17,154.17 18,246.67 19,308.33 20,185 21,246.67 22,154.17 23,123.33 24,154.17 25,185 26,370 27,123.33 28,215.83 29,339.17 30,277.5 31,154.17 32,370 33,339.17 34,215.83 35,277.5 36,185 37,308.33 38,339.17 39,339.17 40,370 41,308.33 42,308.33 43,154.17 44,185 45,339.17 46,215.83 47,123.33 48,154.17 49,246.67 50,370 51,277.5 52,215.83 53,185 54,277.5 55,246.67 56,185 57,246.67 58,215.83 60,215.83 61,246.67 62,185 63,339.17 65,339.17 66,215.83 67,215.83 68,185 70,185 71,370 72,370 73,308.33 74,277.5 75,370 76,370 77,246.67 78,370 79,370 80,339.17 81,185 82,339.17 83,370 84,339.17 85,215.83 86,185 87,185 88,339.17 89,154.17 90,246.67 91,185 92,123.33 93,123.33 94,154.17 95,246.67 96,308.33 97,185 98,339.17 99,215.83 101,215.83 102,277.5 103,215.83 104,339.17 105,308.33 106,246.67 107,185 108,246.67 109,215.83 110,246.67 111,185 112,308.33 113,215.83 114,277.5 115,308.33 116,339.17 117,370 118,370 119,277.5 120,277.5 121,370 123,370 124,308.33 125,339.17 126,339.17 127,308.33 128,370 129,308.33 130,339.17 131,339.17 132,277.5 133,308.33 134,246.67 135,308.33 136,185 137,246.67 138,277.5 139,277.5 140,339.17 141,370 142,308.33 143,246.67 144,215.83 145,185 146,215.83 147,185 148,185 149,215.83 150,215.83 151,277.5 152,185 153,185 154,308.33 155,308.33 156,215.83 157,277.5 158,339.17 159,308.33 160,370 161,370 162,308.33 163,246.67 164,339.17 165,370 168,370 169,246.67 170,370 172,370 172.35,370"><title>LR761638.1</title></polygon><rect class="average" height="1" width="172.35" x="0" y="217.22"><title>average:4.95</title></rect><rect class="median" height="1" width="172.35" x="0" y="277.5"><title>median:3</title></rect><text class="chromName" x="86.17" y="-12">LR761638.1<title>LR761638.1 73,550,375 bp</title></text><rect class="frame" height="370" width="172.35" x="0" y="0"/></g><g id="chrom-LR761639.1" transform="translate(750.784104388203,0)"><polygon class="cov1" points="0,370 0,308.33 1,185 2,123.33 3,215.83 4,185 5,246.67 6,370 7,246.67 8,154.17 9,154.17 10,185 11,246.67 12,277.5 13,154.17 16,154.17 17,123.33 21,123.33 22,154.17 23,185 24,185 25,215.83 26,185 27,339.17 28,370 29,185 30,277.5 31,123.33 32,185 33,123.33 34,215.83 35,215.83 36,246.67 37,154.17 38,123.33 39,154.17 40,215.83 41,123.33 42,154.17 43,123.33 44,154.17 45,123.33 46,154.17 47,154.17 48,123.33 49,154.17 50,154.17 51,123.33 52,215.83 53,154.17 54,185 55,123.33 56,123.33 57,154.17 58,123.33 60,123.33 61,92.5 62,123.33 63,154.17 64,123.33 65,123.33 66,154.17 68,154.17 69,185 70,154.17 71,123.33 72,154.17 73,123.33 74,277.5 75,123.33 76,123.33 77,154.17 78,123.33 79,123.33 80,154.17 81,123.33 83,123.33 84,185 85,154.17 86,123.33 90,123.33 91,154.17 92,154.17 93,185 94,154.17 96,154.17 97,123.33 100,123.33 101,154.17 102,123.33 105,123.33 106,246.67 107,154.17 108,92.5 109,123.33 110,123.33 111,339.17 112,215.83 113,123.33 114,185 115,123.33 116,154.17 117,123.33 119,123.33 120,185 121,123.33 122,123.33 123,154.17 124,185 125,154.17 127,154.17 128,185 129,154.17 130,185 131,185 132,215.83 133,370 134,154.17 135,215.83 136,185 138,185 139,215.83 140,339.17 140.95,370"><title>LR761639.1</title></polygon><rect class="average" height="1" width="140.95" x="0" y="150.64"><title>average:7.11</title></rect><rect class="median" height="1" width="140.95" x="0" y="154.17"><title>median:7</title></rect><text class="chromName" x="70.47" y="-12">LR761639.1<title>LR761639.1 60,151,564 bp</title></text><rect class="frame" height="370" width="140.95" x="0" y="0"/></g><g id="chrom-LR761640.1" transform="translate(892.7327113317651,0)"><polygon class="cov0" points="0,370 0,215.83 1,154.17 2,215.83 3,185 4,185 5,154.17 6,215.83 7,215.83 8,154.17 9,215.83 10,123.33 11,154.17 12,154.17 13,277.5 14,185 15,154.17 16,215.83 17,154.17 18,123.33 19,215.83 20,123.33 21,154.17 22,123.33 23,123.33 24,154.17 25,154.17 26,123.33 27,123.33 28,154.17 29,123.33 30,154.17 31,154.17 32,123.33 33,123.33 34,154.17 36,154.17 37,215.83 38,123.33 39,154.17 40,123.33 41,123.33 42,92.5 43,123.33 44,123.33 45,154.17 46,154.17 47,277.5 48,308.33 49,123.33 50,185 51,154.17 52,123.33 53,154.17 54,123.33 56,123.33 57,215.83 58,154.17 59,185 60,277.5 61,154.17 62,154.17 63,215.83 64,123.33 65,277.5 66,154.17 68,154.17 69,185 70,185 71,123.33 72,154.17 73,185 74,185 75,154.17 76,123.33 77,246.67 78,154.17 79,154.17 80,123.33 81,92.5 82,123.33 85,123.33 86,246.67 87,154.17 88,154.17 89,185 90,154.17 91,339.17 92,308.33 93,185 94,215.83 95,154.17 96,123.33 97,154.17 99,154.17 100,123.33 101,185 102,339.17 103,246.67 104,154.17 105,123.33 106,123.33 107,154.17 108,215.83 109,123.33 110,185 111,215.83 112,154.17 113,154.17 114,185 115,154.17 116,277.5 117,339.17 118,370 119,308.33 120,154.17 121,123.33 123,123.33 124,154.17 125,123.33 127,123.33 128,277.5 129,154.17 130,123.33 131,123.33 132,154.17 133,123.33 134,92.5 135,123.33 136,154.17 138,154.17 139,185 140,185 141,154.17 142,154.17 143,246.67 144,154.17 145,154.17 145.53,370"><title>LR761640.1</title></polygon><rect class="average" height="1" width="145.53" x="0" y="154.51"><title>average:6.99</title></rect><rect class="median" height="1" width="145.53" x="0" y="154.17"><title>median:7</title></rect><text class="chromName" x="72.77" y="-12">LR761640.1<title>LR761640.1 62,107,823 bp</title></text><rect class="frame" height="370" width="145.53" x="0" y="0"/></g><g id="chrom-LR761641.1" transform="translate(1039.265271917344,0)"><polygon class="cov1" points="0,370 0,277.5 1,185 2,277.5 3,215.83 4,246.67 5,185 6,308.33 8,308.33 9,215.83 10,154.17 11,246.67 12,215.83 13,154.17 14,277.5 15,154.17 16,154.17 17,246.67 18,123.33 19,123.33 20,154.17 21,154.17 22,246.67 23,185 24,215.83 25,185 26,246.67 27,215.83 28,246.67 29,277.5 30,246.67 31,215.83 32,308.33 33,308.33 34,339.17 35,277.5 36,339.17 37,277.5 38,277.5 39,308.33 40,215.83 41,246.67 42,246.67 43,339.17 44,246.67 45,215.83 46,246.67 47,277.5 48,308.33 49,154.17 50,185 51,185 52,154.17 54,154.17 55,123.33 56,123.33 57,185 58,185 59,215.83 60,154.17 61,370 62,154.17 63,215.83 64,185 65,185 66,215.83 67,215.83 68,277.5 69,185 70,246.67 71,154.17 72,215.83 73,308.33 74,215.83 75,308.33 76,185 77,185 78,154.17 79,277.5 80,277.5 81,339.17 82,370 83,339.17 84,215.83 85,185 86,277.5 87,154.17 88,215.83 89,215.83 90,246.67 91,277.5 92,154.17 93,215.83 94,246.67 95,215.83 96,185 97,370 98,185 99,370 100,308.33 101,154.17 102,215.83 103,154.17 104,185 105,154.17 106,246.67 107,154.17 110,154.17 111,308.33 112,154.17 113,277.5 114,185 115,215.83 116,154.17 117,185 118,154.17 119,246.67 120,246.67 121,185 122,185 123,246.67 124,185 125,246.67 126,246.67 127,154.17 128,277.5 129,215.83 130,308.33 131,215.83 132,370 133,308.33 134,185 135,370 136,370 136.99,370"><title>LR761641.1</title></polygon><rect class="average" height="1" width="136.99" x="0" y="190.19"><title>average:5.83</title></rect><rect class="median" height="1" width="136.99" x="0" y="215.83"><title>median:5</title></rect><text class="chromName" x="68.5" y="-12">LR761641.1<title>LR761641.1 58,462,999 bp</title></text><rect class="frame" height="370" width="136.99" x="0" y="0"/></g><g id="chrom-LR761642.1" transform="translate(1177.25719230686,0)"><polygon class="cov0" points="0,370 0,339.17 1,370 2,370 3,277.5 4,339.17 5,370 6,370 7,339.17 10,339.17 11,308.33 12,277.5 13,154.17 14,215.83 15,215.83 16,277.5 17,215.83 18,277.5 19,185 20,246.67 21,154.17 22,339.17 23,246.67 24,215.83 25,154.17 26,185 27,215.83 28,277.5 29,185 30,246.67 31,154.17 32,185 33,246.67 34,154.17 35,308.33 36,154.17 37,215.83 38,123.33 39,185 40,154.17 41,185 42,154.17 43,154.17 44,185 45,277.5 46,154.17 47,277.5 48,308.33 49,308.33 50,215.83 51,185 52,246.67 53,154.17 54,154.17 55,215.83 56,185 57,215.83 58,277.5 59,154.17 60,185 61,370 62,246.67 63,185 64,215.83 65,185 66,185 67,370 68,215.83 69,185 70,154.17 71,215.83 72,185 73,246.67 74,154.17 75,215.83 76,277.5 77,185 78,154.17 79,246.67 80,246.67 81,215.83 82,308.33 83,277.5 84,277.5 85,154.17 86,339.17 86.91,370"><title>LR761642.1</title></polygon><rect class="average" height="1" width="86.91" x="0" y="187.59"><title>average:5.92</title></rect><rect class="median" height="1" width="86.91" x="0" y="215.83"><title>median:5</title></rect><text class="chromName" x="43.45" y="-12">LR761642.1<title>LR761642.1 37,089,910 bp</title></text><rect class="frame" height="370" width="86.91" x="0" y="0"/></g><g id="chrom-LR761643.1" transform="translate(1265.1671710093603,0)"><polygon class="cov1" points="0,370 0,370 1,246.67 2,185 3,154.17 4,185 5,246.67 6,215.83 7,185 8,185 9,123.33 10,154.17 11,185 12,154.17 13,185 14,246.67 15,154.17 16,123.33 17,185 19,185 20,339.17 21,185 22,154.17 23,123.33 24,154.17 25,185 26,370 27,370 28,246.67 29,123.33 30,215.83 31,154.17 32,246.67 33,154.17 34,92.5 35,215.83 36,246.67 37,123.33 39,123.33 40,154.17 41,154.17 42,215.83 43,277.5 44,154.17 45,185 46,154.17 47,277.5 48,154.17 49,123.33 50,154.17 51,123.33 52,154.17 54,154.17 55,123.33 58,123.33 59,154.17 60,123.33 61,123.33 62,185 63,123.33 64,154.17 65,185 66,154.17 70,154.17 71,246.67 72,215.83 73,215.83 74,123.33 75,215.83 76,154.17 77,123.33 78,185 79,277.5 80,123.33 81,123.33 82,154.17 83,123.33 87,123.33 88,185 89,370 90,185 91,123.33 92,123.33 93,154.17 94,123.33 95,154.17 96,123.33 100,123.33 101,246.67 102,123.33 103,154.17 105,154.17 106,123.33 107,123.33 108,154.17 109,92.5 110,123.33 112,123.33 113,185 114,154.17 115,123.33 116,92.5 117,123.33 118,123.33 119,154.17 120,123.33 123,123.33 124,154.17 125,154.17 126,123.33 127,215.83 128,154.17 129,154.17 130,185 131,215.83 132,154.17 133,246.67 134,339.17 134.83,370"><title>LR761643.1</title></polygon><rect class="average" height="1" width="134.83" x="0" y="154.43"><title>average:6.99</title></rect><rect class="median" height="1" width="134.83" x="0" y="154.17"><title>median:7</title></rect><text class="chromName" x="67.42" y="-12">LR761643.1<title>LR761643.1 57,541,580 bp</title></text><rect class="frame" height="370" width="134.83" x="0" y="0"/></g><g><line class="ruler" x1="-2" x2="1390" y1="333" y2="333"><title>1</title></line><text class="ruler" x="-5" y="333">1</text><line class="ruler" x1="-2" x2="1390" y1="296" y2="296"><title>2</title></line><text class="ruler" x="-5" y="296">2</text><line class="ruler" x1="-2" x2="1390" y1="259" y2="259"><title>3</title></line><text class="ruler" x="-5" y="259">3</text><line class="ruler" x1="-2" x2="1390" y1="222" y2="222"><title>4</title></line><text class="ruler" x="-5" y="222">4</text><line class="ruler" x1="-2" x2="1390" y1="185" y2="185"><title>6</title></line><text class="ruler" x="-5" y="185">6</text><line class="ruler" x1="-2" x2="1390" y1="148" y2="148"><title>7</title></line><text class="ruler" x="-5" y="148">7</text><line class="ruler" x1="-2" x2="1390" y1="111" y2="111"><title>8</title></line><text class="ruler" x="-5" y="111">8</text><line class="ruler" x1="-2" x2="1390" y1="74" y2="74"><title>9</title></line><text class="ruler" x="-5" y="74">9</text><line class="ruler" x1="-2" x2="1390" y1="37" y2="37"><title>10</title></line><text class="ruler" x="-5" y="37">10</text><line class="ruler" x1="-2" x2="1390" y1="0" y2="0"><title>12</title></line><text class="ruler" x="-5" y="0">12</text></g></g><text class="title" x="795" y="40">F10.realigned.bam F10<title>./F10.realigned.bam</title></text><text class="xLabel" x="795" y="475">GCA_902806645.1_cgigas_uk_roslin_v1_genomic.fna  (589,358,857 bp)<title>../ref/GCA_902806645.1_cgigas_uk_roslin_v1_genomic.fna</title></text><text class="yLabel" transform="translate(25,265) rotate(90)" x="0" y="0">Coverage bp (median)</text></g></svg>