<?xml version="1.0" encoding="UTF-8" standalone="no"?><svg height="500" width="1500" xmlns="http://www.w3.org/2000/svg"><title>F10_M10_14.merged.realigned.bam</title><desc>Made with wgscoverageplotter undefined Author: Pierre Lindenbaum</desc><style>g.maing {stroke:black;stroke-width:0.5px;fill:none;}
text.title {stroke:none;fill:black;stroke-width:1px;text-anchor:middle;}
rect.frame {stroke:darkgray;fill:none;stroke-width:0.5px;}
text.ruler {stroke:none;fill:darkgray;stroke-width:1px;text-anchor:end;}
text.chromName {stroke:none;fill:darkgray;stroke-width:1px;text-anchor:middle;}
text.xLabel {stroke:none;fill:black;stroke-width:1px;text-anchor:middle;}
text.yLabel {stroke:none;fill:black;stroke-width:1px;text-anchor:middle;}
.cov0 {stroke:gray;fill:antiquewhite;stroke-width:0.5px;}
.cov1 {stroke:gray;fill:beige;stroke-width:0.5px;}
rect.average {stroke:green;fill:green;stroke-width:0.5px;opacity:0.3;}
rect.median {stroke:red;fill:red;stroke-width:0.5px;opacity:0.3;}
line.ruler {stroke:darkgray;stroke-dasharray:4;fill:none;stroke-width:1;}
</style><g class="maing"><g id="chromosomes" transform="translate(100.0,80.0)"><g id="chrom-LR761634.1" transform="translate(10.0,0)"><polygon class="cov0" points="0,370 0,317.14 1,145.36 2,158.57 3,290.71 4,171.79 5,185 6,290.71 7,198.21 8,158.57 9,132.14 10,171.79 11,118.93 12,158.57 13,198.21 14,237.86 15,132.14 16,132.14 17,198.21 18,132.14 19,132.14 20,118.93 21,132.14 22,145.36 23,158.57 24,185 25,118.93 26,132.14 27,132.14 28,145.36 29,132.14 30,132.14 31,145.36 32,264.29 33,132.14 34,145.36 35,158.57 36,118.93 37,198.21 38,185 39,132.14 42,132.14 43,185 44,158.57 45,198.21 46,198.21 47,145.36 51,145.36 52,132.14 53,145.36 54,185 55,198.21 56,118.93 57,118.93 58,132.14 59,145.36 60,158.57 61,132.14 62,158.57 63,171.79 64,224.64 65,171.79 66,158.57 67,185 68,132.14 69,211.43 70,145.36 71,132.14 72,251.07 73,185 74,145.36 75,132.14 76,145.36 77,185 78,185 79,132.14 80,277.5 81,277.5 82,132.14 83,145.36 84,158.57 85,145.36 86,118.93 87,198.21 88,132.14 89,277.5 90,158.57 91,158.57 92,132.14 93,171.79 94,118.93 95,132.14 96,118.93 97,171.79 98,277.5 99,132.14 100,132.14 101,158.57 102,132.14 103,171.79 104,198.21 105,118.93 106,198.21 107,158.57 108,290.71 109,118.93 110,118.93 111,132.14 112,132.14 113,198.21 114,224.64 115,198.21 116,118.93 118,118.93 119,158.57 120,224.64 121,132.14 122,145.36 123,118.93 124,145.36 125,105.71 126,132.14 127,145.36 128,198.21 129,185 130,251.07 130.72,370"><title>LR761634.1</title></polygon><rect class="average" height="1" width="130.72" x="0" y="157.28"><title>average:16.1</title></rect><rect class="median" height="1" width="130.72" x="0" y="158.57"><title>median:16</title></rect><text class="chromName" x="65.36" y="-12">LR761634.1<title>LR761634.1 55,785,328 bp</title></text><rect class="frame" height="370" width="130.72" x="0" y="0"/></g><g id="chrom-LR761635.1" transform="translate(141.71753661284166,0)"><polygon class="cov1" points="0,370 0,343.57 1,356.79 2,330.36 3,277.5 4,343.57 5,330.36 6,198.21 7,277.5 8,290.71 9,224.64 10,237.86 11,290.71 12,251.07 13,171.79 14,251.07 15,277.5 16,290.71 17,251.07 18,277.5 19,198.21 20,290.71 21,277.5 22,277.5 23,290.71 24,343.57 25,356.79 26,317.14 27,356.79 28,290.71 29,356.79 30,343.57 31,317.14 32,251.07 33,211.43 34,224.64 35,251.07 36,237.86 37,303.93 38,330.36 39,185 40,224.64 41,251.07 42,185 43,198.21 44,132.14 45,171.79 46,224.64 47,158.57 48,290.71 49,185 50,237.86 51,343.57 52,277.5 53,237.86 54,290.71 55,277.5 56,330.36 57,317.14 58,185 59,317.14 60,343.57 61,277.5 62,145.36 63,290.71 64,290.71 65,251.07 66,264.29 67,290.71 68,251.07 69,290.71 70,277.5 71,237.86 72,224.64 73,224.64 74,237.86 75,185 76,343.57 77,145.36 78,277.5 79,303.93 80,132.14 81,290.71 82,343.57 83,290.71 84,356.79 85,303.93 86,343.57 87,343.57 88,330.36 89,317.14 90,290.71 91,317.14 92,290.71 93,277.5 94,290.71 95,290.71 96,330.36 97,290.71 98,317.14 99,303.93 100,290.71 101,290.71 102,317.14 103,224.64 104,198.21 105,145.36 106,237.86 107,264.29 108,198.21 109,158.57 110,290.71 111,198.21 112,317.14 113,330.36 114,303.93 115,330.36 116,317.14 117,277.5 118,185 119,158.57 120,145.36 121,171.79 122,251.07 123,237.86 124,277.5 125,132.14 126,198.21 127,211.43 128,158.57 130,158.57 131,290.71 132,224.64 133,303.93 134,317.14 135,303.93 136,330.36 137,330.36 138,343.57 139,290.71 140,343.57 141,303.93 142,303.93 143,290.71 144,264.29 145,224.64 146,237.86 147,118.93 148,171.79 149,132.14 150,224.64 151,277.5 152,343.57 153,224.64 154,317.14 155,198.21 156,237.86 157,224.64 158,224.64 159,158.57 160,237.86 161,237.86 162,290.71 163,198.21 164,224.64 165,264.29 166,303.93 167,330.36 168,290.71 169,317.14 170,303.93 171,330.36 171.58,370"><title>LR761635.1</title></polygon><rect class="average" height="1" width="171.58" x="0" y="212.25"><title>average:11.94</title></rect><rect class="median" height="1" width="171.58" x="0" y="277.5"><title>median:7</title></rect><text class="chromName" x="85.79" y="-12">LR761635.1<title>LR761635.1 73,222,313 bp</title></text><rect class="frame" height="370" width="171.58" x="0" y="0"/></g><g id="chrom-LR761636.1" transform="translate(314.2938403401308,0)"><polygon class="cov0" points="0,370 0,343.57 1,132.14 2,251.07 3,303.93 4,224.64 5,132.14 6,132.14 7,145.36 8,118.93 9,145.36 10,118.93 11,132.14 12,145.36 13,237.86 14,105.71 15,145.36 16,118.93 17,118.93 18,145.36 19,158.57 20,132.14 23,132.14 24,198.21 25,132.14 26,224.64 27,264.29 28,132.14 29,118.93 30,132.14 31,118.93 32,118.93 33,132.14 34,145.36 35,224.64 36,145.36 37,185 38,145.36 39,145.36 40,158.57 43,158.57 44,132.14 45,158.57 46,171.79 47,158.57 48,224.64 49,158.57 50,171.79 51,132.14 52,145.36 53,145.36 54,251.07 55,171.79 56,158.57 57,132.14 58,171.79 59,132.14 60,171.79 61,224.64 62,171.79 63,145.36 64,132.14 65,158.57 67,158.57 68,171.79 69,158.57 70,171.79 71,118.93 72,118.93 73,171.79 74,171.79 75,158.57 76,303.93 77,224.64 78,237.86 79,264.29 80,277.5 81,145.36 82,224.64 83,145.36 84,132.14 85,145.36 86,277.5 87,158.57 88,145.36 89,198.21 90,145.36 91,132.14 92,185 93,145.36 94,132.14 95,171.79 96,224.64 97,132.14 98,145.36 99,171.79 100,145.36 101,132.14 102,158.57 103,118.93 104,145.36 106,145.36 107,132.14 110,132.14 111,158.57 112,158.57 113,171.79 114,132.14 116,132.14 117,145.36 118,171.79 119,132.14 120,145.36 121,264.29 122,132.14 123,132.14 124,185 125,118.93 126,118.93 127,211.43 128,237.86 129,118.93 130,145.36 131,145.36 132,158.57 133,158.57 134,132.14 135,132.14 136,303.93 136.65,370"><title>LR761636.1</title></polygon><rect class="average" height="1" width="136.65" x="0" y="158.22"><title>average:16.03</title></rect><rect class="median" height="1" width="136.65" x="0" y="158.57"><title>median:16</title></rect><text class="chromName" x="68.33" y="-12">LR761636.1<title>LR761636.1 58,319,100 bp</title></text><rect class="frame" height="370" width="136.65" x="0" y="0"/></g><g id="chrom-LR761637.1" transform="translate(451.9485730949149,0)"><polygon class="cov1" points="0,370 0,277.5 1,237.86 2,264.29 3,237.86 4,185 5,145.36 6,171.79 7,251.07 8,211.43 9,251.07 10,343.57 11,171.79 12,224.64 13,290.71 14,317.14 15,198.21 16,237.86 17,118.93 18,224.64 19,277.5 20,237.86 21,145.36 22,158.57 23,198.21 24,290.71 25,185 26,132.14 27,251.07 28,237.86 29,237.86 30,251.07 31,132.14 32,145.36 33,185 34,132.14 35,198.21 36,277.5 37,277.5 38,171.79 39,158.57 40,158.57 41,303.93 42,237.86 43,277.5 44,330.36 45,211.43 46,145.36 47,145.36 48,132.14 49,145.36 50,198.21 51,145.36 52,105.71 53,171.79 54,118.93 55,145.36 56,171.79 57,224.64 58,277.5 59,317.14 60,317.14 61,224.64 62,145.36 64,145.36 65,158.57 66,145.36 67,171.79 68,185 69,132.14 70,158.57 71,145.36 72,171.79 73,132.14 74,171.79 75,171.79 76,145.36 77,158.57 78,185 79,198.21 80,171.79 81,158.57 82,132.14 83,145.36 84,158.57 85,132.14 86,224.64 87,158.57 88,145.36 89,145.36 90,132.14 91,145.36 92,132.14 93,158.57 94,171.79 95,224.64 96,185 97,132.14 98,118.93 99,132.14 100,264.29 101,317.14 102,277.5 103,317.14 104,330.36 105,211.43 106,118.93 107,118.93 108,132.14 109,132.14 110,105.71 111,158.57 112,145.36 113,118.93 114,303.93 115,198.21 116,185 117,158.57 118,145.36 119,317.14 120,145.36 121,118.93 122,317.14 123,343.57 124,303.93 124.49,370"><title>LR761637.1</title></polygon><rect class="average" height="1" width="124.49" x="0" y="179.88"><title>average:14.39</title></rect><rect class="median" height="1" width="124.49" x="0" y="185"><title>median:14</title></rect><text class="chromName" x="62.25" y="-12">LR761637.1<title>LR761637.1 53,127,865 bp</title></text><rect class="frame" height="370" width="124.49" x="0" y="0"/></g><g id="chrom-LR761638.1" transform="translate(577.4390778079033,0)"><polygon class="cov0" points="0,370 0,198.21 1,158.57 2,237.86 3,132.14 4,277.5 5,145.36 6,198.21 8,198.21 9,132.14 10,145.36 11,251.07 12,132.14 13,171.79 14,118.93 15,158.57 16,105.71 17,118.93 18,264.29 19,317.14 20,158.57 21,237.86 22,145.36 23,132.14 24,132.14 25,158.57 26,303.93 27,132.14 28,185 29,277.5 30,237.86 31,145.36 32,356.79 33,343.57 34,185 35,237.86 36,158.57 37,290.71 38,224.64 39,277.5 40,303.93 41,330.36 42,251.07 43,158.57 44,158.57 45,290.71 46,185 47,105.71 48,132.14 49,264.29 50,356.79 51,264.29 52,171.79 53,171.79 54,251.07 55,251.07 56,145.36 57,237.86 58,145.36 59,185 60,185 61,211.43 62,158.57 63,303.93 64,343.57 65,330.36 66,198.21 67,198.21 68,171.79 69,290.71 70,185 71,330.36 72,356.79 73,290.71 74,277.5 75,343.57 76,317.14 77,211.43 78,370 79,356.79 80,303.93 81,198.21 82,317.14 83,330.36 84,290.71 85,185 86,132.14 87,171.79 88,317.14 89,158.57 90,277.5 91,158.57 92,118.93 93,132.14 94,145.36 95,224.64 96,317.14 97,145.36 98,290.71 99,211.43 100,198.21 101,185 102,277.5 103,185 104,317.14 105,330.36 106,237.86 107,185 108,211.43 109,198.21 110,237.86 111,198.21 112,303.93 113,264.29 114,277.5 115,290.71 116,290.71 117,303.93 118,330.36 119,277.5 120,264.29 121,356.79 122,356.79 123,370 124,317.14 125,303.93 126,330.36 127,264.29 128,370 129,264.29 130,330.36 131,317.14 132,277.5 133,330.36 134,251.07 135,290.71 136,171.79 137,303.93 138,317.14 139,277.5 140,343.57 141,370 142,290.71 143,264.29 144,171.79 145,171.79 146,224.64 147,132.14 148,158.57 149,158.57 150,171.79 151,264.29 152,171.79 153,145.36 154,251.07 155,277.5 156,198.21 157,251.07 158,303.93 159,224.64 160,251.07 161,237.86 162,237.86 163,198.21 164,330.36 165,343.57 166,356.79 167,370 168,303.93 169,224.64 170,356.79 171,343.57 172,343.57 172.35,370"><title>LR761638.1</title></polygon><rect class="average" height="1" width="172.35" x="0" y="209.37"><title>average:12.16</title></rect><rect class="median" height="1" width="172.35" x="0" y="251.07"><title>median:9</title></rect><text class="chromName" x="86.17" y="-12">LR761638.1<title>LR761638.1 73,550,375 bp</title></text><rect class="frame" height="370" width="172.35" x="0" y="0"/></g><g id="chrom-LR761639.1" transform="translate(750.784104388203,0)"><polygon class="cov1" points="0,370 0,290.71 1,132.14 2,118.93 3,224.64 4,132.14 5,224.64 6,277.5 7,211.43 8,145.36 9,132.14 10,145.36 11,290.71 12,224.64 13,118.93 14,158.57 15,132.14 17,132.14 18,145.36 19,132.14 20,118.93 21,132.14 22,158.57 23,158.57 24,185 26,185 27,317.14 28,303.93 29,198.21 30,303.93 31,132.14 32,145.36 33,132.14 34,185 35,198.21 36,185 37,132.14 38,132.14 39,145.36 40,198.21 41,132.14 42,145.36 43,118.93 44,145.36 45,132.14 46,158.57 47,145.36 48,132.14 49,171.79 50,158.57 51,132.14 52,185 53,158.57 54,171.79 55,145.36 58,145.36 59,132.14 60,145.36 61,132.14 62,158.57 63,198.21 64,132.14 65,132.14 66,171.79 67,145.36 68,145.36 69,185 70,145.36 71,145.36 72,158.57 73,145.36 74,224.64 75,132.14 76,145.36 77,158.57 78,132.14 79,145.36 80,171.79 81,132.14 82,145.36 83,132.14 84,211.43 85,145.36 86,132.14 87,145.36 88,132.14 89,132.14 90,118.93 91,145.36 92,132.14 93,171.79 94,158.57 95,132.14 97,132.14 98,118.93 99,132.14 100,145.36 101,132.14 102,118.93 103,145.36 104,118.93 105,132.14 106,251.07 107,145.36 108,132.14 110,132.14 111,317.14 112,171.79 113,118.93 114,185 115,118.93 116,145.36 117,132.14 118,132.14 119,118.93 120,158.57 121,132.14 123,132.14 124,158.57 125,132.14 127,132.14 128,145.36 129,132.14 130,185 131,145.36 132,171.79 133,343.57 134,118.93 135,158.57 136,158.57 137,145.36 138,198.21 139,185 140,317.14 140.95,370"><title>LR761639.1</title></polygon><rect class="average" height="1" width="140.95" x="0" y="155.91"><title>average:16.2</title></rect><rect class="median" height="1" width="140.95" x="0" y="158.57"><title>median:16</title></rect><text class="chromName" x="70.47" y="-12">LR761639.1<title>LR761639.1 60,151,564 bp</title></text><rect class="frame" height="370" width="140.95" x="0" y="0"/></g><g id="chrom-LR761640.1" transform="translate(892.7327113317651,0)"><polygon class="cov0" points="0,370 0,198.21 1,105.71 2,198.21 3,171.79 4,158.57 5,118.93 6,198.21 7,185 8,132.14 9,171.79 10,132.14 11,145.36 12,118.93 13,224.64 14,171.79 15,145.36 16,237.86 17,145.36 18,132.14 19,185 20,132.14 21,145.36 22,132.14 23,118.93 24,158.57 25,145.36 26,118.93 27,132.14 28,145.36 32,145.36 33,132.14 34,145.36 35,132.14 36,145.36 37,198.21 38,118.93 39,158.57 40,118.93 41,118.93 42,105.71 43,118.93 44,132.14 45,145.36 46,145.36 47,251.07 48,251.07 49,118.93 50,145.36 51,132.14 52,132.14 53,145.36 54,132.14 56,132.14 57,211.43 58,158.57 59,185 60,264.29 61,132.14 62,158.57 63,185 64,145.36 65,303.93 66,145.36 67,145.36 68,158.57 69,198.21 70,185 71,158.57 72,158.57 73,185 74,185 75,145.36 76,145.36 77,224.64 78,145.36 79,198.21 80,132.14 81,118.93 82,118.93 83,145.36 84,145.36 85,132.14 86,290.71 87,158.57 88,171.79 89,171.79 90,158.57 91,317.14 92,277.5 93,198.21 94,290.71 95,171.79 96,145.36 97,145.36 98,158.57 99,145.36 100,132.14 101,198.21 102,330.36 103,224.64 104,132.14 106,132.14 107,185 108,224.64 109,145.36 110,171.79 111,211.43 112,145.36 113,158.57 114,185 115,145.36 116,330.36 117,343.57 118,356.79 119,343.57 120,158.57 121,118.93 122,132.14 123,132.14 124,145.36 125,132.14 127,132.14 128,251.07 129,158.57 130,132.14 131,132.14 132,145.36 133,132.14 134,105.71 135,105.71 136,132.14 137,132.14 138,118.93 139,171.79 140,132.14 141,132.14 142,145.36 143,185 144,118.93 145,118.93 145.53,370"><title>LR761640.1</title></polygon><rect class="average" height="1" width="145.53" x="0" y="160.92"><title>average:15.82</title></rect><rect class="median" height="1" width="145.53" x="0" y="158.57"><title>median:16</title></rect><text class="chromName" x="72.77" y="-12">LR761640.1<title>LR761640.1 62,107,823 bp</title></text><rect class="frame" height="370" width="145.53" x="0" y="0"/></g><g id="chrom-LR761641.1" transform="translate(1039.265271917344,0)"><polygon class="cov1" points="0,370 0,303.93 1,171.79 2,224.64 3,211.43 4,105.71 5,171.79 6,330.36 7,277.5 8,198.21 9,158.57 10,118.93 11,237.86 12,237.86 13,132.14 14,237.86 15,132.14 16,132.14 17,264.29 18,118.93 19,132.14 20,132.14 21,145.36 22,198.21 23,158.57 24,185 25,171.79 26,237.86 27,185 28,211.43 29,264.29 30,224.64 31,211.43 32,277.5 33,224.64 34,277.5 35,277.5 36,343.57 37,277.5 38,277.5 39,290.71 40,198.21 41,317.14 42,317.14 43,343.57 44,251.07 45,237.86 46,251.07 47,277.5 48,290.71 49,145.36 50,198.21 51,158.57 52,118.93 53,132.14 54,132.14 55,118.93 56,132.14 57,171.79 59,171.79 60,158.57 61,237.86 62,145.36 63,198.21 64,171.79 65,171.79 66,211.43 67,224.64 68,264.29 69,185 70,211.43 71,118.93 72,185 73,317.14 74,211.43 75,277.5 76,198.21 77,211.43 78,171.79 79,211.43 80,290.71 81,343.57 82,343.57 83,330.36 84,185 85,145.36 86,224.64 87,118.93 88,198.21 89,185 90,277.5 91,251.07 92,145.36 93,251.07 94,290.71 95,224.64 96,171.79 97,303.93 98,132.14 99,370 100,237.86 101,118.93 102,158.57 103,118.93 104,171.79 105,132.14 106,251.07 107,132.14 108,145.36 109,145.36 110,132.14 111,303.93 112,118.93 113,251.07 114,158.57 115,171.79 116,118.93 117,158.57 118,132.14 119,211.43 120,224.64 121,185 122,171.79 123,237.86 124,145.36 125,251.07 126,251.07 127,118.93 128,251.07 129,158.57 130,290.71 131,198.21 132,356.79 133,277.5 134,132.14 135,356.79 136,356.79 136.99,370"><title>LR761641.1</title></polygon><rect class="average" height="1" width="136.99" x="0" y="185.9"><title>average:13.93</title></rect><rect class="median" height="1" width="136.99" x="0" y="211.43"><title>median:12</title></rect><text class="chromName" x="68.5" y="-12">LR761641.1<title>LR761641.1 58,462,999 bp</title></text><rect class="frame" height="370" width="136.99" x="0" y="0"/></g><g id="chrom-LR761642.1" transform="translate(1177.25719230686,0)"><polygon class="cov0" points="0,370 0,290.71 1,264.29 2,264.29 3,290.71 4,343.57 5,356.79 6,330.36 7,330.36 8,317.14 9,303.93 10,277.5 11,251.07 12,251.07 13,132.14 14,198.21 15,145.36 16,264.29 17,211.43 18,290.71 19,237.86 20,211.43 21,171.79 22,303.93 23,251.07 24,158.57 25,132.14 26,171.79 27,198.21 28,303.93 29,171.79 30,224.64 31,132.14 32,158.57 33,211.43 34,171.79 35,317.14 36,145.36 37,158.57 38,132.14 39,185 40,158.57 41,171.79 42,132.14 43,158.57 44,145.36 45,224.64 46,145.36 47,264.29 48,251.07 49,290.71 50,185 51,224.64 52,224.64 53,132.14 54,132.14 55,224.64 56,171.79 57,211.43 58,251.07 59,171.79 60,158.57 61,343.57 62,198.21 63,171.79 64,211.43 65,185 66,185 67,330.36 68,277.5 69,145.36 70,118.93 71,224.64 72,145.36 73,211.43 74,145.36 75,185 76,317.14 77,145.36 78,145.36 79,237.86 80,251.07 81,171.79 82,330.36 83,251.07 84,317.14 85,251.07 86,317.14 86.91,370"><title>LR761642.1</title></polygon><rect class="average" height="1" width="86.91" x="0" y="183.13"><title>average:14.14</title></rect><rect class="median" height="1" width="86.91" x="0" y="211.43"><title>median:12</title></rect><text class="chromName" x="43.45" y="-12">LR761642.1<title>LR761642.1 37,089,910 bp</title></text><rect class="frame" height="370" width="86.91" x="0" y="0"/></g><g id="chrom-LR761643.1" transform="translate(1265.1671710093603,0)"><polygon class="cov1" points="0,370 0,330.36 1,277.5 2,171.79 3,118.93 4,145.36 5,237.86 6,171.79 7,171.79 8,145.36 9,132.14 10,145.36 11,185 12,132.14 13,158.57 14,237.86 15,158.57 16,118.93 17,145.36 18,158.57 19,171.79 20,343.57 21,158.57 22,132.14 23,132.14 24,185 25,171.79 26,317.14 27,290.71 28,277.5 29,132.14 30,211.43 31,158.57 32,224.64 33,145.36 34,185 35,211.43 36,237.86 37,132.14 38,145.36 39,132.14 40,158.57 41,171.79 42,185 43,277.5 44,158.57 45,171.79 46,132.14 47,224.64 48,171.79 49,145.36 50,158.57 51,132.14 52,145.36 53,145.36 54,171.79 55,145.36 56,132.14 57,132.14 58,171.79 59,145.36 60,118.93 61,145.36 62,171.79 63,145.36 64,158.57 65,198.21 66,158.57 68,158.57 69,145.36 70,158.57 71,237.86 72,198.21 73,198.21 74,132.14 75,224.64 76,145.36 77,132.14 78,224.64 79,251.07 80,132.14 81,132.14 82,145.36 83,145.36 84,132.14 85,132.14 86,145.36 87,132.14 88,171.79 89,343.57 90,198.21 91,132.14 92,132.14 93,145.36 94,118.93 95,158.57 96,132.14 97,132.14 98,118.93 99,132.14 100,132.14 101,237.86 102,145.36 103,145.36 104,158.57 105,145.36 106,132.14 107,118.93 108,145.36 109,118.93 110,132.14 111,118.93 112,132.14 113,198.21 114,145.36 115,132.14 116,105.71 117,118.93 118,118.93 119,158.57 120,118.93 123,118.93 124,145.36 125,132.14 126,118.93 127,158.57 128,158.57 129,118.93 130,158.57 131,198.21 132,132.14 133,198.21 134,264.29 134.83,370"><title>LR761643.1</title></polygon><rect class="average" height="1" width="134.83" x="0" y="162.11"><title>average:15.73</title></rect><rect class="median" height="1" width="134.83" x="0" y="158.57"><title>median:16</title></rect><text class="chromName" x="67.42" y="-12">LR761643.1<title>LR761643.1 57,541,580 bp</title></text><rect class="frame" height="370" width="134.83" x="0" y="0"/></g><g><line class="ruler" x1="-2" x2="1390" y1="333" y2="333"><title>2</title></line><text class="ruler" x="-5" y="333">2</text><line class="ruler" x1="-2" x2="1390" y1="296" y2="296"><title>5</title></line><text class="ruler" x="-5" y="296">5</text><line class="ruler" x1="-2" x2="1390" y1="259" y2="259"><title>8</title></line><text class="ruler" x="-5" y="259">8</text><line class="ruler" x1="-2" x2="1390" y1="222" y2="222"><title>11</title></line><text class="ruler" x="-5" y="222">11</text><line class="ruler" x1="-2" x2="1390" y1="185" y2="185"><title>14</title></line><text class="ruler" x="-5" y="185">14</text><line class="ruler" x1="-2" x2="1390" y1="148" y2="148"><title>16</title></line><text class="ruler" x="-5" y="148">16</text><line class="ruler" x1="-2" x2="1390" y1="111" y2="111"><title>19</title></line><text class="ruler" x="-5" y="111">19</text><line class="ruler" x1="-2" x2="1390" y1="74" y2="74"><title>22</title></line><text class="ruler" x="-5" y="74">22</text><line class="ruler" x1="-2" x2="1390" y1="37" y2="37"><title>25</title></line><text class="ruler" x="-5" y="37">25</text><line class="ruler" x1="-2" x2="1390" y1="0" y2="0"><title>28</title></line><text class="ruler" x="-5" y="0">28</text></g></g><text class="title" x="795" y="40">F10_M10_14.merged.realigned.bam F10_M10_14 F10_M10_14_1 F10_M10_14_2<title>./F10_M10_14.merged.realigned.bam</title></text><text class="xLabel" x="795" y="475">GCA_902806645.1_cgigas_uk_roslin_v1_genomic.fna  (589,358,857 bp)<title>../ref/GCA_902806645.1_cgigas_uk_roslin_v1_genomic.fna</title></text><text class="yLabel" transform="translate(25,265) rotate(90)" x="0" y="0">Coverage bp (median)</text></g></svg>