<?xml version="1.0" encoding="UTF-8" standalone="no"?><svg height="500" width="1500" xmlns="http://www.w3.org/2000/svg"><title>F10_M10_24.merged.realigned.bam</title><desc>Made with wgscoverageplotter undefined Author: Pierre Lindenbaum</desc><style>g.maing {stroke:black;stroke-width:0.5px;fill:none;}
text.title {stroke:none;fill:black;stroke-width:1px;text-anchor:middle;}
rect.frame {stroke:darkgray;fill:none;stroke-width:0.5px;}
text.ruler {stroke:none;fill:darkgray;stroke-width:1px;text-anchor:end;}
text.chromName {stroke:none;fill:darkgray;stroke-width:1px;text-anchor:middle;}
text.xLabel {stroke:none;fill:black;stroke-width:1px;text-anchor:middle;}
text.yLabel {stroke:none;fill:black;stroke-width:1px;text-anchor:middle;}
.cov0 {stroke:gray;fill:antiquewhite;stroke-width:0.5px;}
.cov1 {stroke:gray;fill:beige;stroke-width:0.5px;}
rect.average {stroke:green;fill:green;stroke-width:0.5px;opacity:0.3;}
rect.median {stroke:red;fill:red;stroke-width:0.5px;opacity:0.3;}
line.ruler {stroke:darkgray;stroke-dasharray:4;fill:none;stroke-width:1;}
</style><g class="maing"><g id="chromosomes" transform="translate(100.0,80.0)"><g id="chrom-LR761634.1" transform="translate(10.0,0)"><polygon class="cov0" points="0,370 0,226.11 1,102.78 2,143.89 3,267.22 4,226.11 5,164.44 6,287.78 7,164.44 8,143.89 9,123.33 10,143.89 11,102.78 12,164.44 13,185 14,226.11 15,143.89 16,123.33 17,185 18,123.33 20,123.33 21,143.89 22,143.89 23,164.44 24,164.44 25,123.33 27,123.33 28,143.89 29,123.33 30,143.89 31,143.89 32,267.22 33,143.89 34,143.89 35,164.44 36,123.33 37,185 38,185 39,143.89 40,123.33 41,123.33 42,143.89 43,185 44,164.44 45,226.11 46,185 47,143.89 48,164.44 49,143.89 50,164.44 51,143.89 53,143.89 54,205.56 55,226.11 56,123.33 57,123.33 58,143.89 59,164.44 60,164.44 61,123.33 62,164.44 63,185 64,205.56 65,164.44 66,164.44 67,205.56 68,143.89 69,205.56 70,143.89 71,123.33 72,226.11 73,185 74,164.44 75,123.33 76,143.89 77,205.56 78,185 79,143.89 80,226.11 81,246.67 82,123.33 83,143.89 84,164.44 85,143.89 86,123.33 87,205.56 88,123.33 89,267.22 90,164.44 91,164.44 92,143.89 93,185 94,102.78 95,143.89 96,123.33 97,185 98,287.78 99,143.89 100,123.33 101,143.89 102,143.89 103,164.44 104,205.56 105,123.33 106,205.56 107,164.44 108,267.22 109,102.78 110,102.78 111,143.89 112,123.33 113,164.44 114,267.22 115,205.56 116,102.78 118,102.78 119,164.44 120,185 121,123.33 123,123.33 124,143.89 125,102.78 126,123.33 127,143.89 128,185 129,143.89 130,185 130.72,370"><title>LR761634.1</title></polygon><rect class="average" height="1" width="130.72" x="0" y="150.86"><title>average:10.66</title></rect><rect class="median" height="1" width="130.72" x="0" y="164.44"><title>median:10</title></rect><text class="chromName" x="65.36" y="-12">LR761634.1<title>LR761634.1 55,785,328 bp</title></text><rect class="frame" height="370" width="130.72" x="0" y="0"/></g><g id="chrom-LR761635.1" transform="translate(141.71753661284166,0)"><polygon class="cov1" points="0,370 0,328.89 1,349.44 2,308.33 3,267.22 4,349.44 5,370 6,226.11 7,308.33 8,328.89 9,226.11 10,226.11 11,287.78 12,246.67 13,143.89 14,205.56 15,287.78 16,287.78 17,226.11 18,267.22 19,226.11 20,267.22 21,287.78 22,267.22 23,267.22 24,308.33 25,349.44 26,287.78 27,308.33 28,308.33 29,349.44 30,328.89 31,328.89 32,246.67 33,205.56 34,185 35,226.11 36,226.11 37,308.33 38,267.22 39,164.44 40,185 41,205.56 42,164.44 43,185 44,123.33 45,185 46,185 47,164.44 48,308.33 49,185 50,246.67 51,308.33 52,226.11 53,205.56 54,246.67 55,267.22 56,308.33 57,287.78 58,185 59,287.78 60,370 61,267.22 62,123.33 63,287.78 64,308.33 65,246.67 66,267.22 67,246.67 68,205.56 69,287.78 70,267.22 71,185 72,226.11 75,226.11 76,328.89 77,0 78,246.67 79,308.33 80,123.33 81,267.22 82,328.89 83,328.89 84,349.44 85,308.33 86,328.89 87,349.44 88,328.89 89,349.44 90,246.67 91,308.33 92,308.33 93,287.78 94,267.22 95,308.33 96,349.44 97,328.89 98,328.89 99,287.78 100,246.67 101,287.78 102,308.33 103,185 104,143.89 105,164.44 106,246.67 107,308.33 108,185 109,205.56 110,267.22 111,205.56 112,328.89 113,308.33 114,308.33 115,246.67 116,226.11 117,246.67 118,185 119,164.44 120,143.89 121,205.56 122,246.67 123,246.67 124,267.22 125,143.89 126,226.11 127,246.67 128,143.89 129,164.44 130,164.44 131,287.78 132,205.56 133,287.78 134,308.33 135,246.67 136,287.78 137,308.33 138,308.33 139,287.78 140,328.89 141,287.78 142,287.78 143,328.89 144,287.78 145,226.11 146,267.22 147,61.67 148,164.44 149,143.89 150,226.11 151,287.78 152,328.89 153,226.11 154,267.22 155,267.22 156,287.78 157,287.78 158,205.56 159,164.44 160,246.67 161,185 162,287.78 163,267.22 164,226.11 165,267.22 166,308.33 167,328.89 168,287.78 170,287.78 171,308.33 171.58,370"><title>LR761635.1</title></polygon><rect class="average" height="1" width="171.58" x="0" y="201.38"><title>average:8.2</title></rect><rect class="median" height="1" width="171.58" x="0" y="267.22"><title>median:5</title></rect><text class="chromName" x="85.79" y="-12">LR761635.1<title>LR761635.1 73,222,313 bp</title></text><rect class="frame" height="370" width="171.58" x="0" y="0"/></g><g id="chrom-LR761636.1" transform="translate(314.2938403401308,0)"><polygon class="cov0" points="0,370 0,328.89 1,143.89 2,246.67 3,308.33 4,205.56 5,102.78 6,123.33 7,143.89 8,123.33 9,143.89 10,123.33 11,102.78 12,143.89 13,205.56 14,102.78 15,123.33 17,123.33 18,143.89 19,164.44 20,123.33 21,143.89 22,123.33 23,143.89 24,205.56 25,123.33 26,205.56 27,267.22 28,143.89 29,123.33 31,123.33 32,102.78 33,123.33 34,143.89 35,185 36,143.89 37,164.44 38,143.89 39,143.89 40,164.44 43,164.44 44,143.89 45,164.44 46,185 47,143.89 48,246.67 49,143.89 50,164.44 51,123.33 52,143.89 53,143.89 54,267.22 55,185 56,164.44 57,143.89 58,164.44 59,143.89 60,164.44 61,205.56 62,185 63,143.89 64,143.89 65,164.44 67,164.44 68,185 69,164.44 70,205.56 71,123.33 72,123.33 73,164.44 75,164.44 76,308.33 77,226.11 78,246.67 79,267.22 80,267.22 81,143.89 82,205.56 83,164.44 84,123.33 85,143.89 86,246.67 87,164.44 88,143.89 89,205.56 90,143.89 91,123.33 92,185 93,164.44 94,143.89 95,185 96,205.56 97,143.89 98,143.89 99,185 100,164.44 101,143.89 102,143.89 103,123.33 104,143.89 107,143.89 108,123.33 109,143.89 110,143.89 111,164.44 113,164.44 114,143.89 115,123.33 116,143.89 117,164.44 118,185 119,143.89 120,143.89 121,185 122,143.89 123,143.89 124,185 125,123.33 126,123.33 127,185 128,246.67 129,123.33 130,143.89 131,164.44 132,164.44 133,123.33 135,123.33 136,308.33 136.65,370"><title>LR761636.1</title></polygon><rect class="average" height="1" width="136.65" x="0" y="152.87"><title>average:10.56</title></rect><rect class="median" height="1" width="136.65" x="0" y="164.44"><title>median:10</title></rect><text class="chromName" x="68.33" y="-12">LR761636.1<title>LR761636.1 58,319,100 bp</title></text><rect class="frame" height="370" width="136.65" x="0" y="0"/></g><g id="chrom-LR761637.1" transform="translate(451.9485730949149,0)"><polygon class="cov1" points="0,370 0,349.44 1,267.22 2,308.33 3,267.22 4,226.11 5,185 6,185 7,246.67 8,205.56 9,287.78 10,308.33 11,143.89 12,226.11 13,246.67 14,246.67 15,164.44 16,205.56 17,143.89 18,287.78 19,308.33 20,205.56 21,164.44 22,164.44 23,205.56 24,349.44 25,143.89 26,123.33 27,226.11 28,205.56 29,246.67 30,267.22 31,164.44 32,143.89 33,164.44 34,102.78 35,185 36,287.78 37,226.11 38,164.44 39,143.89 40,143.89 41,267.22 42,226.11 43,287.78 44,328.89 45,185 46,164.44 47,143.89 49,143.89 50,185 51,164.44 52,102.78 53,185 54,123.33 55,143.89 56,164.44 57,226.11 58,287.78 59,267.22 60,267.22 61,226.11 62,143.89 64,143.89 65,164.44 66,143.89 67,164.44 68,185 69,143.89 70,164.44 71,164.44 72,185 73,143.89 74,185 75,185 76,143.89 77,164.44 78,123.33 79,185 80,164.44 81,164.44 82,143.89 84,143.89 85,123.33 86,226.11 87,164.44 88,123.33 89,143.89 90,123.33 91,143.89 92,123.33 93,185 94,205.56 95,226.11 96,185 97,143.89 98,102.78 99,123.33 100,164.44 101,185 102,205.56 103,226.11 104,226.11 105,205.56 106,102.78 110,102.78 111,164.44 112,123.33 113,123.33 114,267.22 115,185 116,185 117,164.44 118,143.89 119,308.33 120,164.44 121,102.78 122,328.89 123,349.44 124,287.78 124.49,370"><title>LR761637.1</title></polygon><rect class="average" height="1" width="124.49" x="0" y="168.64"><title>average:9.8</title></rect><rect class="median" height="1" width="124.49" x="0" y="185"><title>median:9</title></rect><text class="chromName" x="62.25" y="-12">LR761637.1<title>LR761637.1 53,127,865 bp</title></text><rect class="frame" height="370" width="124.49" x="0" y="0"/></g><g id="chrom-LR761638.1" transform="translate(577.4390778079033,0)"><polygon class="cov0" points="0,370 0,185 1,102.78 2,308.33 3,143.89 4,185 5,123.33 6,205.56 8,205.56 9,123.33 10,164.44 11,287.78 12,123.33 13,143.89 14,123.33 15,143.89 16,123.33 17,123.33 18,246.67 19,287.78 20,143.89 21,185 22,123.33 24,123.33 25,164.44 26,349.44 27,123.33 28,185 29,267.22 30,226.11 31,143.89 32,370 33,328.89 34,185 35,226.11 36,164.44 37,308.33 38,287.78 39,267.22 40,287.78 41,308.33 42,267.22 43,143.89 44,143.89 45,308.33 46,164.44 47,102.78 48,123.33 49,205.56 50,308.33 51,226.11 52,185 53,164.44 54,267.22 55,226.11 56,164.44 57,226.11 58,164.44 59,205.56 60,185 61,226.11 62,164.44 63,308.33 64,308.33 65,287.78 66,246.67 67,205.56 68,164.44 69,226.11 70,164.44 71,308.33 72,349.44 73,287.78 74,246.67 75,328.89 76,328.89 77,205.56 78,370 79,349.44 80,308.33 81,185 82,287.78 83,349.44 84,308.33 85,185 86,143.89 87,164.44 88,308.33 89,123.33 90,287.78 91,164.44 92,123.33 93,123.33 94,143.89 95,226.11 96,308.33 97,164.44 98,308.33 99,226.11 100,185 101,164.44 102,267.22 103,185 104,308.33 105,287.78 106,246.67 107,164.44 108,226.11 109,185 110,205.56 111,164.44 112,308.33 113,205.56 114,226.11 115,246.67 116,308.33 117,370 118,328.89 119,287.78 120,267.22 121,349.44 122,328.89 123,370 124,287.78 125,308.33 126,287.78 127,246.67 128,370 129,287.78 130,328.89 131,308.33 132,267.22 133,328.89 134,246.67 135,308.33 136,164.44 137,287.78 138,308.33 139,267.22 140,328.89 141,370 142,287.78 143,246.67 144,164.44 145,164.44 146,205.56 147,143.89 148,143.89 149,164.44 150,164.44 151,267.22 152,164.44 153,143.89 154,267.22 155,287.78 156,185 157,205.56 158,287.78 161,287.78 162,308.33 163,267.22 164,308.33 165,349.44 166,349.44 167,370 168,308.33 169,246.67 170,349.44 171,308.33 172,328.89 172.35,370"><title>LR761638.1</title></polygon><rect class="average" height="1" width="172.35" x="0" y="198.85"><title>average:8.33</title></rect><rect class="median" height="1" width="172.35" x="0" y="246.67"><title>median:6</title></rect><text class="chromName" x="86.17" y="-12">LR761638.1<title>LR761638.1 73,550,375 bp</title></text><rect class="frame" height="370" width="172.35" x="0" y="0"/></g><g id="chrom-LR761639.1" transform="translate(750.784104388203,0)"><polygon class="cov1" points="0,370 0,308.33 1,143.89 2,123.33 3,226.11 4,102.78 5,205.56 6,308.33 7,267.22 8,123.33 9,123.33 10,143.89 11,267.22 12,226.11 13,123.33 14,164.44 15,123.33 16,143.89 17,123.33 18,143.89 19,123.33 20,123.33 21,143.89 22,164.44 23,185 24,164.44 25,226.11 26,185 27,308.33 28,349.44 29,205.56 30,287.78 31,123.33 32,164.44 33,123.33 34,185 35,205.56 36,226.11 37,143.89 38,123.33 39,143.89 40,164.44 41,123.33 42,143.89 43,123.33 44,143.89 45,143.89 46,164.44 47,164.44 48,143.89 49,164.44 50,164.44 51,143.89 52,205.56 53,164.44 54,164.44 55,143.89 60,143.89 61,123.33 62,143.89 63,164.44 64,123.33 65,143.89 66,164.44 67,143.89 68,143.89 69,185 70,143.89 71,164.44 72,164.44 73,143.89 74,246.67 75,143.89 76,164.44 77,164.44 78,143.89 79,143.89 80,164.44 81,143.89 83,143.89 84,226.11 85,164.44 86,123.33 87,143.89 88,123.33 89,143.89 90,123.33 91,143.89 92,143.89 93,185 94,164.44 95,143.89 97,143.89 98,123.33 99,143.89 103,143.89 104,123.33 105,143.89 106,246.67 107,143.89 108,123.33 109,143.89 110,123.33 111,308.33 112,185 113,123.33 114,185 115,123.33 116,164.44 117,143.89 118,143.89 119,123.33 120,164.44 121,123.33 123,123.33 124,164.44 125,123.33 127,123.33 128,143.89 129,123.33 130,143.89 131,164.44 132,185 133,349.44 134,102.78 135,185 136,123.33 137,143.89 138,164.44 139,164.44 140,308.33 140.95,370"><title>LR761639.1</title></polygon><rect class="average" height="1" width="140.95" x="0" y="154.53"><title>average:10.48</title></rect><rect class="median" height="1" width="140.95" x="0" y="164.44"><title>median:10</title></rect><text class="chromName" x="70.47" y="-12">LR761639.1<title>LR761639.1 60,151,564 bp</title></text><rect class="frame" height="370" width="140.95" x="0" y="0"/></g><g id="chrom-LR761640.1" transform="translate(892.7327113317651,0)"><polygon class="cov0" points="0,370 0,164.44 1,102.78 2,185 3,164.44 4,164.44 5,123.33 6,185 7,185 8,123.33 9,185 10,123.33 11,143.89 12,123.33 13,246.67 14,164.44 15,143.89 16,205.56 17,143.89 18,143.89 19,205.56 20,143.89 22,143.89 23,123.33 24,164.44 25,164.44 26,123.33 27,143.89 30,143.89 31,123.33 32,143.89 33,143.89 34,164.44 35,143.89 36,143.89 37,205.56 38,123.33 39,164.44 40,123.33 41,143.89 42,102.78 43,123.33 44,123.33 45,164.44 46,143.89 47,267.22 48,328.89 49,143.89 50,185 51,143.89 52,123.33 53,164.44 54,123.33 55,143.89 56,123.33 57,205.56 58,164.44 59,205.56 60,246.67 61,143.89 62,164.44 63,205.56 64,143.89 65,267.22 66,143.89 67,164.44 68,164.44 69,205.56 70,205.56 71,143.89 72,164.44 73,226.11 74,185 75,164.44 76,143.89 77,226.11 78,143.89 79,205.56 80,143.89 81,123.33 82,123.33 83,143.89 84,164.44 85,143.89 86,308.33 87,164.44 88,164.44 89,185 90,164.44 91,349.44 92,287.78 93,205.56 94,267.22 95,164.44 99,164.44 100,143.89 101,185 102,328.89 103,226.11 104,143.89 105,123.33 106,143.89 107,185 108,205.56 109,143.89 110,185 111,205.56 112,164.44 114,164.44 115,143.89 116,287.78 117,328.89 118,349.44 119,308.33 120,143.89 121,123.33 122,143.89 123,143.89 124,164.44 125,143.89 127,143.89 128,267.22 129,164.44 130,143.89 131,143.89 132,164.44 133,143.89 134,123.33 135,123.33 136,143.89 138,143.89 139,185 140,143.89 141,143.89 142,164.44 143,185 144,123.33 145,123.33 145.53,370"><title>LR761640.1</title></polygon><rect class="average" height="1" width="145.53" x="0" y="160.99"><title>average:10.17</title></rect><rect class="median" height="1" width="145.53" x="0" y="164.44"><title>median:10</title></rect><text class="chromName" x="72.77" y="-12">LR761640.1<title>LR761640.1 62,107,823 bp</title></text><rect class="frame" height="370" width="145.53" x="0" y="0"/></g><g id="chrom-LR761641.1" transform="translate(1039.265271917344,0)"><polygon class="cov1" points="0,370 0,267.22 1,164.44 2,246.67 3,185 4,246.67 5,185 6,267.22 7,246.67 8,287.78 9,185 10,123.33 11,226.11 12,205.56 13,123.33 14,246.67 15,143.89 16,123.33 17,267.22 18,102.78 19,102.78 20,123.33 21,143.89 22,205.56 23,164.44 25,164.44 26,226.11 28,226.11 29,287.78 30,226.11 31,205.56 32,267.22 33,246.67 34,287.78 35,287.78 36,328.89 37,267.22 38,246.67 39,267.22 40,185 41,246.67 42,246.67 43,308.33 44,246.67 45,185 46,246.67 47,267.22 48,287.78 49,143.89 50,185 51,164.44 52,143.89 53,123.33 54,143.89 55,123.33 56,123.33 57,164.44 58,185 59,185 60,143.89 61,328.89 62,143.89 63,185 64,185 65,164.44 66,205.56 67,226.11 68,246.67 69,164.44 70,267.22 71,123.33 72,205.56 73,308.33 74,226.11 75,308.33 76,164.44 77,185 78,143.89 79,226.11 80,267.22 81,328.89 82,349.44 83,328.89 84,185 85,143.89 86,267.22 87,123.33 88,205.56 89,185 90,267.22 91,205.56 92,123.33 93,205.56 94,267.22 95,226.11 96,185 97,308.33 98,123.33 99,370 100,287.78 101,123.33 102,164.44 103,123.33 104,185 105,123.33 106,226.11 107,143.89 109,143.89 110,123.33 111,287.78 112,102.78 113,205.56 114,143.89 115,164.44 116,102.78 117,164.44 118,123.33 119,205.56 120,226.11 121,143.89 122,143.89 123,226.11 124,143.89 125,205.56 126,226.11 127,123.33 128,246.67 129,143.89 130,267.22 131,205.56 132,349.44 133,267.22 134,143.89 135,349.44 136,328.89 136.99,370"><title>LR761641.1</title></polygon><rect class="average" height="1" width="136.99" x="0" y="175.49"><title>average:9.46</title></rect><rect class="median" height="1" width="136.99" x="0" y="205.56"><title>median:8</title></rect><text class="chromName" x="68.5" y="-12">LR761641.1<title>LR761641.1 58,462,999 bp</title></text><rect class="frame" height="370" width="136.99" x="0" y="0"/></g><g id="chrom-LR761642.1" transform="translate(1177.25719230686,0)"><polygon class="cov0" points="0,370 0,328.89 1,328.89 2,349.44 3,246.67 4,287.78 5,328.89 6,308.33 7,308.33 8,328.89 9,287.78 10,267.22 11,226.11 12,246.67 13,123.33 14,205.56 15,164.44 16,267.22 17,226.11 18,267.22 19,205.56 20,205.56 21,164.44 22,287.78 23,246.67 24,164.44 25,123.33 26,143.89 27,185 28,287.78 29,164.44 30,226.11 31,143.89 32,164.44 33,246.67 34,143.89 35,287.78 36,143.89 37,164.44 38,123.33 39,185 40,143.89 41,185 42,143.89 44,143.89 45,226.11 46,143.89 47,246.67 48,287.78 49,287.78 50,185 51,205.56 52,226.11 53,123.33 54,123.33 55,205.56 56,164.44 57,185 58,246.67 59,123.33 60,164.44 61,308.33 62,205.56 63,164.44 64,205.56 65,164.44 66,164.44 67,349.44 68,246.67 69,164.44 70,123.33 71,226.11 72,143.89 73,226.11 74,143.89 75,205.56 76,287.78 77,143.89 78,143.89 79,267.22 80,246.67 81,164.44 82,308.33 83,226.11 84,287.78 85,164.44 86,328.89 86.91,370"><title>LR761642.1</title></polygon><rect class="average" height="1" width="86.91" x="0" y="171.02"><title>average:9.68</title></rect><rect class="median" height="1" width="86.91" x="0" y="205.56"><title>median:8</title></rect><text class="chromName" x="43.45" y="-12">LR761642.1<title>LR761642.1 37,089,910 bp</title></text><rect class="frame" height="370" width="86.91" x="0" y="0"/></g><g id="chrom-LR761643.1" transform="translate(1265.1671710093603,0)"><polygon class="cov1" points="0,370 0,349.44 1,246.67 2,143.89 3,102.78 4,164.44 5,226.11 6,185 7,164.44 8,164.44 9,143.89 10,143.89 11,164.44 12,143.89 13,185 14,246.67 15,164.44 16,123.33 17,164.44 19,164.44 20,328.89 21,164.44 22,123.33 23,143.89 24,164.44 25,185 26,349.44 27,328.89 28,287.78 29,143.89 30,226.11 31,164.44 32,226.11 33,143.89 34,123.33 35,205.56 36,246.67 37,143.89 38,143.89 39,123.33 40,164.44 41,164.44 42,205.56 43,287.78 44,164.44 45,185 46,143.89 47,246.67 48,164.44 49,164.44 50,185 51,143.89 52,164.44 53,185 54,185 55,143.89 57,143.89 58,164.44 59,143.89 60,123.33 61,143.89 62,185 63,164.44 64,164.44 65,205.56 66,164.44 70,164.44 71,267.22 72,205.56 73,226.11 74,143.89 75,226.11 76,143.89 77,143.89 78,205.56 79,246.67 80,143.89 81,143.89 82,164.44 83,143.89 84,123.33 85,123.33 86,164.44 87,123.33 88,185 89,349.44 90,185 91,143.89 92,123.33 93,164.44 94,143.89 95,164.44 96,123.33 97,143.89 98,123.33 99,123.33 100,143.89 101,226.11 102,143.89 103,143.89 104,164.44 105,143.89 106,143.89 107,123.33 108,143.89 109,123.33 111,123.33 112,143.89 113,226.11 114,164.44 115,143.89 116,123.33 117,123.33 118,143.89 119,164.44 120,143.89 121,123.33 123,123.33 124,143.89 125,143.89 126,123.33 127,185 128,143.89 129,123.33 130,164.44 131,185 132,123.33 133,226.11 134,287.78 134.83,370"><title>LR761643.1</title></polygon><rect class="average" height="1" width="134.83" x="0" y="163.24"><title>average:10.06</title></rect><rect class="median" height="1" width="134.83" x="0" y="164.44"><title>median:10</title></rect><text class="chromName" x="67.42" y="-12">LR761643.1<title>LR761643.1 57,541,580 bp</title></text><rect class="frame" height="370" width="134.83" x="0" y="0"/></g><g><line class="ruler" x1="-2" x2="1390" y1="333" y2="333"><title>1</title></line><text class="ruler" x="-5" y="333">1</text><line class="ruler" x1="-2" x2="1390" y1="296" y2="296"><title>3</title></line><text class="ruler" x="-5" y="296">3</text><line class="ruler" x1="-2" x2="1390" y1="259" y2="259"><title>5</title></line><text class="ruler" x="-5" y="259">5</text><line class="ruler" x1="-2" x2="1390" y1="222" y2="222"><title>7</title></line><text class="ruler" x="-5" y="222">7</text><line class="ruler" x1="-2" x2="1390" y1="185" y2="185"><title>9</title></line><text class="ruler" x="-5" y="185">9</text><line class="ruler" x1="-2" x2="1390" y1="148" y2="148"><title>10</title></line><text class="ruler" x="-5" y="148">10</text><line class="ruler" x1="-2" x2="1390" y1="111" y2="111"><title>12</title></line><text class="ruler" x="-5" y="111">12</text><line class="ruler" x1="-2" x2="1390" y1="74" y2="74"><title>14</title></line><text class="ruler" x="-5" y="74">14</text><line class="ruler" x1="-2" x2="1390" y1="37" y2="37"><title>16</title></line><text class="ruler" x="-5" y="37">16</text><line class="ruler" x1="-2" x2="1390" y1="0" y2="0"><title>18</title></line><text class="ruler" x="-5" y="0">18</text></g></g><text class="title" x="795" y="40">F10_M10_24.merged.realigned.bam F10_M10_24 F10_M10_24_1 F10_M10_24_2<title>./F10_M10_24.merged.realigned.bam</title></text><text class="xLabel" x="795" y="475">GCA_902806645.1_cgigas_uk_roslin_v1_genomic.fna  (589,358,857 bp)<title>../ref/GCA_902806645.1_cgigas_uk_roslin_v1_genomic.fna</title></text><text class="yLabel" transform="translate(25,265) rotate(90)" x="0" y="0">Coverage bp (median)</text></g></svg>