<?xml version="1.0" encoding="UTF-8" standalone="no"?><svg height="500" width="1500" xmlns="http://www.w3.org/2000/svg"><title>F11_M12_24.merged.realigned.bam</title><desc>Made with wgscoverageplotter undefined Author: Pierre Lindenbaum</desc><style>g.maing {stroke:black;stroke-width:0.5px;fill:none;}
text.title {stroke:none;fill:black;stroke-width:1px;text-anchor:middle;}
rect.frame {stroke:darkgray;fill:none;stroke-width:0.5px;}
text.ruler {stroke:none;fill:darkgray;stroke-width:1px;text-anchor:end;}
text.chromName {stroke:none;fill:darkgray;stroke-width:1px;text-anchor:middle;}
text.xLabel {stroke:none;fill:black;stroke-width:1px;text-anchor:middle;}
text.yLabel {stroke:none;fill:black;stroke-width:1px;text-anchor:middle;}
.cov0 {stroke:gray;fill:antiquewhite;stroke-width:0.5px;}
.cov1 {stroke:gray;fill:beige;stroke-width:0.5px;}
rect.average {stroke:green;fill:green;stroke-width:0.5px;opacity:0.3;}
rect.median {stroke:red;fill:red;stroke-width:0.5px;opacity:0.3;}
line.ruler {stroke:darkgray;stroke-dasharray:4;fill:none;stroke-width:1;}
</style><g class="maing"><g id="chromosomes" transform="translate(100.0,80.0)"><g id="chrom-LR761634.1" transform="translate(10.0,0)"><polygon class="cov0" points="0,370 0,298.85 1,128.08 2,156.54 3,313.08 4,256.15 5,156.54 6,298.85 7,213.46 8,156.54 9,142.31 10,156.54 11,128.08 12,170.77 13,227.69 14,284.62 15,156.54 16,142.31 17,185 18,142.31 21,142.31 22,170.77 23,185 24,170.77 25,128.08 26,142.31 27,142.31 28,156.54 29,142.31 30,156.54 31,156.54 32,270.38 33,156.54 34,156.54 35,170.77 36,128.08 37,199.23 38,227.69 39,170.77 40,142.31 42,142.31 43,185 44,170.77 45,227.69 46,170.77 47,156.54 51,156.54 52,142.31 53,156.54 54,241.92 55,284.62 56,142.31 57,128.08 58,156.54 59,170.77 60,170.77 61,142.31 62,170.77 63,199.23 64,199.23 65,185 66,156.54 67,185 68,142.31 69,227.69 70,156.54 71,142.31 72,185 73,185 74,170.77 75,156.54 76,156.54 77,185 78,185 79,142.31 80,270.38 81,270.38 82,142.31 83,156.54 84,170.77 85,156.54 86,128.08 87,199.23 88,142.31 89,270.38 90,185 91,170.77 92,142.31 93,170.77 94,128.08 95,142.31 96,128.08 97,170.77 98,298.85 99,142.31 100,142.31 101,199.23 102,156.54 103,185 104,185 105,128.08 106,227.69 107,185 108,256.15 109,113.85 110,113.85 111,142.31 112,128.08 113,185 114,298.85 115,199.23 116,113.85 117,128.08 118,113.85 119,170.77 120,185 121,128.08 123,128.08 124,142.31 125,128.08 126,128.08 127,142.31 128,213.46 129,156.54 130,199.23 130.72,370"><title>LR761634.1</title></polygon><rect class="average" height="1" width="130.72" x="0" y="165.24"><title>average:14.39</title></rect><rect class="median" height="1" width="130.72" x="0" y="170.77"><title>median:14</title></rect><text class="chromName" x="65.36" y="-12">LR761634.1<title>LR761634.1 55,785,328 bp</title></text><rect class="frame" height="370" width="130.72" x="0" y="0"/></g><g id="chrom-LR761635.1" transform="translate(141.71753661284166,0)"><polygon class="cov1" points="0,370 0,327.31 1,355.77 2,298.85 3,270.38 4,355.77 5,313.08 6,270.38 7,298.85 8,298.85 9,213.46 10,185 11,270.38 12,213.46 13,156.54 14,241.92 15,241.92 16,298.85 17,241.92 18,270.38 19,241.92 20,341.54 21,284.62 22,284.62 23,227.69 24,341.54 25,313.08 26,341.54 27,298.85 28,313.08 29,355.77 30,327.31 31,298.85 32,256.15 33,199.23 34,199.23 35,227.69 36,270.38 37,327.31 38,298.85 39,156.54 40,199.23 41,227.69 42,156.54 43,241.92 44,199.23 45,185 46,213.46 47,142.31 48,199.23 49,170.77 50,199.23 51,270.38 52,199.23 53,270.38 54,313.08 55,256.15 56,284.62 57,270.38 58,185 59,284.62 60,313.08 61,298.85 62,170.77 63,284.62 64,298.85 65,241.92 66,284.62 67,241.92 68,270.38 69,298.85 70,270.38 71,213.46 72,199.23 73,213.46 74,270.38 75,213.46 76,313.08 77,0 78,256.15 79,298.85 80,170.77 81,284.62 82,284.62 83,313.08 84,341.54 85,298.85 86,355.77 87,355.77 88,327.31 89,355.77 90,270.38 91,298.85 92,327.31 93,313.08 94,284.62 95,270.38 96,270.38 97,256.15 98,298.85 99,284.62 100,313.08 101,298.85 102,313.08 103,199.23 104,128.08 105,142.31 106,256.15 107,298.85 108,199.23 109,199.23 110,298.85 111,185 112,298.85 113,313.08 114,313.08 115,341.54 116,327.31 117,298.85 118,185 119,185 120,156.54 121,213.46 122,241.92 123,241.92 124,270.38 125,156.54 126,256.15 127,284.62 128,156.54 129,241.92 130,170.77 131,313.08 132,199.23 133,298.85 134,313.08 135,284.62 136,341.54 137,327.31 138,327.31 139,284.62 140,341.54 141,313.08 142,313.08 143,327.31 144,298.85 145,213.46 146,270.38 147,128.08 148,156.54 149,128.08 150,256.15 151,256.15 152,355.77 153,241.92 154,284.62 155,313.08 156,298.85 157,284.62 158,270.38 159,170.77 160,270.38 161,256.15 162,199.23 163,142.31 164,199.23 165,227.69 166,270.38 167,298.85 168,284.62 169,313.08 170,298.85 171,327.31 171.58,370"><title>LR761635.1</title></polygon><rect class="average" height="1" width="171.58" x="0" y="209.33"><title>average:11.29</title></rect><rect class="median" height="1" width="171.58" x="0" y="270.38"><title>median:7</title></rect><text class="chromName" x="85.79" y="-12">LR761635.1<title>LR761635.1 73,222,313 bp</title></text><rect class="frame" height="370" width="171.58" x="0" y="0"/></g><g id="chrom-LR761636.1" transform="translate(314.2938403401308,0)"><polygon class="cov0" points="0,370 0,341.54 1,142.31 2,270.38 3,298.85 4,241.92 5,142.31 7,142.31 8,113.85 9,142.31 10,113.85 11,128.08 12,142.31 13,170.77 14,113.85 15,128.08 16,113.85 17,128.08 18,142.31 19,128.08 23,128.08 24,185 25,128.08 26,199.23 27,256.15 28,142.31 29,113.85 30,128.08 31,128.08 32,142.31 33,128.08 34,156.54 35,199.23 36,142.31 37,170.77 38,156.54 40,156.54 41,170.77 42,170.77 43,156.54 45,156.54 46,185 47,156.54 48,213.46 49,156.54 50,170.77 51,142.31 52,156.54 53,156.54 54,213.46 55,185 56,170.77 57,142.31 58,185 59,142.31 60,170.77 61,227.69 62,170.77 63,156.54 64,156.54 65,170.77 67,170.77 68,185 69,170.77 70,199.23 71,128.08 72,142.31 73,170.77 75,170.77 76,327.31 77,213.46 78,256.15 79,270.38 80,270.38 81,156.54 82,227.69 83,156.54 84,142.31 85,156.54 86,298.85 87,170.77 88,170.77 89,213.46 90,156.54 91,142.31 92,199.23 93,170.77 94,142.31 95,156.54 96,213.46 97,142.31 98,156.54 99,185 100,170.77 101,142.31 102,156.54 103,128.08 104,142.31 105,142.31 106,156.54 107,156.54 108,142.31 109,142.31 110,156.54 111,170.77 112,170.77 113,185 114,142.31 116,142.31 117,156.54 118,185 119,142.31 120,142.31 121,241.92 122,142.31 123,142.31 124,199.23 125,128.08 126,128.08 127,213.46 128,256.15 129,128.08 130,156.54 131,156.54 132,142.31 133,142.31 134,128.08 135,128.08 136,256.15 136.65,370"><title>LR761636.1</title></polygon><rect class="average" height="1" width="136.65" x="0" y="161.25"><title>average:14.67</title></rect><rect class="median" height="1" width="136.65" x="0" y="156.54"><title>median:15</title></rect><text class="chromName" x="68.33" y="-12">LR761636.1<title>LR761636.1 58,319,100 bp</title></text><rect class="frame" height="370" width="136.65" x="0" y="0"/></g><g id="chrom-LR761637.1" transform="translate(451.9485730949149,0)"><polygon class="cov1" points="0,370 0,284.62 1,270.38 2,313.08 3,313.08 4,241.92 5,170.77 6,213.46 7,241.92 8,227.69 9,284.62 10,327.31 11,156.54 12,270.38 13,313.08 14,270.38 15,156.54 16,227.69 17,99.62 18,284.62 19,313.08 20,241.92 21,156.54 22,156.54 23,213.46 24,327.31 25,170.77 26,142.31 27,256.15 28,213.46 29,256.15 30,256.15 31,142.31 32,156.54 33,185 34,128.08 35,185 36,284.62 37,298.85 38,156.54 39,170.77 40,156.54 41,327.31 42,241.92 43,256.15 44,313.08 45,213.46 46,156.54 47,156.54 48,142.31 49,142.31 50,213.46 51,156.54 52,128.08 53,199.23 54,142.31 55,156.54 56,170.77 57,241.92 58,284.62 59,327.31 60,327.31 61,241.92 62,156.54 64,156.54 65,170.77 66,156.54 67,170.77 68,199.23 69,142.31 70,170.77 71,156.54 72,185 73,156.54 74,199.23 75,170.77 76,156.54 77,156.54 78,170.77 79,199.23 80,185 81,199.23 82,156.54 83,170.77 84,170.77 85,142.31 86,227.69 87,170.77 88,142.31 89,156.54 90,142.31 91,156.54 92,142.31 93,199.23 94,213.46 95,213.46 96,199.23 97,142.31 98,113.85 99,128.08 100,241.92 101,284.62 102,298.85 103,313.08 104,313.08 105,213.46 106,128.08 107,113.85 108,128.08 109,128.08 110,113.85 111,128.08 112,142.31 113,128.08 114,313.08 115,213.46 116,170.77 117,170.77 118,142.31 119,298.85 120,156.54 121,128.08 122,298.85 123,270.38 124,241.92 124.49,370"><title>LR761637.1</title></polygon><rect class="average" height="1" width="124.49" x="0" y="185.31"><title>average:12.98</title></rect><rect class="median" height="1" width="124.49" x="0" y="199.23"><title>median:12</title></rect><text class="chromName" x="62.25" y="-12">LR761637.1<title>LR761637.1 53,127,865 bp</title></text><rect class="frame" height="370" width="124.49" x="0" y="0"/></g><g id="chrom-LR761638.1" transform="translate(577.4390778079033,0)"><polygon class="cov0" points="0,370 0,156.54 1,113.85 2,241.92 3,142.31 4,199.23 5,128.08 6,199.23 7,185 8,185 9,113.85 10,185 11,298.85 12,128.08 13,156.54 14,113.85 15,156.54 16,142.31 17,142.31 18,270.38 19,327.31 20,128.08 21,199.23 22,142.31 23,128.08 24,128.08 25,170.77 26,355.77 27,128.08 28,199.23 29,327.31 30,270.38 31,156.54 32,355.77 33,341.54 34,185 35,227.69 36,156.54 37,313.08 38,298.85 39,313.08 40,341.54 41,327.31 42,227.69 43,128.08 44,156.54 45,284.62 46,128.08 48,128.08 49,156.54 50,227.69 51,142.31 52,156.54 53,142.31 54,170.77 55,185 56,185 57,213.46 58,113.85 59,199.23 60,170.77 61,213.46 62,170.77 63,341.54 64,313.08 65,313.08 66,156.54 67,227.69 68,142.31 69,270.38 70,199.23 71,341.54 72,355.77 73,313.08 74,256.15 75,341.54 76,341.54 77,213.46 78,327.31 79,270.38 80,284.62 81,170.77 82,327.31 83,284.62 84,256.15 85,185 86,128.08 87,185 88,313.08 89,156.54 90,298.85 91,170.77 92,113.85 93,128.08 94,142.31 95,213.46 96,284.62 97,156.54 98,256.15 99,199.23 100,199.23 101,170.77 102,256.15 103,170.77 104,227.69 105,256.15 106,241.92 107,170.77 108,199.23 109,170.77 110,199.23 111,170.77 112,270.38 113,256.15 114,298.85 115,298.85 116,313.08 117,327.31 118,284.62 119,298.85 120,298.85 121,355.77 122,355.77 123,370 124,256.15 125,313.08 126,327.31 127,256.15 128,370 129,270.38 130,327.31 131,270.38 132,298.85 133,327.31 134,298.85 135,284.62 136,156.54 137,370 138,355.77 139,270.38 140,370 141,370 142,341.54 143,256.15 144,142.31 145,185 146,313.08 147,142.31 148,156.54 149,156.54 150,213.46 151,284.62 152,170.77 153,156.54 154,241.92 155,298.85 156,213.46 157,313.08 158,313.08 159,298.85 160,327.31 161,284.62 162,227.69 163,199.23 164,241.92 165,355.77 166,341.54 167,370 168,341.54 169,241.92 170,341.54 171,355.77 172,341.54 172.35,370"><title>LR761638.1</title></polygon><rect class="average" height="1" width="172.35" x="0" y="204.99"><title>average:11.6</title></rect><rect class="median" height="1" width="172.35" x="0" y="241.92"><title>median:9</title></rect><text class="chromName" x="86.17" y="-12">LR761638.1<title>LR761638.1 73,550,375 bp</title></text><rect class="frame" height="370" width="172.35" x="0" y="0"/></g><g id="chrom-LR761639.1" transform="translate(750.784104388203,0)"><polygon class="cov1" points="0,370 0,341.54 1,142.31 2,128.08 3,298.85 4,156.54 5,227.69 6,341.54 7,270.38 8,142.31 9,128.08 10,170.77 11,256.15 12,256.15 13,142.31 14,156.54 15,142.31 21,142.31 22,156.54 23,170.77 24,170.77 25,213.46 26,185 27,313.08 28,355.77 29,227.69 30,298.85 31,142.31 32,128.08 33,142.31 34,199.23 35,227.69 36,256.15 37,142.31 38,156.54 39,156.54 40,227.69 41,142.31 42,156.54 43,128.08 44,170.77 45,142.31 46,170.77 47,156.54 48,156.54 49,170.77 50,170.77 51,156.54 52,185 53,170.77 54,170.77 55,156.54 62,156.54 63,199.23 64,142.31 65,142.31 66,170.77 67,156.54 68,156.54 69,213.46 70,156.54 71,170.77 72,170.77 73,156.54 74,227.69 75,156.54 76,156.54 77,170.77 78,156.54 79,156.54 80,185 81,142.31 82,156.54 83,156.54 84,227.69 85,170.77 86,142.31 87,156.54 88,142.31 89,142.31 90,128.08 91,170.77 92,156.54 93,185 94,185 95,156.54 96,156.54 97,142.31 98,142.31 99,156.54 100,142.31 102,142.31 103,156.54 104,128.08 105,142.31 106,256.15 107,156.54 108,128.08 109,142.31 110,142.31 111,327.31 112,185 113,128.08 114,185 115,128.08 116,170.77 117,156.54 118,142.31 119,128.08 120,156.54 121,128.08 123,128.08 124,156.54 125,142.31 126,128.08 127,128.08 128,142.31 129,128.08 130,199.23 131,142.31 132,185 133,355.77 134,113.85 135,170.77 136,156.54 137,156.54 138,227.69 139,170.77 140,298.85 140.95,370"><title>LR761639.1</title></polygon><rect class="average" height="1" width="140.95" x="0" y="166.77"><title>average:14.28</title></rect><rect class="median" height="1" width="140.95" x="0" y="170.77"><title>median:14</title></rect><text class="chromName" x="70.47" y="-12">LR761639.1<title>LR761639.1 60,151,564 bp</title></text><rect class="frame" height="370" width="140.95" x="0" y="0"/></g><g id="chrom-LR761640.1" transform="translate(892.7327113317651,0)"><polygon class="cov0" points="0,370 0,170.77 1,128.08 2,199.23 3,170.77 4,156.54 5,113.85 6,185 7,199.23 8,128.08 9,170.77 10,128.08 11,156.54 12,128.08 13,270.38 14,156.54 15,142.31 16,227.69 17,156.54 18,142.31 19,213.46 20,142.31 21,156.54 22,142.31 23,128.08 24,156.54 25,170.77 26,142.31 27,156.54 28,170.77 29,156.54 33,156.54 34,170.77 35,156.54 36,156.54 37,227.69 38,142.31 39,185 40,142.31 44,142.31 45,170.77 46,185 47,256.15 48,313.08 49,142.31 50,170.77 51,156.54 52,142.31 53,170.77 54,142.31 55,156.54 56,142.31 57,256.15 58,156.54 59,185 60,256.15 61,156.54 62,170.77 63,185 64,142.31 65,284.62 66,156.54 67,170.77 68,170.77 69,199.23 70,185 71,170.77 72,199.23 73,227.69 74,199.23 75,156.54 76,170.77 77,241.92 78,156.54 79,199.23 80,128.08 82,128.08 83,156.54 84,156.54 85,142.31 86,341.54 87,170.77 88,185 90,185 91,341.54 92,298.85 93,213.46 94,284.62 95,170.77 96,170.77 97,156.54 98,185 99,170.77 100,142.31 101,227.69 102,284.62 103,213.46 104,142.31 106,142.31 107,185 108,185 109,142.31 110,185 111,199.23 112,170.77 113,156.54 114,185 115,142.31 116,270.38 117,341.54 118,355.77 119,327.31 120,156.54 121,128.08 122,142.31 123,142.31 124,156.54 125,142.31 126,156.54 127,156.54 128,270.38 129,170.77 130,142.31 131,142.31 132,170.77 133,142.31 134,128.08 135,113.85 136,142.31 138,142.31 139,185 140,156.54 141,142.31 142,170.77 143,241.92 144,142.31 145,142.31 145.53,370"><title>LR761640.1</title></polygon><rect class="average" height="1" width="145.53" x="0" y="171.23"><title>average:13.97</title></rect><rect class="median" height="1" width="145.53" x="0" y="170.77"><title>median:14</title></rect><text class="chromName" x="72.77" y="-12">LR761640.1<title>LR761640.1 62,107,823 bp</title></text><rect class="frame" height="370" width="145.53" x="0" y="0"/></g><g id="chrom-LR761641.1" transform="translate(1039.265271917344,0)"><polygon class="cov1" points="0,370 0,298.85 1,170.77 2,213.46 3,199.23 4,185 5,213.46 6,284.62 7,256.15 8,256.15 9,185 10,156.54 11,199.23 12,241.92 13,113.85 14,199.23 15,128.08 16,170.77 17,284.62 18,142.31 19,142.31 20,128.08 21,170.77 22,213.46 23,170.77 24,185 25,170.77 26,227.69 27,170.77 28,227.69 29,284.62 30,241.92 31,199.23 32,256.15 33,227.69 34,298.85 35,298.85 36,327.31 37,241.92 38,256.15 39,270.38 40,199.23 41,256.15 42,327.31 43,327.31 44,270.38 45,213.46 46,256.15 47,284.62 48,256.15 49,156.54 50,170.77 51,156.54 52,142.31 54,142.31 55,128.08 56,128.08 57,170.77 58,185 59,170.77 60,142.31 61,270.38 62,170.77 63,199.23 64,185 65,185 66,213.46 67,241.92 68,256.15 69,142.31 70,170.77 71,142.31 72,213.46 73,313.08 74,213.46 75,313.08 76,185 77,156.54 78,156.54 79,241.92 80,270.38 81,298.85 82,298.85 83,341.54 84,185 85,156.54 86,270.38 87,128.08 88,227.69 89,199.23 90,256.15 91,227.69 92,128.08 93,256.15 94,256.15 95,213.46 96,199.23 97,355.77 98,156.54 99,370 100,227.69 101,113.85 102,170.77 103,113.85 104,185 105,128.08 106,227.69 107,128.08 108,142.31 110,142.31 111,284.62 112,142.31 113,199.23 114,142.31 115,156.54 116,113.85 117,156.54 118,113.85 119,199.23 120,241.92 121,156.54 122,156.54 123,227.69 124,156.54 125,227.69 126,270.38 127,113.85 128,241.92 129,170.77 130,270.38 131,185 132,370 133,284.62 134,142.31 135,355.77 136,370 136.99,370"><title>LR761641.1</title></polygon><rect class="average" height="1" width="136.99" x="0" y="185.87"><title>average:12.94</title></rect><rect class="median" height="1" width="136.99" x="0" y="199.23"><title>median:12</title></rect><text class="chromName" x="68.5" y="-12">LR761641.1<title>LR761641.1 58,462,999 bp</title></text><rect class="frame" height="370" width="136.99" x="0" y="0"/></g><g id="chrom-LR761642.1" transform="translate(1177.25719230686,0)"><polygon class="cov0" points="0,370 0,327.31 1,284.62 2,241.92 3,213.46 4,185 5,256.15 6,284.62 7,256.15 8,185 9,156.54 10,170.77 11,156.54 12,156.54 13,113.85 14,142.31 15,227.69 16,256.15 17,128.08 18,128.08 19,113.85 20,128.08 21,113.85 22,99.62 23,199.23 24,156.54 25,128.08 26,156.54 27,185 28,213.46 29,142.31 30,199.23 31,142.31 32,156.54 33,227.69 34,185 35,298.85 36,142.31 37,170.77 38,128.08 39,170.77 40,156.54 41,185 42,142.31 43,156.54 44,156.54 45,227.69 46,156.54 47,270.38 48,227.69 49,313.08 50,199.23 51,213.46 52,227.69 53,128.08 54,142.31 55,227.69 56,170.77 57,213.46 58,227.69 59,156.54 60,156.54 61,341.54 62,199.23 63,170.77 64,185 65,170.77 66,170.77 67,313.08 68,256.15 69,170.77 70,142.31 71,227.69 72,142.31 73,199.23 74,142.31 75,199.23 76,313.08 77,156.54 78,142.31 79,241.92 80,227.69 81,185 82,298.85 83,270.38 84,298.85 85,185 86,313.08 86.91,370"><title>LR761642.1</title></polygon><rect class="average" height="1" width="86.91" x="0" y="167.91"><title>average:14.2</title></rect><rect class="median" height="1" width="86.91" x="0" y="185"><title>median:13</title></rect><text class="chromName" x="43.45" y="-12">LR761642.1<title>LR761642.1 37,089,910 bp</title></text><rect class="frame" height="370" width="86.91" x="0" y="0"/></g><g id="chrom-LR761643.1" transform="translate(1265.1671710093603,0)"><polygon class="cov1" points="0,370 0,341.54 1,284.62 2,170.77 3,113.85 4,128.08 5,256.15 6,185 7,156.54 8,156.54 9,142.31 10,142.31 11,185 12,142.31 13,199.23 14,241.92 15,156.54 16,128.08 17,156.54 18,156.54 19,185 20,341.54 21,170.77 22,128.08 23,142.31 24,213.46 25,185 26,355.77 27,327.31 28,270.38 29,142.31 30,241.92 31,170.77 32,241.92 33,156.54 34,185 35,227.69 36,241.92 37,142.31 38,156.54 39,142.31 40,156.54 41,170.77 42,185 43,284.62 44,170.77 45,185 46,156.54 47,284.62 48,185 49,170.77 50,199.23 51,156.54 52,156.54 53,185 54,185 55,156.54 56,142.31 57,156.54 58,199.23 59,142.31 60,156.54 61,156.54 62,185 63,170.77 64,170.77 65,199.23 66,185 67,170.77 68,170.77 69,156.54 70,170.77 71,256.15 72,213.46 73,241.92 74,142.31 75,227.69 76,156.54 77,142.31 78,213.46 79,284.62 80,156.54 81,142.31 82,156.54 84,156.54 85,142.31 86,156.54 87,142.31 88,170.77 89,355.77 90,185 91,142.31 92,142.31 93,156.54 94,142.31 95,170.77 96,128.08 97,142.31 100,142.31 101,213.46 102,156.54 103,156.54 104,170.77 105,156.54 106,142.31 107,142.31 108,156.54 109,142.31 112,142.31 113,241.92 114,170.77 115,142.31 116,128.08 117,128.08 118,142.31 119,170.77 120,142.31 121,128.08 123,128.08 124,156.54 125,128.08 126,128.08 127,170.77 128,128.08 129,128.08 130,170.77 131,185 132,128.08 133,241.92 134,227.69 134.83,370"><title>LR761643.1</title></polygon><rect class="average" height="1" width="134.83" x="0" y="171.65"><title>average:13.94</title></rect><rect class="median" height="1" width="134.83" x="0" y="170.77"><title>median:14</title></rect><text class="chromName" x="67.42" y="-12">LR761643.1<title>LR761643.1 57,541,580 bp</title></text><rect class="frame" height="370" width="134.83" x="0" y="0"/></g><g><line class="ruler" x1="-2" x2="1390" y1="333" y2="333"><title>2</title></line><text class="ruler" x="-5" y="333">2</text><line class="ruler" x1="-2" x2="1390" y1="296" y2="296"><title>5</title></line><text class="ruler" x="-5" y="296">5</text><line class="ruler" x1="-2" x2="1390" y1="259" y2="259"><title>7</title></line><text class="ruler" x="-5" y="259">7</text><line class="ruler" x1="-2" x2="1390" y1="222" y2="222"><title>10</title></line><text class="ruler" x="-5" y="222">10</text><line class="ruler" x1="-2" x2="1390" y1="185" y2="185"><title>13</title></line><text class="ruler" x="-5" y="185">13</text><line class="ruler" x1="-2" x2="1390" y1="148" y2="148"><title>15</title></line><text class="ruler" x="-5" y="148">15</text><line class="ruler" x1="-2" x2="1390" y1="111" y2="111"><title>18</title></line><text class="ruler" x="-5" y="111">18</text><line class="ruler" x1="-2" x2="1390" y1="74" y2="74"><title>20</title></line><text class="ruler" x="-5" y="74">20</text><line class="ruler" x1="-2" x2="1390" y1="37" y2="37"><title>23</title></line><text class="ruler" x="-5" y="37">23</text><line class="ruler" x1="-2" x2="1390" y1="0" y2="0"><title>26</title></line><text class="ruler" x="-5" y="0">26</text></g></g><text class="title" x="795" y="40">F11_M12_24.merged.realigned.bam F11_M12_24 F11_M12_24_1 F11_M12_24_2<title>./F11_M12_24.merged.realigned.bam</title></text><text class="xLabel" x="795" y="475">GCA_902806645.1_cgigas_uk_roslin_v1_genomic.fna  (589,358,857 bp)<title>../ref/GCA_902806645.1_cgigas_uk_roslin_v1_genomic.fna</title></text><text class="yLabel" transform="translate(25,265) rotate(90)" x="0" y="0">Coverage bp (median)</text></g></svg>