<?xml version="1.0" encoding="UTF-8" standalone="no"?><svg height="500" width="1500" xmlns="http://www.w3.org/2000/svg"><title>F11_M11_14.merged.realigned.bam</title><desc>Made with wgscoverageplotter undefined Author: Pierre Lindenbaum</desc><style>g.maing {stroke:black;stroke-width:0.5px;fill:none;}
text.title {stroke:none;fill:black;stroke-width:1px;text-anchor:middle;}
rect.frame {stroke:darkgray;fill:none;stroke-width:0.5px;}
text.ruler {stroke:none;fill:darkgray;stroke-width:1px;text-anchor:end;}
text.chromName {stroke:none;fill:darkgray;stroke-width:1px;text-anchor:middle;}
text.xLabel {stroke:none;fill:black;stroke-width:1px;text-anchor:middle;}
text.yLabel {stroke:none;fill:black;stroke-width:1px;text-anchor:middle;}
.cov0 {stroke:gray;fill:antiquewhite;stroke-width:0.5px;}
.cov1 {stroke:gray;fill:beige;stroke-width:0.5px;}
rect.average {stroke:green;fill:green;stroke-width:0.5px;opacity:0.3;}
rect.median {stroke:red;fill:red;stroke-width:0.5px;opacity:0.3;}
line.ruler {stroke:darkgray;stroke-dasharray:4;fill:none;stroke-width:1;}
</style><g class="maing"><g id="chromosomes" transform="translate(100.0,80.0)"><g id="chrom-LR761634.1" transform="translate(10.0,0)"><polygon class="cov0" points="0,370 0,313.08 1,128.08 2,156.54 3,256.15 4,213.46 5,185 6,256.15 7,199.23 8,156.54 9,142.31 10,156.54 11,128.08 12,170.77 13,227.69 14,270.38 15,142.31 16,128.08 17,199.23 18,142.31 19,142.31 20,128.08 21,156.54 23,156.54 24,170.77 25,113.85 26,128.08 27,142.31 31,142.31 32,270.38 33,142.31 34,142.31 35,156.54 36,128.08 37,199.23 38,185 39,156.54 40,142.31 41,128.08 42,142.31 43,185 44,156.54 45,213.46 46,185 47,142.31 48,170.77 49,142.31 50,156.54 51,156.54 52,128.08 53,142.31 54,270.38 55,341.54 56,128.08 57,113.85 58,142.31 59,156.54 60,156.54 61,128.08 62,156.54 63,185 64,213.46 65,170.77 66,156.54 67,199.23 68,128.08 69,199.23 70,142.31 71,142.31 72,227.69 73,170.77 74,156.54 75,128.08 76,142.31 77,199.23 78,156.54 79,156.54 80,284.62 81,284.62 82,128.08 83,142.31 84,156.54 85,142.31 86,128.08 87,199.23 88,128.08 89,270.38 90,156.54 91,142.31 92,142.31 93,170.77 94,113.85 95,128.08 96,113.85 97,170.77 98,327.31 99,142.31 100,142.31 101,185 102,156.54 103,142.31 104,199.23 105,128.08 106,199.23 107,199.23 108,227.69 109,128.08 110,113.85 111,142.31 112,128.08 113,185 114,313.08 115,213.46 116,113.85 117,142.31 118,113.85 119,156.54 120,185 121,128.08 122,142.31 123,128.08 124,142.31 125,128.08 126,128.08 127,142.31 128,170.77 129,156.54 130,213.46 130.72,370"><title>LR761634.1</title></polygon><rect class="average" height="1" width="130.72" x="0" y="161.3"><title>average:14.67</title></rect><rect class="median" height="1" width="130.72" x="0" y="156.54"><title>median:15</title></rect><text class="chromName" x="65.36" y="-12">LR761634.1<title>LR761634.1 55,785,328 bp</title></text><rect class="frame" height="370" width="130.72" x="0" y="0"/></g><g id="chrom-LR761635.1" transform="translate(141.71753661284166,0)"><polygon class="cov1" points="0,370 0,341.54 1,355.77 2,327.31 3,241.92 4,341.54 5,327.31 6,241.92 7,313.08 8,298.85 9,170.77 10,185 11,256.15 12,185 13,156.54 14,256.15 15,298.85 16,327.31 17,241.92 18,284.62 19,241.92 20,284.62 21,270.38 22,270.38 23,284.62 24,355.77 25,327.31 26,313.08 27,355.77 28,298.85 29,355.77 30,327.31 31,327.31 32,256.15 33,213.46 34,227.69 35,270.38 36,241.92 37,313.08 38,341.54 39,185 40,213.46 41,256.15 42,185 43,199.23 44,142.31 45,199.23 46,199.23 47,170.77 48,298.85 49,185 50,227.69 51,327.31 52,227.69 53,227.69 54,270.38 55,270.38 56,327.31 57,298.85 58,185 59,298.85 60,370 61,270.38 62,142.31 63,298.85 64,313.08 65,270.38 66,284.62 67,256.15 68,213.46 69,298.85 70,298.85 71,170.77 72,256.15 73,199.23 74,256.15 75,213.46 76,341.54 77,0 78,241.92 79,298.85 80,170.77 81,284.62 82,313.08 85,313.08 86,341.54 87,355.77 88,327.31 89,370 90,270.38 91,341.54 92,327.31 93,270.38 95,270.38 96,313.08 97,284.62 98,327.31 99,298.85 100,270.38 101,313.08 102,298.85 103,213.46 104,227.69 105,199.23 106,256.15 107,313.08 108,199.23 109,213.46 110,256.15 111,185 112,341.54 113,313.08 114,313.08 115,341.54 116,298.85 117,298.85 118,170.77 119,185 120,142.31 121,213.46 122,241.92 123,241.92 124,270.38 125,156.54 126,241.92 127,241.92 128,156.54 129,270.38 130,199.23 131,256.15 132,227.69 133,327.31 134,313.08 135,284.62 136,327.31 137,313.08 138,327.31 139,284.62 140,355.77 141,313.08 142,284.62 143,313.08 144,284.62 145,213.46 146,270.38 147,156.54 148,170.77 149,142.31 150,227.69 151,284.62 152,341.54 153,241.92 154,284.62 155,270.38 156,284.62 157,270.38 158,213.46 159,156.54 160,241.92 161,213.46 162,256.15 163,241.92 164,213.46 165,270.38 166,313.08 167,327.31 168,298.85 169,284.62 170,298.85 171,313.08 171.58,370"><title>LR761635.1</title></polygon><rect class="average" height="1" width="171.58" x="0" y="213.66"><title>average:10.99</title></rect><rect class="median" height="1" width="171.58" x="0" y="270.38"><title>median:7</title></rect><text class="chromName" x="85.79" y="-12">LR761635.1<title>LR761635.1 73,222,313 bp</title></text><rect class="frame" height="370" width="171.58" x="0" y="0"/></g><g id="chrom-LR761636.1" transform="translate(314.2938403401308,0)"><polygon class="cov0" points="0,370 0,256.15 1,156.54 2,213.46 3,313.08 4,227.69 5,128.08 6,156.54 7,156.54 8,113.85 9,142.31 10,128.08 11,128.08 12,142.31 13,227.69 14,113.85 15,142.31 16,128.08 17,128.08 18,142.31 20,142.31 21,128.08 23,128.08 24,185 25,128.08 26,185 27,256.15 28,128.08 29,113.85 30,128.08 31,128.08 32,113.85 33,128.08 34,142.31 35,185 36,142.31 37,185 38,142.31 39,142.31 40,170.77 42,170.77 43,156.54 44,142.31 45,142.31 46,170.77 47,142.31 48,213.46 49,156.54 50,170.77 51,128.08 52,142.31 53,142.31 54,270.38 55,185 56,170.77 57,142.31 58,156.54 59,142.31 60,170.77 61,227.69 62,170.77 63,156.54 64,142.31 65,156.54 67,156.54 68,170.77 69,170.77 70,185 71,113.85 72,128.08 73,170.77 75,170.77 76,298.85 77,227.69 78,241.92 79,270.38 80,256.15 81,142.31 82,227.69 83,156.54 84,128.08 85,142.31 86,241.92 87,156.54 88,156.54 89,227.69 90,156.54 91,128.08 92,185 93,156.54 94,142.31 95,199.23 96,213.46 97,142.31 98,142.31 99,185 100,156.54 101,170.77 102,156.54 103,128.08 104,142.31 107,142.31 108,128.08 109,128.08 110,142.31 111,156.54 112,156.54 113,142.31 114,128.08 115,128.08 116,142.31 117,142.31 118,170.77 119,142.31 120,142.31 121,199.23 122,128.08 123,128.08 124,199.23 125,128.08 126,128.08 127,199.23 128,256.15 129,128.08 130,142.31 131,185 132,170.77 133,142.31 134,128.08 135,128.08 136,256.15 136.65,370"><title>LR761636.1</title></polygon><rect class="average" height="1" width="136.65" x="0" y="157.62"><title>average:14.92</title></rect><rect class="median" height="1" width="136.65" x="0" y="156.54"><title>median:15</title></rect><text class="chromName" x="68.33" y="-12">LR761636.1<title>LR761636.1 58,319,100 bp</title></text><rect class="frame" height="370" width="136.65" x="0" y="0"/></g><g id="chrom-LR761637.1" transform="translate(451.9485730949149,0)"><polygon class="cov1" points="0,370 0,355.77 1,241.92 2,284.62 3,227.69 4,227.69 5,185 6,227.69 7,256.15 8,213.46 9,298.85 10,313.08 11,142.31 12,256.15 13,270.38 14,270.38 15,185 16,199.23 17,156.54 18,298.85 19,298.85 20,241.92 21,185 22,170.77 23,213.46 24,313.08 25,199.23 26,142.31 27,227.69 28,227.69 29,256.15 30,270.38 31,156.54 33,156.54 34,128.08 35,199.23 36,284.62 37,327.31 38,156.54 39,156.54 40,142.31 41,241.92 42,199.23 43,270.38 44,313.08 45,227.69 46,156.54 47,142.31 49,142.31 50,199.23 51,156.54 52,113.85 53,170.77 54,128.08 55,142.31 56,170.77 57,241.92 58,284.62 59,313.08 60,313.08 61,227.69 62,142.31 63,142.31 64,128.08 65,156.54 66,142.31 67,170.77 68,199.23 69,128.08 70,156.54 71,156.54 72,185 73,142.31 74,170.77 75,170.77 76,142.31 77,170.77 78,170.77 79,199.23 80,170.77 81,170.77 82,142.31 83,156.54 84,156.54 85,142.31 86,227.69 87,170.77 88,142.31 89,156.54 90,128.08 91,142.31 92,128.08 93,185 94,199.23 95,227.69 96,199.23 97,142.31 98,113.85 99,128.08 100,185 101,227.69 102,213.46 103,241.92 104,227.69 105,227.69 106,128.08 107,113.85 108,128.08 109,128.08 110,99.62 111,156.54 112,128.08 113,113.85 114,284.62 115,199.23 116,170.77 117,170.77 118,142.31 119,313.08 120,156.54 121,128.08 122,284.62 123,270.38 124,227.69 124.49,370"><title>LR761637.1</title></polygon><rect class="average" height="1" width="124.49" x="0" y="178.01"><title>average:13.49</title></rect><rect class="median" height="1" width="124.49" x="0" y="185"><title>median:13</title></rect><text class="chromName" x="62.25" y="-12">LR761637.1<title>LR761637.1 53,127,865 bp</title></text><rect class="frame" height="370" width="124.49" x="0" y="0"/></g><g id="chrom-LR761638.1" transform="translate(577.4390778079033,0)"><polygon class="cov0" points="0,370 0,227.69 1,170.77 2,313.08 3,142.31 4,213.46 5,128.08 6,213.46 7,199.23 8,185 9,128.08 10,170.77 11,298.85 12,142.31 13,170.77 14,128.08 15,156.54 16,99.62 17,142.31 18,241.92 19,298.85 20,142.31 21,241.92 22,142.31 23,128.08 24,128.08 25,185 26,355.77 27,128.08 28,185 29,298.85 30,270.38 31,156.54 32,355.77 33,327.31 34,199.23 35,256.15 36,170.77 37,298.85 38,298.85 39,341.54 40,341.54 41,313.08 42,270.38 43,142.31 44,156.54 45,327.31 46,185 47,113.85 48,128.08 49,213.46 50,341.54 51,241.92 52,199.23 53,170.77 54,241.92 55,241.92 56,156.54 57,213.46 58,156.54 59,213.46 60,199.23 61,227.69 62,170.77 63,313.08 64,327.31 65,327.31 66,227.69 67,227.69 68,185 69,241.92 70,185 71,355.77 72,355.77 73,284.62 74,270.38 75,341.54 76,341.54 77,213.46 78,327.31 79,313.08 80,298.85 81,185 82,327.31 83,327.31 84,298.85 85,199.23 86,156.54 87,170.77 88,313.08 89,142.31 90,284.62 91,142.31 92,113.85 93,128.08 94,142.31 95,227.69 96,313.08 97,156.54 98,313.08 99,199.23 100,213.46 101,170.77 102,298.85 103,185 104,284.62 105,298.85 106,241.92 107,185 108,213.46 109,170.77 110,227.69 111,185 112,298.85 113,213.46 114,256.15 115,270.38 116,327.31 117,313.08 118,355.77 119,298.85 120,256.15 121,355.77 122,355.77 123,370 124,298.85 125,327.31 126,327.31 127,298.85 128,370 129,284.62 130,327.31 131,327.31 132,256.15 133,327.31 134,256.15 135,313.08 136,170.77 137,298.85 138,313.08 139,270.38 140,327.31 141,370 142,298.85 143,270.38 144,185 145,199.23 146,256.15 147,156.54 148,170.77 149,170.77 150,199.23 151,284.62 152,156.54 153,156.54 154,256.15 155,298.85 156,185 157,256.15 158,298.85 159,313.08 160,355.77 161,313.08 162,284.62 163,284.62 164,327.31 165,341.54 166,341.54 167,370 168,355.77 169,241.92 170,370 171,355.77 172,355.77 172.35,370"><title>LR761638.1</title></polygon><rect class="average" height="1" width="172.35" x="0" y="212.4"><title>average:11.07</title></rect><rect class="median" height="1" width="172.35" x="0" y="256.15"><title>median:8</title></rect><text class="chromName" x="86.17" y="-12">LR761638.1<title>LR761638.1 73,550,375 bp</title></text><rect class="frame" height="370" width="172.35" x="0" y="0"/></g><g id="chrom-LR761639.1" transform="translate(750.784104388203,0)"><polygon class="cov1" points="0,370 0,313.08 1,156.54 2,113.85 3,241.92 4,156.54 5,227.69 6,355.77 7,284.62 8,142.31 9,128.08 10,170.77 11,270.38 12,213.46 13,128.08 14,170.77 15,142.31 16,142.31 17,128.08 18,142.31 19,128.08 20,128.08 21,142.31 22,156.54 23,170.77 24,185 25,213.46 26,185 27,270.38 28,355.77 29,213.46 30,256.15 31,128.08 32,170.77 33,128.08 34,199.23 35,213.46 36,241.92 37,142.31 39,142.31 40,241.92 41,142.31 42,142.31 43,128.08 44,142.31 45,128.08 46,170.77 47,142.31 48,142.31 49,170.77 50,170.77 51,142.31 52,199.23 53,156.54 54,170.77 55,142.31 58,142.31 59,128.08 61,128.08 62,142.31 63,156.54 64,113.85 65,128.08 66,170.77 67,142.31 68,142.31 69,213.46 70,156.54 72,156.54 73,142.31 74,241.92 75,142.31 76,142.31 77,156.54 78,128.08 79,142.31 80,156.54 81,142.31 83,142.31 84,213.46 85,156.54 86,128.08 87,142.31 88,128.08 89,142.31 90,128.08 91,142.31 92,142.31 93,170.77 94,170.77 95,142.31 96,156.54 97,128.08 98,128.08 99,142.31 100,142.31 101,128.08 102,156.54 103,156.54 104,128.08 105,142.31 106,256.15 107,142.31 108,128.08 109,142.31 110,128.08 111,341.54 112,185 113,128.08 114,185 115,128.08 116,156.54 117,142.31 118,142.31 119,128.08 120,170.77 121,128.08 123,128.08 124,170.77 125,128.08 127,128.08 128,156.54 129,128.08 130,170.77 131,156.54 132,185 133,370 134,128.08 135,170.77 136,142.31 137,142.31 138,185 139,142.31 140,199.23 140.95,370"><title>LR761639.1</title></polygon><rect class="average" height="1" width="140.95" x="0" y="159.23"><title>average:14.81</title></rect><rect class="median" height="1" width="140.95" x="0" y="156.54"><title>median:15</title></rect><text class="chromName" x="70.47" y="-12">LR761639.1<title>LR761639.1 60,151,564 bp</title></text><rect class="frame" height="370" width="140.95" x="0" y="0"/></g><g id="chrom-LR761640.1" transform="translate(892.7327113317651,0)"><polygon class="cov0" points="0,370 0,185 1,128.08 2,199.23 3,170.77 4,170.77 5,128.08 6,199.23 7,199.23 8,128.08 9,170.77 10,142.31 11,142.31 12,113.85 13,270.38 14,170.77 15,142.31 16,227.69 17,142.31 18,128.08 19,213.46 20,142.31 22,142.31 23,113.85 24,142.31 25,170.77 26,128.08 27,142.31 28,156.54 29,142.31 33,142.31 34,156.54 35,142.31 36,142.31 37,213.46 38,128.08 39,170.77 40,128.08 41,128.08 42,113.85 43,128.08 44,128.08 45,156.54 46,142.31 47,270.38 48,313.08 49,128.08 50,185 51,142.31 52,128.08 53,156.54 54,128.08 56,128.08 57,227.69 58,156.54 59,185 60,256.15 61,142.31 62,156.54 63,199.23 64,142.31 65,284.62 66,142.31 67,156.54 68,156.54 69,199.23 70,185 71,142.31 72,170.77 73,185 74,185 75,156.54 76,142.31 77,241.92 78,142.31 79,170.77 80,128.08 81,113.85 82,128.08 83,142.31 85,142.31 86,313.08 87,156.54 88,170.77 90,170.77 91,341.54 92,270.38 93,199.23 94,241.92 95,170.77 96,142.31 97,142.31 98,170.77 99,156.54 100,128.08 101,156.54 102,341.54 103,227.69 104,142.31 105,128.08 106,142.31 107,185 108,227.69 109,142.31 110,170.77 111,213.46 112,156.54 113,156.54 114,185 115,128.08 116,298.85 117,341.54 118,355.77 119,298.85 120,142.31 121,128.08 122,142.31 124,142.31 125,128.08 126,128.08 127,142.31 128,284.62 129,156.54 130,142.31 131,128.08 132,156.54 133,128.08 134,113.85 135,128.08 136,142.31 138,142.31 139,185 140,156.54 141,142.31 142,170.77 143,241.92 144,128.08 145,128.08 145.53,370"><title>LR761640.1</title></polygon><rect class="average" height="1" width="145.53" x="0" y="163.96"><title>average:14.48</title></rect><rect class="median" height="1" width="145.53" x="0" y="156.54"><title>median:15</title></rect><text class="chromName" x="72.77" y="-12">LR761640.1<title>LR761640.1 62,107,823 bp</title></text><rect class="frame" height="370" width="145.53" x="0" y="0"/></g><g id="chrom-LR761641.1" transform="translate(1039.265271917344,0)"><polygon class="cov1" points="0,370 0,284.62 1,170.77 2,241.92 3,185 4,185 5,199.23 6,298.85 7,270.38 8,298.85 9,185 10,142.31 11,213.46 12,213.46 13,99.62 14,227.69 15,128.08 16,142.31 17,298.85 18,128.08 19,142.31 20,142.31 21,170.77 22,213.46 23,156.54 24,185 25,170.77 26,199.23 27,199.23 28,227.69 29,227.69 30,213.46 31,170.77 32,213.46 33,227.69 34,313.08 35,298.85 36,327.31 37,270.38 38,227.69 39,256.15 40,199.23 41,227.69 42,227.69 43,256.15 44,213.46 45,227.69 46,284.62 47,227.69 48,227.69 49,156.54 50,170.77 51,156.54 52,128.08 54,128.08 55,113.85 56,128.08 57,170.77 58,199.23 59,199.23 60,156.54 61,355.77 62,156.54 63,199.23 64,213.46 65,199.23 66,199.23 67,213.46 68,256.15 69,156.54 70,185 71,142.31 72,199.23 73,313.08 74,227.69 75,313.08 76,213.46 77,185 78,156.54 79,227.69 80,256.15 81,341.54 82,341.54 83,327.31 84,185 85,170.77 86,270.38 87,128.08 88,199.23 89,185 90,284.62 91,270.38 92,128.08 93,256.15 94,256.15 95,185 96,170.77 97,355.77 98,156.54 99,370 100,270.38 101,113.85 102,185 103,113.85 104,170.77 105,142.31 106,241.92 107,128.08 108,142.31 110,142.31 111,298.85 112,156.54 113,213.46 114,142.31 115,156.54 116,128.08 117,156.54 118,156.54 119,213.46 120,213.46 121,170.77 122,156.54 123,241.92 124,156.54 125,227.69 126,256.15 127,128.08 128,270.38 129,199.23 130,270.38 131,213.46 132,370 133,298.85 134,170.77 135,355.77 136,355.77 136.99,370"><title>LR761641.1</title></polygon><rect class="average" height="1" width="136.99" x="0" y="184.9"><title>average:13.01</title></rect><rect class="median" height="1" width="136.99" x="0" y="213.46"><title>median:11</title></rect><text class="chromName" x="68.5" y="-12">LR761641.1<title>LR761641.1 58,462,999 bp</title></text><rect class="frame" height="370" width="136.99" x="0" y="0"/></g><g id="chrom-LR761642.1" transform="translate(1177.25719230686,0)"><polygon class="cov0" points="0,370 0,313.08 1,355.77 2,341.54 3,256.15 4,313.08 5,327.31 6,327.31 7,313.08 8,298.85 10,298.85 11,270.38 12,256.15 13,128.08 14,213.46 15,213.46 16,284.62 17,241.92 18,284.62 19,227.69 20,213.46 21,170.77 22,298.85 23,270.38 24,170.77 25,128.08 26,156.54 27,170.77 28,213.46 29,156.54 30,185 31,142.31 32,170.77 33,213.46 34,170.77 35,284.62 36,142.31 37,170.77 38,128.08 39,170.77 40,142.31 41,185 42,128.08 43,156.54 44,156.54 45,227.69 46,156.54 47,256.15 48,298.85 49,298.85 50,199.23 51,199.23 52,213.46 53,142.31 54,142.31 55,213.46 56,170.77 57,213.46 58,227.69 59,142.31 60,156.54 61,313.08 62,227.69 63,156.54 64,199.23 65,156.54 66,170.77 67,327.31 68,241.92 69,170.77 70,156.54 71,256.15 72,142.31 73,213.46 74,142.31 75,213.46 76,284.62 77,156.54 78,142.31 79,256.15 80,241.92 81,185 82,313.08 83,256.15 84,284.62 85,213.46 86,313.08 86.91,370"><title>LR761642.1</title></polygon><rect class="average" height="1" width="86.91" x="0" y="184.37"><title>average:13.04</title></rect><rect class="median" height="1" width="86.91" x="0" y="213.46"><title>median:11</title></rect><text class="chromName" x="43.45" y="-12">LR761642.1<title>LR761642.1 37,089,910 bp</title></text><rect class="frame" height="370" width="86.91" x="0" y="0"/></g><g id="chrom-LR761643.1" transform="translate(1265.1671710093603,0)"><polygon class="cov1" points="0,370 0,341.54 1,270.38 2,156.54 3,128.08 4,170.77 5,227.69 6,185 7,185 8,156.54 9,128.08 10,142.31 11,170.77 12,142.31 13,199.23 14,241.92 15,142.31 16,128.08 17,170.77 18,156.54 19,199.23 20,341.54 21,170.77 22,128.08 23,142.31 24,170.77 25,170.77 26,355.77 27,341.54 28,298.85 29,128.08 30,227.69 31,156.54 32,227.69 33,156.54 34,128.08 35,213.46 36,256.15 37,128.08 38,142.31 39,128.08 40,156.54 41,156.54 42,185 43,284.62 44,156.54 45,170.77 46,142.31 47,241.92 48,170.77 49,156.54 50,185 51,142.31 52,142.31 53,170.77 54,170.77 55,142.31 56,128.08 57,142.31 58,185 59,142.31 60,128.08 61,128.08 62,170.77 63,156.54 64,156.54 65,199.23 66,156.54 68,156.54 69,142.31 70,156.54 71,256.15 72,213.46 73,227.69 74,142.31 75,227.69 76,156.54 77,128.08 78,199.23 79,284.62 80,142.31 81,128.08 82,156.54 83,142.31 84,128.08 85,142.31 86,142.31 87,128.08 88,170.77 89,355.77 90,170.77 91,128.08 92,128.08 93,156.54 94,128.08 95,170.77 96,128.08 98,128.08 99,113.85 100,142.31 101,256.15 102,142.31 103,156.54 104,170.77 105,156.54 106,128.08 107,128.08 108,156.54 109,113.85 110,113.85 111,128.08 112,128.08 113,227.69 114,156.54 115,142.31 116,113.85 117,128.08 118,128.08 119,156.54 120,128.08 123,128.08 124,142.31 125,142.31 126,113.85 127,199.23 128,142.31 129,128.08 130,185 131,199.23 132,128.08 133,256.15 134,298.85 134.83,370"><title>LR761643.1</title></polygon><rect class="average" height="1" width="134.83" x="0" y="165.73"><title>average:14.35</title></rect><rect class="median" height="1" width="134.83" x="0" y="156.54"><title>median:15</title></rect><text class="chromName" x="67.42" y="-12">LR761643.1<title>LR761643.1 57,541,580 bp</title></text><rect class="frame" height="370" width="134.83" x="0" y="0"/></g><g><line class="ruler" x1="-2" x2="1390" y1="333" y2="333"><title>2</title></line><text class="ruler" x="-5" y="333">2</text><line class="ruler" x1="-2" x2="1390" y1="296" y2="296"><title>5</title></line><text class="ruler" x="-5" y="296">5</text><line class="ruler" x1="-2" x2="1390" y1="259" y2="259"><title>7</title></line><text class="ruler" x="-5" y="259">7</text><line class="ruler" x1="-2" x2="1390" y1="222" y2="222"><title>10</title></line><text class="ruler" x="-5" y="222">10</text><line class="ruler" x1="-2" x2="1390" y1="185" y2="185"><title>13</title></line><text class="ruler" x="-5" y="185">13</text><line class="ruler" x1="-2" x2="1390" y1="148" y2="148"><title>15</title></line><text class="ruler" x="-5" y="148">15</text><line class="ruler" x1="-2" x2="1390" y1="111" y2="111"><title>18</title></line><text class="ruler" x="-5" y="111">18</text><line class="ruler" x1="-2" x2="1390" y1="74" y2="74"><title>20</title></line><text class="ruler" x="-5" y="74">20</text><line class="ruler" x1="-2" x2="1390" y1="37" y2="37"><title>23</title></line><text class="ruler" x="-5" y="37">23</text><line class="ruler" x1="-2" x2="1390" y1="0" y2="0"><title>26</title></line><text class="ruler" x="-5" y="0">26</text></g></g><text class="title" x="795" y="40">F11_M11_14.merged.realigned.bam F11_M11_14 F11_M11_14_1 F11_M11_14_2<title>./F11_M11_14.merged.realigned.bam</title></text><text class="xLabel" x="795" y="475">GCA_902806645.1_cgigas_uk_roslin_v1_genomic.fna  (589,358,857 bp)<title>../ref/GCA_902806645.1_cgigas_uk_roslin_v1_genomic.fna</title></text><text class="yLabel" transform="translate(25,265) rotate(90)" x="0" y="0">Coverage bp (median)</text></g></svg>