<?xml version="1.0" encoding="UTF-8" standalone="no"?><svg height="500" width="1500" xmlns="http://www.w3.org/2000/svg"><title>F11_M12_14.merged.realigned.bam</title><desc>Made with wgscoverageplotter undefined Author: Pierre Lindenbaum</desc><style>g.maing {stroke:black;stroke-width:0.5px;fill:none;}
text.title {stroke:none;fill:black;stroke-width:1px;text-anchor:middle;}
rect.frame {stroke:darkgray;fill:none;stroke-width:0.5px;}
text.ruler {stroke:none;fill:darkgray;stroke-width:1px;text-anchor:end;}
text.chromName {stroke:none;fill:darkgray;stroke-width:1px;text-anchor:middle;}
text.xLabel {stroke:none;fill:black;stroke-width:1px;text-anchor:middle;}
text.yLabel {stroke:none;fill:black;stroke-width:1px;text-anchor:middle;}
.cov0 {stroke:gray;fill:antiquewhite;stroke-width:0.5px;}
.cov1 {stroke:gray;fill:beige;stroke-width:0.5px;}
rect.average {stroke:green;fill:green;stroke-width:0.5px;opacity:0.3;}
rect.median {stroke:red;fill:red;stroke-width:0.5px;opacity:0.3;}
line.ruler {stroke:darkgray;stroke-dasharray:4;fill:none;stroke-width:1;}
</style><g class="maing"><g id="chromosomes" transform="translate(100.0,80.0)"><g id="chrom-LR761634.1" transform="translate(10.0,0)"><polygon class="cov0" points="0,370 0,304.71 1,119.71 2,152.35 3,293.82 4,228.53 5,152.35 6,282.94 7,206.76 8,152.35 9,141.47 10,163.24 11,130.59 12,163.24 13,206.76 14,272.06 15,141.47 16,141.47 17,163.24 18,141.47 19,141.47 20,130.59 21,152.35 22,163.24 23,185 24,174.12 25,130.59 26,130.59 27,152.35 28,152.35 29,141.47 30,163.24 31,152.35 32,272.06 33,141.47 34,152.35 35,163.24 36,130.59 37,195.88 38,217.65 39,174.12 40,141.47 41,141.47 42,152.35 43,185 44,174.12 45,239.41 46,185 47,163.24 49,163.24 50,152.35 51,152.35 52,141.47 53,152.35 54,272.06 55,337.35 56,141.47 57,119.71 58,152.35 59,163.24 60,174.12 61,141.47 62,163.24 63,185 64,206.76 65,174.12 66,152.35 67,195.88 68,141.47 69,195.88 70,152.35 71,141.47 72,228.53 73,185 74,163.24 75,141.47 76,152.35 77,195.88 78,174.12 79,152.35 80,228.53 81,239.41 82,141.47 83,152.35 84,163.24 85,152.35 86,130.59 87,206.76 88,141.47 89,261.18 90,185 91,163.24 92,141.47 93,174.12 94,130.59 95,141.47 96,130.59 97,174.12 98,315.59 99,141.47 100,141.47 101,185 102,152.35 103,174.12 104,195.88 105,130.59 106,217.65 107,185 108,261.18 109,119.71 110,119.71 111,130.59 112,130.59 113,163.24 114,315.59 115,195.88 116,119.71 117,130.59 118,108.82 119,163.24 120,195.88 121,130.59 124,130.59 125,119.71 126,119.71 127,141.47 128,185 129,152.35 130,174.12 130.72,370"><title>LR761634.1</title></polygon><rect class="average" height="1" width="130.72" x="0" y="166.29"><title>average:18.72</title></rect><rect class="median" height="1" width="130.72" x="0" y="163.24"><title>median:19</title></rect><text class="chromName" x="65.36" y="-12">LR761634.1<title>LR761634.1 55,785,328 bp</title></text><rect class="frame" height="370" width="130.72" x="0" y="0"/></g><g id="chrom-LR761635.1" transform="translate(141.71753661284166,0)"><polygon class="cov1" points="0,370 0,348.24 1,359.12 2,315.59 3,282.94 4,359.12 5,337.35 6,261.18 7,304.71 8,293.82 9,272.06 10,293.82 11,326.47 12,304.71 13,130.59 14,228.53 15,239.41 16,282.94 17,217.65 18,261.18 19,239.41 20,326.47 21,261.18 22,272.06 23,261.18 24,359.12 25,337.35 26,359.12 27,359.12 28,315.59 29,359.12 30,337.35 31,326.47 32,250.29 33,195.88 34,174.12 35,250.29 36,217.65 37,304.71 38,315.59 39,163.24 40,185 41,228.53 42,163.24 43,185 45,185 46,195.88 47,130.59 48,228.53 49,163.24 50,195.88 51,261.18 52,185 53,261.18 54,293.82 55,250.29 56,272.06 57,261.18 58,174.12 59,293.82 60,337.35 61,282.94 62,141.47 63,272.06 64,304.71 65,239.41 66,282.94 67,228.53 68,206.76 69,293.82 70,261.18 71,185 72,206.76 73,195.88 74,261.18 75,217.65 76,337.35 77,0 78,250.29 79,293.82 80,141.47 81,261.18 82,282.94 83,315.59 84,348.24 85,304.71 86,337.35 87,348.24 88,315.59 89,359.12 90,261.18 91,315.59 92,315.59 93,282.94 94,272.06 95,261.18 96,293.82 97,250.29 98,293.82 99,282.94 100,272.06 101,293.82 102,304.71 103,185 104,152.35 105,185 106,239.41 107,282.94 108,195.88 109,217.65 110,272.06 111,185 112,337.35 113,304.71 114,304.71 115,348.24 116,293.82 117,293.82 118,174.12 119,185 120,141.47 121,217.65 122,239.41 123,239.41 124,261.18 125,152.35 126,239.41 127,261.18 128,130.59 129,206.76 130,174.12 131,315.59 132,195.88 133,326.47 134,337.35 135,282.94 136,337.35 138,337.35 139,304.71 140,359.12 141,315.59 142,315.59 143,337.35 144,315.59 145,206.76 146,282.94 147,141.47 148,152.35 149,119.71 150,250.29 151,272.06 152,359.12 153,239.41 154,261.18 155,293.82 156,282.94 157,261.18 158,261.18 159,163.24 160,250.29 161,206.76 162,185 163,195.88 164,239.41 165,261.18 166,315.59 167,348.24 168,315.59 169,326.47 170,293.82 171,326.47 171.58,370"><title>LR761635.1</title></polygon><rect class="average" height="1" width="171.58" x="0" y="207.76"><title>average:14.91</title></rect><rect class="median" height="1" width="171.58" x="0" y="272.06"><title>median:9</title></rect><text class="chromName" x="85.79" y="-12">LR761635.1<title>LR761635.1 73,222,313 bp</title></text><rect class="frame" height="370" width="171.58" x="0" y="0"/></g><g id="chrom-LR761636.1" transform="translate(314.2938403401308,0)"><polygon class="cov0" points="0,370 0,337.35 1,119.71 2,239.41 3,304.71 4,228.53 5,130.59 6,141.47 7,130.59 8,108.82 9,141.47 10,119.71 11,119.71 12,141.47 13,206.76 14,108.82 15,130.59 16,119.71 17,119.71 18,130.59 19,152.35 20,130.59 21,130.59 22,141.47 23,130.59 24,195.88 25,130.59 26,185 27,250.29 28,141.47 29,130.59 30,141.47 31,130.59 32,141.47 33,130.59 34,152.35 35,174.12 36,141.47 37,185 38,152.35 39,152.35 40,174.12 41,163.24 42,174.12 43,163.24 44,152.35 45,152.35 46,185 47,152.35 48,206.76 49,152.35 50,163.24 51,130.59 52,152.35 53,152.35 54,228.53 55,174.12 56,163.24 57,141.47 58,163.24 59,152.35 60,174.12 61,217.65 62,174.12 63,152.35 64,152.35 65,163.24 66,163.24 67,174.12 68,185 69,174.12 70,206.76 71,130.59 72,141.47 73,174.12 75,174.12 76,315.59 77,228.53 78,250.29 79,261.18 80,261.18 81,152.35 82,228.53 83,152.35 84,141.47 85,152.35 86,261.18 87,163.24 88,163.24 89,217.65 90,163.24 91,141.47 92,206.76 93,163.24 94,152.35 95,185 96,217.65 97,141.47 98,152.35 99,185 100,174.12 101,152.35 102,163.24 103,130.59 104,152.35 105,141.47 106,152.35 107,152.35 108,141.47 110,141.47 111,174.12 112,163.24 113,174.12 114,141.47 116,141.47 117,152.35 118,185 119,141.47 120,141.47 121,195.88 122,141.47 123,141.47 124,195.88 125,130.59 126,130.59 127,206.76 128,261.18 129,130.59 130,141.47 131,174.12 132,141.47 133,141.47 134,119.71 135,130.59 136,304.71 136.65,370"><title>LR761636.1</title></polygon><rect class="average" height="1" width="136.65" x="0" y="162.98"><title>average:19.02</title></rect><rect class="median" height="1" width="136.65" x="0" y="163.24"><title>median:19</title></rect><text class="chromName" x="68.33" y="-12">LR761636.1<title>LR761636.1 58,319,100 bp</title></text><rect class="frame" height="370" width="136.65" x="0" y="0"/></g><g id="chrom-LR761637.1" transform="translate(451.9485730949149,0)"><polygon class="cov1" points="0,370 0,359.12 1,250.29 2,304.71 3,304.71 4,228.53 5,174.12 6,174.12 7,250.29 8,174.12 9,282.94 10,304.71 11,130.59 12,261.18 14,261.18 15,163.24 16,217.65 17,141.47 18,293.82 19,304.71 20,239.41 21,163.24 22,163.24 23,195.88 24,315.59 25,174.12 26,141.47 27,228.53 28,206.76 29,250.29 30,250.29 31,130.59 32,152.35 33,174.12 34,130.59 35,174.12 36,272.06 37,293.82 38,163.24 39,152.35 40,152.35 41,272.06 42,239.41 43,272.06 44,315.59 45,206.76 46,163.24 47,141.47 48,141.47 49,152.35 50,195.88 51,163.24 52,119.71 53,185 54,130.59 55,152.35 56,163.24 57,239.41 58,282.94 59,326.47 60,326.47 61,228.53 62,152.35 63,152.35 64,141.47 65,163.24 66,163.24 67,174.12 68,195.88 69,152.35 70,163.24 71,163.24 72,185 73,152.35 74,185 75,174.12 76,152.35 77,152.35 78,163.24 79,195.88 80,174.12 81,174.12 82,152.35 83,163.24 84,163.24 85,141.47 86,228.53 87,163.24 88,141.47 89,163.24 90,141.47 91,152.35 92,141.47 93,217.65 94,206.76 95,206.76 96,195.88 97,141.47 98,108.82 99,130.59 100,228.53 101,261.18 102,282.94 103,304.71 104,282.94 105,185 106,119.71 109,119.71 110,108.82 111,163.24 112,141.47 113,119.71 114,282.94 115,195.88 116,185 117,174.12 118,141.47 119,293.82 120,174.12 121,119.71 122,348.24 123,337.35 124,304.71 124.49,370"><title>LR761637.1</title></polygon><rect class="average" height="1" width="124.49" x="0" y="182.72"><title>average:17.21</title></rect><rect class="median" height="1" width="124.49" x="0" y="185"><title>median:17</title></rect><text class="chromName" x="62.25" y="-12">LR761637.1<title>LR761637.1 53,127,865 bp</title></text><rect class="frame" height="370" width="124.49" x="0" y="0"/></g><g id="chrom-LR761638.1" transform="translate(577.4390778079033,0)"><polygon class="cov0" points="0,370 0,185 1,108.82 2,304.71 3,130.59 4,185 5,130.59 6,195.88 8,195.88 9,130.59 10,174.12 11,293.82 12,130.59 13,152.35 14,119.71 15,152.35 16,119.71 17,130.59 18,261.18 19,293.82 20,141.47 21,217.65 22,141.47 23,119.71 24,141.47 25,163.24 26,348.24 27,119.71 28,185 29,315.59 30,272.06 31,152.35 32,348.24 33,337.35 34,206.76 35,239.41 36,163.24 37,326.47 38,293.82 39,326.47 40,348.24 41,315.59 42,250.29 43,119.71 44,152.35 45,293.82 46,152.35 47,108.82 48,119.71 49,152.35 50,217.65 51,163.24 52,141.47 53,130.59 54,195.88 55,163.24 56,174.12 57,206.76 58,141.47 59,195.88 60,174.12 61,228.53 62,163.24 63,315.59 64,326.47 65,304.71 66,174.12 67,228.53 68,152.35 69,185 70,174.12 71,337.35 72,359.12 73,304.71 74,261.18 75,348.24 76,348.24 77,217.65 78,326.47 79,282.94 80,282.94 81,163.24 82,326.47 83,282.94 84,250.29 85,174.12 86,152.35 87,174.12 88,315.59 89,152.35 90,282.94 91,163.24 92,130.59 93,130.59 94,152.35 95,206.76 96,315.59 97,163.24 98,282.94 99,185 100,206.76 101,174.12 102,293.82 103,185 104,282.94 105,304.71 106,217.65 107,185 108,228.53 109,185 110,228.53 111,174.12 112,304.71 113,217.65 114,272.06 115,282.94 116,326.47 117,359.12 118,304.71 119,304.71 120,293.82 121,359.12 122,348.24 123,370 124,250.29 125,315.59 126,326.47 127,261.18 128,370 129,293.82 130,326.47 131,282.94 132,282.94 133,315.59 134,261.18 135,315.59 136,152.35 137,282.94 138,304.71 139,272.06 140,315.59 141,359.12 142,304.71 143,174.12 144,163.24 145,185 146,261.18 147,130.59 148,141.47 149,174.12 150,195.88 151,304.71 152,163.24 153,141.47 154,261.18 155,293.82 156,195.88 157,272.06 158,315.59 159,293.82 160,348.24 161,315.59 162,293.82 163,185 164,250.29 165,348.24 166,337.35 167,370 168,370 169,239.41 170,348.24 172,348.24 172.35,370"><title>LR761638.1</title></polygon><rect class="average" height="1" width="172.35" x="0" y="205.08"><title>average:15.16</title></rect><rect class="median" height="1" width="172.35" x="0" y="239.41"><title>median:12</title></rect><text class="chromName" x="86.17" y="-12">LR761638.1<title>LR761638.1 73,550,375 bp</title></text><rect class="frame" height="370" width="172.35" x="0" y="0"/></g><g id="chrom-LR761639.1" transform="translate(750.784104388203,0)"><polygon class="cov1" points="0,370 0,315.59 1,119.71 2,97.94 3,239.41 4,141.47 5,206.76 6,359.12 7,272.06 8,141.47 9,130.59 10,163.24 11,272.06 12,239.41 13,141.47 14,152.35 15,141.47 17,141.47 18,152.35 19,130.59 20,141.47 21,152.35 22,163.24 23,174.12 24,174.12 25,206.76 26,185 27,304.71 28,359.12 29,206.76 30,293.82 31,130.59 32,141.47 33,130.59 34,195.88 35,217.65 36,250.29 37,141.47 38,152.35 39,141.47 40,206.76 41,141.47 42,152.35 43,130.59 44,163.24 45,141.47 46,174.12 47,163.24 48,141.47 49,174.12 50,174.12 51,141.47 52,206.76 53,163.24 54,185 55,152.35 58,152.35 59,141.47 60,152.35 61,141.47 62,152.35 63,174.12 64,130.59 65,141.47 66,174.12 67,152.35 68,152.35 69,206.76 70,163.24 71,163.24 72,174.12 73,152.35 74,250.29 75,152.35 76,163.24 77,163.24 78,152.35 79,152.35 80,163.24 81,152.35 83,152.35 84,217.65 85,163.24 86,141.47 87,152.35 88,141.47 89,152.35 90,141.47 91,163.24 92,152.35 93,185 94,174.12 95,152.35 96,174.12 97,141.47 98,130.59 99,152.35 101,152.35 102,141.47 103,152.35 104,130.59 105,141.47 106,250.29 107,152.35 108,130.59 109,152.35 110,141.47 111,337.35 112,185 113,130.59 114,185 115,130.59 116,163.24 117,141.47 118,141.47 119,130.59 120,174.12 121,141.47 123,141.47 124,174.12 125,141.47 126,130.59 127,130.59 128,152.35 129,119.71 130,185 131,152.35 132,174.12 133,359.12 134,119.71 135,174.12 136,141.47 137,141.47 138,174.12 139,152.35 140,326.47 140.95,370"><title>LR761639.1</title></polygon><rect class="average" height="1" width="140.95" x="0" y="166.65"><title>average:18.69</title></rect><rect class="median" height="1" width="140.95" x="0" y="163.24"><title>median:19</title></rect><text class="chromName" x="70.47" y="-12">LR761639.1<title>LR761639.1 60,151,564 bp</title></text><rect class="frame" height="370" width="140.95" x="0" y="0"/></g><g id="chrom-LR761640.1" transform="translate(892.7327113317651,0)"><polygon class="cov0" points="0,370 0,163.24 1,108.82 2,195.88 3,163.24 4,163.24 5,119.71 6,185 7,195.88 8,119.71 9,174.12 10,119.71 11,141.47 12,130.59 13,261.18 14,163.24 15,152.35 16,228.53 17,152.35 18,141.47 19,217.65 20,152.35 21,152.35 22,141.47 23,130.59 24,152.35 25,174.12 26,130.59 27,152.35 28,163.24 29,141.47 30,152.35 33,152.35 34,163.24 35,152.35 36,152.35 37,217.65 38,130.59 39,174.12 40,130.59 41,141.47 42,119.71 43,141.47 44,141.47 45,163.24 46,163.24 47,261.18 48,326.47 49,141.47 50,174.12 51,152.35 52,141.47 53,163.24 54,130.59 55,141.47 56,141.47 57,239.41 58,163.24 59,195.88 60,250.29 61,152.35 62,163.24 63,206.76 64,141.47 65,293.82 66,152.35 67,163.24 68,163.24 69,206.76 70,195.88 71,152.35 72,185 73,206.76 74,185 75,163.24 76,152.35 77,239.41 78,152.35 79,185 80,141.47 81,130.59 82,130.59 83,152.35 84,152.35 85,141.47 86,304.71 87,163.24 88,174.12 89,185 90,174.12 91,337.35 92,293.82 93,206.76 94,261.18 95,174.12 96,163.24 97,152.35 98,174.12 99,163.24 100,141.47 101,217.65 102,293.82 103,217.65 104,141.47 105,141.47 106,152.35 107,174.12 108,195.88 109,141.47 110,174.12 111,206.76 112,163.24 113,152.35 114,185 115,141.47 116,272.06 117,337.35 118,359.12 119,304.71 120,152.35 121,130.59 122,152.35 123,141.47 124,152.35 125,141.47 126,141.47 127,152.35 128,272.06 129,174.12 130,141.47 131,141.47 132,163.24 133,141.47 134,119.71 135,119.71 136,152.35 137,152.35 138,141.47 139,185 140,152.35 141,141.47 142,152.35 143,228.53 144,141.47 145,119.71 145.53,370"><title>LR761640.1</title></polygon><rect class="average" height="1" width="145.53" x="0" y="170.95"><title>average:18.29</title></rect><rect class="median" height="1" width="145.53" x="0" y="163.24"><title>median:19</title></rect><text class="chromName" x="72.77" y="-12">LR761640.1<title>LR761640.1 62,107,823 bp</title></text><rect class="frame" height="370" width="145.53" x="0" y="0"/></g><g id="chrom-LR761641.1" transform="translate(1039.265271917344,0)"><polygon class="cov1" points="0,370 0,261.18 1,174.12 2,239.41 3,185 4,228.53 5,163.24 6,304.71 7,282.94 8,261.18 9,174.12 10,130.59 11,239.41 12,228.53 13,108.82 14,250.29 15,141.47 16,152.35 17,239.41 18,119.71 20,119.71 21,141.47 22,228.53 23,163.24 24,185 25,174.12 26,228.53 27,206.76 28,239.41 29,272.06 30,239.41 31,195.88 32,282.94 33,272.06 34,326.47 35,282.94 36,326.47 37,261.18 38,250.29 39,282.94 40,174.12 41,228.53 42,282.94 43,315.59 44,250.29 45,195.88 46,250.29 47,282.94 48,304.71 49,152.35 50,174.12 51,163.24 52,141.47 53,141.47 54,152.35 55,130.59 56,130.59 57,174.12 58,185 59,185 60,152.35 61,315.59 62,163.24 63,195.88 64,174.12 65,185 66,217.65 67,228.53 68,261.18 69,152.35 70,217.65 71,141.47 72,206.76 73,304.71 74,217.65 75,315.59 76,163.24 77,141.47 78,152.35 79,261.18 80,261.18 81,326.47 82,315.59 83,337.35 84,174.12 85,152.35 86,272.06 87,130.59 88,195.88 89,195.88 90,239.41 91,261.18 92,130.59 93,228.53 94,261.18 95,206.76 96,163.24 97,359.12 98,152.35 99,370 100,315.59 101,119.71 102,163.24 103,119.71 104,174.12 105,141.47 106,217.65 107,119.71 108,141.47 109,141.47 110,130.59 111,282.94 112,119.71 113,239.41 114,130.59 115,163.24 116,119.71 117,152.35 118,119.71 119,195.88 120,206.76 121,141.47 122,152.35 123,228.53 124,152.35 125,228.53 126,239.41 127,119.71 128,250.29 129,185 130,272.06 131,195.88 132,370 133,293.82 134,141.47 135,359.12 136,370 136.99,370"><title>LR761641.1</title></polygon><rect class="average" height="1" width="136.99" x="0" y="185.17"><title>average:16.98</title></rect><rect class="median" height="1" width="136.99" x="0" y="206.76"><title>median:15</title></rect><text class="chromName" x="68.5" y="-12">LR761641.1<title>LR761641.1 58,462,999 bp</title></text><rect class="frame" height="370" width="136.99" x="0" y="0"/></g><g id="chrom-LR761642.1" transform="translate(1177.25719230686,0)"><polygon class="cov0" points="0,370 0,304.71 1,326.47 2,326.47 3,272.06 4,304.71 5,326.47 6,326.47 7,315.59 8,337.35 9,282.94 10,304.71 11,261.18 12,239.41 13,130.59 14,195.88 15,152.35 16,261.18 17,174.12 18,228.53 19,163.24 20,185 21,141.47 22,228.53 23,206.76 24,163.24 25,130.59 26,174.12 27,206.76 28,261.18 29,152.35 30,217.65 31,152.35 32,174.12 33,250.29 34,152.35 35,304.71 36,152.35 37,185 38,141.47 39,185 40,163.24 41,185 42,152.35 43,163.24 44,163.24 45,239.41 46,163.24 47,272.06 48,282.94 49,293.82 50,206.76 51,185 52,217.65 53,130.59 54,141.47 55,217.65 56,174.12 57,206.76 58,239.41 59,152.35 60,152.35 61,337.35 62,228.53 63,163.24 64,185 65,174.12 66,163.24 67,337.35 68,239.41 69,163.24 70,152.35 71,195.88 72,152.35 73,206.76 74,141.47 75,206.76 76,293.82 77,141.47 78,141.47 79,217.65 80,217.65 81,174.12 82,304.71 83,261.18 84,282.94 85,174.12 86,315.59 86.91,370"><title>LR761642.1</title></polygon><rect class="average" height="1" width="86.91" x="0" y="178.23"><title>average:17.62</title></rect><rect class="median" height="1" width="86.91" x="0" y="206.76"><title>median:15</title></rect><text class="chromName" x="43.45" y="-12">LR761642.1<title>LR761642.1 37,089,910 bp</title></text><rect class="frame" height="370" width="86.91" x="0" y="0"/></g><g id="chrom-LR761643.1" transform="translate(1265.1671710093603,0)"><polygon class="cov1" points="0,370 0,337.35 1,261.18 2,141.47 3,119.71 4,152.35 5,239.41 6,174.12 7,174.12 8,152.35 9,141.47 10,141.47 11,174.12 12,141.47 13,185 14,250.29 15,163.24 16,130.59 17,163.24 18,152.35 19,185 20,326.47 21,163.24 22,130.59 23,141.47 24,185 25,185 26,348.24 27,326.47 28,250.29 29,141.47 30,228.53 31,163.24 32,217.65 33,152.35 34,152.35 35,228.53 36,239.41 37,141.47 38,152.35 39,141.47 40,163.24 41,163.24 42,206.76 43,282.94 44,163.24 45,185 46,163.24 47,272.06 48,174.12 49,163.24 50,195.88 51,152.35 52,163.24 53,185 54,185 55,152.35 56,141.47 57,152.35 58,163.24 59,163.24 60,152.35 61,152.35 62,174.12 63,163.24 64,174.12 65,206.76 66,174.12 67,163.24 68,163.24 69,152.35 70,174.12 71,250.29 72,206.76 73,250.29 74,152.35 75,217.65 76,152.35 77,141.47 78,195.88 79,282.94 80,141.47 81,141.47 82,163.24 83,163.24 84,152.35 85,141.47 86,152.35 87,141.47 88,185 89,348.24 90,185 91,141.47 92,130.59 93,163.24 94,141.47 95,174.12 96,130.59 97,152.35 98,141.47 99,130.59 100,141.47 101,239.41 102,152.35 103,152.35 104,174.12 105,152.35 106,141.47 107,130.59 108,152.35 109,141.47 112,141.47 113,228.53 114,174.12 115,152.35 116,130.59 117,130.59 118,141.47 119,163.24 120,141.47 121,130.59 123,130.59 124,152.35 125,130.59 126,119.71 127,195.88 128,130.59 129,119.71 130,174.12 131,195.88 132,119.71 133,228.53 134,272.06 134.83,370"><title>LR761643.1</title></polygon><rect class="average" height="1" width="134.83" x="0" y="173.25"><title>average:18.08</title></rect><rect class="median" height="1" width="134.83" x="0" y="163.24"><title>median:19</title></rect><text class="chromName" x="67.42" y="-12">LR761643.1<title>LR761643.1 57,541,580 bp</title></text><rect class="frame" height="370" width="134.83" x="0" y="0"/></g><g><line class="ruler" x1="-2" x2="1390" y1="333" y2="333"><title>3</title></line><text class="ruler" x="-5" y="333">3</text><line class="ruler" x1="-2" x2="1390" y1="296" y2="296"><title>6</title></line><text class="ruler" x="-5" y="296">6</text><line class="ruler" x1="-2" x2="1390" y1="259" y2="259"><title>10</title></line><text class="ruler" x="-5" y="259">10</text><line class="ruler" x1="-2" x2="1390" y1="222" y2="222"><title>13</title></line><text class="ruler" x="-5" y="222">13</text><line class="ruler" x1="-2" x2="1390" y1="185" y2="185"><title>17</title></line><text class="ruler" x="-5" y="185">17</text><line class="ruler" x1="-2" x2="1390" y1="148" y2="148"><title>20</title></line><text class="ruler" x="-5" y="148">20</text><line class="ruler" x1="-2" x2="1390" y1="111" y2="111"><title>23</title></line><text class="ruler" x="-5" y="111">23</text><line class="ruler" x1="-2" x2="1390" y1="74" y2="74"><title>27</title></line><text class="ruler" x="-5" y="74">27</text><line class="ruler" x1="-2" x2="1390" y1="37" y2="37"><title>30</title></line><text class="ruler" x="-5" y="37">30</text><line class="ruler" x1="-2" x2="1390" y1="0" y2="0"><title>34</title></line><text class="ruler" x="-5" y="0">34</text></g></g><text class="title" x="795" y="40">F11_M12_14.merged.realigned.bam F11_M12_14 F11_M12_14_1 F11_M12_14_2<title>./F11_M12_14.merged.realigned.bam</title></text><text class="xLabel" x="795" y="475">GCA_902806645.1_cgigas_uk_roslin_v1_genomic.fna  (589,358,857 bp)<title>../ref/GCA_902806645.1_cgigas_uk_roslin_v1_genomic.fna</title></text><text class="yLabel" transform="translate(25,265) rotate(90)" x="0" y="0">Coverage bp (median)</text></g></svg>