<?xml version="1.0" encoding="UTF-8" standalone="no"?><svg height="500" width="1500" xmlns="http://www.w3.org/2000/svg"><title>F11_M10_24.merged.realigned.bam</title><desc>Made with wgscoverageplotter undefined Author: Pierre Lindenbaum</desc><style>g.maing {stroke:black;stroke-width:0.5px;fill:none;}
text.title {stroke:none;fill:black;stroke-width:1px;text-anchor:middle;}
rect.frame {stroke:darkgray;fill:none;stroke-width:0.5px;}
text.ruler {stroke:none;fill:darkgray;stroke-width:1px;text-anchor:end;}
text.chromName {stroke:none;fill:darkgray;stroke-width:1px;text-anchor:middle;}
text.xLabel {stroke:none;fill:black;stroke-width:1px;text-anchor:middle;}
text.yLabel {stroke:none;fill:black;stroke-width:1px;text-anchor:middle;}
.cov0 {stroke:gray;fill:antiquewhite;stroke-width:0.5px;}
.cov1 {stroke:gray;fill:beige;stroke-width:0.5px;}
rect.average {stroke:green;fill:green;stroke-width:0.5px;opacity:0.3;}
rect.median {stroke:red;fill:red;stroke-width:0.5px;opacity:0.3;}
line.ruler {stroke:darkgray;stroke-dasharray:4;fill:none;stroke-width:1;}
</style><g class="maing"><g id="chromosomes" transform="translate(100.0,80.0)"><g id="chrom-LR761634.1" transform="translate(10.0,0)"><polygon class="cov0" points="0,370 0,259 1,129.5 2,148 3,296 4,259 5,185 6,296 7,203.5 8,166.5 9,148 10,166.5 11,129.5 12,166.5 13,222 14,259 15,148 16,129.5 17,222 18,129.5 19,148 20,129.5 21,148 22,148 23,166.5 24,166.5 25,111 26,129.5 27,129.5 28,148 29,129.5 31,129.5 32,277.5 33,129.5 34,148 35,148 36,129.5 37,185 38,185 39,148 40,129.5 42,129.5 43,185 44,166.5 45,222 46,166.5 47,148 51,148 52,129.5 53,148 54,185 55,185 56,111 57,111 58,129.5 59,148 60,166.5 61,129.5 62,166.5 63,185 64,185 65,166.5 66,148 67,185 68,129.5 69,222 70,148 71,129.5 72,185 73,185 74,148 75,129.5 76,148 77,185 78,166.5 79,148 80,277.5 81,277.5 82,129.5 83,148 84,166.5 85,148 86,129.5 87,185 88,129.5 89,277.5 90,166.5 91,166.5 92,129.5 93,166.5 94,111 95,129.5 96,129.5 97,185 98,277.5 99,148 100,148 101,185 102,148 103,185 104,203.5 105,129.5 106,222 107,185 108,259 109,111 110,129.5 111,166.5 112,148 113,203.5 114,277.5 115,203.5 116,129.5 117,129.5 118,111 119,185 120,203.5 121,148 122,129.5 123,129.5 124,148 126,148 127,166.5 128,222 129,166.5 130,222 130.72,370"><title>LR761634.1</title></polygon><rect class="average" height="1" width="130.72" x="0" y="157.32"><title>average:11.5</title></rect><rect class="median" height="1" width="130.72" x="0" y="166.5"><title>median:11</title></rect><text class="chromName" x="65.36" y="-12">LR761634.1<title>LR761634.1 55,785,328 bp</title></text><rect class="frame" height="370" width="130.72" x="0" y="0"/></g><g id="chrom-LR761635.1" transform="translate(141.71753661284166,0)"><polygon class="cov1" points="0,370 0,333 1,351.5 2,296 3,259 4,351.5 5,351.5 6,296 7,314.5 8,333 9,185 10,148 11,259 12,185 13,166.5 14,240.5 15,296 16,314.5 17,259 18,277.5 19,240.5 20,296 21,314.5 22,296 23,259 24,314.5 26,314.5 27,296 28,314.5 29,370 30,333 31,296 32,259 33,222 34,222 35,240.5 36,296 37,351.5 38,277.5 39,166.5 40,222 41,240.5 42,166.5 43,259 44,166.5 45,203.5 46,222 47,185 48,259 49,203.5 50,259 51,314.5 52,259 53,240.5 54,296 55,277.5 56,333 57,296 58,203.5 59,296 60,351.5 61,296 62,166.5 63,296 64,314.5 65,259 66,277.5 67,259 68,259 69,314.5 70,296 71,240.5 73,240.5 74,259 75,222 76,314.5 77,55.5 78,277.5 79,333 80,185 81,296 82,351.5 83,333 84,370 85,314.5 86,351.5 89,351.5 90,296 91,314.5 92,333 93,351.5 94,277.5 95,296 96,314.5 97,333 98,351.5 99,296 100,296 101,314.5 102,333 103,203.5 104,148 105,148 106,277.5 107,314.5 108,203.5 109,203.5 110,296 111,203.5 112,296 113,314.5 114,314.5 115,277.5 116,277.5 117,259 118,166.5 119,166.5 120,148 121,203.5 122,259 123,259 124,277.5 125,148 126,240.5 127,277.5 128,166.5 129,240.5 130,185 131,296 132,222 133,277.5 134,314.5 135,277.5 136,314.5 138,314.5 139,277.5 140,314.5 141,296 142,314.5 143,314.5 144,296 145,222 146,277.5 147,92.5 148,166.5 149,148 150,240.5 151,259 152,333 153,222 154,296 155,296 156,314.5 157,314.5 158,259 159,203.5 160,259 161,222 162,314.5 163,203.5 164,203.5 165,222 166,259 167,296 168,277.5 169,296 170,314.5 171,314.5 171.58,370"><title>LR761635.1</title></polygon><rect class="average" height="1" width="171.58" x="0" y="216.18"><title>average:8.31</title></rect><rect class="median" height="1" width="171.58" x="0" y="277.5"><title>median:5</title></rect><text class="chromName" x="85.79" y="-12">LR761635.1<title>LR761635.1 73,222,313 bp</title></text><rect class="frame" height="370" width="171.58" x="0" y="0"/></g><g id="chrom-LR761636.1" transform="translate(314.2938403401308,0)"><polygon class="cov0" points="0,370 0,333 1,185 2,296 3,296 4,259 5,148 6,129.5 7,166.5 8,129.5 9,166.5 10,129.5 11,148 12,148 13,185 14,111 15,148 16,129.5 17,129.5 18,166.5 19,129.5 23,129.5 24,203.5 25,129.5 26,222 27,259 28,129.5 29,111 30,129.5 31,111 32,129.5 33,129.5 34,148 35,203.5 36,148 37,166.5 38,148 39,148 40,166.5 42,166.5 43,148 45,148 46,185 47,148 48,240.5 49,148 50,166.5 51,129.5 52,148 53,148 54,240.5 55,185 56,166.5 57,129.5 58,185 59,129.5 60,148 61,222 62,166.5 63,148 64,129.5 65,166.5 66,148 67,148 68,166.5 69,166.5 70,203.5 71,111 72,129.5 73,166.5 75,166.5 76,333 77,203.5 78,240.5 79,277.5 80,259 81,148 82,203.5 83,166.5 84,129.5 85,148 86,296 87,166.5 88,148 89,203.5 90,148 91,129.5 92,166.5 93,166.5 94,129.5 95,148 96,203.5 97,148 98,148 99,185 100,166.5 101,129.5 102,148 103,129.5 104,148 105,129.5 106,148 107,148 108,129.5 110,129.5 111,166.5 112,166.5 113,185 114,129.5 116,129.5 117,148 118,166.5 119,148 120,129.5 121,222 122,129.5 123,129.5 124,185 125,129.5 126,129.5 127,203.5 128,240.5 129,129.5 130,166.5 131,166.5 132,185 133,148 135,148 136,240.5 136.65,370"><title>LR761636.1</title></polygon><rect class="average" height="1" width="136.65" x="0" y="156.11"><title>average:11.56</title></rect><rect class="median" height="1" width="136.65" x="0" y="166.5"><title>median:11</title></rect><text class="chromName" x="68.33" y="-12">LR761636.1<title>LR761636.1 58,319,100 bp</title></text><rect class="frame" height="370" width="136.65" x="0" y="0"/></g><g id="chrom-LR761637.1" transform="translate(451.9485730949149,0)"><polygon class="cov1" points="0,370 0,277.5 1,277.5 2,314.5 3,296 4,240.5 5,185 6,222 7,259 8,259 9,296 10,314.5 11,185 12,259 13,277.5 14,277.5 15,166.5 16,240.5 17,129.5 18,296 19,314.5 20,240.5 21,185 22,166.5 23,222 24,351.5 25,166.5 26,148 27,259 28,222 29,240.5 30,259 31,166.5 32,148 33,185 34,129.5 35,203.5 36,314.5 37,277.5 38,166.5 39,166.5 40,148 41,314.5 42,222 43,277.5 44,333 45,203.5 46,148 47,148 48,129.5 49,148 50,203.5 51,148 52,111 53,185 54,129.5 55,148 56,166.5 57,240.5 58,277.5 59,296 60,296 61,240.5 62,148 66,148 67,166.5 68,185 69,129.5 70,166.5 71,148 72,185 73,129.5 74,203.5 75,166.5 76,148 78,148 79,203.5 80,166.5 81,185 82,148 83,148 84,166.5 85,129.5 86,222 87,166.5 88,129.5 89,148 90,129.5 91,148 92,129.5 93,166.5 94,222 95,240.5 96,185 97,148 98,111 99,129.5 100,240.5 101,259 102,277.5 103,296 104,296 105,259 106,129.5 109,129.5 110,111 111,148 112,148 113,129.5 114,314.5 115,222 116,166.5 117,166.5 118,148 119,314.5 120,166.5 121,148 122,277.5 123,277.5 124,222 124.49,370"><title>LR761637.1</title></polygon><rect class="average" height="1" width="124.49" x="0" y="182.23"><title>average:10.15</title></rect><rect class="median" height="1" width="124.49" x="0" y="185"><title>median:10</title></rect><text class="chromName" x="62.25" y="-12">LR761637.1<title>LR761637.1 53,127,865 bp</title></text><rect class="frame" height="370" width="124.49" x="0" y="0"/></g><g id="chrom-LR761638.1" transform="translate(577.4390778079033,0)"><polygon class="cov0" points="0,370 0,185 1,148 2,222 3,148 4,222 5,129.5 6,203.5 8,203.5 9,129.5 10,203.5 11,296 12,129.5 13,185 14,129.5 15,166.5 16,166.5 17,148 18,277.5 19,333 20,148 21,203.5 22,148 23,129.5 24,129.5 25,185 26,351.5 27,129.5 28,185 29,296 30,240.5 31,148 32,370 33,333 34,203.5 35,240.5 36,166.5 37,314.5 38,314.5 39,296 40,314.5 41,333 42,240.5 43,148 44,166.5 45,296 46,148 47,129.5 48,148 49,222 50,333 51,203.5 52,222 53,185 54,203.5 55,277.5 56,185 57,240.5 58,148 59,203.5 60,185 61,203.5 62,166.5 63,333 64,296 65,314.5 66,185 67,222 68,148 69,296 70,203.5 71,314.5 72,351.5 73,314.5 74,259 75,333 76,333 77,222 78,370 79,314.5 80,296 81,203.5 82,296 83,351.5 84,314.5 85,203.5 86,148 87,185 88,314.5 89,148 90,296 91,166.5 92,111 93,129.5 94,148 95,240.5 96,277.5 97,166.5 98,296 99,222 100,203.5 101,166.5 102,222 103,166.5 104,222 105,240.5 106,240.5 107,166.5 108,203.5 109,166.5 111,166.5 112,277.5 113,259 114,277.5 115,296 116,314.5 118,314.5 119,296 120,277.5 121,351.5 122,351.5 123,370 124,277.5 125,296 126,314.5 127,259 128,370 129,277.5 130,333 131,314.5 132,296 133,333 134,296 135,277.5 136,185 137,370 138,351.5 139,277.5 140,370 141,370 142,351.5 143,333 144,166.5 145,203.5 146,296 147,148 148,185 149,166.5 150,203.5 151,259 152,185 153,185 154,240.5 155,296 156,203.5 157,277.5 158,296 160,296 161,277.5 162,222 163,240.5 164,296 165,370 166,351.5 167,351.5 168,314.5 169,240.5 170,351.5 171,333 172,351.5 172.35,370"><title>LR761638.1</title></polygon><rect class="average" height="1" width="172.35" x="0" y="211.53"><title>average:8.57</title></rect><rect class="median" height="1" width="172.35" x="0" y="259"><title>median:6</title></rect><text class="chromName" x="86.17" y="-12">LR761638.1<title>LR761638.1 73,550,375 bp</title></text><rect class="frame" height="370" width="172.35" x="0" y="0"/></g><g id="chrom-LR761639.1" transform="translate(750.784104388203,0)"><polygon class="cov1" points="0,370 0,333 1,185 2,148 3,296 4,148 5,240.5 6,314.5 7,259 8,148 9,148 10,166.5 11,259 12,277.5 13,148 14,166.5 15,148 16,129.5 17,129.5 18,148 19,129.5 20,129.5 21,148 22,148 23,185 24,185 25,222 26,185 27,314.5 28,333 29,240.5 30,296 31,148 32,129.5 33,129.5 34,203.5 35,222 36,240.5 37,148 39,148 40,203.5 41,129.5 42,148 43,129.5 44,166.5 45,129.5 46,166.5 47,148 48,129.5 49,166.5 50,166.5 51,129.5 52,185 53,148 54,166.5 55,148 56,129.5 57,148 58,148 59,129.5 60,148 61,129.5 62,129.5 63,185 64,111 65,129.5 66,148 68,148 69,185 70,148 73,148 74,222 75,148 77,148 78,129.5 79,148 80,185 81,129.5 82,129.5 83,148 84,222 85,148 86,129.5 87,148 88,129.5 90,129.5 91,148 92,148 93,185 94,185 95,148 96,148 97,129.5 98,129.5 99,148 100,148 101,129.5 102,148 103,148 104,129.5 105,129.5 106,259 107,148 108,129.5 110,129.5 111,314.5 112,185 113,129.5 114,166.5 115,129.5 116,166.5 117,148 118,129.5 119,129.5 120,166.5 121,129.5 123,129.5 124,166.5 125,148 127,148 128,166.5 129,129.5 130,185 131,166.5 132,185 133,351.5 134,129.5 135,203.5 136,166.5 137,166.5 138,203.5 139,185 140,296 140.95,370"><title>LR761639.1</title></polygon><rect class="average" height="1" width="140.95" x="0" y="159.31"><title>average:11.39</title></rect><rect class="median" height="1" width="140.95" x="0" y="166.5"><title>median:11</title></rect><text class="chromName" x="70.47" y="-12">LR761639.1<title>LR761639.1 60,151,564 bp</title></text><rect class="frame" height="370" width="140.95" x="0" y="0"/></g><g id="chrom-LR761640.1" transform="translate(892.7327113317651,0)"><polygon class="cov0" points="0,370 0,185 1,129.5 2,203.5 3,185 4,185 5,129.5 6,185 7,203.5 8,148 9,185 10,148 11,166.5 12,129.5 13,259 14,185 15,148 16,222 17,148 18,148 19,203.5 20,129.5 21,148 22,129.5 23,111 24,148 25,166.5 26,129.5 27,129.5 28,148 30,148 31,129.5 32,148 33,129.5 34,166.5 35,148 36,148 37,222 38,129.5 39,185 40,129.5 41,129.5 42,111 43,129.5 44,129.5 45,148 46,166.5 47,259 48,314.5 49,129.5 50,166.5 51,148 52,129.5 53,148 54,129.5 55,148 56,129.5 57,240.5 58,166.5 59,185 60,259 61,148 62,166.5 63,185 64,148 65,259 66,148 67,166.5 68,166.5 69,203.5 70,185 71,148 72,185 73,240.5 74,185 75,148 76,148 77,222 78,148 79,203.5 80,129.5 81,111 82,111 83,148 84,148 85,129.5 86,351.5 87,166.5 88,166.5 89,185 90,166.5 91,333 92,277.5 93,203.5 94,277.5 95,166.5 96,148 97,148 98,166.5 99,148 100,129.5 101,203.5 102,314.5 103,240.5 104,148 105,129.5 106,129.5 107,185 108,185 109,148 110,185 111,203.5 112,166.5 113,166.5 114,185 115,148 116,277.5 117,351.5 118,351.5 119,314.5 120,148 121,129.5 122,148 124,148 125,129.5 126,148 127,129.5 128,259 129,166.5 130,129.5 131,129.5 132,166.5 133,129.5 134,111 135,111 136,148 138,148 139,185 140,129.5 141,148 142,185 143,222 144,148 145,166.5 145.53,370"><title>LR761640.1</title></polygon><rect class="average" height="1" width="145.53" x="0" y="163.61"><title>average:11.16</title></rect><rect class="median" height="1" width="145.53" x="0" y="166.5"><title>median:11</title></rect><text class="chromName" x="72.77" y="-12">LR761640.1<title>LR761640.1 62,107,823 bp</title></text><rect class="frame" height="370" width="145.53" x="0" y="0"/></g><g id="chrom-LR761641.1" transform="translate(1039.265271917344,0)"><polygon class="cov1" points="0,370 0,296 1,166.5 2,240.5 3,203.5 4,203.5 5,240.5 6,259 7,240.5 8,277.5 9,203.5 10,166.5 11,203.5 12,240.5 13,129.5 14,203.5 15,148 16,148 17,333 18,148 20,148 21,203.5 22,222 23,166.5 24,185 25,185 26,222 27,185 28,222 29,296 30,240.5 31,203.5 32,240.5 33,222 34,277.5 35,296 36,333 37,240.5 38,277.5 39,259 40,203.5 41,277.5 42,314.5 43,333 44,277.5 45,222 46,259 47,277.5 48,240.5 49,148 50,166.5 51,166.5 52,129.5 54,129.5 55,111 56,129.5 57,166.5 58,185 59,166.5 60,148 61,277.5 62,148 63,203.5 64,185 65,185 66,222 67,240.5 68,259 69,148 70,203.5 71,129.5 72,222 73,314.5 74,222 75,314.5 76,203.5 77,166.5 78,166.5 79,240.5 80,296 81,296 82,333 83,351.5 84,185 85,166.5 86,277.5 87,129.5 88,222 89,203.5 90,296 91,203.5 92,148 93,240.5 94,259 95,222 96,222 97,314.5 98,148 99,370 100,222 101,129.5 102,185 103,129.5 104,185 105,148 106,259 107,148 108,148 109,166.5 110,148 111,314.5 112,148 113,203.5 114,166.5 115,166.5 116,129.5 117,166.5 118,148 119,222 120,240.5 121,185 122,185 123,240.5 124,166.5 125,240.5 126,259 127,129.5 128,259 129,166.5 130,277.5 131,203.5 132,351.5 133,277.5 134,148 135,351.5 136,351.5 136.99,370"><title>LR761641.1</title></polygon><rect class="average" height="1" width="136.99" x="0" y="189.17"><title>average:9.77</title></rect><rect class="median" height="1" width="136.99" x="0" y="222"><title>median:8</title></rect><text class="chromName" x="68.5" y="-12">LR761641.1<title>LR761641.1 58,462,999 bp</title></text><rect class="frame" height="370" width="136.99" x="0" y="0"/></g><g id="chrom-LR761642.1" transform="translate(1177.25719230686,0)"><polygon class="cov0" points="0,370 0,351.5 1,296 2,259 3,203.5 4,166.5 5,240.5 6,277.5 7,240.5 8,185 9,166.5 10,148 11,129.5 12,148 13,111 14,129.5 15,240.5 16,277.5 17,166.5 18,148 20,148 21,129.5 22,129.5 23,222 24,166.5 25,129.5 26,148 27,166.5 28,222 29,166.5 30,203.5 31,148 32,148 33,222 34,203.5 35,314.5 36,148 37,166.5 38,111 39,185 40,148 41,185 42,129.5 43,148 44,148 45,203.5 46,166.5 47,259 48,240.5 49,314.5 50,185 51,240.5 52,222 53,148 54,129.5 55,222 56,185 57,185 58,240.5 59,148 60,166.5 61,333 62,185 63,185 64,203.5 65,166.5 66,185 67,333 68,259 69,166.5 70,148 71,277.5 72,148 73,222 74,166.5 75,185 76,314.5 77,166.5 78,166.5 79,296 80,259 81,185 82,314.5 83,259 84,314.5 85,203.5 86,333 86.91,370"><title>LR761642.1</title></polygon><rect class="average" height="1" width="86.91" x="0" y="167.18"><title>average:10.96</title></rect><rect class="median" height="1" width="86.91" x="0" y="185"><title>median:10</title></rect><text class="chromName" x="43.45" y="-12">LR761642.1<title>LR761642.1 37,089,910 bp</title></text><rect class="frame" height="370" width="86.91" x="0" y="0"/></g><g id="chrom-LR761643.1" transform="translate(1265.1671710093603,0)"><polygon class="cov1" points="0,370 0,351.5 1,277.5 2,185 3,129.5 4,148 5,259 6,185 7,166.5 8,148 10,148 11,185 12,148 13,203.5 14,240.5 15,148 16,129.5 17,166.5 18,166.5 19,185 20,351.5 21,166.5 22,129.5 23,148 24,203.5 25,185 26,351.5 27,333 28,314.5 29,129.5 30,240.5 31,166.5 32,240.5 33,148 34,166.5 35,203.5 36,240.5 37,129.5 38,148 39,129.5 40,148 41,166.5 42,166.5 43,296 44,166.5 45,185 46,129.5 47,240.5 48,166.5 49,148 50,166.5 51,148 52,148 53,166.5 54,166.5 55,148 56,129.5 57,148 58,203.5 59,129.5 61,129.5 62,166.5 63,148 64,166.5 65,185 66,166.5 67,166.5 68,148 70,148 71,240.5 72,203.5 73,222 74,129.5 75,240.5 76,148 77,129.5 78,203.5 79,259 80,148 81,129.5 82,148 83,148 84,129.5 85,129.5 86,148 87,129.5 88,166.5 89,370 90,185 91,129.5 92,129.5 93,148 94,129.5 95,148 96,129.5 99,129.5 100,148 101,222 102,148 103,148 104,166.5 105,148 106,129.5 107,129.5 108,148 109,129.5 112,129.5 113,222 114,166.5 115,148 116,129.5 118,129.5 119,166.5 120,129.5 121,111 122,129.5 123,129.5 124,148 125,148 126,129.5 127,166.5 128,148 129,129.5 130,185 131,203.5 132,129.5 133,240.5 134,240.5 134.83,370"><title>LR761643.1</title></polygon><rect class="average" height="1" width="134.83" x="0" y="162.93"><title>average:11.19</title></rect><rect class="median" height="1" width="134.83" x="0" y="166.5"><title>median:11</title></rect><text class="chromName" x="67.42" y="-12">LR761643.1<title>LR761643.1 57,541,580 bp</title></text><rect class="frame" height="370" width="134.83" x="0" y="0"/></g><g><line class="ruler" x1="-2" x2="1390" y1="333" y2="333"><title>2</title></line><text class="ruler" x="-5" y="333">2</text><line class="ruler" x1="-2" x2="1390" y1="296" y2="296"><title>4</title></line><text class="ruler" x="-5" y="296">4</text><line class="ruler" x1="-2" x2="1390" y1="259" y2="259"><title>6</title></line><text class="ruler" x="-5" y="259">6</text><line class="ruler" x1="-2" x2="1390" y1="222" y2="222"><title>8</title></line><text class="ruler" x="-5" y="222">8</text><line class="ruler" x1="-2" x2="1390" y1="185" y2="185"><title>10</title></line><text class="ruler" x="-5" y="185">10</text><line class="ruler" x1="-2" x2="1390" y1="148" y2="148"><title>12</title></line><text class="ruler" x="-5" y="148">12</text><line class="ruler" x1="-2" x2="1390" y1="111" y2="111"><title>14</title></line><text class="ruler" x="-5" y="111">14</text><line class="ruler" x1="-2" x2="1390" y1="74" y2="74"><title>16</title></line><text class="ruler" x="-5" y="74">16</text><line class="ruler" x1="-2" x2="1390" y1="37" y2="37"><title>18</title></line><text class="ruler" x="-5" y="37">18</text><line class="ruler" x1="-2" x2="1390" y1="0" y2="0"><title>20</title></line><text class="ruler" x="-5" y="0">20</text></g></g><text class="title" x="795" y="40">F11_M10_24.merged.realigned.bam F11_M10_24 F11_M10_24_1 F11_M10_24_2<title>./F11_M10_24.merged.realigned.bam</title></text><text class="xLabel" x="795" y="475">GCA_902806645.1_cgigas_uk_roslin_v1_genomic.fna  (589,358,857 bp)<title>../ref/GCA_902806645.1_cgigas_uk_roslin_v1_genomic.fna</title></text><text class="yLabel" transform="translate(25,265) rotate(90)" x="0" y="0">Coverage bp (median)</text></g></svg>