<?xml version="1.0" encoding="UTF-8" standalone="no"?><svg height="500" width="1500" xmlns="http://www.w3.org/2000/svg"><title>F11.realigned.bam</title><desc>Made with wgscoverageplotter undefined Author: Pierre Lindenbaum</desc><style>g.maing {stroke:black;stroke-width:0.5px;fill:none;}
text.title {stroke:none;fill:black;stroke-width:1px;text-anchor:middle;}
rect.frame {stroke:darkgray;fill:none;stroke-width:0.5px;}
text.ruler {stroke:none;fill:darkgray;stroke-width:1px;text-anchor:end;}
text.chromName {stroke:none;fill:darkgray;stroke-width:1px;text-anchor:middle;}
text.xLabel {stroke:none;fill:black;stroke-width:1px;text-anchor:middle;}
text.yLabel {stroke:none;fill:black;stroke-width:1px;text-anchor:middle;}
.cov0 {stroke:gray;fill:antiquewhite;stroke-width:0.5px;}
.cov1 {stroke:gray;fill:beige;stroke-width:0.5px;}
rect.average {stroke:green;fill:green;stroke-width:0.5px;opacity:0.3;}
rect.median {stroke:red;fill:red;stroke-width:0.5px;opacity:0.3;}
line.ruler {stroke:darkgray;stroke-dasharray:4;fill:none;stroke-width:1;}
</style><g class="maing"><g id="chromosomes" transform="translate(100.0,80.0)"><g id="chrom-LR761634.1" transform="translate(10.0,0)"><polygon class="cov0" points="0,370 0,323.75 1,138.75 2,138.75 3,323.75 4,277.5 5,185 6,323.75 7,231.25 8,185 9,138.75 10,185 11,138.75 12,185 13,277.5 14,323.75 15,138.75 16,138.75 17,231.25 18,138.75 21,138.75 22,185 24,185 25,138.75 31,138.75 32,277.5 33,138.75 35,138.75 36,92.5 37,185 38,185 39,138.75 42,138.75 43,185 44,185 45,231.25 46,185 47,138.75 53,138.75 54,231.25 55,231.25 56,138.75 57,92.5 58,138.75 61,138.75 62,185 65,185 66,138.75 67,185 68,138.75 69,231.25 70,138.75 72,138.75 73,185 74,185 75,138.75 76,138.75 77,185 78,138.75 79,138.75 80,323.75 81,323.75 82,138.75 85,138.75 86,92.5 87,185 88,138.75 89,277.5 90,185 91,185 92,138.75 93,185 94,92.5 95,138.75 96,92.5 97,185 98,323.75 99,185 100,138.75 101,185 103,185 104,231.25 105,138.75 106,231.25 107,185 108,277.5 109,138.75 110,92.5 111,185 112,138.75 113,185 114,277.5 115,231.25 116,138.75 118,138.75 119,185 120,231.25 121,138.75 123,138.75 124,185 125,138.75 126,185 127,185 128,231.25 129,185 130,231.25 130.72,370"><title>LR761634.1</title></polygon><rect class="average" height="1" width="130.72" x="0" y="148.33"><title>average:4.79</title></rect><rect class="median" height="1" width="130.72" x="0" y="185"><title>median:4</title></rect><text class="chromName" x="65.36" y="-12">LR761634.1<title>LR761634.1 55,785,328 bp</title></text><rect class="frame" height="370" width="130.72" x="0" y="0"/></g><g id="chrom-LR761635.1" transform="translate(141.71753661284166,0)"><polygon class="cov1" points="0,370 0,323.75 1,370 2,323.75 3,277.5 4,370 5,370 6,323.75 8,323.75 9,185 10,138.75 11,231.25 12,185 13,185 14,277.5 15,323.75 16,370 17,277.5 18,323.75 19,277.5 20,370 21,323.75 22,323.75 23,231.25 24,370 25,323.75 26,370 27,323.75 28,323.75 29,370 30,370 31,323.75 32,277.5 33,231.25 35,231.25 36,323.75 37,370 38,323.75 39,185 40,277.5 41,277.5 42,185 43,277.5 44,185 45,231.25 46,231.25 47,185 48,231.25 49,231.25 50,277.5 51,370 52,231.25 53,277.5 54,370 55,323.75 56,370 57,323.75 58,277.5 59,370 60,370 61,323.75 62,185 63,323.75 64,323.75 65,277.5 68,277.5 69,323.75 70,323.75 71,231.25 72,231.25 73,277.5 74,323.75 75,231.25 76,323.75 77,0 78,277.5 79,370 80,231.25 81,323.75 82,370 83,323.75 84,370 85,323.75 86,370 89,370 90,323.75 91,323.75 92,370 93,370 94,277.5 95,277.5 96,323.75 97,323.75 98,370 99,323.75 102,323.75 103,231.25 104,185 105,138.75 106,277.5 107,323.75 108,231.25 109,185 110,323.75 111,231.25 112,277.5 113,323.75 114,323.75 115,370 116,370 117,323.75 118,185 120,185 121,231.25 122,277.5 124,277.5 125,138.75 126,277.5 127,277.5 128,138.75 129,277.5 130,231.25 131,323.75 132,231.25 133,323.75 135,323.75 136,370 137,323.75 138,323.75 139,277.5 140,370 141,323.75 144,323.75 145,231.25 146,277.5 147,138.75 148,185 149,185 150,231.25 151,277.5 152,370 153,277.5 154,323.75 155,370 156,323.75 158,323.75 159,231.25 160,277.5 161,277.5 162,323.75 163,138.75 164,185 165,231.25 166,231.25 167,277.5 168,277.5 169,323.75 171,323.75 171.58,370"><title>LR761635.1</title></polygon><rect class="average" height="1" width="171.58" x="0" y="215.53"><title>average:3.34</title></rect><rect class="median" height="1" width="171.58" x="0" y="277.5"><title>median:2</title></rect><text class="chromName" x="85.79" y="-12">LR761635.1<title>LR761635.1 73,222,313 bp</title></text><rect class="frame" height="370" width="171.58" x="0" y="0"/></g><g id="chrom-LR761636.1" transform="translate(314.2938403401308,0)"><polygon class="cov0" points="0,370 0,370 1,185 2,323.75 3,323.75 4,277.5 5,185 7,185 8,138.75 9,185 10,138.75 11,138.75 12,185 13,185 14,138.75 17,138.75 18,185 19,138.75 22,138.75 23,92.5 24,185 25,138.75 26,231.25 27,277.5 28,138.75 29,92.5 30,138.75 31,92.5 32,138.75 34,138.75 35,231.25 36,138.75 37,185 38,138.75 41,138.75 42,185 43,138.75 45,138.75 46,185 47,138.75 48,231.25 49,138.75 50,185 51,92.5 52,138.75 53,138.75 54,231.25 55,185 56,185 57,138.75 58,185 59,138.75 60,138.75 61,231.25 62,138.75 64,138.75 65,185 66,138.75 67,138.75 68,185 69,185 70,231.25 71,92.5 72,92.5 73,185 74,138.75 75,185 76,323.75 77,231.25 78,231.25 79,277.5 80,277.5 81,138.75 82,231.25 83,185 84,138.75 85,138.75 86,323.75 87,138.75 88,138.75 89,231.25 90,138.75 92,138.75 93,185 94,138.75 95,138.75 96,231.25 97,138.75 98,138.75 99,185 100,185 101,138.75 102,185 103,92.5 104,138.75 110,138.75 111,185 112,138.75 113,185 114,138.75 115,92.5 116,92.5 117,138.75 118,185 119,138.75 120,138.75 121,231.25 122,138.75 123,138.75 124,185 125,138.75 126,138.75 127,185 128,231.25 129,138.75 130,185 133,185 134,138.75 135,138.75 136,231.25 136.65,370"><title>LR761636.1</title></polygon><rect class="average" height="1" width="136.65" x="0" y="144.35"><title>average:4.88</title></rect><rect class="median" height="1" width="136.65" x="0" y="138.75"><title>median:5</title></rect><text class="chromName" x="68.33" y="-12">LR761636.1<title>LR761636.1 58,319,100 bp</title></text><rect class="frame" height="370" width="136.65" x="0" y="0"/></g><g id="chrom-LR761637.1" transform="translate(451.9485730949149,0)"><polygon class="cov1" points="0,370 0,277.5 1,323.75 2,370 3,323.75 4,277.5 5,185 6,277.5 7,277.5 8,231.25 9,323.75 10,323.75 11,185 12,277.5 13,323.75 14,277.5 15,185 16,277.5 17,138.75 18,323.75 19,323.75 20,277.5 21,185 22,185 23,231.25 24,370 25,185 26,138.75 27,277.5 28,231.25 29,277.5 30,277.5 31,185 32,138.75 33,185 34,138.75 35,231.25 36,370 37,370 38,185 40,185 41,323.75 42,231.25 43,277.5 44,370 45,185 46,138.75 49,138.75 50,231.25 51,138.75 52,92.5 53,185 54,92.5 55,138.75 56,185 57,231.25 58,277.5 59,323.75 60,323.75 61,231.25 62,138.75 67,138.75 68,185 69,138.75 71,138.75 72,185 73,138.75 74,231.25 75,138.75 77,138.75 78,185 80,185 81,231.25 82,138.75 83,138.75 84,185 85,138.75 86,231.25 87,185 88,138.75 92,138.75 93,185 94,231.25 95,231.25 96,185 97,138.75 99,138.75 100,277.5 101,323.75 102,323.75 103,370 104,370 105,277.5 106,138.75 111,138.75 112,185 113,138.75 114,323.75 115,231.25 116,185 117,185 118,138.75 119,323.75 120,185 121,185 122,277.5 123,231.25 124,185 124.49,370"><title>LR761637.1</title></polygon><rect class="average" height="1" width="124.49" x="0" y="177.43"><title>average:4.16</title></rect><rect class="median" height="1" width="124.49" x="0" y="185"><title>median:4</title></rect><text class="chromName" x="62.25" y="-12">LR761637.1<title>LR761637.1 53,127,865 bp</title></text><rect class="frame" height="370" width="124.49" x="0" y="0"/></g><g id="chrom-LR761638.1" transform="translate(577.4390778079033,0)"><polygon class="cov0" points="0,370 0,231.25 1,185 3,185 4,277.5 5,138.75 6,231.25 8,231.25 9,138.75 10,231.25 11,323.75 12,138.75 13,185 14,138.75 15,185 16,185 17,138.75 18,277.5 19,370 20,185 21,231.25 22,138.75 24,138.75 25,231.25 26,370 27,138.75 28,231.25 29,370 30,277.5 31,185 32,370 33,323.75 34,231.25 35,231.25 36,185 37,323.75 38,323.75 39,370 41,370 42,231.25 43,138.75 44,185 45,323.75 46,138.75 48,138.75 49,231.25 50,370 51,185 52,231.25 53,185 54,185 55,323.75 56,231.25 57,277.5 58,138.75 59,185 62,185 63,370 64,277.5 65,370 66,185 67,231.25 68,138.75 69,277.5 70,231.25 71,370 72,370 73,323.75 74,277.5 75,370 76,323.75 77,231.25 78,370 79,277.5 80,323.75 81,185 82,323.75 83,370 84,323.75 85,231.25 86,138.75 87,185 88,323.75 89,138.75 90,323.75 91,185 92,138.75 94,138.75 95,231.25 96,277.5 97,185 98,323.75 99,231.25 100,231.25 101,185 102,231.25 103,138.75 104,185 105,231.25 106,277.5 107,138.75 108,231.25 109,185 110,138.75 111,185 112,277.5 113,277.5 114,323.75 117,323.75 118,370 119,323.75 120,277.5 121,370 123,370 124,277.5 125,323.75 126,370 127,277.5 128,370 129,277.5 130,323.75 132,323.75 133,370 134,323.75 135,277.5 136,185 137,370 138,370 139,277.5 140,370 143,370 144,185 145,231.25 146,323.75 147,185 149,185 150,277.5 151,277.5 152,185 153,185 154,277.5 155,323.75 156,231.25 157,323.75 160,323.75 161,277.5 162,185 163,231.25 164,323.75 165,370 168,370 169,231.25 170,370 172,370 172.35,370"><title>LR761638.1</title></polygon><rect class="average" height="1" width="172.35" x="0" y="210.4"><title>average:3.45</title></rect><rect class="median" height="1" width="172.35" x="0" y="277.5"><title>median:2</title></rect><text class="chromName" x="86.17" y="-12">LR761638.1<title>LR761638.1 73,550,375 bp</title></text><rect class="frame" height="370" width="172.35" x="0" y="0"/></g><g id="chrom-LR761639.1" transform="translate(750.784104388203,0)"><polygon class="cov1" points="0,370 0,370 1,185 2,138.75 3,323.75 4,185 5,231.25 6,370 7,231.25 8,138.75 9,138.75 10,185 11,231.25 12,323.75 13,138.75 14,185 15,138.75 19,138.75 20,92.5 21,138.75 22,185 24,185 25,231.25 26,185 27,323.75 28,370 29,231.25 30,277.5 31,138.75 33,138.75 34,231.25 36,231.25 37,138.75 39,138.75 40,231.25 41,138.75 43,138.75 44,185 45,138.75 46,185 47,138.75 48,138.75 49,185 50,138.75 51,138.75 52,185 53,138.75 54,185 55,138.75 62,138.75 63,185 64,92.5 65,92.5 66,138.75 68,138.75 69,185 70,138.75 73,138.75 74,231.25 75,138.75 79,138.75 80,231.25 81,138.75 83,138.75 84,231.25 85,138.75 87,138.75 88,92.5 89,138.75 90,92.5 91,138.75 92,138.75 93,185 94,185 95,138.75 96,138.75 97,92.5 98,138.75 100,138.75 101,92.5 102,138.75 103,138.75 104,92.5 105,138.75 106,277.5 107,138.75 110,138.75 111,370 112,185 113,92.5 114,185 115,92.5 116,185 117,138.75 119,138.75 120,185 121,138.75 127,138.75 128,185 129,138.75 130,185 131,185 132,231.25 133,370 134,138.75 135,185 137,185 138,231.25 139,231.25 140,323.75 140.95,370"><title>LR761639.1</title></polygon><rect class="average" height="1" width="140.95" x="0" y="144.49"><title>average:4.88</title></rect><rect class="median" height="1" width="140.95" x="0" y="138.75"><title>median:5</title></rect><text class="chromName" x="70.47" y="-12">LR761639.1<title>LR761639.1 60,151,564 bp</title></text><rect class="frame" height="370" width="140.95" x="0" y="0"/></g><g id="chrom-LR761640.1" transform="translate(892.7327113317651,0)"><polygon class="cov0" points="0,370 0,185 1,138.75 2,231.25 3,185 4,185 5,138.75 6,231.25 7,231.25 8,185 9,185 10,138.75 11,185 12,138.75 13,277.5 14,185 15,138.75 16,231.25 17,138.75 18,138.75 19,231.25 20,138.75 22,138.75 23,92.5 24,138.75 25,185 26,92.5 27,138.75 36,138.75 37,231.25 38,138.75 39,185 40,92.5 41,92.5 42,138.75 45,138.75 46,185 47,231.25 48,323.75 49,92.5 50,138.75 56,138.75 57,277.5 58,138.75 59,185 60,277.5 61,138.75 62,138.75 63,185 64,138.75 65,277.5 66,138.75 67,185 68,138.75 69,185 70,185 71,138.75 72,185 73,231.25 74,185 75,138.75 76,138.75 77,231.25 78,138.75 79,185 80,92.5 82,92.5 83,138.75 85,138.75 86,370 87,185 90,185 91,370 92,277.5 93,185 94,277.5 95,138.75 97,138.75 98,185 99,138.75 100,138.75 101,231.25 102,323.75 103,231.25 104,138.75 105,138.75 106,92.5 107,185 108,231.25 109,138.75 110,185 111,185 112,138.75 113,138.75 114,185 115,138.75 116,277.5 117,370 118,370 119,323.75 120,138.75 121,92.5 122,138.75 124,138.75 125,92.5 126,138.75 127,138.75 128,277.5 129,138.75 131,138.75 132,185 133,138.75 134,92.5 135,92.5 136,138.75 138,138.75 139,185 140,138.75 141,138.75 142,185 143,277.5 144,138.75 145,185 145.53,370"><title>LR761640.1</title></polygon><rect class="average" height="1" width="145.53" x="0" y="150.47"><title>average:4.75</title></rect><rect class="median" height="1" width="145.53" x="0" y="185"><title>median:4</title></rect><text class="chromName" x="72.77" y="-12">LR761640.1<title>LR761640.1 62,107,823 bp</title></text><rect class="frame" height="370" width="145.53" x="0" y="0"/></g><g id="chrom-LR761641.1" transform="translate(1039.265271917344,0)"><polygon class="cov1" points="0,370 0,323.75 1,185 2,231.25 3,231.25 4,185 5,277.5 7,277.5 8,323.75 9,231.25 10,185 11,185 12,231.25 13,138.75 14,185 15,138.75 16,185 17,370 18,185 19,185 20,138.75 21,231.25 22,231.25 23,185 25,185 26,231.25 27,185 28,231.25 29,323.75 30,277.5 31,185 32,231.25 33,231.25 34,277.5 35,323.75 36,370 37,231.25 38,277.5 39,277.5 40,231.25 41,277.5 42,323.75 43,370 44,323.75 45,231.25 46,277.5 47,277.5 48,231.25 49,138.75 50,185 51,185 52,138.75 56,138.75 57,185 59,185 60,138.75 61,231.25 62,185 63,231.25 64,185 65,185 66,231.25 67,277.5 68,277.5 69,138.75 70,185 71,138.75 72,231.25 73,370 74,231.25 75,370 76,231.25 77,185 78,185 79,231.25 80,323.75 81,277.5 82,323.75 83,370 84,231.25 85,185 86,323.75 87,138.75 88,277.5 89,231.25 90,277.5 91,231.25 92,138.75 93,277.5 94,231.25 96,231.25 97,370 98,185 99,370 100,185 101,138.75 102,185 103,138.75 104,231.25 105,138.75 106,277.5 107,138.75 108,185 109,185 110,138.75 111,323.75 112,185 113,231.25 114,185 115,185 116,138.75 117,185 118,138.75 119,231.25 120,277.5 121,185 122,185 123,231.25 124,185 125,277.5 126,277.5 127,138.75 128,277.5 129,231.25 130,277.5 131,231.25 132,370 133,323.75 134,185 135,370 136,370 136.99,370"><title>LR761641.1</title></polygon><rect class="average" height="1" width="136.99" x="0" y="185.86"><title>average:3.98</title></rect><rect class="median" height="1" width="136.99" x="0" y="231.25"><title>median:3</title></rect><text class="chromName" x="68.5" y="-12">LR761641.1<title>LR761641.1 58,462,999 bp</title></text><rect class="frame" height="370" width="136.99" x="0" y="0"/></g><g id="chrom-LR761642.1" transform="translate(1177.25719230686,0)"><polygon class="cov0" points="0,370 0,370 1,323.75 2,231.25 3,185 4,92.5 5,231.25 6,323.75 7,231.25 8,138.75 9,92.5 10,92.5 11,138.75 12,92.5 14,92.5 15,277.5 16,277.5 17,138.75 18,92.5 21,92.5 22,46.25 23,231.25 24,185 25,138.75 27,138.75 28,185 29,138.75 30,185 31,138.75 32,138.75 33,231.25 34,231.25 35,323.75 36,138.75 37,185 38,138.75 39,185 40,138.75 41,185 42,138.75 43,185 44,185 45,231.25 46,185 47,277.5 48,231.25 49,323.75 50,231.25 52,231.25 53,138.75 54,138.75 55,231.25 56,185 57,231.25 58,231.25 59,185 60,185 61,370 62,185 66,185 67,323.75 68,231.25 69,185 70,138.75 71,277.5 72,138.75 73,231.25 74,185 75,185 76,323.75 77,185 78,185 79,323.75 80,277.5 81,231.25 82,323.75 83,277.5 84,323.75 85,231.25 86,323.75 86.91,370"><title>LR761642.1</title></polygon><rect class="average" height="1" width="86.91" x="0" y="156.24"><title>average:4.62</title></rect><rect class="median" height="1" width="86.91" x="0" y="185"><title>median:4</title></rect><text class="chromName" x="43.45" y="-12">LR761642.1<title>LR761642.1 37,089,910 bp</title></text><rect class="frame" height="370" width="86.91" x="0" y="0"/></g><g id="chrom-LR761643.1" transform="translate(1265.1671710093603,0)"><polygon class="cov1" points="0,370 0,370 1,323.75 2,185 3,138.75 4,138.75 5,277.5 6,185 8,185 9,138.75 10,138.75 11,185 12,138.75 13,185 14,277.5 15,138.75 17,138.75 18,185 19,185 20,370 21,185 22,138.75 23,138.75 24,185 25,185 26,370 27,370 28,323.75 29,138.75 30,231.25 31,185 32,277.5 33,138.75 34,185 35,185 36,231.25 37,138.75 38,138.75 39,92.5 40,138.75 41,138.75 42,185 43,277.5 44,138.75 45,185 46,138.75 47,277.5 48,185 49,138.75 53,138.75 54,185 55,138.75 57,138.75 58,231.25 59,92.5 60,138.75 61,138.75 62,185 63,138.75 64,185 66,185 67,138.75 70,138.75 71,231.25 73,231.25 74,138.75 75,231.25 76,138.75 77,138.75 78,185 79,277.5 80,138.75 81,92.5 82,138.75 84,138.75 85,92.5 86,138.75 87,92.5 88,138.75 89,370 90,185 91,138.75 93,138.75 94,92.5 95,138.75 96,92.5 99,92.5 100,138.75 101,231.25 102,138.75 103,138.75 104,185 105,138.75 106,92.5 107,92.5 108,138.75 109,92.5 112,92.5 113,231.25 114,138.75 115,138.75 116,92.5 118,92.5 119,138.75 120,138.75 121,92.5 123,92.5 124,138.75 129,138.75 130,185 131,185 132,138.75 133,231.25 134,231.25 134.83,370"><title>LR761643.1</title></polygon><rect class="average" height="1" width="134.83" x="0" y="145.48"><title>average:4.85</title></rect><rect class="median" height="1" width="134.83" x="0" y="138.75"><title>median:5</title></rect><text class="chromName" x="67.42" y="-12">LR761643.1<title>LR761643.1 57,541,580 bp</title></text><rect class="frame" height="370" width="134.83" x="0" y="0"/></g><g><line class="ruler" x1="-2" x2="1390" y1="296" y2="296"><title>1</title></line><text class="ruler" x="-5" y="296">1</text><line class="ruler" x1="-2" x2="1390" y1="259" y2="259"><title>2</title></line><text class="ruler" x="-5" y="259">2</text><line class="ruler" x1="-2" x2="1390" y1="222" y2="222"><title>3</title></line><text class="ruler" x="-5" y="222">3</text><line class="ruler" x1="-2" x2="1390" y1="185" y2="185"><title>4</title></line><text class="ruler" x="-5" y="185">4</text><line class="ruler" x1="-2" x2="1390" y1="111" y2="111"><title>5</title></line><text class="ruler" x="-5" y="111">5</text><line class="ruler" x1="-2" x2="1390" y1="74" y2="74"><title>6</title></line><text class="ruler" x="-5" y="74">6</text><line class="ruler" x1="-2" x2="1390" y1="37" y2="37"><title>7</title></line><text class="ruler" x="-5" y="37">7</text><line class="ruler" x1="-2" x2="1390" y1="0" y2="0"><title>8</title></line><text class="ruler" x="-5" y="0">8</text></g></g><text class="title" x="795" y="40">F11.realigned.bam F11<title>./F11.realigned.bam</title></text><text class="xLabel" x="795" y="475">GCA_902806645.1_cgigas_uk_roslin_v1_genomic.fna  (589,358,857 bp)<title>../ref/GCA_902806645.1_cgigas_uk_roslin_v1_genomic.fna</title></text><text class="yLabel" transform="translate(25,265) rotate(90)" x="0" y="0">Coverage bp (median)</text></g></svg>