<?xml version="1.0" encoding="UTF-8" standalone="no"?><svg height="500" width="1500" xmlns="http://www.w3.org/2000/svg"><title>F11_M10_14.merged.realigned.bam</title><desc>Made with wgscoverageplotter undefined Author: Pierre Lindenbaum</desc><style>g.maing {stroke:black;stroke-width:0.5px;fill:none;}
text.title {stroke:none;fill:black;stroke-width:1px;text-anchor:middle;}
rect.frame {stroke:darkgray;fill:none;stroke-width:0.5px;}
text.ruler {stroke:none;fill:darkgray;stroke-width:1px;text-anchor:end;}
text.chromName {stroke:none;fill:darkgray;stroke-width:1px;text-anchor:middle;}
text.xLabel {stroke:none;fill:black;stroke-width:1px;text-anchor:middle;}
text.yLabel {stroke:none;fill:black;stroke-width:1px;text-anchor:middle;}
.cov0 {stroke:gray;fill:antiquewhite;stroke-width:0.5px;}
.cov1 {stroke:gray;fill:beige;stroke-width:0.5px;}
rect.average {stroke:green;fill:green;stroke-width:0.5px;opacity:0.3;}
rect.median {stroke:red;fill:red;stroke-width:0.5px;opacity:0.3;}
line.ruler {stroke:darkgray;stroke-dasharray:4;fill:none;stroke-width:1;}
</style><g class="maing"><g id="chromosomes" transform="translate(100.0,80.0)"><g id="chrom-LR761634.1" transform="translate(10.0,0)"><polygon class="cov0" points="0,370 0,256.15 1,113.85 2,156.54 3,284.62 4,227.69 5,185 6,284.62 7,185 8,142.31 9,142.31 10,156.54 11,128.08 12,156.54 13,185 14,241.92 15,142.31 16,128.08 17,199.23 18,142.31 19,142.31 20,128.08 21,142.31 22,156.54 23,185 24,170.77 25,128.08 27,128.08 28,142.31 31,142.31 32,270.38 33,142.31 34,142.31 35,156.54 36,128.08 37,185 38,185 39,156.54 40,128.08 41,142.31 42,142.31 43,185 44,170.77 45,227.69 46,185 47,142.31 48,170.77 49,156.54 51,156.54 52,142.31 53,156.54 54,213.46 55,241.92 56,128.08 57,128.08 58,142.31 59,156.54 60,156.54 61,128.08 62,170.77 63,185 64,199.23 65,170.77 66,156.54 67,199.23 68,142.31 69,199.23 70,142.31 71,142.31 72,227.69 73,185 74,156.54 75,142.31 76,142.31 77,199.23 78,185 79,142.31 80,227.69 81,241.92 82,142.31 83,156.54 84,156.54 85,142.31 86,128.08 87,199.23 88,142.31 89,270.38 90,170.77 91,156.54 92,142.31 93,170.77 94,113.85 95,142.31 96,128.08 97,185 98,298.85 99,142.31 100,142.31 101,156.54 102,156.54 103,170.77 104,199.23 105,128.08 106,213.46 107,185 108,270.38 109,128.08 110,113.85 111,156.54 112,128.08 113,170.77 114,284.62 115,199.23 116,113.85 117,128.08 118,113.85 119,156.54 120,213.46 121,128.08 123,128.08 124,142.31 125,128.08 126,128.08 127,142.31 128,199.23 129,156.54 130,185 130.72,370"><title>LR761634.1</title></polygon><rect class="average" height="1" width="130.72" x="0" y="159.52"><title>average:14.79</title></rect><rect class="median" height="1" width="130.72" x="0" y="156.54"><title>median:15</title></rect><text class="chromName" x="65.36" y="-12">LR761634.1<title>LR761634.1 55,785,328 bp</title></text><rect class="frame" height="370" width="130.72" x="0" y="0"/></g><g id="chrom-LR761635.1" transform="translate(141.71753661284166,0)"><polygon class="cov1" points="0,370 0,341.54 1,355.77 2,313.08 3,270.38 4,341.54 5,370 6,241.92 7,313.08 8,327.31 9,241.92 10,256.15 11,284.62 12,256.15 13,156.54 14,213.46 15,298.85 16,298.85 17,227.69 18,270.38 19,227.69 20,284.62 23,284.62 24,313.08 25,341.54 26,313.08 27,327.31 28,313.08 29,341.54 30,327.31 31,327.31 32,241.92 33,213.46 34,199.23 35,241.92 36,227.69 37,313.08 38,284.62 39,170.77 40,199.23 41,227.69 42,170.77 43,185 44,142.31 45,185 46,199.23 47,170.77 48,313.08 49,199.23 50,241.92 51,298.85 52,241.92 53,227.69 54,256.15 55,270.38 56,327.31 57,284.62 58,185 59,298.85 60,370 61,284.62 62,142.31 63,284.62 64,313.08 65,256.15 66,270.38 67,256.15 68,199.23 69,298.85 70,284.62 71,185 72,241.92 73,227.69 75,227.69 76,327.31 77,0 78,256.15 79,298.85 80,142.31 81,270.38 82,327.31 83,327.31 84,355.77 85,313.08 86,341.54 87,341.54 88,327.31 89,355.77 90,256.15 91,313.08 92,313.08 93,284.62 94,256.15 95,298.85 96,341.54 97,327.31 98,327.31 99,298.85 100,241.92 101,298.85 102,313.08 103,213.46 104,170.77 105,185 106,241.92 107,313.08 108,199.23 109,199.23 110,256.15 111,199.23 112,327.31 113,313.08 114,298.85 115,270.38 116,241.92 117,256.15 118,170.77 119,170.77 120,142.31 121,213.46 122,241.92 123,241.92 124,270.38 125,142.31 126,227.69 127,241.92 128,142.31 129,185 130,170.77 131,298.85 132,213.46 133,284.62 134,313.08 135,256.15 136,313.08 138,313.08 139,284.62 140,327.31 141,298.85 142,298.85 143,327.31 144,298.85 145,227.69 146,270.38 147,85.38 148,156.54 149,142.31 150,227.69 151,284.62 152,341.54 153,227.69 154,270.38 155,270.38 156,298.85 157,298.85 158,213.46 159,170.77 160,241.92 161,199.23 162,284.62 163,270.38 164,227.69 165,270.38 166,313.08 167,341.54 168,298.85 170,298.85 171,313.08 171.58,370"><title>LR761635.1</title></polygon><rect class="average" height="1" width="171.58" x="0" y="211.45"><title>average:11.14</title></rect><rect class="median" height="1" width="171.58" x="0" y="270.38"><title>median:7</title></rect><text class="chromName" x="85.79" y="-12">LR761635.1<title>LR761635.1 73,222,313 bp</title></text><rect class="frame" height="370" width="171.58" x="0" y="0"/></g><g id="chrom-LR761636.1" transform="translate(314.2938403401308,0)"><polygon class="cov0" points="0,370 0,327.31 1,142.31 2,256.15 3,298.85 4,227.69 5,128.08 6,128.08 7,142.31 8,128.08 9,156.54 10,128.08 11,142.31 12,142.31 13,213.46 14,113.85 15,142.31 16,128.08 17,128.08 18,156.54 19,170.77 20,142.31 23,142.31 24,213.46 25,128.08 26,199.23 27,270.38 28,142.31 29,128.08 31,128.08 32,113.85 33,128.08 34,156.54 35,185 36,142.31 37,170.77 38,156.54 39,142.31 40,170.77 42,170.77 43,156.54 44,142.31 45,156.54 46,170.77 47,156.54 48,241.92 49,156.54 50,170.77 51,128.08 52,142.31 53,156.54 54,270.38 55,185 56,170.77 57,142.31 58,156.54 59,142.31 60,156.54 61,213.46 62,170.77 63,156.54 64,142.31 65,170.77 66,156.54 67,156.54 68,185 69,156.54 70,199.23 71,113.85 72,128.08 73,170.77 75,170.77 76,313.08 77,227.69 78,256.15 79,270.38 80,270.38 81,142.31 82,213.46 83,170.77 84,128.08 85,142.31 86,256.15 87,156.54 88,156.54 89,213.46 90,156.54 91,142.31 92,185 93,170.77 94,142.31 95,185 96,199.23 97,142.31 98,156.54 99,185 100,170.77 101,156.54 102,156.54 103,128.08 104,142.31 107,142.31 108,128.08 109,142.31 110,142.31 111,170.77 113,170.77 114,142.31 115,128.08 116,142.31 117,156.54 118,170.77 119,142.31 120,142.31 121,185 122,142.31 123,128.08 124,185 125,128.08 126,128.08 127,199.23 128,241.92 129,128.08 130,156.54 131,170.77 132,170.77 133,142.31 134,128.08 135,142.31 136,298.85 136.65,370"><title>LR761636.1</title></polygon><rect class="average" height="1" width="136.65" x="0" y="160.49"><title>average:14.72</title></rect><rect class="median" height="1" width="136.65" x="0" y="156.54"><title>median:15</title></rect><text class="chromName" x="68.33" y="-12">LR761636.1<title>LR761636.1 58,319,100 bp</title></text><rect class="frame" height="370" width="136.65" x="0" y="0"/></g><g id="chrom-LR761637.1" transform="translate(451.9485730949149,0)"><polygon class="cov1" points="0,370 0,355.77 1,270.38 2,313.08 3,284.62 4,227.69 5,185 6,185 7,256.15 8,213.46 9,298.85 10,298.85 11,156.54 12,241.92 13,256.15 14,256.15 15,170.77 16,227.69 17,156.54 18,298.85 19,313.08 20,227.69 21,170.77 22,170.77 23,227.69 24,341.54 25,170.77 26,142.31 27,227.69 28,213.46 29,241.92 30,270.38 31,170.77 32,156.54 33,185 34,113.85 35,185 36,284.62 37,256.15 38,156.54 40,156.54 41,256.15 42,213.46 43,284.62 44,313.08 45,199.23 46,156.54 47,142.31 49,142.31 50,185 51,156.54 52,99.62 53,170.77 54,128.08 55,142.31 56,156.54 57,227.69 58,284.62 60,284.62 61,227.69 62,142.31 64,142.31 65,156.54 66,156.54 67,170.77 68,199.23 69,142.31 70,170.77 71,156.54 72,185 73,142.31 74,185 75,170.77 76,156.54 77,156.54 78,142.31 79,185 80,170.77 81,156.54 82,142.31 83,156.54 84,156.54 85,128.08 86,241.92 87,156.54 88,128.08 89,156.54 90,128.08 91,156.54 92,128.08 93,185 94,213.46 95,213.46 96,185 97,142.31 98,113.85 99,128.08 100,185 101,213.46 102,227.69 103,256.15 104,241.92 105,199.23 106,128.08 107,113.85 108,113.85 109,128.08 110,113.85 111,170.77 112,142.31 113,128.08 114,270.38 115,199.23 116,185 117,170.77 118,156.54 119,313.08 120,170.77 121,128.08 122,327.31 123,341.54 124,298.85 124.49,370"><title>LR761637.1</title></polygon><rect class="average" height="1" width="124.49" x="0" y="178.84"><title>average:13.43</title></rect><rect class="median" height="1" width="124.49" x="0" y="185"><title>median:13</title></rect><text class="chromName" x="62.25" y="-12">LR761637.1<title>LR761637.1 53,127,865 bp</title></text><rect class="frame" height="370" width="124.49" x="0" y="0"/></g><g id="chrom-LR761638.1" transform="translate(577.4390778079033,0)"><polygon class="cov0" points="0,370 0,199.23 1,142.31 2,313.08 3,128.08 4,199.23 5,128.08 6,199.23 7,199.23 8,213.46 9,128.08 10,185 11,298.85 12,128.08 13,156.54 14,128.08 15,156.54 16,128.08 17,142.31 18,256.15 19,298.85 20,156.54 21,213.46 22,142.31 23,128.08 24,128.08 25,170.77 26,355.77 27,128.08 28,185 29,270.38 30,241.92 31,156.54 32,355.77 33,341.54 34,199.23 35,256.15 36,170.77 37,313.08 38,298.85 39,284.62 40,313.08 41,313.08 42,270.38 43,142.31 44,156.54 45,298.85 46,185 47,113.85 48,128.08 49,213.46 50,313.08 51,241.92 52,199.23 53,170.77 54,270.38 55,227.69 56,170.77 57,227.69 58,170.77 59,199.23 60,185 61,241.92 62,156.54 63,313.08 64,313.08 65,298.85 66,241.92 67,213.46 68,170.77 69,227.69 70,185 71,313.08 72,355.77 73,298.85 74,241.92 75,327.31 76,341.54 77,213.46 78,370 79,355.77 80,313.08 81,185 82,298.85 83,341.54 84,313.08 85,185 86,156.54 87,170.77 88,313.08 89,142.31 90,270.38 91,156.54 92,113.85 93,128.08 94,156.54 95,213.46 96,298.85 97,156.54 98,327.31 99,227.69 100,199.23 101,170.77 102,270.38 103,185 104,313.08 105,284.62 106,241.92 107,170.77 108,227.69 109,199.23 110,213.46 111,185 112,298.85 113,227.69 114,241.92 115,270.38 116,313.08 117,355.77 118,327.31 119,284.62 120,270.38 121,341.54 122,341.54 123,355.77 124,284.62 125,313.08 126,298.85 127,270.38 128,355.77 129,284.62 130,327.31 131,313.08 132,270.38 133,313.08 134,256.15 135,298.85 136,170.77 137,270.38 138,298.85 139,270.38 140,313.08 141,370 142,284.62 143,256.15 144,185 145,170.77 146,213.46 147,142.31 148,156.54 149,170.77 150,185 151,270.38 152,170.77 153,156.54 154,270.38 155,298.85 156,185 157,227.69 158,298.85 159,284.62 160,298.85 162,298.85 163,256.15 164,313.08 165,355.77 166,341.54 167,370 168,313.08 169,241.92 170,355.77 171,313.08 172,341.54 172.35,370"><title>LR761638.1</title></polygon><rect class="average" height="1" width="172.35" x="0" y="209.07"><title>average:11.31</title></rect><rect class="median" height="1" width="172.35" x="0" y="256.15"><title>median:8</title></rect><text class="chromName" x="86.17" y="-12">LR761638.1<title>LR761638.1 73,550,375 bp</title></text><rect class="frame" height="370" width="172.35" x="0" y="0"/></g><g id="chrom-LR761639.1" transform="translate(750.784104388203,0)"><polygon class="cov1" points="0,370 0,298.85 1,142.31 2,113.85 3,227.69 4,128.08 5,213.46 6,313.08 7,256.15 8,142.31 9,142.31 10,156.54 11,256.15 12,241.92 13,142.31 14,170.77 15,142.31 16,142.31 17,128.08 18,142.31 19,128.08 20,128.08 21,142.31 22,156.54 23,185 24,170.77 25,227.69 26,199.23 27,313.08 28,341.54 29,199.23 30,298.85 31,128.08 32,170.77 33,128.08 34,199.23 35,213.46 36,241.92 37,142.31 38,142.31 39,156.54 40,185 41,128.08 42,156.54 43,128.08 44,156.54 45,128.08 46,170.77 47,156.54 48,142.31 49,170.77 50,170.77 51,142.31 52,213.46 53,156.54 54,170.77 55,156.54 56,142.31 57,156.54 58,156.54 59,142.31 60,156.54 61,128.08 62,128.08 63,170.77 64,128.08 65,142.31 66,170.77 67,156.54 68,156.54 69,185 70,156.54 71,156.54 72,170.77 73,142.31 74,256.15 75,156.54 77,156.54 78,142.31 79,156.54 80,156.54 81,142.31 82,156.54 83,156.54 84,213.46 85,156.54 86,142.31 87,142.31 88,128.08 89,142.31 90,128.08 91,156.54 92,156.54 93,185 94,170.77 95,142.31 96,156.54 97,142.31 99,142.31 100,156.54 101,142.31 102,156.54 103,156.54 104,128.08 105,142.31 106,256.15 107,156.54 108,128.08 109,142.31 110,142.31 111,313.08 112,199.23 113,128.08 114,185 115,128.08 116,170.77 117,142.31 118,142.31 119,128.08 120,170.77 121,142.31 123,142.31 124,170.77 125,142.31 126,142.31 127,128.08 128,156.54 129,128.08 130,156.54 131,156.54 132,185 133,341.54 134,128.08 135,199.23 136,142.31 137,156.54 138,170.77 139,170.77 140,313.08 140.95,370"><title>LR761639.1</title></polygon><rect class="average" height="1" width="140.95" x="0" y="162.52"><title>average:14.58</title></rect><rect class="median" height="1" width="140.95" x="0" y="156.54"><title>median:15</title></rect><text class="chromName" x="70.47" y="-12">LR761639.1<title>LR761639.1 60,151,564 bp</title></text><rect class="frame" height="370" width="140.95" x="0" y="0"/></g><g id="chrom-LR761640.1" transform="translate(892.7327113317651,0)"><polygon class="cov0" points="0,370 0,185 1,128.08 2,199.23 3,185 4,170.77 5,128.08 6,199.23 7,199.23 8,142.31 9,185 10,142.31 11,156.54 12,128.08 13,256.15 14,170.77 15,142.31 16,213.46 17,156.54 18,142.31 19,213.46 20,142.31 21,156.54 22,142.31 23,128.08 24,156.54 25,170.77 26,128.08 27,156.54 28,156.54 29,142.31 30,156.54 31,142.31 33,142.31 34,170.77 35,156.54 36,156.54 37,213.46 38,128.08 39,170.77 40,128.08 41,142.31 42,99.62 43,128.08 44,128.08 45,156.54 46,156.54 47,256.15 48,327.31 49,142.31 50,185 51,156.54 52,128.08 53,156.54 54,128.08 55,128.08 56,142.31 57,213.46 58,156.54 59,199.23 60,256.15 61,142.31 62,170.77 63,213.46 64,142.31 65,270.38 66,156.54 67,156.54 68,170.77 69,199.23 70,199.23 71,156.54 72,156.54 73,213.46 74,185 75,156.54 76,142.31 77,227.69 78,156.54 79,199.23 80,128.08 81,113.85 82,128.08 83,142.31 85,142.31 86,298.85 87,170.77 88,170.77 89,185 90,170.77 91,341.54 92,298.85 93,199.23 94,256.15 95,170.77 96,156.54 97,156.54 98,170.77 99,156.54 100,128.08 101,199.23 102,327.31 103,227.69 104,142.31 105,128.08 106,142.31 107,185 108,199.23 109,142.31 110,185 111,213.46 112,170.77 113,156.54 114,185 115,142.31 116,284.62 117,341.54 118,355.77 119,298.85 120,142.31 123,142.31 124,156.54 125,142.31 127,142.31 128,256.15 129,170.77 130,142.31 131,142.31 132,156.54 133,128.08 134,128.08 135,113.85 136,142.31 138,142.31 139,185 140,142.31 141,142.31 142,170.77 143,185 144,142.31 145,128.08 145.53,370"><title>LR761640.1</title></polygon><rect class="average" height="1" width="145.53" x="0" y="167.37"><title>average:14.24</title></rect><rect class="median" height="1" width="145.53" x="0" y="156.54"><title>median:15</title></rect><text class="chromName" x="72.77" y="-12">LR761640.1<title>LR761640.1 62,107,823 bp</title></text><rect class="frame" height="370" width="145.53" x="0" y="0"/></g><g id="chrom-LR761641.1" transform="translate(1039.265271917344,0)"><polygon class="cov1" points="0,370 0,270.38 1,170.77 2,270.38 3,185 4,241.92 5,185 6,284.62 7,270.38 8,284.62 9,199.23 10,128.08 11,227.69 12,213.46 13,128.08 14,256.15 15,156.54 16,142.31 17,270.38 18,128.08 19,113.85 20,142.31 21,156.54 22,213.46 23,170.77 25,170.77 26,227.69 28,227.69 29,284.62 30,227.69 31,199.23 32,270.38 33,256.15 34,284.62 35,284.62 36,327.31 37,270.38 38,256.15 39,284.62 40,199.23 41,241.92 42,241.92 43,313.08 44,256.15 45,199.23 46,256.15 47,270.38 48,284.62 49,156.54 50,185 51,156.54 52,142.31 53,128.08 56,128.08 57,170.77 58,185 59,199.23 60,156.54 61,341.54 62,142.31 63,199.23 64,185 65,170.77 66,213.46 67,227.69 68,256.15 69,170.77 70,270.38 71,128.08 72,199.23 73,313.08 74,227.69 75,313.08 76,170.77 77,185 78,156.54 79,241.92 80,270.38 81,341.54 83,341.54 84,185 85,156.54 86,270.38 87,128.08 88,213.46 89,185 90,270.38 91,227.69 92,128.08 93,213.46 94,270.38 95,241.92 96,199.23 97,313.08 98,142.31 99,370 100,298.85 101,128.08 102,185 103,128.08 104,185 105,142.31 106,227.69 107,142.31 109,142.31 110,128.08 111,298.85 112,128.08 113,227.69 114,156.54 115,170.77 116,128.08 117,170.77 118,142.31 119,213.46 120,227.69 121,156.54 122,170.77 123,227.69 124,156.54 125,227.69 126,241.92 127,128.08 128,256.15 129,170.77 130,284.62 131,199.23 132,355.77 133,284.62 134,142.31 135,355.77 136,341.54 136.99,370"><title>LR761641.1</title></polygon><rect class="average" height="1" width="136.99" x="0" y="186.25"><title>average:12.91</title></rect><rect class="median" height="1" width="136.99" x="0" y="213.46"><title>median:11</title></rect><text class="chromName" x="68.5" y="-12">LR761641.1<title>LR761641.1 58,462,999 bp</title></text><rect class="frame" height="370" width="136.99" x="0" y="0"/></g><g id="chrom-LR761642.1" transform="translate(1177.25719230686,0)"><polygon class="cov0" points="0,370 0,327.31 1,341.54 2,355.77 3,256.15 4,298.85 5,327.31 6,327.31 7,313.08 8,341.54 9,298.85 10,284.62 11,241.92 12,241.92 13,113.85 14,199.23 15,185 16,284.62 17,227.69 18,270.38 19,213.46 20,227.69 21,170.77 22,298.85 23,241.92 24,170.77 25,128.08 26,156.54 27,199.23 28,284.62 29,156.54 30,213.46 31,142.31 32,170.77 33,241.92 34,156.54 35,298.85 36,156.54 37,170.77 38,128.08 39,185 40,156.54 41,185 42,128.08 43,156.54 44,156.54 45,227.69 46,156.54 47,256.15 48,284.62 49,284.62 50,185 51,213.46 52,227.69 53,128.08 54,142.31 55,213.46 56,185 57,185 58,256.15 59,142.31 60,156.54 61,313.08 62,213.46 63,185 64,199.23 65,170.77 66,170.77 67,355.77 68,241.92 69,156.54 70,142.31 71,241.92 72,156.54 73,227.69 74,142.31 75,199.23 76,284.62 77,156.54 78,142.31 79,270.38 80,241.92 81,185 82,298.85 83,241.92 84,298.85 85,170.77 86,327.31 86.91,370"><title>LR761642.1</title></polygon><rect class="average" height="1" width="86.91" x="0" y="181.4"><title>average:13.25</title></rect><rect class="median" height="1" width="86.91" x="0" y="213.46"><title>median:11</title></rect><text class="chromName" x="43.45" y="-12">LR761642.1<title>LR761642.1 37,089,910 bp</title></text><rect class="frame" height="370" width="86.91" x="0" y="0"/></g><g id="chrom-LR761643.1" transform="translate(1265.1671710093603,0)"><polygon class="cov1" points="0,370 0,341.54 1,241.92 2,156.54 3,128.08 4,170.77 5,241.92 6,185 7,170.77 8,156.54 9,142.31 10,142.31 11,170.77 12,142.31 13,199.23 14,241.92 15,156.54 16,128.08 17,170.77 18,170.77 19,185 20,341.54 21,170.77 22,142.31 23,142.31 24,156.54 25,185 26,355.77 27,327.31 28,270.38 29,142.31 30,227.69 31,170.77 32,213.46 33,156.54 34,128.08 35,199.23 36,256.15 37,142.31 38,156.54 39,142.31 40,156.54 41,170.77 42,199.23 43,284.62 44,170.77 45,185 46,142.31 47,256.15 48,170.77 49,156.54 50,170.77 51,142.31 52,156.54 53,185 54,185 55,156.54 56,142.31 57,142.31 58,156.54 59,156.54 60,128.08 61,142.31 62,185 63,156.54 64,170.77 65,199.23 66,170.77 67,170.77 68,156.54 69,156.54 70,170.77 71,256.15 72,213.46 73,227.69 74,142.31 75,227.69 76,156.54 77,142.31 78,199.23 79,256.15 80,142.31 81,128.08 82,156.54 83,142.31 85,142.31 86,156.54 87,142.31 88,170.77 89,355.77 90,199.23 91,142.31 92,128.08 93,156.54 94,142.31 95,170.77 96,128.08 97,142.31 98,128.08 99,128.08 100,142.31 101,241.92 102,142.31 103,156.54 104,170.77 105,156.54 106,142.31 107,128.08 108,156.54 109,128.08 111,128.08 112,142.31 113,213.46 114,170.77 115,142.31 116,128.08 117,128.08 118,142.31 119,170.77 120,128.08 123,128.08 124,142.31 125,142.31 126,128.08 127,199.23 128,142.31 129,128.08 130,185 131,199.23 132,128.08 133,227.69 134,284.62 134.83,370"><title>LR761643.1</title></polygon><rect class="average" height="1" width="134.83" x="0" y="169.35"><title>average:14.1</title></rect><rect class="median" height="1" width="134.83" x="0" y="156.54"><title>median:15</title></rect><text class="chromName" x="67.42" y="-12">LR761643.1<title>LR761643.1 57,541,580 bp</title></text><rect class="frame" height="370" width="134.83" x="0" y="0"/></g><g><line class="ruler" x1="-2" x2="1390" y1="333" y2="333"><title>2</title></line><text class="ruler" x="-5" y="333">2</text><line class="ruler" x1="-2" x2="1390" y1="296" y2="296"><title>5</title></line><text class="ruler" x="-5" y="296">5</text><line class="ruler" x1="-2" x2="1390" y1="259" y2="259"><title>7</title></line><text class="ruler" x="-5" y="259">7</text><line class="ruler" x1="-2" x2="1390" y1="222" y2="222"><title>10</title></line><text class="ruler" x="-5" y="222">10</text><line class="ruler" x1="-2" x2="1390" y1="185" y2="185"><title>13</title></line><text class="ruler" x="-5" y="185">13</text><line class="ruler" x1="-2" x2="1390" y1="148" y2="148"><title>15</title></line><text class="ruler" x="-5" y="148">15</text><line class="ruler" x1="-2" x2="1390" y1="111" y2="111"><title>18</title></line><text class="ruler" x="-5" y="111">18</text><line class="ruler" x1="-2" x2="1390" y1="74" y2="74"><title>20</title></line><text class="ruler" x="-5" y="74">20</text><line class="ruler" x1="-2" x2="1390" y1="37" y2="37"><title>23</title></line><text class="ruler" x="-5" y="37">23</text><line class="ruler" x1="-2" x2="1390" y1="0" y2="0"><title>26</title></line><text class="ruler" x="-5" y="0">26</text></g></g><text class="title" x="795" y="40">F11_M10_14.merged.realigned.bam F11_M10_14 F11_M10_14_1 F11_M10_14_2<title>./F11_M10_14.merged.realigned.bam</title></text><text class="xLabel" x="795" y="475">GCA_902806645.1_cgigas_uk_roslin_v1_genomic.fna  (589,358,857 bp)<title>../ref/GCA_902806645.1_cgigas_uk_roslin_v1_genomic.fna</title></text><text class="yLabel" transform="translate(25,265) rotate(90)" x="0" y="0">Coverage bp (median)</text></g></svg>