<?xml version="1.0" encoding="UTF-8" standalone="no"?><svg height="500" width="1500" xmlns="http://www.w3.org/2000/svg"><title>F11_M11_24.merged.realigned.bam</title><desc>Made with wgscoverageplotter undefined Author: Pierre Lindenbaum</desc><style>g.maing {stroke:black;stroke-width:0.5px;fill:none;}
text.title {stroke:none;fill:black;stroke-width:1px;text-anchor:middle;}
rect.frame {stroke:darkgray;fill:none;stroke-width:0.5px;}
text.ruler {stroke:none;fill:darkgray;stroke-width:1px;text-anchor:end;}
text.chromName {stroke:none;fill:darkgray;stroke-width:1px;text-anchor:middle;}
text.xLabel {stroke:none;fill:black;stroke-width:1px;text-anchor:middle;}
text.yLabel {stroke:none;fill:black;stroke-width:1px;text-anchor:middle;}
.cov0 {stroke:gray;fill:antiquewhite;stroke-width:0.5px;}
.cov1 {stroke:gray;fill:beige;stroke-width:0.5px;}
rect.average {stroke:green;fill:green;stroke-width:0.5px;opacity:0.3;}
rect.median {stroke:red;fill:red;stroke-width:0.5px;opacity:0.3;}
line.ruler {stroke:darkgray;stroke-dasharray:4;fill:none;stroke-width:1;}
</style><g class="maing"><g id="chromosomes" transform="translate(100.0,80.0)"><g id="chrom-LR761634.1" transform="translate(10.0,0)"><polygon class="cov0" points="0,370 0,308.33 1,111 2,148 3,271.33 4,234.33 5,172.67 6,259 7,197.33 8,160.33 9,135.67 10,160.33 11,123.33 12,160.33 13,246.67 14,283.67 15,148 16,135.67 17,222 18,135.67 19,135.67 20,123.33 21,135.67 22,148 23,160.33 24,160.33 25,123.33 26,123.33 27,135.67 31,135.67 32,271.33 33,135.67 34,135.67 35,148 36,123.33 37,197.33 38,197.33 39,148 40,135.67 42,135.67 43,172.67 44,160.33 45,209.67 46,172.67 47,135.67 48,148 51,148 52,135.67 53,148 54,234.33 55,283.67 56,135.67 57,111 58,135.67 59,160.33 60,160.33 61,123.33 62,160.33 63,185 64,197.33 65,172.67 66,135.67 67,185 68,135.67 69,209.67 70,135.67 71,123.33 72,185 73,160.33 74,148 75,135.67 76,135.67 77,197.33 78,160.33 79,148 80,308.33 81,296 82,135.67 83,148 85,148 86,123.33 87,197.33 88,123.33 89,271.33 90,160.33 91,148 92,135.67 93,160.33 94,98.67 95,123.33 96,111 97,172.67 98,308.33 99,135.67 100,135.67 101,185 102,148 103,148 104,185 105,123.33 106,209.67 107,197.33 108,234.33 109,111 110,111 111,135.67 112,123.33 113,185 114,296 115,197.33 116,111 117,135.67 118,111 119,160.33 120,185 121,123.33 122,135.67 123,123.33 124,135.67 125,123.33 126,135.67 127,135.67 128,172.67 129,148 130,222 130.72,370"><title>LR761634.1</title></polygon><rect class="average" height="1" width="130.72" x="0" y="158.29"><title>average:17.17</title></rect><rect class="median" height="1" width="130.72" x="0" y="148"><title>median:18</title></rect><text class="chromName" x="65.36" y="-12">LR761634.1<title>LR761634.1 55,785,328 bp</title></text><rect class="frame" height="370" width="130.72" x="0" y="0"/></g><g id="chrom-LR761635.1" transform="translate(141.71753661284166,0)"><polygon class="cov1" points="0,370 0,320.67 1,357.67 2,308.33 3,234.33 4,333 5,320.67 6,234.33 7,308.33 8,296 9,123.33 10,98.67 11,222 12,135.67 13,148 14,246.67 15,296 16,345.33 17,246.67 18,296 19,259 20,283.67 21,283.67 22,271.33 23,246.67 24,333 25,308.33 26,308.33 27,320.67 28,296 29,357.67 30,320.67 31,296 32,246.67 33,209.67 34,234.33 35,234.33 36,271.33 37,320.67 38,333 39,172.67 40,222 41,259 42,160.33 43,246.67 44,148 45,185 46,197.33 47,160.33 48,271.33 49,185 50,222 51,333 52,246.67 53,222 54,283.67 55,271.33 56,333 57,296 58,185 59,296 60,345.33 61,283.67 62,160.33 63,296 64,308.33 65,271.33 66,271.33 67,246.67 68,234.33 69,296 70,283.67 71,209.67 72,222 73,209.67 74,259 75,197.33 76,320.67 77,0 78,246.67 79,308.33 80,160.33 81,283.67 82,308.33 83,296 84,308.33 85,308.33 86,357.67 87,345.33 88,333 89,357.67 90,296 91,320.67 92,320.67 93,283.67 94,259 95,271.33 96,296 97,283.67 98,320.67 99,283.67 100,308.33 102,308.33 103,222 104,197.33 105,160.33 106,246.67 107,296 108,185 109,197.33 110,259 111,185 112,308.33 113,308.33 114,320.67 115,320.67 116,296 117,283.67 118,172.67 119,172.67 120,135.67 121,209.67 122,246.67 123,246.67 124,271.33 125,148 126,246.67 127,271.33 128,172.67 129,296 130,185 131,259 132,222 133,308.33 134,308.33 135,296 136,333 137,308.33 138,308.33 139,271.33 140,345.33 141,308.33 142,283.67 143,308.33 144,271.33 145,222 146,259 147,135.67 148,160.33 149,135.67 150,222 151,271.33 152,333 153,234.33 154,308.33 155,271.33 156,283.67 157,283.67 158,246.67 159,160.33 160,246.67 161,234.33 162,259 163,185 164,185 165,234.33 166,259 167,296 168,271.33 169,271.33 170,296 171,320.67 171.58,370"><title>LR761635.1</title></polygon><rect class="average" height="1" width="171.58" x="0" y="209.73"><title>average:12.99</title></rect><rect class="median" height="1" width="171.58" x="0" y="271.33"><title>median:8</title></rect><text class="chromName" x="85.79" y="-12">LR761635.1<title>LR761635.1 73,222,313 bp</title></text><rect class="frame" height="370" width="171.58" x="0" y="0"/></g><g id="chrom-LR761636.1" transform="translate(314.2938403401308,0)"><polygon class="cov0" points="0,370 0,259 1,172.67 2,246.67 3,308.33 4,234.33 5,123.33 6,148 7,160.33 8,111 9,135.67 10,111 11,123.33 12,135.67 13,197.33 14,111 15,135.67 16,123.33 17,123.33 18,148 19,111 20,123.33 21,111 22,111 23,123.33 24,172.67 25,111 26,172.67 27,246.67 28,123.33 29,111 30,123.33 31,111 32,123.33 33,123.33 34,135.67 35,197.33 36,135.67 37,172.67 38,148 39,135.67 40,160.33 42,160.33 43,148 45,148 46,172.67 47,135.67 48,209.67 49,148 50,172.67 51,123.33 52,135.67 53,135.67 54,259 55,172.67 56,160.33 57,135.67 58,160.33 59,135.67 60,160.33 61,222 62,160.33 63,148 64,135.67 65,148 67,148 68,160.33 69,160.33 70,185 71,111 72,123.33 73,172.67 74,160.33 75,160.33 76,308.33 77,209.67 78,234.33 79,271.33 80,259 81,135.67 82,209.67 83,160.33 84,123.33 85,135.67 86,271.33 87,148 88,148 89,209.67 90,148 91,123.33 92,160.33 93,160.33 94,135.67 95,160.33 96,197.33 97,135.67 98,148 99,185 100,160.33 101,148 102,160.33 103,123.33 104,135.67 105,135.67 106,148 107,135.67 108,123.33 109,135.67 110,135.67 111,160.33 112,160.33 113,148 114,123.33 116,123.33 117,135.67 118,160.33 119,135.67 120,135.67 121,234.33 122,123.33 123,123.33 124,197.33 125,123.33 126,123.33 127,197.33 128,259 129,123.33 130,148 131,160.33 132,160.33 133,135.67 134,123.33 135,123.33 136,209.67 136.65,370"><title>LR761636.1</title></polygon><rect class="average" height="1" width="136.65" x="0" y="153.74"><title>average:17.53</title></rect><rect class="median" height="1" width="136.65" x="0" y="148"><title>median:18</title></rect><text class="chromName" x="68.33" y="-12">LR761636.1<title>LR761636.1 58,319,100 bp</title></text><rect class="frame" height="370" width="136.65" x="0" y="0"/></g><g id="chrom-LR761637.1" transform="translate(451.9485730949149,0)"><polygon class="cov1" points="0,370 0,296 1,234.33 2,283.67 3,246.67 4,222 5,172.67 6,246.67 8,246.67 9,296 10,320.67 11,148 12,259 13,283.67 14,283.67 15,172.67 16,222 17,123.33 18,283.67 19,308.33 20,234.33 21,172.67 22,148 23,222 24,308.33 25,172.67 26,135.67 27,234.33 28,234.33 29,246.67 30,271.33 31,148 33,148 34,123.33 35,197.33 36,308.33 37,333 38,160.33 39,160.33 40,148 41,283.67 42,197.33 43,259 44,308.33 45,222 46,148 47,148 48,135.67 49,135.67 50,197.33 51,148 52,111 53,185 54,123.33 55,135.67 56,172.67 57,234.33 58,283.67 59,320.67 60,320.67 61,222 62,135.67 63,148 64,135.67 65,160.33 66,148 67,160.33 68,197.33 69,135.67 70,160.33 71,148 72,185 73,135.67 74,185 75,160.33 76,148 77,160.33 78,185 79,197.33 80,172.67 81,185 82,135.67 83,148 84,160.33 85,123.33 86,209.67 87,160.33 88,135.67 89,148 90,123.33 91,135.67 92,123.33 93,172.67 94,185 95,222 96,197.33 97,135.67 98,111 99,123.33 100,209.67 101,246.67 102,222 103,259 104,271.33 105,246.67 106,123.33 107,111 108,111 109,123.33 110,98.67 111,123.33 112,123.33 113,111 114,308.33 115,197.33 116,160.33 117,148 118,123.33 119,320.67 120,135.67 121,123.33 122,246.67 123,222 124,160.33 124.49,370"><title>LR761637.1</title></polygon><rect class="average" height="1" width="124.49" x="0" y="177.04"><title>average:15.65</title></rect><rect class="median" height="1" width="124.49" x="0" y="185"><title>median:15</title></rect><text class="chromName" x="62.25" y="-12">LR761637.1<title>LR761637.1 53,127,865 bp</title></text><rect class="frame" height="370" width="124.49" x="0" y="0"/></g><g id="chrom-LR761638.1" transform="translate(577.4390778079033,0)"><polygon class="cov0" points="0,370 0,197.33 1,160.33 2,259 3,135.67 4,209.67 5,123.33 6,209.67 7,185 8,172.67 9,123.33 10,172.67 11,296 12,123.33 13,160.33 14,111 15,148 16,111 17,123.33 18,246.67 19,320.67 20,135.67 21,234.33 22,135.67 23,135.67 24,123.33 25,172.67 26,357.67 27,123.33 28,185 29,296 30,259 31,148 32,357.67 33,320.67 34,185 35,234.33 36,160.33 37,296 38,296 39,333 40,345.33 41,333 42,246.67 43,148 44,148 45,308.33 46,148 47,123.33 48,123.33 49,209.67 50,357.67 51,209.67 52,197.33 53,172.67 54,185 55,246.67 56,148 57,209.67 58,135.67 59,197.33 60,172.67 61,209.67 62,160.33 63,320.67 64,296 65,333 66,172.67 67,222 68,160.33 69,296 70,185 71,345.33 72,357.67 73,283.67 74,246.67 75,333 76,333 77,197.33 78,320.67 79,283.67 80,296 81,185 82,333 83,333 84,296 85,209.67 86,123.33 87,172.67 88,308.33 89,135.67 90,296 91,148 92,111 93,123.33 94,148 95,222 96,271.33 97,123.33 98,283.67 99,185 100,197.33 101,160.33 102,271.33 103,172.67 104,234.33 105,259 106,234.33 107,172.67 108,209.67 109,160.33 110,197.33 111,172.67 112,271.33 113,234.33 114,259 115,271.33 116,320.67 117,296 118,345.33 119,296 120,259 121,345.33 122,357.67 123,357.67 124,271.33 125,308.33 126,333 127,296 128,370 129,271.33 130,320.67 131,308.33 132,259 133,333 134,271.33 135,283.67 136,160.33 137,357.67 138,345.33 139,271.33 140,370 141,357.67 142,333 143,308.33 144,160.33 145,197.33 146,308.33 147,148 148,172.67 149,148 150,209.67 151,259 152,160.33 153,160.33 154,246.67 155,296 156,197.33 157,296 158,296 159,320.67 160,320.67 161,296 162,234.33 163,271.33 164,296 165,357.67 166,345.33 167,345.33 168,333 169,222 170,357.67 172,357.67 172.35,370"><title>LR761638.1</title></polygon><rect class="average" height="1" width="172.35" x="0" y="208.68"><title>average:13.08</title></rect><rect class="median" height="1" width="172.35" x="0" y="246.67"><title>median:10</title></rect><text class="chromName" x="86.17" y="-12">LR761638.1<title>LR761638.1 73,550,375 bp</title></text><rect class="frame" height="370" width="172.35" x="0" y="0"/></g><g id="chrom-LR761639.1" transform="translate(750.784104388203,0)"><polygon class="cov1" points="0,370 0,345.33 1,160.33 2,123.33 3,296 4,160.33 5,234.33 6,345.33 7,283.67 8,135.67 9,123.33 10,160.33 11,259 12,246.67 13,123.33 14,172.67 15,135.67 16,135.67 17,123.33 18,135.67 19,123.33 20,123.33 21,135.67 22,160.33 23,160.33 24,172.67 25,209.67 26,172.67 27,259 28,333 29,234.33 30,271.33 31,135.67 32,135.67 33,123.33 34,197.33 35,209.67 36,234.33 37,135.67 38,148 39,135.67 40,246.67 41,135.67 42,148 43,111 44,148 45,135.67 46,160.33 47,148 48,135.67 49,160.33 50,172.67 51,135.67 52,185 53,148 54,160.33 55,135.67 56,135.67 57,148 58,135.67 61,135.67 62,148 63,148 64,123.33 65,135.67 66,160.33 67,148 68,135.67 69,209.67 70,148 72,148 73,135.67 74,222 75,135.67 76,135.67 77,148 78,135.67 79,135.67 80,172.67 81,135.67 82,135.67 83,148 84,197.33 85,148 86,123.33 87,135.67 88,123.33 90,123.33 91,148 92,148 93,160.33 94,172.67 95,148 96,148 97,123.33 98,123.33 99,135.67 100,135.67 101,123.33 102,148 103,148 104,123.33 105,123.33 106,259 107,135.67 108,123.33 109,135.67 110,135.67 111,333 112,185 113,123.33 114,172.67 115,123.33 116,148 117,148 118,135.67 119,123.33 120,160.33 121,111 122,123.33 123,135.67 124,160.33 125,135.67 126,123.33 127,135.67 128,148 129,123.33 130,172.67 131,148 132,185 133,357.67 134,123.33 135,160.33 136,148 137,135.67 138,203.5 139,148 140,185 140.95,370"><title>LR761639.1</title></polygon><rect class="average" height="1" width="140.95" x="0" y="157.74"><title>average:17.21</title></rect><rect class="median" height="1" width="140.95" x="0" y="148"><title>median:18</title></rect><text class="chromName" x="70.47" y="-12">LR761639.1<title>LR761639.1 60,151,564 bp</title></text><rect class="frame" height="370" width="140.95" x="0" y="0"/></g><g id="chrom-LR761640.1" transform="translate(892.7327113317651,0)"><polygon class="cov0" points="0,370 0,185 1,123.33 2,197.33 3,160.33 4,160.33 5,123.33 6,185 7,197.33 8,123.33 9,160.33 10,135.67 11,148 12,111 13,271.33 14,172.67 15,135.67 16,222 17,148 18,123.33 19,197.33 20,135.67 22,135.67 23,123.33 24,148 25,160.33 26,123.33 27,135.67 28,148 29,135.67 33,135.67 34,148 35,135.67 36,148 37,209.67 38,123.33 39,172.67 40,123.33 43,123.33 44,135.67 45,148 46,148 47,259 48,308.33 49,123.33 50,160.33 51,148 52,123.33 53,148 54,123.33 55,148 56,135.67 57,234.33 58,148 59,172.67 60,246.67 61,135.67 62,160.33 63,172.67 64,135.67 65,271.33 66,135.67 67,148 68,148 69,185 70,172.67 71,148 72,172.67 73,197.33 74,185 75,148 76,135.67 77,234.33 78,135.67 79,185 80,111 81,98.67 82,111 83,135.67 84,135.67 85,148 86,345.33 87,148 88,172.67 89,160.33 90,160.33 91,333 92,271.33 93,197.33 94,259 95,160.33 96,148 97,148 98,160.33 99,160.33 100,123.33 101,172.67 102,320.67 103,234.33 104,135.67 105,123.33 106,123.33 107,172.67 108,197.33 109,135.67 110,172.67 111,197.33 112,148 113,160.33 114,172.67 115,135.67 116,296 117,345.33 118,357.67 119,308.33 120,135.67 121,123.33 122,135.67 123,135.67 124,148 125,123.33 126,135.67 127,135.67 128,259 129,160.33 130,135.67 131,123.33 132,148 133,123.33 134,111 135,111 136,135.67 138,135.67 139,172.67 140,148 141,123.33 142,160.33 143,246.67 144,135.67 145,123.33 145.53,370"><title>LR761640.1</title></polygon><rect class="average" height="1" width="145.53" x="0" y="161.99"><title>average:16.87</title></rect><rect class="median" height="1" width="145.53" x="0" y="160.33"><title>median:17</title></rect><text class="chromName" x="72.77" y="-12">LR761640.1<title>LR761640.1 62,107,823 bp</title></text><rect class="frame" height="370" width="145.53" x="0" y="0"/></g><g id="chrom-LR761641.1" transform="translate(1039.265271917344,0)"><polygon class="cov1" points="0,370 0,296 1,160.33 2,222 3,185 4,148 5,234.33 6,283.67 7,246.67 8,283.67 9,172.67 10,148 11,185 12,222 13,98.67 14,185 15,123.33 16,148 17,345.33 18,135.67 19,148 20,135.67 21,185 22,197.33 23,160.33 24,185 25,160.33 26,197.33 27,160.33 28,209.67 29,234.33 30,197.33 31,160.33 32,197.33 33,197.33 34,308.33 35,320.67 36,333 37,234.33 38,246.67 39,234.33 40,197.33 41,246.67 42,259 43,259 44,234.33 45,234.33 46,283.67 47,234.33 48,209.67 49,135.67 50,160.33 51,148 52,123.33 54,123.33 55,111 56,123.33 57,160.33 58,197.33 59,172.67 60,148 61,283.67 62,160.33 63,197.33 65,197.33 66,185 67,234.33 68,259 69,148 70,135.67 71,135.67 72,209.67 73,320.67 74,209.67 75,320.67 76,222 77,172.67 78,148 79,222 80,259 81,308.33 82,308.33 83,320.67 84,185 85,160.33 86,283.67 87,123.33 88,209.67 89,185 90,296 91,246.67 92,123.33 93,271.33 94,259 95,160.33 96,172.67 97,345.33 98,135.67 99,370 100,197.33 101,111 102,172.67 103,111 104,172.67 105,135.67 106,259 107,123.33 108,135.67 110,135.67 111,296 112,160.33 113,197.33 114,135.67 115,148 116,111 117,148 118,135.67 119,197.33 120,222 121,172.67 122,160.33 123,234.33 124,160.33 125,234.33 126,271.33 127,123.33 128,271.33 129,172.67 130,271.33 131,209.67 132,357.67 133,283.67 134,148 135,357.67 136,357.67 136.99,370"><title>LR761641.1</title></polygon><rect class="average" height="1" width="136.99" x="0" y="181.54"><title>average:15.28</title></rect><rect class="median" height="1" width="136.99" x="0" y="197.33"><title>median:14</title></rect><text class="chromName" x="68.5" y="-12">LR761641.1<title>LR761641.1 58,462,999 bp</title></text><rect class="frame" height="370" width="136.99" x="0" y="0"/></g><g id="chrom-LR761642.1" transform="translate(1177.25719230686,0)"><polygon class="cov0" points="0,370 0,320.67 1,320.67 2,271.33 3,209.67 4,209.67 5,259 6,296 7,259 8,185 9,197.33 10,185 11,172.67 12,172.67 13,123.33 14,148 15,246.67 16,271.33 17,185 18,185 19,172.67 20,160.33 21,135.67 22,160.33 23,234.33 24,148 25,123.33 26,123.33 27,135.67 28,172.67 29,135.67 30,172.67 31,135.67 32,148 33,209.67 34,209.67 35,308.33 36,135.67 37,148 38,111 39,160.33 40,135.67 41,172.67 42,123.33 43,148 44,160.33 45,222 46,148 47,259 48,259 49,308.33 50,185 51,209.67 52,209.67 53,123.33 54,123.33 55,197.33 56,172.67 57,209.67 58,222 59,148 60,148 61,308.33 62,197.33 63,160.33 64,197.33 65,148 66,160.33 67,296 68,246.67 69,160.33 70,148 71,283.67 72,135.67 73,197.33 74,148 75,185 76,296 77,160.33 78,148 79,271.33 80,246.67 81,172.67 82,308.33 83,259 84,296 85,222 86,320.67 86.91,370"><title>LR761642.1</title></polygon><rect class="average" height="1" width="86.91" x="0" y="168.31"><title>average:16.35</title></rect><rect class="median" height="1" width="86.91" x="0" y="185"><title>median:15</title></rect><text class="chromName" x="43.45" y="-12">LR761642.1<title>LR761642.1 37,089,910 bp</title></text><rect class="frame" height="370" width="86.91" x="0" y="0"/></g><g id="chrom-LR761643.1" transform="translate(1265.1671710093603,0)"><polygon class="cov1" points="0,370 0,333 1,271.33 2,160.33 3,123.33 4,135.67 5,234.33 6,172.67 7,160.33 8,148 9,123.33 10,135.67 11,160.33 12,135.67 13,197.33 14,234.33 15,148 16,123.33 17,148 18,148 19,185 20,345.33 21,160.33 22,135.67 23,135.67 24,185 25,172.67 26,345.33 27,345.33 28,333 29,135.67 30,222 31,160.33 32,234.33 33,148 34,160.33 35,197.33 36,259 37,135.67 38,148 39,135.67 40,148 41,160.33 42,172.67 43,283.67 44,148 45,172.67 46,135.67 47,259 48,160.33 49,148 50,172.67 51,135.67 52,148 53,148 54,172.67 55,148 56,135.67 57,135.67 58,209.67 59,123.33 60,123.33 61,135.67 62,160.33 63,148 64,160.33 65,197.33 66,160.33 68,160.33 69,148 70,148 71,259 72,209.67 73,234.33 74,123.33 75,234.33 76,148 77,123.33 78,197.33 79,283.67 80,135.67 81,123.33 82,148 83,135.67 84,123.33 85,135.67 86,135.67 87,123.33 88,172.67 89,357.67 90,160.33 91,135.67 92,123.33 93,148 94,123.33 95,148 96,123.33 99,123.33 100,135.67 101,234.33 102,148 103,148 104,160.33 105,148 106,123.33 107,123.33 108,148 109,123.33 111,123.33 112,135.67 113,222 114,148 115,135.67 116,111 117,123.33 118,123.33 119,160.33 120,123.33 123,123.33 124,135.67 125,123.33 126,111 127,172.67 128,135.67 129,123.33 130,172.67 131,197.33 132,123.33 133,259 134,259 134.83,370"><title>LR761643.1</title></polygon><rect class="average" height="1" width="134.83" x="0" y="163.91"><title>average:16.71</title></rect><rect class="median" height="1" width="134.83" x="0" y="160.33"><title>median:17</title></rect><text class="chromName" x="67.42" y="-12">LR761643.1<title>LR761643.1 57,541,580 bp</title></text><rect class="frame" height="370" width="134.83" x="0" y="0"/></g><g><line class="ruler" x1="-2" x2="1390" y1="333" y2="333"><title>3</title></line><text class="ruler" x="-5" y="333">3</text><line class="ruler" x1="-2" x2="1390" y1="296" y2="296"><title>6</title></line><text class="ruler" x="-5" y="296">6</text><line class="ruler" x1="-2" x2="1390" y1="259" y2="259"><title>9</title></line><text class="ruler" x="-5" y="259">9</text><line class="ruler" x1="-2" x2="1390" y1="222" y2="222"><title>12</title></line><text class="ruler" x="-5" y="222">12</text><line class="ruler" x1="-2" x2="1390" y1="185" y2="185"><title>15</title></line><text class="ruler" x="-5" y="185">15</text><line class="ruler" x1="-2" x2="1390" y1="148" y2="148"><title>18</title></line><text class="ruler" x="-5" y="148">18</text><line class="ruler" x1="-2" x2="1390" y1="111" y2="111"><title>21</title></line><text class="ruler" x="-5" y="111">21</text><line class="ruler" x1="-2" x2="1390" y1="74" y2="74"><title>24</title></line><text class="ruler" x="-5" y="74">24</text><line class="ruler" x1="-2" x2="1390" y1="37" y2="37"><title>27</title></line><text class="ruler" x="-5" y="37">27</text><line class="ruler" x1="-2" x2="1390" y1="0" y2="0"><title>30</title></line><text class="ruler" x="-5" y="0">30</text></g></g><text class="title" x="795" y="40">F11_M11_24.merged.realigned.bam F11_M11_24 F11_M11_24_1 F11_M11_24_2<title>./F11_M11_24.merged.realigned.bam</title></text><text class="xLabel" x="795" y="475">GCA_902806645.1_cgigas_uk_roslin_v1_genomic.fna  (589,358,857 bp)<title>../ref/GCA_902806645.1_cgigas_uk_roslin_v1_genomic.fna</title></text><text class="yLabel" transform="translate(25,265) rotate(90)" x="0" y="0">Coverage bp (median)</text></g></svg>