<?xml version="1.0" encoding="UTF-8" standalone="no"?><svg height="500" width="1500" xmlns="http://www.w3.org/2000/svg"><title>F12_M11_14.merged.realigned.bam</title><desc>Made with wgscoverageplotter undefined Author: Pierre Lindenbaum</desc><style>g.maing {stroke:black;stroke-width:0.5px;fill:none;}
text.title {stroke:none;fill:black;stroke-width:1px;text-anchor:middle;}
rect.frame {stroke:darkgray;fill:none;stroke-width:0.5px;}
text.ruler {stroke:none;fill:darkgray;stroke-width:1px;text-anchor:end;}
text.chromName {stroke:none;fill:darkgray;stroke-width:1px;text-anchor:middle;}
text.xLabel {stroke:none;fill:black;stroke-width:1px;text-anchor:middle;}
text.yLabel {stroke:none;fill:black;stroke-width:1px;text-anchor:middle;}
.cov0 {stroke:gray;fill:antiquewhite;stroke-width:0.5px;}
.cov1 {stroke:gray;fill:beige;stroke-width:0.5px;}
rect.average {stroke:green;fill:green;stroke-width:0.5px;opacity:0.3;}
rect.median {stroke:red;fill:red;stroke-width:0.5px;opacity:0.3;}
line.ruler {stroke:darkgray;stroke-dasharray:4;fill:none;stroke-width:1;}
</style><g class="maing"><g id="chromosomes" transform="translate(100.0,80.0)"><g id="chrom-LR761634.1" transform="translate(10.0,0)"><polygon class="cov0" points="0,370 0,302.73 1,117.73 2,134.55 3,285.91 4,235.45 5,185 6,269.09 7,201.82 8,168.18 9,134.55 10,151.36 11,117.73 12,168.18 13,252.27 14,285.91 15,151.36 16,134.55 17,218.64 18,134.55 20,134.55 21,151.36 22,151.36 23,168.18 24,151.36 25,117.73 26,117.73 27,134.55 28,134.55 29,117.73 30,134.55 31,134.55 32,269.09 33,134.55 34,134.55 35,151.36 36,117.73 37,185 38,201.82 39,151.36 40,134.55 42,134.55 43,185 44,168.18 45,201.82 46,168.18 47,134.55 48,151.36 49,134.55 50,151.36 51,134.55 52,117.73 53,151.36 54,218.64 55,252.27 56,117.73 57,117.73 58,134.55 59,151.36 60,151.36 61,117.73 62,168.18 63,185 64,201.82 65,168.18 66,134.55 67,185 68,134.55 69,218.64 70,134.55 71,134.55 72,185 73,168.18 74,151.36 75,134.55 76,134.55 77,185 78,151.36 79,151.36 80,319.55 81,302.73 82,134.55 83,134.55 84,151.36 85,134.55 86,117.73 87,201.82 88,134.55 89,269.09 90,168.18 91,151.36 92,134.55 93,168.18 94,100.91 95,134.55 96,117.73 97,185 98,302.73 99,151.36 100,134.55 101,201.82 102,151.36 103,151.36 104,201.82 105,117.73 106,218.64 107,185 108,252.27 109,117.73 110,117.73 111,151.36 112,134.55 113,201.82 114,285.91 115,201.82 116,117.73 117,134.55 118,117.73 119,168.18 120,201.82 121,134.55 122,134.55 123,117.73 124,134.55 126,134.55 127,151.36 128,201.82 129,168.18 130,218.64 130.72,370"><title>LR761634.1</title></polygon><rect class="average" height="1" width="130.72" x="0" y="156.43"><title>average:12.7</title></rect><rect class="median" height="1" width="130.72" x="0" y="151.36"><title>median:13</title></rect><text class="chromName" x="65.36" y="-12">LR761634.1<title>LR761634.1 55,785,328 bp</title></text><rect class="frame" height="370" width="130.72" x="0" y="0"/></g><g id="chrom-LR761635.1" transform="translate(141.71753661284166,0)"><polygon class="cov1" points="0,370 0,319.55 1,353.18 2,302.73 3,235.45 4,336.36 5,319.55 6,269.09 7,319.55 8,302.73 9,151.36 10,100.91 11,235.45 12,134.55 13,151.36 14,252.27 15,302.73 16,353.18 17,252.27 18,302.73 19,252.27 20,302.73 21,302.73 22,285.91 23,252.27 24,336.36 25,302.73 26,319.55 27,319.55 28,302.73 29,353.18 30,319.55 31,302.73 32,252.27 33,218.64 34,235.45 35,235.45 36,285.91 37,319.55 38,336.36 39,168.18 40,235.45 41,269.09 42,168.18 43,252.27 44,151.36 45,201.82 46,218.64 47,168.18 48,252.27 49,185 50,235.45 51,336.36 52,235.45 53,235.45 54,302.73 55,285.91 56,336.36 57,302.73 58,201.82 59,302.73 60,353.18 61,285.91 62,168.18 63,302.73 64,319.55 65,269.09 66,285.91 67,252.27 68,252.27 69,302.73 70,285.91 71,218.64 72,235.45 73,218.64 74,269.09 75,218.64 76,319.55 77,0 78,252.27 79,319.55 80,185 81,285.91 82,319.55 83,302.73 84,319.55 85,319.55 86,353.18 87,336.36 88,336.36 89,353.18 90,302.73 91,319.55 92,319.55 93,285.91 94,269.09 95,269.09 96,302.73 97,285.91 98,319.55 99,285.91 100,319.55 101,302.73 102,319.55 103,218.64 104,201.82 105,151.36 106,269.09 107,302.73 108,201.82 109,185 110,269.09 111,185 112,302.73 113,302.73 114,319.55 116,319.55 117,285.91 118,168.18 119,185 120,134.55 121,218.64 122,252.27 123,252.27 124,269.09 125,151.36 126,252.27 127,269.09 128,168.18 129,285.91 130,185 131,269.09 132,218.64 133,302.73 134,319.55 135,302.73 136,336.36 137,319.55 138,319.55 139,269.09 140,353.18 141,302.73 142,285.91 143,302.73 144,285.91 145,218.64 146,252.27 147,151.36 148,168.18 149,134.55 150,235.45 151,252.27 152,336.36 153,235.45 154,302.73 155,285.91 156,302.73 157,285.91 158,269.09 159,168.18 160,252.27 161,252.27 162,269.09 163,168.18 164,185 165,218.64 166,252.27 167,285.91 168,269.09 169,285.91 170,302.73 171,319.55 171.58,370"><title>LR761635.1</title></polygon><rect class="average" height="1" width="171.58" x="0" y="212.69"><title>average:9.35</title></rect><rect class="median" height="1" width="171.58" x="0" y="269.09"><title>median:6</title></rect><text class="chromName" x="85.79" y="-12">LR761635.1<title>LR761635.1 73,222,313 bp</title></text><rect class="frame" height="370" width="171.58" x="0" y="0"/></g><g id="chrom-LR761636.1" transform="translate(314.2938403401308,0)"><polygon class="cov0" points="0,370 0,285.91 1,185 2,269.09 3,302.73 4,252.27 5,134.55 6,151.36 7,168.18 8,117.73 9,151.36 10,117.73 11,134.55 12,151.36 13,201.82 14,117.73 15,134.55 16,117.73 17,117.73 18,151.36 19,117.73 20,134.55 21,117.73 23,117.73 24,185 25,117.73 26,185 27,252.27 28,134.55 29,100.91 30,117.73 33,117.73 34,151.36 35,201.82 36,134.55 37,168.18 38,151.36 39,134.55 40,151.36 41,168.18 42,151.36 43,151.36 44,134.55 45,134.55 46,168.18 47,134.55 48,218.64 49,151.36 50,168.18 51,117.73 52,134.55 53,134.55 54,252.27 55,185 56,151.36 57,134.55 58,168.18 59,134.55 60,168.18 61,218.64 62,151.36 63,151.36 64,134.55 65,151.36 66,151.36 67,134.55 68,168.18 69,151.36 70,201.82 71,100.91 72,117.73 73,168.18 74,151.36 75,151.36 76,319.55 77,218.64 78,235.45 79,269.09 80,269.09 81,134.55 82,218.64 83,151.36 84,117.73 85,134.55 86,285.91 87,151.36 88,151.36 89,201.82 90,151.36 91,117.73 92,151.36 93,168.18 94,117.73 95,151.36 96,201.82 97,134.55 98,134.55 99,201.82 100,168.18 101,134.55 102,151.36 103,117.73 104,134.55 107,134.55 108,117.73 109,134.55 110,117.73 111,151.36 112,151.36 113,168.18 114,117.73 116,117.73 117,134.55 118,168.18 119,134.55 120,134.55 121,235.45 122,117.73 123,134.55 124,201.82 125,117.73 126,117.73 127,201.82 128,252.27 129,117.73 130,151.36 131,185 132,168.18 133,151.36 134,134.55 135,134.55 136,218.64 136.65,370"><title>LR761636.1</title></polygon><rect class="average" height="1" width="136.65" x="0" y="151.52"><title>average:12.99</title></rect><rect class="median" height="1" width="136.65" x="0" y="151.36"><title>median:13</title></rect><text class="chromName" x="68.33" y="-12">LR761636.1<title>LR761636.1 58,319,100 bp</title></text><rect class="frame" height="370" width="136.65" x="0" y="0"/></g><g id="chrom-LR761637.1" transform="translate(451.9485730949149,0)"><polygon class="cov1" points="0,370 0,285.91 1,252.27 2,302.73 3,269.09 4,235.45 5,168.18 6,252.27 8,252.27 9,302.73 10,319.55 11,168.18 12,269.09 13,302.73 14,269.09 15,168.18 16,235.45 17,117.73 18,285.91 19,302.73 20,235.45 21,168.18 22,168.18 23,218.64 24,319.55 25,185 26,151.36 27,252.27 28,218.64 29,252.27 30,269.09 31,151.36 32,151.36 33,168.18 34,117.73 35,201.82 36,319.55 37,336.36 38,151.36 39,168.18 40,151.36 41,285.91 42,201.82 43,252.27 44,319.55 45,218.64 46,151.36 47,151.36 48,134.55 49,134.55 50,201.82 51,151.36 52,100.91 53,185 54,100.91 55,134.55 56,168.18 57,235.45 58,285.91 59,319.55 60,319.55 61,235.45 62,134.55 63,151.36 64,134.55 65,151.36 66,151.36 67,168.18 68,185 69,134.55 70,151.36 71,151.36 72,185 73,134.55 74,185 75,168.18 76,151.36 77,151.36 78,185 79,201.82 80,168.18 81,201.82 82,134.55 83,151.36 84,168.18 85,134.55 86,218.64 87,151.36 88,134.55 89,151.36 90,134.55 91,151.36 92,134.55 93,168.18 94,201.82 95,235.45 96,201.82 97,134.55 98,117.73 99,117.73 100,235.45 101,269.09 102,252.27 103,285.91 104,285.91 105,252.27 106,134.55 107,117.73 110,117.73 111,134.55 112,134.55 113,117.73 114,319.55 115,218.64 116,168.18 117,151.36 118,134.55 119,319.55 120,151.36 121,134.55 122,252.27 123,218.64 124,185 124.49,370"><title>LR761637.1</title></polygon><rect class="average" height="1" width="124.49" x="0" y="178.73"><title>average:11.37</title></rect><rect class="median" height="1" width="124.49" x="0" y="185"><title>median:11</title></rect><text class="chromName" x="62.25" y="-12">LR761637.1<title>LR761637.1 53,127,865 bp</title></text><rect class="frame" height="370" width="124.49" x="0" y="0"/></g><g id="chrom-LR761638.1" transform="translate(577.4390778079033,0)"><polygon class="cov0" points="0,370 0,201.82 1,168.18 2,235.45 3,134.55 4,235.45 5,117.73 6,201.82 7,201.82 8,185 9,134.55 10,185 11,302.73 12,134.55 13,168.18 14,117.73 15,151.36 16,134.55 17,134.55 18,252.27 19,319.55 20,134.55 21,235.45 22,134.55 24,134.55 25,185 26,353.18 27,134.55 28,201.82 29,319.55 30,269.09 31,151.36 32,370 33,319.55 34,185 35,235.45 36,168.18 37,302.73 38,302.73 39,336.36 40,353.18 41,336.36 42,252.27 43,151.36 44,151.36 45,302.73 46,151.36 47,134.55 48,134.55 49,201.82 50,353.18 51,201.82 52,201.82 53,185 54,185 55,252.27 56,151.36 57,218.64 58,134.55 59,201.82 60,168.18 61,201.82 62,168.18 63,319.55 64,302.73 65,336.36 66,168.18 67,235.45 68,168.18 69,285.91 70,201.82 71,336.36 72,353.18 73,302.73 74,252.27 75,336.36 76,319.55 77,201.82 78,336.36 79,285.91 80,302.73 81,201.82 82,336.36 83,336.36 84,302.73 85,201.82 86,134.55 87,168.18 88,319.55 89,134.55 90,302.73 91,151.36 92,100.91 93,134.55 94,134.55 95,218.64 96,269.09 97,134.55 98,285.91 99,201.82 100,201.82 101,168.18 102,252.27 103,168.18 104,218.64 105,235.45 106,252.27 107,168.18 108,201.82 109,151.36 110,185 111,168.18 112,269.09 113,252.27 114,285.91 115,285.91 116,319.55 117,302.73 118,336.36 119,302.73 120,269.09 121,353.18 122,353.18 123,370 124,269.09 125,302.73 126,336.36 127,285.91 128,370 129,269.09 130,336.36 131,302.73 132,269.09 133,336.36 134,285.91 135,285.91 136,168.18 137,370 138,353.18 139,269.09 140,370 141,370 142,336.36 143,319.55 144,168.18 145,201.82 146,319.55 147,151.36 148,185 149,151.36 150,218.64 151,269.09 152,168.18 153,168.18 154,252.27 155,302.73 156,201.82 157,302.73 158,302.73 159,319.55 160,319.55 161,285.91 162,218.64 163,252.27 164,302.73 165,353.18 167,353.18 168,336.36 169,218.64 170,353.18 172,353.18 172.35,370"><title>LR761638.1</title></polygon><rect class="average" height="1" width="172.35" x="0" y="210.2"><title>average:9.5</title></rect><rect class="median" height="1" width="172.35" x="0" y="252.27"><title>median:7</title></rect><text class="chromName" x="86.17" y="-12">LR761638.1<title>LR761638.1 73,550,375 bp</title></text><rect class="frame" height="370" width="172.35" x="0" y="0"/></g><g id="chrom-LR761639.1" transform="translate(750.784104388203,0)"><polygon class="cov1" points="0,370 0,353.18 1,168.18 2,151.36 3,302.73 4,168.18 5,252.27 6,336.36 7,269.09 8,151.36 9,134.55 10,168.18 11,252.27 12,252.27 13,134.55 14,168.18 15,134.55 18,134.55 19,117.73 20,134.55 21,134.55 22,151.36 23,168.18 24,185 25,201.82 26,185 27,285.91 28,336.36 29,235.45 30,269.09 31,134.55 33,134.55 34,201.82 35,218.64 36,235.45 37,151.36 38,151.36 39,134.55 40,235.45 41,134.55 42,151.36 43,117.73 44,151.36 45,134.55 46,168.18 47,134.55 48,134.55 49,151.36 50,168.18 51,134.55 52,185 53,151.36 54,168.18 55,134.55 62,134.55 63,168.18 64,100.91 65,117.73 66,151.36 67,151.36 68,134.55 69,201.82 70,134.55 71,134.55 72,151.36 73,134.55 74,218.64 75,134.55 76,134.55 77,151.36 78,134.55 79,134.55 80,185 81,134.55 82,134.55 83,151.36 84,201.82 85,151.36 86,117.73 87,134.55 88,117.73 90,117.73 91,151.36 92,134.55 93,168.18 94,168.18 95,151.36 96,134.55 97,117.73 98,117.73 99,134.55 100,134.55 101,117.73 102,134.55 103,151.36 104,117.73 105,134.55 106,252.27 107,151.36 108,117.73 109,134.55 110,134.55 111,336.36 112,185 113,117.73 114,185 115,117.73 116,151.36 117,151.36 118,134.55 119,117.73 120,168.18 121,117.73 122,134.55 123,134.55 124,151.36 125,134.55 127,134.55 128,151.36 129,134.55 130,185 131,151.36 132,201.82 133,370 134,117.73 135,185 136,168.18 137,151.36 138,218.64 139,168.18 140,218.64 140.95,370"><title>LR761639.1</title></polygon><rect class="average" height="1" width="140.95" x="0" y="156.04"><title>average:12.72</title></rect><rect class="median" height="1" width="140.95" x="0" y="151.36"><title>median:13</title></rect><text class="chromName" x="70.47" y="-12">LR761639.1<title>LR761639.1 60,151,564 bp</title></text><rect class="frame" height="370" width="140.95" x="0" y="0"/></g><g id="chrom-LR761640.1" transform="translate(892.7327113317651,0)"><polygon class="cov0" points="0,370 0,185 1,134.55 2,201.82 3,168.18 4,168.18 5,117.73 6,201.82 7,201.82 8,134.55 9,168.18 10,134.55 11,151.36 12,117.73 13,269.09 14,168.18 15,134.55 16,235.45 17,134.55 18,134.55 19,201.82 20,134.55 22,134.55 23,100.91 24,151.36 25,168.18 26,117.73 27,134.55 28,151.36 29,134.55 33,134.55 34,151.36 35,134.55 36,134.55 37,218.64 38,117.73 39,185 40,117.73 43,117.73 44,134.55 45,151.36 46,151.36 47,252.27 48,319.55 49,117.73 50,168.18 51,151.36 52,117.73 53,151.36 54,134.55 56,134.55 57,235.45 58,151.36 59,185 60,252.27 61,134.55 62,151.36 63,168.18 64,134.55 65,269.09 66,134.55 67,151.36 68,151.36 69,185 70,168.18 71,134.55 72,185 73,218.64 74,185 75,151.36 76,134.55 77,235.45 78,134.55 79,185 80,117.73 81,100.91 82,100.91 83,134.55 85,134.55 86,353.18 87,151.36 88,168.18 90,168.18 91,336.36 92,269.09 93,201.82 94,269.09 95,151.36 96,151.36 97,134.55 98,168.18 99,151.36 100,117.73 101,185 102,319.55 103,235.45 104,134.55 105,134.55 106,117.73 107,168.18 108,201.82 109,134.55 110,185 111,201.82 112,151.36 113,151.36 114,185 115,134.55 116,285.91 117,353.18 118,353.18 119,319.55 120,151.36 121,117.73 122,134.55 124,134.55 125,117.73 126,134.55 127,134.55 128,252.27 129,151.36 130,134.55 131,134.55 132,151.36 133,134.55 134,117.73 135,100.91 136,134.55 138,134.55 139,185 140,134.55 141,134.55 142,168.18 143,252.27 144,134.55 145,151.36 145.53,370"><title>LR761640.1</title></polygon><rect class="average" height="1" width="145.53" x="0" y="159.89"><title>average:12.49</title></rect><rect class="median" height="1" width="145.53" x="0" y="151.36"><title>median:13</title></rect><text class="chromName" x="72.77" y="-12">LR761640.1<title>LR761640.1 62,107,823 bp</title></text><rect class="frame" height="370" width="145.53" x="0" y="0"/></g><g id="chrom-LR761641.1" transform="translate(1039.265271917344,0)"><polygon class="cov1" points="0,370 0,302.73 1,168.18 2,235.45 3,201.82 4,168.18 5,235.45 6,285.91 7,252.27 8,285.91 9,185 10,168.18 11,185 12,235.45 13,100.91 14,201.82 15,134.55 16,151.36 17,353.18 18,151.36 20,151.36 21,185 22,218.64 23,168.18 24,185 25,168.18 26,201.82 27,168.18 28,218.64 29,252.27 30,218.64 31,168.18 32,201.82 33,201.82 34,302.73 35,319.55 36,336.36 37,235.45 38,252.27 39,235.45 40,201.82 41,269.09 42,285.91 43,285.91 44,252.27 45,235.45 46,269.09 47,252.27 48,218.64 49,151.36 51,151.36 52,134.55 53,117.73 54,117.73 55,100.91 56,117.73 57,168.18 58,185 59,168.18 60,151.36 61,269.09 62,168.18 63,201.82 64,201.82 65,185 66,201.82 67,235.45 68,252.27 69,151.36 70,151.36 71,134.55 72,218.64 73,336.36 74,218.64 75,319.55 76,218.64 77,168.18 78,151.36 79,235.45 80,269.09 81,285.91 82,319.55 83,336.36 84,185 85,168.18 86,285.91 87,134.55 88,218.64 89,185 90,285.91 91,235.45 92,134.55 93,269.09 94,235.45 95,185 96,185 97,353.18 98,151.36 99,370 100,201.82 101,117.73 102,185 103,117.73 104,185 105,134.55 106,269.09 107,134.55 108,151.36 109,151.36 110,134.55 111,302.73 112,168.18 113,201.82 114,151.36 115,151.36 116,117.73 117,151.36 118,134.55 119,201.82 120,235.45 121,185 122,168.18 123,235.45 124,168.18 125,235.45 126,269.09 127,134.55 128,269.09 129,185 130,269.09 131,201.82 132,370 133,285.91 134,151.36 135,353.18 136,353.18 136.99,370"><title>LR761641.1</title></polygon><rect class="average" height="1" width="136.99" x="0" y="184.28"><title>average:11.04</title></rect><rect class="median" height="1" width="136.99" x="0" y="201.82"><title>median:10</title></rect><text class="chromName" x="68.5" y="-12">LR761641.1<title>LR761641.1 58,462,999 bp</title></text><rect class="frame" height="370" width="136.99" x="0" y="0"/></g><g id="chrom-LR761642.1" transform="translate(1177.25719230686,0)"><polygon class="cov0" points="0,370 0,336.36 1,302.73 2,252.27 3,185 4,168.18 5,235.45 6,285.91 7,252.27 8,168.18 9,151.36 12,151.36 13,117.73 14,134.55 15,252.27 16,269.09 17,168.18 18,151.36 19,151.36 20,134.55 21,117.73 22,117.73 23,218.64 24,151.36 25,117.73 26,117.73 27,151.36 28,185 29,134.55 30,168.18 31,134.55 32,151.36 33,201.82 34,218.64 35,319.55 36,134.55 37,151.36 38,117.73 39,168.18 40,134.55 41,168.18 42,117.73 43,151.36 44,151.36 45,218.64 46,151.36 47,252.27 48,235.45 49,302.73 50,185 51,218.64 52,218.64 53,134.55 54,134.55 55,201.82 56,168.18 57,201.82 58,235.45 59,151.36 60,151.36 61,319.55 62,201.82 63,168.18 64,201.82 65,168.18 66,168.18 67,302.73 68,252.27 69,168.18 70,151.36 71,269.09 72,134.55 73,201.82 74,151.36 75,201.82 76,302.73 77,168.18 78,151.36 79,285.91 80,252.27 81,185 82,319.55 83,252.27 84,302.73 85,218.64 86,319.55 86.91,370"><title>LR761642.1</title></polygon><rect class="average" height="1" width="86.91" x="0" y="164.76"><title>average:12.2</title></rect><rect class="median" height="1" width="86.91" x="0" y="185"><title>median:11</title></rect><text class="chromName" x="43.45" y="-12">LR761642.1<title>LR761642.1 37,089,910 bp</title></text><rect class="frame" height="370" width="86.91" x="0" y="0"/></g><g id="chrom-LR761643.1" transform="translate(1265.1671710093603,0)"><polygon class="cov1" points="0,370 0,336.36 1,285.91 2,168.18 3,134.55 4,134.55 5,235.45 6,185 7,168.18 8,151.36 9,134.55 10,134.55 11,168.18 12,134.55 13,201.82 14,235.45 15,151.36 16,117.73 17,151.36 18,168.18 19,201.82 20,353.18 21,168.18 22,134.55 23,134.55 24,185 25,168.18 26,353.18 27,353.18 28,319.55 29,134.55 30,235.45 31,168.18 32,235.45 33,151.36 34,168.18 35,201.82 36,252.27 37,134.55 38,134.55 39,117.73 40,151.36 41,151.36 42,168.18 43,285.91 44,151.36 45,168.18 46,134.55 47,269.09 48,168.18 49,151.36 50,168.18 51,134.55 52,151.36 53,151.36 54,168.18 55,134.55 56,117.73 57,134.55 58,218.64 59,117.73 60,117.73 61,134.55 62,168.18 63,151.36 64,168.18 65,185 66,151.36 68,151.36 69,134.55 70,151.36 71,235.45 72,201.82 73,235.45 74,134.55 75,235.45 76,134.55 77,117.73 78,201.82 79,285.91 80,134.55 81,117.73 82,151.36 83,134.55 84,117.73 85,134.55 86,134.55 87,117.73 88,168.18 89,353.18 90,168.18 91,117.73 92,117.73 93,151.36 94,117.73 95,151.36 96,117.73 99,117.73 100,134.55 101,218.64 102,134.55 103,151.36 104,168.18 105,151.36 106,117.73 107,117.73 108,151.36 109,117.73 112,117.73 113,218.64 114,151.36 115,134.55 116,100.91 117,117.73 118,117.73 119,151.36 120,117.73 123,117.73 124,151.36 125,134.55 126,117.73 127,168.18 128,151.36 129,134.55 130,168.18 131,201.82 132,134.55 133,252.27 134,252.27 134.83,370"><title>LR761643.1</title></polygon><rect class="average" height="1" width="134.83" x="0" y="160.47"><title>average:12.46</title></rect><rect class="median" height="1" width="134.83" x="0" y="151.36"><title>median:13</title></rect><text class="chromName" x="67.42" y="-12">LR761643.1<title>LR761643.1 57,541,580 bp</title></text><rect class="frame" height="370" width="134.83" x="0" y="0"/></g><g><line class="ruler" x1="-2" x2="1390" y1="333" y2="333"><title>2</title></line><text class="ruler" x="-5" y="333">2</text><line class="ruler" x1="-2" x2="1390" y1="296" y2="296"><title>4</title></line><text class="ruler" x="-5" y="296">4</text><line class="ruler" x1="-2" x2="1390" y1="259" y2="259"><title>6</title></line><text class="ruler" x="-5" y="259">6</text><line class="ruler" x1="-2" x2="1390" y1="222" y2="222"><title>8</title></line><text class="ruler" x="-5" y="222">8</text><line class="ruler" x1="-2" x2="1390" y1="185" y2="185"><title>11</title></line><text class="ruler" x="-5" y="185">11</text><line class="ruler" x1="-2" x2="1390" y1="148" y2="148"><title>13</title></line><text class="ruler" x="-5" y="148">13</text><line class="ruler" x1="-2" x2="1390" y1="111" y2="111"><title>15</title></line><text class="ruler" x="-5" y="111">15</text><line class="ruler" x1="-2" x2="1390" y1="74" y2="74"><title>17</title></line><text class="ruler" x="-5" y="74">17</text><line class="ruler" x1="-2" x2="1390" y1="37" y2="37"><title>19</title></line><text class="ruler" x="-5" y="37">19</text><line class="ruler" x1="-2" x2="1390" y1="0" y2="0"><title>22</title></line><text class="ruler" x="-5" y="0">22</text></g></g><text class="title" x="795" y="40">F12_M11_14.merged.realigned.bam F12_M11_14 F12_M11_14_1 F12_M11_14_2<title>./F12_M11_14.merged.realigned.bam</title></text><text class="xLabel" x="795" y="475">GCA_902806645.1_cgigas_uk_roslin_v1_genomic.fna  (589,358,857 bp)<title>../ref/GCA_902806645.1_cgigas_uk_roslin_v1_genomic.fna</title></text><text class="yLabel" transform="translate(25,265) rotate(90)" x="0" y="0">Coverage bp (median)</text></g></svg>