<?xml version="1.0" encoding="UTF-8" standalone="no"?><svg height="500" width="1500" xmlns="http://www.w3.org/2000/svg"><title>F12_M12_14.merged.realigned.bam</title><desc>Made with wgscoverageplotter undefined Author: Pierre Lindenbaum</desc><style>g.maing {stroke:black;stroke-width:0.5px;fill:none;}
text.title {stroke:none;fill:black;stroke-width:1px;text-anchor:middle;}
rect.frame {stroke:darkgray;fill:none;stroke-width:0.5px;}
text.ruler {stroke:none;fill:darkgray;stroke-width:1px;text-anchor:end;}
text.chromName {stroke:none;fill:darkgray;stroke-width:1px;text-anchor:middle;}
text.xLabel {stroke:none;fill:black;stroke-width:1px;text-anchor:middle;}
text.yLabel {stroke:none;fill:black;stroke-width:1px;text-anchor:middle;}
.cov0 {stroke:gray;fill:antiquewhite;stroke-width:0.5px;}
.cov1 {stroke:gray;fill:beige;stroke-width:0.5px;}
rect.average {stroke:green;fill:green;stroke-width:0.5px;opacity:0.3;}
rect.median {stroke:red;fill:red;stroke-width:0.5px;opacity:0.3;}
line.ruler {stroke:darkgray;stroke-dasharray:4;fill:none;stroke-width:1;}
</style><g class="maing"><g id="chromosomes" transform="translate(100.0,80.0)"><g id="chrom-LR761634.1" transform="translate(10.0,0)"><polygon class="cov0" points="0,370 0,296 1,123.33 2,148 3,308.33 4,246.67 5,172.67 6,296 7,209.67 8,172.67 9,148 10,172.67 11,135.67 12,160.33 13,234.33 14,283.67 15,148 16,148 17,197.33 18,148 19,148 20,135.67 21,160.33 22,160.33 23,185 24,172.67 25,135.67 26,135.67 27,148 28,148 29,135.67 30,148 31,148 32,271.33 33,148 34,148 35,160.33 36,135.67 37,197.33 38,222 39,160.33 40,148 42,148 43,185 44,172.67 45,222 46,172.67 47,148 48,160.33 49,160.33 50,148 51,148 52,135.67 53,160.33 54,234.33 55,271.33 56,135.67 57,123.33 58,148 59,160.33 60,160.33 61,135.67 62,172.67 63,185 65,185 66,148 67,185 68,148 69,234.33 70,160.33 71,135.67 72,185 73,185 74,160.33 75,135.67 76,148 77,185 78,172.67 79,148 80,271.33 81,283.67 82,135.67 83,148 84,160.33 85,148 86,135.67 87,197.33 88,135.67 89,271.33 90,185 91,172.67 92,135.67 93,172.67 94,123.33 95,135.67 96,123.33 97,172.67 98,308.33 99,148 100,148 101,197.33 102,160.33 103,185 104,197.33 105,135.67 106,222 107,185 108,259 109,123.33 110,123.33 111,148 112,148 113,185 114,296 115,197.33 116,123.33 117,135.67 118,123.33 119,172.67 120,197.33 121,135.67 123,135.67 124,148 125,135.67 126,135.67 127,148 128,209.67 129,160.33 130,197.33 130.72,370"><title>LR761634.1</title></polygon><rect class="average" height="1" width="130.72" x="0" y="167.33"><title>average:16.43</title></rect><rect class="median" height="1" width="130.72" x="0" y="160.33"><title>median:17</title></rect><text class="chromName" x="65.36" y="-12">LR761634.1<title>LR761634.1 55,785,328 bp</title></text><rect class="frame" height="370" width="130.72" x="0" y="0"/></g><g id="chrom-LR761635.1" transform="translate(141.71753661284166,0)"><polygon class="cov1" points="0,370 0,320.67 1,357.67 2,296 3,271.33 4,345.33 5,320.67 6,271.33 7,308.33 8,308.33 9,222 10,172.67 11,271.33 12,222 13,148 14,246.67 15,246.67 16,296 17,246.67 18,271.33 19,246.67 20,333 21,296 22,283.67 23,234.33 24,333 25,308.33 26,345.33 27,308.33 28,320.67 29,357.67 30,333 31,296 32,259 33,209.67 34,209.67 35,234.33 36,283.67 37,320.67 38,308.33 39,160.33 40,222 41,234.33 42,172.67 43,246.67 44,209.67 45,185 46,222 47,148 48,222 49,185 50,222 51,283.67 52,209.67 53,271.33 54,320.67 55,259 56,296 57,283.67 58,197.33 59,296 60,320.67 61,296 62,172.67 63,296 64,308.33 65,246.67 66,283.67 67,246.67 68,271.33 69,296 70,271.33 71,222 72,209.67 73,222 74,283.67 75,222 76,320.67 77,0 78,271.33 79,308.33 80,172.67 81,283.67 82,296 83,308.33 84,345.33 85,308.33 86,357.67 87,345.33 88,333 89,357.67 90,283.67 91,296 92,320.67 93,320.67 94,283.67 95,271.33 96,283.67 97,271.33 98,308.33 99,283.67 100,320.67 101,296 102,320.67 103,197.33 104,148 105,160.33 106,259 107,296 108,209.67 109,209.67 110,296 111,185 112,296 113,308.33 114,320.67 115,345.33 116,333 117,296 118,172.67 119,185 120,148 121,209.67 122,246.67 123,246.67 124,271.33 125,148 126,246.67 127,296 128,160.33 129,259 130,172.67 131,308.33 132,197.33 133,308.33 134,320.67 135,296 136,345.33 137,320.67 138,333 139,283.67 140,345.33 141,308.33 142,308.33 143,320.67 144,308.33 145,209.67 146,283.67 147,148 148,160.33 149,135.67 150,259 151,259 152,357.67 153,246.67 154,283.67 155,320.67 156,296 157,283.67 158,283.67 159,172.67 160,271.33 161,246.67 162,209.67 163,160.33 164,197.33 165,222 166,259 167,296 168,283.67 169,308.33 170,308.33 171,333 171.58,370"><title>LR761635.1</title></polygon><rect class="average" height="1" width="171.58" x="0" y="214.64"><title>average:12.6</title></rect><rect class="median" height="1" width="171.58" x="0" y="271.33"><title>median:8</title></rect><text class="chromName" x="85.79" y="-12">LR761635.1<title>LR761635.1 73,222,313 bp</title></text><rect class="frame" height="370" width="171.58" x="0" y="0"/></g><g id="chrom-LR761636.1" transform="translate(314.2938403401308,0)"><polygon class="cov0" points="0,370 0,345.33 1,160.33 2,271.33 3,308.33 4,246.67 5,135.67 6,148 7,148 8,123.33 9,160.33 10,123.33 11,135.67 12,148 13,185 14,111 15,135.67 16,123.33 17,123.33 18,148 19,135.67 20,135.67 21,123.33 22,135.67 23,123.33 24,185 25,123.33 26,197.33 27,246.67 28,135.67 29,123.33 30,135.67 33,135.67 34,160.33 35,197.33 36,148 37,172.67 38,160.33 39,148 40,172.67 42,172.67 43,160.33 44,148 45,148 46,172.67 47,148 48,209.67 49,160.33 50,172.67 51,135.67 52,148 53,148 54,209.67 55,185 56,160.33 57,148 58,172.67 59,148 60,172.67 61,222 62,160.33 63,160.33 64,148 65,160.33 67,160.33 68,172.67 69,160.33 70,197.33 71,123.33 72,135.67 73,172.67 75,172.67 76,333 77,222 78,246.67 79,271.33 80,271.33 81,160.33 82,234.33 83,160.33 84,135.67 85,148 86,296 87,172.67 88,160.33 89,209.67 90,160.33 91,135.67 92,185 93,172.67 94,148 95,148 96,209.67 97,148 98,160.33 99,185 100,172.67 101,135.67 102,160.33 103,123.33 104,135.67 105,148 107,148 108,135.67 109,135.67 110,148 111,172.67 112,160.33 113,185 114,135.67 116,135.67 117,148 118,172.67 119,148 120,135.67 121,234.33 122,135.67 123,135.67 124,197.33 125,135.67 126,135.67 127,209.67 128,259 129,135.67 130,160.33 131,172.67 132,160.33 133,148 134,123.33 135,135.67 136,259 136.65,370"><title>LR761636.1</title></polygon><rect class="average" height="1" width="136.65" x="0" y="162.4"><title>average:16.83</title></rect><rect class="median" height="1" width="136.65" x="0" y="160.33"><title>median:17</title></rect><text class="chromName" x="68.33" y="-12">LR761636.1<title>LR761636.1 58,319,100 bp</title></text><rect class="frame" height="370" width="136.65" x="0" y="0"/></g><g id="chrom-LR761637.1" transform="translate(451.9485730949149,0)"><polygon class="cov1" points="0,370 0,283.67 1,271.33 2,320.67 3,320.67 4,234.33 5,172.67 6,222 7,246.67 8,234.33 9,283.67 10,320.67 11,160.33 12,283.67 13,308.33 14,271.33 15,172.67 16,234.33 17,123.33 18,296 19,320.67 20,246.67 21,160.33 22,160.33 23,209.67 24,320.67 25,172.67 26,148 27,259 28,209.67 29,259 30,259 31,148 32,160.33 33,185 34,135.67 35,197.33 36,296 37,308.33 38,160.33 39,172.67 40,160.33 41,320.67 42,234.33 43,259 44,320.67 45,209.67 46,160.33 47,148 49,148 50,209.67 51,160.33 52,123.33 53,197.33 54,135.67 55,148 56,160.33 57,246.67 58,283.67 59,320.67 60,320.67 61,234.33 62,148 63,160.33 64,148 65,160.33 66,160.33 67,172.67 68,185 69,148 70,160.33 71,160.33 72,185 73,148 74,197.33 75,160.33 77,160.33 78,172.67 79,197.33 80,185 81,197.33 82,148 83,160.33 84,172.67 85,135.67 86,222 87,160.33 88,148 89,160.33 90,135.67 91,148 92,148 93,197.33 94,209.67 95,209.67 96,197.33 97,148 98,123.33 99,135.67 100,259 101,283.67 102,296 103,308.33 104,320.67 105,222 106,135.67 107,123.33 108,135.67 109,135.67 110,123.33 111,135.67 112,148 113,123.33 114,308.33 115,222 116,172.67 117,172.67 118,135.67 119,308.33 120,160.33 121,135.67 122,296 123,271.33 124,246.67 124.49,370"><title>LR761637.1</title></polygon><rect class="average" height="1" width="124.49" x="0" y="188.62"><title>average:14.71</title></rect><rect class="median" height="1" width="124.49" x="0" y="197.33"><title>median:14</title></rect><text class="chromName" x="62.25" y="-12">LR761637.1<title>LR761637.1 53,127,865 bp</title></text><rect class="frame" height="370" width="124.49" x="0" y="0"/></g><g id="chrom-LR761638.1" transform="translate(577.4390778079033,0)"><polygon class="cov0" points="0,370 0,172.67 1,123.33 2,234.33 3,135.67 4,209.67 5,123.33 6,209.67 7,197.33 8,197.33 9,135.67 10,185 11,296 12,135.67 13,172.67 14,123.33 15,160.33 16,148 17,148 18,283.67 19,320.67 20,135.67 21,209.67 22,148 23,135.67 24,135.67 25,172.67 26,345.33 27,135.67 28,197.33 29,320.67 30,271.33 31,160.33 32,357.67 33,333 34,197.33 35,234.33 36,160.33 37,308.33 38,296 39,320.67 40,345.33 41,333 42,234.33 43,135.67 44,160.33 45,283.67 46,135.67 48,135.67 49,172.67 50,246.67 51,160.33 52,172.67 53,160.33 54,172.67 55,209.67 56,185 57,222 58,123.33 59,209.67 60,172.67 61,222 62,172.67 63,333 64,308.33 65,320.67 66,160.33 67,234.33 68,148 69,271.33 70,209.67 71,345.33 72,357.67 73,308.33 74,259 75,345.33 76,333 77,209.67 78,333 79,271.33 80,283.67 81,185 82,333 83,296 84,259 85,197.33 86,135.67 87,185 88,320.67 89,148 90,296 91,172.67 92,123.33 93,135.67 94,148 95,222 96,283.67 97,172.67 98,271.33 99,197.33 100,209.67 101,172.67 102,259 103,172.67 104,222 105,246.67 106,246.67 107,172.67 108,209.67 109,172.67 110,197.33 111,172.67 112,271.33 113,259 114,296 115,296 116,320.67 117,320.67 118,296 120,296 121,357.67 122,357.67 123,370 124,259 125,308.33 126,333 127,259 128,370 129,271.33 130,320.67 131,283.67 132,296 133,333 134,296 135,283.67 136,160.33 137,370 138,357.67 139,271.33 140,370 141,370 142,345.33 143,259 144,160.33 145,197.33 146,320.67 147,148 148,172.67 149,160.33 150,222 151,271.33 152,172.67 153,172.67 154,246.67 155,296 156,209.67 157,320.67 158,320.67 159,296 160,320.67 161,283.67 162,234.33 163,197.33 164,259 165,357.67 166,345.33 167,357.67 168,345.33 169,234.33 170,345.33 171,357.67 172,345.33 172.35,370"><title>LR761638.1</title></polygon><rect class="average" height="1" width="172.35" x="0" y="211.2"><title>average:12.88</title></rect><rect class="median" height="1" width="172.35" x="0" y="246.67"><title>median:10</title></rect><text class="chromName" x="86.17" y="-12">LR761638.1<title>LR761638.1 73,550,375 bp</title></text><rect class="frame" height="370" width="172.35" x="0" y="0"/></g><g id="chrom-LR761639.1" transform="translate(750.784104388203,0)"><polygon class="cov1" points="0,370 0,345.33 1,148 2,135.67 3,296 4,160.33 5,234.33 6,345.33 7,271.33 8,148 9,135.67 10,172.67 11,259 12,271.33 13,135.67 14,160.33 15,148 16,135.67 17,135.67 18,148 19,135.67 20,135.67 21,148 22,160.33 23,172.67 24,172.67 25,209.67 26,185 27,308.33 28,345.33 29,234.33 30,296 31,148 32,135.67 33,135.67 34,209.67 35,234.33 36,259 37,148 38,160.33 39,148 40,234.33 41,148 42,160.33 43,135.67 44,160.33 45,135.67 46,172.67 47,160.33 48,148 49,172.67 50,172.67 51,148 52,185 53,160.33 54,172.67 55,148 57,148 58,160.33 59,148 60,160.33 61,135.67 62,148 63,185 64,123.33 65,148 66,172.67 67,160.33 68,148 69,209.67 70,160.33 72,160.33 73,148 74,222 75,148 76,160.33 77,160.33 78,148 79,148 80,185 81,148 82,148 83,160.33 84,222 85,160.33 86,135.67 87,148 88,135.67 89,135.67 90,123.33 91,160.33 92,148 93,185 94,185 95,148 96,160.33 97,135.67 98,135.67 99,148 100,148 101,135.67 102,148 103,148 104,135.67 105,135.67 106,259 107,148 108,135.67 109,148 110,135.67 111,333 112,185 113,123.33 114,185 115,123.33 116,172.67 117,148 118,135.67 119,135.67 120,172.67 121,135.67 123,135.67 124,160.33 125,148 126,135.67 127,135.67 128,148 129,135.67 130,197.33 131,160.33 132,185 133,357.67 134,123.33 135,172.67 136,172.67 137,160.33 138,246.67 139,172.67 140,296 140.95,370"><title>LR761639.1</title></polygon><rect class="average" height="1" width="140.95" x="0" y="167.93"><title>average:16.38</title></rect><rect class="median" height="1" width="140.95" x="0" y="160.33"><title>median:17</title></rect><text class="chromName" x="70.47" y="-12">LR761639.1<title>LR761639.1 60,151,564 bp</title></text><rect class="frame" height="370" width="140.95" x="0" y="0"/></g><g id="chrom-LR761640.1" transform="translate(892.7327113317651,0)"><polygon class="cov0" points="0,370 0,185 1,123.33 2,197.33 3,172.67 4,172.67 5,123.33 6,185 7,197.33 8,135.67 9,172.67 10,135.67 11,160.33 12,135.67 13,271.33 14,172.67 15,148 16,234.33 17,148 18,135.67 19,197.33 20,148 21,148 22,135.67 23,123.33 24,148 25,172.67 26,135.67 27,148 28,160.33 29,148 33,148 34,160.33 35,148 36,148 37,222 38,135.67 39,185 40,135.67 43,135.67 44,148 45,160.33 46,185 47,246.67 48,320.67 49,135.67 50,160.33 51,148 52,135.67 53,160.33 54,135.67 55,148 56,148 57,246.67 58,160.33 59,185 60,259 61,148 62,160.33 63,185 64,148 65,283.67 66,148 67,160.33 68,160.33 69,197.33 70,185 71,160.33 72,197.33 73,222 74,185 75,160.33 76,160.33 77,234.33 78,160.33 79,197.33 80,123.33 81,111 82,123.33 83,148 84,148 85,135.67 86,345.33 87,172.67 88,185 89,185 90,172.67 91,333 92,296 93,209.67 94,283.67 95,160.33 96,160.33 97,148 98,172.67 99,160.33 100,135.67 101,222 102,283.67 103,222 104,148 105,135.67 106,135.67 107,172.67 108,197.33 109,148 110,185 111,197.33 112,160.33 113,160.33 114,185 115,148 116,283.67 117,345.33 118,357.67 119,333 120,160.33 121,135.67 122,148 123,148 124,160.33 125,135.67 126,148 127,148 128,271.33 129,160.33 130,135.67 131,135.67 132,172.67 133,135.67 134,123.33 135,111 136,148 138,148 139,185 140,148 141,135.67 142,172.67 143,246.67 144,148 145,148 145.53,370"><title>LR761640.1</title></polygon><rect class="average" height="1" width="145.53" x="0" y="170.77"><title>average:16.15</title></rect><rect class="median" height="1" width="145.53" x="0" y="160.33"><title>median:17</title></rect><text class="chromName" x="72.77" y="-12">LR761640.1<title>LR761640.1 62,107,823 bp</title></text><rect class="frame" height="370" width="145.53" x="0" y="0"/></g><g id="chrom-LR761641.1" transform="translate(1039.265271917344,0)"><polygon class="cov1" points="0,370 0,308.33 1,172.67 2,222 3,197.33 4,185 5,222 6,283.67 7,259 8,259 9,185 10,160.33 11,197.33 12,246.67 13,123.33 14,209.67 15,148 16,172.67 17,296 18,148 19,148 20,135.67 21,185 22,222 23,172.67 24,185 25,185 26,222 27,185 28,234.33 29,283.67 30,234.33 31,197.33 32,246.67 33,222 34,296 35,308.33 36,320.67 37,234.33 38,271.33 39,271.33 40,197.33 41,259 42,320.67 43,333 44,271.33 45,209.67 46,259 47,283.67 48,259 49,160.33 50,172.67 51,160.33 52,148 53,135.67 56,135.67 57,172.67 58,197.33 59,172.67 60,148 61,271.33 62,172.67 63,209.67 64,185 65,197.33 66,209.67 67,259 68,259 69,148 70,172.67 71,148 72,222 73,320.67 74,222 75,320.67 76,197.33 77,160.33 78,160.33 79,246.67 80,283.67 81,296 82,308.33 83,345.33 84,185 85,172.67 86,283.67 87,135.67 88,222 89,197.33 90,259 91,222 92,135.67 93,259 94,259 95,209.67 96,197.33 97,357.67 98,148 99,370 100,222 101,123.33 102,185 103,135.67 104,185 105,135.67 106,234.33 107,135.67 108,160.33 109,160.33 110,148 111,296 112,148 113,209.67 114,148 115,160.33 116,123.33 117,160.33 118,135.67 119,197.33 120,246.67 121,172.67 122,160.33 123,222 124,160.33 125,246.67 126,271.33 127,123.33 128,246.67 129,172.67 130,271.33 131,197.33 132,370 133,283.67 134,148 135,357.67 136,370 136.99,370"><title>LR761641.1</title></polygon><rect class="average" height="1" width="136.99" x="0" y="191.92"><title>average:14.44</title></rect><rect class="median" height="1" width="136.99" x="0" y="209.67"><title>median:13</title></rect><text class="chromName" x="68.5" y="-12">LR761641.1<title>LR761641.1 58,462,999 bp</title></text><rect class="frame" height="370" width="136.99" x="0" y="0"/></g><g id="chrom-LR761642.1" transform="translate(1177.25719230686,0)"><polygon class="cov0" points="0,370 0,333 1,296 2,234.33 3,209.67 4,172.67 5,259 6,283.67 7,246.67 8,185 9,160.33 12,160.33 13,123.33 14,148 15,234.33 16,259 17,135.67 18,135.67 19,123.33 21,123.33 22,111 23,209.67 24,160.33 25,135.67 26,160.33 27,185 28,222 29,148 30,197.33 31,148 32,160.33 33,234.33 34,185 35,308.33 36,160.33 37,172.67 38,135.67 39,185 40,160.33 41,185 42,148 43,160.33 44,160.33 45,234.33 46,172.67 47,271.33 48,234.33 49,308.33 50,197.33 51,209.67 52,234.33 53,135.67 54,148 55,234.33 56,185 57,209.67 58,234.33 59,160.33 60,160.33 61,333 62,197.33 63,185 64,197.33 65,185 66,185 67,320.67 68,259 69,172.67 70,148 71,234.33 72,148 73,209.67 74,160.33 75,209.67 76,320.67 77,172.67 78,160.33 79,259 80,234.33 81,185 82,308.33 83,271.33 84,296 85,197.33 86,320.67 86.91,370"><title>LR761642.1</title></polygon><rect class="average" height="1" width="86.91" x="0" y="170.43"><title>average:16.18</title></rect><rect class="median" height="1" width="86.91" x="0" y="185"><title>median:15</title></rect><text class="chromName" x="43.45" y="-12">LR761642.1<title>LR761642.1 37,089,910 bp</title></text><rect class="frame" height="370" width="86.91" x="0" y="0"/></g><g id="chrom-LR761643.1" transform="translate(1265.1671710093603,0)"><polygon class="cov1" points="0,370 0,345.33 1,283.67 2,172.67 3,135.67 4,135.67 5,259 6,185 7,160.33 8,160.33 9,135.67 10,148 11,172.67 12,148 13,197.33 14,246.67 15,160.33 16,135.67 17,160.33 18,160.33 19,185 20,345.33 21,172.67 22,135.67 23,135.67 24,222 25,185 26,345.33 27,333 28,271.33 29,148 30,246.67 31,172.67 32,234.33 33,160.33 34,197.33 35,222 36,234.33 37,135.67 38,148 39,135.67 40,160.33 41,160.33 42,185 43,296 44,160.33 45,185 46,148 47,271.33 48,172.67 49,160.33 50,197.33 51,148 52,148 53,172.67 54,185 55,148 56,135.67 57,148 58,197.33 59,148 61,148 62,185 63,160.33 64,172.67 65,185 66,172.67 67,172.67 68,160.33 69,148 70,160.33 71,246.67 72,209.67 73,234.33 74,148 75,222 76,148 77,135.67 78,197.33 79,283.67 80,148 81,135.67 82,160.33 83,160.33 84,148 85,135.67 86,148 87,135.67 88,172.67 89,357.67 90,185 91,135.67 92,135.67 93,160.33 94,135.67 95,160.33 96,135.67 97,148 98,135.67 99,135.67 100,148 101,222 102,148 103,160.33 104,172.67 105,148 106,135.67 107,135.67 108,148 109,135.67 112,135.67 113,234.33 114,172.67 115,135.67 116,123.33 117,123.33 118,135.67 119,172.67 120,135.67 123,135.67 124,148 125,135.67 126,123.33 127,172.67 128,135.67 129,123.33 130,172.67 131,197.33 132,135.67 133,246.67 134,234.33 134.83,370"><title>LR761643.1</title></polygon><rect class="average" height="1" width="134.83" x="0" y="171.38"><title>average:16.1</title></rect><rect class="median" height="1" width="134.83" x="0" y="160.33"><title>median:17</title></rect><text class="chromName" x="67.42" y="-12">LR761643.1<title>LR761643.1 57,541,580 bp</title></text><rect class="frame" height="370" width="134.83" x="0" y="0"/></g><g><line class="ruler" x1="-2" x2="1390" y1="333" y2="333"><title>3</title></line><text class="ruler" x="-5" y="333">3</text><line class="ruler" x1="-2" x2="1390" y1="296" y2="296"><title>6</title></line><text class="ruler" x="-5" y="296">6</text><line class="ruler" x1="-2" x2="1390" y1="259" y2="259"><title>9</title></line><text class="ruler" x="-5" y="259">9</text><line class="ruler" x1="-2" x2="1390" y1="222" y2="222"><title>12</title></line><text class="ruler" x="-5" y="222">12</text><line class="ruler" x1="-2" x2="1390" y1="185" y2="185"><title>15</title></line><text class="ruler" x="-5" y="185">15</text><line class="ruler" x1="-2" x2="1390" y1="148" y2="148"><title>18</title></line><text class="ruler" x="-5" y="148">18</text><line class="ruler" x1="-2" x2="1390" y1="111" y2="111"><title>21</title></line><text class="ruler" x="-5" y="111">21</text><line class="ruler" x1="-2" x2="1390" y1="74" y2="74"><title>24</title></line><text class="ruler" x="-5" y="74">24</text><line class="ruler" x1="-2" x2="1390" y1="37" y2="37"><title>27</title></line><text class="ruler" x="-5" y="37">27</text><line class="ruler" x1="-2" x2="1390" y1="0" y2="0"><title>30</title></line><text class="ruler" x="-5" y="0">30</text></g></g><text class="title" x="795" y="40">F12_M12_14.merged.realigned.bam F12_M12_14 F12_M12_14_1 F12_M12_14_2<title>./F12_M12_14.merged.realigned.bam</title></text><text class="xLabel" x="795" y="475">GCA_902806645.1_cgigas_uk_roslin_v1_genomic.fna  (589,358,857 bp)<title>../ref/GCA_902806645.1_cgigas_uk_roslin_v1_genomic.fna</title></text><text class="yLabel" transform="translate(25,265) rotate(90)" x="0" y="0">Coverage bp (median)</text></g></svg>