<?xml version="1.0" encoding="UTF-8" standalone="no"?><svg height="500" width="1500" xmlns="http://www.w3.org/2000/svg"><title>F12.realigned.bam</title><desc>Made with wgscoverageplotter undefined Author: Pierre Lindenbaum</desc><style>g.maing {stroke:black;stroke-width:0.5px;fill:none;}
text.title {stroke:none;fill:black;stroke-width:1px;text-anchor:middle;}
rect.frame {stroke:darkgray;fill:none;stroke-width:0.5px;}
text.ruler {stroke:none;fill:darkgray;stroke-width:1px;text-anchor:end;}
text.chromName {stroke:none;fill:darkgray;stroke-width:1px;text-anchor:middle;}
text.xLabel {stroke:none;fill:black;stroke-width:1px;text-anchor:middle;}
text.yLabel {stroke:none;fill:black;stroke-width:1px;text-anchor:middle;}
.cov0 {stroke:gray;fill:antiquewhite;stroke-width:0.5px;}
.cov1 {stroke:gray;fill:beige;stroke-width:0.5px;}
rect.average {stroke:green;fill:green;stroke-width:0.5px;opacity:0.3;}
rect.median {stroke:red;fill:red;stroke-width:0.5px;opacity:0.3;}
line.ruler {stroke:darkgray;stroke-dasharray:4;fill:none;stroke-width:1;}
</style><g class="maing"><g id="chromosomes" transform="translate(100.0,80.0)"><g id="chrom-LR761634.1" transform="translate(10.0,0)"><polygon class="cov0" points="0,370 0,370 1,185 2,185 3,333 4,222 5,185 6,296 7,222 8,185 9,148 10,148 11,111 12,148 13,222 14,296 15,148 16,148 17,259 18,148 21,148 22,185 23,185 24,148 25,111 31,111 32,259 33,111 34,111 35,148 36,111 37,185 38,185 39,148 40,111 42,111 43,185 44,148 45,222 46,222 47,148 48,111 49,148 51,148 52,111 53,148 54,296 55,370 56,111 58,111 59,148 60,148 61,111 62,148 63,185 65,185 66,148 67,185 68,111 69,185 70,111 71,111 72,222 73,185 74,148 75,111 76,111 77,185 78,148 79,148 80,333 81,259 82,111 83,148 84,148 85,111 86,111 87,185 88,111 89,259 90,148 91,148 92,111 93,185 94,111 96,111 97,222 98,296 99,148 100,148 101,185 104,185 105,148 106,222 107,185 108,259 109,111 110,111 111,148 112,148 113,222 114,296 115,222 116,111 117,148 118,111 119,185 120,259 121,148 123,148 124,185 125,148 126,185 127,148 128,222 130,222 130.72,370"><title>LR761634.1</title></polygon><rect class="average" height="1" width="130.72" x="0" y="148.78"><title>average:5.98</title></rect><rect class="median" height="1" width="130.72" x="0" y="148"><title>median:6</title></rect><text class="chromName" x="65.36" y="-12">LR761634.1<title>LR761634.1 55,785,328 bp</title></text><rect class="frame" height="370" width="130.72" x="0" y="0"/></g><g id="chrom-LR761635.1" transform="translate(141.71753661284166,0)"><polygon class="cov1" points="0,370 0,370 1,370 2,333 3,222 4,370 5,370 6,259 7,333 8,333 9,259 10,222 11,296 12,259 13,185 14,259 15,296 16,333 17,222 18,296 19,259 20,370 21,296 23,296 24,370 26,370 27,333 28,333 29,370 31,370 32,296 33,222 34,222 35,296 36,259 37,296 38,370 39,222 40,259 41,259 42,222 43,259 44,111 45,148 46,259 47,185 48,185 49,148 50,185 51,222 52,185 53,296 54,333 55,222 57,222 58,185 59,333 60,296 61,259 62,148 63,185 65,185 66,333 67,296 69,296 70,333 71,185 72,259 73,259 74,185 75,148 76,222 77,0 78,185 79,185 80,148 81,185 82,185 83,222 86,222 87,259 88,222 89,259 90,222 91,370 102,370 103,185 104,74 105,185 106,259 107,333 108,222 109,222 110,370 111,222 112,296 113,370 114,333 115,185 116,222 117,185 119,185 120,148 121,222 122,185 123,259 124,333 125,185 126,259 127,296 128,222 129,296 130,185 131,333 132,259 133,333 138,333 139,296 140,370 141,333 142,333 143,296 144,296 145,259 146,259 147,185 148,185 149,148 150,259 151,296 152,370 153,259 154,333 155,259 156,259 157,222 158,185 159,185 160,296 161,259 162,370 163,296 164,222 165,259 166,333 168,333 169,259 170,296 171,333 171.58,370"><title>LR761635.1</title></polygon><rect class="average" height="1" width="171.58" x="0" y="208.58"><title>average:4.36</title></rect><rect class="median" height="1" width="171.58" x="0" y="259"><title>median:3</title></rect><text class="chromName" x="85.79" y="-12">LR761635.1<title>LR761635.1 73,222,313 bp</title></text><rect class="frame" height="370" width="171.58" x="0" y="0"/></g><g id="chrom-LR761636.1" transform="translate(314.2938403401308,0)"><polygon class="cov0" points="0,370 0,333 1,185 2,296 3,333 4,259 5,185 7,185 8,148 9,185 10,111 11,148 12,148 13,185 14,111 15,148 16,148 17,111 18,148 19,111 23,111 24,185 25,111 26,148 27,259 28,111 29,74 30,111 34,111 35,148 36,111 37,185 38,148 39,111 40,148 43,148 44,111 45,148 46,185 47,148 48,222 49,148 50,148 51,111 52,111 53,148 54,222 55,185 56,185 57,111 58,148 59,111 60,148 61,222 62,148 69,148 70,259 71,111 72,111 73,185 74,148 75,148 76,333 77,222 78,222 79,259 80,259 81,148 82,222 83,148 84,111 85,148 86,333 87,148 88,148 89,185 90,148 91,111 92,185 93,148 94,148 95,185 96,185 97,111 98,148 99,148 100,185 101,111 102,148 103,111 104,111 105,148 106,111 110,111 111,148 113,148 114,111 117,111 118,185 119,111 120,111 121,222 122,148 123,111 124,185 125,111 126,111 127,185 128,259 129,111 130,148 131,148 132,185 133,148 135,148 136,222 136.65,370"><title>LR761636.1</title></polygon><rect class="average" height="1" width="136.65" x="0" y="137.27"><title>average:6.29</title></rect><rect class="median" height="1" width="136.65" x="0" y="148"><title>median:6</title></rect><text class="chromName" x="68.33" y="-12">LR761636.1<title>LR761636.1 58,319,100 bp</title></text><rect class="frame" height="370" width="136.65" x="0" y="0"/></g><g id="chrom-LR761637.1" transform="translate(451.9485730949149,0)"><polygon class="cov1" points="0,370 0,370 1,296 3,296 4,259 5,222 6,222 7,259 8,259 9,333 10,333 11,185 12,333 13,296 14,259 15,185 16,259 17,148 18,333 19,333 20,222 21,185 22,148 23,222 24,370 25,185 26,148 27,259 28,222 29,222 30,259 31,148 32,148 33,185 34,148 35,222 37,222 38,185 39,148 40,148 41,333 42,259 43,333 44,333 45,185 46,148 47,148 48,111 49,111 50,185 51,148 52,111 53,185 54,111 55,148 56,148 57,222 58,296 59,333 60,333 61,222 62,111 63,148 64,111 65,148 66,111 67,148 68,185 69,111 70,148 71,148 72,185 73,111 74,185 75,148 76,111 77,148 78,148 79,185 80,148 81,148 82,111 83,148 84,148 85,111 86,259 87,185 88,148 89,148 90,111 91,148 92,111 93,185 94,185 95,222 96,185 97,148 98,111 99,148 100,185 101,222 103,222 104,259 105,296 106,111 108,111 109,148 110,111 111,185 112,148 113,111 114,333 115,185 117,185 118,148 119,333 120,185 121,148 122,259 123,185 124,185 124.49,370"><title>LR761637.1</title></polygon><rect class="average" height="1" width="124.49" x="0" y="167.21"><title>average:5.48</title></rect><rect class="median" height="1" width="124.49" x="0" y="185"><title>median:5</title></rect><text class="chromName" x="62.25" y="-12">LR761637.1<title>LR761637.1 53,127,865 bp</title></text><rect class="frame" height="370" width="124.49" x="0" y="0"/></g><g id="chrom-LR761638.1" transform="translate(577.4390778079033,0)"><polygon class="cov0" points="0,370 0,333 1,296 2,333 3,148 4,259 5,185 6,222 7,185 8,185 9,148 10,185 11,296 12,148 13,185 14,148 15,185 16,222 17,148 18,296 19,333 20,185 21,222 22,148 24,148 25,185 26,370 27,148 28,185 29,333 30,259 31,185 32,370 33,370 34,222 35,259 36,185 37,296 38,333 39,370 40,370 41,333 42,259 43,148 44,185 45,333 46,222 47,111 48,148 49,259 50,370 51,259 52,222 53,185 54,296 55,222 56,185 57,222 58,185 59,185 60,296 61,222 62,185 63,333 65,333 66,185 68,185 69,259 70,185 71,370 72,370 73,333 74,259 75,370 76,370 77,185 78,333 79,333 80,296 81,185 82,333 83,370 84,333 85,259 86,185 87,185 88,333 89,148 90,259 91,185 92,148 93,148 94,185 95,259 96,333 97,185 98,333 99,259 100,222 101,185 102,259 103,222 104,333 105,333 106,259 107,222 108,259 109,222 110,222 111,185 112,333 113,259 114,333 115,296 116,333 117,370 118,296 119,333 120,296 121,370 123,370 124,296 125,333 126,333 127,259 128,370 129,296 130,333 131,259 132,296 133,370 134,296 135,333 136,185 137,370 138,370 139,296 140,370 142,370 143,296 144,185 145,222 146,333 147,185 149,185 150,222 151,333 152,185 153,185 154,259 155,296 156,222 157,333 158,370 159,333 160,370 161,296 162,296 163,222 164,296 165,370 168,370 169,259 170,370 172,370 172.35,370"><title>LR761638.1</title></polygon><rect class="average" height="1" width="172.35" x="0" y="219.75"><title>average:4.06</title></rect><rect class="median" height="1" width="172.35" x="0" y="259"><title>median:3</title></rect><text class="chromName" x="86.17" y="-12">LR761638.1<title>LR761638.1 73,550,375 bp</title></text><rect class="frame" height="370" width="172.35" x="0" y="0"/></g><g id="chrom-LR761639.1" transform="translate(750.784104388203,0)"><polygon class="cov1" points="0,370 0,333 1,185 2,148 3,259 4,185 5,222 6,370 7,222 8,185 9,148 10,185 11,296 12,259 13,111 14,148 15,111 21,111 22,148 23,148 24,185 25,222 26,185 27,296 28,370 29,296 30,333 31,148 32,148 33,111 34,222 35,185 36,259 37,148 38,111 39,111 40,277.5 41,111 42,148 43,111 44,148 45,111 46,148 47,148 48,111 49,148 50,148 51,111 52,185 53,148 54,148 55,111 62,111 63,148 64,74 65,111 66,148 67,148 68,111 69,185 70,111 73,111 74,222 75,111 79,111 80,185 81,111 82,111 83,148 84,185 85,148 86,111 87,111 88,74 89,111 90,111 91,148 92,111 93,148 94,111 103,111 104,74 105,111 106,259 107,111 108,74 109,111 110,111 111,333 112,185 113,111 114,185 115,111 119,111 120,148 121,111 123,111 124,185 125,148 126,148 127,111 128,111 129,148 130,185 132,185 133,370 134,148 135,185 137,185 138,222 139,222 140,333 140.95,370"><title>LR761639.1</title></polygon><rect class="average" height="1" width="140.95" x="0" y="135.93"><title>average:6.33</title></rect><rect class="median" height="1" width="140.95" x="0" y="148"><title>median:6</title></rect><text class="chromName" x="70.47" y="-12">LR761639.1<title>LR761639.1 60,151,564 bp</title></text><rect class="frame" height="370" width="140.95" x="0" y="0"/></g><g id="chrom-LR761640.1" transform="translate(892.7327113317651,0)"><polygon class="cov0" points="0,370 0,185 1,148 2,222 3,222 4,185 5,148 6,185 7,185 8,148 12,148 13,259 14,185 15,148 16,259 17,148 18,111 19,185 20,111 21,148 22,111 23,111 24,148 25,148 26,111 27,148 28,148 29,111 33,111 34,148 35,111 36,111 37,185 38,74 39,148 40,74 41,111 42,74 43,111 44,111 45,148 46,148 47,259 48,333 49,111 50,148 51,111 56,111 57,185 58,148 59,185 60,259 61,111 62,111 63,185 64,111 65,296 66,111 67,148 68,148 69,185 70,185 71,111 72,148 73,222 74,185 75,111 76,111 77,222 78,111 79,148 80,74 82,74 83,148 84,111 85,74 86,370 87,148 88,148 89,185 90,148 91,148 92,222 93,148 94,148 95,111 96,148 97,111 98,148 99,111 100,111 101,185 102,333 103,222 104,111 105,111 106,148 107,185 108,222 109,111 110,148 111,185 112,111 113,148 114,185 115,111 116,296 117,333 118,370 119,333 120,148 121,111 123,111 124,148 125,111 127,111 128,259 129,148 130,111 131,111 132,148 133,111 135,111 136,148 138,148 139,185 140,185 141,111 142,148 143,222 144,148 145,148 145.53,370"><title>LR761640.1</title></polygon><rect class="average" height="1" width="145.53" x="0" y="137.33"><title>average:6.29</title></rect><rect class="median" height="1" width="145.53" x="0" y="148"><title>median:6</title></rect><text class="chromName" x="72.77" y="-12">LR761640.1<title>LR761640.1 62,107,823 bp</title></text><rect class="frame" height="370" width="145.53" x="0" y="0"/></g><g id="chrom-LR761641.1" transform="translate(1039.265271917344,0)"><polygon class="cov1" points="0,370 0,296 1,185 2,296 3,259 4,185 5,259 6,296 7,222 9,222 10,148 11,259 12,259 13,185 14,222 15,148 16,148 17,296 18,185 19,148 20,185 21,222 22,259 23,185 25,185 26,259 27,259 28,222 29,333 30,259 31,222 32,333 33,259 34,333 35,259 36,333 37,259 38,296 39,259 40,185 41,259 42,333 43,370 44,185 45,259 46,296 47,185 48,185 49,148 50,185 51,148 54,148 55,111 56,111 57,185 59,185 60,148 61,185 62,148 63,185 64,222 65,185 66,222 67,222 68,296 69,185 70,259 71,111 72,222 73,333 74,222 75,333 76,222 77,185 78,185 79,222 80,333 81,333 82,370 83,333 84,222 85,185 86,296 87,148 88,259 89,222 90,296 91,222 92,148 93,259 94,333 95,222 96,222 97,370 98,148 99,370 100,296 101,148 102,185 103,148 104,222 105,148 106,296 107,148 108,148 109,185 110,185 111,296 112,185 113,259 114,148 115,185 116,148 117,185 118,148 119,222 120,259 121,222 122,185 123,259 124,185 125,259 126,296 127,148 128,259 129,222 130,296 131,259 132,370 133,296 134,185 135,370 136,333 136.99,370"><title>LR761641.1</title></polygon><rect class="average" height="1" width="136.99" x="0" y="188.97"><title>average:4.89</title></rect><rect class="median" height="1" width="136.99" x="0" y="222"><title>median:4</title></rect><text class="chromName" x="68.5" y="-12">LR761641.1<title>LR761641.1 58,462,999 bp</title></text><rect class="frame" height="370" width="136.99" x="0" y="0"/></g><g id="chrom-LR761642.1" transform="translate(1177.25719230686,0)"><polygon class="cov0" points="0,370 0,333 1,333 2,370 3,296 4,333 5,370 6,333 8,333 9,296 10,333 11,259 12,259 13,148 14,222 15,222 16,296 17,259 18,296 19,259 20,259 21,185 22,296 23,296 24,185 25,148 26,222 27,185 28,296 29,185 30,259 31,148 32,185 33,222 34,148 35,333 36,185 37,185 38,111 39,222 40,148 41,185 42,148 44,148 45,259 46,148 47,296 48,185 49,333 50,222 51,222 52,259 53,148 54,148 55,259 56,185 57,259 58,259 59,222 60,185 61,370 62,222 63,222 64,185 65,185 66,222 67,370 68,222 69,185 70,259 71,259 72,185 73,222 74,185 75,185 76,333 77,185 78,185 79,222 80,259 81,222 82,333 83,259 84,333 85,296 86,333 86.91,370"><title>LR761642.1</title></polygon><rect class="average" height="1" width="86.91" x="0" y="188.57"><title>average:4.9</title></rect><rect class="median" height="1" width="86.91" x="0" y="222"><title>median:4</title></rect><text class="chromName" x="43.45" y="-12">LR761642.1<title>LR761642.1 37,089,910 bp</title></text><rect class="frame" height="370" width="86.91" x="0" y="0"/></g><g id="chrom-LR761643.1" transform="translate(1265.1671710093603,0)"><polygon class="cov1" points="0,370 0,333 1,296 2,185 3,148 4,148 5,222 6,185 8,185 9,111 10,148 11,185 12,148 13,185 14,259 15,148 16,111 17,148 18,148 19,185 20,370 21,185 22,111 23,111 24,222 25,185 26,370 27,370 28,296 29,111 30,185 31,148 32,222 33,111 34,111 35,185 36,259 37,111 40,111 41,148 42,148 43,259 44,148 45,148 46,111 47,222 48,148 49,111 50,185 51,111 52,111 53,148 54,148 55,111 57,111 58,148 59,111 61,111 62,148 63,111 64,148 67,148 68,111 69,148 70,148 71,185 72,185 73,222 74,111 75,185 76,148 77,111 78,185 79,259 80,111 81,111 82,148 83,111 87,111 88,185 89,370 90,185 91,111 92,111 93,148 94,111 95,148 96,111 100,111 101,222 102,111 103,148 104,148 105,111 107,111 108,148 109,111 110,111 111,74 112,111 113,222 114,148 115,111 116,74 117,111 126,111 127,222 128,148 129,111 130,185 131,222 132,148 133,259 134,333 134.83,370"><title>LR761643.1</title></polygon><rect class="average" height="1" width="134.83" x="0" y="138.7"><title>average:6.25</title></rect><rect class="median" height="1" width="134.83" x="0" y="148"><title>median:6</title></rect><text class="chromName" x="67.42" y="-12">LR761643.1<title>LR761643.1 57,541,580 bp</title></text><rect class="frame" height="370" width="134.83" x="0" y="0"/></g><g><line class="ruler" x1="-2" x2="1390" y1="333" y2="333"><title>1</title></line><text class="ruler" x="-5" y="333">1</text><line class="ruler" x1="-2" x2="1390" y1="296" y2="296"><title>2</title></line><text class="ruler" x="-5" y="296">2</text><line class="ruler" x1="-2" x2="1390" y1="259" y2="259"><title>3</title></line><text class="ruler" x="-5" y="259">3</text><line class="ruler" x1="-2" x2="1390" y1="222" y2="222"><title>4</title></line><text class="ruler" x="-5" y="222">4</text><line class="ruler" x1="-2" x2="1390" y1="185" y2="185"><title>5</title></line><text class="ruler" x="-5" y="185">5</text><line class="ruler" x1="-2" x2="1390" y1="148" y2="148"><title>6</title></line><text class="ruler" x="-5" y="148">6</text><line class="ruler" x1="-2" x2="1390" y1="111" y2="111"><title>7</title></line><text class="ruler" x="-5" y="111">7</text><line class="ruler" x1="-2" x2="1390" y1="74" y2="74"><title>8</title></line><text class="ruler" x="-5" y="74">8</text><line class="ruler" x1="-2" x2="1390" y1="37" y2="37"><title>9</title></line><text class="ruler" x="-5" y="37">9</text><line class="ruler" x1="-2" x2="1390" y1="0" y2="0"><title>10</title></line><text class="ruler" x="-5" y="0">10</text></g></g><text class="title" x="795" y="40">F12.realigned.bam F12<title>./F12.realigned.bam</title></text><text class="xLabel" x="795" y="475">GCA_902806645.1_cgigas_uk_roslin_v1_genomic.fna  (589,358,857 bp)<title>../ref/GCA_902806645.1_cgigas_uk_roslin_v1_genomic.fna</title></text><text class="yLabel" transform="translate(25,265) rotate(90)" x="0" y="0">Coverage bp (median)</text></g></svg>