<?xml version="1.0" encoding="UTF-8" standalone="no"?><svg height="500" width="1500" xmlns="http://www.w3.org/2000/svg"><title>F12_M10_14.merged.realigned.bam</title><desc>Made with wgscoverageplotter undefined Author: Pierre Lindenbaum</desc><style>g.maing {stroke:black;stroke-width:0.5px;fill:none;}
text.title {stroke:none;fill:black;stroke-width:1px;text-anchor:middle;}
rect.frame {stroke:darkgray;fill:none;stroke-width:0.5px;}
text.ruler {stroke:none;fill:darkgray;stroke-width:1px;text-anchor:end;}
text.chromName {stroke:none;fill:darkgray;stroke-width:1px;text-anchor:middle;}
text.xLabel {stroke:none;fill:black;stroke-width:1px;text-anchor:middle;}
text.yLabel {stroke:none;fill:black;stroke-width:1px;text-anchor:middle;}
.cov0 {stroke:gray;fill:antiquewhite;stroke-width:0.5px;}
.cov1 {stroke:gray;fill:beige;stroke-width:0.5px;}
rect.average {stroke:green;fill:green;stroke-width:0.5px;opacity:0.3;}
rect.median {stroke:red;fill:red;stroke-width:0.5px;opacity:0.3;}
line.ruler {stroke:darkgray;stroke-dasharray:4;fill:none;stroke-width:1;}
</style><g class="maing"><g id="chromosomes" transform="translate(100.0,80.0)"><g id="chrom-LR761634.1" transform="translate(10.0,0)"><polygon class="cov0" points="0,370 0,252.27 1,100.91 2,134.55 3,302.73 4,235.45 5,185 6,285.91 7,185 8,151.36 9,134.55 10,151.36 11,117.73 12,151.36 13,201.82 14,252.27 15,134.55 16,117.73 17,201.82 18,117.73 20,117.73 21,134.55 22,151.36 23,168.18 24,151.36 25,100.91 26,117.73 27,117.73 28,134.55 29,117.73 30,134.55 31,117.73 32,269.09 33,134.55 34,134.55 35,151.36 36,117.73 37,185 38,185 39,134.55 40,117.73 41,134.55 42,134.55 43,168.18 44,151.36 45,201.82 46,151.36 47,117.73 48,151.36 49,134.55 51,134.55 52,117.73 53,134.55 54,168.18 55,168.18 56,117.73 57,117.73 58,134.55 59,151.36 60,151.36 61,117.73 62,151.36 63,185 64,185 65,168.18 66,134.55 67,185 68,134.55 69,218.64 70,134.55 71,117.73 72,185 73,168.18 74,134.55 75,117.73 76,134.55 77,185 78,168.18 79,134.55 80,269.09 81,269.09 82,117.73 83,134.55 84,151.36 85,134.55 86,117.73 87,185 88,117.73 89,269.09 90,168.18 91,151.36 92,117.73 93,151.36 94,100.91 95,117.73 96,100.91 97,168.18 98,269.09 99,134.55 100,134.55 101,168.18 102,151.36 103,168.18 104,201.82 105,117.73 106,218.64 107,168.18 108,252.27 109,100.91 110,100.91 111,151.36 112,134.55 113,185 114,269.09 115,185 116,100.91 117,117.73 118,100.91 119,168.18 120,201.82 121,117.73 122,134.55 123,117.73 124,134.55 125,117.73 126,117.73 127,134.55 128,201.82 129,151.36 130,218.64 130.72,370"><title>LR761634.1</title></polygon><rect class="average" height="1" width="130.72" x="0" y="147.67"><title>average:13.22</title></rect><rect class="median" height="1" width="130.72" x="0" y="151.36"><title>median:13</title></rect><text class="chromName" x="65.36" y="-12">LR761634.1<title>LR761634.1 55,785,328 bp</title></text><rect class="frame" height="370" width="130.72" x="0" y="0"/></g><g id="chrom-LR761635.1" transform="translate(141.71753661284166,0)"><polygon class="cov1" points="0,370 0,319.55 1,353.18 2,302.73 3,252.27 4,336.36 5,336.36 6,285.91 7,302.73 8,336.36 9,185 10,134.55 11,235.45 12,168.18 13,151.36 14,218.64 15,285.91 16,302.73 17,235.45 18,269.09 19,235.45 20,285.91 21,302.73 22,285.91 23,235.45 24,302.73 25,319.55 26,302.73 27,285.91 28,302.73 29,353.18 30,319.55 31,285.91 32,252.27 33,201.82 34,218.64 35,235.45 36,285.91 37,336.36 38,269.09 39,151.36 40,218.64 41,218.64 42,151.36 43,235.45 44,134.55 45,185 46,218.64 47,168.18 48,252.27 49,185 50,235.45 51,319.55 52,252.27 53,218.64 54,285.91 55,269.09 56,336.36 57,285.91 58,185 59,302.73 60,336.36 61,285.91 62,151.36 63,302.73 64,302.73 65,252.27 66,269.09 67,252.27 68,252.27 69,319.55 70,285.91 71,218.64 73,218.64 74,252.27 75,218.64 76,319.55 77,50.45 78,269.09 79,319.55 80,168.18 81,302.73 82,353.18 83,319.55 84,353.18 85,319.55 86,353.18 87,353.18 88,336.36 89,353.18 90,285.91 91,302.73 92,336.36 93,336.36 94,269.09 95,285.91 96,319.55 97,319.55 98,336.36 99,285.91 100,285.91 101,302.73 102,319.55 103,201.82 104,134.55 105,134.55 106,269.09 107,302.73 108,185 109,185 110,285.91 111,201.82 112,285.91 113,319.55 114,319.55 115,269.09 116,269.09 117,252.27 118,168.18 119,151.36 120,134.55 121,185 122,235.45 123,252.27 124,269.09 125,134.55 126,235.45 127,269.09 128,151.36 129,218.64 130,168.18 131,285.91 132,201.82 133,269.09 134,302.73 135,269.09 136,302.73 138,302.73 139,269.09 140,319.55 141,302.73 143,302.73 144,285.91 145,218.64 146,252.27 147,67.27 148,151.36 149,134.55 150,235.45 151,252.27 152,336.36 153,218.64 154,302.73 155,285.91 156,302.73 157,302.73 158,252.27 159,185 160,252.27 161,218.64 162,319.55 163,201.82 164,185 165,218.64 166,252.27 167,285.91 168,269.09 169,285.91 170,302.73 171,319.55 171.58,370"><title>LR761635.1</title></polygon><rect class="average" height="1" width="171.58" x="0" y="204.71"><title>average:9.83</title></rect><rect class="median" height="1" width="171.58" x="0" y="269.09"><title>median:6</title></rect><text class="chromName" x="85.79" y="-12">LR761635.1<title>LR761635.1 73,222,313 bp</title></text><rect class="frame" height="370" width="171.58" x="0" y="0"/></g><g id="chrom-LR761636.1" transform="translate(314.2938403401308,0)"><polygon class="cov0" points="0,370 0,336.36 1,151.36 2,285.91 3,285.91 4,235.45 5,117.73 6,117.73 7,151.36 8,117.73 9,151.36 10,100.91 11,117.73 12,134.55 13,185 14,100.91 15,134.55 16,117.73 17,117.73 18,151.36 19,117.73 23,117.73 24,185 25,100.91 26,201.82 27,269.09 28,117.73 29,100.91 30,117.73 31,100.91 32,117.73 33,117.73 34,134.55 35,201.82 36,134.55 37,151.36 38,134.55 39,134.55 40,151.36 43,151.36 44,134.55 45,134.55 46,168.18 47,134.55 48,218.64 49,134.55 50,151.36 51,117.73 52,134.55 53,134.55 54,235.45 55,168.18 56,151.36 57,117.73 58,168.18 59,117.73 60,151.36 61,201.82 62,151.36 63,134.55 64,134.55 65,151.36 66,134.55 67,134.55 68,151.36 69,151.36 70,201.82 71,100.91 72,117.73 73,151.36 75,151.36 76,319.55 77,201.82 78,235.45 79,269.09 80,252.27 81,134.55 82,201.82 83,151.36 84,100.91 85,134.55 86,285.91 87,151.36 88,134.55 89,201.82 90,134.55 91,117.73 92,151.36 93,151.36 94,117.73 95,134.55 96,185 97,117.73 98,134.55 99,185 100,151.36 101,117.73 102,134.55 103,100.91 104,117.73 105,117.73 106,134.55 107,134.55 108,117.73 110,117.73 111,151.36 112,151.36 113,168.18 114,117.73 116,117.73 117,134.55 118,168.18 119,117.73 120,117.73 121,218.64 122,117.73 123,117.73 124,185 125,117.73 126,117.73 127,185 128,235.45 129,117.73 130,134.55 131,151.36 132,168.18 133,134.55 134,117.73 135,117.73 136,235.45 136.65,370"><title>LR761636.1</title></polygon><rect class="average" height="1" width="136.65" x="0" y="144.4"><title>average:13.41</title></rect><rect class="median" height="1" width="136.65" x="0" y="151.36"><title>median:13</title></rect><text class="chromName" x="68.33" y="-12">LR761636.1<title>LR761636.1 58,319,100 bp</title></text><rect class="frame" height="370" width="136.65" x="0" y="0"/></g><g id="chrom-LR761637.1" transform="translate(451.9485730949149,0)"><polygon class="cov1" points="0,370 0,285.91 1,269.09 2,319.55 3,285.91 4,218.64 5,168.18 6,218.64 7,252.27 8,252.27 9,285.91 10,319.55 11,151.36 12,252.27 13,269.09 14,269.09 15,151.36 16,218.64 17,117.73 18,285.91 19,302.73 20,218.64 21,168.18 22,151.36 23,218.64 24,336.36 25,151.36 26,134.55 27,252.27 28,201.82 29,235.45 30,252.27 31,134.55 32,134.55 33,168.18 34,117.73 35,185 36,319.55 37,269.09 38,151.36 40,151.36 41,302.73 42,218.64 43,269.09 44,319.55 45,185 46,151.36 47,134.55 48,117.73 49,134.55 50,201.82 51,134.55 52,100.91 53,168.18 54,100.91 55,134.55 56,151.36 57,235.45 58,285.91 60,285.91 61,218.64 62,134.55 63,151.36 64,134.55 65,151.36 66,134.55 67,151.36 68,185 69,117.73 70,151.36 71,134.55 72,168.18 73,134.55 74,185 75,151.36 76,134.55 77,134.55 78,151.36 79,185 80,168.18 81,185 82,134.55 83,151.36 84,151.36 85,117.73 86,218.64 87,151.36 88,117.73 89,134.55 90,117.73 91,134.55 92,117.73 93,168.18 94,201.82 95,218.64 96,185 97,117.73 98,100.91 99,117.73 100,218.64 101,252.27 102,252.27 103,269.09 104,285.91 105,235.45 106,117.73 107,100.91 108,117.73 109,117.73 110,100.91 111,134.55 112,134.55 113,117.73 114,302.73 115,201.82 116,168.18 117,151.36 118,134.55 119,319.55 120,151.36 121,117.73 122,285.91 123,252.27 124,218.64 124.49,370"><title>LR761637.1</title></polygon><rect class="average" height="1" width="124.49" x="0" y="171.12"><title>average:11.83</title></rect><rect class="median" height="1" width="124.49" x="0" y="185"><title>median:11</title></rect><text class="chromName" x="62.25" y="-12">LR761637.1<title>LR761637.1 53,127,865 bp</title></text><rect class="frame" height="370" width="124.49" x="0" y="0"/></g><g id="chrom-LR761638.1" transform="translate(577.4390778079033,0)"><polygon class="cov0" points="0,370 0,168.18 1,117.73 2,218.64 3,134.55 4,218.64 5,117.73 6,201.82 7,185 8,201.82 9,117.73 10,185 11,302.73 12,117.73 13,151.36 14,117.73 15,151.36 16,134.55 17,134.55 18,269.09 19,319.55 20,134.55 21,185 22,134.55 23,117.73 24,117.73 25,168.18 26,353.18 27,117.73 28,185 29,285.91 30,235.45 31,134.55 32,353.18 33,336.36 34,185 35,235.45 36,151.36 37,302.73 38,302.73 39,285.91 40,302.73 41,319.55 42,235.45 43,134.55 44,151.36 45,285.91 46,134.55 47,117.73 48,117.73 49,201.82 50,319.55 51,201.82 52,201.82 53,168.18 54,201.82 55,269.09 56,168.18 57,235.45 58,134.55 59,185 60,168.18 61,201.82 62,151.36 63,319.55 64,285.91 65,302.73 66,168.18 67,218.64 68,134.55 69,285.91 70,185 71,319.55 72,336.36 73,319.55 74,252.27 75,319.55 76,319.55 77,201.82 78,370 79,302.73 80,302.73 81,185 82,302.73 83,353.18 84,302.73 85,201.82 86,134.55 87,168.18 88,302.73 89,117.73 90,285.91 91,151.36 92,100.91 93,117.73 94,134.55 95,218.64 96,269.09 97,151.36 98,285.91 99,218.64 100,185 101,168.18 102,218.64 103,151.36 104,218.64 105,235.45 106,235.45 107,151.36 108,201.82 109,151.36 110,168.18 111,151.36 112,269.09 113,252.27 114,269.09 115,269.09 116,302.73 117,319.55 118,319.55 119,302.73 120,269.09 121,353.18 122,336.36 123,370 124,269.09 125,302.73 126,302.73 127,252.27 128,370 129,269.09 130,319.55 131,302.73 132,285.91 133,336.36 134,302.73 135,269.09 136,168.18 137,370 138,353.18 139,269.09 140,370 141,370 142,353.18 143,319.55 144,151.36 145,185 146,285.91 147,134.55 148,168.18 149,151.36 150,185 151,252.27 152,168.18 153,151.36 154,235.45 155,285.91 156,201.82 157,269.09 158,302.73 159,302.73 160,285.91 161,269.09 162,218.64 163,252.27 164,285.91 165,370 166,353.18 167,353.18 168,302.73 169,235.45 170,353.18 171,319.55 172,336.36 172.35,370"><title>LR761638.1</title></polygon><rect class="average" height="1" width="172.35" x="0" y="200.45"><title>average:10.08</title></rect><rect class="median" height="1" width="172.35" x="0" y="235.45"><title>median:8</title></rect><text class="chromName" x="86.17" y="-12">LR761638.1<title>LR761638.1 73,550,375 bp</title></text><rect class="frame" height="370" width="172.35" x="0" y="0"/></g><g id="chrom-LR761639.1" transform="translate(750.784104388203,0)"><polygon class="cov1" points="0,370 0,336.36 1,168.18 2,134.55 3,285.91 4,134.55 5,218.64 6,302.73 7,252.27 8,134.55 9,117.73 10,151.36 11,252.27 12,252.27 13,117.73 14,168.18 15,134.55 16,134.55 17,117.73 18,134.55 19,117.73 20,117.73 21,134.55 22,134.55 23,168.18 24,168.18 25,201.82 26,185 27,302.73 28,336.36 29,235.45 30,302.73 31,134.55 32,117.73 33,117.73 34,201.82 35,218.64 36,235.45 37,134.55 39,134.55 40,185 41,117.73 42,134.55 43,100.91 44,151.36 45,117.73 46,151.36 47,134.55 48,134.55 49,151.36 50,151.36 51,134.55 52,185 53,151.36 54,151.36 55,134.55 56,117.73 57,134.55 58,134.55 59,117.73 60,134.55 61,117.73 62,117.73 63,168.18 64,100.91 65,117.73 66,134.55 68,134.55 69,185 70,134.55 73,134.55 74,218.64 75,134.55 77,134.55 78,117.73 79,134.55 80,168.18 81,117.73 82,134.55 83,151.36 84,218.64 85,134.55 86,117.73 87,134.55 88,117.73 89,117.73 90,100.91 91,134.55 92,134.55 93,168.18 94,168.18 95,134.55 96,117.73 98,117.73 99,134.55 100,134.55 101,117.73 102,134.55 103,134.55 104,117.73 105,117.73 106,252.27 107,134.55 108,117.73 110,117.73 111,319.55 112,168.18 113,100.91 114,168.18 115,100.91 116,151.36 117,134.55 118,117.73 119,117.73 120,151.36 121,117.73 123,117.73 124,151.36 125,134.55 126,134.55 127,117.73 128,151.36 129,117.73 130,168.18 131,151.36 132,185 133,353.18 134,117.73 135,185 136,151.36 137,151.36 138,185 139,168.18 140,285.91 140.95,370"><title>LR761639.1</title></polygon><rect class="average" height="1" width="140.95" x="0" y="149.08"><title>average:13.14</title></rect><rect class="median" height="1" width="140.95" x="0" y="151.36"><title>median:13</title></rect><text class="chromName" x="70.47" y="-12">LR761639.1<title>LR761639.1 60,151,564 bp</title></text><rect class="frame" height="370" width="140.95" x="0" y="0"/></g><g id="chrom-LR761640.1" transform="translate(892.7327113317651,0)"><polygon class="cov0" points="0,370 0,168.18 1,117.73 2,201.82 3,168.18 4,168.18 5,117.73 6,185 7,185 8,134.55 9,168.18 10,134.55 11,151.36 12,117.73 13,252.27 14,168.18 15,134.55 16,218.64 17,134.55 18,117.73 19,185 20,117.73 21,134.55 22,134.55 23,100.91 24,134.55 25,151.36 26,117.73 27,117.73 28,134.55 30,134.55 31,117.73 33,117.73 34,151.36 35,134.55 36,134.55 37,218.64 38,117.73 39,168.18 40,117.73 41,117.73 42,100.91 43,117.73 44,117.73 45,151.36 46,168.18 47,235.45 48,319.55 49,117.73 50,151.36 51,134.55 52,117.73 53,134.55 54,117.73 55,134.55 56,117.73 57,218.64 58,151.36 59,185 60,252.27 61,134.55 62,151.36 63,168.18 64,134.55 65,252.27 66,134.55 67,151.36 68,151.36 69,185 70,168.18 71,134.55 72,185 73,218.64 74,168.18 75,134.55 76,134.55 77,218.64 78,134.55 79,201.82 80,100.91 82,100.91 83,134.55 84,117.73 85,117.73 86,353.18 87,151.36 88,168.18 89,168.18 90,151.36 91,336.36 92,285.91 93,201.82 94,285.91 95,151.36 96,134.55 97,134.55 98,151.36 99,134.55 100,117.73 101,201.82 102,319.55 103,235.45 104,134.55 105,117.73 106,117.73 107,168.18 108,185 109,134.55 110,168.18 111,185 112,151.36 113,151.36 114,168.18 115,134.55 116,285.91 117,336.36 118,353.18 119,319.55 120,134.55 121,117.73 122,134.55 124,134.55 125,117.73 126,134.55 127,117.73 128,252.27 129,151.36 130,117.73 131,117.73 132,151.36 133,117.73 134,100.91 135,84.09 136,134.55 138,134.55 139,185 140,117.73 141,134.55 142,168.18 143,201.82 144,134.55 145,134.55 145.53,370"><title>LR761640.1</title></polygon><rect class="average" height="1" width="145.53" x="0" y="153.2"><title>average:12.89</title></rect><rect class="median" height="1" width="145.53" x="0" y="151.36"><title>median:13</title></rect><text class="chromName" x="72.77" y="-12">LR761640.1<title>LR761640.1 62,107,823 bp</title></text><rect class="frame" height="370" width="145.53" x="0" y="0"/></g><g id="chrom-LR761641.1" transform="translate(1039.265271917344,0)"><polygon class="cov1" points="0,370 0,285.91 1,151.36 2,235.45 3,185 4,185 5,235.45 6,252.27 7,235.45 8,269.09 9,185 10,151.36 11,185 12,235.45 13,100.91 14,201.82 15,134.55 16,134.55 17,319.55 18,134.55 20,134.55 21,185 22,201.82 23,151.36 24,168.18 25,168.18 26,218.64 27,185 28,218.64 29,285.91 30,235.45 31,185 32,235.45 33,218.64 34,269.09 35,302.73 36,336.36 37,218.64 38,269.09 39,252.27 40,185 41,269.09 42,302.73 43,319.55 44,269.09 45,201.82 46,252.27 47,269.09 48,235.45 49,134.55 50,151.36 51,134.55 52,117.73 54,117.73 55,100.91 56,117.73 57,151.36 58,185 59,151.36 60,134.55 61,269.09 62,134.55 63,185 64,185 65,168.18 66,201.82 67,235.45 68,252.27 69,151.36 70,201.82 71,117.73 72,201.82 73,319.55 74,218.64 75,319.55 76,185 77,168.18 78,134.55 79,235.45 80,302.73 81,285.91 82,319.55 83,336.36 84,185 85,151.36 86,269.09 87,117.73 88,218.64 89,185 90,285.91 91,185 92,117.73 93,235.45 94,252.27 95,218.64 96,201.82 97,302.73 98,134.55 99,370 100,201.82 101,117.73 102,168.18 103,117.73 104,185 105,117.73 106,269.09 107,134.55 110,134.55 111,302.73 112,134.55 113,201.82 114,151.36 115,151.36 116,100.91 117,151.36 118,117.73 119,201.82 120,235.45 121,151.36 122,151.36 123,218.64 124,168.18 125,235.45 126,269.09 127,117.73 128,252.27 129,151.36 130,269.09 131,185 132,353.18 133,269.09 134,134.55 135,353.18 136,336.36 136.99,370"><title>LR761641.1</title></polygon><rect class="average" height="1" width="136.99" x="0" y="177.64"><title>average:11.44</title></rect><rect class="median" height="1" width="136.99" x="0" y="201.82"><title>median:10</title></rect><text class="chromName" x="68.5" y="-12">LR761641.1<title>LR761641.1 58,462,999 bp</title></text><rect class="frame" height="370" width="136.99" x="0" y="0"/></g><g id="chrom-LR761642.1" transform="translate(1177.25719230686,0)"><polygon class="cov0" points="0,370 0,353.18 1,302.73 2,252.27 3,185 4,151.36 5,235.45 6,285.91 7,218.64 8,168.18 9,151.36 10,117.73 11,117.73 12,134.55 13,100.91 14,134.55 15,218.64 16,269.09 17,151.36 18,134.55 20,134.55 21,117.73 22,134.55 23,218.64 24,134.55 25,100.91 26,134.55 27,151.36 28,218.64 29,134.55 30,185 31,134.55 32,134.55 33,201.82 34,201.82 35,302.73 36,134.55 37,134.55 38,100.91 39,168.18 40,134.55 41,168.18 42,117.73 43,134.55 44,151.36 45,185 46,151.36 47,252.27 48,235.45 49,302.73 50,168.18 51,235.45 52,218.64 53,117.73 54,117.73 55,218.64 56,168.18 57,168.18 58,235.45 59,134.55 60,151.36 61,319.55 62,168.18 63,168.18 64,185 65,168.18 66,168.18 67,319.55 68,252.27 69,151.36 70,117.73 71,269.09 72,134.55 73,218.64 74,151.36 75,185 76,319.55 77,151.36 78,134.55 79,285.91 80,252.27 81,168.18 82,302.73 83,235.45 84,302.73 85,201.82 86,319.55 86.91,370"><title>LR761642.1</title></polygon><rect class="average" height="1" width="86.91" x="0" y="154.17"><title>average:12.83</title></rect><rect class="median" height="1" width="86.91" x="0" y="185"><title>median:11</title></rect><text class="chromName" x="43.45" y="-12">LR761642.1<title>LR761642.1 37,089,910 bp</title></text><rect class="frame" height="370" width="86.91" x="0" y="0"/></g><g id="chrom-LR761643.1" transform="translate(1265.1671710093603,0)"><polygon class="cov1" points="0,370 0,353.18 1,269.09 2,168.18 3,117.73 4,134.55 5,252.27 6,185 7,151.36 8,151.36 9,134.55 10,134.55 11,168.18 12,134.55 13,185 14,235.45 15,151.36 16,117.73 17,151.36 18,151.36 19,168.18 20,353.18 21,168.18 22,134.55 23,134.55 24,185 25,168.18 26,353.18 27,336.36 28,302.73 29,134.55 30,235.45 31,151.36 32,235.45 33,134.55 34,151.36 35,185 36,252.27 37,117.73 38,134.55 39,117.73 40,134.55 41,151.36 42,168.18 43,285.91 44,151.36 45,168.18 46,117.73 47,235.45 48,151.36 49,134.55 50,168.18 51,117.73 52,134.55 53,151.36 54,168.18 55,134.55 56,117.73 57,134.55 58,201.82 59,117.73 61,117.73 62,151.36 63,134.55 64,151.36 65,168.18 66,151.36 67,151.36 68,134.55 70,134.55 71,235.45 72,201.82 73,218.64 74,117.73 75,235.45 76,134.55 77,117.73 78,185 79,252.27 80,117.73 81,117.73 82,134.55 83,134.55 84,117.73 85,117.73 86,134.55 87,117.73 88,151.36 89,353.18 90,168.18 91,117.73 92,117.73 93,134.55 94,117.73 95,151.36 96,117.73 100,117.73 101,201.82 102,134.55 103,134.55 104,151.36 105,134.55 106,117.73 107,117.73 108,134.55 109,117.73 110,117.73 111,100.91 112,117.73 113,218.64 114,151.36 115,134.55 116,100.91 117,117.73 118,117.73 119,151.36 120,117.73 121,100.91 122,100.91 123,117.73 124,134.55 125,134.55 126,117.73 127,168.18 128,134.55 129,117.73 130,168.18 131,185 132,117.73 133,235.45 134,218.64 134.83,370"><title>LR761643.1</title></polygon><rect class="average" height="1" width="134.83" x="0" y="153.39"><title>average:12.88</title></rect><rect class="median" height="1" width="134.83" x="0" y="151.36"><title>median:13</title></rect><text class="chromName" x="67.42" y="-12">LR761643.1<title>LR761643.1 57,541,580 bp</title></text><rect class="frame" height="370" width="134.83" x="0" y="0"/></g><g><line class="ruler" x1="-2" x2="1390" y1="333" y2="333"><title>2</title></line><text class="ruler" x="-5" y="333">2</text><line class="ruler" x1="-2" x2="1390" y1="296" y2="296"><title>4</title></line><text class="ruler" x="-5" y="296">4</text><line class="ruler" x1="-2" x2="1390" y1="259" y2="259"><title>6</title></line><text class="ruler" x="-5" y="259">6</text><line class="ruler" x1="-2" x2="1390" y1="222" y2="222"><title>8</title></line><text class="ruler" x="-5" y="222">8</text><line class="ruler" x1="-2" x2="1390" y1="185" y2="185"><title>11</title></line><text class="ruler" x="-5" y="185">11</text><line class="ruler" x1="-2" x2="1390" y1="148" y2="148"><title>13</title></line><text class="ruler" x="-5" y="148">13</text><line class="ruler" x1="-2" x2="1390" y1="111" y2="111"><title>15</title></line><text class="ruler" x="-5" y="111">15</text><line class="ruler" x1="-2" x2="1390" y1="74" y2="74"><title>17</title></line><text class="ruler" x="-5" y="74">17</text><line class="ruler" x1="-2" x2="1390" y1="37" y2="37"><title>19</title></line><text class="ruler" x="-5" y="37">19</text><line class="ruler" x1="-2" x2="1390" y1="0" y2="0"><title>22</title></line><text class="ruler" x="-5" y="0">22</text></g></g><text class="title" x="795" y="40">F12_M10_14.merged.realigned.bam F12_M10_14 F12_M10_14_1 F12_M10_14_2<title>./F12_M10_14.merged.realigned.bam</title></text><text class="xLabel" x="795" y="475">GCA_902806645.1_cgigas_uk_roslin_v1_genomic.fna  (589,358,857 bp)<title>../ref/GCA_902806645.1_cgigas_uk_roslin_v1_genomic.fna</title></text><text class="yLabel" transform="translate(25,265) rotate(90)" x="0" y="0">Coverage bp (median)</text></g></svg>