<?xml version="1.0" encoding="UTF-8" standalone="no"?><svg height="500" width="1500" xmlns="http://www.w3.org/2000/svg"><title>F12_M10_24.merged.realigned.bam</title><desc>Made with wgscoverageplotter undefined Author: Pierre Lindenbaum</desc><style>g.maing {stroke:black;stroke-width:0.5px;fill:none;}
text.title {stroke:none;fill:black;stroke-width:1px;text-anchor:middle;}
rect.frame {stroke:darkgray;fill:none;stroke-width:0.5px;}
text.ruler {stroke:none;fill:darkgray;stroke-width:1px;text-anchor:end;}
text.chromName {stroke:none;fill:darkgray;stroke-width:1px;text-anchor:middle;}
text.xLabel {stroke:none;fill:black;stroke-width:1px;text-anchor:middle;}
text.yLabel {stroke:none;fill:black;stroke-width:1px;text-anchor:middle;}
.cov0 {stroke:gray;fill:antiquewhite;stroke-width:0.5px;}
.cov1 {stroke:gray;fill:beige;stroke-width:0.5px;}
rect.average {stroke:green;fill:green;stroke-width:0.5px;opacity:0.3;}
rect.median {stroke:red;fill:red;stroke-width:0.5px;opacity:0.3;}
line.ruler {stroke:darkgray;stroke-dasharray:4;fill:none;stroke-width:1;}
</style><g class="maing"><g id="chromosomes" transform="translate(100.0,80.0)"><g id="chrom-LR761634.1" transform="translate(10.0,0)"><polygon class="cov0" points="0,370 0,252.27 1,134.55 2,151.36 3,302.73 4,235.45 5,185 6,285.91 7,185 8,151.36 9,134.55 10,151.36 11,117.73 12,151.36 13,185 14,235.45 15,134.55 16,134.55 17,218.64 18,134.55 19,134.55 20,117.73 21,134.55 22,151.36 23,168.18 24,151.36 25,117.73 26,134.55 27,134.55 28,151.36 29,134.55 30,134.55 31,151.36 32,269.09 33,134.55 34,151.36 35,151.36 36,117.73 37,185 38,201.82 39,134.55 42,134.55 43,185 44,168.18 45,218.64 46,185 47,151.36 48,168.18 49,151.36 51,151.36 52,134.55 53,151.36 54,201.82 55,235.45 56,134.55 57,117.73 58,134.55 59,151.36 60,151.36 61,134.55 62,168.18 63,185 64,185 65,168.18 66,151.36 67,185 68,134.55 69,185 70,134.55 71,134.55 72,218.64 73,185 74,151.36 75,134.55 76,151.36 77,201.82 78,168.18 79,151.36 80,269.09 81,269.09 82,134.55 83,151.36 84,151.36 85,134.55 86,117.73 87,201.82 88,134.55 89,285.91 90,151.36 91,151.36 92,134.55 93,168.18 94,117.73 95,134.55 96,117.73 97,201.82 98,269.09 99,134.55 100,134.55 101,151.36 102,151.36 103,168.18 104,201.82 105,117.73 106,201.82 107,185 108,269.09 109,117.73 110,117.73 111,151.36 112,134.55 113,185 114,252.27 115,201.82 116,117.73 117,134.55 118,100.91 119,168.18 120,218.64 121,134.55 123,134.55 124,151.36 125,117.73 126,134.55 127,151.36 128,201.82 129,168.18 130,201.82 130.72,370"><title>LR761634.1</title></polygon><rect class="average" height="1" width="130.72" x="0" y="157.18"><title>average:12.65</title></rect><rect class="median" height="1" width="130.72" x="0" y="151.36"><title>median:13</title></rect><text class="chromName" x="65.36" y="-12">LR761634.1<title>LR761634.1 55,785,328 bp</title></text><rect class="frame" height="370" width="130.72" x="0" y="0"/></g><g id="chrom-LR761635.1" transform="translate(141.71753661284166,0)"><polygon class="cov1" points="0,370 0,336.36 1,353.18 2,319.55 3,252.27 4,336.36 5,370 6,218.64 7,302.73 8,336.36 9,201.82 10,185 11,269.09 12,235.45 13,168.18 14,201.82 15,285.91 16,302.73 17,218.64 18,269.09 19,235.45 20,285.91 21,285.91 22,269.09 23,269.09 24,302.73 25,336.36 26,302.73 27,302.73 28,319.55 29,353.18 30,336.36 31,336.36 32,269.09 33,201.82 34,185 35,252.27 36,235.45 37,319.55 38,285.91 39,168.18 40,201.82 41,218.64 42,168.18 43,252.27 44,100.91 45,151.36 46,218.64 47,168.18 48,218.64 49,168.18 50,201.82 51,235.45 52,218.64 53,252.27 54,269.09 55,218.64 56,252.27 57,252.27 58,151.36 59,302.73 60,319.55 61,252.27 62,151.36 63,235.45 64,218.64 65,185 66,285.91 67,252.27 68,269.09 69,302.73 70,302.73 71,185 72,235.45 73,235.45 74,185 75,168.18 76,269.09 77,67.27 78,235.45 79,235.45 80,117.73 81,235.45 82,252.27 83,269.09 84,269.09 85,252.27 86,269.09 87,285.91 88,269.09 89,269.09 90,235.45 91,336.36 92,353.18 93,353.18 94,302.73 95,336.36 96,353.18 97,353.18 98,370 99,319.55 100,302.73 101,319.55 102,319.55 103,168.18 104,84.09 105,151.36 106,235.45 107,302.73 108,201.82 109,218.64 110,302.73 111,218.64 112,285.91 113,353.18 114,319.55 115,168.18 116,185 117,201.82 118,168.18 119,168.18 120,134.55 121,201.82 122,201.82 123,252.27 124,285.91 125,151.36 126,252.27 127,269.09 128,201.82 129,218.64 130,168.18 131,285.91 132,218.64 133,269.09 134,302.73 135,269.09 136,302.73 138,302.73 139,269.09 140,319.55 141,302.73 142,302.73 143,285.91 144,269.09 145,252.27 146,252.27 147,100.91 148,168.18 149,134.55 150,218.64 151,285.91 152,319.55 153,218.64 154,319.55 155,252.27 156,269.09 157,252.27 158,168.18 159,168.18 160,252.27 161,218.64 162,353.18 163,319.55 164,218.64 165,252.27 166,319.55 167,319.55 168,302.73 169,252.27 170,285.91 171,302.73 171.58,370"><title>LR761635.1</title></polygon><rect class="average" height="1" width="171.58" x="0" y="202.92"><title>average:9.93</title></rect><rect class="median" height="1" width="171.58" x="0" y="252.27"><title>median:7</title></rect><text class="chromName" x="85.79" y="-12">LR761635.1<title>LR761635.1 73,222,313 bp</title></text><rect class="frame" height="370" width="171.58" x="0" y="0"/></g><g id="chrom-LR761636.1" transform="translate(314.2938403401308,0)"><polygon class="cov0" points="0,370 0,336.36 1,168.18 2,302.73 3,319.55 4,235.45 5,117.73 6,134.55 7,151.36 8,134.55 9,151.36 10,100.91 11,134.55 12,134.55 13,185 14,117.73 15,151.36 16,117.73 17,117.73 18,168.18 19,134.55 23,134.55 24,201.82 25,117.73 26,201.82 27,269.09 28,134.55 29,117.73 30,134.55 31,117.73 32,117.73 33,134.55 34,151.36 35,185 36,134.55 37,168.18 38,151.36 39,151.36 40,168.18 41,168.18 42,185 43,151.36 44,151.36 45,168.18 46,185 47,151.36 48,235.45 49,168.18 50,168.18 51,134.55 52,151.36 53,151.36 54,252.27 55,185 56,168.18 57,134.55 58,168.18 59,134.55 60,151.36 61,201.82 62,168.18 63,151.36 64,151.36 65,168.18 66,151.36 67,151.36 68,168.18 69,168.18 70,218.64 71,117.73 72,134.55 73,168.18 74,168.18 75,151.36 76,319.55 77,218.64 78,235.45 79,269.09 80,252.27 81,151.36 82,218.64 83,168.18 84,134.55 85,151.36 86,269.09 87,151.36 88,151.36 89,201.82 90,151.36 91,117.73 92,185 93,168.18 94,151.36 95,185 96,185 97,134.55 98,151.36 99,168.18 100,185 101,134.55 102,151.36 103,117.73 104,134.55 105,151.36 106,134.55 110,134.55 111,168.18 113,168.18 114,134.55 115,134.55 116,151.36 117,151.36 118,185 119,151.36 120,151.36 121,201.82 122,151.36 123,134.55 124,201.82 125,134.55 126,134.55 127,201.82 128,269.09 129,134.55 130,151.36 131,134.55 132,168.18 133,134.55 135,134.55 136,269.09 136.65,370"><title>LR761636.1</title></polygon><rect class="average" height="1" width="136.65" x="0" y="157.29"><title>average:12.65</title></rect><rect class="median" height="1" width="136.65" x="0" y="151.36"><title>median:13</title></rect><text class="chromName" x="68.33" y="-12">LR761636.1<title>LR761636.1 58,319,100 bp</title></text><rect class="frame" height="370" width="136.65" x="0" y="0"/></g><g id="chrom-LR761637.1" transform="translate(451.9485730949149,0)"><polygon class="cov1" points="0,370 0,353.18 1,269.09 2,285.91 3,252.27 4,218.64 5,185 6,185 7,269.09 8,235.45 9,302.73 10,319.55 11,168.18 12,252.27 13,252.27 14,269.09 15,168.18 16,235.45 17,117.73 18,302.73 19,302.73 20,201.82 21,185 22,151.36 23,218.64 24,353.18 25,134.55 26,134.55 27,235.45 28,201.82 29,218.64 30,269.09 31,134.55 32,151.36 33,185 34,117.73 35,201.82 36,252.27 37,185 38,168.18 39,151.36 40,151.36 41,302.73 42,235.45 43,302.73 44,319.55 45,185 46,151.36 47,151.36 48,134.55 49,134.55 50,185 51,151.36 52,117.73 53,168.18 54,117.73 55,151.36 56,151.36 57,235.45 58,285.91 59,269.09 60,269.09 61,235.45 62,151.36 66,151.36 67,168.18 68,185 69,134.55 70,168.18 71,151.36 72,185 73,151.36 74,185 75,168.18 76,151.36 77,168.18 78,134.55 79,185 80,168.18 81,151.36 82,134.55 83,151.36 84,151.36 85,134.55 86,235.45 87,168.18 88,134.55 89,151.36 90,134.55 92,134.55 93,168.18 94,201.82 95,235.45 96,185 97,151.36 98,117.73 99,134.55 100,168.18 101,185 102,185 103,201.82 104,201.82 105,269.09 106,117.73 109,117.73 110,100.91 111,151.36 112,134.55 113,117.73 114,302.73 115,168.18 116,168.18 117,151.36 118,134.55 119,319.55 120,168.18 121,134.55 122,285.91 123,235.45 124,235.45 124.49,370"><title>LR761637.1</title></polygon><rect class="average" height="1" width="124.49" x="0" y="172.55"><title>average:11.74</title></rect><rect class="median" height="1" width="124.49" x="0" y="185"><title>median:11</title></rect><text class="chromName" x="62.25" y="-12">LR761637.1<title>LR761637.1 53,127,865 bp</title></text><rect class="frame" height="370" width="124.49" x="0" y="0"/></g><g id="chrom-LR761638.1" transform="translate(577.4390778079033,0)"><polygon class="cov0" points="0,370 0,218.64 1,185 2,319.55 3,151.36 4,218.64 5,151.36 6,201.82 7,185 8,201.82 9,117.73 10,168.18 11,285.91 12,134.55 13,168.18 14,117.73 15,168.18 16,151.36 17,134.55 18,269.09 19,302.73 20,151.36 21,185 22,134.55 23,134.55 24,117.73 25,168.18 26,353.18 27,134.55 28,168.18 29,252.27 30,218.64 31,151.36 32,370 33,353.18 34,185 35,235.45 36,168.18 37,285.91 38,302.73 39,285.91 40,302.73 41,319.55 42,252.27 43,134.55 44,151.36 45,302.73 46,168.18 47,100.91 48,134.55 49,218.64 50,319.55 51,235.45 52,201.82 53,168.18 54,269.09 55,218.64 56,151.36 57,218.64 58,151.36 59,185 60,235.45 61,218.64 62,168.18 63,319.55 64,319.55 65,285.91 66,218.64 67,201.82 68,168.18 69,269.09 70,168.18 71,302.73 72,336.36 73,302.73 74,252.27 75,319.55 76,336.36 77,185 78,336.36 79,336.36 80,285.91 81,185 82,302.73 83,353.18 84,319.55 85,235.45 86,168.18 87,168.18 88,319.55 89,134.55 90,285.91 91,151.36 92,117.73 93,134.55 94,151.36 95,235.45 96,319.55 97,168.18 98,319.55 99,252.27 100,201.82 101,168.18 102,252.27 103,185 104,302.73 105,302.73 106,235.45 107,168.18 108,235.45 109,185 110,201.82 111,185 112,302.73 113,235.45 114,252.27 115,252.27 116,302.73 117,336.36 118,302.73 119,302.73 120,285.91 121,336.36 122,336.36 123,370 124,285.91 125,302.73 126,302.73 127,252.27 128,370 129,269.09 130,319.55 131,285.91 132,285.91 133,353.18 134,285.91 135,302.73 136,168.18 137,370 138,353.18 139,285.91 140,370 141,370 142,336.36 143,285.91 144,168.18 145,185 146,269.09 147,151.36 148,168.18 149,151.36 150,185 151,285.91 152,168.18 153,151.36 154,252.27 155,285.91 156,201.82 157,252.27 158,302.73 160,302.73 161,252.27 162,285.91 163,235.45 164,269.09 165,353.18 166,336.36 167,353.18 168,302.73 169,235.45 170,336.36 171,302.73 172,336.36 172.35,370"><title>LR761638.1</title></polygon><rect class="average" height="1" width="172.35" x="0" y="208.69"><title>average:9.59</title></rect><rect class="median" height="1" width="172.35" x="0" y="252.27"><title>median:7</title></rect><text class="chromName" x="86.17" y="-12">LR761638.1<title>LR761638.1 73,550,375 bp</title></text><rect class="frame" height="370" width="172.35" x="0" y="0"/></g><g id="chrom-LR761639.1" transform="translate(750.784104388203,0)"><polygon class="cov1" points="0,370 0,319.55 1,151.36 2,134.55 3,252.27 4,134.55 5,218.64 6,302.73 7,269.09 8,151.36 9,134.55 10,168.18 11,269.09 12,218.64 13,134.55 14,168.18 15,134.55 21,134.55 22,168.18 23,168.18 24,185 25,218.64 26,185 27,302.73 28,353.18 29,269.09 30,319.55 31,134.55 33,134.55 34,201.82 35,201.82 36,235.45 37,151.36 38,134.55 39,151.36 40,218.64 41,134.55 42,151.36 43,117.73 44,151.36 45,134.55 46,168.18 47,151.36 48,134.55 49,168.18 50,168.18 51,151.36 52,201.82 53,168.18 54,168.18 55,151.36 56,134.55 57,151.36 58,151.36 59,134.55 60,151.36 61,134.55 62,151.36 63,168.18 64,117.73 65,134.55 66,168.18 67,151.36 68,151.36 69,185 70,151.36 71,168.18 72,151.36 73,151.36 74,235.45 75,134.55 76,151.36 79,151.36 80,185 81,134.55 82,151.36 83,168.18 84,218.64 85,151.36 86,134.55 87,151.36 88,134.55 90,134.55 91,151.36 92,151.36 93,185 94,168.18 95,151.36 96,134.55 98,134.55 99,151.36 103,151.36 104,134.55 105,151.36 106,252.27 107,134.55 108,117.73 109,134.55 110,134.55 111,319.55 112,185 113,134.55 114,185 115,134.55 116,168.18 117,134.55 119,134.55 120,168.18 121,134.55 123,134.55 124,168.18 125,134.55 128,134.55 129,117.73 130,168.18 131,151.36 132,168.18 133,353.18 134,117.73 135,168.18 136,151.36 137,168.18 138,185 139,185 140,302.73 140.95,370"><title>LR761639.1</title></polygon><rect class="average" height="1" width="140.95" x="0" y="159.73"><title>average:12.5</title></rect><rect class="median" height="1" width="140.95" x="0" y="151.36"><title>median:13</title></rect><text class="chromName" x="70.47" y="-12">LR761639.1<title>LR761639.1 60,151,564 bp</title></text><rect class="frame" height="370" width="140.95" x="0" y="0"/></g><g id="chrom-LR761640.1" transform="translate(892.7327113317651,0)"><polygon class="cov0" points="0,370 0,168.18 1,117.73 2,185 3,185 4,168.18 5,117.73 6,185 7,185 8,134.55 9,151.36 10,134.55 11,151.36 12,134.55 13,235.45 14,185 15,151.36 16,218.64 17,151.36 18,134.55 19,185 20,134.55 21,151.36 22,134.55 23,134.55 24,151.36 25,168.18 26,134.55 27,151.36 30,151.36 31,117.73 32,151.36 33,134.55 34,168.18 35,151.36 36,151.36 37,201.82 38,134.55 39,168.18 40,117.73 41,134.55 42,100.91 43,134.55 44,134.55 45,151.36 46,168.18 47,252.27 48,353.18 49,134.55 50,168.18 51,151.36 52,134.55 53,151.36 54,134.55 56,134.55 57,201.82 58,168.18 59,201.82 60,252.27 61,151.36 62,151.36 63,201.82 64,134.55 65,269.09 66,151.36 67,168.18 68,151.36 69,201.82 70,201.82 71,151.36 72,168.18 73,235.45 74,185 75,151.36 76,151.36 77,235.45 78,134.55 79,185 80,117.73 82,117.73 83,151.36 84,151.36 85,117.73 86,353.18 87,168.18 88,168.18 89,185 90,151.36 91,235.45 92,269.09 93,185 94,218.64 95,151.36 97,151.36 98,168.18 99,151.36 100,134.55 101,201.82 102,336.36 103,235.45 104,134.55 105,117.73 106,151.36 107,185 108,185 109,134.55 110,185 111,201.82 112,168.18 113,168.18 114,185 115,134.55 116,302.73 117,336.36 118,353.18 119,319.55 120,151.36 121,134.55 123,134.55 124,151.36 125,134.55 127,134.55 128,252.27 129,168.18 130,134.55 131,134.55 132,151.36 133,134.55 134,117.73 135,117.73 136,151.36 137,151.36 138,134.55 139,185 140,151.36 141,134.55 142,168.18 143,185 144,134.55 145,134.55 145.53,370"><title>LR761640.1</title></polygon><rect class="average" height="1" width="145.53" x="0" y="161.73"><title>average:12.38</title></rect><rect class="median" height="1" width="145.53" x="0" y="168.18"><title>median:12</title></rect><text class="chromName" x="72.77" y="-12">LR761640.1<title>LR761640.1 62,107,823 bp</title></text><rect class="frame" height="370" width="145.53" x="0" y="0"/></g><g id="chrom-LR761641.1" transform="translate(1039.265271917344,0)"><polygon class="cov1" points="0,370 0,285.91 1,168.18 2,269.09 3,201.82 4,201.82 5,235.45 6,285.91 7,218.64 8,235.45 9,185 10,134.55 11,235.45 12,235.45 13,134.55 14,218.64 15,151.36 16,117.73 17,285.91 18,134.55 19,134.55 20,151.36 21,168.18 22,235.45 23,168.18 24,151.36 25,168.18 26,235.45 27,235.45 28,218.64 29,302.73 30,235.45 31,201.82 32,285.91 33,252.27 34,285.91 35,269.09 36,319.55 37,252.27 38,269.09 39,252.27 40,185 41,252.27 42,285.91 43,336.36 44,218.64 45,218.64 46,269.09 47,235.45 48,235.45 49,151.36 50,201.82 51,151.36 52,134.55 54,134.55 55,117.73 56,134.55 57,168.18 58,185 59,185 60,151.36 61,218.64 62,134.55 63,185 64,201.82 65,151.36 66,218.64 67,218.64 68,269.09 69,168.18 70,269.09 71,117.73 72,185 73,302.73 74,218.64 75,302.73 76,201.82 77,201.82 78,151.36 79,201.82 80,285.91 81,336.36 83,336.36 84,185 85,151.36 86,269.09 87,134.55 88,218.64 89,185 90,302.73 91,201.82 92,134.55 93,235.45 94,319.55 95,218.64 96,218.64 97,302.73 98,117.73 99,370 100,302.73 101,134.55 102,168.18 103,117.73 104,185 105,134.55 106,269.09 107,134.55 108,151.36 109,151.36 110,134.55 111,285.91 112,134.55 113,235.45 114,134.55 115,134.55 116,117.73 117,168.18 118,134.55 119,201.82 120,235.45 121,168.18 122,168.18 123,235.45 124,168.18 125,218.64 126,269.09 127,134.55 128,252.27 129,168.18 130,269.09 131,235.45 132,319.55 133,285.91 134,134.55 135,353.18 136,302.73 136.99,370"><title>LR761641.1</title></polygon><rect class="average" height="1" width="136.99" x="0" y="184.66"><title>average:11.02</title></rect><rect class="median" height="1" width="136.99" x="0" y="201.82"><title>median:10</title></rect><text class="chromName" x="68.5" y="-12">LR761641.1<title>LR761641.1 58,462,999 bp</title></text><rect class="frame" height="370" width="136.99" x="0" y="0"/></g><g id="chrom-LR761642.1" transform="translate(1177.25719230686,0)"><polygon class="cov0" points="0,370 0,336.36 1,319.55 2,353.18 3,269.09 4,319.55 5,319.55 6,302.73 7,302.73 8,319.55 9,302.73 10,285.91 11,218.64 12,252.27 13,134.55 14,201.82 15,185 16,285.91 17,252.27 18,269.09 19,235.45 20,218.64 21,168.18 22,285.91 23,285.91 24,151.36 25,134.55 26,185 27,185 28,285.91 29,168.18 30,235.45 31,134.55 32,151.36 33,218.64 34,151.36 35,302.73 36,151.36 37,168.18 38,117.73 39,185 40,151.36 41,185 42,134.55 43,151.36 44,151.36 45,218.64 46,151.36 47,269.09 48,218.64 49,285.91 50,185 51,218.64 52,235.45 53,134.55 54,134.55 55,235.45 56,185 57,218.64 58,235.45 59,151.36 60,168.18 61,302.73 62,168.18 63,185 64,201.82 65,168.18 66,185 67,336.36 68,218.64 69,168.18 70,151.36 71,252.27 72,168.18 73,235.45 74,151.36 75,185 76,319.55 77,168.18 78,151.36 79,252.27 80,252.27 81,185 82,319.55 83,235.45 84,319.55 85,235.45 86,319.55 86.91,370"><title>LR761642.1</title></polygon><rect class="average" height="1" width="86.91" x="0" y="181.98"><title>average:11.18</title></rect><rect class="median" height="1" width="86.91" x="0" y="218.64"><title>median:9</title></rect><text class="chromName" x="43.45" y="-12">LR761642.1<title>LR761642.1 37,089,910 bp</title></text><rect class="frame" height="370" width="86.91" x="0" y="0"/></g><g id="chrom-LR761643.1" transform="translate(1265.1671710093603,0)"><polygon class="cov1" points="0,370 0,336.36 1,269.09 2,168.18 3,117.73 4,151.36 5,235.45 6,185 7,168.18 8,151.36 9,134.55 10,134.55 11,168.18 12,151.36 13,201.82 14,252.27 15,151.36 16,117.73 17,151.36 18,168.18 19,168.18 20,353.18 21,168.18 22,134.55 23,134.55 24,201.82 25,168.18 26,353.18 27,336.36 28,302.73 29,151.36 30,218.64 31,151.36 32,218.64 33,151.36 34,134.55 35,201.82 36,252.27 37,134.55 38,151.36 39,134.55 40,151.36 41,168.18 42,185 43,269.09 44,168.18 45,185 46,134.55 47,235.45 48,168.18 49,151.36 50,185 51,134.55 52,151.36 53,185 54,168.18 55,151.36 56,134.55 57,151.36 58,185 59,151.36 60,134.55 61,134.55 62,168.18 63,151.36 64,168.18 65,185 66,168.18 67,168.18 68,151.36 69,151.36 70,168.18 71,235.45 72,201.82 73,218.64 74,134.55 75,218.64 76,151.36 77,134.55 78,201.82 79,252.27 80,151.36 81,134.55 82,151.36 83,134.55 85,134.55 86,151.36 87,134.55 88,185 89,353.18 90,185 91,134.55 92,134.55 93,151.36 94,134.55 95,151.36 96,134.55 100,134.55 101,218.64 102,151.36 103,151.36 104,168.18 105,151.36 106,134.55 107,134.55 108,151.36 109,134.55 112,134.55 113,235.45 114,168.18 115,151.36 116,117.73 117,134.55 118,134.55 119,168.18 120,134.55 123,134.55 124,151.36 125,134.55 126,117.73 127,201.82 128,151.36 129,134.55 130,168.18 131,201.82 132,134.55 133,235.45 134,285.91 134.83,370"><title>LR761643.1</title></polygon><rect class="average" height="1" width="134.83" x="0" y="166.17"><title>average:12.12</title></rect><rect class="median" height="1" width="134.83" x="0" y="168.18"><title>median:12</title></rect><text class="chromName" x="67.42" y="-12">LR761643.1<title>LR761643.1 57,541,580 bp</title></text><rect class="frame" height="370" width="134.83" x="0" y="0"/></g><g><line class="ruler" x1="-2" x2="1390" y1="333" y2="333"><title>2</title></line><text class="ruler" x="-5" y="333">2</text><line class="ruler" x1="-2" x2="1390" y1="296" y2="296"><title>4</title></line><text class="ruler" x="-5" y="296">4</text><line class="ruler" x1="-2" x2="1390" y1="259" y2="259"><title>6</title></line><text class="ruler" x="-5" y="259">6</text><line class="ruler" x1="-2" x2="1390" y1="222" y2="222"><title>8</title></line><text class="ruler" x="-5" y="222">8</text><line class="ruler" x1="-2" x2="1390" y1="185" y2="185"><title>11</title></line><text class="ruler" x="-5" y="185">11</text><line class="ruler" x1="-2" x2="1390" y1="148" y2="148"><title>13</title></line><text class="ruler" x="-5" y="148">13</text><line class="ruler" x1="-2" x2="1390" y1="111" y2="111"><title>15</title></line><text class="ruler" x="-5" y="111">15</text><line class="ruler" x1="-2" x2="1390" y1="74" y2="74"><title>17</title></line><text class="ruler" x="-5" y="74">17</text><line class="ruler" x1="-2" x2="1390" y1="37" y2="37"><title>19</title></line><text class="ruler" x="-5" y="37">19</text><line class="ruler" x1="-2" x2="1390" y1="0" y2="0"><title>22</title></line><text class="ruler" x="-5" y="0">22</text></g></g><text class="title" x="795" y="40">F12_M10_24.merged.realigned.bam F12_M10_24 F12_M10_24_1 F12_M10_24_2<title>./F12_M10_24.merged.realigned.bam</title></text><text class="xLabel" x="795" y="475">GCA_902806645.1_cgigas_uk_roslin_v1_genomic.fna  (589,358,857 bp)<title>../ref/GCA_902806645.1_cgigas_uk_roslin_v1_genomic.fna</title></text><text class="yLabel" transform="translate(25,265) rotate(90)" x="0" y="0">Coverage bp (median)</text></g></svg>