<?xml version="1.0" encoding="UTF-8" standalone="no"?><svg height="500" width="1500" xmlns="http://www.w3.org/2000/svg"><title>F12_M11_24.merged.realigned.bam</title><desc>Made with wgscoverageplotter undefined Author: Pierre Lindenbaum</desc><style>g.maing {stroke:black;stroke-width:0.5px;fill:none;}
text.title {stroke:none;fill:black;stroke-width:1px;text-anchor:middle;}
rect.frame {stroke:darkgray;fill:none;stroke-width:0.5px;}
text.ruler {stroke:none;fill:darkgray;stroke-width:1px;text-anchor:end;}
text.chromName {stroke:none;fill:darkgray;stroke-width:1px;text-anchor:middle;}
text.xLabel {stroke:none;fill:black;stroke-width:1px;text-anchor:middle;}
text.yLabel {stroke:none;fill:black;stroke-width:1px;text-anchor:middle;}
.cov0 {stroke:gray;fill:antiquewhite;stroke-width:0.5px;}
.cov1 {stroke:gray;fill:beige;stroke-width:0.5px;}
rect.average {stroke:green;fill:green;stroke-width:0.5px;opacity:0.3;}
rect.median {stroke:red;fill:red;stroke-width:0.5px;opacity:0.3;}
line.ruler {stroke:darkgray;stroke-dasharray:4;fill:none;stroke-width:1;}
</style><g class="maing"><g id="chromosomes" transform="translate(100.0,80.0)"><g id="chrom-LR761634.1" transform="translate(10.0,0)"><polygon class="cov0" points="0,370 0,323.75 1,138.75 2,154.17 3,292.92 4,215.83 5,154.17 6,262.08 7,200.42 8,169.58 9,138.75 10,154.17 11,123.33 12,169.58 13,231.25 14,277.5 15,154.17 16,138.75 17,215.83 18,154.17 19,154.17 20,138.75 21,154.17 22,169.58 23,154.17 24,169.58 25,138.75 27,138.75 28,154.17 29,138.75 30,138.75 31,154.17 32,262.08 33,154.17 34,154.17 35,169.58 36,138.75 37,200.42 38,200.42 39,154.17 40,154.17 41,138.75 42,154.17 43,200.42 44,169.58 45,215.83 46,200.42 47,154.17 48,169.58 49,154.17 50,169.58 51,154.17 53,154.17 54,277.5 55,339.17 56,138.75 57,123.33 58,154.17 59,169.58 60,169.58 61,138.75 62,169.58 63,185 64,200.42 65,185 66,169.58 67,185 68,138.75 69,215.83 70,138.75 71,138.75 72,215.83 73,185 74,169.58 75,138.75 76,154.17 77,200.42 78,169.58 79,169.58 80,308.33 81,262.08 82,138.75 83,154.17 84,169.58 85,154.17 86,138.75 87,215.83 88,138.75 89,277.5 90,154.17 91,138.75 92,138.75 93,185 94,123.33 95,138.75 96,123.33 97,185 98,308.33 99,138.75 100,138.75 101,185 102,169.58 103,154.17 104,185 105,123.33 106,200.42 107,200.42 108,231.25 109,123.33 110,107.92 111,138.75 112,123.33 113,200.42 114,292.92 115,200.42 116,123.33 117,138.75 118,107.92 119,169.58 120,200.42 121,123.33 122,154.17 123,138.75 124,138.75 125,123.33 126,138.75 127,138.75 128,169.58 129,169.58 130,215.83 130.72,370"><title>LR761634.1</title></polygon><rect class="average" height="1" width="130.72" x="0" y="164.68"><title>average:13.32</title></rect><rect class="median" height="1" width="130.72" x="0" y="169.58"><title>median:13</title></rect><text class="chromName" x="65.36" y="-12">LR761634.1<title>LR761634.1 55,785,328 bp</title></text><rect class="frame" height="370" width="130.72" x="0" y="0"/></g><g id="chrom-LR761635.1" transform="translate(141.71753661284166,0)"><polygon class="cov1" points="0,370 0,339.17 1,354.58 2,323.75 3,215.83 4,339.17 5,339.17 6,215.83 7,308.33 8,308.33 9,154.17 10,154.17 11,246.67 12,169.58 13,154.17 14,246.67 15,292.92 16,323.75 17,215.83 18,277.5 19,246.67 20,292.92 21,277.5 22,246.67 23,277.5 24,354.58 25,323.75 27,323.75 28,308.33 29,354.58 30,339.17 31,323.75 32,262.08 33,200.42 34,215.83 35,262.08 36,246.67 37,308.33 38,354.58 39,185 40,215.83 41,262.08 42,169.58 43,215.83 44,92.5 45,154.17 46,200.42 47,138.75 48,215.83 49,154.17 50,185 51,246.67 52,200.42 53,246.67 54,262.08 55,231.25 56,246.67 57,246.67 58,154.17 59,292.92 60,308.33 61,262.08 62,138.75 63,231.25 64,231.25 65,215.83 66,292.92 67,246.67 68,262.08 69,292.92 70,308.33 71,169.58 72,231.25 73,215.83 74,185 75,169.58 76,262.08 77,0 78,200.42 79,231.25 80,123.33 81,231.25 82,246.67 84,246.67 85,262.08 86,262.08 87,277.5 88,262.08 89,277.5 90,246.67 91,339.17 92,339.17 93,292.92 95,292.92 96,323.75 97,292.92 98,339.17 99,323.75 100,339.17 101,323.75 102,308.33 103,200.42 104,107.92 105,169.58 106,246.67 107,308.33 108,185 109,215.83 110,277.5 111,200.42 112,292.92 113,339.17 114,308.33 115,231.25 116,246.67 117,231.25 118,169.58 119,185 120,138.75 121,200.42 122,200.42 123,246.67 124,292.92 125,154.17 126,246.67 127,277.5 128,200.42 129,292.92 130,185 131,262.08 132,231.25 133,308.33 134,308.33 135,292.92 136,323.75 137,308.33 138,308.33 139,277.5 140,339.17 141,308.33 142,292.92 143,277.5 144,262.08 145,231.25 146,231.25 147,138.75 148,169.58 149,123.33 150,200.42 151,292.92 152,339.17 153,231.25 154,308.33 155,246.67 156,262.08 157,215.83 158,169.58 159,154.17 160,246.67 161,231.25 162,292.92 163,262.08 164,200.42 165,262.08 166,308.33 167,308.33 168,292.92 169,246.67 170,292.92 171,308.33 171.58,370"><title>LR761635.1</title></polygon><rect class="average" height="1" width="171.58" x="0" y="200.49"><title>average:11</title></rect><rect class="median" height="1" width="171.58" x="0" y="262.08"><title>median:7</title></rect><text class="chromName" x="85.79" y="-12">LR761635.1<title>LR761635.1 73,222,313 bp</title></text><rect class="frame" height="370" width="171.58" x="0" y="0"/></g><g id="chrom-LR761636.1" transform="translate(314.2938403401308,0)"><polygon class="cov0" points="0,370 0,262.08 1,169.58 2,246.67 3,323.75 4,231.25 5,138.75 6,169.58 7,169.58 8,123.33 9,138.75 10,107.92 11,123.33 12,138.75 13,200.42 14,123.33 15,154.17 16,123.33 17,123.33 18,154.17 19,123.33 20,138.75 21,123.33 23,123.33 24,185 25,123.33 26,169.58 27,246.67 28,138.75 29,123.33 30,138.75 31,123.33 32,123.33 33,138.75 34,154.17 35,185 36,138.75 37,185 38,154.17 39,154.17 40,169.58 41,169.58 42,185 43,169.58 44,154.17 45,169.58 46,185 47,154.17 48,215.83 49,185 50,185 51,138.75 52,154.17 53,154.17 54,262.08 55,185 56,169.58 57,138.75 58,169.58 59,138.75 60,185 61,231.25 62,185 63,169.58 64,154.17 65,169.58 66,169.58 67,154.17 68,169.58 69,169.58 70,215.83 71,123.33 72,138.75 73,185 74,169.58 75,169.58 76,308.33 77,231.25 78,231.25 79,262.08 80,246.67 81,154.17 82,231.25 83,169.58 84,138.75 85,154.17 86,277.5 87,154.17 88,154.17 89,215.83 90,154.17 91,123.33 92,185 93,169.58 94,154.17 95,200.42 96,200.42 97,154.17 98,154.17 99,185 100,185 101,154.17 102,169.58 103,123.33 104,154.17 107,154.17 108,138.75 109,154.17 110,154.17 111,169.58 112,169.58 113,154.17 114,138.75 115,138.75 116,154.17 117,154.17 118,185 119,154.17 120,154.17 121,215.83 122,154.17 123,154.17 124,200.42 125,138.75 126,138.75 127,200.42 128,277.5 129,138.75 130,138.75 131,154.17 132,169.58 133,138.75 135,138.75 136,215.83 136.65,370"><title>LR761636.1</title></polygon><rect class="average" height="1" width="136.65" x="0" y="161.28"><title>average:13.54</title></rect><rect class="median" height="1" width="136.65" x="0" y="169.58"><title>median:13</title></rect><text class="chromName" x="68.33" y="-12">LR761636.1<title>LR761636.1 58,319,100 bp</title></text><rect class="frame" height="370" width="136.65" x="0" y="0"/></g><g id="chrom-LR761637.1" transform="translate(451.9485730949149,0)"><polygon class="cov1" points="0,370 0,354.58 1,246.67 2,262.08 3,231.25 4,215.83 5,185 6,231.25 7,262.08 8,231.25 9,308.33 10,323.75 11,154.17 12,277.5 13,262.08 14,262.08 15,185 16,215.83 17,123.33 18,292.92 19,292.92 20,200.42 21,169.58 22,154.17 23,215.83 24,323.75 25,154.17 26,138.75 27,215.83 28,215.83 29,231.25 30,262.08 31,138.75 32,154.17 33,154.17 34,138.75 35,200.42 36,246.67 37,262.08 38,169.58 39,154.17 40,154.17 41,292.92 42,231.25 43,277.5 44,308.33 45,215.83 46,154.17 47,154.17 48,138.75 49,154.17 50,200.42 51,154.17 52,123.33 53,185 54,138.75 55,154.17 56,169.58 57,231.25 58,292.92 59,308.33 60,308.33 61,231.25 62,154.17 64,154.17 65,169.58 66,154.17 67,169.58 68,200.42 69,138.75 70,169.58 71,169.58 72,200.42 73,154.17 74,185 75,185 76,154.17 77,169.58 78,185 79,215.83 80,169.58 81,169.58 82,154.17 83,154.17 84,169.58 85,138.75 86,231.25 87,169.58 88,154.17 89,154.17 90,138.75 91,154.17 92,138.75 93,169.58 94,185 95,231.25 96,200.42 97,138.75 98,107.92 99,138.75 100,169.58 101,200.42 102,185 103,200.42 104,215.83 105,292.92 106,107.92 108,107.92 109,123.33 110,92.5 111,138.75 112,107.92 113,107.92 114,308.33 115,169.58 116,169.58 117,154.17 118,123.33 119,323.75 120,154.17 121,123.33 122,246.67 123,185 124,154.17 124.49,370"><title>LR761637.1</title></polygon><rect class="average" height="1" width="124.49" x="0" y="174.97"><title>average:12.65</title></rect><rect class="median" height="1" width="124.49" x="0" y="185"><title>median:12</title></rect><text class="chromName" x="62.25" y="-12">LR761637.1<title>LR761637.1 53,127,865 bp</title></text><rect class="frame" height="370" width="124.49" x="0" y="0"/></g><g id="chrom-LR761638.1" transform="translate(577.4390778079033,0)"><polygon class="cov0" points="0,370 0,246.67 1,215.83 2,323.75 3,138.75 4,231.25 5,138.75 6,215.83 7,185 8,169.58 9,123.33 10,154.17 11,277.5 12,123.33 13,169.58 14,107.92 15,154.17 16,123.33 17,123.33 18,246.67 19,308.33 20,154.17 21,215.83 22,138.75 23,138.75 24,123.33 25,169.58 26,354.58 27,123.33 28,185 29,277.5 30,246.67 31,154.17 32,370 33,354.58 34,185 35,246.67 36,169.58 37,277.5 38,292.92 39,339.17 40,339.17 41,323.75 42,262.08 43,138.75 44,154.17 45,323.75 46,185 47,107.92 48,123.33 49,215.83 50,354.58 51,246.67 52,200.42 53,154.17 54,246.67 55,215.83 56,154.17 57,215.83 58,154.17 59,185 60,231.25 61,215.83 62,169.58 63,323.75 65,323.75 66,200.42 67,200.42 68,169.58 69,277.5 70,185 71,354.58 72,354.58 73,292.92 74,262.08 75,339.17 76,339.17 77,185 78,308.33 79,308.33 80,277.5 81,169.58 82,323.75 83,323.75 84,308.33 85,215.83 86,154.17 87,169.58 88,308.33 89,138.75 90,277.5 91,154.17 92,107.92 93,138.75 94,154.17 95,231.25 96,308.33 97,154.17 98,323.75 99,215.83 100,215.83 101,169.58 102,262.08 103,185 104,292.92 105,308.33 106,231.25 107,185 108,231.25 109,185 110,215.83 111,185 112,308.33 113,231.25 114,262.08 115,262.08 116,323.75 117,308.33 118,308.33 119,292.92 120,262.08 121,354.58 122,354.58 123,370 124,277.5 125,308.33 126,323.75 127,262.08 128,370 129,277.5 130,323.75 131,277.5 132,262.08 133,339.17 134,277.5 135,308.33 136,154.17 137,370 138,354.58 139,277.5 140,370 141,370 142,308.33 143,277.5 144,154.17 145,200.42 146,292.92 147,138.75 148,154.17 149,154.17 150,200.42 151,308.33 152,154.17 153,169.58 154,246.67 155,308.33 156,200.42 157,292.92 158,308.33 159,323.75 160,339.17 161,292.92 162,277.5 163,231.25 164,277.5 165,354.58 166,339.17 167,354.58 168,354.58 169,231.25 170,354.58 171,339.17 172,354.58 172.35,370"><title>LR761638.1</title></polygon><rect class="average" height="1" width="172.35" x="0" y="211.2"><title>average:10.3</title></rect><rect class="median" height="1" width="172.35" x="0" y="246.67"><title>median:8</title></rect><text class="chromName" x="86.17" y="-12">LR761638.1<title>LR761638.1 73,550,375 bp</title></text><rect class="frame" height="370" width="172.35" x="0" y="0"/></g><g id="chrom-LR761639.1" transform="translate(750.784104388203,0)"><polygon class="cov1" points="0,370 0,323.75 1,154.17 2,123.33 3,262.08 4,169.58 5,231.25 6,354.58 7,277.5 8,154.17 9,138.75 10,169.58 11,277.5 12,215.83 13,138.75 14,169.58 15,138.75 16,154.17 17,138.75 21,138.75 22,169.58 23,169.58 24,200.42 25,215.83 26,185 27,262.08 28,354.58 29,262.08 30,277.5 31,138.75 32,154.17 33,123.33 34,200.42 35,200.42 36,246.67 37,138.75 38,138.75 39,154.17 40,262.08 41,154.17 42,154.17 43,123.33 44,154.17 45,138.75 46,185 47,154.17 48,154.17 49,185 50,185 51,154.17 52,200.42 53,169.58 54,169.58 55,154.17 56,154.17 57,169.58 58,154.17 62,154.17 63,169.58 64,138.75 65,154.17 66,185 67,169.58 68,154.17 69,215.83 70,169.58 72,169.58 73,154.17 74,246.67 75,154.17 76,154.17 77,169.58 78,154.17 79,154.17 80,185 81,154.17 82,154.17 83,169.58 84,215.83 85,169.58 86,138.75 87,154.17 88,138.75 90,138.75 91,169.58 92,154.17 93,185 94,169.58 95,154.17 96,169.58 97,138.75 98,138.75 99,154.17 101,154.17 102,169.58 103,154.17 104,138.75 105,138.75 106,262.08 107,154.17 108,138.75 109,154.17 110,138.75 111,339.17 112,185 113,138.75 114,200.42 115,138.75 116,169.58 117,154.17 118,154.17 119,138.75 120,169.58 121,123.33 122,138.75 123,138.75 124,169.58 125,138.75 126,123.33 127,138.75 128,138.75 129,123.33 130,169.58 131,169.58 132,185 133,354.58 134,123.33 135,154.17 136,138.75 137,154.17 138,200.42 139,154.17 140,215.83 140.95,370"><title>LR761639.1</title></polygon><rect class="average" height="1" width="140.95" x="0" y="165.16"><title>average:13.29</title></rect><rect class="median" height="1" width="140.95" x="0" y="169.58"><title>median:13</title></rect><text class="chromName" x="70.47" y="-12">LR761639.1<title>LR761639.1 60,151,564 bp</title></text><rect class="frame" height="370" width="140.95" x="0" y="0"/></g><g id="chrom-LR761640.1" transform="translate(892.7327113317651,0)"><polygon class="cov0" points="0,370 0,185 1,107.92 2,200.42 3,169.58 4,169.58 5,123.33 6,200.42 7,200.42 8,123.33 9,138.75 11,138.75 12,123.33 13,262.08 14,185 15,154.17 16,231.25 17,154.17 18,138.75 19,200.42 20,138.75 21,154.17 22,154.17 23,138.75 24,169.58 25,185 26,138.75 27,154.17 28,169.58 29,154.17 33,154.17 34,169.58 35,154.17 36,154.17 37,215.83 38,138.75 39,185 40,123.33 41,138.75 44,138.75 45,169.58 46,169.58 47,262.08 48,339.17 49,138.75 50,185 51,154.17 52,138.75 53,154.17 54,138.75 55,154.17 56,138.75 57,231.25 58,169.58 59,185 60,246.67 61,154.17 62,169.58 63,200.42 64,154.17 65,292.92 66,154.17 67,169.58 68,169.58 69,200.42 70,200.42 71,154.17 72,185 73,231.25 74,200.42 75,169.58 76,154.17 77,246.67 78,154.17 79,185 80,123.33 81,107.92 82,123.33 83,154.17 84,154.17 85,138.75 86,354.58 87,169.58 88,185 89,185 90,169.58 91,246.67 92,246.67 93,200.42 94,200.42 95,169.58 96,169.58 97,154.17 98,169.58 99,154.17 100,138.75 101,185 102,339.17 103,246.67 104,154.17 105,138.75 106,154.17 107,185 108,215.83 109,154.17 110,185 111,215.83 112,169.58 113,169.58 114,200.42 115,154.17 116,308.33 117,339.17 118,354.58 119,308.33 120,169.58 121,138.75 122,154.17 124,154.17 125,138.75 126,154.17 127,154.17 128,262.08 129,169.58 130,154.17 132,154.17 133,138.75 134,138.75 135,123.33 136,154.17 138,154.17 139,185 140,169.58 141,138.75 142,154.17 143,231.25 144,138.75 145,123.33 145.53,370"><title>LR761640.1</title></polygon><rect class="average" height="1" width="145.53" x="0" y="168.01"><title>average:13.1</title></rect><rect class="median" height="1" width="145.53" x="0" y="169.58"><title>median:13</title></rect><text class="chromName" x="72.77" y="-12">LR761640.1<title>LR761640.1 62,107,823 bp</title></text><rect class="frame" height="370" width="145.53" x="0" y="0"/></g><g id="chrom-LR761641.1" transform="translate(1039.265271917344,0)"><polygon class="cov1" points="0,370 0,292.92 1,154.17 2,246.67 3,200.42 4,154.17 5,231.25 6,292.92 7,231.25 8,246.67 9,185 10,123.33 11,215.83 12,231.25 13,123.33 14,200.42 15,123.33 16,123.33 17,308.33 18,138.75 19,138.75 20,154.17 21,169.58 22,215.83 23,154.17 24,169.58 25,154.17 26,215.83 27,200.42 28,215.83 29,246.67 30,215.83 31,185 32,231.25 33,215.83 34,308.33 35,277.5 36,323.75 37,262.08 38,246.67 39,231.25 40,185 41,231.25 42,262.08 43,277.5 44,185 45,246.67 46,308.33 47,185 48,185 49,154.17 50,185 51,169.58 52,138.75 53,123.33 55,123.33 56,138.75 57,185 58,200.42 59,185 60,154.17 61,231.25 62,169.58 63,200.42 64,215.83 65,185 66,200.42 67,215.83 68,262.08 69,169.58 70,200.42 71,123.33 72,185 73,308.33 74,215.83 75,308.33 76,215.83 77,200.42 78,154.17 79,200.42 80,262.08 81,339.17 82,323.75 83,323.75 84,200.42 85,169.58 86,277.5 87,123.33 88,215.83 89,185 90,292.92 91,231.25 92,123.33 93,262.08 94,277.5 95,185 96,185 97,354.58 98,138.75 99,370 100,277.5 101,123.33 102,169.58 103,107.92 104,185 105,138.75 106,277.5 107,138.75 110,138.75 111,292.92 112,154.17 113,215.83 114,123.33 116,123.33 117,169.58 118,138.75 119,200.42 120,215.83 121,169.58 122,169.58 123,246.67 124,154.17 125,231.25 126,277.5 127,123.33 128,246.67 129,169.58 130,277.5 131,246.67 132,323.75 133,292.92 134,154.17 135,354.58 136,308.33 136.99,370"><title>LR761641.1</title></polygon><rect class="average" height="1" width="136.99" x="0" y="181.12"><title>average:12.25</title></rect><rect class="median" height="1" width="136.99" x="0" y="200.42"><title>median:11</title></rect><text class="chromName" x="68.5" y="-12">LR761641.1<title>LR761641.1 58,462,999 bp</title></text><rect class="frame" height="370" width="136.99" x="0" y="0"/></g><g id="chrom-LR761642.1" transform="translate(1177.25719230686,0)"><polygon class="cov0" points="0,370 0,308.33 1,323.75 2,339.17 3,262.08 4,323.75 5,323.75 6,308.33 7,323.75 8,292.92 10,292.92 11,246.67 12,262.08 13,138.75 14,200.42 15,215.83 16,277.5 17,262.08 18,277.5 19,262.08 20,215.83 21,169.58 22,277.5 23,277.5 24,169.58 25,138.75 26,169.58 27,154.17 28,215.83 29,154.17 30,215.83 31,138.75 32,154.17 33,215.83 34,154.17 35,292.92 36,138.75 37,169.58 38,123.33 39,185 40,154.17 41,185 42,138.75 43,154.17 44,154.17 45,231.25 46,154.17 47,262.08 48,215.83 49,308.33 50,200.42 51,200.42 52,231.25 53,123.33 54,138.75 55,215.83 56,169.58 57,231.25 58,231.25 59,169.58 60,154.17 61,323.75 62,200.42 63,169.58 64,200.42 65,154.17 66,185 67,323.75 68,215.83 69,169.58 70,200.42 71,262.08 72,138.75 73,215.83 74,138.75 75,185 76,308.33 77,169.58 78,138.75 79,246.67 80,231.25 81,185 82,323.75 83,246.67 84,308.33 85,262.08 86,308.33 86.91,370"><title>LR761642.1</title></polygon><rect class="average" height="1" width="86.91" x="0" y="185.13"><title>average:11.99</title></rect><rect class="median" height="1" width="86.91" x="0" y="215.83"><title>median:10</title></rect><text class="chromName" x="43.45" y="-12">LR761642.1<title>LR761642.1 37,089,910 bp</title></text><rect class="frame" height="370" width="86.91" x="0" y="0"/></g><g id="chrom-LR761643.1" transform="translate(1265.1671710093603,0)"><polygon class="cov1" points="0,370 0,323.75 1,277.5 2,169.58 3,123.33 4,154.17 5,231.25 6,185 7,185 8,169.58 9,138.75 10,138.75 11,169.58 12,154.17 13,215.83 14,246.67 15,154.17 16,138.75 17,154.17 18,154.17 19,200.42 20,354.58 21,169.58 22,138.75 23,154.17 24,215.83 25,185 26,354.58 27,339.17 28,323.75 29,154.17 30,200.42 31,169.58 32,231.25 33,154.17 34,154.17 35,215.83 36,262.08 37,154.17 38,169.58 39,154.17 40,169.58 41,185 42,185 43,277.5 44,169.58 45,185 46,154.17 47,246.67 48,185 49,169.58 50,200.42 51,154.17 52,169.58 53,185 54,185 55,154.17 57,154.17 58,200.42 59,154.17 60,138.75 61,154.17 62,185 63,169.58 64,185 65,200.42 66,185 67,185 68,169.58 69,154.17 70,185 71,246.67 72,215.83 73,231.25 74,154.17 75,215.83 76,169.58 77,154.17 78,200.42 79,277.5 80,154.17 81,138.75 82,169.58 83,154.17 84,138.75 85,154.17 86,154.17 87,138.75 88,185 89,354.58 90,169.58 91,138.75 92,138.75 93,169.58 94,138.75 95,169.58 96,138.75 97,154.17 98,138.75 99,138.75 100,154.17 101,231.25 102,154.17 103,154.17 104,185 105,154.17 106,138.75 107,138.75 108,169.58 109,138.75 111,138.75 112,154.17 113,231.25 114,169.58 115,154.17 116,123.33 117,138.75 118,138.75 119,154.17 120,138.75 123,138.75 124,154.17 125,138.75 126,123.33 127,200.42 128,138.75 129,123.33 130,185 131,200.42 132,138.75 133,262.08 134,308.33 134.83,370"><title>LR761643.1</title></polygon><rect class="average" height="1" width="134.83" x="0" y="173.39"><title>average:12.75</title></rect><rect class="median" height="1" width="134.83" x="0" y="169.58"><title>median:13</title></rect><text class="chromName" x="67.42" y="-12">LR761643.1<title>LR761643.1 57,541,580 bp</title></text><rect class="frame" height="370" width="134.83" x="0" y="0"/></g><g><line class="ruler" x1="-2" x2="1390" y1="333" y2="333"><title>2</title></line><text class="ruler" x="-5" y="333">2</text><line class="ruler" x1="-2" x2="1390" y1="296" y2="296"><title>4</title></line><text class="ruler" x="-5" y="296">4</text><line class="ruler" x1="-2" x2="1390" y1="259" y2="259"><title>7</title></line><text class="ruler" x="-5" y="259">7</text><line class="ruler" x1="-2" x2="1390" y1="222" y2="222"><title>9</title></line><text class="ruler" x="-5" y="222">9</text><line class="ruler" x1="-2" x2="1390" y1="185" y2="185"><title>12</title></line><text class="ruler" x="-5" y="185">12</text><line class="ruler" x1="-2" x2="1390" y1="148" y2="148"><title>14</title></line><text class="ruler" x="-5" y="148">14</text><line class="ruler" x1="-2" x2="1390" y1="111" y2="111"><title>16</title></line><text class="ruler" x="-5" y="111">16</text><line class="ruler" x1="-2" x2="1390" y1="74" y2="74"><title>19</title></line><text class="ruler" x="-5" y="74">19</text><line class="ruler" x1="-2" x2="1390" y1="37" y2="37"><title>21</title></line><text class="ruler" x="-5" y="37">21</text><line class="ruler" x1="-2" x2="1390" y1="0" y2="0"><title>24</title></line><text class="ruler" x="-5" y="0">24</text></g></g><text class="title" x="795" y="40">F12_M11_24.merged.realigned.bam F12_M11_24 F12_M11_24_1 F12_M11_24_2<title>./F12_M11_24.merged.realigned.bam</title></text><text class="xLabel" x="795" y="475">GCA_902806645.1_cgigas_uk_roslin_v1_genomic.fna  (589,358,857 bp)<title>../ref/GCA_902806645.1_cgigas_uk_roslin_v1_genomic.fna</title></text><text class="yLabel" transform="translate(25,265) rotate(90)" x="0" y="0">Coverage bp (median)</text></g></svg>