<?xml version="1.0" encoding="UTF-8" standalone="no"?><svg height="500" width="1500" xmlns="http://www.w3.org/2000/svg"><title>F13_M13_14.merged.realigned.bam</title><desc>Made with wgscoverageplotter undefined Author: Pierre Lindenbaum</desc><style>g.maing {stroke:black;stroke-width:0.5px;fill:none;}
text.title {stroke:none;fill:black;stroke-width:1px;text-anchor:middle;}
rect.frame {stroke:darkgray;fill:none;stroke-width:0.5px;}
text.ruler {stroke:none;fill:darkgray;stroke-width:1px;text-anchor:end;}
text.chromName {stroke:none;fill:darkgray;stroke-width:1px;text-anchor:middle;}
text.xLabel {stroke:none;fill:black;stroke-width:1px;text-anchor:middle;}
text.yLabel {stroke:none;fill:black;stroke-width:1px;text-anchor:middle;}
.cov0 {stroke:gray;fill:antiquewhite;stroke-width:0.5px;}
.cov1 {stroke:gray;fill:beige;stroke-width:0.5px;}
rect.average {stroke:green;fill:green;stroke-width:0.5px;opacity:0.3;}
rect.median {stroke:red;fill:red;stroke-width:0.5px;opacity:0.3;}
line.ruler {stroke:darkgray;stroke-dasharray:4;fill:none;stroke-width:1;}
</style><g class="maing"><g id="chromosomes" transform="translate(100.0,80.0)"><g id="chrom-LR761634.1" transform="translate(10.0,0)"><polygon class="cov0" points="0,370 0,323.75 1,123.33 2,138.75 3,323.75 4,231.25 5,154.17 6,277.5 7,200.42 8,154.17 9,138.75 10,154.17 11,123.33 12,154.17 13,200.42 14,292.92 15,138.75 16,123.33 17,185 18,138.75 19,138.75 20,123.33 21,138.75 22,154.17 23,169.58 24,154.17 25,123.33 26,123.33 27,138.75 31,138.75 32,262.08 33,138.75 34,154.17 35,154.17 36,123.33 37,185 38,215.83 39,154.17 40,138.75 42,138.75 43,169.58 44,169.58 45,231.25 46,185 47,154.17 48,138.75 49,154.17 51,154.17 52,123.33 53,138.75 54,277.5 55,339.17 56,123.33 57,107.92 58,138.75 59,154.17 60,154.17 61,123.33 62,169.58 63,185 64,169.58 65,169.58 66,154.17 67,185 68,138.75 69,200.42 70,138.75 71,123.33 72,215.83 73,185 74,154.17 75,138.75 76,138.75 77,185 78,169.58 79,138.75 80,262.08 81,262.08 82,123.33 83,138.75 84,154.17 85,138.75 86,123.33 87,200.42 88,123.33 89,277.5 90,169.58 91,138.75 92,138.75 93,169.58 94,107.92 95,123.33 96,123.33 97,185 98,292.92 99,138.75 100,123.33 101,169.58 102,154.17 103,169.58 104,185 105,123.33 106,200.42 107,185 108,262.08 109,107.92 110,107.92 111,123.33 112,123.33 113,185 114,292.92 115,185 116,107.92 117,123.33 118,92.5 119,169.58 120,215.83 121,123.33 123,123.33 124,138.75 125,107.92 126,123.33 127,138.75 128,185 129,154.17 130,169.58 130.72,370"><title>LR761634.1</title></polygon><rect class="average" height="1" width="130.72" x="0" y="156.94"><title>average:13.82</title></rect><rect class="median" height="1" width="130.72" x="0" y="154.17"><title>median:14</title></rect><text class="chromName" x="65.36" y="-12">LR761634.1<title>LR761634.1 55,785,328 bp</title></text><rect class="frame" height="370" width="130.72" x="0" y="0"/></g><g id="chrom-LR761635.1" transform="translate(141.71753661284166,0)"><polygon class="cov1" points="0,370 0,339.17 1,354.58 2,308.33 3,262.08 4,354.58 5,339.17 6,231.25 7,308.33 8,308.33 9,246.67 10,231.25 11,292.92 12,277.5 13,138.75 14,215.83 15,231.25 16,292.92 17,200.42 18,262.08 19,231.25 20,339.17 21,262.08 22,262.08 23,246.67 24,354.58 25,339.17 26,354.58 27,323.75 28,323.75 29,354.58 30,339.17 31,323.75 32,277.5 33,185 34,169.58 35,262.08 36,231.25 37,292.92 38,323.75 39,169.58 40,185 41,215.83 42,169.58 43,200.42 44,138.75 45,154.17 46,200.42 47,123.33 48,154.17 49,138.75 50,154.17 51,185 52,154.17 53,292.92 54,308.33 55,200.42 56,200.42 57,215.83 58,138.75 59,292.92 60,292.92 61,262.08 62,138.75 63,215.83 64,215.83 65,185 66,308.33 67,262.08 68,262.08 69,292.92 70,277.5 71,185 72,185 73,215.83 74,215.83 75,169.58 76,262.08 77,0 78,215.83 79,215.83 80,107.92 81,215.83 82,215.83 83,246.67 84,262.08 85,246.67 86,262.08 87,277.5 88,262.08 89,277.5 90,231.25 91,323.75 92,339.17 93,323.75 94,308.33 95,292.92 96,292.92 97,277.5 98,308.33 99,308.33 100,339.17 101,308.33 102,323.75 103,169.58 104,61.67 105,154.17 106,231.25 107,277.5 108,200.42 109,215.83 110,308.33 111,185 112,292.92 113,339.17 114,308.33 115,246.67 116,246.67 117,231.25 118,169.58 119,169.58 120,138.75 121,185 122,185 123,246.67 124,277.5 125,138.75 126,246.67 127,292.92 128,185 129,246.67 130,169.58 131,292.92 132,200.42 133,292.92 134,308.33 135,277.5 136,323.75 137,308.33 138,308.33 139,277.5 140,339.17 141,308.33 142,308.33 143,292.92 144,277.5 145,215.83 146,246.67 147,154.17 148,154.17 149,107.92 150,215.83 151,262.08 152,339.17 153,231.25 154,292.92 155,262.08 156,262.08 157,215.83 158,200.42 159,154.17 160,262.08 161,231.25 162,215.83 163,231.25 164,215.83 165,246.67 166,308.33 167,323.75 168,308.33 169,262.08 170,277.5 171,323.75 171.58,370"><title>LR761635.1</title></polygon><rect class="average" height="1" width="171.58" x="0" y="195.86"><title>average:11.3</title></rect><rect class="median" height="1" width="171.58" x="0" y="246.67"><title>median:8</title></rect><text class="chromName" x="85.79" y="-12">LR761635.1<title>LR761635.1 73,222,313 bp</title></text><rect class="frame" height="370" width="171.58" x="0" y="0"/></g><g id="chrom-LR761636.1" transform="translate(314.2938403401308,0)"><polygon class="cov0" points="0,370 0,339.17 1,138.75 2,262.08 3,323.75 4,231.25 5,138.75 6,154.17 7,138.75 8,107.92 9,138.75 10,92.5 11,107.92 12,123.33 13,169.58 14,107.92 15,138.75 16,107.92 17,107.92 18,138.75 19,123.33 20,123.33 21,107.92 22,123.33 23,123.33 24,185 25,107.92 26,154.17 27,246.67 28,123.33 29,107.92 30,123.33 33,123.33 34,138.75 35,154.17 36,123.33 37,169.58 38,154.17 39,138.75 40,169.58 42,169.58 43,154.17 44,138.75 45,169.58 46,169.58 47,138.75 48,200.42 49,169.58 50,169.58 51,123.33 52,138.75 53,138.75 54,215.83 55,169.58 56,154.17 57,123.33 58,154.17 59,138.75 60,169.58 61,215.83 62,169.58 63,138.75 64,138.75 65,169.58 66,154.17 67,154.17 68,169.58 69,154.17 70,200.42 71,123.33 72,123.33 73,169.58 74,169.58 75,154.17 76,323.75 77,215.83 78,231.25 79,262.08 80,262.08 81,154.17 82,231.25 83,138.75 84,123.33 85,154.17 86,277.5 87,169.58 88,138.75 89,200.42 90,154.17 91,123.33 92,215.83 93,138.75 94,138.75 95,169.58 96,185 97,138.75 98,138.75 99,154.17 100,169.58 101,123.33 102,154.17 103,123.33 104,138.75 107,138.75 108,123.33 109,138.75 110,138.75 111,169.58 112,154.17 113,169.58 114,138.75 115,123.33 116,138.75 117,138.75 118,169.58 119,138.75 120,138.75 121,215.83 122,138.75 123,123.33 124,185 125,123.33 126,123.33 127,200.42 128,277.5 129,123.33 130,138.75 133,138.75 134,107.92 135,123.33 136,262.08 136.65,370"><title>LR761636.1</title></polygon><rect class="average" height="1" width="136.65" x="0" y="152.69"><title>average:14.1</title></rect><rect class="median" height="1" width="136.65" x="0" y="154.17"><title>median:14</title></rect><text class="chromName" x="68.33" y="-12">LR761636.1<title>LR761636.1 58,319,100 bp</title></text><rect class="frame" height="370" width="136.65" x="0" y="0"/></g><g id="chrom-LR761637.1" transform="translate(451.9485730949149,0)"><polygon class="cov1" points="0,370 0,354.58 1,262.08 2,277.5 3,262.08 4,215.83 5,169.58 6,185 7,246.67 8,215.83 9,292.92 10,323.75 11,138.75 12,277.5 13,262.08 14,262.08 15,169.58 16,215.83 17,107.92 18,292.92 19,308.33 20,215.83 21,154.17 22,138.75 23,215.83 24,323.75 25,154.17 26,138.75 27,231.25 28,200.42 29,215.83 30,246.67 31,123.33 32,154.17 33,169.58 34,138.75 35,185 36,231.25 37,231.25 38,154.17 39,138.75 40,154.17 41,323.75 42,262.08 43,277.5 44,308.33 45,185 46,154.17 47,138.75 49,138.75 50,185 51,138.75 52,107.92 53,185 54,123.33 55,138.75 56,154.17 57,231.25 58,277.5 59,323.75 60,323.75 61,231.25 62,138.75 64,138.75 65,154.17 66,154.17 67,169.58 68,185 69,138.75 70,154.17 71,154.17 72,185 73,138.75 74,185 75,154.17 76,138.75 77,154.17 78,169.58 79,185 80,169.58 81,154.17 82,138.75 83,138.75 84,154.17 85,123.33 86,231.25 87,169.58 88,138.75 89,154.17 90,123.33 91,138.75 92,123.33 93,185 94,200.42 95,215.83 96,185 97,138.75 98,107.92 99,123.33 100,200.42 101,231.25 102,231.25 103,246.67 104,246.67 105,231.25 106,107.92 108,107.92 109,123.33 110,92.5 111,138.75 112,123.33 113,107.92 114,292.92 115,169.58 117,169.58 118,123.33 119,308.33 120,169.58 121,107.92 122,292.92 123,231.25 124,246.67 124.49,370"><title>LR761637.1</title></polygon><rect class="average" height="1" width="124.49" x="0" y="170.69"><title>average:12.93</title></rect><rect class="median" height="1" width="124.49" x="0" y="185"><title>median:12</title></rect><text class="chromName" x="62.25" y="-12">LR761637.1<title>LR761637.1 53,127,865 bp</title></text><rect class="frame" height="370" width="124.49" x="0" y="0"/></g><g id="chrom-LR761638.1" transform="translate(577.4390778079033,0)"><polygon class="cov0" points="0,370 0,215.83 1,154.17 2,308.33 3,123.33 4,215.83 5,138.75 6,200.42 7,185 8,185 9,107.92 10,154.17 11,277.5 12,123.33 13,154.17 14,107.92 15,154.17 16,138.75 17,123.33 18,262.08 19,308.33 20,123.33 21,200.42 22,138.75 23,123.33 24,123.33 25,154.17 26,354.58 27,107.92 28,185 29,292.92 30,246.67 31,154.17 32,354.58 33,354.58 34,185 35,215.83 36,154.17 37,308.33 38,292.92 39,323.75 40,339.17 41,323.75 42,246.67 43,123.33 44,138.75 45,292.92 46,154.17 47,92.5 48,107.92 49,154.17 50,231.25 51,169.58 52,138.75 53,123.33 54,200.42 55,154.17 56,154.17 57,200.42 58,123.33 59,185 60,215.83 61,231.25 62,154.17 63,339.17 64,323.75 65,292.92 66,154.17 67,200.42 68,154.17 69,231.25 70,185 71,339.17 72,354.58 73,308.33 74,262.08 75,339.17 76,339.17 77,185 78,308.33 79,292.92 80,277.5 81,154.17 82,339.17 83,277.5 84,262.08 85,200.42 86,154.17 87,169.58 88,308.33 89,138.75 90,277.5 91,154.17 92,107.92 93,123.33 94,138.75 95,200.42 96,323.75 97,169.58 98,277.5 99,200.42 100,200.42 101,169.58 102,277.5 103,185 104,292.92 105,308.33 106,231.25 107,185 108,231.25 109,185 110,215.83 111,169.58 112,308.33 113,246.67 114,308.33 115,277.5 116,323.75 117,339.17 118,292.92 119,308.33 120,308.33 121,354.58 122,354.58 123,370 124,262.08 125,308.33 126,323.75 127,246.67 128,370 129,292.92 130,323.75 131,262.08 132,308.33 133,354.58 134,308.33 135,323.75 136,138.75 137,370 138,354.58 139,292.92 140,370 141,370 142,354.58 143,200.42 144,138.75 145,185 146,308.33 147,123.33 148,138.75 149,154.17 150,200.42 151,339.17 152,169.58 153,154.17 154,246.67 155,292.92 156,200.42 157,323.75 158,323.75 159,308.33 160,354.58 161,292.92 162,277.5 163,169.58 164,231.25 165,370 166,354.58 167,370 168,370 169,231.25 170,354.58 171,354.58 172,339.17 172.35,370"><title>LR761638.1</title></polygon><rect class="average" height="1" width="172.35" x="0" y="202.32"><title>average:10.88</title></rect><rect class="median" height="1" width="172.35" x="0" y="246.67"><title>median:8</title></rect><text class="chromName" x="86.17" y="-12">LR761638.1<title>LR761638.1 73,550,375 bp</title></text><rect class="frame" height="370" width="172.35" x="0" y="0"/></g><g id="chrom-LR761639.1" transform="translate(750.784104388203,0)"><polygon class="cov1" points="0,370 0,323.75 1,123.33 2,107.92 3,262.08 4,154.17 5,215.83 6,354.58 7,262.08 8,138.75 9,123.33 10,169.58 11,277.5 12,231.25 13,123.33 14,154.17 15,138.75 16,123.33 17,138.75 19,138.75 20,123.33 21,138.75 22,169.58 24,169.58 25,200.42 26,185 27,292.92 28,354.58 29,246.67 30,323.75 31,138.75 32,123.33 33,123.33 34,200.42 35,200.42 36,246.67 37,138.75 39,138.75 40,231.25 41,138.75 42,138.75 43,107.92 44,154.17 45,123.33 46,169.58 47,154.17 48,138.75 49,154.17 50,154.17 51,138.75 52,185 53,154.17 54,169.58 55,138.75 56,138.75 57,154.17 58,154.17 59,138.75 60,154.17 61,138.75 62,138.75 63,169.58 64,123.33 65,138.75 66,169.58 67,154.17 68,138.75 69,200.42 70,154.17 72,154.17 73,138.75 74,231.25 75,138.75 76,154.17 77,154.17 78,138.75 79,138.75 80,169.58 81,138.75 82,138.75 83,154.17 84,215.83 85,154.17 86,138.75 87,154.17 88,123.33 89,138.75 90,123.33 91,154.17 92,138.75 93,169.58 94,169.58 95,138.75 96,154.17 97,123.33 98,123.33 99,138.75 103,138.75 104,123.33 105,138.75 106,262.08 107,138.75 108,107.92 109,138.75 110,138.75 111,323.75 112,169.58 113,123.33 114,185 115,123.33 116,154.17 117,138.75 118,138.75 119,123.33 120,154.17 121,123.33 123,123.33 124,169.58 125,123.33 128,123.33 129,107.92 130,200.42 131,138.75 132,169.58 133,354.58 134,107.92 135,138.75 136,138.75 137,154.17 138,200.42 139,169.58 140,308.33 140.95,370"><title>LR761639.1</title></polygon><rect class="average" height="1" width="140.95" x="0" y="156.89"><title>average:13.82</title></rect><rect class="median" height="1" width="140.95" x="0" y="154.17"><title>median:14</title></rect><text class="chromName" x="70.47" y="-12">LR761639.1<title>LR761639.1 60,151,564 bp</title></text><rect class="frame" height="370" width="140.95" x="0" y="0"/></g><g id="chrom-LR761640.1" transform="translate(892.7327113317651,0)"><polygon class="cov0" points="0,370 0,154.17 1,92.5 2,185 3,169.58 4,154.17 5,107.92 6,169.58 7,185 8,123.33 9,138.75 10,123.33 12,123.33 13,262.08 14,154.17 15,138.75 16,231.25 17,138.75 18,123.33 19,185 20,123.33 21,154.17 22,123.33 23,123.33 24,154.17 25,169.58 26,123.33 27,138.75 28,154.17 29,138.75 33,138.75 34,154.17 35,138.75 36,138.75 37,200.42 38,123.33 39,169.58 40,123.33 41,138.75 42,123.33 44,123.33 45,138.75 46,169.58 47,246.67 48,339.17 49,123.33 50,154.17 51,138.75 52,123.33 53,154.17 54,123.33 55,138.75 56,123.33 57,215.83 58,154.17 59,185 60,246.67 61,138.75 62,138.75 63,200.42 64,138.75 65,308.33 66,138.75 67,154.17 68,154.17 69,185 70,185 71,154.17 72,185 73,231.25 74,185 75,138.75 76,138.75 77,231.25 78,138.75 79,169.58 80,107.92 82,107.92 83,138.75 84,138.75 85,123.33 86,354.58 87,154.17 88,169.58 89,169.58 90,154.17 91,231.25 92,262.08 93,185 94,215.83 95,154.17 96,154.17 97,138.75 98,154.17 99,138.75 100,123.33 101,215.83 102,292.92 103,215.83 104,138.75 105,123.33 106,154.17 107,169.58 108,200.42 109,138.75 110,169.58 111,200.42 112,154.17 113,154.17 114,185 115,123.33 116,292.92 117,339.17 118,354.58 119,323.75 120,154.17 121,123.33 122,138.75 123,138.75 124,154.17 125,138.75 127,138.75 128,262.08 129,154.17 130,138.75 131,138.75 132,154.17 133,138.75 134,123.33 135,107.92 136,138.75 138,138.75 139,185 140,154.17 141,123.33 142,154.17 143,231.25 144,123.33 145,123.33 145.53,370"><title>LR761640.1</title></polygon><rect class="average" height="1" width="145.53" x="0" y="158.31"><title>average:13.73</title></rect><rect class="median" height="1" width="145.53" x="0" y="154.17"><title>median:14</title></rect><text class="chromName" x="72.77" y="-12">LR761640.1<title>LR761640.1 62,107,823 bp</title></text><rect class="frame" height="370" width="145.53" x="0" y="0"/></g><g id="chrom-LR761641.1" transform="translate(1039.265271917344,0)"><polygon class="cov1" points="0,370 0,292.92 1,169.58 2,246.67 3,215.83 4,185 5,200.42 6,308.33 7,246.67 8,200.42 9,169.58 10,123.33 11,231.25 12,231.25 13,123.33 14,200.42 15,138.75 16,123.33 17,246.67 18,123.33 20,123.33 21,138.75 22,231.25 23,154.17 24,169.58 25,154.17 26,231.25 27,215.83 28,231.25 29,292.92 30,246.67 31,185 32,277.5 33,246.67 34,308.33 35,262.08 36,308.33 37,231.25 38,262.08 39,262.08 40,169.58 41,231.25 42,323.75 43,323.75 44,215.83 45,215.83 46,277.5 47,246.67 48,246.67 49,154.17 50,185 51,154.17 52,138.75 53,123.33 54,138.75 55,123.33 56,123.33 57,169.58 58,185 59,169.58 60,138.75 61,215.83 62,154.17 63,185 64,185 65,169.58 66,215.83 67,231.25 68,262.08 69,154.17 70,215.83 71,123.33 72,200.42 73,308.33 74,215.83 75,308.33 76,185 77,154.17 78,154.17 79,215.83 80,262.08 81,339.17 82,308.33 83,323.75 84,185 85,154.17 86,262.08 87,107.92 88,215.83 89,185 90,246.67 91,215.83 92,123.33 93,246.67 94,308.33 95,200.42 96,185 97,354.58 98,138.75 99,370 100,308.33 101,107.92 102,154.17 103,107.92 104,185 105,123.33 106,246.67 107,123.33 108,138.75 110,138.75 111,277.5 112,123.33 113,246.67 114,123.33 115,138.75 116,123.33 117,154.17 118,123.33 119,200.42 120,215.83 121,154.17 122,154.17 123,231.25 124,154.17 125,231.25 126,262.08 127,107.92 128,231.25 129,169.58 130,277.5 131,200.42 132,339.17 133,277.5 134,123.33 135,354.58 136,323.75 136.99,370"><title>LR761641.1</title></polygon><rect class="average" height="1" width="136.99" x="0" y="178.9"><title>average:12.4</title></rect><rect class="median" height="1" width="136.99" x="0" y="200.42"><title>median:11</title></rect><text class="chromName" x="68.5" y="-12">LR761641.1<title>LR761641.1 58,462,999 bp</title></text><rect class="frame" height="370" width="136.99" x="0" y="0"/></g><g id="chrom-LR761642.1" transform="translate(1177.25719230686,0)"><polygon class="cov0" points="0,370 0,308.33 2,308.33 3,277.5 4,323.75 5,339.17 6,308.33 7,308.33 8,323.75 9,277.5 10,292.92 11,231.25 12,246.67 13,123.33 14,185 15,185 16,277.5 17,200.42 18,231.25 19,200.42 20,185 21,138.75 22,231.25 23,246.67 24,154.17 25,123.33 26,185 27,185 28,262.08 29,154.17 30,231.25 31,138.75 32,154.17 33,215.83 34,154.17 35,308.33 36,154.17 37,169.58 38,123.33 39,185 40,154.17 41,185 42,138.75 43,154.17 44,154.17 45,231.25 46,154.17 47,277.5 48,200.42 49,308.33 50,200.42 51,200.42 52,231.25 53,123.33 54,138.75 55,231.25 56,169.58 57,231.25 58,231.25 59,169.58 60,154.17 61,339.17 62,200.42 63,185 64,185 65,169.58 66,169.58 67,339.17 68,215.83 69,154.17 70,185 71,215.83 72,154.17 73,215.83 74,138.75 75,185 76,308.33 77,154.17 78,138.75 79,215.83 80,215.83 81,169.58 82,323.75 83,246.67 84,292.92 85,231.25 86,308.33 86.91,370"><title>LR761642.1</title></polygon><rect class="average" height="1" width="86.91" x="0" y="176.9"><title>average:12.53</title></rect><rect class="median" height="1" width="86.91" x="0" y="215.83"><title>median:10</title></rect><text class="chromName" x="43.45" y="-12">LR761642.1<title>LR761642.1 37,089,910 bp</title></text><rect class="frame" height="370" width="86.91" x="0" y="0"/></g><g id="chrom-LR761643.1" transform="translate(1265.1671710093603,0)"><polygon class="cov1" points="0,370 0,339.17 1,277.5 2,169.58 3,123.33 4,138.75 5,231.25 6,169.58 7,169.58 8,154.17 9,123.33 10,138.75 11,169.58 12,138.75 13,200.42 14,246.67 15,154.17 16,123.33 17,138.75 18,154.17 19,169.58 20,354.58 21,154.17 22,123.33 23,138.75 24,215.83 25,169.58 26,354.58 27,323.75 28,262.08 29,138.75 30,200.42 31,154.17 32,231.25 33,154.17 34,154.17 35,231.25 36,231.25 37,138.75 39,138.75 40,154.17 41,169.58 42,185 43,262.08 44,154.17 45,185 46,138.75 47,262.08 48,169.58 49,154.17 50,200.42 51,138.75 52,154.17 53,185 54,169.58 55,154.17 56,138.75 57,138.75 58,169.58 59,138.75 61,138.75 62,169.58 63,154.17 64,169.58 65,185 66,169.58 67,169.58 68,154.17 69,154.17 70,169.58 71,215.83 72,200.42 73,231.25 74,138.75 75,200.42 76,154.17 77,138.75 78,200.42 79,277.5 80,138.75 81,123.33 82,154.17 83,138.75 85,138.75 86,154.17 87,123.33 88,185 89,354.58 90,185 91,123.33 92,123.33 93,154.17 94,123.33 95,154.17 96,123.33 97,138.75 98,123.33 99,123.33 100,138.75 101,231.25 102,138.75 103,154.17 104,154.17 105,138.75 106,138.75 107,123.33 108,154.17 109,123.33 112,123.33 113,231.25 114,154.17 115,138.75 116,107.92 117,123.33 118,123.33 119,154.17 120,123.33 123,123.33 124,138.75 125,123.33 126,107.92 127,185 128,123.33 129,107.92 130,169.58 131,200.42 132,107.92 133,231.25 134,277.5 134.83,370"><title>LR761643.1</title></polygon><rect class="average" height="1" width="134.83" x="0" y="163.32"><title>average:13.41</title></rect><rect class="median" height="1" width="134.83" x="0" y="154.17"><title>median:14</title></rect><text class="chromName" x="67.42" y="-12">LR761643.1<title>LR761643.1 57,541,580 bp</title></text><rect class="frame" height="370" width="134.83" x="0" y="0"/></g><g><line class="ruler" x1="-2" x2="1390" y1="333" y2="333"><title>2</title></line><text class="ruler" x="-5" y="333">2</text><line class="ruler" x1="-2" x2="1390" y1="296" y2="296"><title>4</title></line><text class="ruler" x="-5" y="296">4</text><line class="ruler" x1="-2" x2="1390" y1="259" y2="259"><title>7</title></line><text class="ruler" x="-5" y="259">7</text><line class="ruler" x1="-2" x2="1390" y1="222" y2="222"><title>9</title></line><text class="ruler" x="-5" y="222">9</text><line class="ruler" x1="-2" x2="1390" y1="185" y2="185"><title>12</title></line><text class="ruler" x="-5" y="185">12</text><line class="ruler" x1="-2" x2="1390" y1="148" y2="148"><title>14</title></line><text class="ruler" x="-5" y="148">14</text><line class="ruler" x1="-2" x2="1390" y1="111" y2="111"><title>16</title></line><text class="ruler" x="-5" y="111">16</text><line class="ruler" x1="-2" x2="1390" y1="74" y2="74"><title>19</title></line><text class="ruler" x="-5" y="74">19</text><line class="ruler" x1="-2" x2="1390" y1="37" y2="37"><title>21</title></line><text class="ruler" x="-5" y="37">21</text><line class="ruler" x1="-2" x2="1390" y1="0" y2="0"><title>24</title></line><text class="ruler" x="-5" y="0">24</text></g></g><text class="title" x="795" y="40">F13_M13_14.merged.realigned.bam F13_M13_14 F13_M13_14_1 F13_M13_14_2<title>./F13_M13_14.merged.realigned.bam</title></text><text class="xLabel" x="795" y="475">GCA_902806645.1_cgigas_uk_roslin_v1_genomic.fna  (589,358,857 bp)<title>../ref/GCA_902806645.1_cgigas_uk_roslin_v1_genomic.fna</title></text><text class="yLabel" transform="translate(25,265) rotate(90)" x="0" y="0">Coverage bp (median)</text></g></svg>