<?xml version="1.0" encoding="UTF-8" standalone="no"?><svg height="500" width="1500" xmlns="http://www.w3.org/2000/svg"><title>F13_M14_24.merged.realigned.bam</title><desc>Made with wgscoverageplotter undefined Author: Pierre Lindenbaum</desc><style>g.maing {stroke:black;stroke-width:0.5px;fill:none;}
text.title {stroke:none;fill:black;stroke-width:1px;text-anchor:middle;}
rect.frame {stroke:darkgray;fill:none;stroke-width:0.5px;}
text.ruler {stroke:none;fill:darkgray;stroke-width:1px;text-anchor:end;}
text.chromName {stroke:none;fill:darkgray;stroke-width:1px;text-anchor:middle;}
text.xLabel {stroke:none;fill:black;stroke-width:1px;text-anchor:middle;}
text.yLabel {stroke:none;fill:black;stroke-width:1px;text-anchor:middle;}
.cov0 {stroke:gray;fill:antiquewhite;stroke-width:0.5px;}
.cov1 {stroke:gray;fill:beige;stroke-width:0.5px;}
rect.average {stroke:green;fill:green;stroke-width:0.5px;opacity:0.3;}
rect.median {stroke:red;fill:red;stroke-width:0.5px;opacity:0.3;}
line.ruler {stroke:darkgray;stroke-dasharray:4;fill:none;stroke-width:1;}
</style><g class="maing"><g id="chromosomes" transform="translate(100.0,80.0)"><g id="chrom-LR761634.1" transform="translate(10.0,0)"><polygon class="cov0" points="0,370 0,328.89 1,143.89 2,164.44 3,308.33 4,246.67 5,185 6,277.5 7,195.28 8,164.44 9,143.89 10,164.44 11,133.61 12,164.44 13,205.56 14,298.06 15,143.89 16,143.89 17,154.17 18,154.17 19,143.89 20,133.61 21,143.89 22,164.44 23,185 24,174.72 25,133.61 26,143.89 27,143.89 28,154.17 29,143.89 31,143.89 32,277.5 33,143.89 34,154.17 35,154.17 36,133.61 37,205.56 38,215.83 39,164.44 40,143.89 42,143.89 43,185 44,174.72 45,215.83 46,174.72 47,154.17 48,164.44 49,154.17 50,164.44 51,154.17 52,143.89 53,154.17 54,246.67 55,287.78 56,123.33 57,123.33 58,143.89 59,164.44 60,164.44 61,133.61 62,164.44 63,185 64,205.56 65,174.72 66,164.44 67,195.28 68,143.89 69,215.83 70,143.89 71,133.61 72,226.11 73,185 74,154.17 75,143.89 76,143.89 77,185 78,174.72 79,143.89 80,277.5 81,298.06 82,133.61 83,143.89 84,164.44 85,154.17 86,133.61 87,205.56 88,133.61 89,277.5 90,164.44 91,154.17 92,143.89 93,164.44 94,133.61 95,133.61 96,123.33 97,185 98,277.5 99,154.17 100,154.17 101,205.56 102,164.44 103,164.44 104,185 105,123.33 106,195.28 107,215.83 108,236.39 109,133.61 110,123.33 111,154.17 112,143.89 113,154.17 114,298.06 115,205.56 116,123.33 117,133.61 118,133.61 119,164.44 120,185 121,133.61 122,143.89 124,143.89 125,133.61 126,143.89 127,154.17 128,205.56 129,174.72 130,205.56 130.72,370"><title>LR761634.1</title></polygon><rect class="average" height="1" width="130.72" x="0" y="168.98"><title>average:19.56</title></rect><rect class="median" height="1" width="130.72" x="0" y="164.44"><title>median:20</title></rect><text class="chromName" x="65.36" y="-12">LR761634.1<title>LR761634.1 55,785,328 bp</title></text><rect class="frame" height="370" width="130.72" x="0" y="0"/></g><g id="chrom-LR761635.1" transform="translate(141.71753661284166,0)"><polygon class="cov1" points="0,370 0,349.44 1,349.44 2,339.17 3,267.22 4,328.89 5,328.89 6,236.39 7,308.33 8,339.17 9,164.44 10,123.33 11,246.67 12,102.78 13,154.17 14,215.83 15,287.78 16,318.61 17,226.11 18,277.5 19,226.11 20,298.06 21,308.33 22,287.78 23,226.11 24,287.78 25,308.33 26,287.78 27,318.61 28,287.78 29,349.44 30,328.89 31,308.33 32,256.94 33,215.83 34,195.28 35,256.94 36,256.94 37,308.33 38,328.89 39,185 40,205.56 41,215.83 42,174.72 43,205.56 44,174.72 45,185 46,205.56 47,164.44 48,215.83 49,185 50,205.56 51,277.5 52,215.83 53,267.22 54,318.61 55,226.11 56,267.22 57,277.5 58,195.28 59,308.33 60,370 61,287.78 62,174.72 63,298.06 64,328.89 65,287.78 66,298.06 67,267.22 68,277.5 69,287.78 70,287.78 71,226.11 72,246.67 73,226.11 74,236.39 75,205.56 76,339.17 77,51.39 78,267.22 79,318.61 80,154.17 81,287.78 82,318.61 83,287.78 84,339.17 85,287.78 86,328.89 87,349.44 88,318.61 89,308.33 90,267.22 91,339.17 92,318.61 93,267.22 94,287.78 95,287.78 96,318.61 97,287.78 98,308.33 99,287.78 100,277.5 101,287.78 102,318.61 103,236.39 104,215.83 105,215.83 106,277.5 107,308.33 108,215.83 109,164.44 110,267.22 111,195.28 112,318.61 114,318.61 115,328.89 116,287.78 117,277.5 118,185 119,185 120,154.17 121,174.72 122,246.67 123,246.67 124,277.5 125,143.89 126,215.83 127,195.28 128,164.44 129,215.83 130,174.72 131,298.06 132,226.11 133,308.33 134,318.61 135,298.06 136,308.33 137,318.61 138,318.61 139,277.5 140,349.44 141,298.06 142,298.06 143,287.78 144,287.78 145,246.67 146,256.94 147,143.89 148,174.72 149,154.17 150,236.39 151,277.5 152,339.17 153,246.67 154,287.78 155,256.94 156,308.33 157,308.33 158,256.94 159,185 160,226.11 161,226.11 162,339.17 163,277.5 164,215.83 165,246.67 166,298.06 167,308.33 168,287.78 169,236.39 170,287.78 171,318.61 171.58,370"><title>LR761635.1</title></polygon><rect class="average" height="1" width="171.58" x="0" y="215.67"><title>average:15.02</title></rect><rect class="median" height="1" width="171.58" x="0" y="267.22"><title>median:10</title></rect><text class="chromName" x="85.79" y="-12">LR761635.1<title>LR761635.1 73,222,313 bp</title></text><rect class="frame" height="370" width="171.58" x="0" y="0"/></g><g id="chrom-LR761636.1" transform="translate(314.2938403401308,0)"><polygon class="cov0" points="0,370 0,339.17 1,174.72 2,277.5 3,277.5 4,246.67 5,154.17 6,154.17 7,164.44 8,133.61 9,154.17 10,133.61 11,154.17 12,154.17 13,256.94 14,133.61 15,143.89 16,143.89 17,133.61 18,154.17 19,185 20,143.89 21,143.89 22,133.61 23,143.89 24,205.56 25,143.89 26,226.11 27,287.78 28,133.61 29,143.89 30,133.61 31,123.33 32,123.33 33,133.61 34,154.17 35,205.56 36,143.89 37,185 38,154.17 39,143.89 40,133.61 41,174.72 42,154.17 43,164.44 44,143.89 45,154.17 46,174.72 47,143.89 48,205.56 49,154.17 50,164.44 51,133.61 52,143.89 53,143.89 54,215.83 55,164.44 56,164.44 57,143.89 58,164.44 59,143.89 60,164.44 61,205.56 62,174.72 63,143.89 64,154.17 65,164.44 66,154.17 67,154.17 68,174.72 69,154.17 70,226.11 71,123.33 72,133.61 73,164.44 75,164.44 76,308.33 77,236.39 78,226.11 79,267.22 80,267.22 81,154.17 82,215.83 83,164.44 84,133.61 85,154.17 86,318.61 87,174.72 88,164.44 89,205.56 90,164.44 91,143.89 92,185 93,164.44 94,143.89 95,174.72 96,185 97,143.89 98,143.89 99,185 100,164.44 101,133.61 102,154.17 103,123.33 104,143.89 105,154.17 106,154.17 107,143.89 108,133.61 109,143.89 110,143.89 111,174.72 112,154.17 113,174.72 114,133.61 115,133.61 116,143.89 117,154.17 118,174.72 119,154.17 120,143.89 121,267.22 122,143.89 123,143.89 124,195.28 125,133.61 126,133.61 127,256.94 128,277.5 129,133.61 130,164.44 131,174.72 132,164.44 133,154.17 134,133.61 135,143.89 136,308.33 136.65,370"><title>LR761636.1</title></polygon><rect class="average" height="1" width="136.65" x="0" y="167.33"><title>average:19.72</title></rect><rect class="median" height="1" width="136.65" x="0" y="164.44"><title>median:20</title></rect><text class="chromName" x="68.33" y="-12">LR761636.1<title>LR761636.1 58,319,100 bp</title></text><rect class="frame" height="370" width="136.65" x="0" y="0"/></g><g id="chrom-LR761637.1" transform="translate(451.9485730949149,0)"><polygon class="cov1" points="0,370 0,359.72 1,277.5 3,277.5 4,236.39 5,185 6,267.22 7,256.94 8,226.11 9,287.78 10,339.17 11,154.17 12,236.39 13,298.06 14,308.33 15,174.72 16,226.11 17,133.61 18,298.06 19,318.61 20,215.83 21,205.56 22,174.72 23,205.56 24,349.44 25,185 26,143.89 27,246.67 28,195.28 29,215.83 30,246.67 31,174.72 32,164.44 33,185 34,123.33 35,205.56 36,328.89 37,236.39 38,164.44 39,164.44 40,154.17 41,308.33 42,226.11 43,256.94 44,328.89 45,195.28 46,164.44 47,154.17 48,143.89 49,143.89 50,205.56 51,143.89 52,113.06 53,174.72 54,133.61 55,154.17 56,164.44 57,226.11 58,287.78 59,318.61 60,318.61 61,236.39 62,143.89 63,154.17 64,143.89 65,164.44 66,154.17 67,164.44 68,195.28 69,143.89 70,164.44 71,154.17 72,185 73,154.17 74,185 75,174.72 76,154.17 77,164.44 78,164.44 79,195.28 80,174.72 81,154.17 82,143.89 83,154.17 84,164.44 85,143.89 86,236.39 87,174.72 88,143.89 89,154.17 90,133.61 91,143.89 92,143.89 93,174.72 94,205.56 95,226.11 96,195.28 97,164.44 98,133.61 99,143.89 100,287.78 101,328.89 102,308.33 103,339.17 104,339.17 105,246.67 106,133.61 109,133.61 110,123.33 111,174.72 112,143.89 113,133.61 114,277.5 115,215.83 116,195.28 117,185 118,174.72 119,298.06 120,195.28 121,133.61 122,298.06 123,339.17 124,308.33 124.49,370"><title>LR761637.1</title></polygon><rect class="average" height="1" width="124.49" x="0" y="191.75"><title>average:17.34</title></rect><rect class="median" height="1" width="124.49" x="0" y="195.28"><title>median:17</title></rect><text class="chromName" x="62.25" y="-12">LR761637.1<title>LR761637.1 53,127,865 bp</title></text><rect class="frame" height="370" width="124.49" x="0" y="0"/></g><g id="chrom-LR761638.1" transform="translate(577.4390778079033,0)"><polygon class="cov0" points="0,370 0,226.11 1,143.89 2,318.61 3,143.89 4,185 5,113.06 6,215.83 7,195.28 8,236.39 9,143.89 10,174.72 11,308.33 12,143.89 13,174.72 14,123.33 15,164.44 16,133.61 17,133.61 18,287.78 19,318.61 20,133.61 21,215.83 22,143.89 23,143.89 24,133.61 25,174.72 26,256.94 27,133.61 28,195.28 29,318.61 30,287.78 31,164.44 32,359.72 33,349.44 34,195.28 35,246.67 36,164.44 37,298.06 38,298.06 39,339.17 40,339.17 41,318.61 42,256.94 43,154.17 44,164.44 45,298.06 46,164.44 47,133.61 48,133.61 49,215.83 50,226.11 51,226.11 52,164.44 53,174.72 54,236.39 55,226.11 56,164.44 57,236.39 58,143.89 59,215.83 60,236.39 61,246.67 62,164.44 63,308.33 64,308.33 65,328.89 66,195.28 67,226.11 68,185 69,256.94 70,195.28 71,349.44 72,339.17 73,308.33 74,256.94 75,339.17 76,328.89 77,215.83 78,328.89 79,318.61 80,298.06 81,164.44 82,287.78 83,328.89 84,298.06 85,205.56 86,164.44 87,185 88,318.61 89,143.89 90,298.06 91,164.44 92,113.06 93,133.61 94,164.44 95,236.39 96,287.78 97,133.61 98,267.22 99,185 100,205.56 101,174.72 102,318.61 103,185 104,256.94 105,287.78 106,226.11 107,185 108,246.67 109,174.72 110,226.11 111,215.83 112,308.33 113,246.67 114,267.22 115,308.33 116,328.89 117,349.44 118,318.61 119,328.89 120,308.33 121,339.17 122,349.44 123,359.72 124,287.78 125,298.06 126,318.61 127,267.22 128,349.44 129,298.06 130,339.17 131,318.61 132,277.5 133,339.17 134,287.78 135,318.61 136,174.72 137,359.72 138,359.72 139,298.06 140,339.17 141,370 142,328.89 143,287.78 144,205.56 145,205.56 146,287.78 147,154.17 148,164.44 149,164.44 150,185 151,308.33 152,174.72 153,164.44 154,256.94 155,236.39 156,215.83 157,267.22 158,298.06 159,246.67 160,267.22 161,246.67 162,236.39 163,226.11 164,256.94 165,246.67 166,277.5 167,287.78 168,226.11 169,195.28 170,287.78 172,287.78 172.35,370"><title>LR761638.1</title></polygon><rect class="average" height="1" width="172.35" x="0" y="213.37"><title>average:15.24</title></rect><rect class="median" height="1" width="172.35" x="0" y="246.67"><title>median:12</title></rect><text class="chromName" x="86.17" y="-12">LR761638.1<title>LR761638.1 73,550,375 bp</title></text><rect class="frame" height="370" width="172.35" x="0" y="0"/></g><g id="chrom-LR761639.1" transform="translate(750.784104388203,0)"><polygon class="cov1" points="0,370 0,349.44 1,174.72 2,164.44 3,298.06 4,143.89 5,236.39 6,359.72 7,267.22 8,154.17 9,143.89 10,164.44 11,277.5 12,246.67 13,143.89 14,185 15,143.89 18,143.89 19,133.61 20,133.61 21,154.17 22,164.44 23,174.72 24,185 25,215.83 26,185 27,328.89 28,349.44 29,195.28 30,308.33 31,143.89 32,154.17 33,143.89 34,226.11 35,205.56 36,215.83 37,143.89 38,143.89 39,154.17 40,226.11 41,133.61 42,154.17 43,123.33 44,154.17 45,133.61 46,164.44 47,143.89 48,143.89 49,164.44 50,154.17 51,133.61 52,195.28 53,164.44 54,154.17 55,143.89 56,143.89 57,154.17 58,154.17 59,143.89 60,133.61 61,143.89 62,154.17 63,174.72 64,133.61 65,143.89 66,164.44 67,154.17 68,154.17 69,185 70,154.17 71,154.17 72,164.44 73,154.17 74,226.11 75,143.89 76,154.17 77,154.17 78,143.89 79,154.17 80,174.72 81,143.89 83,143.89 84,215.83 85,154.17 86,143.89 89,143.89 90,133.61 91,154.17 92,154.17 93,185 94,164.44 95,143.89 96,154.17 97,133.61 98,133.61 99,143.89 102,143.89 103,154.17 104,133.61 105,133.61 106,246.67 107,154.17 108,123.33 109,143.89 110,133.61 111,318.61 112,195.28 113,133.61 114,185 115,133.61 116,164.44 117,154.17 118,143.89 119,133.61 120,164.44 121,133.61 122,133.61 123,143.89 124,174.72 125,143.89 127,143.89 128,154.17 129,133.61 130,164.44 131,154.17 132,185 133,339.17 134,133.61 135,185 136,174.72 137,174.72 138,205.56 139,185 140,267.22 140.95,370"><title>LR761639.1</title></polygon><rect class="average" height="1" width="140.95" x="0" y="167.32"><title>average:19.72</title></rect><rect class="median" height="1" width="140.95" x="0" y="164.44"><title>median:20</title></rect><text class="chromName" x="70.47" y="-12">LR761639.1<title>LR761639.1 60,151,564 bp</title></text><rect class="frame" height="370" width="140.95" x="0" y="0"/></g><g id="chrom-LR761640.1" transform="translate(892.7327113317651,0)"><polygon class="cov0" points="0,370 0,226.11 1,143.89 2,195.28 3,174.72 4,174.72 5,133.61 6,195.28 7,205.56 8,143.89 9,154.17 10,143.89 11,154.17 12,143.89 13,246.67 14,164.44 15,154.17 16,226.11 17,143.89 18,133.61 19,185 20,133.61 21,154.17 22,143.89 23,123.33 24,143.89 25,164.44 26,133.61 27,143.89 28,154.17 29,143.89 33,143.89 34,164.44 35,143.89 36,143.89 37,205.56 38,133.61 39,164.44 40,133.61 41,133.61 42,113.06 43,133.61 44,133.61 45,164.44 46,174.72 47,236.39 48,277.5 49,133.61 50,154.17 51,143.89 52,133.61 53,154.17 54,133.61 55,133.61 56,143.89 57,215.83 58,164.44 59,164.44 60,256.94 61,143.89 62,164.44 63,185 64,143.89 65,308.33 66,154.17 67,164.44 68,154.17 69,205.56 70,185 71,143.89 72,174.72 73,215.83 74,185 75,154.17 76,143.89 77,236.39 78,143.89 79,174.72 80,123.33 81,113.06 82,123.33 83,143.89 84,154.17 85,143.89 86,349.44 87,164.44 88,174.72 89,185 90,164.44 91,308.33 92,287.78 93,195.28 94,287.78 95,164.44 96,154.17 97,154.17 98,164.44 99,154.17 100,133.61 101,195.28 102,339.17 103,246.67 104,143.89 105,133.61 106,133.61 107,174.72 108,226.11 109,143.89 110,195.28 111,205.56 112,164.44 113,164.44 114,185 115,143.89 116,318.61 117,339.17 118,359.72 119,328.89 120,154.17 121,133.61 122,143.89 123,143.89 124,154.17 125,133.61 126,143.89 127,143.89 128,267.22 129,164.44 130,143.89 131,143.89 132,154.17 133,143.89 134,123.33 135,143.89 136,143.89 137,154.17 138,143.89 139,195.28 140,143.89 141,143.89 142,164.44 143,185 144,133.61 145,143.89 145.53,370"><title>LR761640.1</title></polygon><rect class="average" height="1" width="145.53" x="0" y="169.4"><title>average:19.52</title></rect><rect class="median" height="1" width="145.53" x="0" y="164.44"><title>median:20</title></rect><text class="chromName" x="72.77" y="-12">LR761640.1<title>LR761640.1 62,107,823 bp</title></text><rect class="frame" height="370" width="145.53" x="0" y="0"/></g><g id="chrom-LR761641.1" transform="translate(1039.265271917344,0)"><polygon class="cov1" points="0,370 0,328.89 1,174.72 2,277.5 3,205.56 4,215.83 5,215.83 6,308.33 7,236.39 8,298.06 9,174.72 10,154.17 11,226.11 12,215.83 13,102.78 14,205.56 15,143.89 16,154.17 17,287.78 18,154.17 19,143.89 20,154.17 21,164.44 22,205.56 23,154.17 24,195.28 25,174.72 26,246.67 27,205.56 28,256.94 29,298.06 30,236.39 31,205.56 32,246.67 33,215.83 34,277.5 35,298.06 36,339.17 37,256.94 38,267.22 39,236.39 40,205.56 41,287.78 42,328.89 43,339.17 44,256.94 45,236.39 46,256.94 47,277.5 48,246.67 49,143.89 50,195.28 51,164.44 52,133.61 54,133.61 55,123.33 56,133.61 57,164.44 58,174.72 59,164.44 60,154.17 61,287.78 62,154.17 63,195.28 64,195.28 65,185 66,215.83 67,256.94 68,236.39 69,154.17 70,267.22 71,143.89 72,215.83 73,318.61 74,215.83 75,318.61 76,185 77,205.56 78,174.72 79,246.67 80,287.78 81,308.33 82,328.89 83,287.78 84,185 85,174.72 86,256.94 87,133.61 88,205.56 89,185 90,246.67 91,267.22 92,154.17 93,226.11 94,256.94 95,205.56 96,215.83 97,318.61 98,143.89 99,370 100,226.11 101,133.61 102,174.72 103,133.61 104,174.72 105,143.89 106,256.94 107,143.89 108,154.17 109,154.17 110,143.89 111,277.5 112,154.17 113,256.94 114,164.44 115,164.44 116,133.61 117,174.72 118,133.61 119,215.83 120,226.11 121,164.44 122,174.72 123,205.56 124,164.44 125,215.83 126,267.22 127,143.89 128,277.5 129,185 130,267.22 131,185 132,349.44 133,277.5 134,143.89 135,349.44 136,339.17 136.99,370"><title>LR761641.1</title></polygon><rect class="average" height="1" width="136.99" x="0" y="193.09"><title>average:17.21</title></rect><rect class="median" height="1" width="136.99" x="0" y="215.83"><title>median:15</title></rect><text class="chromName" x="68.5" y="-12">LR761641.1<title>LR761641.1 58,462,999 bp</title></text><rect class="frame" height="370" width="136.99" x="0" y="0"/></g><g id="chrom-LR761642.1" transform="translate(1177.25719230686,0)"><polygon class="cov0" points="0,370 0,339.17 1,308.33 2,215.83 3,185 4,185 5,246.67 6,267.22 7,246.67 8,205.56 9,185 10,185 11,174.72 12,174.72 13,133.61 14,164.44 15,236.39 16,277.5 17,185 18,236.39 19,185 20,185 21,154.17 22,246.67 23,267.22 24,164.44 25,143.89 26,154.17 27,164.44 28,246.67 29,154.17 30,215.83 31,143.89 32,174.72 33,267.22 34,174.72 35,246.67 36,154.17 37,154.17 38,133.61 39,185 40,143.89 41,154.17 42,133.61 43,154.17 44,154.17 45,185 46,154.17 47,256.94 48,215.83 49,277.5 50,185 51,164.44 52,195.28 53,133.61 54,154.17 55,215.83 56,164.44 57,205.56 58,226.11 59,164.44 60,164.44 61,339.17 62,195.28 63,174.72 64,205.56 65,174.72 66,174.72 67,308.33 68,236.39 69,154.17 70,143.89 71,215.83 72,164.44 73,226.11 74,143.89 75,195.28 76,298.06 77,154.17 78,154.17 79,287.78 80,256.94 81,185 82,328.89 83,256.94 84,318.61 85,246.67 86,308.33 86.91,370"><title>LR761642.1</title></polygon><rect class="average" height="1" width="86.91" x="0" y="177.28"><title>average:18.75</title></rect><rect class="median" height="1" width="86.91" x="0" y="195.28"><title>median:17</title></rect><text class="chromName" x="43.45" y="-12">LR761642.1<title>LR761642.1 37,089,910 bp</title></text><rect class="frame" height="370" width="86.91" x="0" y="0"/></g><g id="chrom-LR761643.1" transform="translate(1265.1671710093603,0)"><polygon class="cov1" points="0,370 0,339.17 1,287.78 2,185 3,143.89 4,164.44 5,236.39 6,174.72 7,174.72 8,164.44 9,143.89 10,143.89 11,185 12,143.89 13,215.83 14,246.67 15,164.44 16,133.61 17,174.72 18,164.44 19,185 20,339.17 21,164.44 22,143.89 23,133.61 24,164.44 25,185 26,359.72 27,318.61 28,318.61 29,143.89 30,226.11 31,164.44 32,215.83 33,154.17 34,185 35,205.56 36,256.94 37,143.89 38,154.17 39,143.89 40,154.17 41,164.44 42,174.72 43,267.22 44,164.44 45,195.28 46,154.17 47,236.39 48,174.72 49,154.17 50,215.83 51,154.17 52,154.17 53,185 54,174.72 55,154.17 56,143.89 57,143.89 58,185 59,143.89 60,123.33 61,133.61 62,174.72 63,164.44 64,164.44 65,195.28 66,174.72 67,164.44 68,164.44 69,154.17 70,164.44 71,226.11 72,195.28 73,226.11 74,143.89 75,226.11 76,154.17 77,143.89 78,215.83 79,267.22 80,143.89 81,133.61 82,154.17 83,143.89 84,133.61 85,143.89 86,154.17 87,133.61 88,174.72 89,298.06 90,174.72 91,143.89 92,133.61 93,164.44 94,133.61 95,164.44 96,133.61 99,133.61 100,143.89 101,236.39 102,154.17 103,154.17 104,164.44 105,154.17 106,133.61 107,133.61 108,154.17 109,133.61 112,133.61 113,215.83 114,154.17 115,143.89 116,123.33 117,133.61 118,143.89 119,164.44 120,133.61 123,133.61 124,143.89 125,143.89 126,123.33 127,174.72 128,185 129,133.61 130,164.44 131,215.83 132,133.61 133,215.83 134,256.94 134.83,370"><title>LR761643.1</title></polygon><rect class="average" height="1" width="134.83" x="0" y="173.73"><title>average:19.1</title></rect><rect class="median" height="1" width="134.83" x="0" y="164.44"><title>median:20</title></rect><text class="chromName" x="67.42" y="-12">LR761643.1<title>LR761643.1 57,541,580 bp</title></text><rect class="frame" height="370" width="134.83" x="0" y="0"/></g><g><line class="ruler" x1="-2" x2="1390" y1="333" y2="333"><title>3</title></line><text class="ruler" x="-5" y="333">3</text><line class="ruler" x1="-2" x2="1390" y1="296" y2="296"><title>7</title></line><text class="ruler" x="-5" y="296">7</text><line class="ruler" x1="-2" x2="1390" y1="259" y2="259"><title>10</title></line><text class="ruler" x="-5" y="259">10</text><line class="ruler" x1="-2" x2="1390" y1="222" y2="222"><title>14</title></line><text class="ruler" x="-5" y="222">14</text><line class="ruler" x1="-2" x2="1390" y1="185" y2="185"><title>18</title></line><text class="ruler" x="-5" y="185">18</text><line class="ruler" x1="-2" x2="1390" y1="148" y2="148"><title>21</title></line><text class="ruler" x="-5" y="148">21</text><line class="ruler" x1="-2" x2="1390" y1="111" y2="111"><title>25</title></line><text class="ruler" x="-5" y="111">25</text><line class="ruler" x1="-2" x2="1390" y1="74" y2="74"><title>28</title></line><text class="ruler" x="-5" y="74">28</text><line class="ruler" x1="-2" x2="1390" y1="37" y2="37"><title>32</title></line><text class="ruler" x="-5" y="37">32</text><line class="ruler" x1="-2" x2="1390" y1="0" y2="0"><title>36</title></line><text class="ruler" x="-5" y="0">36</text></g></g><text class="title" x="795" y="40">F13_M14_24.merged.realigned.bam F13_M14_24 F13_M14_24_1 F13_M14_24_2<title>./F13_M14_24.merged.realigned.bam</title></text><text class="xLabel" x="795" y="475">GCA_902806645.1_cgigas_uk_roslin_v1_genomic.fna  (589,358,857 bp)<title>../ref/GCA_902806645.1_cgigas_uk_roslin_v1_genomic.fna</title></text><text class="yLabel" transform="translate(25,265) rotate(90)" x="0" y="0">Coverage bp (median)</text></g></svg>