<?xml version="1.0" encoding="UTF-8" standalone="no"?><svg height="500" width="1500" xmlns="http://www.w3.org/2000/svg"><title>F13_M13_24.merged.realigned.bam</title><desc>Made with wgscoverageplotter undefined Author: Pierre Lindenbaum</desc><style>g.maing {stroke:black;stroke-width:0.5px;fill:none;}
text.title {stroke:none;fill:black;stroke-width:1px;text-anchor:middle;}
rect.frame {stroke:darkgray;fill:none;stroke-width:0.5px;}
text.ruler {stroke:none;fill:darkgray;stroke-width:1px;text-anchor:end;}
text.chromName {stroke:none;fill:darkgray;stroke-width:1px;text-anchor:middle;}
text.xLabel {stroke:none;fill:black;stroke-width:1px;text-anchor:middle;}
text.yLabel {stroke:none;fill:black;stroke-width:1px;text-anchor:middle;}
.cov0 {stroke:gray;fill:antiquewhite;stroke-width:0.5px;}
.cov1 {stroke:gray;fill:beige;stroke-width:0.5px;}
rect.average {stroke:green;fill:green;stroke-width:0.5px;opacity:0.3;}
rect.median {stroke:red;fill:red;stroke-width:0.5px;opacity:0.3;}
line.ruler {stroke:darkgray;stroke-dasharray:4;fill:none;stroke-width:1;}
</style><g class="maing"><g id="chromosomes" transform="translate(100.0,80.0)"><g id="chrom-LR761634.1" transform="translate(10.0,0)"><polygon class="cov0" points="0,370 0,343.57 1,145.36 2,171.79 3,303.93 4,237.86 5,185 6,277.5 7,198.21 8,158.57 9,132.14 10,158.57 11,118.93 12,158.57 13,211.43 14,290.71 15,145.36 16,132.14 17,171.79 18,132.14 20,132.14 21,145.36 22,158.57 24,158.57 25,118.93 26,132.14 27,132.14 28,145.36 29,132.14 31,132.14 32,264.29 33,132.14 34,145.36 35,145.36 36,118.93 37,185 38,185 39,145.36 40,132.14 42,132.14 43,185 44,158.57 45,185 46,171.79 47,145.36 48,158.57 49,145.36 51,145.36 52,132.14 53,145.36 54,237.86 55,277.5 56,118.93 57,118.93 58,132.14 59,145.36 60,145.36 61,118.93 62,158.57 63,171.79 64,185 65,171.79 66,158.57 67,185 68,132.14 69,211.43 70,132.14 71,132.14 72,211.43 73,171.79 74,145.36 75,132.14 76,132.14 77,185 78,171.79 79,132.14 80,277.5 81,290.71 82,132.14 83,132.14 84,145.36 85,132.14 86,118.93 87,198.21 88,118.93 89,264.29 90,158.57 91,158.57 92,132.14 93,158.57 94,118.93 95,132.14 96,118.93 97,198.21 98,303.93 99,145.36 100,145.36 101,198.21 102,158.57 103,158.57 104,198.21 105,118.93 106,198.21 107,211.43 108,237.86 109,118.93 110,118.93 111,132.14 112,132.14 113,171.79 114,303.93 115,211.43 116,118.93 117,132.14 118,118.93 119,171.79 120,158.57 121,132.14 122,145.36 123,145.36 124,158.57 125,132.14 126,145.36 127,145.36 128,198.21 129,171.79 130,198.21 130.72,370"><title>LR761634.1</title></polygon><rect class="average" height="1" width="130.72" x="0" y="160.45"><title>average:15.86</title></rect><rect class="median" height="1" width="130.72" x="0" y="158.57"><title>median:16</title></rect><text class="chromName" x="65.36" y="-12">LR761634.1<title>LR761634.1 55,785,328 bp</title></text><rect class="frame" height="370" width="130.72" x="0" y="0"/></g><g id="chrom-LR761635.1" transform="translate(141.71753661284166,0)"><polygon class="cov1" points="0,370 0,343.57 1,356.79 2,330.36 3,277.5 4,330.36 5,343.57 6,251.07 7,317.14 8,317.14 9,211.43 10,198.21 11,264.29 12,171.79 13,171.79 14,211.43 15,290.71 16,303.93 17,224.64 18,277.5 19,237.86 20,290.71 21,303.93 22,277.5 23,224.64 24,290.71 25,317.14 26,303.93 27,317.14 28,277.5 29,343.57 30,343.57 31,317.14 32,264.29 33,211.43 34,198.21 35,237.86 36,251.07 37,317.14 38,330.36 39,185 40,224.64 41,211.43 42,171.79 43,185 44,158.57 45,171.79 46,185 47,158.57 48,211.43 49,185 50,198.21 51,264.29 52,198.21 53,277.5 54,303.93 55,237.86 56,277.5 57,264.29 58,211.43 59,303.93 60,370 61,290.71 62,158.57 63,290.71 64,330.36 65,277.5 66,290.71 67,277.5 68,277.5 69,290.71 70,264.29 71,237.86 72,251.07 73,237.86 75,237.86 76,343.57 77,0 78,264.29 79,303.93 80,158.57 81,264.29 82,330.36 83,290.71 84,343.57 85,303.93 86,343.57 89,343.57 90,290.71 91,317.14 92,330.36 93,277.5 94,290.71 95,264.29 96,277.5 97,277.5 98,330.36 99,290.71 100,277.5 101,317.14 102,303.93 103,211.43 104,185 105,198.21 106,237.86 107,303.93 108,185 109,185 110,277.5 111,198.21 112,330.36 113,317.14 114,317.14 115,330.36 116,303.93 117,277.5 118,185 119,171.79 120,145.36 121,185 122,251.07 123,237.86 124,264.29 125,145.36 126,237.86 127,224.64 128,158.57 129,251.07 130,171.79 131,264.29 132,237.86 133,317.14 134,317.14 135,303.93 136,330.36 137,317.14 138,317.14 139,264.29 140,343.57 141,303.93 142,277.5 143,290.71 144,277.5 145,237.86 146,251.07 147,118.93 148,171.79 149,145.36 150,224.64 151,290.71 152,330.36 153,237.86 154,277.5 155,251.07 156,317.14 157,330.36 158,224.64 159,185 160,251.07 161,211.43 162,356.79 163,343.57 164,211.43 165,237.86 166,303.93 167,303.93 168,290.71 169,224.64 170,303.93 171,330.36 171.58,370"><title>LR761635.1</title></polygon><rect class="average" height="1" width="171.58" x="0" y="215.26"><title>average:11.71</title></rect><rect class="median" height="1" width="171.58" x="0" y="264.29"><title>median:8</title></rect><text class="chromName" x="85.79" y="-12">LR761635.1<title>LR761635.1 73,222,313 bp</title></text><rect class="frame" height="370" width="171.58" x="0" y="0"/></g><g id="chrom-LR761636.1" transform="translate(314.2938403401308,0)"><polygon class="cov0" points="0,370 0,343.57 1,145.36 2,264.29 3,303.93 4,264.29 5,158.57 7,158.57 8,132.14 9,145.36 10,132.14 11,145.36 12,145.36 13,198.21 14,118.93 15,145.36 16,132.14 18,132.14 19,171.79 20,132.14 23,132.14 24,211.43 25,132.14 26,185 27,251.07 28,118.93 29,132.14 30,132.14 31,118.93 32,105.71 33,132.14 34,145.36 35,211.43 36,145.36 37,171.79 38,145.36 40,145.36 41,158.57 42,171.79 43,158.57 44,145.36 45,145.36 46,171.79 47,158.57 48,224.64 49,145.36 50,158.57 51,118.93 52,145.36 53,132.14 54,224.64 55,171.79 56,158.57 57,132.14 58,158.57 59,132.14 60,171.79 61,237.86 62,158.57 63,145.36 64,145.36 65,158.57 66,145.36 67,158.57 68,171.79 69,158.57 70,185 71,118.93 72,132.14 73,171.79 74,158.57 75,158.57 76,317.14 77,224.64 78,224.64 79,264.29 80,264.29 81,145.36 82,198.21 83,145.36 84,118.93 85,145.36 86,277.5 87,158.57 88,158.57 89,211.43 90,145.36 91,132.14 92,185 93,132.14 94,145.36 95,185 96,185 97,132.14 98,132.14 99,171.79 100,171.79 101,132.14 102,158.57 103,118.93 104,132.14 105,145.36 107,145.36 108,132.14 110,132.14 111,171.79 112,145.36 113,158.57 114,118.93 116,118.93 117,145.36 118,158.57 119,132.14 120,132.14 121,237.86 122,132.14 123,132.14 124,185 125,132.14 126,132.14 127,237.86 128,237.86 129,132.14 130,158.57 131,185 132,158.57 133,158.57 134,132.14 135,145.36 136,317.14 136.65,370"><title>LR761636.1</title></polygon><rect class="average" height="1" width="136.65" x="0" y="158.23"><title>average:16.03</title></rect><rect class="median" height="1" width="136.65" x="0" y="158.57"><title>median:16</title></rect><text class="chromName" x="68.33" y="-12">LR761636.1<title>LR761636.1 58,319,100 bp</title></text><rect class="frame" height="370" width="136.65" x="0" y="0"/></g><g id="chrom-LR761637.1" transform="translate(451.9485730949149,0)"><polygon class="cov1" points="0,370 0,356.79 1,290.71 2,303.93 3,290.71 4,224.64 5,185 6,224.64 7,251.07 8,211.43 9,303.93 10,317.14 11,171.79 12,251.07 13,303.93 14,237.86 15,171.79 16,211.43 17,158.57 18,303.93 19,303.93 20,224.64 21,185 22,158.57 23,237.86 24,356.79 25,171.79 26,145.36 27,211.43 28,198.21 29,237.86 30,264.29 31,145.36 32,145.36 33,198.21 34,118.93 35,198.21 36,330.36 37,237.86 38,158.57 39,158.57 40,145.36 41,290.71 42,185 43,251.07 44,330.36 45,185 46,158.57 47,158.57 48,132.14 49,132.14 50,198.21 51,145.36 52,105.71 53,158.57 54,118.93 55,145.36 56,145.36 57,224.64 58,277.5 59,317.14 60,303.93 61,224.64 62,132.14 63,145.36 64,132.14 65,145.36 67,145.36 68,171.79 69,118.93 70,158.57 71,145.36 72,185 73,145.36 74,171.79 75,145.36 78,145.36 79,171.79 80,158.57 81,158.57 82,132.14 83,145.36 84,158.57 85,132.14 86,237.86 87,171.79 88,132.14 89,145.36 90,132.14 92,132.14 93,171.79 94,211.43 95,224.64 96,171.79 97,145.36 98,118.93 99,132.14 100,264.29 101,290.71 102,290.71 103,317.14 104,317.14 105,211.43 106,132.14 107,118.93 108,132.14 109,132.14 110,118.93 111,145.36 112,145.36 113,132.14 114,277.5 115,224.64 116,185 117,158.57 118,158.57 119,290.71 120,185 121,132.14 122,303.93 123,330.36 124,317.14 124.49,370"><title>LR761637.1</title></polygon><rect class="average" height="1" width="124.49" x="0" y="183.55"><title>average:14.11</title></rect><rect class="median" height="1" width="124.49" x="0" y="185"><title>median:14</title></rect><text class="chromName" x="62.25" y="-12">LR761637.1<title>LR761637.1 53,127,865 bp</title></text><rect class="frame" height="370" width="124.49" x="0" y="0"/></g><g id="chrom-LR761638.1" transform="translate(577.4390778079033,0)"><polygon class="cov0" points="0,370 0,185 1,52.86 2,317.14 3,145.36 4,237.86 5,158.57 6,211.43 7,211.43 8,224.64 9,145.36 10,198.21 11,317.14 12,145.36 13,185 14,132.14 15,171.79 16,145.36 17,145.36 18,251.07 19,303.93 20,145.36 21,224.64 22,145.36 23,132.14 24,132.14 25,171.79 26,290.71 27,145.36 28,198.21 29,317.14 30,277.5 31,158.57 32,356.79 33,356.79 34,198.21 35,224.64 36,158.57 37,317.14 38,303.93 39,343.57 40,330.36 41,317.14 42,237.86 43,132.14 44,158.57 45,290.71 46,198.21 47,132.14 48,118.93 49,145.36 50,158.57 51,171.79 52,145.36 53,132.14 54,198.21 55,185 56,158.57 57,237.86 58,132.14 59,211.43 60,264.29 61,251.07 62,158.57 63,317.14 64,317.14 65,330.36 66,185 67,224.64 68,211.43 69,317.14 70,185 71,330.36 72,330.36 73,290.71 74,277.5 75,317.14 76,343.57 77,198.21 78,370 79,317.14 80,290.71 81,185 82,317.14 83,330.36 84,303.93 85,211.43 86,171.79 87,171.79 88,330.36 89,145.36 90,303.93 91,158.57 92,118.93 93,132.14 94,158.57 95,224.64 96,303.93 97,132.14 98,277.5 99,198.21 100,198.21 101,185 102,330.36 103,185 104,277.5 105,290.71 106,224.64 107,185 108,237.86 109,171.79 110,224.64 111,211.43 112,317.14 113,251.07 114,303.93 115,317.14 116,303.93 117,343.57 118,317.14 119,330.36 120,317.14 121,343.57 122,343.57 123,356.79 124,303.93 125,303.93 126,317.14 127,277.5 128,330.36 129,277.5 130,317.14 131,317.14 132,290.71 133,343.57 134,251.07 135,303.93 136,171.79 137,370 138,343.57 139,277.5 140,356.79 141,356.79 142,343.57 143,317.14 144,198.21 145,185 146,237.86 147,158.57 148,171.79 149,158.57 150,185 151,277.5 152,185 153,171.79 154,251.07 155,290.71 156,211.43 157,264.29 158,303.93 159,290.71 160,317.14 161,290.71 162,290.71 163,237.86 164,290.71 165,356.79 166,356.79 167,343.57 168,317.14 169,224.64 170,356.79 171,343.57 172,356.79 172.35,370"><title>LR761638.1</title></polygon><rect class="average" height="1" width="172.35" x="0" y="214.14"><title>average:11.79</title></rect><rect class="median" height="1" width="172.35" x="0" y="251.07"><title>median:9</title></rect><text class="chromName" x="86.17" y="-12">LR761638.1<title>LR761638.1 73,550,375 bp</title></text><rect class="frame" height="370" width="172.35" x="0" y="0"/></g><g id="chrom-LR761639.1" transform="translate(750.784104388203,0)"><polygon class="cov1" points="0,370 0,343.57 1,171.79 2,158.57 3,290.71 4,145.36 5,224.64 6,356.79 7,264.29 8,145.36 9,132.14 10,158.57 11,264.29 12,251.07 13,145.36 14,171.79 15,132.14 16,145.36 17,132.14 18,132.14 19,118.93 20,118.93 21,145.36 22,158.57 23,171.79 24,171.79 25,211.43 26,185 27,330.36 28,343.57 29,185 30,303.93 31,132.14 32,145.36 33,145.36 34,185 35,198.21 36,224.64 37,145.36 38,132.14 39,145.36 40,198.21 41,132.14 42,145.36 43,105.71 44,145.36 45,132.14 46,158.57 47,145.36 48,132.14 49,158.57 50,145.36 51,132.14 52,185 53,158.57 54,145.36 55,145.36 56,132.14 57,145.36 58,145.36 59,132.14 61,132.14 62,145.36 63,171.79 64,118.93 65,132.14 66,145.36 67,132.14 68,145.36 69,171.79 70,145.36 72,145.36 73,132.14 74,224.64 75,132.14 76,145.36 77,145.36 78,132.14 79,132.14 80,145.36 81,118.93 82,132.14 83,132.14 84,211.43 85,145.36 86,118.93 87,132.14 88,118.93 89,132.14 90,118.93 91,145.36 92,132.14 93,171.79 94,158.57 95,132.14 96,145.36 97,132.14 98,118.93 99,132.14 100,145.36 101,118.93 102,132.14 103,145.36 104,118.93 105,118.93 106,251.07 107,145.36 108,118.93 109,132.14 110,132.14 111,317.14 112,185 113,118.93 114,185 115,132.14 116,158.57 117,132.14 118,132.14 119,118.93 120,145.36 121,118.93 122,132.14 123,132.14 124,171.79 125,145.36 126,132.14 127,145.36 128,158.57 129,132.14 130,171.79 131,145.36 132,185 133,317.14 134,132.14 135,171.79 136,158.57 137,171.79 138,224.64 139,198.21 140,277.5 140.95,370"><title>LR761639.1</title></polygon><rect class="average" height="1" width="140.95" x="0" y="158.84"><title>average:15.98</title></rect><rect class="median" height="1" width="140.95" x="0" y="158.57"><title>median:16</title></rect><text class="chromName" x="70.47" y="-12">LR761639.1<title>LR761639.1 60,151,564 bp</title></text><rect class="frame" height="370" width="140.95" x="0" y="0"/></g><g id="chrom-LR761640.1" transform="translate(892.7327113317651,0)"><polygon class="cov0" points="0,370 0,185 1,132.14 2,198.21 3,185 4,171.79 5,132.14 6,211.43 7,198.21 8,145.36 9,171.79 10,132.14 11,158.57 12,132.14 13,251.07 14,171.79 15,145.36 16,224.64 17,145.36 18,132.14 19,185 20,132.14 21,145.36 22,132.14 23,118.93 24,145.36 25,158.57 26,118.93 27,132.14 28,145.36 29,132.14 30,145.36 31,158.57 32,145.36 33,132.14 34,158.57 35,132.14 36,145.36 37,211.43 38,118.93 39,158.57 40,118.93 41,132.14 42,105.71 43,118.93 44,132.14 45,158.57 46,158.57 47,264.29 48,317.14 49,118.93 50,158.57 51,132.14 52,132.14 53,145.36 54,118.93 55,132.14 56,132.14 57,198.21 58,158.57 59,171.79 60,251.07 61,132.14 62,158.57 63,185 64,132.14 65,303.93 66,132.14 67,145.36 68,158.57 69,198.21 70,171.79 71,145.36 72,171.79 73,224.64 74,171.79 75,145.36 76,145.36 77,224.64 78,132.14 79,171.79 80,118.93 81,105.71 82,118.93 83,132.14 84,145.36 85,145.36 86,343.57 87,145.36 88,158.57 89,171.79 90,158.57 91,303.93 92,277.5 93,185 94,264.29 95,145.36 97,145.36 98,158.57 99,145.36 100,132.14 101,158.57 102,317.14 103,237.86 104,132.14 105,132.14 106,145.36 107,165.18 108,224.64 109,132.14 110,185 111,198.21 112,158.57 113,158.57 114,171.79 115,132.14 116,290.71 117,343.57 118,356.79 119,317.14 120,145.36 121,118.93 122,132.14 123,145.36 124,145.36 125,132.14 126,132.14 127,145.36 128,264.29 129,158.57 130,132.14 131,132.14 132,158.57 133,132.14 134,118.93 135,132.14 136,132.14 137,145.36 138,145.36 139,185 140,158.57 141,132.14 142,171.79 143,224.64 144,145.36 145,132.14 145.53,370"><title>LR761640.1</title></polygon><rect class="average" height="1" width="145.53" x="0" y="163.55"><title>average:15.62</title></rect><rect class="median" height="1" width="145.53" x="0" y="158.57"><title>median:16</title></rect><text class="chromName" x="72.77" y="-12">LR761640.1<title>LR761640.1 62,107,823 bp</title></text><rect class="frame" height="370" width="145.53" x="0" y="0"/></g><g id="chrom-LR761641.1" transform="translate(1039.265271917344,0)"><polygon class="cov1" points="0,370 0,303.93 1,185 2,237.86 3,198.21 4,185 5,224.64 6,290.71 7,264.29 8,317.14 9,171.79 10,158.57 11,211.43 12,224.64 13,118.93 14,185 15,145.36 16,185 17,343.57 18,158.57 19,132.14 20,145.36 21,171.79 22,224.64 23,158.57 24,171.79 25,171.79 26,237.86 27,211.43 28,264.29 29,303.93 30,237.86 31,198.21 32,264.29 33,198.21 34,277.5 35,277.5 36,330.36 37,251.07 38,277.5 39,237.86 40,185 41,277.5 42,317.14 43,343.57 44,251.07 45,224.64 46,264.29 47,277.5 48,251.07 49,145.36 50,198.21 51,145.36 52,132.14 54,132.14 55,118.93 56,118.93 57,158.57 58,171.79 59,158.57 60,145.36 61,277.5 62,145.36 63,185 64,198.21 65,198.21 66,211.43 67,251.07 68,237.86 69,158.57 70,264.29 71,132.14 72,211.43 73,264.29 74,211.43 75,317.14 76,185 77,185 78,158.57 79,211.43 80,277.5 81,303.93 82,290.71 83,251.07 84,158.57 85,145.36 86,224.64 87,132.14 88,158.57 89,171.79 90,290.71 91,237.86 92,145.36 93,264.29 94,290.71 95,198.21 96,185 97,356.79 98,145.36 99,370 100,277.5 101,132.14 102,171.79 103,132.14 104,185 105,145.36 106,251.07 107,132.14 108,158.57 109,145.36 110,145.36 111,277.5 112,145.36 113,251.07 114,158.57 115,158.57 116,118.93 117,171.79 118,132.14 119,211.43 120,198.21 121,171.79 122,171.79 123,198.21 124,158.57 125,211.43 126,251.07 127,132.14 128,290.71 129,185 130,264.29 131,198.21 132,330.36 133,277.5 134,145.36 135,356.79 136,330.36 136.99,370"><title>LR761641.1</title></polygon><rect class="average" height="1" width="136.99" x="0" y="187.98"><title>average:13.77</title></rect><rect class="median" height="1" width="136.99" x="0" y="211.43"><title>median:12</title></rect><text class="chromName" x="68.5" y="-12">LR761641.1<title>LR761641.1 58,462,999 bp</title></text><rect class="frame" height="370" width="136.99" x="0" y="0"/></g><g id="chrom-LR761642.1" transform="translate(1177.25719230686,0)"><polygon class="cov0" points="0,370 0,330.36 1,317.14 2,264.29 3,211.43 4,251.07 5,290.71 6,303.93 7,277.5 8,264.29 9,224.64 10,224.64 11,211.43 12,211.43 13,145.36 14,198.21 15,198.21 16,277.5 17,185 18,290.71 19,237.86 20,211.43 21,185 22,303.93 23,277.5 24,158.57 25,145.36 26,211.43 27,171.79 28,277.5 29,158.57 30,237.86 31,145.36 32,158.57 33,224.64 34,171.79 35,303.93 36,145.36 37,158.57 38,118.93 39,185 40,158.57 41,158.57 42,132.14 43,145.36 44,145.36 45,171.79 46,158.57 47,251.07 48,264.29 49,303.93 50,211.43 51,171.79 52,198.21 53,132.14 54,145.36 55,224.64 56,171.79 57,211.43 58,251.07 59,185 60,158.57 61,343.57 62,224.64 63,171.79 64,185 65,171.79 66,171.79 67,303.93 68,211.43 69,145.36 70,145.36 71,251.07 72,158.57 73,224.64 74,145.36 75,198.21 76,290.71 77,145.36 78,145.36 79,290.71 80,251.07 81,171.79 82,330.36 83,251.07 84,303.93 85,251.07 86,303.93 86.91,370"><title>LR761642.1</title></polygon><rect class="average" height="1" width="86.91" x="0" y="183.3"><title>average:14.13</title></rect><rect class="median" height="1" width="86.91" x="0" y="211.43"><title>median:12</title></rect><text class="chromName" x="43.45" y="-12">LR761642.1<title>LR761642.1 37,089,910 bp</title></text><rect class="frame" height="370" width="86.91" x="0" y="0"/></g><g id="chrom-LR761643.1" transform="translate(1265.1671710093603,0)"><polygon class="cov1" points="0,370 0,343.57 1,277.5 2,171.79 3,132.14 4,171.79 5,224.64 6,185 7,185 8,158.57 9,145.36 10,145.36 11,171.79 12,145.36 13,198.21 14,237.86 15,158.57 16,132.14 17,158.57 18,171.79 19,185 20,343.57 21,171.79 22,145.36 23,132.14 24,158.57 25,171.79 26,356.79 27,317.14 28,290.71 29,145.36 30,198.21 31,145.36 32,224.64 33,145.36 34,171.79 35,185 36,251.07 37,132.14 38,145.36 39,132.14 40,145.36 41,158.57 42,211.43 43,277.5 44,158.57 45,171.79 46,132.14 47,211.43 48,158.57 49,145.36 50,198.21 51,145.36 52,145.36 53,185 54,158.57 55,132.14 57,132.14 58,171.79 59,132.14 60,118.93 61,132.14 62,171.79 63,145.36 64,158.57 65,211.43 66,158.57 67,158.57 68,145.36 69,145.36 70,158.57 71,211.43 72,185 73,211.43 74,132.14 75,224.64 76,145.36 77,132.14 78,211.43 79,264.29 80,132.14 85,132.14 86,145.36 87,132.14 88,171.79 89,303.93 90,185 91,145.36 92,132.14 93,171.79 94,132.14 95,158.57 96,118.93 97,132.14 98,132.14 99,118.93 100,145.36 101,237.86 102,145.36 103,145.36 104,158.57 105,145.36 106,132.14 107,118.93 108,145.36 109,118.93 110,132.14 112,132.14 113,211.43 114,158.57 115,145.36 116,118.93 117,132.14 118,158.57 119,158.57 120,132.14 123,132.14 124,145.36 125,132.14 126,132.14 127,224.64 128,185 129,132.14 130,171.79 131,237.86 132,132.14 133,277.5 134,330.36 134.83,370"><title>LR761643.1</title></polygon><rect class="average" height="1" width="134.83" x="0" y="168.14"><title>average:15.28</title></rect><rect class="median" height="1" width="134.83" x="0" y="158.57"><title>median:16</title></rect><text class="chromName" x="67.42" y="-12">LR761643.1<title>LR761643.1 57,541,580 bp</title></text><rect class="frame" height="370" width="134.83" x="0" y="0"/></g><g><line class="ruler" x1="-2" x2="1390" y1="333" y2="333"><title>2</title></line><text class="ruler" x="-5" y="333">2</text><line class="ruler" x1="-2" x2="1390" y1="296" y2="296"><title>5</title></line><text class="ruler" x="-5" y="296">5</text><line class="ruler" x1="-2" x2="1390" y1="259" y2="259"><title>8</title></line><text class="ruler" x="-5" y="259">8</text><line class="ruler" x1="-2" x2="1390" y1="222" y2="222"><title>11</title></line><text class="ruler" x="-5" y="222">11</text><line class="ruler" x1="-2" x2="1390" y1="185" y2="185"><title>14</title></line><text class="ruler" x="-5" y="185">14</text><line class="ruler" x1="-2" x2="1390" y1="148" y2="148"><title>16</title></line><text class="ruler" x="-5" y="148">16</text><line class="ruler" x1="-2" x2="1390" y1="111" y2="111"><title>19</title></line><text class="ruler" x="-5" y="111">19</text><line class="ruler" x1="-2" x2="1390" y1="74" y2="74"><title>22</title></line><text class="ruler" x="-5" y="74">22</text><line class="ruler" x1="-2" x2="1390" y1="37" y2="37"><title>25</title></line><text class="ruler" x="-5" y="37">25</text><line class="ruler" x1="-2" x2="1390" y1="0" y2="0"><title>28</title></line><text class="ruler" x="-5" y="0">28</text></g></g><text class="title" x="795" y="40">F13_M13_24.merged.realigned.bam F13_M13_24 F13_M13_24_1 F13_M13_24_2<title>./F13_M13_24.merged.realigned.bam</title></text><text class="xLabel" x="795" y="475">GCA_902806645.1_cgigas_uk_roslin_v1_genomic.fna  (589,358,857 bp)<title>../ref/GCA_902806645.1_cgigas_uk_roslin_v1_genomic.fna</title></text><text class="yLabel" transform="translate(25,265) rotate(90)" x="0" y="0">Coverage bp (median)</text></g></svg>