<?xml version="1.0" encoding="UTF-8" standalone="no"?><svg height="500" width="1500" xmlns="http://www.w3.org/2000/svg"><title>F13_M14_14.merged.realigned.bam</title><desc>Made with wgscoverageplotter undefined Author: Pierre Lindenbaum</desc><style>g.maing {stroke:black;stroke-width:0.5px;fill:none;}
text.title {stroke:none;fill:black;stroke-width:1px;text-anchor:middle;}
rect.frame {stroke:darkgray;fill:none;stroke-width:0.5px;}
text.ruler {stroke:none;fill:darkgray;stroke-width:1px;text-anchor:end;}
text.chromName {stroke:none;fill:darkgray;stroke-width:1px;text-anchor:middle;}
text.xLabel {stroke:none;fill:black;stroke-width:1px;text-anchor:middle;}
text.yLabel {stroke:none;fill:black;stroke-width:1px;text-anchor:middle;}
.cov0 {stroke:gray;fill:antiquewhite;stroke-width:0.5px;}
.cov1 {stroke:gray;fill:beige;stroke-width:0.5px;}
rect.average {stroke:green;fill:green;stroke-width:0.5px;opacity:0.3;}
rect.median {stroke:red;fill:red;stroke-width:0.5px;opacity:0.3;}
line.ruler {stroke:darkgray;stroke-dasharray:4;fill:none;stroke-width:1;}
</style><g class="maing"><g id="chromosomes" transform="translate(100.0,80.0)"><g id="chrom-LR761634.1" transform="translate(10.0,0)"><polygon class="cov0" points="0,370 0,313.08 1,142.31 2,170.77 3,284.62 4,227.69 5,199.23 6,284.62 7,199.23 8,156.54 9,142.31 10,156.54 11,113.85 12,156.54 13,227.69 14,284.62 15,142.31 16,128.08 17,213.46 18,128.08 19,142.31 20,128.08 21,142.31 22,156.54 24,156.54 25,128.08 27,128.08 28,142.31 29,128.08 30,128.08 31,142.31 32,256.15 33,128.08 34,142.31 35,156.54 36,113.85 37,170.77 38,170.77 39,142.31 40,128.08 42,128.08 43,170.77 44,156.54 45,185 46,170.77 47,142.31 48,156.54 49,142.31 50,156.54 51,142.31 52,128.08 53,142.31 54,170.77 55,170.77 56,128.08 57,113.85 58,142.31 59,142.31 60,156.54 61,128.08 62,156.54 63,185 64,199.23 65,170.77 66,156.54 67,185 68,142.31 69,227.69 70,142.31 71,128.08 72,213.46 73,170.77 74,142.31 75,128.08 76,142.31 77,185 78,185 79,142.31 80,284.62 81,270.38 82,128.08 83,142.31 84,156.54 85,142.31 86,113.85 87,199.23 88,128.08 89,256.15 90,156.54 91,156.54 92,128.08 93,156.54 94,113.85 95,128.08 96,113.85 97,185 98,284.62 99,128.08 100,142.31 101,170.77 102,156.54 103,170.77 104,185 105,128.08 106,185 107,185 108,256.15 109,113.85 110,113.85 111,128.08 112,128.08 113,185 114,313.08 115,213.46 116,113.85 117,128.08 118,99.62 119,156.54 120,142.31 121,113.85 122,128.08 124,128.08 125,113.85 126,128.08 127,142.31 128,199.23 129,156.54 130,185 130.72,370"><title>LR761634.1</title></polygon><rect class="average" height="1" width="130.72" x="0" y="154.58"><title>average:15.14</title></rect><rect class="median" height="1" width="130.72" x="0" y="156.54"><title>median:15</title></rect><text class="chromName" x="65.36" y="-12">LR761634.1<title>LR761634.1 55,785,328 bp</title></text><rect class="frame" height="370" width="130.72" x="0" y="0"/></g><g id="chrom-LR761635.1" transform="translate(141.71753661284166,0)"><polygon class="cov1" points="0,370 0,355.77 1,355.77 2,341.54 3,298.85 4,341.54 5,341.54 6,199.23 7,313.08 8,313.08 9,256.15 10,227.69 11,284.62 12,213.46 13,142.31 14,213.46 15,270.38 16,298.85 17,227.69 18,270.38 19,185 20,284.62 21,298.85 22,284.62 23,199.23 24,298.85 25,341.54 26,341.54 27,313.08 28,241.92 29,355.77 30,355.77 31,341.54 32,256.15 33,199.23 34,213.46 36,213.46 37,313.08 38,313.08 39,185 40,284.62 41,199.23 42,170.77 43,199.23 44,128.08 45,185 46,170.77 47,128.08 48,298.85 49,199.23 50,227.69 51,327.31 52,199.23 53,241.92 54,298.85 55,284.62 56,355.77 57,284.62 58,199.23 59,313.08 60,370 61,284.62 62,142.31 63,298.85 64,313.08 65,256.15 66,284.62 67,284.62 68,270.38 69,284.62 70,241.92 73,241.92 74,227.69 75,241.92 76,341.54 77,0 78,241.92 79,284.62 80,170.77 81,270.38 82,298.85 83,284.62 84,355.77 85,327.31 86,327.31 87,355.77 88,341.54 89,341.54 90,284.62 91,284.62 92,327.31 93,341.54 94,256.15 95,270.38 96,256.15 97,298.85 98,327.31 99,313.08 100,284.62 101,355.77 102,284.62 103,199.23 105,199.23 106,241.92 107,313.08 108,170.77 109,213.46 110,313.08 111,185 112,341.54 113,327.31 114,313.08 115,327.31 116,284.62 117,270.38 118,185 119,170.77 120,142.31 121,199.23 122,241.92 123,241.92 124,270.38 125,142.31 126,256.15 127,284.62 128,156.54 129,327.31 130,185 131,256.15 132,213.46 133,313.08 134,313.08 135,298.85 136,313.08 137,327.31 138,313.08 139,256.15 140,341.54 141,284.62 142,227.69 143,313.08 144,270.38 145,213.46 146,256.15 147,142.31 148,170.77 149,128.08 150,199.23 151,284.62 152,327.31 153,227.69 154,284.62 155,241.92 156,298.85 157,298.85 158,241.92 159,185 160,227.69 161,213.46 162,313.08 163,241.92 164,213.46 165,256.15 166,298.85 167,313.08 168,298.85 169,256.15 170,327.31 171,327.31 171.58,370"><title>LR761635.1</title></polygon><rect class="average" height="1" width="171.58" x="0" y="209.54"><title>average:11.28</title></rect><rect class="median" height="1" width="171.58" x="0" y="270.38"><title>median:7</title></rect><text class="chromName" x="85.79" y="-12">LR761635.1<title>LR761635.1 73,222,313 bp</title></text><rect class="frame" height="370" width="171.58" x="0" y="0"/></g><g id="chrom-LR761636.1" transform="translate(314.2938403401308,0)"><polygon class="cov0" points="0,370 0,341.54 1,142.31 2,241.92 3,327.31 4,270.38 5,142.31 6,156.54 7,156.54 8,113.85 9,142.31 10,113.85 11,113.85 12,128.08 13,170.77 14,113.85 15,142.31 16,113.85 17,113.85 18,128.08 20,128.08 21,113.85 23,113.85 24,185 25,113.85 26,156.54 27,241.92 28,113.85 29,99.62 30,128.08 31,113.85 33,113.85 34,142.31 35,185 36,142.31 37,156.54 38,142.31 39,128.08 40,156.54 41,156.54 42,170.77 43,156.54 44,142.31 45,156.54 46,170.77 47,156.54 48,241.92 49,156.54 50,170.77 51,113.85 52,142.31 53,128.08 54,227.69 55,185 56,156.54 57,128.08 58,170.77 59,128.08 60,170.77 61,227.69 62,156.54 63,142.31 64,142.31 65,156.54 66,142.31 67,156.54 68,170.77 69,156.54 70,170.77 71,113.85 72,128.08 73,156.54 74,170.77 75,156.54 76,327.31 77,227.69 78,227.69 79,270.38 80,256.15 81,142.31 82,199.23 83,142.31 84,128.08 85,142.31 86,284.62 87,156.54 88,142.31 89,213.46 90,142.31 91,128.08 92,185 93,156.54 94,142.31 95,185 96,199.23 97,142.31 98,142.31 99,170.77 100,156.54 101,113.85 102,156.54 103,113.85 104,128.08 105,142.31 107,142.31 108,128.08 110,128.08 111,170.77 112,156.54 113,156.54 114,128.08 115,113.85 116,113.85 117,142.31 118,170.77 119,142.31 120,128.08 121,227.69 122,128.08 123,128.08 124,185 125,113.85 126,113.85 127,185 128,227.69 129,128.08 130,128.08 131,156.54 132,170.77 133,156.54 134,128.08 135,142.31 136,256.15 136.65,370"><title>LR761636.1</title></polygon><rect class="average" height="1" width="136.65" x="0" y="152.68"><title>average:15.27</title></rect><rect class="median" height="1" width="136.65" x="0" y="156.54"><title>median:15</title></rect><text class="chromName" x="68.33" y="-12">LR761636.1<title>LR761636.1 58,319,100 bp</title></text><rect class="frame" height="370" width="136.65" x="0" y="0"/></g><g id="chrom-LR761637.1" transform="translate(451.9485730949149,0)"><polygon class="cov1" points="0,370 0,341.54 1,256.15 2,298.85 3,270.38 4,213.46 5,170.77 6,199.23 7,241.92 8,227.69 9,313.08 10,284.62 11,185 12,256.15 13,270.38 14,241.92 15,170.77 16,227.69 17,113.85 18,241.92 19,241.92 20,213.46 21,156.54 22,142.31 23,227.69 24,341.54 25,156.54 26,142.31 27,213.46 28,185 29,213.46 30,256.15 31,142.31 32,142.31 33,185 34,128.08 35,199.23 36,313.08 37,241.92 38,170.77 39,156.54 40,156.54 41,284.62 42,185 43,256.15 44,327.31 45,170.77 46,156.54 47,156.54 48,128.08 49,142.31 50,199.23 51,142.31 52,113.85 53,170.77 54,113.85 55,142.31 56,156.54 57,227.69 58,284.62 59,313.08 60,313.08 61,227.69 62,142.31 64,142.31 65,156.54 67,156.54 68,185 69,128.08 70,156.54 71,156.54 72,185 73,142.31 74,185 75,156.54 76,142.31 77,170.77 81,170.77 82,128.08 83,156.54 84,156.54 85,128.08 86,241.92 87,170.77 88,128.08 89,142.31 90,128.08 91,142.31 92,128.08 93,156.54 94,213.46 95,213.46 96,170.77 97,142.31 98,113.85 99,128.08 100,241.92 101,270.38 102,270.38 103,284.62 104,313.08 105,170.77 106,128.08 107,113.85 110,113.85 111,128.08 112,142.31 113,128.08 114,341.54 115,227.69 116,170.77 117,156.54 118,156.54 119,298.85 120,170.77 121,113.85 122,327.31 123,341.54 124,298.85 124.49,370"><title>LR761637.1</title></polygon><rect class="average" height="1" width="124.49" x="0" y="177.55"><title>average:13.52</title></rect><rect class="median" height="1" width="124.49" x="0" y="185"><title>median:13</title></rect><text class="chromName" x="62.25" y="-12">LR761637.1<title>LR761637.1 53,127,865 bp</title></text><rect class="frame" height="370" width="124.49" x="0" y="0"/></g><g id="chrom-LR761638.1" transform="translate(577.4390778079033,0)"><polygon class="cov0" points="0,370 0,199.23 1,113.85 2,313.08 3,142.31 4,241.92 5,156.54 6,199.23 8,199.23 9,128.08 10,170.77 11,313.08 12,128.08 13,156.54 14,113.85 15,156.54 16,113.85 17,128.08 18,256.15 19,298.85 20,142.31 21,213.46 22,128.08 24,128.08 25,156.54 26,313.08 27,128.08 28,185 29,341.54 30,256.15 31,156.54 32,355.77 33,355.77 34,199.23 35,199.23 36,156.54 37,327.31 38,284.62 39,313.08 40,341.54 41,313.08 42,213.46 43,128.08 44,142.31 45,284.62 46,170.77 47,113.85 48,113.85 49,185 50,270.38 51,213.46 52,156.54 53,156.54 54,213.46 55,199.23 56,156.54 57,241.92 58,142.31 59,185 60,227.69 61,256.15 62,156.54 63,313.08 64,327.31 65,327.31 66,213.46 67,213.46 68,185 69,313.08 70,170.77 71,327.31 72,341.54 73,284.62 74,256.15 75,313.08 76,327.31 77,185 78,284.62 79,241.92 80,241.92 81,185 82,284.62 83,327.31 84,298.85 85,213.46 86,156.54 87,170.77 88,313.08 89,128.08 90,298.85 91,156.54 92,113.85 93,128.08 94,142.31 95,227.69 96,298.85 97,156.54 98,298.85 99,199.23 100,199.23 101,170.77 102,270.38 103,170.77 104,256.15 105,284.62 106,213.46 107,185 108,270.38 109,170.77 110,213.46 111,199.23 112,298.85 113,227.69 114,313.08 115,298.85 116,298.85 117,341.54 118,341.54 119,298.85 120,284.62 121,355.77 122,355.77 123,370 124,298.85 125,298.85 126,341.54 127,298.85 128,355.77 129,284.62 130,313.08 131,313.08 132,284.62 133,341.54 134,256.15 135,313.08 136,156.54 137,370 138,341.54 139,270.38 140,341.54 141,341.54 142,355.77 143,313.08 144,156.54 145,170.77 146,241.92 147,142.31 148,156.54 149,142.31 150,170.77 151,270.38 152,170.77 153,156.54 154,241.92 155,284.62 156,199.23 157,256.15 158,284.62 159,284.62 160,298.85 161,284.62 162,270.38 163,284.62 164,256.15 165,355.77 166,355.77 167,327.31 168,298.85 169,227.69 170,370 171,341.54 172,341.54 172.35,370"><title>LR761638.1</title></polygon><rect class="average" height="1" width="172.35" x="0" y="206.97"><title>average:11.46</title></rect><rect class="median" height="1" width="172.35" x="0" y="241.92"><title>median:9</title></rect><text class="chromName" x="86.17" y="-12">LR761638.1<title>LR761638.1 73,550,375 bp</title></text><rect class="frame" height="370" width="172.35" x="0" y="0"/></g><g id="chrom-LR761639.1" transform="translate(750.784104388203,0)"><polygon class="cov1" points="0,370 0,313.08 1,156.54 2,156.54 3,256.15 4,142.31 5,241.92 6,355.77 7,227.69 8,142.31 9,128.08 10,156.54 11,256.15 12,256.15 13,128.08 14,156.54 15,128.08 20,128.08 21,142.31 22,156.54 23,170.77 24,170.77 25,199.23 26,170.77 27,313.08 28,341.54 29,227.69 30,313.08 31,128.08 32,142.31 33,142.31 34,185 35,185 36,241.92 37,142.31 38,142.31 39,128.08 40,199.23 41,128.08 42,156.54 43,113.85 44,142.31 45,128.08 46,156.54 47,156.54 48,142.31 49,170.77 50,156.54 51,128.08 52,170.77 53,156.54 54,156.54 55,142.31 58,142.31 59,128.08 60,142.31 63,142.31 64,113.85 65,128.08 66,170.77 67,142.31 68,142.31 69,199.23 70,142.31 71,142.31 72,156.54 73,142.31 74,213.46 75,142.31 77,142.31 78,128.08 79,142.31 80,128.08 81,128.08 82,142.31 83,142.31 84,199.23 85,142.31 86,128.08 87,142.31 88,128.08 89,142.31 90,113.85 91,142.31 92,142.31 93,170.77 94,170.77 95,142.31 96,142.31 97,128.08 98,128.08 99,142.31 100,142.31 101,128.08 102,142.31 103,142.31 104,113.85 105,128.08 106,241.92 107,142.31 108,113.85 109,128.08 110,128.08 111,327.31 112,185 113,113.85 114,170.77 115,128.08 116,142.31 117,128.08 118,128.08 119,113.85 120,156.54 121,128.08 123,128.08 124,170.77 125,128.08 126,113.85 127,128.08 128,156.54 129,128.08 130,185 131,142.31 132,185 133,327.31 134,113.85 135,156.54 136,170.77 137,142.31 138,213.46 139,199.23 140,313.08 140.95,370"><title>LR761639.1</title></polygon><rect class="average" height="1" width="140.95" x="0" y="157.36"><title>average:14.94</title></rect><rect class="median" height="1" width="140.95" x="0" y="156.54"><title>median:15</title></rect><text class="chromName" x="70.47" y="-12">LR761639.1<title>LR761639.1 60,151,564 bp</title></text><rect class="frame" height="370" width="140.95" x="0" y="0"/></g><g id="chrom-LR761640.1" transform="translate(892.7327113317651,0)"><polygon class="cov0" points="0,370 0,185 1,128.08 2,199.23 3,185 4,170.77 5,113.85 6,199.23 7,185 8,128.08 9,170.77 10,113.85 11,156.54 12,113.85 13,256.15 14,170.77 15,142.31 16,256.15 17,142.31 18,128.08 19,185 20,128.08 21,142.31 22,128.08 23,113.85 24,142.31 25,156.54 26,128.08 27,128.08 28,142.31 30,142.31 31,170.77 32,142.31 33,128.08 34,156.54 35,142.31 36,142.31 37,199.23 38,113.85 39,170.77 40,113.85 41,128.08 42,113.85 43,113.85 44,128.08 45,142.31 46,128.08 47,241.92 48,298.85 49,128.08 50,170.77 51,142.31 52,128.08 53,142.31 54,128.08 55,142.31 56,142.31 57,199.23 58,156.54 59,185 60,227.69 61,128.08 62,156.54 63,185 64,142.31 65,270.38 66,142.31 67,156.54 68,156.54 69,199.23 70,185 71,142.31 72,185 73,213.46 74,170.77 75,142.31 76,142.31 77,227.69 78,142.31 79,185 80,128.08 81,113.85 82,128.08 83,142.31 85,142.31 86,341.54 87,156.54 88,170.77 89,170.77 90,156.54 91,284.62 92,284.62 93,199.23 94,270.38 95,156.54 96,142.31 97,142.31 98,156.54 99,156.54 100,128.08 101,213.46 102,327.31 103,241.92 104,142.31 105,128.08 106,128.08 107,156.54 108,185 109,142.31 110,170.77 111,199.23 112,156.54 113,156.54 114,142.31 115,128.08 116,227.69 117,270.38 118,284.62 119,270.38 120,142.31 121,113.85 122,128.08 123,142.31 124,142.31 125,128.08 126,142.31 127,128.08 128,256.15 129,156.54 130,128.08 131,128.08 132,156.54 133,128.08 134,113.85 135,113.85 136,128.08 137,142.31 138,128.08 139,185 140,142.31 141,113.85 142,156.54 143,142.31 144,128.08 145,128.08 145.53,370"><title>LR761640.1</title></polygon><rect class="average" height="1" width="145.53" x="0" y="157.36"><title>average:14.94</title></rect><rect class="median" height="1" width="145.53" x="0" y="156.54"><title>median:15</title></rect><text class="chromName" x="72.77" y="-12">LR761640.1<title>LR761640.1 62,107,823 bp</title></text><rect class="frame" height="370" width="145.53" x="0" y="0"/></g><g id="chrom-LR761641.1" transform="translate(1039.265271917344,0)"><polygon class="cov1" points="0,370 0,298.85 1,156.54 2,256.15 3,185 4,170.77 5,227.69 6,270.38 7,256.15 8,270.38 9,185 10,156.54 11,227.69 12,227.69 13,113.85 14,185 15,142.31 16,156.54 17,355.77 18,142.31 19,128.08 20,142.31 21,170.77 22,227.69 23,156.54 24,156.54 25,142.31 26,227.69 27,213.46 28,256.15 29,327.31 30,227.69 31,213.46 32,256.15 33,185 34,270.38 35,284.62 36,355.77 37,284.62 38,270.38 39,270.38 40,185 41,298.85 42,313.08 43,355.77 44,241.92 45,241.92 46,256.15 47,298.85 48,213.46 49,142.31 50,185 51,142.31 52,128.08 54,128.08 55,113.85 56,128.08 57,170.77 58,170.77 59,156.54 60,142.31 61,298.85 62,142.31 63,170.77 64,185 65,213.46 66,199.23 67,241.92 68,241.92 69,142.31 70,284.62 71,128.08 72,199.23 73,256.15 74,199.23 75,327.31 76,142.31 77,156.54 78,156.54 79,199.23 80,270.38 81,355.77 82,313.08 83,227.69 84,142.31 85,156.54 86,227.69 87,113.85 88,170.77 89,170.77 90,270.38 91,241.92 92,128.08 93,241.92 94,284.62 95,199.23 96,156.54 97,355.77 98,142.31 99,370 100,298.85 101,128.08 102,170.77 103,113.85 104,185 105,128.08 106,227.69 107,128.08 108,142.31 109,142.31 110,128.08 111,298.85 112,128.08 113,256.15 114,156.54 115,170.77 116,113.85 117,170.77 118,128.08 119,213.46 120,199.23 121,156.54 122,185 123,213.46 124,156.54 125,227.69 126,241.92 127,113.85 128,284.62 129,170.77 130,270.38 131,199.23 132,341.54 133,270.38 134,142.31 135,355.77 136,341.54 136.99,370"><title>LR761641.1</title></polygon><rect class="average" height="1" width="136.99" x="0" y="182.72"><title>average:13.16</title></rect><rect class="median" height="1" width="136.99" x="0" y="199.23"><title>median:12</title></rect><text class="chromName" x="68.5" y="-12">LR761641.1<title>LR761641.1 58,462,999 bp</title></text><rect class="frame" height="370" width="136.99" x="0" y="0"/></g><g id="chrom-LR761642.1" transform="translate(1177.25719230686,0)"><polygon class="cov0" points="0,370 0,313.08 1,327.31 2,327.31 3,298.85 4,341.54 5,355.77 6,327.31 7,341.54 8,355.77 9,284.62 10,256.15 11,227.69 12,241.92 13,142.31 14,185 15,199.23 16,256.15 17,199.23 18,298.85 19,256.15 20,199.23 21,170.77 22,298.85 23,241.92 24,156.54 25,128.08 26,199.23 27,156.54 28,284.62 29,156.54 30,227.69 31,142.31 32,156.54 33,185 34,170.77 35,313.08 36,142.31 37,142.31 38,113.85 39,199.23 40,142.31 41,156.54 42,128.08 43,142.31 44,156.54 45,170.77 46,142.31 47,256.15 48,256.15 49,298.85 50,199.23 51,185 52,213.46 53,128.08 54,128.08 55,227.69 56,170.77 57,199.23 58,241.92 59,170.77 60,156.54 61,327.31 62,227.69 63,142.31 64,170.77 65,142.31 66,156.54 67,327.31 68,185 69,128.08 70,142.31 71,256.15 72,142.31 73,213.46 74,128.08 75,170.77 76,313.08 77,142.31 78,142.31 79,270.38 80,256.15 81,170.77 82,327.31 83,241.92 84,298.85 85,227.69 86,270.38 86.91,370"><title>LR761642.1</title></polygon><rect class="average" height="1" width="86.91" x="0" y="182.37"><title>average:13.19</title></rect><rect class="median" height="1" width="86.91" x="0" y="213.46"><title>median:11</title></rect><text class="chromName" x="43.45" y="-12">LR761642.1<title>LR761642.1 37,089,910 bp</title></text><rect class="frame" height="370" width="86.91" x="0" y="0"/></g><g id="chrom-LR761643.1" transform="translate(1265.1671710093603,0)"><polygon class="cov1" points="0,370 0,284.62 1,241.92 2,156.54 3,128.08 4,156.54 5,213.46 6,170.77 7,170.77 8,142.31 9,113.85 10,128.08 11,170.77 12,128.08 13,199.23 14,241.92 15,142.31 16,113.85 17,156.54 18,156.54 19,170.77 20,341.54 21,170.77 22,142.31 23,128.08 24,170.77 25,170.77 26,355.77 27,298.85 28,298.85 29,142.31 30,185 31,156.54 32,241.92 33,142.31 34,185 35,199.23 36,256.15 37,128.08 38,142.31 39,128.08 40,142.31 41,156.54 42,227.69 43,270.38 44,156.54 45,170.77 46,128.08 47,241.92 48,170.77 49,142.31 50,185 51,142.31 52,142.31 53,156.54 54,170.77 55,142.31 57,142.31 58,199.23 59,128.08 60,113.85 61,142.31 62,170.77 63,142.31 64,156.54 65,199.23 66,156.54 67,156.54 68,142.31 69,156.54 70,185 72,185 73,213.46 74,128.08 75,199.23 76,142.31 77,128.08 78,199.23 79,270.38 80,142.31 81,128.08 83,128.08 84,142.31 85,128.08 86,142.31 87,128.08 88,170.77 89,327.31 90,185 91,128.08 92,128.08 93,156.54 94,128.08 95,156.54 96,128.08 99,128.08 100,142.31 101,227.69 102,142.31 103,142.31 104,156.54 105,156.54 106,128.08 107,113.85 108,156.54 109,113.85 110,128.08 111,128.08 112,142.31 113,227.69 114,156.54 115,142.31 116,113.85 117,128.08 118,128.08 119,156.54 120,128.08 121,113.85 122,128.08 123,128.08 124,142.31 125,128.08 126,113.85 127,185 128,170.77 129,128.08 130,156.54 131,213.46 132,128.08 133,241.92 134,313.08 134.83,370"><title>LR761643.1</title></polygon><rect class="average" height="1" width="134.83" x="0" y="161.57"><title>average:14.65</title></rect><rect class="median" height="1" width="134.83" x="0" y="156.54"><title>median:15</title></rect><text class="chromName" x="67.42" y="-12">LR761643.1<title>LR761643.1 57,541,580 bp</title></text><rect class="frame" height="370" width="134.83" x="0" y="0"/></g><g><line class="ruler" x1="-2" x2="1390" y1="333" y2="333"><title>2</title></line><text class="ruler" x="-5" y="333">2</text><line class="ruler" x1="-2" x2="1390" y1="296" y2="296"><title>5</title></line><text class="ruler" x="-5" y="296">5</text><line class="ruler" x1="-2" x2="1390" y1="259" y2="259"><title>7</title></line><text class="ruler" x="-5" y="259">7</text><line class="ruler" x1="-2" x2="1390" y1="222" y2="222"><title>10</title></line><text class="ruler" x="-5" y="222">10</text><line class="ruler" x1="-2" x2="1390" y1="185" y2="185"><title>13</title></line><text class="ruler" x="-5" y="185">13</text><line class="ruler" x1="-2" x2="1390" y1="148" y2="148"><title>15</title></line><text class="ruler" x="-5" y="148">15</text><line class="ruler" x1="-2" x2="1390" y1="111" y2="111"><title>18</title></line><text class="ruler" x="-5" y="111">18</text><line class="ruler" x1="-2" x2="1390" y1="74" y2="74"><title>20</title></line><text class="ruler" x="-5" y="74">20</text><line class="ruler" x1="-2" x2="1390" y1="37" y2="37"><title>23</title></line><text class="ruler" x="-5" y="37">23</text><line class="ruler" x1="-2" x2="1390" y1="0" y2="0"><title>26</title></line><text class="ruler" x="-5" y="0">26</text></g></g><text class="title" x="795" y="40">F13_M14_14.merged.realigned.bam F13_M14_14 F13_M14_14_1 F13_M14_14_2<title>./F13_M14_14.merged.realigned.bam</title></text><text class="xLabel" x="795" y="475">GCA_902806645.1_cgigas_uk_roslin_v1_genomic.fna  (589,358,857 bp)<title>../ref/GCA_902806645.1_cgigas_uk_roslin_v1_genomic.fna</title></text><text class="yLabel" transform="translate(25,265) rotate(90)" x="0" y="0">Coverage bp (median)</text></g></svg>