<?xml version="1.0" encoding="UTF-8" standalone="no"?><svg height="500" width="1500" xmlns="http://www.w3.org/2000/svg"><title>F14_M13_14.merged.realigned.bam</title><desc>Made with wgscoverageplotter undefined Author: Pierre Lindenbaum</desc><style>g.maing {stroke:black;stroke-width:0.5px;fill:none;}
text.title {stroke:none;fill:black;stroke-width:1px;text-anchor:middle;}
rect.frame {stroke:darkgray;fill:none;stroke-width:0.5px;}
text.ruler {stroke:none;fill:darkgray;stroke-width:1px;text-anchor:end;}
text.chromName {stroke:none;fill:darkgray;stroke-width:1px;text-anchor:middle;}
text.xLabel {stroke:none;fill:black;stroke-width:1px;text-anchor:middle;}
text.yLabel {stroke:none;fill:black;stroke-width:1px;text-anchor:middle;}
.cov0 {stroke:gray;fill:antiquewhite;stroke-width:0.5px;}
.cov1 {stroke:gray;fill:beige;stroke-width:0.5px;}
rect.average {stroke:green;fill:green;stroke-width:0.5px;opacity:0.3;}
rect.median {stroke:red;fill:red;stroke-width:0.5px;opacity:0.3;}
line.ruler {stroke:darkgray;stroke-dasharray:4;fill:none;stroke-width:1;}
</style><g class="maing"><g id="chromosomes" transform="translate(100.0,80.0)"><g id="chrom-LR761634.1" transform="translate(10.0,0)"><polygon class="cov0" points="0,370 0,345.33 1,160.33 2,172.67 3,308.33 4,234.33 5,185 6,283.67 7,197.33 8,160.33 9,135.67 10,160.33 11,123.33 12,160.33 13,222 14,296 15,135.67 16,123.33 17,172.67 18,123.33 20,123.33 21,135.67 22,148 24,148 25,111 27,111 28,123.33 29,111 31,111 32,259 33,98.67 34,123.33 35,135.67 36,86.33 37,185 38,185 39,135.67 40,111 42,111 43,160.33 44,135.67 45,185 46,172.67 47,123.33 48,135.67 49,135.67 50,123.33 51,123.33 52,98.67 53,123.33 54,234.33 55,271.33 56,98.67 57,86.33 58,111 59,123.33 60,135.67 61,98.67 62,135.67 63,172.67 64,185 65,160.33 66,148 67,172.67 68,111 69,197.33 70,123.33 71,111 72,209.67 73,172.67 74,135.67 75,111 76,111 77,172.67 78,148 79,135.67 80,283.67 81,296 82,98.67 83,123.33 84,135.67 85,111 86,98.67 87,185 88,111 89,259 90,160.33 91,148 92,123.33 93,148 94,111 95,123.33 96,98.67 97,185 98,308.33 99,148 100,148 101,197.33 102,148 103,160.33 104,185 105,123.33 106,209.67 107,209.67 108,234.33 109,111 110,111 111,123.33 112,135.67 113,172.67 114,296 115,209.67 116,98.67 117,135.67 118,111 119,172.67 120,160.33 121,135.67 122,148 123,135.67 124,160.33 125,135.67 126,160.33 127,148 128,209.67 129,185 130,222 130.72,370"><title>LR761634.1</title></polygon><rect class="average" height="1" width="130.72" x="0" y="148.15"><title>average:17.99</title></rect><rect class="median" height="1" width="130.72" x="0" y="148"><title>median:18</title></rect><text class="chromName" x="65.36" y="-12">LR761634.1<title>LR761634.1 55,785,328 bp</title></text><rect class="frame" height="370" width="130.72" x="0" y="0"/></g><g id="chrom-LR761635.1" transform="translate(141.71753661284166,0)"><polygon class="cov1" points="0,370 0,345.33 1,345.33 2,333 3,283.67 4,333 5,345.33 6,259 7,320.67 8,320.67 9,234.33 10,222 11,271.33 12,197.33 13,185 14,222 15,296 16,308.33 17,234.33 18,283.67 19,246.67 20,296 21,308.33 22,283.67 23,246.67 24,296 25,320.67 26,308.33 27,320.67 28,283.67 29,345.33 30,345.33 31,320.67 32,271.33 33,222 34,209.67 35,246.67 36,259 37,333 38,333 39,185 40,222 41,222 42,172.67 43,197.33 44,172.67 45,172.67 46,197.33 47,160.33 48,209.67 49,185 50,209.67 51,271.33 52,209.67 53,271.33 54,308.33 55,246.67 56,283.67 57,271.33 58,209.67 59,320.67 60,370 61,296 62,160.33 63,308.33 64,333 65,271.33 66,283.67 68,283.67 69,296 70,271.33 71,246.67 72,259 73,246.67 74,246.67 75,234.33 76,345.33 77,0 78,271.33 79,308.33 80,172.67 81,271.33 82,333 83,283.67 84,345.33 85,308.33 86,345.33 87,345.33 88,357.67 89,345.33 90,296 91,320.67 92,333 93,283.67 94,296 95,271.33 96,283.67 97,271.33 98,333 99,296 100,283.67 101,333 102,308.33 103,234.33 104,197.33 105,209.67 106,246.67 107,308.33 108,197.33 109,197.33 110,283.67 111,185 112,333 113,308.33 114,320.67 115,333 116,296 117,271.33 118,172.67 119,172.67 120,148 121,185 122,246.67 123,246.67 124,259 125,135.67 126,246.67 127,234.33 128,160.33 129,259 130,160.33 131,259 132,246.67 133,320.67 135,320.67 136,333 137,320.67 138,333 139,271.33 140,345.33 141,308.33 142,283.67 143,296 144,283.67 145,246.67 146,259 147,148 148,172.67 149,148 150,222 151,296 152,333 153,246.67 154,283.67 155,259 156,320.67 157,333 158,246.67 159,197.33 160,259 161,222 162,357.67 163,333 164,222 165,259 166,308.33 167,308.33 168,296 169,234.33 170,308.33 171,333 171.58,370"><title>LR761635.1</title></polygon><rect class="average" height="1" width="171.58" x="0" y="218.83"><title>average:12.26</title></rect><rect class="median" height="1" width="171.58" x="0" y="271.33"><title>median:8</title></rect><text class="chromName" x="85.79" y="-12">LR761635.1<title>LR761635.1 73,222,313 bp</title></text><rect class="frame" height="370" width="171.58" x="0" y="0"/></g><g id="chrom-LR761636.1" transform="translate(314.2938403401308,0)"><polygon class="cov0" points="0,370 0,345.33 1,160.33 2,271.33 3,308.33 4,259 5,172.67 7,172.67 8,135.67 9,160.33 10,135.67 11,148 12,148 13,197.33 14,123.33 15,148 16,123.33 17,111 18,135.67 19,160.33 20,123.33 22,123.33 23,98.67 24,209.67 25,123.33 26,172.67 27,246.67 28,111 29,98.67 30,111 31,86.33 32,98.67 33,111 34,123.33 35,209.67 36,135.67 37,160.33 38,123.33 39,123.33 40,135.67 41,148 42,160.33 43,135.67 44,123.33 45,123.33 46,160.33 47,148 48,222 49,135.67 50,148 51,111 52,123.33 53,123.33 54,222 55,160.33 56,148 57,123.33 58,148 59,123.33 60,160.33 61,234.33 62,148 63,123.33 64,123.33 65,148 66,123.33 67,135.67 68,148 69,148 70,185 71,86.33 72,98.67 73,148 75,148 76,320.67 77,222 78,209.67 79,259 80,259 81,123.33 82,197.33 83,135.67 84,98.67 85,135.67 86,283.67 87,148 88,135.67 89,197.33 90,135.67 91,111 92,185 93,135.67 94,123.33 95,185 96,172.67 97,111 98,123.33 99,148 100,160.33 101,111 102,148 103,98.67 104,111 105,135.67 106,123.33 107,123.33 108,98.67 109,111 110,111 111,148 112,135.67 113,148 114,98.67 116,98.67 117,123.33 118,148 119,111 120,111 121,234.33 122,111 123,123.33 124,172.67 125,123.33 126,123.33 127,234.33 128,234.33 129,123.33 130,160.33 131,185 132,172.67 133,160.33 134,135.67 135,160.33 136,308.33 136.65,370"><title>LR761636.1</title></polygon><rect class="average" height="1" width="136.65" x="0" y="144.32"><title>average:18.3</title></rect><rect class="median" height="1" width="136.65" x="0" y="148"><title>median:18</title></rect><text class="chromName" x="68.33" y="-12">LR761636.1<title>LR761636.1 58,319,100 bp</title></text><rect class="frame" height="370" width="136.65" x="0" y="0"/></g><g id="chrom-LR761637.1" transform="translate(451.9485730949149,0)"><polygon class="cov1" points="0,370 0,357.67 1,296 2,308.33 3,296 4,234.33 5,197.33 6,234.33 7,259 8,222 9,308.33 10,333 11,172.67 12,259 13,296 14,246.67 15,172.67 16,209.67 17,160.33 18,308.33 19,308.33 20,222 21,185 22,160.33 23,234.33 24,357.67 25,185 26,148 27,222 28,197.33 29,246.67 30,259 31,148 32,148 33,197.33 34,111 35,197.33 36,333 37,246.67 38,148 39,160.33 40,135.67 41,296 42,197.33 43,246.67 44,333 45,172.67 46,135.67 47,135.67 48,123.33 49,123.33 50,185 51,123.33 52,74 53,148 54,86.33 55,123.33 56,135.67 57,222 58,271.33 59,308.33 60,308.33 61,222 62,111 63,123.33 64,111 65,135.67 66,123.33 67,135.67 68,160.33 69,98.67 70,135.67 71,123.33 72,172.67 73,123.33 74,172.67 75,135.67 76,123.33 77,148 78,148 79,172.67 80,160.33 81,148 82,123.33 83,148 84,160.33 85,123.33 86,234.33 87,160.33 88,123.33 89,135.67 90,111 91,123.33 92,111 93,160.33 94,209.67 95,222 96,172.67 97,135.67 98,111 99,123.33 100,259 101,296 102,283.67 103,320.67 104,320.67 105,222 106,135.67 107,111 108,123.33 110,123.33 111,148 112,148 113,123.33 114,283.67 115,234.33 116,185 117,172.67 118,160.33 119,296 120,197.33 121,135.67 122,296 123,333 124,320.67 124.49,370"><title>LR761637.1</title></polygon><rect class="average" height="1" width="124.49" x="0" y="174.67"><title>average:15.84</title></rect><rect class="median" height="1" width="124.49" x="0" y="185"><title>median:15</title></rect><text class="chromName" x="62.25" y="-12">LR761637.1<title>LR761637.1 53,127,865 bp</title></text><rect class="frame" height="370" width="124.49" x="0" y="0"/></g><g id="chrom-LR761638.1" transform="translate(577.4390778079033,0)"><polygon class="cov0" points="0,370 0,197.33 1,86.33 2,320.67 3,148 4,246.67 5,172.67 6,209.67 7,209.67 8,222 9,148 10,197.33 11,320.67 12,148 13,172.67 14,123.33 15,172.67 16,148 17,135.67 18,246.67 19,308.33 20,148 21,222 22,135.67 23,111 24,123.33 25,160.33 26,296 27,135.67 28,185 29,320.67 30,271.33 31,148 32,357.67 33,357.67 34,197.33 35,222 36,148 37,320.67 38,296 39,345.33 40,333 41,308.33 42,234.33 43,135.67 44,160.33 45,283.67 46,197.33 47,135.67 48,123.33 49,160.33 50,148 51,172.67 52,148 53,135.67 54,209.67 55,185 56,160.33 57,246.67 58,135.67 59,209.67 60,271.33 61,259 62,160.33 63,320.67 64,320.67 65,333 66,185 67,234.33 68,209.67 69,320.67 70,185 71,345.33 72,333 73,296 74,271.33 75,320.67 76,345.33 77,197.33 78,370 79,320.67 80,296 81,172.67 82,308.33 83,333 84,296 85,209.67 86,160.33 87,172.67 88,320.67 89,135.67 90,296 91,148 92,98.67 93,123.33 94,148 95,234.33 96,296 97,135.67 98,283.67 99,197.33 100,197.33 101,185 102,333 103,185 104,283.67 105,296 106,222 107,197.33 108,259 109,172.67 110,234.33 111,209.67 112,308.33 113,246.67 114,308.33 115,320.67 116,308.33 117,345.33 118,320.67 119,333 120,320.67 121,345.33 122,345.33 123,357.67 124,308.33 125,296 126,320.67 127,283.67 128,333 129,283.67 130,320.67 131,320.67 132,283.67 133,345.33 134,259 135,308.33 136,172.67 137,370 138,357.67 139,283.67 140,357.67 141,357.67 142,345.33 143,320.67 144,209.67 145,197.33 146,246.67 147,160.33 148,172.67 149,172.67 150,197.33 151,283.67 152,197.33 153,172.67 154,259 155,296 156,222 157,259 158,296 159,296 160,320.67 161,296 162,296 163,246.67 164,296 165,357.67 166,357.67 167,333 168,308.33 169,246.67 170,357.67 171,345.33 172,345.33 172.35,370"><title>LR761638.1</title></polygon><rect class="average" height="1" width="172.35" x="0" y="211.71"><title>average:12.83</title></rect><rect class="median" height="1" width="172.35" x="0" y="259"><title>median:9</title></rect><text class="chromName" x="86.17" y="-12">LR761638.1<title>LR761638.1 73,550,375 bp</title></text><rect class="frame" height="370" width="172.35" x="0" y="0"/></g><g id="chrom-LR761639.1" transform="translate(750.784104388203,0)"><polygon class="cov1" points="0,370 0,345.33 1,185 2,172.67 3,296 4,160.33 5,234.33 6,357.67 7,259 8,148 9,135.67 10,160.33 11,271.33 12,246.67 13,135.67 14,172.67 15,123.33 16,123.33 17,111 18,111 19,98.67 20,98.67 21,135.67 22,148 23,160.33 24,172.67 25,209.67 26,172.67 27,333 28,345.33 29,185 30,308.33 31,123.33 32,148 33,135.67 34,185 35,197.33 36,222 37,135.67 38,123.33 39,123.33 40,185 41,111 42,135.67 43,98.67 44,135.67 45,111 46,148 47,123.33 48,123.33 49,148 50,148 51,111 52,172.67 53,135.67 54,123.33 55,111 56,111 57,123.33 58,123.33 59,111 60,98.67 61,111 62,123.33 63,160.33 64,98.67 65,98.67 66,123.33 67,123.33 68,135.67 69,160.33 70,123.33 71,123.33 72,135.67 73,111 74,222 75,111 76,123.33 77,123.33 78,98.67 79,111 80,135.67 81,111 82,111 83,123.33 84,197.33 85,123.33 86,98.67 87,111 88,98.67 89,111 90,111 91,135.67 92,123.33 93,160.33 94,148 95,123.33 96,123.33 97,98.67 98,98.67 99,111 100,123.33 101,98.67 102,123.33 103,123.33 104,98.67 105,111 106,246.67 107,123.33 108,98.67 109,123.33 110,111 111,320.67 112,185 113,98.67 114,160.33 115,111 116,148 117,123.33 118,123.33 119,98.67 120,135.67 121,111 122,123.33 123,123.33 124,172.67 125,148 126,123.33 127,148 128,160.33 129,135.67 130,185 131,148 132,197.33 133,320.67 134,135.67 135,185 136,172.67 137,185 138,234.33 139,209.67 140,283.67 140.95,370"><title>LR761639.1</title></polygon><rect class="average" height="1" width="140.95" x="0" y="144.48"><title>average:18.29</title></rect><rect class="median" height="1" width="140.95" x="0" y="148"><title>median:18</title></rect><text class="chromName" x="70.47" y="-12">LR761639.1<title>LR761639.1 60,151,564 bp</title></text><rect class="frame" height="370" width="140.95" x="0" y="0"/></g><g id="chrom-LR761640.1" transform="translate(892.7327113317651,0)"><polygon class="cov0" points="0,370 0,197.33 1,148 2,209.67 3,185 4,185 5,123.33 6,197.33 7,197.33 8,148 9,172.67 10,135.67 11,160.33 12,148 13,259 14,172.67 15,135.67 16,222 17,135.67 18,123.33 19,185 20,123.33 21,123.33 22,111 23,98.67 24,135.67 25,148 26,98.67 27,111 28,123.33 29,98.67 30,123.33 31,135.67 32,111 33,98.67 34,135.67 35,111 36,123.33 37,185 38,98.67 39,148 40,98.67 41,98.67 42,86.33 43,98.67 44,111 45,148 46,135.67 47,259 48,308.33 49,111 50,135.67 51,123.33 52,111 53,123.33 54,98.67 55,111 56,111 57,185 58,135.67 59,160.33 60,246.67 61,123.33 62,148 63,172.67 64,111 65,308.33 66,123.33 67,123.33 68,135.67 69,172.67 70,148 71,123.33 72,160.33 73,209.67 74,160.33 75,123.33 76,98.67 77,209.67 78,111 79,160.33 80,98.67 81,74 82,98.67 83,123.33 84,135.67 85,135.67 86,345.33 87,135.67 88,135.67 89,160.33 90,123.33 91,308.33 92,283.67 93,172.67 94,271.33 95,135.67 96,123.33 97,123.33 98,135.67 99,123.33 100,111 101,148 102,320.67 103,234.33 104,123.33 105,111 106,123.33 107,148 108,222 109,111 110,172.67 111,197.33 112,148 113,135.67 114,160.33 115,123.33 116,283.67 117,345.33 118,357.67 119,320.67 120,148 121,111 122,123.33 123,123.33 124,135.67 125,111 127,111 128,246.67 129,135.67 130,111 131,111 132,148 133,111 134,98.67 135,123.33 136,123.33 137,135.67 138,135.67 139,172.67 140,160.33 141,135.67 142,172.67 143,222 144,148 145,135.67 145.53,370"><title>LR761640.1</title></polygon><rect class="average" height="1" width="145.53" x="0" y="146.86"><title>average:18.09</title></rect><rect class="median" height="1" width="145.53" x="0" y="148"><title>median:18</title></rect><text class="chromName" x="72.77" y="-12">LR761640.1<title>LR761640.1 62,107,823 bp</title></text><rect class="frame" height="370" width="145.53" x="0" y="0"/></g><g id="chrom-LR761641.1" transform="translate(1039.265271917344,0)"><polygon class="cov1" points="0,370 0,308.33 1,197.33 2,246.67 3,197.33 4,197.33 5,246.67 6,296 7,271.33 8,320.67 9,185 10,160.33 11,222 12,234.33 13,111 14,185 15,148 16,185 17,345.33 18,160.33 19,135.67 20,148 21,172.67 22,222 23,160.33 24,172.67 25,172.67 26,234.33 27,209.67 28,271.33 29,308.33 30,234.33 31,209.67 32,271.33 33,209.67 34,283.67 35,283.67 36,333 37,246.67 38,283.67 39,246.67 40,185 41,283.67 42,320.67 43,345.33 44,246.67 45,222 46,259 47,283.67 48,246.67 49,135.67 50,197.33 51,135.67 52,111 53,123.33 54,123.33 55,111 56,123.33 57,172.67 58,172.67 59,148 60,135.67 61,271.33 62,135.67 63,185 64,197.33 65,185 66,209.67 67,246.67 68,234.33 69,160.33 70,271.33 71,135.67 72,222 73,271.33 74,209.67 75,320.67 76,185 77,172.67 78,160.33 79,222 80,283.67 81,308.33 82,296 83,246.67 84,160.33 85,160.33 86,222 87,123.33 88,160.33 89,172.67 90,296 91,234.33 92,135.67 93,259 94,283.67 95,209.67 96,185 97,357.67 98,148 99,370 100,271.33 101,135.67 102,172.67 103,135.67 104,197.33 105,148 106,259 107,135.67 108,160.33 109,148 110,148 111,283.67 112,160.33 113,259 114,172.67 115,160.33 116,123.33 117,172.67 118,135.67 119,209.67 120,197.33 121,172.67 122,185 123,197.33 124,172.67 125,222 126,246.67 127,148 128,296 129,197.33 130,271.33 131,209.67 132,333 133,271.33 134,160.33 135,357.67 136,333 136.99,370"><title>LR761641.1</title></polygon><rect class="average" height="1" width="136.99" x="0" y="185.07"><title>average:14.99</title></rect><rect class="median" height="1" width="136.99" x="0" y="209.67"><title>median:13</title></rect><text class="chromName" x="68.5" y="-12">LR761641.1<title>LR761641.1 58,462,999 bp</title></text><rect class="frame" height="370" width="136.99" x="0" y="0"/></g><g id="chrom-LR761642.1" transform="translate(1177.25719230686,0)"><polygon class="cov0" points="0,370 0,333 1,320.67 2,271.33 3,234.33 4,271.33 5,308.33 6,308.33 7,296 8,271.33 9,234.33 10,234.33 11,222 12,222 13,148 14,197.33 15,209.67 16,283.67 17,185 18,296 19,246.67 20,209.67 21,172.67 22,296 23,283.67 24,172.67 25,135.67 26,209.67 27,172.67 28,283.67 29,160.33 30,234.33 31,123.33 32,160.33 33,222 34,160.33 35,308.33 36,148 37,148 38,111 39,185 40,135.67 41,148 42,111 43,148 44,135.67 45,172.67 46,148 47,246.67 48,271.33 49,308.33 50,209.67 51,172.67 52,197.33 53,123.33 54,135.67 55,222 56,172.67 57,209.67 58,246.67 59,185 60,148 61,345.33 62,234.33 63,172.67 64,185 65,160.33 66,172.67 67,296 68,222 69,148 70,148 71,246.67 72,160.33 73,222 74,148 75,197.33 76,308.33 77,148 78,160.33 79,296 80,259 81,185 82,333 83,259 84,308.33 85,259 86,308.33 86.91,370"><title>LR761642.1</title></polygon><rect class="average" height="1" width="86.91" x="0" y="182.88"><title>average:15.17</title></rect><rect class="median" height="1" width="86.91" x="0" y="209.67"><title>median:13</title></rect><text class="chromName" x="43.45" y="-12">LR761642.1<title>LR761642.1 37,089,910 bp</title></text><rect class="frame" height="370" width="86.91" x="0" y="0"/></g><g id="chrom-LR761643.1" transform="translate(1265.1671710093603,0)"><polygon class="cov1" points="0,370 0,345.33 1,283.67 2,185 3,148 4,172.67 5,234.33 6,185 7,185 8,160.33 9,135.67 10,135.67 11,172.67 12,135.67 13,185 14,234.33 15,135.67 16,123.33 17,148 18,160.33 19,172.67 20,345.33 21,160.33 22,135.67 23,123.33 24,160.33 25,172.67 26,357.67 27,308.33 28,296 29,123.33 30,209.67 31,135.67 32,222 33,123.33 34,160.33 35,172.67 36,246.67 37,111 38,111 39,98.67 40,123.33 41,135.67 42,197.33 43,271.33 44,148 45,160.33 46,111 47,209.67 48,148 49,123.33 50,185 51,111 52,111 53,172.67 54,135.67 55,111 57,111 58,160.33 59,123.33 60,98.67 61,111 62,148 63,135.67 64,148 65,197.33 66,148 67,123.33 69,123.33 70,148 71,209.67 72,172.67 73,197.33 74,111 75,222 76,123.33 77,111 78,197.33 79,271.33 80,123.33 81,98.67 82,123.33 84,123.33 85,111 86,135.67 87,98.67 88,160.33 89,296 90,172.67 91,123.33 92,111 93,160.33 94,111 95,135.67 96,98.67 97,111 98,111 99,98.67 100,111 101,222 102,135.67 103,135.67 104,148 105,135.67 106,98.67 107,98.67 108,123.33 109,98.67 111,98.67 112,111 113,209.67 114,148 115,123.33 116,111 117,111 118,148 119,148 120,111 122,111 123,123.33 124,135.67 126,135.67 127,222 128,197.33 129,135.67 130,185 131,234.33 132,148 133,283.67 134,333 134.83,370"><title>LR761643.1</title></polygon><rect class="average" height="1" width="134.83" x="0" y="152.25"><title>average:17.66</title></rect><rect class="median" height="1" width="134.83" x="0" y="148"><title>median:18</title></rect><text class="chromName" x="67.42" y="-12">LR761643.1<title>LR761643.1 57,541,580 bp</title></text><rect class="frame" height="370" width="134.83" x="0" y="0"/></g><g><line class="ruler" x1="-2" x2="1390" y1="333" y2="333"><title>3</title></line><text class="ruler" x="-5" y="333">3</text><line class="ruler" x1="-2" x2="1390" y1="296" y2="296"><title>6</title></line><text class="ruler" x="-5" y="296">6</text><line class="ruler" x1="-2" x2="1390" y1="259" y2="259"><title>9</title></line><text class="ruler" x="-5" y="259">9</text><line class="ruler" x1="-2" x2="1390" y1="222" y2="222"><title>12</title></line><text class="ruler" x="-5" y="222">12</text><line class="ruler" x1="-2" x2="1390" y1="185" y2="185"><title>15</title></line><text class="ruler" x="-5" y="185">15</text><line class="ruler" x1="-2" x2="1390" y1="148" y2="148"><title>18</title></line><text class="ruler" x="-5" y="148">18</text><line class="ruler" x1="-2" x2="1390" y1="111" y2="111"><title>21</title></line><text class="ruler" x="-5" y="111">21</text><line class="ruler" x1="-2" x2="1390" y1="74" y2="74"><title>24</title></line><text class="ruler" x="-5" y="74">24</text><line class="ruler" x1="-2" x2="1390" y1="37" y2="37"><title>27</title></line><text class="ruler" x="-5" y="37">27</text><line class="ruler" x1="-2" x2="1390" y1="0" y2="0"><title>30</title></line><text class="ruler" x="-5" y="0">30</text></g></g><text class="title" x="795" y="40">F14_M13_14.merged.realigned.bam F14_M13_14 F14_M13_14_1 F14_M13_14_2<title>./F14_M13_14.merged.realigned.bam</title></text><text class="xLabel" x="795" y="475">GCA_902806645.1_cgigas_uk_roslin_v1_genomic.fna  (589,358,857 bp)<title>../ref/GCA_902806645.1_cgigas_uk_roslin_v1_genomic.fna</title></text><text class="yLabel" transform="translate(25,265) rotate(90)" x="0" y="0">Coverage bp (median)</text></g></svg>