<?xml version="1.0" encoding="UTF-8" standalone="no"?><svg height="500" width="1500" xmlns="http://www.w3.org/2000/svg"><title>F14_M15_14.merged.realigned.bam</title><desc>Made with wgscoverageplotter undefined Author: Pierre Lindenbaum</desc><style>g.maing {stroke:black;stroke-width:0.5px;fill:none;}
text.title {stroke:none;fill:black;stroke-width:1px;text-anchor:middle;}
rect.frame {stroke:darkgray;fill:none;stroke-width:0.5px;}
text.ruler {stroke:none;fill:darkgray;stroke-width:1px;text-anchor:end;}
text.chromName {stroke:none;fill:darkgray;stroke-width:1px;text-anchor:middle;}
text.xLabel {stroke:none;fill:black;stroke-width:1px;text-anchor:middle;}
text.yLabel {stroke:none;fill:black;stroke-width:1px;text-anchor:middle;}
.cov0 {stroke:gray;fill:antiquewhite;stroke-width:0.5px;}
.cov1 {stroke:gray;fill:beige;stroke-width:0.5px;}
rect.average {stroke:green;fill:green;stroke-width:0.5px;opacity:0.3;}
rect.median {stroke:red;fill:red;stroke-width:0.5px;opacity:0.3;}
line.ruler {stroke:darkgray;stroke-dasharray:4;fill:none;stroke-width:1;}
</style><g class="maing"><g id="chromosomes" transform="translate(100.0,80.0)"><g id="chrom-LR761634.1" transform="translate(10.0,0)"><polygon class="cov0" points="0,370 0,240.5 1,129.5 2,148 3,296 4,240.5 5,166.5 6,277.5 7,166.5 8,148 9,129.5 10,148 11,111 12,129.5 13,185 14,277.5 15,129.5 16,129.5 17,166.5 18,129.5 19,129.5 20,111 21,129.5 22,148 23,148 24,166.5 25,111 26,111 27,129.5 28,148 29,111 30,129.5 31,129.5 32,277.5 33,129.5 34,129.5 35,148 36,111 37,185 38,185 39,148 40,129.5 42,129.5 43,185 44,166.5 45,203.5 46,166.5 47,129.5 48,148 49,129.5 50,148 51,129.5 52,111 53,129.5 54,185 55,222 56,111 57,111 58,129.5 59,148 60,148 61,111 62,148 63,185 64,185 65,166.5 66,148 67,185 68,111 69,203.5 70,111 71,111 72,240.5 73,166.5 74,129.5 76,129.5 77,185 78,166.5 79,129.5 80,277.5 81,277.5 82,111 83,129.5 84,148 85,129.5 86,111 87,185 88,111 89,259 90,166.5 91,148 92,129.5 93,166.5 94,111 96,111 97,203.5 98,259 99,129.5 100,129.5 101,166.5 102,148 103,148 104,185 105,111 106,203.5 107,222 108,185 109,111 110,92.5 111,129.5 112,111 113,148 114,240.5 115,185 116,92.5 117,111 118,92.5 119,148 120,185 121,129.5 122,111 123,111 124,129.5 125,111 126,129.5 127,129.5 128,185 129,166.5 130,185 130.72,370"><title>LR761634.1</title></polygon><rect class="average" height="1" width="130.72" x="0" y="144.88"><title>average:12.17</title></rect><rect class="median" height="1" width="130.72" x="0" y="148"><title>median:12</title></rect><text class="chromName" x="65.36" y="-12">LR761634.1<title>LR761634.1 55,785,328 bp</title></text><rect class="frame" height="370" width="130.72" x="0" y="0"/></g><g id="chrom-LR761635.1" transform="translate(141.71753661284166,0)"><polygon class="cov1" points="0,370 0,351.5 1,351.5 2,333 3,259 4,333 5,370 6,222 7,277.5 8,296 9,240.5 10,203.5 11,259 12,203.5 13,129.5 14,185 15,277.5 16,296 17,222 18,277.5 19,259 20,296 21,296 22,277.5 23,259 24,314.5 25,277.5 26,296 27,333 28,296 29,333 30,351.5 31,314.5 32,259 33,222 34,185 35,240.5 36,277.5 37,333 38,314.5 39,166.5 40,185 41,240.5 42,166.5 43,166.5 44,129.5 45,148 46,203.5 47,148 48,185 49,166.5 50,203.5 51,259 52,222 53,277.5 54,333 55,240.5 56,277.5 57,277.5 58,166.5 59,296 60,351.5 61,277.5 62,148 63,296 64,314.5 65,296 66,277.5 67,277.5 68,259 69,277.5 70,296 71,203.5 72,240.5 73,203.5 74,240.5 75,185 76,351.5 77,0 78,240.5 79,314.5 80,148 81,277.5 82,314.5 83,296 84,333 85,314.5 86,351.5 89,351.5 90,296 91,333 92,314.5 93,259 94,259 95,296 96,314.5 97,296 98,314.5 99,277.5 100,314.5 101,333 102,314.5 103,240.5 104,203.5 105,203.5 106,259 107,296 108,203.5 109,111 110,277.5 111,185 112,296 113,314.5 114,314.5 115,333 116,296 117,277.5 118,166.5 119,185 120,129.5 121,166.5 122,240.5 123,240.5 124,277.5 125,129.5 126,203.5 127,222 128,166.5 129,240.5 130,166.5 131,277.5 132,222 133,296 134,314.5 137,314.5 138,333 139,222 140,333 141,296 142,277.5 143,296 144,277.5 145,240.5 146,222 147,166.5 148,166.5 149,148 150,222 151,277.5 152,351.5 153,240.5 154,314.5 155,277.5 156,277.5 157,259 158,259 159,166.5 160,240.5 161,222 162,333 163,259 164,203.5 165,203.5 166,277.5 167,296 168,259 169,259 170,296 171,314.5 171.58,370"><title>LR761635.1</title></polygon><rect class="average" height="1" width="171.58" x="0" y="206.4"><title>average:8.84</title></rect><rect class="median" height="1" width="171.58" x="0" y="259"><title>median:6</title></rect><text class="chromName" x="85.79" y="-12">LR761635.1<title>LR761635.1 73,222,313 bp</title></text><rect class="frame" height="370" width="171.58" x="0" y="0"/></g><g id="chrom-LR761636.1" transform="translate(314.2938403401308,0)"><polygon class="cov0" points="0,370 0,333 1,148 2,240.5 3,296 4,240.5 5,148 6,148 7,166.5 8,111 9,129.5 10,129.5 11,148 12,129.5 13,240.5 14,111 15,148 16,129.5 17,111 18,129.5 19,148 20,129.5 23,129.5 24,203.5 25,129.5 26,222 27,259 28,111 29,129.5 30,111 31,111 32,92.5 33,111 34,129.5 35,203.5 36,129.5 37,166.5 38,148 39,129.5 40,129.5 41,148 43,148 44,129.5 45,129.5 46,166.5 47,129.5 48,185 49,129.5 50,148 51,111 52,129.5 53,129.5 54,203.5 55,166.5 56,166.5 57,129.5 58,148 59,129.5 60,148 61,222 62,148 63,129.5 64,129.5 65,148 66,129.5 67,148 68,166.5 69,148 70,203.5 71,92.5 72,111 73,148 75,148 76,314.5 77,222 78,203.5 79,240.5 80,259 81,129.5 82,203.5 83,129.5 84,111 85,148 86,259 87,166.5 88,148 89,203.5 90,129.5 91,111 92,185 93,129.5 94,129.5 95,148 96,185 97,129.5 98,129.5 99,166.5 100,166.5 101,111 102,148 103,111 104,111 105,129.5 106,148 107,129.5 108,111 109,129.5 110,111 111,166.5 112,148 113,166.5 114,129.5 115,111 116,111 117,129.5 118,166.5 119,129.5 120,129.5 121,203.5 122,111 123,111 124,185 125,111 126,111 127,222 128,259 129,111 130,148 131,166.5 132,148 133,166.5 134,111 135,129.5 136,314.5 136.65,370"><title>LR761636.1</title></polygon><rect class="average" height="1" width="136.65" x="0" y="145.57"><title>average:12.13</title></rect><rect class="median" height="1" width="136.65" x="0" y="148"><title>median:12</title></rect><text class="chromName" x="68.33" y="-12">LR761636.1<title>LR761636.1 58,319,100 bp</title></text><rect class="frame" height="370" width="136.65" x="0" y="0"/></g><g id="chrom-LR761637.1" transform="translate(451.9485730949149,0)"><polygon class="cov1" points="0,370 0,351.5 1,277.5 2,296 3,259 4,240.5 5,185 6,259 7,240.5 8,222 9,296 10,314.5 11,166.5 12,277.5 13,296 14,296 15,166.5 16,203.5 17,92.5 18,296 19,296 20,222 21,166.5 22,148 23,240.5 24,333 25,166.5 26,148 27,222 28,203.5 29,240.5 30,259 31,148 32,148 33,166.5 34,92.5 35,203.5 36,314.5 37,222 38,148 39,148 40,129.5 41,296 42,222 43,277.5 44,314.5 45,166.5 46,148 47,148 48,111 49,129.5 50,185 51,129.5 52,92.5 53,166.5 54,92.5 55,129.5 56,148 57,222 58,277.5 59,314.5 60,296 61,222 62,129.5 63,148 64,129.5 65,148 67,148 68,185 69,111 70,148 71,148 72,185 73,129.5 74,166.5 75,166.5 76,129.5 77,148 78,148 79,185 80,148 81,148 82,129.5 83,148 84,166.5 85,129.5 86,222 87,166.5 88,129.5 89,148 90,129.5 91,129.5 92,111 93,166.5 94,185 95,222 96,185 97,148 98,111 99,111 100,259 101,314.5 102,296 103,314.5 104,333 105,222 106,111 110,111 111,148 112,129.5 113,111 114,277.5 115,222 116,166.5 117,148 118,129.5 119,296 120,166.5 121,111 122,296 123,333 124,314.5 124.49,370"><title>LR761637.1</title></polygon><rect class="average" height="1" width="124.49" x="0" y="174"><title>average:10.59</title></rect><rect class="median" height="1" width="124.49" x="0" y="185"><title>median:10</title></rect><text class="chromName" x="62.25" y="-12">LR761637.1<title>LR761637.1 53,127,865 bp</title></text><rect class="frame" height="370" width="124.49" x="0" y="0"/></g><g id="chrom-LR761638.1" transform="translate(577.4390778079033,0)"><polygon class="cov0" points="0,370 0,203.5 1,74 2,314.5 3,129.5 4,222 5,148 6,185 7,203.5 8,203.5 9,129.5 10,166.5 11,296 12,129.5 13,166.5 14,111 15,148 16,129.5 17,129.5 18,259 19,333 20,129.5 21,222 22,129.5 23,111 24,111 25,166.5 26,296 27,129.5 28,185 29,296 30,277.5 31,148 32,370 33,333 34,185 35,240.5 36,148 37,314.5 38,314.5 39,333 40,351.5 41,314.5 42,222 43,129.5 44,148 45,277.5 46,203.5 47,111 48,111 49,166.5 50,203.5 51,185 52,166.5 53,148 54,203.5 55,185 56,148 57,222 58,129.5 59,203.5 60,240.5 61,203.5 62,166.5 63,296 64,314.5 65,277.5 66,185 67,222 68,203.5 69,314.5 70,185 71,333 72,296 73,296 74,240.5 75,333 76,333 77,222 78,370 79,351.5 80,314.5 81,129.5 82,259 83,333 84,296 85,203.5 86,129.5 87,166.5 88,314.5 89,148 90,296 91,148 92,92.5 93,111 94,129.5 95,203.5 96,314.5 97,148 98,259 99,203.5 100,185 101,166.5 102,296 103,185 104,296 105,296 106,222 107,185 108,222 109,185 110,203.5 111,203.5 112,296 113,259 114,259 115,277.5 116,333 117,351.5 118,314.5 119,333 120,333 121,351.5 122,351.5 123,370 124,296 126,296 127,259 128,351.5 129,277.5 130,333 131,314.5 132,296 133,333 134,277.5 135,314.5 136,166.5 137,370 138,351.5 139,277.5 140,314.5 141,370 142,333 143,277.5 144,185 145,203.5 146,277.5 147,129.5 148,148 149,148 150,185 151,296 152,166.5 153,148 154,259 155,296 156,185 157,277.5 158,296 159,277.5 160,333 161,296 162,277.5 163,240.5 164,314.5 165,314.5 166,351.5 167,370 168,296 169,222 170,351.5 171,370 172,351.5 172.35,370"><title>LR761638.1</title></polygon><rect class="average" height="1" width="172.35" x="0" y="204.34"><title>average:8.95</title></rect><rect class="median" height="1" width="172.35" x="0" y="240.5"><title>median:7</title></rect><text class="chromName" x="86.17" y="-12">LR761638.1<title>LR761638.1 73,550,375 bp</title></text><rect class="frame" height="370" width="172.35" x="0" y="0"/></g><g id="chrom-LR761639.1" transform="translate(750.784104388203,0)"><polygon class="cov1" points="0,370 0,333 1,129.5 2,111 3,277.5 4,129.5 5,222 6,351.5 7,277.5 8,129.5 9,111 10,129.5 11,222 12,259 13,129.5 14,185 15,129.5 16,129.5 17,111 18,129.5 19,111 20,111 21,129.5 22,166.5 23,166.5 24,185 25,203.5 26,185 27,314.5 28,351.5 29,166.5 30,296 31,129.5 32,166.5 33,111 34,203.5 35,203.5 36,222 37,129.5 39,129.5 40,185 41,111 42,148 43,111 44,148 45,111 46,166.5 47,129.5 48,129.5 49,166.5 50,148 51,129.5 52,185 53,148 54,148 55,129.5 60,129.5 61,111 62,129.5 63,148 64,111 65,129.5 66,148 67,129.5 68,129.5 69,185 70,129.5 71,148 72,148 73,129.5 74,222 75,129.5 76,148 77,148 78,129.5 79,148 80,166.5 81,129.5 83,129.5 84,222 85,148 86,111 87,129.5 88,111 89,129.5 90,111 91,148 92,129.5 93,166.5 94,166.5 95,129.5 96,148 97,129.5 98,111 99,129.5 101,129.5 102,148 103,148 104,111 105,111 106,240.5 107,129.5 108,111 109,129.5 110,111 111,314.5 112,185 113,111 114,166.5 115,111 116,148 117,129.5 118,129.5 119,111 120,148 121,111 122,111 123,129.5 124,166.5 125,129.5 127,129.5 128,148 129,111 130,148 131,129.5 132,166.5 133,333 134,111 135,166.5 136,148 137,166.5 138,185 139,166.5 140,240.5 140.95,370"><title>LR761639.1</title></polygon><rect class="average" height="1" width="140.95" x="0" y="147.34"><title>average:12.04</title></rect><rect class="median" height="1" width="140.95" x="0" y="148"><title>median:12</title></rect><text class="chromName" x="70.47" y="-12">LR761639.1<title>LR761639.1 60,151,564 bp</title></text><rect class="frame" height="370" width="140.95" x="0" y="0"/></g><g id="chrom-LR761640.1" transform="translate(892.7327113317651,0)"><polygon class="cov0" points="0,370 0,185 1,111 2,166.5 4,166.5 5,92.5 6,185 7,185 8,129.5 9,148 10,129.5 11,166.5 12,111 13,240.5 14,148 15,129.5 16,203.5 17,129.5 18,111 19,185 20,129.5 22,129.5 23,111 24,148 25,148 26,111 27,129.5 28,148 29,129.5 30,129.5 31,148 32,129.5 33,129.5 34,148 35,129.5 36,129.5 37,203.5 38,111 39,166.5 40,111 41,111 42,92.5 43,111 44,111 45,148 46,148 47,259 48,333 49,111 50,148 51,148 52,111 53,148 54,111 55,111 56,129.5 57,222 58,148 59,166.5 60,259 61,129.5 62,148 63,185 64,129.5 65,259 66,129.5 67,148 68,148 69,185 70,166.5 71,129.5 72,185 73,203.5 74,166.5 75,129.5 76,129.5 77,222 78,129.5 79,148 80,92.5 82,92.5 83,129.5 85,129.5 86,351.5 87,148 88,166.5 89,166.5 90,148 91,296 92,277.5 93,185 94,277.5 95,148 96,148 97,129.5 98,166.5 99,129.5 100,111 101,148 102,333 103,240.5 104,129.5 105,111 106,129.5 107,166.5 108,222 109,129.5 110,185 111,203.5 112,129.5 113,148 114,166.5 115,129.5 116,333 117,333 118,351.5 119,314.5 120,148 121,111 122,129.5 124,129.5 125,111 126,129.5 127,129.5 128,277.5 129,148 130,129.5 131,129.5 132,148 133,129.5 134,111 135,129.5 137,129.5 138,111 139,166.5 140,129.5 141,111 142,148 143,166.5 144,129.5 145,111 145.53,370"><title>LR761640.1</title></polygon><rect class="average" height="1" width="145.53" x="0" y="150.47"><title>average:11.87</title></rect><rect class="median" height="1" width="145.53" x="0" y="148"><title>median:12</title></rect><text class="chromName" x="72.77" y="-12">LR761640.1<title>LR761640.1 62,107,823 bp</title></text><rect class="frame" height="370" width="145.53" x="0" y="0"/></g><g id="chrom-LR761641.1" transform="translate(1039.265271917344,0)"><polygon class="cov1" points="0,370 0,296 1,185 2,240.5 3,166.5 4,111 5,203.5 6,277.5 7,240.5 8,314.5 9,166.5 10,129.5 11,203.5 12,222 13,111 14,185 15,129.5 16,148 17,333 18,129.5 19,111 20,129.5 21,166.5 22,203.5 23,148 24,166.5 25,148 26,240.5 27,185 28,259 29,314.5 30,240.5 31,185 32,259 33,222 34,277.5 35,296 36,296 37,240.5 38,259 39,222 40,185 41,259 42,314.5 43,333 44,259 45,185 46,240.5 47,259 48,296 49,148 50,185 51,148 52,111 53,111 54,129.5 55,111 56,111 57,166.5 58,185 59,166.5 60,129.5 61,296 62,129.5 63,185 64,185 65,148 66,222 67,240.5 68,222 69,148 70,259 71,111 72,222 73,296 74,222 75,296 76,185 77,166.5 78,166.5 79,222 80,296 81,296 82,333 83,333 84,185 85,166.5 86,259 87,111 88,203.5 89,166.5 90,259 91,240.5 92,129.5 93,259 94,277.5 95,222 96,166.5 97,296 98,129.5 99,370 100,222 101,111 102,166.5 103,111 104,166.5 105,129.5 106,240.5 107,129.5 108,148 109,148 110,129.5 111,277.5 112,148 113,277.5 114,148 115,166.5 116,111 117,166.5 118,129.5 119,203.5 120,185 121,166.5 122,148 123,185 124,148 125,203.5 126,259 127,111 128,259 129,185 130,259 131,185 132,333 133,277.5 134,129.5 135,351.5 136,333 136.99,370"><title>LR761641.1</title></polygon><rect class="average" height="1" width="136.99" x="0" y="178"><title>average:10.38</title></rect><rect class="median" height="1" width="136.99" x="0" y="203.5"><title>median:9</title></rect><text class="chromName" x="68.5" y="-12">LR761641.1<title>LR761641.1 58,462,999 bp</title></text><rect class="frame" height="370" width="136.99" x="0" y="0"/></g><g id="chrom-LR761642.1" transform="translate(1177.25719230686,0)"><polygon class="cov0" points="0,370 0,296 1,259 2,240.5 3,203.5 4,240.5 5,277.5 6,277.5 7,259 8,240.5 9,222 10,203.5 11,166.5 12,185 13,129.5 14,185 15,222 16,296 17,203.5 18,296 19,185 20,203.5 21,166.5 22,296 23,277.5 24,166.5 25,111 26,166.5 27,185 28,296 29,148 30,240.5 31,129.5 32,148 33,240.5 34,185 35,240.5 36,148 37,185 38,129.5 39,166.5 40,129.5 41,148 42,111 43,148 44,129.5 45,185 46,148 47,240.5 48,296 49,296 50,203.5 51,166.5 52,185 53,111 54,129.5 55,222 56,166.5 57,222 58,240.5 59,129.5 60,148 61,314.5 62,203.5 63,166.5 64,203.5 65,166.5 66,166.5 67,314.5 68,240.5 69,129.5 70,129.5 71,222 72,148 73,222 74,129.5 75,185 76,296 77,129.5 78,148 79,259 80,259 81,166.5 82,314.5 83,240.5 84,296 85,259 86,314.5 86.91,370"><title>LR761642.1</title></polygon><rect class="average" height="1" width="86.91" x="0" y="169.37"><title>average:10.84</title></rect><rect class="median" height="1" width="86.91" x="0" y="203.5"><title>median:9</title></rect><text class="chromName" x="43.45" y="-12">LR761642.1<title>LR761642.1 37,089,910 bp</title></text><rect class="frame" height="370" width="86.91" x="0" y="0"/></g><g id="chrom-LR761643.1" transform="translate(1265.1671710093603,0)"><polygon class="cov1" points="0,370 0,333 1,277.5 2,166.5 3,111 4,148 5,222 6,166.5 7,166.5 8,148 9,129.5 10,129.5 11,166.5 12,129.5 13,185 14,222 15,148 16,111 17,148 18,148 19,166.5 20,351.5 21,148 22,129.5 23,111 24,185 25,166.5 26,370 27,277.5 28,314.5 29,129.5 30,203.5 31,148 32,203.5 33,129.5 34,148 35,185 36,240.5 37,129.5 39,129.5 40,148 41,148 42,185 43,277.5 44,148 45,166.5 46,111 47,240.5 48,166.5 49,148 50,185 51,129.5 52,148 53,166.5 54,166.5 55,129.5 57,129.5 58,166.5 59,129.5 60,92.5 61,111 62,166.5 63,148 64,148 65,203.5 66,148 68,148 69,129.5 70,148 71,222 72,185 73,222 74,129.5 75,240.5 76,148 77,129.5 78,203.5 79,277.5 80,129.5 81,111 82,148 83,129.5 84,111 85,129.5 86,148 87,111 88,166.5 89,314.5 90,166.5 91,129.5 92,111 93,148 94,111 95,148 96,111 97,111 98,129.5 99,111 100,129.5 101,240.5 102,129.5 103,148 105,148 106,111 107,111 108,129.5 109,111 112,111 113,203.5 114,148 115,129.5 116,111 117,111 118,148 119,148 120,111 123,111 124,129.5 125,111 126,111 127,203.5 128,166.5 129,111 130,148 131,222 132,111 133,259 134,314.5 134.83,370"><title>LR761643.1</title></polygon><rect class="average" height="1" width="134.83" x="0" y="155.32"><title>average:11.6</title></rect><rect class="median" height="1" width="134.83" x="0" y="148"><title>median:12</title></rect><text class="chromName" x="67.42" y="-12">LR761643.1<title>LR761643.1 57,541,580 bp</title></text><rect class="frame" height="370" width="134.83" x="0" y="0"/></g><g><line class="ruler" x1="-2" x2="1390" y1="333" y2="333"><title>2</title></line><text class="ruler" x="-5" y="333">2</text><line class="ruler" x1="-2" x2="1390" y1="296" y2="296"><title>4</title></line><text class="ruler" x="-5" y="296">4</text><line class="ruler" x1="-2" x2="1390" y1="259" y2="259"><title>6</title></line><text class="ruler" x="-5" y="259">6</text><line class="ruler" x1="-2" x2="1390" y1="222" y2="222"><title>8</title></line><text class="ruler" x="-5" y="222">8</text><line class="ruler" x1="-2" x2="1390" y1="185" y2="185"><title>10</title></line><text class="ruler" x="-5" y="185">10</text><line class="ruler" x1="-2" x2="1390" y1="148" y2="148"><title>12</title></line><text class="ruler" x="-5" y="148">12</text><line class="ruler" x1="-2" x2="1390" y1="111" y2="111"><title>14</title></line><text class="ruler" x="-5" y="111">14</text><line class="ruler" x1="-2" x2="1390" y1="74" y2="74"><title>16</title></line><text class="ruler" x="-5" y="74">16</text><line class="ruler" x1="-2" x2="1390" y1="37" y2="37"><title>18</title></line><text class="ruler" x="-5" y="37">18</text><line class="ruler" x1="-2" x2="1390" y1="0" y2="0"><title>20</title></line><text class="ruler" x="-5" y="0">20</text></g></g><text class="title" x="795" y="40">F14_M15_14.merged.realigned.bam F14_M15_14 F14_M15_14_1 F14_M15_14_2<title>./F14_M15_14.merged.realigned.bam</title></text><text class="xLabel" x="795" y="475">GCA_902806645.1_cgigas_uk_roslin_v1_genomic.fna  (589,358,857 bp)<title>../ref/GCA_902806645.1_cgigas_uk_roslin_v1_genomic.fna</title></text><text class="yLabel" transform="translate(25,265) rotate(90)" x="0" y="0">Coverage bp (median)</text></g></svg>