<?xml version="1.0" encoding="UTF-8" standalone="no"?><svg height="500" width="1500" xmlns="http://www.w3.org/2000/svg"><title>F14_M15_24.merged.realigned.bam</title><desc>Made with wgscoverageplotter undefined Author: Pierre Lindenbaum</desc><style>g.maing {stroke:black;stroke-width:0.5px;fill:none;}
text.title {stroke:none;fill:black;stroke-width:1px;text-anchor:middle;}
rect.frame {stroke:darkgray;fill:none;stroke-width:0.5px;}
text.ruler {stroke:none;fill:darkgray;stroke-width:1px;text-anchor:end;}
text.chromName {stroke:none;fill:darkgray;stroke-width:1px;text-anchor:middle;}
text.xLabel {stroke:none;fill:black;stroke-width:1px;text-anchor:middle;}
text.yLabel {stroke:none;fill:black;stroke-width:1px;text-anchor:middle;}
.cov0 {stroke:gray;fill:antiquewhite;stroke-width:0.5px;}
.cov1 {stroke:gray;fill:beige;stroke-width:0.5px;}
rect.average {stroke:green;fill:green;stroke-width:0.5px;opacity:0.3;}
rect.median {stroke:red;fill:red;stroke-width:0.5px;opacity:0.3;}
line.ruler {stroke:darkgray;stroke-dasharray:4;fill:none;stroke-width:1;}
</style><g class="maing"><g id="chromosomes" transform="translate(100.0,80.0)"><g id="chrom-LR761634.1" transform="translate(10.0,0)"><polygon class="cov0" points="0,370 0,246.67 1,123.33 2,154.17 3,277.5 4,231.25 5,215.83 6,277.5 7,169.58 8,138.75 9,123.33 10,154.17 11,107.92 12,138.75 13,200.42 14,262.08 15,138.75 16,123.33 17,231.25 18,138.75 19,138.75 20,123.33 21,138.75 22,154.17 23,154.17 24,169.58 25,123.33 26,138.75 27,138.75 28,154.17 29,123.33 30,138.75 31,138.75 32,262.08 33,138.75 34,138.75 35,154.17 36,138.75 37,185 38,185 39,138.75 40,138.75 41,123.33 42,138.75 43,185 44,154.17 45,200.42 46,185 47,154.17 48,169.58 49,154.17 51,154.17 52,138.75 53,154.17 54,154.17 55,123.33 56,107.92 57,123.33 58,138.75 59,154.17 60,154.17 61,123.33 62,154.17 63,185 64,215.83 65,169.58 66,154.17 67,200.42 68,138.75 69,215.83 70,154.17 71,138.75 72,231.25 73,169.58 74,138.75 75,138.75 76,154.17 77,185 78,169.58 79,138.75 80,277.5 81,277.5 82,123.33 83,138.75 84,154.17 85,138.75 86,123.33 87,200.42 88,123.33 89,262.08 90,169.58 91,154.17 92,138.75 93,154.17 94,107.92 95,138.75 96,107.92 97,185 98,231.25 99,123.33 100,123.33 101,138.75 102,154.17 103,169.58 104,200.42 105,123.33 106,200.42 107,200.42 108,215.83 109,123.33 110,107.92 111,123.33 112,123.33 113,169.58 114,246.67 115,185 116,107.92 117,107.92 118,92.5 119,138.75 120,154.17 121,123.33 122,107.92 123,107.92 124,123.33 125,107.92 126,107.92 127,123.33 128,169.58 129,138.75 130,169.58 130.72,370"><title>LR761634.1</title></polygon><rect class="average" height="1" width="130.72" x="0" y="150.28"><title>average:14.25</title></rect><rect class="median" height="1" width="130.72" x="0" y="154.17"><title>median:14</title></rect><text class="chromName" x="65.36" y="-12">LR761634.1<title>LR761634.1 55,785,328 bp</title></text><rect class="frame" height="370" width="130.72" x="0" y="0"/></g><g id="chrom-LR761635.1" transform="translate(141.71753661284166,0)"><polygon class="cov1" points="0,370 0,339.17 1,354.58 2,323.75 3,292.92 4,339.17 5,354.58 6,185 7,277.5 9,277.5 10,246.67 11,292.92 12,246.67 13,123.33 14,185 15,262.08 16,292.92 17,231.25 18,277.5 19,215.83 20,292.92 21,308.33 22,277.5 23,231.25 24,308.33 25,323.75 26,323.75 27,308.33 28,246.67 29,339.17 30,339.17 31,323.75 32,246.67 33,215.83 34,200.42 35,200.42 36,246.67 37,323.75 38,292.92 39,185 40,246.67 41,215.83 42,154.17 43,185 44,107.92 45,154.17 46,200.42 47,154.17 48,277.5 49,169.58 50,231.25 51,323.75 52,215.83 53,231.25 54,323.75 55,292.92 56,370 57,292.92 58,169.58 59,292.92 60,323.75 61,277.5 62,138.75 63,292.92 64,308.33 65,277.5 66,277.5 67,262.08 68,262.08 69,277.5 70,277.5 71,185 72,231.25 73,215.83 74,215.83 75,200.42 76,339.17 77,0 78,231.25 79,277.5 80,138.75 81,277.5 82,292.92 83,292.92 84,339.17 85,308.33 86,323.75 87,354.58 88,339.17 89,354.58 90,277.5 91,292.92 92,308.33 93,308.33 94,231.25 95,308.33 96,308.33 97,339.17 98,308.33 99,308.33 100,292.92 101,354.58 102,308.33 103,215.83 104,215.83 105,185 106,246.67 107,292.92 108,185 109,123.33 110,308.33 111,185 112,308.33 113,323.75 114,308.33 115,323.75 116,292.92 117,292.92 118,169.58 119,169.58 120,123.33 121,185 122,246.67 123,231.25 124,277.5 125,138.75 126,215.83 127,292.92 128,169.58 129,323.75 130,185 131,246.67 132,200.42 133,292.92 134,323.75 135,292.92 136,292.92 137,308.33 138,308.33 139,215.83 140,339.17 141,277.5 142,231.25 143,292.92 144,262.08 145,200.42 146,215.83 147,185 148,169.58 149,138.75 150,200.42 151,262.08 152,323.75 153,231.25 154,323.75 155,277.5 156,277.5 157,231.25 158,292.92 159,154.17 160,215.83 161,262.08 162,292.92 163,185 164,200.42 165,246.67 166,292.92 167,323.75 168,277.5 169,277.5 170,323.75 171,323.75 171.58,370"><title>LR761635.1</title></polygon><rect class="average" height="1" width="171.58" x="0" y="202.78"><title>average:10.85</title></rect><rect class="median" height="1" width="171.58" x="0" y="262.08"><title>median:7</title></rect><text class="chromName" x="85.79" y="-12">LR761635.1<title>LR761635.1 73,222,313 bp</title></text><rect class="frame" height="370" width="171.58" x="0" y="0"/></g><g id="chrom-LR761636.1" transform="translate(314.2938403401308,0)"><polygon class="cov0" points="0,370 0,339.17 1,169.58 2,200.42 3,323.75 4,262.08 5,138.75 6,154.17 7,169.58 8,107.92 9,138.75 10,107.92 11,123.33 12,138.75 13,215.83 14,107.92 15,138.75 16,123.33 17,107.92 18,138.75 19,123.33 23,123.33 24,185 25,123.33 26,185 27,262.08 28,123.33 29,107.92 30,123.33 33,123.33 34,154.17 35,185 36,138.75 37,154.17 38,154.17 39,138.75 40,138.75 41,169.58 42,169.58 43,154.17 44,138.75 45,138.75 46,169.58 47,138.75 48,200.42 49,154.17 50,169.58 51,123.33 52,138.75 53,138.75 54,215.83 55,169.58 56,154.17 57,123.33 58,169.58 59,138.75 60,169.58 61,215.83 62,169.58 63,154.17 64,138.75 65,154.17 67,154.17 68,169.58 69,154.17 70,185 71,107.92 72,123.33 73,154.17 74,169.58 75,154.17 76,323.75 77,231.25 78,215.83 79,246.67 80,262.08 81,138.75 82,215.83 83,138.75 84,123.33 85,154.17 86,262.08 87,154.17 88,138.75 89,215.83 90,154.17 91,123.33 92,185 93,154.17 94,138.75 95,138.75 96,215.83 97,138.75 98,138.75 99,185 100,154.17 101,123.33 102,169.58 103,107.92 104,123.33 105,138.75 106,154.17 107,138.75 110,138.75 111,169.58 112,154.17 113,154.17 114,138.75 115,123.33 116,123.33 117,154.17 118,185 119,138.75 120,138.75 121,185 122,123.33 123,123.33 124,185 125,123.33 126,123.33 127,200.42 128,277.5 129,107.92 130,138.75 131,138.75 132,154.17 133,154.17 134,123.33 135,123.33 136,277.5 136.65,370"><title>LR761636.1</title></polygon><rect class="average" height="1" width="136.65" x="0" y="152.73"><title>average:14.09</title></rect><rect class="median" height="1" width="136.65" x="0" y="154.17"><title>median:14</title></rect><text class="chromName" x="68.33" y="-12">LR761636.1<title>LR761636.1 58,319,100 bp</title></text><rect class="frame" height="370" width="136.65" x="0" y="0"/></g><g id="chrom-LR761637.1" transform="translate(451.9485730949149,0)"><polygon class="cov1" points="0,370 0,339.17 1,262.08 2,277.5 3,231.25 4,231.25 5,169.58 6,231.25 7,246.67 8,246.67 9,308.33 10,277.5 11,185 12,262.08 13,262.08 14,308.33 15,169.58 16,231.25 17,61.67 18,231.25 19,231.25 20,200.42 21,138.75 22,138.75 23,215.83 24,323.75 25,138.75 26,138.75 27,231.25 28,200.42 29,215.83 30,262.08 31,154.17 32,138.75 33,154.17 34,123.33 35,200.42 36,292.92 37,231.25 38,154.17 40,154.17 41,277.5 42,231.25 43,292.92 44,308.33 45,169.58 46,154.17 47,154.17 48,138.75 49,138.75 50,185 51,138.75 52,107.92 53,169.58 54,123.33 55,138.75 56,169.58 57,231.25 58,277.5 59,308.33 60,308.33 61,231.25 62,138.75 63,154.17 64,154.17 65,169.58 66,154.17 67,154.17 68,185 69,138.75 70,154.17 71,154.17 72,200.42 73,138.75 74,185 75,185 76,154.17 77,169.58 78,185 79,185 80,169.58 81,154.17 82,138.75 83,154.17 84,169.58 85,138.75 86,231.25 87,154.17 88,123.33 89,154.17 90,123.33 91,138.75 92,138.75 93,154.17 94,200.42 95,215.83 96,185 97,138.75 98,107.92 99,123.33 100,246.67 101,292.92 103,292.92 104,323.75 105,185 106,107.92 110,107.92 111,123.33 112,138.75 113,123.33 114,323.75 115,231.25 116,169.58 117,154.17 118,138.75 119,292.92 120,154.17 121,123.33 122,323.75 123,323.75 124,292.92 124.49,370"><title>LR761637.1</title></polygon><rect class="average" height="1" width="124.49" x="0" y="175.31"><title>average:12.63</title></rect><rect class="median" height="1" width="124.49" x="0" y="185"><title>median:12</title></rect><text class="chromName" x="62.25" y="-12">LR761637.1<title>LR761637.1 53,127,865 bp</title></text><rect class="frame" height="370" width="124.49" x="0" y="0"/></g><g id="chrom-LR761638.1" transform="translate(577.4390778079033,0)"><polygon class="cov0" points="0,370 0,215.83 1,138.75 2,308.33 3,123.33 4,246.67 5,138.75 6,185 7,200.42 8,185 9,123.33 10,138.75 11,277.5 12,123.33 13,154.17 14,107.92 15,154.17 16,123.33 17,123.33 18,277.5 19,308.33 20,138.75 21,215.83 22,123.33 24,123.33 25,154.17 26,323.75 27,107.92 28,185 29,323.75 30,262.08 31,138.75 32,354.58 33,339.17 34,185 35,215.83 36,154.17 37,308.33 38,292.92 39,308.33 40,339.17 41,323.75 42,200.42 43,138.75 44,138.75 45,277.5 46,169.58 47,107.92 48,107.92 49,200.42 50,354.58 51,231.25 52,169.58 53,169.58 54,200.42 55,215.83 56,138.75 57,215.83 58,154.17 59,169.58 60,200.42 61,200.42 62,138.75 63,292.92 64,339.17 65,292.92 66,215.83 67,215.83 68,169.58 69,308.33 70,169.58 71,323.75 72,308.33 73,292.92 74,231.25 75,323.75 76,323.75 77,231.25 78,277.5 79,262.08 80,262.08 81,154.17 82,231.25 83,339.17 84,292.92 85,200.42 86,107.92 87,169.58 88,308.33 89,138.75 90,292.92 91,169.58 92,107.92 93,107.92 94,138.75 95,200.42 96,308.33 97,185 98,262.08 99,215.83 100,200.42 101,154.17 102,231.25 103,185 104,277.5 105,277.5 106,215.83 107,185 108,231.25 109,185 110,200.42 111,185 112,277.5 113,231.25 114,262.08 115,262.08 116,323.75 117,339.17 118,308.33 119,323.75 120,292.92 121,354.58 123,354.58 124,308.33 125,292.92 126,308.33 127,262.08 128,370 129,292.92 130,323.75 131,308.33 132,277.5 133,339.17 134,262.08 135,323.75 136,154.17 137,370 138,339.17 139,277.5 140,308.33 141,339.17 142,354.58 143,262.08 144,154.17 145,185 146,277.5 147,123.33 148,154.17 149,154.17 150,185 151,323.75 152,154.17 153,154.17 154,246.67 155,277.5 156,185 157,292.92 158,292.92 159,277.5 160,308.33 161,292.92 162,277.5 163,292.92 164,262.08 165,308.33 166,339.17 167,354.58 168,277.5 169,215.83 170,354.58 171,339.17 172,339.17 172.35,370"><title>LR761638.1</title></polygon><rect class="average" height="1" width="172.35" x="0" y="201.92"><title>average:10.9</title></rect><rect class="median" height="1" width="172.35" x="0" y="246.67"><title>median:8</title></rect><text class="chromName" x="86.17" y="-12">LR761638.1<title>LR761638.1 73,550,375 bp</title></text><rect class="frame" height="370" width="172.35" x="0" y="0"/></g><g id="chrom-LR761639.1" transform="translate(750.784104388203,0)"><polygon class="cov1" points="0,370 0,292.92 1,123.33 2,123.33 3,262.08 4,138.75 5,231.25 6,354.58 7,277.5 8,138.75 9,123.33 10,154.17 11,215.83 12,262.08 13,138.75 14,169.58 15,138.75 17,138.75 18,123.33 20,123.33 21,138.75 22,154.17 23,169.58 24,169.58 25,215.83 26,169.58 27,308.33 28,354.58 29,200.42 30,308.33 31,138.75 32,169.58 33,123.33 34,215.83 35,200.42 36,231.25 37,138.75 39,138.75 40,200.42 41,123.33 42,154.17 43,123.33 44,154.17 45,138.75 46,169.58 47,154.17 48,154.17 49,169.58 50,169.58 51,138.75 52,169.58 54,169.58 55,154.17 56,138.75 57,154.17 58,154.17 59,138.75 63,138.75 64,123.33 65,138.75 66,185 67,138.75 68,138.75 69,215.83 70,154.17 73,154.17 74,215.83 75,138.75 76,154.17 77,154.17 78,138.75 79,138.75 80,154.17 81,138.75 82,138.75 83,154.17 84,215.83 85,154.17 86,138.75 87,154.17 88,138.75 89,154.17 90,123.33 91,154.17 92,154.17 93,185 94,169.58 95,154.17 96,154.17 97,138.75 98,138.75 99,154.17 100,154.17 101,138.75 102,154.17 103,154.17 104,138.75 105,138.75 106,262.08 107,138.75 108,123.33 109,138.75 110,138.75 111,323.75 112,200.42 113,123.33 114,185 115,123.33 116,154.17 117,138.75 118,138.75 119,123.33 120,154.17 121,123.33 123,123.33 124,154.17 125,123.33 127,123.33 128,154.17 129,123.33 130,154.17 131,138.75 132,169.58 133,323.75 134,107.92 135,169.58 136,154.17 137,154.17 138,169.58 139,169.58 140,262.08 140.95,370"><title>LR761639.1</title></polygon><rect class="average" height="1" width="140.95" x="0" y="157.47"><title>average:13.79</title></rect><rect class="median" height="1" width="140.95" x="0" y="154.17"><title>median:14</title></rect><text class="chromName" x="70.47" y="-12">LR761639.1<title>LR761639.1 60,151,564 bp</title></text><rect class="frame" height="370" width="140.95" x="0" y="0"/></g><g id="chrom-LR761640.1" transform="translate(892.7327113317651,0)"><polygon class="cov0" points="0,370 0,185 1,123.33 2,185 3,169.58 4,154.17 5,107.92 6,185 7,185 8,123.33 9,154.17 10,123.33 11,154.17 12,107.92 13,231.25 14,154.17 15,138.75 16,215.83 17,138.75 18,123.33 19,185 20,123.33 21,138.75 22,138.75 23,123.33 24,154.17 25,169.58 26,138.75 27,138.75 28,154.17 30,154.17 31,169.58 32,138.75 33,123.33 34,154.17 35,138.75 36,154.17 37,200.42 38,123.33 39,169.58 40,123.33 41,138.75 42,123.33 43,123.33 44,138.75 45,154.17 46,123.33 47,246.67 48,308.33 49,138.75 50,169.58 51,138.75 52,123.33 53,154.17 54,123.33 55,123.33 56,138.75 57,231.25 58,154.17 59,200.42 60,231.25 61,138.75 62,154.17 63,185 64,138.75 65,231.25 66,138.75 67,154.17 68,169.58 69,200.42 70,185 71,154.17 72,185 73,200.42 74,185 75,154.17 76,154.17 77,231.25 78,154.17 79,169.58 80,107.92 81,92.5 82,123.33 83,138.75 85,138.75 86,339.17 87,154.17 88,169.58 90,169.58 91,277.5 92,277.5 93,215.83 94,277.5 95,154.17 97,154.17 98,169.58 99,154.17 100,138.75 101,185 102,339.17 103,246.67 104,138.75 106,138.75 107,185 108,185 109,138.75 110,169.58 111,200.42 112,138.75 113,169.58 114,154.17 115,138.75 116,262.08 117,262.08 118,277.5 119,262.08 120,154.17 121,123.33 122,138.75 123,138.75 124,154.17 125,138.75 127,138.75 128,262.08 129,154.17 130,138.75 131,138.75 132,154.17 133,138.75 134,107.92 135,123.33 136,138.75 137,138.75 138,107.92 139,154.17 140,138.75 141,107.92 142,138.75 143,123.33 144,107.92 145,107.92 145.53,370"><title>LR761640.1</title></polygon><rect class="average" height="1" width="145.53" x="0" y="157.13"><title>average:13.81</title></rect><rect class="median" height="1" width="145.53" x="0" y="154.17"><title>median:14</title></rect><text class="chromName" x="72.77" y="-12">LR761640.1<title>LR761640.1 62,107,823 bp</title></text><rect class="frame" height="370" width="145.53" x="0" y="0"/></g><g id="chrom-LR761641.1" transform="translate(1039.265271917344,0)"><polygon class="cov1" points="0,370 0,277.5 1,154.17 2,262.08 3,169.58 4,92.5 5,185 6,246.67 7,231.25 8,246.67 9,169.58 10,138.75 11,200.42 12,231.25 13,107.92 14,169.58 15,123.33 16,123.33 17,339.17 18,123.33 19,123.33 20,138.75 21,169.58 22,200.42 23,154.17 24,169.58 25,138.75 26,246.67 27,215.83 28,231.25 29,308.33 30,231.25 31,185 32,246.67 33,200.42 34,262.08 35,292.92 37,292.92 38,246.67 39,246.67 40,185 41,277.5 42,323.75 43,339.17 44,246.67 45,200.42 46,246.67 47,277.5 48,246.67 49,154.17 50,185 51,154.17 52,123.33 56,123.33 57,169.58 58,185 59,169.58 60,138.75 61,354.58 62,138.75 63,185 64,185 65,169.58 66,200.42 67,231.25 68,215.83 69,154.17 70,277.5 71,107.92 72,200.42 73,292.92 74,200.42 75,277.5 76,154.17 78,154.17 79,200.42 80,277.5 81,354.58 82,354.58 83,292.92 84,169.58 85,154.17 86,246.67 87,107.92 88,200.42 89,154.17 90,246.67 91,262.08 92,123.33 93,231.25 94,277.5 95,215.83 96,154.17 97,292.92 98,138.75 99,370 100,262.08 101,107.92 102,169.58 103,107.92 104,169.58 105,123.33 106,231.25 107,123.33 108,138.75 109,123.33 110,123.33 111,292.92 112,107.92 113,277.5 114,138.75 115,185 116,107.92 117,154.17 118,123.33 119,215.83 120,200.42 121,154.17 122,154.17 123,215.83 124,154.17 125,215.83 126,262.08 127,107.92 128,262.08 129,169.58 130,277.5 131,185 132,354.58 133,262.08 134,138.75 135,354.58 136,339.17 136.99,370"><title>LR761641.1</title></polygon><rect class="average" height="1" width="136.99" x="0" y="178.03"><title>average:12.45</title></rect><rect class="median" height="1" width="136.99" x="0" y="200.42"><title>median:11</title></rect><text class="chromName" x="68.5" y="-12">LR761641.1<title>LR761641.1 58,462,999 bp</title></text><rect class="frame" height="370" width="136.99" x="0" y="0"/></g><g id="chrom-LR761642.1" transform="translate(1177.25719230686,0)"><polygon class="cov0" points="0,370 0,292.92 1,262.08 2,308.33 3,292.92 4,323.75 5,354.58 6,292.92 7,308.33 8,323.75 9,308.33 10,215.83 11,185 12,215.83 13,123.33 14,169.58 15,185 16,277.5 17,231.25 18,292.92 19,185 20,185 21,169.58 22,292.92 23,246.67 24,154.17 25,123.33 26,138.75 27,169.58 28,292.92 29,154.17 30,231.25 31,138.75 32,154.17 33,200.42 34,200.42 35,246.67 36,138.75 37,169.58 38,123.33 39,169.58 40,138.75 41,154.17 42,123.33 43,138.75 44,154.17 45,185 46,138.75 47,246.67 48,277.5 49,292.92 50,185 51,185 52,215.83 53,123.33 54,123.33 55,231.25 56,154.17 57,200.42 58,231.25 59,138.75 60,138.75 61,308.33 62,200.42 63,138.75 64,185 65,154.17 66,154.17 67,339.17 68,215.83 69,123.33 70,123.33 71,231.25 72,138.75 73,200.42 74,138.75 75,169.58 76,323.75 77,138.75 78,123.33 79,246.67 80,246.67 81,169.58 82,323.75 83,246.67 84,292.92 85,231.25 86,292.92 86.91,370"><title>LR761642.1</title></polygon><rect class="average" height="1" width="86.91" x="0" y="169.74"><title>average:12.99</title></rect><rect class="median" height="1" width="86.91" x="0" y="200.42"><title>median:11</title></rect><text class="chromName" x="43.45" y="-12">LR761642.1<title>LR761642.1 37,089,910 bp</title></text><rect class="frame" height="370" width="86.91" x="0" y="0"/></g><g id="chrom-LR761643.1" transform="translate(1265.1671710093603,0)"><polygon class="cov1" points="0,370 0,277.5 1,231.25 2,138.75 3,107.92 4,138.75 5,200.42 6,154.17 7,169.58 8,138.75 9,123.33 10,138.75 11,169.58 12,138.75 13,200.42 14,246.67 15,154.17 16,107.92 17,138.75 18,154.17 19,154.17 20,354.58 21,169.58 22,138.75 23,123.33 24,200.42 25,169.58 26,370 27,277.5 28,323.75 29,138.75 30,185 31,154.17 32,215.83 33,154.17 34,154.17 35,215.83 36,262.08 37,138.75 38,154.17 39,138.75 40,154.17 41,154.17 42,200.42 43,277.5 44,169.58 45,185 46,123.33 47,262.08 48,169.58 49,154.17 50,185 51,154.17 53,154.17 54,169.58 55,154.17 56,138.75 57,154.17 58,200.42 59,138.75 60,107.92 61,138.75 62,185 63,154.17 64,169.58 65,200.42 66,169.58 67,169.58 68,154.17 69,154.17 70,169.58 71,200.42 72,200.42 73,215.83 74,138.75 75,215.83 76,154.17 77,138.75 78,215.83 79,277.5 80,154.17 81,138.75 82,154.17 83,138.75 84,123.33 85,138.75 86,154.17 87,123.33 88,169.58 89,339.17 90,169.58 91,138.75 92,123.33 93,154.17 94,138.75 95,154.17 96,138.75 98,138.75 99,123.33 100,138.75 101,231.25 102,138.75 103,154.17 104,169.58 105,154.17 106,138.75 107,138.75 108,154.17 109,123.33 110,138.75 111,123.33 112,138.75 113,231.25 114,154.17 115,138.75 116,123.33 117,123.33 118,138.75 119,169.58 120,123.33 123,123.33 124,138.75 125,123.33 126,107.92 127,185 128,154.17 129,107.92 130,138.75 131,200.42 132,107.92 133,200.42 134,308.33 134.83,370"><title>LR761643.1</title></polygon><rect class="average" height="1" width="134.83" x="0" y="161.35"><title>average:13.53</title></rect><rect class="median" height="1" width="134.83" x="0" y="154.17"><title>median:14</title></rect><text class="chromName" x="67.42" y="-12">LR761643.1<title>LR761643.1 57,541,580 bp</title></text><rect class="frame" height="370" width="134.83" x="0" y="0"/></g><g><line class="ruler" x1="-2" x2="1390" y1="333" y2="333"><title>2</title></line><text class="ruler" x="-5" y="333">2</text><line class="ruler" x1="-2" x2="1390" y1="296" y2="296"><title>4</title></line><text class="ruler" x="-5" y="296">4</text><line class="ruler" x1="-2" x2="1390" y1="259" y2="259"><title>7</title></line><text class="ruler" x="-5" y="259">7</text><line class="ruler" x1="-2" x2="1390" y1="222" y2="222"><title>9</title></line><text class="ruler" x="-5" y="222">9</text><line class="ruler" x1="-2" x2="1390" y1="185" y2="185"><title>12</title></line><text class="ruler" x="-5" y="185">12</text><line class="ruler" x1="-2" x2="1390" y1="148" y2="148"><title>14</title></line><text class="ruler" x="-5" y="148">14</text><line class="ruler" x1="-2" x2="1390" y1="111" y2="111"><title>16</title></line><text class="ruler" x="-5" y="111">16</text><line class="ruler" x1="-2" x2="1390" y1="74" y2="74"><title>19</title></line><text class="ruler" x="-5" y="74">19</text><line class="ruler" x1="-2" x2="1390" y1="37" y2="37"><title>21</title></line><text class="ruler" x="-5" y="37">21</text><line class="ruler" x1="-2" x2="1390" y1="0" y2="0"><title>24</title></line><text class="ruler" x="-5" y="0">24</text></g></g><text class="title" x="795" y="40">F14_M15_24.merged.realigned.bam F14_M15_24 F14_M15_24_1 F14_M15_24_2<title>./F14_M15_24.merged.realigned.bam</title></text><text class="xLabel" x="795" y="475">GCA_902806645.1_cgigas_uk_roslin_v1_genomic.fna  (589,358,857 bp)<title>../ref/GCA_902806645.1_cgigas_uk_roslin_v1_genomic.fna</title></text><text class="yLabel" transform="translate(25,265) rotate(90)" x="0" y="0">Coverage bp (median)</text></g></svg>