<?xml version="1.0" encoding="UTF-8" standalone="no"?><svg height="500" width="1500" xmlns="http://www.w3.org/2000/svg"><title>F14_M14_14.merged.realigned.bam</title><desc>Made with wgscoverageplotter undefined Author: Pierre Lindenbaum</desc><style>g.maing {stroke:black;stroke-width:0.5px;fill:none;}
text.title {stroke:none;fill:black;stroke-width:1px;text-anchor:middle;}
rect.frame {stroke:darkgray;fill:none;stroke-width:0.5px;}
text.ruler {stroke:none;fill:darkgray;stroke-width:1px;text-anchor:end;}
text.chromName {stroke:none;fill:darkgray;stroke-width:1px;text-anchor:middle;}
text.xLabel {stroke:none;fill:black;stroke-width:1px;text-anchor:middle;}
text.yLabel {stroke:none;fill:black;stroke-width:1px;text-anchor:middle;}
.cov0 {stroke:gray;fill:antiquewhite;stroke-width:0.5px;}
.cov1 {stroke:gray;fill:beige;stroke-width:0.5px;}
rect.average {stroke:green;fill:green;stroke-width:0.5px;opacity:0.3;}
rect.median {stroke:red;fill:red;stroke-width:0.5px;opacity:0.3;}
line.ruler {stroke:darkgray;stroke-dasharray:4;fill:none;stroke-width:1;}
</style><g class="maing"><g id="chromosomes" transform="translate(100.0,80.0)"><g id="chrom-LR761634.1" transform="translate(10.0,0)"><polygon class="cov0" points="0,370 0,323.75 1,138.75 2,154.17 3,292.92 4,246.67 5,169.58 6,277.5 7,185 8,154.17 9,138.75 10,169.58 11,123.33 12,154.17 13,200.42 14,292.92 15,138.75 16,138.75 17,154.17 18,138.75 19,123.33 20,123.33 21,138.75 22,154.17 23,169.58 24,154.17 25,107.92 26,123.33 27,123.33 28,138.75 29,123.33 30,138.75 31,123.33 32,262.08 33,123.33 34,138.75 35,154.17 36,107.92 37,200.42 38,215.83 39,154.17 40,123.33 42,123.33 43,169.58 44,169.58 45,200.42 46,154.17 47,138.75 48,154.17 49,123.33 50,154.17 51,138.75 52,123.33 53,138.75 54,246.67 55,292.92 56,107.92 57,107.92 58,123.33 59,154.17 60,154.17 61,107.92 62,154.17 63,169.58 64,185 65,169.58 66,154.17 67,185 68,123.33 69,200.42 70,138.75 71,123.33 72,215.83 73,169.58 74,138.75 75,123.33 76,138.75 77,185 78,169.58 79,138.75 80,277.5 81,292.92 82,123.33 83,138.75 84,154.17 85,138.75 86,123.33 87,185 88,123.33 89,262.08 90,169.58 91,138.75 92,123.33 93,154.17 94,123.33 95,123.33 96,107.92 97,185 98,262.08 99,138.75 100,138.75 101,200.42 102,154.17 103,154.17 104,185 105,107.92 106,200.42 107,215.83 108,231.25 109,123.33 110,123.33 111,138.75 112,123.33 113,154.17 114,292.92 115,200.42 116,107.92 117,123.33 118,123.33 119,154.17 120,185 121,123.33 122,138.75 124,138.75 125,123.33 126,138.75 127,154.17 128,200.42 129,154.17 130,185 130.72,370"><title>LR761634.1</title></polygon><rect class="average" height="1" width="130.72" x="0" y="154.87"><title>average:13.95</title></rect><rect class="median" height="1" width="130.72" x="0" y="154.17"><title>median:14</title></rect><text class="chromName" x="65.36" y="-12">LR761634.1<title>LR761634.1 55,785,328 bp</title></text><rect class="frame" height="370" width="130.72" x="0" y="0"/></g><g id="chrom-LR761635.1" transform="translate(141.71753661284166,0)"><polygon class="cov1" points="0,370 0,354.58 1,354.58 2,339.17 3,262.08 4,323.75 5,323.75 6,231.25 7,308.33 8,339.17 9,154.17 10,107.92 11,231.25 12,77.08 13,154.17 14,215.83 15,277.5 16,308.33 17,215.83 18,277.5 19,215.83 20,292.92 21,308.33 22,292.92 23,215.83 24,292.92 25,308.33 26,277.5 27,323.75 28,277.5 29,339.17 30,323.75 31,308.33 32,246.67 33,200.42 34,185 35,246.67 36,262.08 37,308.33 38,323.75 39,185 40,200.42 41,215.83 42,169.58 43,200.42 44,169.58 45,169.58 46,200.42 47,154.17 48,200.42 49,185 50,200.42 51,277.5 52,215.83 53,262.08 54,308.33 55,215.83 56,262.08 57,277.5 58,200.42 59,308.33 60,370 61,277.5 62,169.58 63,292.92 64,323.75 65,292.92 66,292.92 67,262.08 68,277.5 69,292.92 70,277.5 71,215.83 72,246.67 73,215.83 74,231.25 75,200.42 76,339.17 77,30.83 78,262.08 79,308.33 80,154.17 81,292.92 82,323.75 83,277.5 84,339.17 85,292.92 86,339.17 87,339.17 88,323.75 89,308.33 90,262.08 91,339.17 92,308.33 93,262.08 94,277.5 95,277.5 96,308.33 97,277.5 98,308.33 99,277.5 100,277.5 101,292.92 102,308.33 103,231.25 104,215.83 105,200.42 106,277.5 107,308.33 108,215.83 109,169.58 110,262.08 111,185 112,308.33 113,323.75 114,308.33 115,323.75 116,292.92 117,277.5 118,169.58 119,169.58 120,138.75 121,154.17 122,246.67 123,231.25 124,277.5 125,138.75 126,215.83 127,185 128,169.58 129,215.83 130,154.17 131,292.92 132,215.83 133,308.33 134,323.75 135,292.92 136,308.33 138,308.33 139,277.5 140,354.58 141,292.92 142,292.92 143,277.5 144,277.5 145,246.67 146,246.67 147,123.33 148,169.58 149,154.17 150,246.67 151,277.5 152,339.17 153,246.67 154,292.92 155,262.08 156,308.33 157,308.33 158,246.67 159,185 160,231.25 161,215.83 162,339.17 163,277.5 164,215.83 165,231.25 166,292.92 167,308.33 168,277.5 169,231.25 170,277.5 171,323.75 171.58,370"><title>LR761635.1</title></polygon><rect class="average" height="1" width="171.58" x="0" y="208.21"><title>average:10.49</title></rect><rect class="median" height="1" width="171.58" x="0" y="262.08"><title>median:7</title></rect><text class="chromName" x="85.79" y="-12">LR761635.1<title>LR761635.1 73,222,313 bp</title></text><rect class="frame" height="370" width="171.58" x="0" y="0"/></g><g id="chrom-LR761636.1" transform="translate(314.2938403401308,0)"><polygon class="cov0" points="0,370 0,339.17 1,169.58 2,277.5 3,277.5 4,246.67 5,154.17 6,138.75 7,154.17 8,123.33 9,138.75 10,123.33 11,154.17 12,138.75 13,246.67 14,107.92 15,138.75 16,138.75 17,123.33 18,138.75 19,185 20,138.75 21,138.75 22,123.33 23,123.33 24,215.83 25,123.33 26,215.83 27,277.5 28,123.33 30,123.33 31,107.92 32,107.92 33,123.33 34,138.75 35,200.42 36,138.75 37,185 38,138.75 39,123.33 40,107.92 41,154.17 42,138.75 43,169.58 44,123.33 45,138.75 46,169.58 47,138.75 48,200.42 49,154.17 50,154.17 51,123.33 52,138.75 53,138.75 54,200.42 55,154.17 56,154.17 57,123.33 58,154.17 59,138.75 60,154.17 61,200.42 62,169.58 63,138.75 64,138.75 65,154.17 66,138.75 67,154.17 68,154.17 69,138.75 70,215.83 71,107.92 72,123.33 73,154.17 75,154.17 76,308.33 77,231.25 78,215.83 79,262.08 80,262.08 81,138.75 82,200.42 83,154.17 84,123.33 85,138.75 86,323.75 87,169.58 88,154.17 89,200.42 90,154.17 91,123.33 92,169.58 93,154.17 94,138.75 95,169.58 96,169.58 97,123.33 98,138.75 99,169.58 100,154.17 101,123.33 102,154.17 103,107.92 104,123.33 105,138.75 107,138.75 108,107.92 109,123.33 110,123.33 111,154.17 112,138.75 113,154.17 114,123.33 115,107.92 116,123.33 117,138.75 118,169.58 119,138.75 120,123.33 121,262.08 122,123.33 123,123.33 124,185 125,123.33 126,123.33 127,246.67 128,277.5 129,123.33 130,154.17 131,169.58 132,154.17 133,138.75 134,123.33 135,123.33 136,308.33 136.65,370"><title>LR761636.1</title></polygon><rect class="average" height="1" width="136.65" x="0" y="152.6"><title>average:14.1</title></rect><rect class="median" height="1" width="136.65" x="0" y="154.17"><title>median:14</title></rect><text class="chromName" x="68.33" y="-12">LR761636.1<title>LR761636.1 58,319,100 bp</title></text><rect class="frame" height="370" width="136.65" x="0" y="0"/></g><g id="chrom-LR761637.1" transform="translate(451.9485730949149,0)"><polygon class="cov1" points="0,370 0,354.58 1,277.5 2,262.08 3,262.08 4,231.25 5,185 6,262.08 7,262.08 8,231.25 9,277.5 10,339.17 11,154.17 12,231.25 13,292.92 14,308.33 15,169.58 16,215.83 17,123.33 18,292.92 19,308.33 20,200.42 21,200.42 22,169.58 23,200.42 24,354.58 25,169.58 26,138.75 27,246.67 28,185 29,215.83 30,246.67 31,169.58 32,154.17 33,185 34,107.92 35,200.42 36,323.75 37,231.25 38,154.17 39,138.75 40,154.17 41,308.33 42,231.25 43,246.67 44,323.75 45,200.42 46,154.17 47,138.75 48,123.33 49,138.75 50,200.42 51,138.75 52,92.5 53,169.58 54,107.92 55,138.75 56,138.75 57,215.83 58,292.92 59,308.33 60,308.33 61,215.83 62,123.33 63,138.75 64,138.75 65,154.17 66,138.75 67,154.17 68,185 69,123.33 70,154.17 71,138.75 72,169.58 73,138.75 74,169.58 75,169.58 76,138.75 77,154.17 78,154.17 79,185 80,154.17 81,154.17 82,138.75 83,138.75 84,154.17 85,123.33 86,231.25 87,169.58 88,138.75 89,138.75 90,123.33 91,138.75 92,123.33 93,169.58 94,200.42 95,215.83 96,185 97,154.17 98,107.92 99,123.33 100,292.92 101,323.75 102,308.33 103,339.17 104,339.17 105,231.25 106,123.33 109,123.33 110,107.92 111,169.58 112,138.75 113,123.33 114,277.5 115,215.83 116,185 117,185 118,169.58 119,308.33 120,185 121,123.33 122,292.92 123,339.17 124,308.33 124.49,370"><title>LR761637.1</title></polygon><rect class="average" height="1" width="124.49" x="0" y="180.63"><title>average:12.28</title></rect><rect class="median" height="1" width="124.49" x="0" y="185"><title>median:12</title></rect><text class="chromName" x="62.25" y="-12">LR761637.1<title>LR761637.1 53,127,865 bp</title></text><rect class="frame" height="370" width="124.49" x="0" y="0"/></g><g id="chrom-LR761638.1" transform="translate(577.4390778079033,0)"><polygon class="cov0" points="0,370 0,215.83 1,138.75 2,308.33 3,123.33 4,169.58 5,92.5 6,200.42 7,200.42 8,231.25 9,138.75 10,169.58 11,308.33 12,138.75 13,169.58 14,123.33 15,169.58 16,123.33 17,123.33 18,277.5 19,308.33 20,123.33 21,215.83 22,138.75 23,123.33 24,123.33 25,169.58 26,262.08 27,123.33 28,185 29,323.75 30,277.5 31,154.17 32,354.58 33,354.58 34,185 35,246.67 36,154.17 37,292.92 38,308.33 39,339.17 40,339.17 41,308.33 42,262.08 43,138.75 44,154.17 45,292.92 46,169.58 47,123.33 48,123.33 49,200.42 50,215.83 51,215.83 52,169.58 53,169.58 54,231.25 55,215.83 56,154.17 57,231.25 58,138.75 59,200.42 60,231.25 61,246.67 62,154.17 63,308.33 64,308.33 65,323.75 66,200.42 67,215.83 68,169.58 69,262.08 70,185 71,339.17 72,339.17 73,308.33 74,246.67 75,339.17 76,323.75 77,200.42 78,323.75 79,323.75 80,292.92 81,154.17 82,292.92 83,323.75 84,292.92 85,185 86,169.58 87,169.58 88,308.33 89,138.75 90,292.92 91,154.17 92,107.92 93,123.33 94,154.17 95,231.25 96,277.5 97,123.33 98,262.08 99,185 100,200.42 101,169.58 102,323.75 103,185 104,246.67 105,292.92 106,231.25 107,185 108,246.67 109,169.58 110,231.25 111,215.83 112,308.33 113,231.25 114,262.08 115,308.33 116,323.75 117,354.58 118,323.75 119,323.75 120,308.33 121,339.17 122,339.17 123,354.58 124,292.92 125,292.92 126,308.33 127,262.08 128,354.58 129,292.92 130,339.17 131,323.75 132,277.5 133,339.17 134,277.5 135,323.75 136,169.58 137,370 138,354.58 139,292.92 140,339.17 141,370 142,339.17 143,292.92 144,200.42 145,200.42 146,277.5 147,138.75 148,154.17 149,154.17 150,185 151,308.33 152,169.58 153,154.17 154,246.67 155,231.25 156,215.83 157,262.08 158,292.92 159,246.67 160,262.08 161,246.67 162,231.25 163,231.25 164,246.67 165,246.67 166,277.5 167,292.92 168,231.25 169,185 170,277.5 171,292.92 172,277.5 172.35,370"><title>LR761638.1</title></polygon><rect class="average" height="1" width="172.35" x="0" y="205.32"><title>average:10.68</title></rect><rect class="median" height="1" width="172.35" x="0" y="246.67"><title>median:8</title></rect><text class="chromName" x="86.17" y="-12">LR761638.1<title>LR761638.1 73,550,375 bp</title></text><rect class="frame" height="370" width="172.35" x="0" y="0"/></g><g id="chrom-LR761639.1" transform="translate(750.784104388203,0)"><polygon class="cov1" points="0,370 0,339.17 1,154.17 2,154.17 3,292.92 4,138.75 5,231.25 6,354.58 7,277.5 8,138.75 9,123.33 10,154.17 11,262.08 12,246.67 13,123.33 14,169.58 15,123.33 17,123.33 18,138.75 19,123.33 20,123.33 21,138.75 22,154.17 23,169.58 24,185 25,215.83 26,185 27,323.75 28,354.58 29,185 30,308.33 31,138.75 32,154.17 33,138.75 34,215.83 35,200.42 36,215.83 37,123.33 38,123.33 39,138.75 40,215.83 41,123.33 42,138.75 43,92.5 44,138.75 45,123.33 46,154.17 47,123.33 48,123.33 49,154.17 50,138.75 51,123.33 52,185 53,154.17 54,138.75 55,123.33 56,123.33 57,138.75 58,138.75 59,123.33 61,123.33 62,138.75 63,154.17 64,107.92 65,123.33 66,154.17 67,138.75 68,138.75 69,185 70,138.75 71,138.75 72,154.17 73,123.33 74,215.83 75,123.33 76,138.75 77,138.75 78,123.33 79,138.75 80,169.58 81,123.33 82,123.33 83,138.75 84,200.42 85,138.75 86,123.33 87,138.75 88,123.33 89,123.33 90,107.92 91,154.17 92,138.75 93,169.58 94,154.17 95,138.75 96,123.33 98,123.33 99,138.75 100,138.75 101,123.33 102,123.33 103,138.75 104,107.92 105,123.33 106,246.67 107,138.75 108,107.92 109,123.33 110,123.33 111,323.75 112,185 113,123.33 114,169.58 115,107.92 116,154.17 117,138.75 118,123.33 119,123.33 120,154.17 121,123.33 123,123.33 124,169.58 125,138.75 127,138.75 128,154.17 129,123.33 130,169.58 131,138.75 132,185 133,339.17 134,123.33 135,169.58 137,169.58 138,200.42 139,169.58 140,262.08 140.95,370"><title>LR761639.1</title></polygon><rect class="average" height="1" width="140.95" x="0" y="151.98"><title>average:14.14</title></rect><rect class="median" height="1" width="140.95" x="0" y="154.17"><title>median:14</title></rect><text class="chromName" x="70.47" y="-12">LR761639.1<title>LR761639.1 60,151,564 bp</title></text><rect class="frame" height="370" width="140.95" x="0" y="0"/></g><g id="chrom-LR761640.1" transform="translate(892.7327113317651,0)"><polygon class="cov0" points="0,370 0,215.83 1,123.33 2,185 3,169.58 4,169.58 5,107.92 6,200.42 7,200.42 8,138.75 9,154.17 10,138.75 11,138.75 12,123.33 13,231.25 14,154.17 15,138.75 16,215.83 17,138.75 18,123.33 19,185 20,123.33 21,138.75 22,123.33 23,107.92 24,123.33 25,138.75 26,107.92 27,123.33 28,138.75 29,123.33 30,138.75 31,123.33 32,138.75 33,123.33 34,154.17 35,123.33 36,123.33 37,200.42 38,107.92 39,154.17 40,107.92 41,123.33 42,92.5 43,107.92 44,123.33 45,138.75 46,169.58 47,231.25 48,277.5 49,123.33 50,138.75 51,138.75 52,123.33 53,138.75 54,123.33 56,123.33 57,215.83 58,154.17 59,154.17 60,246.67 61,123.33 62,154.17 63,169.58 64,123.33 65,308.33 66,138.75 67,154.17 68,138.75 69,185 70,169.58 71,138.75 72,169.58 73,215.83 74,169.58 75,138.75 76,123.33 77,215.83 78,123.33 79,154.17 80,92.5 82,92.5 83,123.33 84,138.75 85,138.75 86,354.58 87,154.17 88,154.17 89,169.58 90,154.17 91,292.92 92,277.5 93,185 94,292.92 95,154.17 96,154.17 97,138.75 98,154.17 99,138.75 100,123.33 101,169.58 102,339.17 103,231.25 104,123.33 106,123.33 107,169.58 108,215.83 109,138.75 110,185 111,200.42 112,154.17 113,154.17 114,185 115,123.33 116,308.33 117,339.17 118,354.58 119,323.75 120,154.17 121,123.33 123,123.33 124,138.75 125,123.33 127,123.33 128,262.08 129,154.17 130,123.33 131,123.33 132,154.17 133,123.33 134,107.92 135,123.33 136,138.75 138,138.75 139,185 140,123.33 141,123.33 142,154.17 143,169.58 144,123.33 145,138.75 145.53,370"><title>LR761640.1</title></polygon><rect class="average" height="1" width="145.53" x="0" y="153.79"><title>average:14.02</title></rect><rect class="median" height="1" width="145.53" x="0" y="154.17"><title>median:14</title></rect><text class="chromName" x="72.77" y="-12">LR761640.1<title>LR761640.1 62,107,823 bp</title></text><rect class="frame" height="370" width="145.53" x="0" y="0"/></g><g id="chrom-LR761641.1" transform="translate(1039.265271917344,0)"><polygon class="cov1" points="0,370 0,323.75 1,154.17 2,262.08 3,200.42 4,200.42 5,215.83 6,308.33 7,231.25 8,308.33 9,154.17 10,138.75 11,215.83 12,215.83 13,92.5 14,200.42 15,123.33 16,154.17 17,292.92 18,154.17 19,138.75 20,138.75 21,169.58 22,200.42 23,154.17 24,185 25,169.58 26,246.67 27,200.42 28,246.67 29,292.92 30,231.25 31,200.42 32,246.67 33,200.42 34,277.5 35,292.92 36,339.17 37,246.67 38,262.08 39,231.25 40,200.42 41,292.92 42,323.75 43,339.17 44,246.67 45,231.25 46,246.67 47,262.08 48,246.67 49,138.75 50,185 51,154.17 52,123.33 54,123.33 55,107.92 56,107.92 57,154.17 58,169.58 59,154.17 60,138.75 61,277.5 62,138.75 63,200.42 64,185 65,185 66,215.83 67,246.67 68,231.25 69,154.17 70,262.08 71,123.33 72,215.83 73,323.75 74,215.83 75,308.33 76,185 77,200.42 78,169.58 79,246.67 80,277.5 81,308.33 82,323.75 83,292.92 84,169.58 85,169.58 86,262.08 87,123.33 88,200.42 89,185 90,231.25 91,262.08 92,138.75 93,215.83 94,246.67 95,200.42 96,215.83 97,323.75 98,138.75 99,370 100,231.25 101,138.75 102,169.58 103,123.33 104,185 105,138.75 106,246.67 107,138.75 108,154.17 109,154.17 110,138.75 111,277.5 112,154.17 113,246.67 114,154.17 115,154.17 116,123.33 117,169.58 118,123.33 119,215.83 120,231.25 121,169.58 122,169.58 123,200.42 124,154.17 125,215.83 126,262.08 127,123.33 128,277.5 129,185 130,262.08 131,185 132,354.58 133,277.5 134,138.75 135,354.58 136,339.17 136.99,370"><title>LR761641.1</title></polygon><rect class="average" height="1" width="136.99" x="0" y="183.8"><title>average:12.08</title></rect><rect class="median" height="1" width="136.99" x="0" y="200.42"><title>median:11</title></rect><text class="chromName" x="68.5" y="-12">LR761641.1<title>LR761641.1 58,462,999 bp</title></text><rect class="frame" height="370" width="136.99" x="0" y="0"/></g><g id="chrom-LR761642.1" transform="translate(1177.25719230686,0)"><polygon class="cov0" points="0,370 0,339.17 1,308.33 2,200.42 3,154.17 4,169.58 5,231.25 6,262.08 7,231.25 8,200.42 9,185 10,169.58 11,154.17 12,169.58 13,123.33 14,154.17 15,231.25 16,277.5 17,169.58 18,231.25 19,169.58 20,185 21,138.75 22,246.67 23,262.08 24,154.17 25,123.33 26,154.17 27,154.17 28,246.67 29,154.17 30,215.83 31,138.75 32,169.58 33,262.08 34,154.17 35,246.67 36,138.75 37,138.75 38,123.33 39,185 40,138.75 41,154.17 42,123.33 43,154.17 44,138.75 45,185 46,154.17 47,246.67 48,215.83 49,277.5 50,169.58 51,154.17 52,185 53,123.33 54,138.75 55,215.83 56,169.58 57,200.42 58,231.25 59,154.17 60,154.17 61,339.17 62,185 63,169.58 64,200.42 65,169.58 66,169.58 67,308.33 68,231.25 69,138.75 70,138.75 71,215.83 72,169.58 73,215.83 74,138.75 75,200.42 76,292.92 77,138.75 78,154.17 79,292.92 80,262.08 81,169.58 82,323.75 83,262.08 84,308.33 85,246.67 86,308.33 86.91,370"><title>LR761642.1</title></polygon><rect class="average" height="1" width="86.91" x="0" y="164.01"><title>average:13.36</title></rect><rect class="median" height="1" width="86.91" x="0" y="185"><title>median:12</title></rect><text class="chromName" x="43.45" y="-12">LR761642.1<title>LR761642.1 37,089,910 bp</title></text><rect class="frame" height="370" width="86.91" x="0" y="0"/></g><g id="chrom-LR761643.1" transform="translate(1265.1671710093603,0)"><polygon class="cov1" points="0,370 0,339.17 1,277.5 2,169.58 3,138.75 4,138.75 5,231.25 6,169.58 7,169.58 8,138.75 9,123.33 10,138.75 11,169.58 12,123.33 13,200.42 14,231.25 15,138.75 16,123.33 17,169.58 18,154.17 19,185 20,339.17 21,169.58 22,138.75 23,123.33 24,154.17 25,169.58 26,354.58 27,308.33 28,308.33 29,123.33 30,215.83 31,154.17 32,200.42 33,138.75 34,169.58 35,185 36,246.67 37,123.33 38,138.75 39,123.33 40,138.75 41,154.17 42,169.58 43,262.08 44,154.17 45,185 46,138.75 47,231.25 48,154.17 49,154.17 50,200.42 51,138.75 52,138.75 53,169.58 54,169.58 55,138.75 56,123.33 57,123.33 58,169.58 59,123.33 60,107.92 61,123.33 62,154.17 63,138.75 64,154.17 65,185 66,154.17 68,154.17 69,138.75 70,138.75 71,215.83 72,185 73,215.83 74,123.33 75,231.25 76,138.75 77,123.33 78,215.83 79,262.08 80,123.33 81,123.33 82,138.75 83,123.33 85,123.33 86,138.75 87,123.33 88,169.58 89,292.92 90,169.58 91,138.75 92,123.33 93,138.75 94,123.33 95,154.17 96,123.33 98,123.33 99,107.92 100,123.33 101,231.25 102,138.75 105,138.75 106,123.33 107,123.33 108,138.75 109,107.92 111,107.92 112,123.33 113,200.42 114,154.17 115,123.33 116,107.92 117,107.92 118,123.33 119,154.17 120,107.92 123,107.92 124,138.75 125,123.33 126,123.33 127,169.58 128,169.58 129,123.33 130,154.17 131,215.83 132,123.33 133,215.83 134,246.67 134.83,370"><title>LR761643.1</title></polygon><rect class="average" height="1" width="134.83" x="0" y="157.74"><title>average:13.77</title></rect><rect class="median" height="1" width="134.83" x="0" y="154.17"><title>median:14</title></rect><text class="chromName" x="67.42" y="-12">LR761643.1<title>LR761643.1 57,541,580 bp</title></text><rect class="frame" height="370" width="134.83" x="0" y="0"/></g><g><line class="ruler" x1="-2" x2="1390" y1="333" y2="333"><title>2</title></line><text class="ruler" x="-5" y="333">2</text><line class="ruler" x1="-2" x2="1390" y1="296" y2="296"><title>4</title></line><text class="ruler" x="-5" y="296">4</text><line class="ruler" x1="-2" x2="1390" y1="259" y2="259"><title>7</title></line><text class="ruler" x="-5" y="259">7</text><line class="ruler" x1="-2" x2="1390" y1="222" y2="222"><title>9</title></line><text class="ruler" x="-5" y="222">9</text><line class="ruler" x1="-2" x2="1390" y1="185" y2="185"><title>12</title></line><text class="ruler" x="-5" y="185">12</text><line class="ruler" x1="-2" x2="1390" y1="148" y2="148"><title>14</title></line><text class="ruler" x="-5" y="148">14</text><line class="ruler" x1="-2" x2="1390" y1="111" y2="111"><title>16</title></line><text class="ruler" x="-5" y="111">16</text><line class="ruler" x1="-2" x2="1390" y1="74" y2="74"><title>19</title></line><text class="ruler" x="-5" y="74">19</text><line class="ruler" x1="-2" x2="1390" y1="37" y2="37"><title>21</title></line><text class="ruler" x="-5" y="37">21</text><line class="ruler" x1="-2" x2="1390" y1="0" y2="0"><title>24</title></line><text class="ruler" x="-5" y="0">24</text></g></g><text class="title" x="795" y="40">F14_M14_14.merged.realigned.bam F14_M14_14 F14_M14_14_1 F14_M14_14_2<title>./F14_M14_14.merged.realigned.bam</title></text><text class="xLabel" x="795" y="475">GCA_902806645.1_cgigas_uk_roslin_v1_genomic.fna  (589,358,857 bp)<title>../ref/GCA_902806645.1_cgigas_uk_roslin_v1_genomic.fna</title></text><text class="yLabel" transform="translate(25,265) rotate(90)" x="0" y="0">Coverage bp (median)</text></g></svg>