<?xml version="1.0" encoding="UTF-8" standalone="no"?><svg height="500" width="1500" xmlns="http://www.w3.org/2000/svg"><title>F14_M14_24.merged.realigned.bam</title><desc>Made with wgscoverageplotter undefined Author: Pierre Lindenbaum</desc><style>g.maing {stroke:black;stroke-width:0.5px;fill:none;}
text.title {stroke:none;fill:black;stroke-width:1px;text-anchor:middle;}
rect.frame {stroke:darkgray;fill:none;stroke-width:0.5px;}
text.ruler {stroke:none;fill:darkgray;stroke-width:1px;text-anchor:end;}
text.chromName {stroke:none;fill:darkgray;stroke-width:1px;text-anchor:middle;}
text.xLabel {stroke:none;fill:black;stroke-width:1px;text-anchor:middle;}
text.yLabel {stroke:none;fill:black;stroke-width:1px;text-anchor:middle;}
.cov0 {stroke:gray;fill:antiquewhite;stroke-width:0.5px;}
.cov1 {stroke:gray;fill:beige;stroke-width:0.5px;}
rect.average {stroke:green;fill:green;stroke-width:0.5px;opacity:0.3;}
rect.median {stroke:red;fill:red;stroke-width:0.5px;opacity:0.3;}
line.ruler {stroke:darkgray;stroke-dasharray:4;fill:none;stroke-width:1;}
</style><g class="maing"><g id="chromosomes" transform="translate(100.0,80.0)"><g id="chrom-LR761634.1" transform="translate(10.0,0)"><polygon class="cov0" points="0,370 0,313.08 1,142.31 2,170.77 3,270.38 4,241.92 5,185 6,270.38 7,199.23 8,156.54 9,128.08 10,156.54 11,128.08 12,156.54 13,241.92 14,284.62 15,142.31 16,128.08 17,199.23 18,142.31 19,128.08 20,128.08 21,142.31 22,156.54 23,170.77 24,156.54 25,128.08 27,128.08 28,142.31 29,128.08 30,128.08 31,142.31 32,270.38 33,142.31 34,142.31 35,156.54 36,128.08 37,199.23 38,199.23 39,142.31 40,142.31 41,128.08 42,142.31 43,170.77 44,170.77 45,213.46 46,170.77 47,142.31 48,156.54 49,142.31 50,156.54 51,142.31 53,142.31 54,227.69 55,284.62 56,128.08 57,113.85 58,142.31 59,156.54 60,156.54 61,128.08 62,156.54 63,170.77 64,199.23 65,170.77 66,156.54 67,199.23 68,128.08 69,199.23 70,142.31 71,128.08 72,213.46 73,185 74,156.54 75,128.08 76,142.31 77,185 78,170.77 79,142.31 80,270.38 81,284.62 82,128.08 83,142.31 84,156.54 85,142.31 86,128.08 87,199.23 88,128.08 89,270.38 90,170.77 91,156.54 92,128.08 93,156.54 94,113.85 95,128.08 96,113.85 97,142.31 98,270.38 99,128.08 100,142.31 101,185 102,156.54 103,156.54 104,185 105,113.85 106,185 107,185 108,256.15 109,113.85 110,113.85 111,142.31 112,128.08 113,142.31 114,298.85 115,199.23 116,113.85 117,128.08 118,113.85 119,170.77 120,156.54 121,113.85 122,128.08 124,128.08 125,113.85 126,128.08 127,156.54 128,199.23 129,156.54 130,199.23 130.72,370"><title>LR761634.1</title></polygon><rect class="average" height="1" width="130.72" x="0" y="157.2"><title>average:14.95</title></rect><rect class="median" height="1" width="130.72" x="0" y="156.54"><title>median:15</title></rect><text class="chromName" x="65.36" y="-12">LR761634.1<title>LR761634.1 55,785,328 bp</title></text><rect class="frame" height="370" width="130.72" x="0" y="0"/></g><g id="chrom-LR761635.1" transform="translate(141.71753661284166,0)"><polygon class="cov1" points="0,370 0,355.77 1,341.54 2,327.31 3,270.38 4,341.54 5,313.08 6,156.54 7,313.08 8,327.31 9,213.46 10,185 11,284.62 12,170.77 13,128.08 14,199.23 15,227.69 16,313.08 17,213.46 18,284.62 19,227.69 20,313.08 21,298.85 22,284.62 23,213.46 24,313.08 25,327.31 26,313.08 27,327.31 28,284.62 29,355.77 30,327.31 31,313.08 32,213.46 33,199.23 34,213.46 35,241.92 36,185 37,170.77 38,355.77 39,185 40,270.38 41,241.92 42,185 43,241.92 44,185 45,170.77 46,213.46 47,156.54 48,256.15 49,185 50,241.92 51,341.54 52,256.15 53,241.92 54,313.08 55,270.38 56,327.31 57,256.15 58,170.77 59,313.08 60,313.08 61,256.15 62,128.08 63,256.15 64,313.08 65,256.15 66,284.62 67,270.38 68,213.46 69,284.62 70,313.08 71,199.23 72,227.69 73,213.46 74,256.15 75,199.23 76,341.54 77,14.23 78,270.38 79,313.08 80,142.31 81,313.08 82,313.08 83,284.62 84,355.77 85,298.85 86,327.31 87,341.54 88,327.31 89,313.08 90,256.15 91,284.62 92,298.85 93,298.85 94,284.62 95,284.62 96,341.54 97,313.08 98,298.85 99,313.08 100,284.62 101,284.62 102,313.08 103,256.15 104,270.38 105,185 106,298.85 107,284.62 108,199.23 109,128.08 110,284.62 111,185 112,327.31 113,341.54 114,298.85 115,341.54 116,298.85 117,270.38 118,185 119,170.77 120,142.31 121,170.77 122,227.69 123,227.69 124,241.92 125,142.31 126,199.23 127,199.23 128,156.54 129,213.46 130,170.77 131,298.85 132,213.46 133,284.62 134,313.08 135,284.62 136,298.85 138,298.85 139,270.38 140,341.54 141,298.85 142,298.85 143,270.38 144,284.62 145,241.92 146,241.92 147,142.31 148,156.54 149,142.31 150,227.69 151,270.38 152,327.31 153,213.46 154,298.85 155,270.38 156,298.85 157,313.08 158,241.92 159,185 160,213.46 161,227.69 162,298.85 163,199.23 164,256.15 165,284.62 166,327.31 167,341.54 168,313.08 169,284.62 170,313.08 171,327.31 171.58,370"><title>LR761635.1</title></polygon><rect class="average" height="1" width="171.58" x="0" y="208.51"><title>average:11.35</title></rect><rect class="median" height="1" width="171.58" x="0" y="270.38"><title>median:7</title></rect><text class="chromName" x="85.79" y="-12">LR761635.1<title>LR761635.1 73,222,313 bp</title></text><rect class="frame" height="370" width="171.58" x="0" y="0"/></g><g id="chrom-LR761636.1" transform="translate(314.2938403401308,0)"><polygon class="cov0" points="0,370 0,341.54 1,170.77 2,241.92 3,270.38 4,213.46 5,128.08 6,128.08 7,142.31 8,128.08 9,142.31 10,113.85 11,142.31 12,142.31 13,256.15 14,113.85 15,142.31 16,128.08 17,113.85 18,142.31 19,156.54 20,128.08 21,142.31 22,128.08 23,128.08 24,199.23 25,142.31 26,213.46 27,270.38 28,128.08 30,128.08 31,113.85 32,113.85 33,128.08 34,142.31 35,199.23 36,142.31 37,185 38,142.31 39,128.08 40,156.54 41,170.77 42,156.54 43,170.77 44,142.31 45,156.54 46,170.77 47,128.08 48,170.77 49,156.54 50,156.54 51,113.85 52,142.31 53,142.31 54,227.69 55,156.54 56,156.54 57,128.08 58,156.54 59,128.08 60,156.54 61,213.46 62,170.77 63,142.31 64,142.31 65,156.54 66,142.31 67,156.54 68,170.77 69,156.54 70,227.69 71,113.85 72,128.08 73,170.77 74,156.54 75,156.54 76,313.08 77,241.92 78,227.69 79,256.15 80,270.38 81,142.31 82,199.23 83,156.54 84,128.08 85,142.31 86,298.85 87,156.54 88,156.54 89,213.46 90,156.54 91,128.08 92,185 93,156.54 94,128.08 95,185 96,185 97,142.31 98,142.31 99,185 100,156.54 101,128.08 102,142.31 103,113.85 104,128.08 105,128.08 106,156.54 107,128.08 109,128.08 110,142.31 111,156.54 113,156.54 114,128.08 115,128.08 116,142.31 117,142.31 118,170.77 119,142.31 120,142.31 121,270.38 122,142.31 123,128.08 124,185 125,113.85 126,113.85 127,185 128,270.38 129,113.85 130,156.54 133,156.54 134,128.08 135,142.31 136,298.85 136.65,370"><title>LR761636.1</title></polygon><rect class="average" height="1" width="136.65" x="0" y="155.65"><title>average:15.06</title></rect><rect class="median" height="1" width="136.65" x="0" y="156.54"><title>median:15</title></rect><text class="chromName" x="68.33" y="-12">LR761636.1<title>LR761636.1 58,319,100 bp</title></text><rect class="frame" height="370" width="136.65" x="0" y="0"/></g><g id="chrom-LR761637.1" transform="translate(451.9485730949149,0)"><polygon class="cov1" points="0,370 0,355.77 1,298.85 2,298.85 3,284.62 4,227.69 5,170.77 6,256.15 7,241.92 8,227.69 9,298.85 10,327.31 11,156.54 12,241.92 13,270.38 14,313.08 15,156.54 16,213.46 17,99.62 18,284.62 19,313.08 20,241.92 21,199.23 22,170.77 23,185 24,341.54 25,170.77 26,128.08 27,241.92 28,185 29,185 30,227.69 31,170.77 32,156.54 33,156.54 34,128.08 35,199.23 36,313.08 37,241.92 38,156.54 39,142.31 40,142.31 41,284.62 42,185 43,256.15 44,313.08 45,156.54 46,142.31 47,142.31 48,128.08 49,128.08 50,185 51,128.08 52,99.62 53,170.77 54,128.08 55,142.31 56,156.54 57,227.69 58,298.85 59,270.38 60,270.38 61,213.46 62,142.31 63,156.54 64,128.08 65,156.54 66,142.31 67,156.54 68,185 69,128.08 70,156.54 71,142.31 72,185 73,142.31 74,185 75,170.77 76,142.31 77,170.77 78,170.77 79,185 80,170.77 81,142.31 82,128.08 83,142.31 84,156.54 85,128.08 86,227.69 87,156.54 88,128.08 89,142.31 90,128.08 91,142.31 92,128.08 93,156.54 94,199.23 95,213.46 96,185 97,142.31 98,113.85 99,128.08 100,241.92 101,284.62 102,256.15 103,313.08 104,313.08 105,213.46 106,128.08 107,113.85 109,113.85 110,99.62 111,142.31 112,142.31 113,113.85 114,298.85 115,185 116,170.77 117,170.77 118,156.54 119,298.85 120,170.77 121,128.08 122,327.31 123,341.54 124,298.85 124.49,370"><title>LR761637.1</title></polygon><rect class="average" height="1" width="124.49" x="0" y="176.8"><title>average:13.58</title></rect><rect class="median" height="1" width="124.49" x="0" y="185"><title>median:13</title></rect><text class="chromName" x="62.25" y="-12">LR761637.1<title>LR761637.1 53,127,865 bp</title></text><rect class="frame" height="370" width="124.49" x="0" y="0"/></g><g id="chrom-LR761638.1" transform="translate(577.4390778079033,0)"><polygon class="cov0" points="0,370 0,185 1,142.31 2,313.08 3,128.08 4,156.54 5,99.62 6,213.46 7,199.23 8,227.69 9,128.08 10,170.77 11,313.08 12,142.31 13,156.54 14,113.85 15,156.54 16,99.62 17,113.85 18,256.15 19,298.85 20,113.85 21,199.23 22,128.08 24,128.08 25,170.77 26,298.85 27,113.85 28,185 29,327.31 30,270.38 31,142.31 32,370 33,355.77 34,185 35,241.92 36,156.54 37,327.31 38,270.38 39,341.54 40,341.54 41,313.08 42,256.15 43,142.31 44,156.54 45,313.08 46,156.54 47,113.85 48,128.08 49,227.69 50,355.77 51,256.15 52,199.23 53,185 54,256.15 55,241.92 56,156.54 57,227.69 58,142.31 59,170.77 60,213.46 61,241.92 62,156.54 63,284.62 64,313.08 65,298.85 66,185 67,170.77 68,156.54 69,241.92 70,170.77 71,341.54 72,327.31 73,313.08 74,241.92 75,327.31 76,298.85 77,213.46 78,327.31 79,313.08 80,313.08 81,170.77 82,298.85 83,327.31 84,298.85 85,199.23 86,142.31 87,170.77 88,298.85 89,128.08 90,298.85 91,156.54 92,113.85 93,128.08 94,142.31 95,227.69 96,270.38 97,128.08 98,270.38 99,185 100,199.23 101,156.54 102,284.62 103,185 104,270.38 105,298.85 106,227.69 107,185 108,227.69 109,156.54 110,199.23 111,199.23 112,270.38 113,227.69 114,256.15 115,270.38 116,327.31 117,370 118,355.77 119,298.85 120,284.62 121,327.31 122,355.77 123,370 124,298.85 125,298.85 126,327.31 127,270.38 128,370 129,284.62 130,341.54 131,327.31 132,256.15 133,327.31 134,241.92 135,313.08 136,170.77 137,370 138,341.54 139,298.85 140,341.54 141,370 142,341.54 143,284.62 144,170.77 145,185 146,284.62 147,142.31 148,170.77 149,170.77 150,185 151,327.31 152,142.31 153,156.54 154,256.15 155,241.92 156,213.46 157,241.92 158,284.62 159,241.92 160,256.15 161,256.15 162,227.69 163,256.15 164,241.92 165,256.15 166,270.38 167,284.62 168,213.46 169,185 170,284.62 171,284.62 172,270.38 172.35,370"><title>LR761638.1</title></polygon><rect class="average" height="1" width="172.35" x="0" y="202.58"><title>average:11.76</title></rect><rect class="median" height="1" width="172.35" x="0" y="241.92"><title>median:9</title></rect><text class="chromName" x="86.17" y="-12">LR761638.1<title>LR761638.1 73,550,375 bp</title></text><rect class="frame" height="370" width="172.35" x="0" y="0"/></g><g id="chrom-LR761639.1" transform="translate(750.784104388203,0)"><polygon class="cov1" points="0,370 0,298.85 1,170.77 2,142.31 3,270.38 4,142.31 5,227.69 6,327.31 7,241.92 8,142.31 9,128.08 10,156.54 11,256.15 12,270.38 13,128.08 14,156.54 15,128.08 20,128.08 21,142.31 22,156.54 23,170.77 24,170.77 25,199.23 26,170.77 27,327.31 28,341.54 29,213.46 30,313.08 31,142.31 32,156.54 33,142.31 34,227.69 35,213.46 36,185 37,128.08 38,142.31 39,142.31 40,256.15 41,142.31 42,142.31 43,113.85 44,142.31 45,128.08 46,156.54 47,142.31 48,128.08 49,156.54 50,142.31 51,142.31 52,185 53,156.54 54,156.54 55,142.31 58,142.31 59,128.08 60,128.08 61,142.31 63,142.31 64,113.85 65,142.31 66,185 67,156.54 68,142.31 69,170.77 70,142.31 73,142.31 74,213.46 75,142.31 76,142.31 77,156.54 78,142.31 79,142.31 80,170.77 81,128.08 82,142.31 83,142.31 84,199.23 85,142.31 86,128.08 87,142.31 89,142.31 90,128.08 91,156.54 92,142.31 93,170.77 94,156.54 95,142.31 96,142.31 97,128.08 98,128.08 99,142.31 100,142.31 101,128.08 102,128.08 103,142.31 104,113.85 105,128.08 106,241.92 107,142.31 108,113.85 109,142.31 110,128.08 111,313.08 112,185 113,113.85 114,185 115,128.08 116,156.54 117,128.08 119,128.08 120,156.54 121,128.08 123,128.08 124,170.77 125,128.08 127,128.08 128,142.31 129,128.08 130,170.77 131,142.31 132,185 133,355.77 134,113.85 135,170.77 136,170.77 137,142.31 138,185 139,170.77 140,284.62 140.95,370"><title>LR761639.1</title></polygon><rect class="average" height="1" width="140.95" x="0" y="156.35"><title>average:15.01</title></rect><rect class="median" height="1" width="140.95" x="0" y="156.54"><title>median:15</title></rect><text class="chromName" x="70.47" y="-12">LR761639.1<title>LR761639.1 60,151,564 bp</title></text><rect class="frame" height="370" width="140.95" x="0" y="0"/></g><g id="chrom-LR761640.1" transform="translate(892.7327113317651,0)"><polygon class="cov0" points="0,370 0,185 1,113.85 2,199.23 3,170.77 4,156.54 5,113.85 6,170.77 7,199.23 8,128.08 9,185 10,113.85 11,128.08 12,128.08 13,256.15 14,156.54 15,142.31 16,227.69 17,142.31 18,128.08 19,170.77 20,128.08 21,142.31 22,128.08 23,113.85 24,128.08 25,142.31 26,113.85 27,128.08 28,142.31 29,128.08 30,142.31 31,113.85 32,142.31 33,128.08 34,156.54 35,142.31 36,128.08 37,199.23 38,128.08 39,170.77 40,113.85 41,128.08 42,99.62 43,113.85 44,113.85 45,142.31 46,156.54 47,213.46 48,270.38 49,128.08 50,142.31 51,142.31 52,128.08 53,142.31 54,128.08 56,128.08 57,213.46 58,156.54 59,170.77 60,256.15 61,128.08 62,156.54 63,185 64,128.08 65,313.08 66,142.31 67,156.54 68,156.54 69,199.23 70,185 71,142.31 72,170.77 73,213.46 74,170.77 75,142.31 76,142.31 77,227.69 78,142.31 79,170.77 80,113.85 81,99.62 82,113.85 83,142.31 84,128.08 85,128.08 86,341.54 87,156.54 88,170.77 89,185 90,170.77 91,256.15 92,284.62 93,185 94,284.62 95,156.54 96,156.54 97,142.31 98,156.54 99,142.31 100,128.08 101,213.46 102,341.54 103,227.69 104,142.31 105,128.08 106,128.08 107,170.77 108,199.23 109,128.08 110,170.77 111,199.23 112,156.54 114,156.54 115,128.08 116,284.62 117,341.54 118,355.77 119,327.31 120,142.31 121,113.85 122,128.08 123,128.08 124,142.31 125,128.08 127,128.08 128,241.92 129,156.54 130,128.08 131,142.31 133,142.31 134,113.85 135,113.85 136,142.31 138,142.31 139,185 140,128.08 141,142.31 142,170.77 143,142.31 144,113.85 145,128.08 145.53,370"><title>LR761640.1</title></polygon><rect class="average" height="1" width="145.53" x="0" y="156.94"><title>average:14.97</title></rect><rect class="median" height="1" width="145.53" x="0" y="156.54"><title>median:15</title></rect><text class="chromName" x="72.77" y="-12">LR761640.1<title>LR761640.1 62,107,823 bp</title></text><rect class="frame" height="370" width="145.53" x="0" y="0"/></g><g id="chrom-LR761641.1" transform="translate(1039.265271917344,0)"><polygon class="cov1" points="0,370 0,298.85 1,142.31 2,256.15 3,185 4,128.08 5,199.23 6,270.38 7,227.69 8,270.38 9,170.77 10,128.08 11,199.23 12,213.46 13,113.85 14,213.46 15,128.08 16,142.31 17,270.38 18,142.31 19,142.31 20,128.08 21,156.54 22,199.23 23,156.54 24,199.23 25,170.77 26,241.92 27,185 28,227.69 29,298.85 30,241.92 31,185 32,213.46 33,213.46 34,270.38 35,284.62 36,341.54 37,227.69 38,256.15 39,270.38 40,241.92 41,313.08 42,270.38 43,327.31 44,241.92 45,227.69 46,256.15 47,270.38 48,241.92 49,142.31 50,170.77 51,156.54 52,113.85 53,113.85 54,128.08 55,113.85 56,128.08 57,170.77 58,156.54 59,156.54 60,142.31 61,298.85 62,142.31 63,185 64,213.46 65,170.77 66,213.46 67,256.15 68,199.23 69,142.31 70,227.69 71,128.08 72,199.23 73,327.31 74,213.46 75,313.08 76,156.54 77,213.46 78,156.54 79,227.69 80,270.38 81,341.54 82,355.77 83,270.38 84,170.77 85,142.31 86,256.15 87,113.85 88,199.23 89,185 90,241.92 91,256.15 92,128.08 93,213.46 94,256.15 95,199.23 96,199.23 97,313.08 98,128.08 99,370 100,256.15 101,99.62 102,170.77 103,128.08 104,170.77 105,128.08 106,241.92 107,128.08 108,142.31 109,142.31 110,128.08 111,241.92 112,128.08 113,256.15 114,156.54 115,156.54 116,113.85 117,170.77 118,142.31 119,213.46 120,227.69 121,185 122,170.77 123,241.92 124,142.31 125,227.69 126,256.15 127,128.08 128,284.62 129,170.77 130,270.38 131,185 132,355.77 133,270.38 134,113.85 135,355.77 136,355.77 136.99,370"><title>LR761641.1</title></polygon><rect class="average" height="1" width="136.99" x="0" y="178.84"><title>average:13.43</title></rect><rect class="median" height="1" width="136.99" x="0" y="199.23"><title>median:12</title></rect><text class="chromName" x="68.5" y="-12">LR761641.1<title>LR761641.1 58,462,999 bp</title></text><rect class="frame" height="370" width="136.99" x="0" y="0"/></g><g id="chrom-LR761642.1" transform="translate(1177.25719230686,0)"><polygon class="cov0" points="0,370 0,327.31 1,298.85 2,199.23 3,213.46 4,241.92 5,284.62 6,256.15 7,241.92 8,270.38 9,256.15 10,227.69 11,199.23 12,213.46 13,128.08 14,156.54 15,241.92 16,284.62 17,213.46 18,213.46 19,199.23 20,185 21,142.31 22,241.92 23,256.15 24,156.54 25,128.08 26,142.31 27,142.31 28,227.69 29,156.54 30,199.23 31,142.31 32,170.77 33,227.69 34,142.31 35,241.92 36,142.31 37,142.31 38,128.08 39,185 40,142.31 41,156.54 42,128.08 43,142.31 44,142.31 45,199.23 46,142.31 47,241.92 48,156.54 49,256.15 50,156.54 51,156.54 52,199.23 53,128.08 54,142.31 55,213.46 56,170.77 57,199.23 58,241.92 59,156.54 60,156.54 61,341.54 62,170.77 63,156.54 64,199.23 65,170.77 66,170.77 67,284.62 68,227.69 69,156.54 70,156.54 71,227.69 72,170.77 73,227.69 74,142.31 75,185 76,298.85 77,142.31 78,142.31 79,284.62 80,256.15 81,170.77 82,327.31 83,241.92 84,298.85 85,185 86,327.31 86.91,370"><title>LR761642.1</title></polygon><rect class="average" height="1" width="86.91" x="0" y="166.2"><title>average:14.32</title></rect><rect class="median" height="1" width="86.91" x="0" y="199.23"><title>median:12</title></rect><text class="chromName" x="43.45" y="-12">LR761642.1<title>LR761642.1 37,089,910 bp</title></text><rect class="frame" height="370" width="86.91" x="0" y="0"/></g><g id="chrom-LR761643.1" transform="translate(1265.1671710093603,0)"><polygon class="cov1" points="0,370 0,341.54 1,256.15 2,156.54 3,142.31 4,156.54 5,227.69 6,170.77 7,170.77 8,142.31 9,128.08 10,128.08 11,170.77 12,128.08 13,213.46 14,227.69 15,142.31 16,113.85 17,156.54 18,156.54 19,170.77 20,341.54 21,170.77 22,128.08 23,128.08 24,142.31 25,170.77 26,355.77 27,341.54 28,313.08 29,128.08 30,185 31,156.54 32,199.23 33,142.31 34,142.31 35,199.23 36,256.15 37,128.08 38,142.31 39,128.08 40,156.54 41,156.54 42,170.77 43,270.38 44,156.54 45,199.23 46,142.31 47,241.92 48,170.77 49,156.54 50,213.46 51,142.31 52,156.54 53,170.77 54,170.77 55,142.31 57,142.31 58,170.77 59,142.31 60,128.08 61,128.08 62,156.54 63,142.31 64,156.54 65,185 66,170.77 67,156.54 68,156.54 69,142.31 70,156.54 71,256.15 72,213.46 73,227.69 74,128.08 75,227.69 76,142.31 77,128.08 78,199.23 79,241.92 80,128.08 81,128.08 82,156.54 83,142.31 84,128.08 85,128.08 86,142.31 87,128.08 88,170.77 89,298.85 90,170.77 91,128.08 92,128.08 93,156.54 94,128.08 95,156.54 96,128.08 97,142.31 98,128.08 100,128.08 101,241.92 102,142.31 105,142.31 106,128.08 107,128.08 108,142.31 109,128.08 112,128.08 113,199.23 114,156.54 115,128.08 116,113.85 117,113.85 118,128.08 119,156.54 120,128.08 121,113.85 122,113.85 123,128.08 124,142.31 125,142.31 126,113.85 127,156.54 128,170.77 129,113.85 130,156.54 131,199.23 132,128.08 133,199.23 134,241.92 134.83,370"><title>LR761643.1</title></polygon><rect class="average" height="1" width="134.83" x="0" y="161.22"><title>average:14.67</title></rect><rect class="median" height="1" width="134.83" x="0" y="156.54"><title>median:15</title></rect><text class="chromName" x="67.42" y="-12">LR761643.1<title>LR761643.1 57,541,580 bp</title></text><rect class="frame" height="370" width="134.83" x="0" y="0"/></g><g><line class="ruler" x1="-2" x2="1390" y1="333" y2="333"><title>2</title></line><text class="ruler" x="-5" y="333">2</text><line class="ruler" x1="-2" x2="1390" y1="296" y2="296"><title>5</title></line><text class="ruler" x="-5" y="296">5</text><line class="ruler" x1="-2" x2="1390" y1="259" y2="259"><title>7</title></line><text class="ruler" x="-5" y="259">7</text><line class="ruler" x1="-2" x2="1390" y1="222" y2="222"><title>10</title></line><text class="ruler" x="-5" y="222">10</text><line class="ruler" x1="-2" x2="1390" y1="185" y2="185"><title>13</title></line><text class="ruler" x="-5" y="185">13</text><line class="ruler" x1="-2" x2="1390" y1="148" y2="148"><title>15</title></line><text class="ruler" x="-5" y="148">15</text><line class="ruler" x1="-2" x2="1390" y1="111" y2="111"><title>18</title></line><text class="ruler" x="-5" y="111">18</text><line class="ruler" x1="-2" x2="1390" y1="74" y2="74"><title>20</title></line><text class="ruler" x="-5" y="74">20</text><line class="ruler" x1="-2" x2="1390" y1="37" y2="37"><title>23</title></line><text class="ruler" x="-5" y="37">23</text><line class="ruler" x1="-2" x2="1390" y1="0" y2="0"><title>26</title></line><text class="ruler" x="-5" y="0">26</text></g></g><text class="title" x="795" y="40">F14_M14_24.merged.realigned.bam F14_M14_24 F14_M14_24_1 F14_M14_24_2<title>./F14_M14_24.merged.realigned.bam</title></text><text class="xLabel" x="795" y="475">GCA_902806645.1_cgigas_uk_roslin_v1_genomic.fna  (589,358,857 bp)<title>../ref/GCA_902806645.1_cgigas_uk_roslin_v1_genomic.fna</title></text><text class="yLabel" transform="translate(25,265) rotate(90)" x="0" y="0">Coverage bp (median)</text></g></svg>