<?xml version="1.0" encoding="UTF-8" standalone="no"?><svg height="500" width="1500" xmlns="http://www.w3.org/2000/svg"><title>F14.realigned.bam</title><desc>Made with wgscoverageplotter undefined Author: Pierre Lindenbaum</desc><style>g.maing {stroke:black;stroke-width:0.5px;fill:none;}
text.title {stroke:none;fill:black;stroke-width:1px;text-anchor:middle;}
rect.frame {stroke:darkgray;fill:none;stroke-width:0.5px;}
text.ruler {stroke:none;fill:darkgray;stroke-width:1px;text-anchor:end;}
text.chromName {stroke:none;fill:darkgray;stroke-width:1px;text-anchor:middle;}
text.xLabel {stroke:none;fill:black;stroke-width:1px;text-anchor:middle;}
text.yLabel {stroke:none;fill:black;stroke-width:1px;text-anchor:middle;}
.cov0 {stroke:gray;fill:antiquewhite;stroke-width:0.5px;}
.cov1 {stroke:gray;fill:beige;stroke-width:0.5px;}
rect.average {stroke:green;fill:green;stroke-width:0.5px;opacity:0.3;}
rect.median {stroke:red;fill:red;stroke-width:0.5px;opacity:0.3;}
line.ruler {stroke:darkgray;stroke-dasharray:4;fill:none;stroke-width:1;}
</style><g class="maing"><g id="chromosomes" transform="translate(100.0,80.0)"><g id="chrom-LR761634.1" transform="translate(10.0,0)"><polygon class="cov0" points="0,370 0,333 1,148 2,185 3,259 4,222 5,185 6,296 7,185 8,148 9,111 10,148 11,74 12,148 13,259 14,296 15,111 16,111 17,222 18,111 21,111 22,148 23,111 24,148 25,74 26,74 27,111 28,111 29,74 30,74 31,111 32,259 33,74 34,111 35,111 36,74 37,148 38,148 39,74 42,74 43,148 44,148 45,185 46,148 47,111 53,111 54,259 55,333 56,74 57,37 58,74 59,111 60,111 61,74 62,111 63,148 64,222 65,148 66,111 67,148 68,74 69,148 70,111 71,74 72,185 73,185 74,111 75,74 76,111 77,148 78,148 79,111 80,333 81,259 82,74 83,74 84,111 85,111 86,74 87,148 88,74 89,259 90,148 91,148 92,74 93,148 94,74 95,111 96,74 97,111 98,296 99,111 100,111 101,185 102,148 103,111 104,185 105,111 106,185 107,185 108,259 109,74 110,74 111,111 113,111 114,259 115,222 116,74 117,111 118,111 119,148 120,148 121,111 123,111 124,148 125,111 126,111 127,148 128,222 129,185 130,185 130.72,370"><title>LR761634.1</title></polygon><rect class="average" height="1" width="130.72" x="0" y="118.85"><title>average:6.79</title></rect><rect class="median" height="1" width="130.72" x="0" y="148"><title>median:6</title></rect><text class="chromName" x="65.36" y="-12">LR761634.1<title>LR761634.1 55,785,328 bp</title></text><rect class="frame" height="370" width="130.72" x="0" y="0"/></g><g id="chrom-LR761635.1" transform="translate(141.71753661284166,0)"><polygon class="cov1" points="0,370 0,370 2,370 3,296 4,370 5,333 6,148 7,296 8,333 9,370 12,370 13,148 14,148 15,222 16,333 17,259 18,333 19,296 20,370 21,296 22,296 23,259 24,370 30,370 31,333 32,222 33,185 34,222 35,259 36,148 37,74 38,370 39,185 40,333 41,259 42,185 43,259 44,222 45,148 46,222 47,185 48,222 49,185 50,259 51,370 52,259 53,259 54,333 55,296 56,370 57,259 58,148 59,370 60,296 61,222 62,111 63,222 64,333 65,222 66,296 67,333 68,222 69,259 70,333 71,185 72,222 73,222 74,296 75,222 76,370 77,0 78,259 79,333 80,148 81,333 82,370 83,296 84,370 85,333 86,370 89,370 90,296 91,259 92,333 93,333 94,296 95,296 96,370 97,333 98,296 99,333 100,333 101,370 102,333 103,259 104,259 105,185 106,296 107,259 108,185 109,111 110,259 111,185 112,333 113,370 114,296 115,333 116,333 117,259 118,148 121,148 122,222 124,222 125,111 126,185 127,185 128,111 129,185 130,148 131,296 132,222 133,259 134,333 135,296 136,333 137,296 138,333 139,296 140,333 142,333 143,296 144,259 145,259 146,222 147,111 148,148 149,111 150,222 151,296 152,333 153,222 154,333 155,259 156,296 157,333 158,222 159,185 160,222 161,222 162,296 163,148 164,259 165,296 166,333 167,370 168,333 171,333 171.58,370"><title>LR761635.1</title></polygon><rect class="average" height="1" width="171.58" x="0" y="199.38"><title>average:4.61</title></rect><rect class="median" height="1" width="171.58" x="0" y="296"><title>median:2</title></rect><text class="chromName" x="85.79" y="-12">LR761635.1<title>LR761635.1 73,222,313 bp</title></text><rect class="frame" height="370" width="171.58" x="0" y="0"/></g><g id="chrom-LR761636.1" transform="translate(314.2938403401308,0)"><polygon class="cov0" points="0,370 0,333 1,185 2,259 3,259 4,185 5,148 6,111 12,111 13,222 14,74 15,111 16,111 17,74 18,111 22,111 23,74 24,185 25,111 26,185 27,222 28,74 31,74 32,37 33,74 34,111 35,185 36,111 37,148 38,111 39,111 40,148 41,111 42,148 43,111 45,111 46,148 47,74 48,148 49,148 50,111 51,74 52,111 53,111 54,296 55,148 56,148 57,74 58,111 59,74 60,111 61,222 62,148 63,111 67,111 68,148 69,111 70,222 71,74 72,74 73,148 74,148 75,111 76,296 77,222 79,222 80,259 81,111 82,185 83,148 84,74 85,111 86,259 87,111 88,111 89,185 90,111 91,74 92,185 93,111 94,111 95,185 96,185 97,74 98,111 99,148 100,111 101,111 102,74 105,74 106,111 107,74 110,74 111,111 113,111 114,74 116,74 117,111 118,148 119,74 120,74 121,259 122,74 123,74 124,148 125,74 126,74 127,148 128,259 129,111 131,111 132,148 133,185 134,111 135,148 136,296 136.65,370"><title>LR761636.1</title></polygon><rect class="average" height="1" width="136.65" x="0" y="111.6"><title>average:6.98</title></rect><rect class="median" height="1" width="136.65" x="0" y="111"><title>median:7</title></rect><text class="chromName" x="68.33" y="-12">LR761636.1<title>LR761636.1 58,319,100 bp</title></text><rect class="frame" height="370" width="136.65" x="0" y="0"/></g><g id="chrom-LR761637.1" transform="translate(451.9485730949149,0)"><polygon class="cov1" points="0,370 0,370 2,370 3,333 4,222 5,185 6,222 7,259 8,222 9,333 10,333 11,185 12,333 13,259 14,333 15,148 16,222 17,111 18,296 19,333 20,259 21,185 23,185 24,333 25,185 26,111 27,222 28,222 29,185 30,259 31,148 32,111 33,148 34,111 35,185 36,333 37,259 38,148 39,111 40,111 41,259 42,111 43,333 44,333 45,111 49,111 50,148 51,74 52,74 53,148 54,74 55,74 56,111 57,222 58,296 59,222 60,185 61,185 62,74 63,111 64,74 65,111 67,111 68,148 69,74 70,111 71,74 72,148 73,74 74,185 75,111 76,111 77,148 79,148 80,111 81,111 82,74 83,111 84,111 85,74 86,222 87,148 88,74 89,111 90,74 91,111 92,74 93,111 94,185 95,222 96,185 97,111 98,74 99,111 100,222 101,259 102,222 103,296 104,296 105,185 106,111 107,74 108,111 109,111 110,74 111,111 112,148 113,111 114,296 115,185 117,185 118,148 119,296 120,148 121,111 122,333 124,333 124.49,370"><title>LR761637.1</title></polygon><rect class="average" height="1" width="124.49" x="0" y="145.17"><title>average:6.08</title></rect><rect class="median" height="1" width="124.49" x="0" y="185"><title>median:5</title></rect><text class="chromName" x="62.25" y="-12">LR761637.1<title>LR761637.1 53,127,865 bp</title></text><rect class="frame" height="370" width="124.49" x="0" y="0"/></g><g id="chrom-LR761638.1" transform="translate(577.4390778079033,0)"><polygon class="cov0" points="0,370 0,148 1,74 2,333 3,148 4,185 5,148 6,185 7,185 8,222 9,111 10,185 11,333 12,148 13,148 14,111 15,148 16,74 17,111 18,222 19,296 20,111 21,222 22,111 23,74 24,111 25,148 26,370 27,111 28,185 29,333 30,259 31,148 32,370 33,370 34,185 35,259 36,148 37,370 38,296 39,370 40,370 41,333 42,222 43,111 44,148 45,333 46,185 47,111 48,111 49,185 50,370 51,222 52,222 53,148 54,296 55,222 56,148 57,222 58,148 59,148 60,222 61,259 62,148 63,296 64,333 65,259 66,148 68,148 69,296 70,148 71,370 72,333 73,296 74,259 75,333 76,333 77,185 78,370 80,370 81,185 82,333 83,370 84,333 85,222 86,148 87,148 88,296 89,111 90,296 91,148 92,111 94,111 95,222 96,296 97,185 98,296 99,185 101,185 102,259 103,222 104,333 105,333 106,222 107,185 108,185 109,111 110,148 111,185 112,259 115,259 116,370 118,370 119,296 120,333 121,333 122,370 123,370 124,333 126,333 127,296 128,370 129,259 130,370 131,333 132,259 133,333 134,222 135,296 136,185 137,370 138,370 139,259 140,370 142,370 143,296 144,185 145,222 146,296 147,148 148,185 149,185 150,222 151,333 152,185 153,185 154,296 155,296 156,185 157,222 158,333 159,296 160,333 161,333 162,296 163,296 164,370 168,370 169,259 170,370 172,370 172.35,370"><title>LR761638.1</title></polygon><rect class="average" height="1" width="172.35" x="0" y="192.15"><title>average:4.81</title></rect><rect class="median" height="1" width="172.35" x="0" y="259"><title>median:3</title></rect><text class="chromName" x="86.17" y="-12">LR761638.1<title>LR761638.1 73,550,375 bp</title></text><rect class="frame" height="370" width="172.35" x="0" y="0"/></g><g id="chrom-LR761639.1" transform="translate(750.784104388203,0)"><polygon class="cov1" points="0,370 0,296 1,185 2,148 3,259 4,148 5,222 6,333 7,222 8,148 9,111 10,148 11,185 12,296 13,111 14,111 15,74 16,111 17,74 20,74 21,111 22,111 23,148 26,148 27,333 28,370 29,222 30,296 31,111 33,111 34,185 36,185 37,111 39,111 40,185 41,111 42,111 43,74 45,74 46,148 47,111 48,111 49,148 50,111 51,111 52,148 53,111 54,111 55,74 56,74 57,111 58,74 65,74 66,148 67,111 68,74 69,148 70,74 73,74 74,185 75,74 76,74 77,111 78,74 79,74 80,148 81,74 83,74 84,148 85,111 86,74 90,74 91,111 92,111 93,148 94,111 96,111 97,74 103,74 104,37 105,74 106,222 107,74 108,37 109,74 110,74 111,333 112,148 113,74 114,148 115,74 117,74 118,111 119,74 120,111 121,74 123,74 124,148 125,111 127,111 128,148 129,111 130,185 131,148 132,185 133,370 134,111 135,148 137,148 138,185 139,185 140,333 140.95,370"><title>LR761639.1</title></polygon><rect class="average" height="1" width="140.95" x="0" y="107.97"><title>average:7.08</title></rect><rect class="median" height="1" width="140.95" x="0" y="111"><title>median:7</title></rect><text class="chromName" x="70.47" y="-12">LR761639.1<title>LR761639.1 60,151,564 bp</title></text><rect class="frame" height="370" width="140.95" x="0" y="0"/></g><g id="chrom-LR761640.1" transform="translate(892.7327113317651,0)"><polygon class="cov0" points="0,370 0,148 1,111 2,185 3,185 4,148 5,111 6,185 7,185 8,111 9,185 10,111 11,148 12,111 13,296 14,185 15,111 16,222 17,111 18,74 19,148 20,111 21,74 22,74 23,37 24,74 30,74 31,37 32,74 33,74 34,111 35,74 36,74 37,148 38,74 39,148 40,74 41,74 42,37 43,74 44,74 45,111 46,111 47,222 48,333 49,74 50,111 51,111 52,74 56,74 57,222 58,111 59,148 60,259 61,111 62,111 63,185 64,74 65,296 66,111 68,111 69,148 70,148 71,111 72,148 73,185 74,148 75,74 76,74 77,185 78,74 79,148 80,37 82,37 83,111 84,74 85,74 86,333 87,111 88,111 89,148 90,148 91,185 92,296 93,148 94,222 95,111 96,111 97,74 98,111 99,111 100,74 101,222 102,370 103,222 104,74 105,74 106,111 107,111 108,185 109,74 110,111 111,148 112,111 113,111 114,74 115,111 116,259 117,370 118,370 119,333 120,111 121,74 127,74 128,222 129,111 130,74 131,111 132,111 133,74 134,37 135,74 136,111 138,111 139,148 140,111 141,111 142,148 143,148 144,111 145,111 145.53,370"><title>LR761640.1</title></polygon><rect class="average" height="1" width="145.53" x="0" y="108.19"><title>average:7.08</title></rect><rect class="median" height="1" width="145.53" x="0" y="111"><title>median:7</title></rect><text class="chromName" x="72.77" y="-12">LR761640.1<title>LR761640.1 62,107,823 bp</title></text><rect class="frame" height="370" width="145.53" x="0" y="0"/></g><g id="chrom-LR761641.1" transform="translate(1039.265271917344,0)"><polygon class="cov1" points="0,370 0,296 1,185 2,259 3,148 4,74 5,185 6,222 7,222 8,296 9,185 10,148 11,185 12,222 13,148 14,185 15,111 16,148 17,296 18,148 19,148 20,111 21,185 22,222 23,148 24,222 25,185 26,222 27,185 28,222 29,333 30,259 31,148 32,222 33,222 34,296 35,296 36,370 37,185 38,296 39,296 40,259 41,333 42,222 43,333 44,222 45,222 46,259 47,259 48,296 49,111 50,148 51,148 52,111 54,111 55,74 56,111 57,148 58,148 59,185 60,148 61,333 62,148 63,185 64,222 65,148 66,222 67,259 68,185 69,148 70,148 71,111 72,185 73,333 74,222 75,333 76,185 77,185 78,148 79,222 80,296 81,370 82,370 83,333 84,185 85,111 86,222 87,111 88,222 89,185 90,259 91,222 92,111 93,259 94,296 95,185 96,185 97,370 98,148 99,370 100,296 101,111 102,148 103,111 104,185 105,148 106,259 107,111 108,148 109,148 110,111 111,222 112,111 113,296 114,148 115,148 116,111 117,148 118,148 119,222 120,185 121,222 122,148 123,259 124,148 125,185 126,259 127,111 128,296 129,185 130,259 131,185 132,370 133,259 134,148 135,370 136,333 136.99,370"><title>LR761641.1</title></polygon><rect class="average" height="1" width="136.99" x="0" y="158.19"><title>average:5.72</title></rect><rect class="median" height="1" width="136.99" x="0" y="185"><title>median:5</title></rect><text class="chromName" x="68.5" y="-12">LR761641.1<title>LR761641.1 58,462,999 bp</title></text><rect class="frame" height="370" width="136.99" x="0" y="0"/></g><g id="chrom-LR761642.1" transform="translate(1177.25719230686,0)"><polygon class="cov0" points="0,370 0,333 1,296 2,222 3,222 4,296 5,333 6,259 7,222 8,370 9,370 10,296 11,222 12,259 13,148 14,148 15,259 16,333 17,259 18,296 19,296 20,259 21,185 22,370 23,296 24,148 25,111 26,185 27,148 28,259 29,148 30,222 31,111 32,148 33,222 34,148 35,296 36,148 37,148 38,74 39,185 40,111 41,148 42,111 43,111 44,148 45,185 46,111 47,259 48,185 49,259 50,148 52,148 53,111 54,111 55,222 56,185 57,185 58,296 59,185 60,148 61,333 62,185 63,148 64,185 65,185 66,148 67,259 68,185 69,148 70,185 71,259 72,148 73,222 74,148 75,185 76,333 77,148 78,148 79,259 80,259 81,185 82,333 83,222 84,296 85,185 86,333 86.91,370"><title>LR761642.1</title></polygon><rect class="average" height="1" width="86.91" x="0" y="149.85"><title>average:5.95</title></rect><rect class="median" height="1" width="86.91" x="0" y="185"><title>median:5</title></rect><text class="chromName" x="43.45" y="-12">LR761642.1<title>LR761642.1 37,089,910 bp</title></text><rect class="frame" height="370" width="86.91" x="0" y="0"/></g><g id="chrom-LR761643.1" transform="translate(1265.1671710093603,0)"><polygon class="cov1" points="0,370 0,333 1,222 2,148 4,148 5,222 6,148 8,148 9,111 10,111 11,148 12,74 13,185 14,222 15,111 16,74 17,111 18,111 19,148 20,370 21,148 22,111 24,111 25,148 26,370 27,333 28,370 29,74 30,111 31,111 32,222 33,111 34,74 35,148 36,222 37,74 40,74 41,111 42,111 43,296 44,111 45,148 46,74 47,222 48,111 49,111 50,185 51,74 52,74 53,111 54,111 55,74 57,74 58,111 59,74 60,37 61,74 62,111 63,74 64,111 65,148 66,111 70,111 71,222 72,185 73,148 74,74 75,222 76,74 77,74 78,148 79,222 80,74 86,74 87,37 88,148 89,333 90,111 91,74 92,74 93,111 94,74 95,111 96,74 100,74 101,222 102,111 103,74 104,111 105,111 106,74 107,74 108,111 109,74 112,74 113,148 114,111 115,111 116,37 117,74 118,74 119,148 120,74 123,74 124,111 125,111 126,74 127,185 128,148 129,74 130,148 131,222 132,111 133,259 134,296 134.83,370"><title>LR761643.1</title></polygon><rect class="average" height="1" width="134.83" x="0" y="109.86"><title>average:7.03</title></rect><rect class="median" height="1" width="134.83" x="0" y="111"><title>median:7</title></rect><text class="chromName" x="67.42" y="-12">LR761643.1<title>LR761643.1 57,541,580 bp</title></text><rect class="frame" height="370" width="134.83" x="0" y="0"/></g><g><line class="ruler" x1="-2" x2="1390" y1="333" y2="333"><title>1</title></line><text class="ruler" x="-5" y="333">1</text><line class="ruler" x1="-2" x2="1390" y1="296" y2="296"><title>2</title></line><text class="ruler" x="-5" y="296">2</text><line class="ruler" x1="-2" x2="1390" y1="259" y2="259"><title>3</title></line><text class="ruler" x="-5" y="259">3</text><line class="ruler" x1="-2" x2="1390" y1="222" y2="222"><title>4</title></line><text class="ruler" x="-5" y="222">4</text><line class="ruler" x1="-2" x2="1390" y1="185" y2="185"><title>5</title></line><text class="ruler" x="-5" y="185">5</text><line class="ruler" x1="-2" x2="1390" y1="148" y2="148"><title>6</title></line><text class="ruler" x="-5" y="148">6</text><line class="ruler" x1="-2" x2="1390" y1="111" y2="111"><title>7</title></line><text class="ruler" x="-5" y="111">7</text><line class="ruler" x1="-2" x2="1390" y1="74" y2="74"><title>8</title></line><text class="ruler" x="-5" y="74">8</text><line class="ruler" x1="-2" x2="1390" y1="37" y2="37"><title>9</title></line><text class="ruler" x="-5" y="37">9</text><line class="ruler" x1="-2" x2="1390" y1="0" y2="0"><title>10</title></line><text class="ruler" x="-5" y="0">10</text></g></g><text class="title" x="795" y="40">F14.realigned.bam F14<title>./F14.realigned.bam</title></text><text class="xLabel" x="795" y="475">GCA_902806645.1_cgigas_uk_roslin_v1_genomic.fna  (589,358,857 bp)<title>../ref/GCA_902806645.1_cgigas_uk_roslin_v1_genomic.fna</title></text><text class="yLabel" transform="translate(25,265) rotate(90)" x="0" y="0">Coverage bp (median)</text></g></svg>