<?xml version="1.0" encoding="UTF-8" standalone="no"?><svg height="500" width="1500" xmlns="http://www.w3.org/2000/svg"><title>F15_M14_24.merged.realigned.bam</title><desc>Made with wgscoverageplotter undefined Author: Pierre Lindenbaum</desc><style>g.maing {stroke:black;stroke-width:0.5px;fill:none;}
text.title {stroke:none;fill:black;stroke-width:1px;text-anchor:middle;}
rect.frame {stroke:darkgray;fill:none;stroke-width:0.5px;}
text.ruler {stroke:none;fill:darkgray;stroke-width:1px;text-anchor:end;}
text.chromName {stroke:none;fill:darkgray;stroke-width:1px;text-anchor:middle;}
text.xLabel {stroke:none;fill:black;stroke-width:1px;text-anchor:middle;}
text.yLabel {stroke:none;fill:black;stroke-width:1px;text-anchor:middle;}
.cov0 {stroke:gray;fill:antiquewhite;stroke-width:0.5px;}
.cov1 {stroke:gray;fill:beige;stroke-width:0.5px;}
rect.average {stroke:green;fill:green;stroke-width:0.5px;opacity:0.3;}
rect.median {stroke:red;fill:red;stroke-width:0.5px;opacity:0.3;}
line.ruler {stroke:darkgray;stroke-dasharray:4;fill:none;stroke-width:1;}
</style><g class="maing"><g id="chromosomes" transform="translate(100.0,80.0)"><g id="chrom-LR761634.1" transform="translate(10.0,0)"><polygon class="cov0" points="0,370 0,313.08 1,142.31 2,156.54 3,284.62 4,241.92 5,227.69 6,284.62 7,185 8,156.54 9,142.31 10,156.54 11,128.08 12,156.54 13,227.69 14,284.62 15,142.31 16,142.31 17,199.23 18,142.31 19,142.31 20,128.08 21,142.31 22,156.54 23,185 24,170.77 25,142.31 27,142.31 28,156.54 29,142.31 30,142.31 31,156.54 32,270.38 33,156.54 34,156.54 35,170.77 36,128.08 37,199.23 38,213.46 39,156.54 40,142.31 42,142.31 43,185 44,170.77 45,213.46 46,185 47,156.54 48,185 49,156.54 50,170.77 51,156.54 52,142.31 53,156.54 54,185 55,185 56,128.08 57,128.08 58,156.54 59,170.77 60,170.77 61,142.31 62,170.77 63,185 64,213.46 65,185 66,170.77 67,199.23 68,142.31 69,227.69 70,156.54 71,142.31 72,227.69 73,185 74,156.54 75,142.31 76,142.31 77,185 78,185 79,156.54 80,284.62 81,298.85 82,142.31 83,142.31 84,170.77 85,156.54 86,128.08 87,199.23 88,128.08 89,270.38 90,170.77 91,156.54 92,142.31 93,170.77 94,113.85 95,128.08 96,113.85 97,170.77 98,241.92 99,142.31 100,142.31 101,185 102,156.54 103,170.77 104,185 105,113.85 106,185 107,199.23 108,256.15 109,128.08 110,113.85 111,142.31 112,128.08 113,156.54 114,298.85 115,213.46 116,113.85 117,128.08 118,113.85 119,156.54 120,170.77 121,113.85 122,128.08 124,128.08 125,113.85 126,128.08 127,142.31 128,185 129,156.54 130,185 130.72,370"><title>LR761634.1</title></polygon><rect class="average" height="1" width="130.72" x="0" y="162.67"><title>average:14.57</title></rect><rect class="median" height="1" width="130.72" x="0" y="156.54"><title>median:15</title></rect><text class="chromName" x="65.36" y="-12">LR761634.1<title>LR761634.1 55,785,328 bp</title></text><rect class="frame" height="370" width="130.72" x="0" y="0"/></g><g id="chrom-LR761635.1" transform="translate(141.71753661284166,0)"><polygon class="cov1" points="0,370 0,355.77 1,355.77 2,341.54 3,298.85 4,341.54 5,327.31 6,199.23 7,313.08 8,313.08 9,199.23 10,156.54 11,270.38 12,128.08 13,142.31 14,227.69 15,256.15 16,327.31 17,227.69 18,270.38 19,199.23 20,284.62 21,313.08 22,298.85 23,199.23 24,298.85 25,341.54 26,327.31 27,313.08 28,241.92 29,355.77 30,327.31 31,341.54 32,241.92 33,199.23 34,213.46 35,227.69 36,227.69 37,313.08 38,313.08 39,185 40,270.38 41,213.46 42,170.77 43,213.46 44,142.31 45,199.23 46,185 47,142.31 48,298.85 49,185 50,241.92 51,341.54 52,213.46 53,227.69 54,298.85 55,270.38 56,327.31 57,298.85 58,185 59,298.85 60,370 61,270.38 62,170.77 63,298.85 64,313.08 65,284.62 66,298.85 67,270.38 68,270.38 69,284.62 70,270.38 71,227.69 72,241.92 73,227.69 74,227.69 75,213.46 76,341.54 77,0 78,256.15 79,298.85 80,156.54 81,284.62 82,298.85 83,284.62 84,355.77 85,298.85 86,327.31 87,341.54 88,327.31 89,313.08 90,241.92 91,298.85 92,313.08 93,313.08 94,256.15 95,284.62 96,298.85 97,313.08 99,313.08 100,270.38 101,298.85 102,298.85 103,227.69 104,227.69 105,199.23 106,284.62 107,313.08 108,213.46 109,199.23 110,284.62 111,199.23 112,327.31 113,341.54 114,313.08 115,327.31 116,298.85 117,284.62 118,185 119,170.77 120,142.31 121,185 122,241.92 123,227.69 124,270.38 125,142.31 126,241.92 127,256.15 128,170.77 129,270.38 130,170.77 131,256.15 132,199.23 133,298.85 134,327.31 135,270.38 136,298.85 137,313.08 138,298.85 139,256.15 140,355.77 141,270.38 142,256.15 143,284.62 144,270.38 145,227.69 146,256.15 147,142.31 148,170.77 149,142.31 150,227.69 151,270.38 152,341.54 153,227.69 154,298.85 155,256.15 156,298.85 157,284.62 158,284.62 159,185 160,213.46 161,241.92 162,313.08 163,213.46 164,227.69 165,256.15 166,298.85 167,327.31 168,298.85 169,284.62 170,313.08 171,327.31 171.58,370"><title>LR761635.1</title></polygon><rect class="average" height="1" width="171.58" x="0" y="209.52"><title>average:11.28</title></rect><rect class="median" height="1" width="171.58" x="0" y="270.38"><title>median:7</title></rect><text class="chromName" x="85.79" y="-12">LR761635.1<title>LR761635.1 73,222,313 bp</title></text><rect class="frame" height="370" width="171.58" x="0" y="0"/></g><g id="chrom-LR761636.1" transform="translate(314.2938403401308,0)"><polygon class="cov0" points="0,370 0,341.54 1,170.77 2,241.92 3,298.85 4,256.15 5,142.31 6,156.54 7,156.54 8,128.08 9,156.54 10,113.85 11,128.08 12,142.31 13,213.46 14,113.85 15,142.31 16,128.08 17,128.08 18,156.54 19,156.54 20,142.31 21,128.08 23,128.08 24,199.23 25,142.31 26,199.23 27,270.38 28,142.31 29,128.08 30,142.31 31,128.08 32,142.31 33,128.08 34,156.54 35,185 36,142.31 37,185 38,156.54 39,142.31 40,142.31 41,170.77 43,170.77 44,142.31 45,156.54 46,185 47,142.31 48,213.46 49,156.54 50,170.77 51,128.08 52,156.54 53,142.31 54,227.69 55,170.77 56,156.54 57,142.31 58,170.77 59,142.31 60,170.77 61,213.46 62,185 63,142.31 64,156.54 65,170.77 66,156.54 67,170.77 68,185 69,170.77 70,213.46 71,128.08 72,142.31 73,156.54 74,170.77 75,170.77 76,313.08 77,227.69 78,241.92 79,270.38 80,270.38 81,156.54 82,213.46 83,170.77 84,142.31 85,156.54 86,313.08 87,170.77 88,156.54 89,227.69 90,156.54 91,142.31 92,199.23 93,170.77 94,156.54 95,185 96,213.46 97,142.31 98,142.31 99,199.23 100,156.54 101,128.08 102,170.77 103,128.08 104,142.31 105,156.54 107,156.54 108,142.31 110,142.31 111,185 112,170.77 113,170.77 114,142.31 116,142.31 117,156.54 118,199.23 119,156.54 120,156.54 121,256.15 122,142.31 123,142.31 124,185 125,128.08 126,113.85 127,199.23 128,270.38 129,113.85 130,156.54 133,156.54 134,128.08 135,142.31 136,256.15 136.65,370"><title>LR761636.1</title></polygon><rect class="average" height="1" width="136.65" x="0" y="162.58"><title>average:14.58</title></rect><rect class="median" height="1" width="136.65" x="0" y="156.54"><title>median:15</title></rect><text class="chromName" x="68.33" y="-12">LR761636.1<title>LR761636.1 58,319,100 bp</title></text><rect class="frame" height="370" width="136.65" x="0" y="0"/></g><g id="chrom-LR761637.1" transform="translate(451.9485730949149,0)"><polygon class="cov1" points="0,370 0,341.54 1,256.15 2,270.38 3,256.15 4,227.69 5,170.77 6,241.92 7,256.15 8,256.15 9,284.62 10,284.62 11,170.77 12,241.92 13,270.38 14,313.08 15,185 16,227.69 17,99.62 18,241.92 19,256.15 20,199.23 21,170.77 22,156.54 23,185 24,341.54 25,156.54 26,142.31 27,241.92 28,185 29,199.23 30,241.92 31,170.77 32,156.54 33,185 34,128.08 35,213.46 36,313.08 37,241.92 38,170.77 39,156.54 40,156.54 41,298.85 42,241.92 43,256.15 44,313.08 45,185 46,156.54 47,156.54 48,142.31 49,142.31 50,199.23 51,156.54 52,113.85 53,185 54,128.08 55,156.54 56,170.77 57,227.69 58,284.62 59,313.08 60,327.31 61,241.92 62,156.54 64,156.54 65,170.77 66,156.54 67,170.77 68,199.23 69,142.31 70,170.77 71,170.77 72,199.23 73,142.31 74,185 75,185 76,156.54 77,185 78,185 79,199.23 80,170.77 81,170.77 82,142.31 83,156.54 84,156.54 85,142.31 86,241.92 87,185 88,142.31 89,156.54 90,142.31 92,142.31 93,170.77 94,199.23 95,213.46 96,185 97,142.31 98,113.85 99,128.08 100,270.38 101,327.31 102,298.85 103,327.31 104,341.54 105,199.23 106,128.08 107,113.85 110,113.85 111,142.31 112,142.31 113,113.85 114,313.08 115,213.46 116,185 117,170.77 118,170.77 119,298.85 120,170.77 121,113.85 122,327.31 123,341.54 124,298.85 124.49,370"><title>LR761637.1</title></polygon><rect class="average" height="1" width="124.49" x="0" y="184.55"><title>average:13.03</title></rect><rect class="median" height="1" width="124.49" x="0" y="185"><title>median:13</title></rect><text class="chromName" x="62.25" y="-12">LR761637.1<title>LR761637.1 53,127,865 bp</title></text><rect class="frame" height="370" width="124.49" x="0" y="0"/></g><g id="chrom-LR761638.1" transform="translate(577.4390778079033,0)"><polygon class="cov0" points="0,370 0,241.92 1,199.23 2,313.08 3,128.08 4,185 5,99.62 6,199.23 8,199.23 9,128.08 10,156.54 11,313.08 12,128.08 13,156.54 14,113.85 15,156.54 16,99.62 17,113.85 18,284.62 19,313.08 20,128.08 21,213.46 22,128.08 24,128.08 25,170.77 26,284.62 27,128.08 28,199.23 29,341.54 30,270.38 31,156.54 32,355.77 33,341.54 34,199.23 35,213.46 36,170.77 37,313.08 38,298.85 39,313.08 40,355.77 41,313.08 42,241.92 43,142.31 44,156.54 45,284.62 46,142.31 47,128.08 48,128.08 49,241.92 50,355.77 51,270.38 52,185 53,199.23 54,241.92 55,241.92 56,156.54 57,227.69 58,156.54 59,185 60,213.46 61,227.69 62,156.54 63,313.08 64,327.31 65,327.31 66,213.46 67,199.23 68,170.77 69,256.15 70,185 71,341.54 72,341.54 73,298.85 74,227.69 75,341.54 76,313.08 77,213.46 78,256.15 79,241.92 80,241.92 81,170.77 82,270.38 83,327.31 84,298.85 85,199.23 86,156.54 87,170.77 88,313.08 89,142.31 90,284.62 91,156.54 92,113.85 93,128.08 94,142.31 95,227.69 96,270.38 97,156.54 98,284.62 99,213.46 100,213.46 101,170.77 102,270.38 103,185 104,241.92 105,284.62 106,227.69 107,185 108,270.38 109,185 110,227.69 111,213.46 112,298.85 113,227.69 114,284.62 115,284.62 116,327.31 117,341.54 118,341.54 119,313.08 120,270.38 121,355.77 123,355.77 124,284.62 125,298.85 126,327.31 127,284.62 128,370 129,313.08 130,327.31 131,313.08 132,270.38 133,341.54 134,270.38 135,313.08 136,170.77 137,370 138,341.54 139,298.85 140,313.08 141,355.77 142,341.54 143,298.85 144,170.77 145,199.23 146,284.62 147,142.31 148,156.54 149,156.54 150,185 151,313.08 152,156.54 153,170.77 154,241.92 155,227.69 156,213.46 157,270.38 158,284.62 159,241.92 160,241.92 161,227.69 162,227.69 163,256.15 164,213.46 165,256.15 166,270.38 167,284.62 168,227.69 169,185 170,284.62 171,270.38 172,270.38 172.35,370"><title>LR761638.1</title></polygon><rect class="average" height="1" width="172.35" x="0" y="205.67"><title>average:11.55</title></rect><rect class="median" height="1" width="172.35" x="0" y="241.92"><title>median:9</title></rect><text class="chromName" x="86.17" y="-12">LR761638.1<title>LR761638.1 73,550,375 bp</title></text><rect class="frame" height="370" width="172.35" x="0" y="0"/></g><g id="chrom-LR761639.1" transform="translate(750.784104388203,0)"><polygon class="cov1" points="0,370 0,313.08 1,156.54 2,170.77 3,270.38 4,142.31 5,227.69 6,355.77 7,241.92 8,142.31 9,128.08 10,170.77 11,256.15 12,256.15 13,128.08 14,170.77 15,142.31 19,142.31 20,128.08 21,156.54 22,170.77 23,170.77 24,185 25,213.46 26,170.77 27,327.31 28,341.54 29,227.69 30,313.08 31,156.54 32,156.54 33,142.31 34,227.69 35,213.46 36,227.69 37,142.31 39,142.31 40,227.69 41,142.31 42,156.54 43,128.08 44,156.54 45,142.31 46,170.77 47,156.54 48,142.31 49,170.77 50,156.54 51,142.31 52,185 53,170.77 54,170.77 55,156.54 56,142.31 57,156.54 58,156.54 59,142.31 60,156.54 61,142.31 62,156.54 63,156.54 64,128.08 65,142.31 66,185 67,156.54 68,156.54 69,199.23 70,156.54 71,170.77 72,170.77 73,156.54 74,213.46 75,156.54 76,156.54 77,170.77 78,142.31 79,156.54 80,156.54 81,142.31 82,142.31 83,156.54 84,213.46 85,156.54 86,142.31 87,156.54 89,156.54 90,128.08 91,170.77 92,142.31 93,185 94,185 95,156.54 96,142.31 99,142.31 100,156.54 101,142.31 102,142.31 103,156.54 104,128.08 105,142.31 106,256.15 107,156.54 108,128.08 109,142.31 110,142.31 111,313.08 112,185 113,128.08 114,185 115,128.08 116,170.77 117,142.31 118,142.31 119,128.08 120,170.77 121,142.31 122,142.31 123,128.08 124,170.77 125,142.31 126,142.31 127,128.08 128,156.54 129,128.08 130,170.77 131,156.54 132,185 133,355.77 134,113.85 135,170.77 136,185 137,156.54 138,199.23 139,170.77 140,298.85 140.95,370"><title>LR761639.1</title></polygon><rect class="average" height="1" width="140.95" x="0" y="165.64"><title>average:14.36</title></rect><rect class="median" height="1" width="140.95" x="0" y="156.54"><title>median:15</title></rect><text class="chromName" x="70.47" y="-12">LR761639.1<title>LR761639.1 60,151,564 bp</title></text><rect class="frame" height="370" width="140.95" x="0" y="0"/></g><g id="chrom-LR761640.1" transform="translate(892.7327113317651,0)"><polygon class="cov0" points="0,370 0,227.69 1,128.08 2,199.23 3,185 4,156.54 5,128.08 6,185 7,185 8,128.08 9,156.54 10,128.08 12,128.08 13,227.69 14,156.54 15,142.31 16,256.15 17,156.54 18,142.31 19,185 20,128.08 21,156.54 22,142.31 23,128.08 24,142.31 25,170.77 26,128.08 27,156.54 31,156.54 32,142.31 33,142.31 34,170.77 35,156.54 36,156.54 37,213.46 38,128.08 39,185 40,128.08 44,128.08 45,156.54 46,156.54 47,227.69 48,270.38 49,128.08 50,170.77 51,156.54 52,142.31 53,156.54 54,142.31 56,142.31 57,213.46 58,170.77 59,185 60,227.69 61,142.31 62,170.77 63,199.23 64,156.54 65,270.38 66,156.54 67,170.77 68,170.77 69,213.46 70,199.23 71,156.54 72,185 73,213.46 74,185 75,170.77 76,156.54 77,227.69 78,156.54 79,185 80,128.08 81,113.85 82,128.08 83,142.31 84,156.54 85,142.31 86,355.77 87,170.77 88,170.77 89,185 90,170.77 91,284.62 92,284.62 93,213.46 94,298.85 95,170.77 96,156.54 97,156.54 98,170.77 99,170.77 100,142.31 101,213.46 102,341.54 103,241.92 104,142.31 106,142.31 107,185 108,185 109,142.31 110,185 111,213.46 112,170.77 113,156.54 114,156.54 115,142.31 116,256.15 117,270.38 118,284.62 119,270.38 120,156.54 121,128.08 122,142.31 123,142.31 124,156.54 125,142.31 127,142.31 128,270.38 129,170.77 130,142.31 131,142.31 132,156.54 133,142.31 134,128.08 135,128.08 136,142.31 138,142.31 139,185 140,142.31 141,128.08 142,156.54 143,113.85 144,113.85 145,128.08 145.53,370"><title>LR761640.1</title></polygon><rect class="average" height="1" width="145.53" x="0" y="164.22"><title>average:14.46</title></rect><rect class="median" height="1" width="145.53" x="0" y="156.54"><title>median:15</title></rect><text class="chromName" x="72.77" y="-12">LR761640.1<title>LR761640.1 62,107,823 bp</title></text><rect class="frame" height="370" width="145.53" x="0" y="0"/></g><g id="chrom-LR761641.1" transform="translate(1039.265271917344,0)"><polygon class="cov1" points="0,370 0,298.85 1,142.31 2,270.38 3,199.23 4,185 5,213.46 6,284.62 7,227.69 8,270.38 9,170.77 10,142.31 11,227.69 12,213.46 13,113.85 14,199.23 15,142.31 16,128.08 17,298.85 18,142.31 20,142.31 21,170.77 22,213.46 23,156.54 24,185 25,142.31 26,256.15 27,213.46 28,256.15 29,298.85 30,241.92 31,213.46 32,241.92 33,199.23 34,270.38 35,313.08 36,355.77 37,284.62 38,256.15 39,270.38 40,199.23 41,313.08 42,327.31 43,355.77 44,241.92 45,256.15 46,256.15 47,284.62 48,213.46 49,142.31 50,185 51,156.54 52,128.08 56,128.08 57,156.54 58,170.77 59,156.54 60,142.31 61,313.08 62,156.54 63,185 64,213.46 65,199.23 66,199.23 67,256.15 68,241.92 69,142.31 70,284.62 71,128.08 72,213.46 73,313.08 74,213.46 75,313.08 76,156.54 77,170.77 78,170.77 79,241.92 80,270.38 81,355.77 82,355.77 83,270.38 84,170.77 85,170.77 86,270.38 87,128.08 88,227.69 89,185 90,227.69 91,270.38 92,128.08 93,199.23 94,241.92 95,199.23 96,185 97,327.31 98,128.08 99,370 100,256.15 101,113.85 102,185 103,128.08 104,185 105,142.31 106,227.69 107,142.31 109,142.31 110,128.08 111,298.85 112,128.08 113,256.15 114,156.54 115,170.77 116,113.85 117,170.77 118,142.31 119,213.46 120,256.15 121,156.54 122,185 123,241.92 124,156.54 125,227.69 126,270.38 127,113.85 128,284.62 129,185 130,270.38 131,185 132,370 133,284.62 134,113.85 135,355.77 136,355.77 136.99,370"><title>LR761641.1</title></polygon><rect class="average" height="1" width="136.99" x="0" y="186.91"><title>average:12.87</title></rect><rect class="median" height="1" width="136.99" x="0" y="213.46"><title>median:11</title></rect><text class="chromName" x="68.5" y="-12">LR761641.1<title>LR761641.1 58,462,999 bp</title></text><rect class="frame" height="370" width="136.99" x="0" y="0"/></g><g id="chrom-LR761642.1" transform="translate(1177.25719230686,0)"><polygon class="cov0" points="0,370 0,327.31 1,298.85 2,270.38 3,241.92 4,270.38 5,298.85 6,284.62 7,298.85 8,270.38 9,241.92 10,213.46 11,185 12,213.46 13,128.08 14,156.54 15,213.46 16,270.38 17,213.46 18,227.69 19,185 20,185 21,142.31 22,241.92 23,227.69 24,156.54 25,128.08 26,156.54 27,156.54 28,241.92 29,156.54 30,213.46 31,142.31 32,185 33,213.46 34,170.77 35,241.92 36,142.31 37,142.31 38,128.08 39,199.23 40,142.31 41,156.54 42,142.31 43,156.54 44,156.54 45,185 46,142.31 47,256.15 48,199.23 49,284.62 50,185 51,185 52,227.69 53,128.08 54,142.31 55,213.46 56,156.54 57,199.23 58,227.69 59,156.54 60,156.54 61,327.31 62,185 63,156.54 64,199.23 65,142.31 66,156.54 67,327.31 68,227.69 69,142.31 70,142.31 71,227.69 72,156.54 73,213.46 74,142.31 75,185 76,327.31 77,142.31 78,142.31 79,270.38 80,256.15 81,170.77 82,341.54 83,256.15 84,298.85 85,227.69 86,298.85 86.91,370"><title>LR761642.1</title></polygon><rect class="average" height="1" width="86.91" x="0" y="171.36"><title>average:13.96</title></rect><rect class="median" height="1" width="86.91" x="0" y="199.23"><title>median:12</title></rect><text class="chromName" x="43.45" y="-12">LR761642.1<title>LR761642.1 37,089,910 bp</title></text><rect class="frame" height="370" width="86.91" x="0" y="0"/></g><g id="chrom-LR761643.1" transform="translate(1265.1671710093603,0)"><polygon class="cov1" points="0,370 0,284.62 1,241.92 2,156.54 3,128.08 4,142.31 5,213.46 6,170.77 7,170.77 8,142.31 9,128.08 10,128.08 11,170.77 12,142.31 13,227.69 14,241.92 15,156.54 16,128.08 17,170.77 18,156.54 19,170.77 20,327.31 21,170.77 22,142.31 23,142.31 24,170.77 25,185 26,355.77 27,313.08 28,313.08 29,142.31 30,199.23 31,170.77 32,213.46 33,156.54 34,185 35,213.46 36,256.15 37,142.31 38,156.54 39,142.31 40,170.77 41,170.77 42,199.23 43,256.15 44,170.77 45,199.23 46,156.54 47,270.38 48,170.77 49,170.77 50,199.23 51,156.54 52,156.54 53,170.77 54,185 55,156.54 56,142.31 57,142.31 58,213.46 59,142.31 60,128.08 61,142.31 62,170.77 63,156.54 64,170.77 65,185 66,170.77 68,170.77 69,156.54 70,170.77 71,213.46 72,199.23 73,227.69 74,142.31 75,213.46 76,156.54 77,142.31 78,199.23 79,270.38 80,156.54 81,128.08 82,156.54 83,142.31 85,142.31 86,156.54 87,142.31 88,170.77 89,327.31 90,185 91,142.31 92,142.31 93,156.54 94,142.31 95,170.77 96,142.31 98,142.31 99,128.08 100,142.31 101,241.92 102,156.54 103,156.54 104,170.77 105,156.54 106,142.31 107,142.31 108,156.54 109,142.31 112,142.31 113,227.69 114,156.54 115,142.31 116,113.85 117,128.08 118,128.08 119,170.77 120,128.08 123,128.08 124,142.31 125,142.31 126,113.85 127,156.54 128,170.77 129,113.85 130,142.31 131,213.46 132,113.85 133,185 134,241.92 134.83,370"><title>LR761643.1</title></polygon><rect class="average" height="1" width="134.83" x="0" y="167.75"><title>average:14.21</title></rect><rect class="median" height="1" width="134.83" x="0" y="170.77"><title>median:14</title></rect><text class="chromName" x="67.42" y="-12">LR761643.1<title>LR761643.1 57,541,580 bp</title></text><rect class="frame" height="370" width="134.83" x="0" y="0"/></g><g><line class="ruler" x1="-2" x2="1390" y1="333" y2="333"><title>2</title></line><text class="ruler" x="-5" y="333">2</text><line class="ruler" x1="-2" x2="1390" y1="296" y2="296"><title>5</title></line><text class="ruler" x="-5" y="296">5</text><line class="ruler" x1="-2" x2="1390" y1="259" y2="259"><title>7</title></line><text class="ruler" x="-5" y="259">7</text><line class="ruler" x1="-2" x2="1390" y1="222" y2="222"><title>10</title></line><text class="ruler" x="-5" y="222">10</text><line class="ruler" x1="-2" x2="1390" y1="185" y2="185"><title>13</title></line><text class="ruler" x="-5" y="185">13</text><line class="ruler" x1="-2" x2="1390" y1="148" y2="148"><title>15</title></line><text class="ruler" x="-5" y="148">15</text><line class="ruler" x1="-2" x2="1390" y1="111" y2="111"><title>18</title></line><text class="ruler" x="-5" y="111">18</text><line class="ruler" x1="-2" x2="1390" y1="74" y2="74"><title>20</title></line><text class="ruler" x="-5" y="74">20</text><line class="ruler" x1="-2" x2="1390" y1="37" y2="37"><title>23</title></line><text class="ruler" x="-5" y="37">23</text><line class="ruler" x1="-2" x2="1390" y1="0" y2="0"><title>26</title></line><text class="ruler" x="-5" y="0">26</text></g></g><text class="title" x="795" y="40">F15_M14_24.merged.realigned.bam F15_M14_24 F15_M14_24_1 F15_M14_24_2<title>./F15_M14_24.merged.realigned.bam</title></text><text class="xLabel" x="795" y="475">GCA_902806645.1_cgigas_uk_roslin_v1_genomic.fna  (589,358,857 bp)<title>../ref/GCA_902806645.1_cgigas_uk_roslin_v1_genomic.fna</title></text><text class="yLabel" transform="translate(25,265) rotate(90)" x="0" y="0">Coverage bp (median)</text></g></svg>