<?xml version="1.0" encoding="UTF-8" standalone="no"?><svg height="500" width="1500" xmlns="http://www.w3.org/2000/svg"><title>F15_M15_24.merged.realigned.bam</title><desc>Made with wgscoverageplotter undefined Author: Pierre Lindenbaum</desc><style>g.maing {stroke:black;stroke-width:0.5px;fill:none;}
text.title {stroke:none;fill:black;stroke-width:1px;text-anchor:middle;}
rect.frame {stroke:darkgray;fill:none;stroke-width:0.5px;}
text.ruler {stroke:none;fill:darkgray;stroke-width:1px;text-anchor:end;}
text.chromName {stroke:none;fill:darkgray;stroke-width:1px;text-anchor:middle;}
text.xLabel {stroke:none;fill:black;stroke-width:1px;text-anchor:middle;}
text.yLabel {stroke:none;fill:black;stroke-width:1px;text-anchor:middle;}
.cov0 {stroke:gray;fill:antiquewhite;stroke-width:0.5px;}
.cov1 {stroke:gray;fill:beige;stroke-width:0.5px;}
rect.average {stroke:green;fill:green;stroke-width:0.5px;opacity:0.3;}
rect.median {stroke:red;fill:red;stroke-width:0.5px;opacity:0.3;}
line.ruler {stroke:darkgray;stroke-dasharray:4;fill:none;stroke-width:1;}
</style><g class="maing"><g id="chromosomes" transform="translate(100.0,80.0)"><g id="chrom-LR761634.1" transform="translate(10.0,0)"><polygon class="cov0" points="0,370 0,246.67 1,138.75 2,185 3,277.5 4,246.67 5,200.42 6,277.5 7,185 8,154.17 9,123.33 10,154.17 11,107.92 12,154.17 13,200.42 14,277.5 15,138.75 16,123.33 17,231.25 18,138.75 19,123.33 20,123.33 21,138.75 22,154.17 24,154.17 25,123.33 27,123.33 28,138.75 29,123.33 30,123.33 31,138.75 32,262.08 33,123.33 34,138.75 35,154.17 36,107.92 37,185 38,185 39,138.75 40,138.75 41,123.33 42,138.75 43,169.58 44,169.58 45,215.83 46,185 47,138.75 48,154.17 49,138.75 50,154.17 51,138.75 52,123.33 53,138.75 54,200.42 55,231.25 56,123.33 57,123.33 58,138.75 59,138.75 60,154.17 61,123.33 62,154.17 63,185 64,215.83 65,169.58 66,154.17 67,200.42 68,123.33 69,200.42 70,138.75 71,123.33 72,215.83 73,185 74,138.75 75,123.33 76,138.75 77,169.58 78,154.17 79,138.75 80,277.5 81,277.5 82,123.33 83,138.75 84,154.17 85,138.75 86,123.33 87,200.42 88,123.33 89,262.08 90,169.58 91,154.17 92,123.33 93,154.17 94,107.92 95,138.75 96,107.92 97,169.58 98,277.5 99,138.75 100,138.75 101,154.17 103,154.17 104,185 105,123.33 106,200.42 107,200.42 108,215.83 109,107.92 110,107.92 111,123.33 112,123.33 113,154.17 114,231.25 115,185 116,107.92 117,123.33 118,107.92 119,169.58 120,169.58 121,123.33 123,123.33 124,138.75 125,123.33 126,138.75 127,138.75 128,200.42 129,169.58 130,200.42 130.72,370"><title>LR761634.1</title></polygon><rect class="average" height="1" width="130.72" x="0" y="153.06"><title>average:14.07</title></rect><rect class="median" height="1" width="130.72" x="0" y="154.17"><title>median:14</title></rect><text class="chromName" x="65.36" y="-12">LR761634.1<title>LR761634.1 55,785,328 bp</title></text><rect class="frame" height="370" width="130.72" x="0" y="0"/></g><g id="chrom-LR761635.1" transform="translate(141.71753661284166,0)"><polygon class="cov1" points="0,370 0,339.17 1,339.17 2,323.75 3,277.5 4,354.58 5,323.75 6,154.17 7,277.5 8,292.92 9,323.75 10,308.33 11,323.75 12,308.33 13,123.33 14,169.58 15,246.67 16,292.92 17,246.67 18,292.92 19,262.08 20,308.33 21,308.33 22,277.5 23,262.08 24,354.58 25,323.75 26,339.17 27,354.58 28,308.33 29,354.58 30,354.58 31,292.92 32,215.83 33,215.83 34,231.25 35,231.25 36,215.83 37,200.42 38,339.17 39,200.42 40,246.67 41,262.08 42,185 43,215.83 44,169.58 45,154.17 46,231.25 47,185 48,246.67 49,185 50,246.67 51,339.17 52,262.08 53,262.08 54,323.75 55,292.92 56,370 57,262.08 58,154.17 59,308.33 60,292.92 61,262.08 62,138.75 63,262.08 64,292.92 65,262.08 66,277.5 67,277.5 68,231.25 69,277.5 70,339.17 71,185 72,231.25 73,215.83 74,262.08 75,200.42 76,354.58 77,0 78,246.67 79,308.33 80,154.17 81,323.75 82,323.75 83,308.33 84,354.58 85,323.75 86,354.58 89,354.58 90,292.92 91,292.92 92,308.33 93,308.33 94,277.5 95,308.33 96,354.58 97,354.58 98,308.33 99,323.75 100,323.75 101,354.58 102,323.75 103,262.08 104,262.08 105,185 106,277.5 107,277.5 108,200.42 109,92.5 110,308.33 111,185 112,292.92 113,323.75 114,308.33 115,339.17 116,308.33 117,277.5 118,169.58 119,185 120,154.17 121,185 122,246.67 124,246.67 125,138.75 126,215.83 127,246.67 128,154.17 129,262.08 130,185 131,277.5 132,215.83 133,277.5 134,308.33 135,292.92 136,308.33 138,308.33 139,231.25 140,323.75 141,308.33 142,277.5 143,292.92 144,277.5 145,231.25 146,231.25 147,154.17 148,169.58 149,138.75 150,215.83 151,292.92 152,339.17 153,231.25 154,323.75 155,277.5 156,292.92 157,262.08 158,231.25 159,169.58 160,215.83 161,246.67 162,292.92 163,200.42 164,246.67 165,277.5 166,308.33 167,339.17 168,308.33 169,292.92 170,323.75 171,323.75 171.58,370"><title>LR761635.1</title></polygon><rect class="average" height="1" width="171.58" x="0" y="216.62"><title>average:9.95</title></rect><rect class="median" height="1" width="171.58" x="0" y="277.5"><title>median:6</title></rect><text class="chromName" x="85.79" y="-12">LR761635.1<title>LR761635.1 73,222,313 bp</title></text><rect class="frame" height="370" width="171.58" x="0" y="0"/></g><g id="chrom-LR761636.1" transform="translate(314.2938403401308,0)"><polygon class="cov0" points="0,370 0,339.17 1,185 2,215.83 3,292.92 4,231.25 5,138.75 6,154.17 7,154.17 8,123.33 9,138.75 10,123.33 11,154.17 12,138.75 13,246.67 14,107.92 15,154.17 16,123.33 17,123.33 18,138.75 19,138.75 20,123.33 21,138.75 22,138.75 23,123.33 24,185 25,138.75 26,215.83 27,262.08 28,123.33 29,107.92 30,123.33 31,107.92 32,107.92 33,123.33 34,154.17 35,200.42 36,138.75 37,154.17 38,138.75 39,138.75 40,169.58 41,154.17 43,154.17 44,123.33 45,154.17 46,169.58 47,123.33 48,169.58 49,154.17 50,154.17 51,123.33 52,138.75 53,138.75 54,231.25 55,169.58 56,169.58 57,123.33 58,154.17 59,123.33 60,154.17 61,231.25 62,169.58 63,154.17 64,138.75 65,154.17 66,138.75 67,154.17 68,169.58 69,154.17 70,231.25 71,107.92 72,123.33 73,169.58 74,154.17 75,154.17 76,308.33 77,231.25 78,215.83 79,246.67 80,262.08 81,138.75 82,200.42 83,138.75 84,123.33 85,138.75 86,246.67 87,169.58 88,138.75 89,215.83 90,154.17 91,123.33 92,200.42 93,154.17 94,138.75 95,154.17 96,200.42 97,138.75 98,138.75 99,169.58 100,169.58 101,123.33 102,138.75 103,123.33 104,107.92 105,123.33 106,138.75 107,123.33 110,123.33 111,154.17 113,154.17 114,123.33 116,123.33 117,138.75 118,169.58 119,123.33 120,123.33 121,200.42 122,138.75 123,123.33 124,169.58 125,123.33 126,123.33 127,200.42 128,277.5 129,123.33 130,138.75 131,154.17 132,169.58 133,169.58 134,138.75 135,138.75 136,308.33 136.65,370"><title>LR761636.1</title></polygon><rect class="average" height="1" width="136.65" x="0" y="153.74"><title>average:14.03</title></rect><rect class="median" height="1" width="136.65" x="0" y="154.17"><title>median:14</title></rect><text class="chromName" x="68.33" y="-12">LR761636.1<title>LR761636.1 58,319,100 bp</title></text><rect class="frame" height="370" width="136.65" x="0" y="0"/></g><g id="chrom-LR761637.1" transform="translate(451.9485730949149,0)"><polygon class="cov1" points="0,370 0,354.58 1,323.75 2,308.33 3,277.5 4,231.25 5,185 6,246.67 7,246.67 8,231.25 9,308.33 10,323.75 11,185 12,292.92 13,277.5 14,308.33 15,154.17 16,215.83 17,92.5 18,292.92 19,308.33 20,246.67 21,185 22,169.58 23,231.25 24,323.75 25,169.58 26,138.75 27,231.25 28,215.83 29,200.42 30,246.67 31,154.17 33,154.17 34,123.33 35,200.42 36,308.33 37,246.67 38,169.58 39,154.17 40,138.75 41,277.5 42,185 43,308.33 44,308.33 45,138.75 47,138.75 48,123.33 49,123.33 50,169.58 51,138.75 52,107.92 53,169.58 54,123.33 55,138.75 56,138.75 57,231.25 58,292.92 59,277.5 60,262.08 61,215.83 62,138.75 63,138.75 64,123.33 65,154.17 66,138.75 67,138.75 68,185 69,123.33 70,154.17 71,138.75 72,185 73,138.75 74,185 75,154.17 76,138.75 77,169.58 78,185 79,185 80,169.58 81,138.75 82,138.75 83,154.17 84,154.17 85,138.75 86,231.25 87,154.17 88,123.33 89,138.75 90,123.33 91,138.75 92,123.33 93,154.17 94,185 95,215.83 96,200.42 97,138.75 98,107.92 99,123.33 100,246.67 101,277.5 102,277.5 103,308.33 104,308.33 105,200.42 106,123.33 109,123.33 110,107.92 111,138.75 112,138.75 113,123.33 114,323.75 115,215.83 116,169.58 117,169.58 118,138.75 119,292.92 120,154.17 121,123.33 122,339.17 123,323.75 124,323.75 124.49,370"><title>LR761637.1</title></polygon><rect class="average" height="1" width="124.49" x="0" y="177.3"><title>average:12.5</title></rect><rect class="median" height="1" width="124.49" x="0" y="185"><title>median:12</title></rect><text class="chromName" x="62.25" y="-12">LR761637.1<title>LR761637.1 53,127,865 bp</title></text><rect class="frame" height="370" width="124.49" x="0" y="0"/></g><g id="chrom-LR761638.1" transform="translate(577.4390778079033,0)"><polygon class="cov0" points="0,370 0,169.58 1,107.92 2,308.33 3,138.75 4,215.83 5,154.17 6,200.42 7,200.42 8,215.83 9,123.33 10,169.58 11,292.92 12,154.17 13,169.58 14,123.33 15,169.58 16,123.33 17,138.75 18,246.67 19,323.75 20,138.75 21,231.25 22,123.33 24,123.33 25,169.58 26,354.58 27,123.33 28,185 29,323.75 30,262.08 31,154.17 32,362.29 33,339.17 34,185 35,246.67 36,154.17 37,339.17 38,292.92 39,339.17 40,339.17 41,323.75 42,215.83 43,138.75 44,154.17 45,292.92 46,200.42 47,123.33 48,138.75 49,200.42 50,354.58 51,215.83 52,215.83 53,169.58 54,246.67 55,215.83 56,154.17 57,231.25 58,169.58 59,169.58 60,231.25 61,215.83 62,154.17 63,277.5 64,323.75 65,262.08 66,200.42 67,200.42 68,169.58 69,292.92 70,169.58 71,339.17 72,308.33 73,292.92 74,246.67 75,323.75 76,323.75 77,215.83 78,370 79,339.17 80,323.75 81,169.58 82,262.08 83,339.17 84,308.33 85,215.83 86,123.33 87,169.58 88,308.33 89,138.75 90,292.92 91,154.17 92,123.33 93,123.33 94,138.75 95,215.83 96,292.92 97,169.58 98,262.08 99,215.83 100,200.42 101,169.58 102,262.08 103,200.42 104,308.33 105,308.33 106,246.67 107,185 108,215.83 109,169.58 110,200.42 111,200.42 112,277.5 113,246.67 115,246.67 116,323.75 117,370 118,323.75 119,308.33 120,308.33 121,339.17 122,354.58 123,354.58 124,308.33 126,308.33 127,262.08 128,370 129,277.5 130,339.17 131,308.33 132,277.5 133,323.75 134,246.67 135,308.33 136,185 137,370 138,354.58 139,277.5 140,323.75 141,370 142,339.17 143,246.67 144,169.58 145,215.83 146,292.92 147,138.75 148,185 149,169.58 150,200.42 151,323.75 152,169.58 153,154.17 154,262.08 155,292.92 156,200.42 157,277.5 158,308.33 159,292.92 160,323.75 161,308.33 162,292.92 163,277.5 164,308.33 165,308.33 166,354.58 167,370 168,292.92 169,231.25 170,354.58 171,354.58 172,339.17 172.35,370"><title>LR761638.1</title></polygon><rect class="average" height="1" width="172.35" x="0" y="210.81"><title>average:10.33</title></rect><rect class="median" height="1" width="172.35" x="0" y="246.67"><title>median:8</title></rect><text class="chromName" x="86.17" y="-12">LR761638.1<title>LR761638.1 73,550,375 bp</title></text><rect class="frame" height="370" width="172.35" x="0" y="0"/></g><g id="chrom-LR761639.1" transform="translate(750.784104388203,0)"><polygon class="cov1" points="0,370 0,308.33 1,154.17 2,123.33 3,277.5 4,154.17 5,231.25 6,339.17 7,277.5 8,154.17 9,123.33 10,154.17 11,215.83 12,277.5 13,123.33 14,154.17 15,123.33 16,138.75 17,123.33 18,123.33 19,107.92 20,107.92 21,123.33 22,154.17 23,169.58 24,169.58 25,200.42 26,185 27,323.75 28,354.58 29,215.83 30,308.33 31,154.17 32,169.58 33,138.75 34,215.83 35,200.42 36,215.83 37,138.75 39,138.75 40,200.42 41,138.75 42,138.75 43,107.92 44,138.75 45,123.33 46,154.17 47,138.75 48,138.75 49,169.58 50,154.17 51,138.75 52,185 53,154.17 54,154.17 55,138.75 63,138.75 64,107.92 65,123.33 66,185 67,138.75 68,138.75 69,185 70,138.75 71,154.17 72,138.75 73,138.75 74,215.83 75,138.75 76,138.75 77,154.17 78,123.33 79,138.75 80,169.58 81,138.75 83,138.75 84,215.83 85,138.75 86,123.33 87,138.75 88,123.33 89,138.75 90,123.33 91,138.75 92,138.75 93,169.58 94,154.17 95,138.75 96,154.17 97,123.33 98,123.33 99,138.75 103,138.75 104,123.33 105,123.33 106,246.67 107,138.75 108,107.92 109,123.33 110,138.75 111,339.17 112,185 113,123.33 114,169.58 115,123.33 116,154.17 117,138.75 118,138.75 119,123.33 120,154.17 121,123.33 123,123.33 124,169.58 125,138.75 126,123.33 127,138.75 128,154.17 129,138.75 130,185 131,154.17 132,169.58 133,339.17 134,123.33 135,169.58 136,154.17 137,154.17 138,169.58 139,185 140,277.5 140.95,370"><title>LR761639.1</title></polygon><rect class="average" height="1" width="140.95" x="0" y="155.49"><title>average:13.91</title></rect><rect class="median" height="1" width="140.95" x="0" y="154.17"><title>median:14</title></rect><text class="chromName" x="70.47" y="-12">LR761639.1<title>LR761639.1 60,151,564 bp</title></text><rect class="frame" height="370" width="140.95" x="0" y="0"/></g><g id="chrom-LR761640.1" transform="translate(892.7327113317651,0)"><polygon class="cov0" points="0,370 0,169.58 1,123.33 2,185 3,169.58 4,169.58 5,123.33 6,185 7,185 8,138.75 9,185 10,123.33 11,169.58 12,123.33 13,277.5 14,169.58 15,138.75 16,215.83 17,138.75 18,123.33 19,185 20,138.75 21,138.75 22,123.33 23,107.92 24,138.75 25,138.75 26,107.92 27,123.33 28,138.75 30,138.75 31,123.33 33,123.33 34,154.17 35,138.75 36,138.75 37,200.42 38,123.33 39,169.58 40,107.92 41,123.33 42,92.5 43,123.33 44,123.33 45,154.17 46,138.75 47,246.67 48,323.75 49,123.33 50,154.17 51,138.75 52,123.33 53,154.17 54,123.33 56,123.33 57,246.67 58,154.17 59,185 60,262.08 61,138.75 62,154.17 63,200.42 64,123.33 65,277.5 66,138.75 67,154.17 68,138.75 69,185 70,185 71,138.75 72,185 73,215.83 74,169.58 75,138.75 76,138.75 77,215.83 78,138.75 79,169.58 80,92.5 81,107.92 82,107.92 83,138.75 84,123.33 85,123.33 86,339.17 87,154.17 88,169.58 90,169.58 91,262.08 92,262.08 93,200.42 94,262.08 95,154.17 96,154.17 97,138.75 98,154.17 99,138.75 100,123.33 101,185 102,339.17 103,246.67 104,138.75 105,123.33 106,138.75 107,169.58 108,215.83 109,138.75 110,169.58 111,200.42 112,138.75 113,138.75 114,154.17 115,138.75 116,308.33 117,339.17 118,354.58 119,323.75 120,138.75 121,123.33 122,138.75 123,123.33 124,138.75 125,123.33 126,123.33 127,138.75 128,246.67 129,154.17 130,123.33 131,138.75 132,154.17 133,123.33 134,107.92 135,123.33 136,138.75 137,138.75 138,123.33 139,169.58 140,138.75 141,123.33 142,154.17 143,154.17 144,138.75 145,123.33 145.53,370"><title>LR761640.1</title></polygon><rect class="average" height="1" width="145.53" x="0" y="156.41"><title>average:13.85</title></rect><rect class="median" height="1" width="145.53" x="0" y="154.17"><title>median:14</title></rect><text class="chromName" x="72.77" y="-12">LR761640.1<title>LR761640.1 62,107,823 bp</title></text><rect class="frame" height="370" width="145.53" x="0" y="0"/></g><g id="chrom-LR761641.1" transform="translate(1039.265271917344,0)"><polygon class="cov1" points="0,370 0,292.92 1,169.58 2,262.08 3,169.58 4,92.5 5,185 6,246.67 7,246.67 8,292.92 9,185 10,154.17 11,185 12,246.67 13,154.17 14,200.42 15,123.33 16,154.17 17,323.75 18,138.75 20,138.75 21,169.58 22,200.42 23,154.17 24,185 25,169.58 26,231.25 27,185 28,231.25 29,308.33 30,231.25 31,185 32,246.67 33,215.83 34,277.5 36,277.5 37,231.25 38,246.67 39,246.67 40,231.25 41,277.5 42,277.5 43,323.75 44,262.08 45,215.83 46,246.67 47,277.5 48,292.92 49,154.17 50,185 51,154.17 52,123.33 53,123.33 54,138.75 55,123.33 56,123.33 57,169.58 58,185 59,185 60,138.75 61,339.17 62,138.75 63,185 64,200.42 65,154.17 66,215.83 67,246.67 68,215.83 69,169.58 70,231.25 71,123.33 72,200.42 73,308.33 74,215.83 75,292.92 76,185 77,200.42 78,154.17 79,215.83 80,292.92 81,354.58 82,354.58 83,323.75 84,185 85,138.75 86,246.67 87,123.33 88,215.83 89,169.58 90,262.08 91,231.25 92,138.75 93,246.67 94,308.33 95,231.25 96,169.58 97,308.33 98,154.17 99,370 100,262.08 101,107.92 102,169.58 103,123.33 104,185 105,138.75 106,215.83 107,123.33 108,154.17 109,154.17 110,138.75 111,262.08 112,138.75 113,292.92 114,138.75 115,185 116,123.33 117,169.58 118,154.17 119,215.83 120,200.42 121,200.42 122,138.75 123,231.25 124,154.17 125,215.83 126,262.08 127,123.33 128,277.5 129,185 130,277.5 131,200.42 132,354.58 133,277.5 134,138.75 135,354.58 136,339.17 136.99,370"><title>LR761641.1</title></polygon><rect class="average" height="1" width="136.99" x="0" y="183.51"><title>average:12.1</title></rect><rect class="median" height="1" width="136.99" x="0" y="200.42"><title>median:11</title></rect><text class="chromName" x="68.5" y="-12">LR761641.1<title>LR761641.1 58,462,999 bp</title></text><rect class="frame" height="370" width="136.99" x="0" y="0"/></g><g id="chrom-LR761642.1" transform="translate(1177.25719230686,0)"><polygon class="cov0" points="0,370 0,292.92 1,262.08 2,231.25 3,262.08 4,308.33 5,339.17 6,277.5 7,262.08 8,323.75 9,323.75 10,262.08 11,200.42 12,231.25 13,138.75 14,185 15,231.25 16,308.33 17,246.67 18,292.92 19,215.83 20,200.42 21,185 22,323.75 23,292.92 24,169.58 25,138.75 26,154.17 27,185 28,262.08 29,169.58 30,231.25 31,138.75 32,169.58 33,231.25 34,154.17 35,262.08 36,154.17 37,200.42 38,123.33 39,185 40,154.17 41,154.17 42,123.33 43,138.75 44,154.17 45,200.42 46,154.17 47,246.67 48,246.67 49,277.5 50,185 51,185 52,200.42 53,138.75 54,138.75 55,231.25 56,169.58 57,215.83 58,262.08 59,154.17 60,154.17 61,323.75 62,200.42 63,154.17 64,215.83 65,185 66,169.58 67,292.92 68,231.25 69,169.58 70,154.17 71,246.67 72,169.58 73,231.25 74,138.75 75,185 76,308.33 77,154.17 78,138.75 79,262.08 80,246.67 81,185 82,308.33 83,246.67 84,292.92 85,215.83 86,339.17 86.91,370"><title>LR761642.1</title></polygon><rect class="average" height="1" width="86.91" x="0" y="178.36"><title>average:12.43</title></rect><rect class="median" height="1" width="86.91" x="0" y="215.83"><title>median:10</title></rect><text class="chromName" x="43.45" y="-12">LR761642.1<title>LR761642.1 37,089,910 bp</title></text><rect class="frame" height="370" width="86.91" x="0" y="0"/></g><g id="chrom-LR761643.1" transform="translate(1265.1671710093603,0)"><polygon class="cov1" points="0,370 0,339.17 1,246.67 2,169.58 3,138.75 4,154.17 5,231.25 6,169.58 7,169.58 8,138.75 9,123.33 10,138.75 11,169.58 12,138.75 13,200.42 14,231.25 15,154.17 16,107.92 17,138.75 18,154.17 19,154.17 20,354.58 21,154.17 22,138.75 23,138.75 24,169.58 25,169.58 26,354.58 27,308.33 28,308.33 29,138.75 30,169.58 31,154.17 32,200.42 33,138.75 34,123.33 35,200.42 36,246.67 37,123.33 38,138.75 39,123.33 40,138.75 41,154.17 42,185 43,292.92 44,154.17 45,185 46,123.33 47,262.08 48,169.58 49,154.17 50,200.42 51,138.75 52,138.75 53,154.17 54,169.58 55,138.75 56,123.33 57,138.75 58,169.58 59,138.75 60,107.92 61,138.75 62,154.17 63,138.75 64,154.17 65,185 66,154.17 68,154.17 69,138.75 70,169.58 71,246.67 72,215.83 73,215.83 74,123.33 75,231.25 76,154.17 77,123.33 78,200.42 79,246.67 80,138.75 81,123.33 82,138.75 83,138.75 84,123.33 85,123.33 86,154.17 87,123.33 88,169.58 89,339.17 90,169.58 91,138.75 92,123.33 93,154.17 94,123.33 95,154.17 96,123.33 97,138.75 98,123.33 99,123.33 100,138.75 101,246.67 102,138.75 103,138.75 104,154.17 105,138.75 106,123.33 107,123.33 108,138.75 109,107.92 110,123.33 111,107.92 112,123.33 113,200.42 114,154.17 115,138.75 116,107.92 117,107.92 118,138.75 119,154.17 120,107.92 121,123.33 122,123.33 123,107.92 124,138.75 125,123.33 126,123.33 127,200.42 128,169.58 129,123.33 130,154.17 131,215.83 132,123.33 133,246.67 134,308.33 134.83,370"><title>LR761643.1</title></polygon><rect class="average" height="1" width="134.83" x="0" y="160.21"><title>average:13.61</title></rect><rect class="median" height="1" width="134.83" x="0" y="154.17"><title>median:14</title></rect><text class="chromName" x="67.42" y="-12">LR761643.1<title>LR761643.1 57,541,580 bp</title></text><rect class="frame" height="370" width="134.83" x="0" y="0"/></g><g><line class="ruler" x1="-2" x2="1390" y1="333" y2="333"><title>2</title></line><text class="ruler" x="-5" y="333">2</text><line class="ruler" x1="-2" x2="1390" y1="296" y2="296"><title>4</title></line><text class="ruler" x="-5" y="296">4</text><line class="ruler" x1="-2" x2="1390" y1="259" y2="259"><title>7</title></line><text class="ruler" x="-5" y="259">7</text><line class="ruler" x1="-2" x2="1390" y1="222" y2="222"><title>9</title></line><text class="ruler" x="-5" y="222">9</text><line class="ruler" x1="-2" x2="1390" y1="185" y2="185"><title>12</title></line><text class="ruler" x="-5" y="185">12</text><line class="ruler" x1="-2" x2="1390" y1="148" y2="148"><title>14</title></line><text class="ruler" x="-5" y="148">14</text><line class="ruler" x1="-2" x2="1390" y1="111" y2="111"><title>16</title></line><text class="ruler" x="-5" y="111">16</text><line class="ruler" x1="-2" x2="1390" y1="74" y2="74"><title>19</title></line><text class="ruler" x="-5" y="74">19</text><line class="ruler" x1="-2" x2="1390" y1="37" y2="37"><title>21</title></line><text class="ruler" x="-5" y="37">21</text><line class="ruler" x1="-2" x2="1390" y1="0" y2="0"><title>24</title></line><text class="ruler" x="-5" y="0">24</text></g></g><text class="title" x="795" y="40">F15_M15_24.merged.realigned.bam F15_M15_24 F15_M15_24_1 F15_M15_24_2<title>./F15_M15_24.merged.realigned.bam</title></text><text class="xLabel" x="795" y="475">GCA_902806645.1_cgigas_uk_roslin_v1_genomic.fna  (589,358,857 bp)<title>../ref/GCA_902806645.1_cgigas_uk_roslin_v1_genomic.fna</title></text><text class="yLabel" transform="translate(25,265) rotate(90)" x="0" y="0">Coverage bp (median)</text></g></svg>