<?xml version="1.0" encoding="UTF-8" standalone="no"?><svg height="500" width="1500" xmlns="http://www.w3.org/2000/svg"><title>F15.realigned.bam</title><desc>Made with wgscoverageplotter undefined Author: Pierre Lindenbaum</desc><style>g.maing {stroke:black;stroke-width:0.5px;fill:none;}
text.title {stroke:none;fill:black;stroke-width:1px;text-anchor:middle;}
rect.frame {stroke:darkgray;fill:none;stroke-width:0.5px;}
text.ruler {stroke:none;fill:darkgray;stroke-width:1px;text-anchor:end;}
text.chromName {stroke:none;fill:darkgray;stroke-width:1px;text-anchor:middle;}
text.xLabel {stroke:none;fill:black;stroke-width:1px;text-anchor:middle;}
text.yLabel {stroke:none;fill:black;stroke-width:1px;text-anchor:middle;}
.cov0 {stroke:gray;fill:antiquewhite;stroke-width:0.5px;}
.cov1 {stroke:gray;fill:beige;stroke-width:0.5px;}
rect.average {stroke:green;fill:green;stroke-width:0.5px;opacity:0.3;}
rect.median {stroke:red;fill:red;stroke-width:0.5px;opacity:0.3;}
line.ruler {stroke:darkgray;stroke-dasharray:4;fill:none;stroke-width:1;}
</style><g class="maing"><g id="chromosomes" transform="translate(100.0,80.0)"><g id="chrom-LR761634.1" transform="translate(10.0,0)"><polygon class="cov0" points="0,370 0,333 1,148 2,185 3,296 4,185 5,222 6,296 7,185 8,148 9,111 10,148 11,111 12,148 13,222 14,296 15,148 16,111 17,222 18,111 20,111 21,148 24,148 25,74 26,74 27,111 28,111 29,74 30,74 31,111 32,222 33,74 34,111 35,111 36,74 37,148 38,148 39,111 40,74 42,74 43,148 44,74 45,148 46,148 47,111 51,111 52,74 53,111 54,111 55,74 58,74 59,111 60,111 61,74 62,111 63,185 64,185 65,148 67,148 68,111 69,185 70,111 71,74 72,185 73,148 74,111 75,74 76,111 77,148 78,148 79,111 80,333 81,296 82,74 83,111 85,111 86,74 87,185 88,74 89,259 90,148 91,148 92,111 93,148 94,74 95,111 96,74 97,148 98,222 99,111 100,111 101,148 103,148 104,185 105,111 106,185 107,185 108,259 109,74 110,74 111,111 112,111 113,185 114,296 115,222 116,74 117,111 118,111 119,148 120,148 121,111 126,111 127,148 128,185 130,185 130.72,370"><title>LR761634.1</title></polygon><rect class="average" height="1" width="130.72" x="0" y="119.07"><title>average:6.78</title></rect><rect class="median" height="1" width="130.72" x="0" y="148"><title>median:6</title></rect><text class="chromName" x="65.36" y="-12">LR761634.1<title>LR761634.1 55,785,328 bp</title></text><rect class="frame" height="370" width="130.72" x="0" y="0"/></g><g id="chrom-LR761635.1" transform="translate(141.71753661284166,0)"><polygon class="cov1" points="0,370 0,370 2,370 3,333 4,333 5,370 6,185 7,333 8,333 9,296 10,259 11,296 12,222 13,185 14,222 15,259 16,333 17,259 18,296 19,222 20,296 21,333 22,296 23,222 24,296 25,370 26,370 27,296 28,259 29,370 31,370 32,259 33,222 35,222 36,259 37,333 38,296 39,222 40,296 41,185 43,185 44,148 45,222 46,185 47,185 48,296 49,222 50,259 51,333 52,185 53,222 54,333 55,296 56,370 57,333 58,222 59,333 60,370 61,296 62,185 63,333 64,333 65,296 66,333 67,296 68,333 69,296 70,259 73,259 74,222 75,259 76,370 77,0 78,259 79,296 80,185 81,296 83,296 84,370 85,333 86,333 87,370 89,370 90,333 91,296 92,333 93,370 94,259 95,333 96,259 97,333 99,333 100,296 101,370 102,296 103,185 104,185 105,222 106,296 107,333 108,222 109,259 110,333 111,185 112,333 115,333 116,296 117,296 118,185 119,185 120,148 121,222 122,222 123,259 124,296 125,148 126,259 127,333 128,185 129,333 130,222 132,222 133,296 134,333 135,296 136,296 137,333 138,333 139,259 140,370 141,296 142,259 143,333 144,259 145,222 146,259 147,222 148,185 149,148 150,222 151,296 152,333 153,222 154,370 155,259 156,296 157,296 158,333 159,185 160,222 161,259 162,296 163,185 164,222 165,259 166,296 167,333 168,296 169,296 170,333 171,333 171.58,370"><title>LR761635.1</title></polygon><rect class="average" height="1" width="171.58" x="0" y="209.85"><title>average:4.33</title></rect><rect class="median" height="1" width="171.58" x="0" y="296"><title>median:2</title></rect><text class="chromName" x="85.79" y="-12">LR761635.1<title>LR761635.1 73,222,313 bp</title></text><rect class="frame" height="370" width="171.58" x="0" y="0"/></g><g id="chrom-LR761636.1" transform="translate(314.2938403401308,0)"><polygon class="cov0" points="0,370 0,333 1,148 2,222 3,370 4,259 5,148 6,185 7,185 8,111 9,148 10,111 11,111 12,148 13,148 14,74 15,148 16,111 18,111 19,74 20,111 21,74 23,74 24,148 25,74 26,111 27,222 28,74 29,37 30,74 33,74 34,111 35,111 36,74 37,148 38,111 39,74 40,111 41,111 42,148 43,111 45,111 46,148 47,111 48,222 49,148 50,148 51,74 52,111 53,111 54,222 55,148 56,148 57,111 58,148 59,111 60,111 61,222 62,148 63,111 64,111 65,148 66,111 67,111 68,148 70,148 71,74 72,74 73,111 74,148 75,148 76,333 77,222 78,222 79,259 80,259 81,111 82,185 83,148 84,74 85,111 86,333 87,148 88,111 89,185 90,111 91,111 92,185 93,148 94,148 95,185 96,222 97,111 98,111 99,185 100,111 101,74 102,148 103,74 104,111 107,111 108,74 110,74 111,148 112,111 113,111 114,74 116,74 117,111 118,148 119,74 120,111 121,222 122,74 123,74 124,148 125,74 126,74 127,148 128,259 129,74 130,111 131,111 132,148 133,185 134,111 135,148 136,222 136.65,370"><title>LR761636.1</title></polygon><rect class="average" height="1" width="136.65" x="0" y="117.47"><title>average:6.83</title></rect><rect class="median" height="1" width="136.65" x="0" y="111"><title>median:7</title></rect><text class="chromName" x="68.33" y="-12">LR761636.1<title>LR761636.1 58,319,100 bp</title></text><rect class="frame" height="370" width="136.65" x="0" y="0"/></g><g id="chrom-LR761637.1" transform="translate(451.9485730949149,0)"><polygon class="cov1" points="0,370 0,370 1,259 2,296 3,259 4,222 5,185 6,222 7,259 8,296 9,333 10,259 11,222 12,296 13,259 14,333 15,222 16,259 17,74 18,185 20,185 21,148 22,148 23,222 24,333 25,148 26,148 27,259 28,185 29,222 30,296 31,148 32,148 33,185 34,111 35,185 36,333 37,259 38,185 39,148 40,148 41,296 42,222 43,259 44,333 45,185 46,148 47,111 49,111 50,148 51,111 52,74 53,185 54,74 55,111 56,148 57,222 58,259 59,333 60,333 61,222 62,111 63,111 64,74 65,111 67,111 68,148 69,74 70,111 71,111 72,185 73,74 74,148 75,148 76,111 77,148 81,148 82,111 85,111 86,222 87,148 88,74 89,111 90,74 91,111 92,111 93,148 94,185 95,222 96,185 97,111 99,111 100,296 101,333 103,333 104,370 105,185 106,111 107,74 108,111 110,111 111,148 112,148 113,111 114,333 115,259 116,185 117,148 118,185 119,296 120,185 121,111 122,333 123,333 124,296 124.49,370"><title>LR761637.1</title></polygon><rect class="average" height="1" width="124.49" x="0" y="156.38"><title>average:5.77</title></rect><rect class="median" height="1" width="124.49" x="0" y="185"><title>median:5</title></rect><text class="chromName" x="62.25" y="-12">LR761637.1<title>LR761637.1 53,127,865 bp</title></text><rect class="frame" height="370" width="124.49" x="0" y="0"/></g><g id="chrom-LR761638.1" transform="translate(577.4390778079033,0)"><polygon class="cov0" points="0,370 0,222 1,222 2,333 3,148 4,259 5,185 6,222 7,185 8,185 9,148 10,185 11,333 12,148 13,148 14,111 15,185 16,111 17,111 18,296 19,333 20,148 21,222 22,148 23,111 24,111 25,148 26,296 27,111 28,185 29,370 30,259 31,148 32,370 33,370 34,222 35,222 36,148 37,333 38,296 39,296 40,370 41,333 42,222 43,111 44,148 45,259 46,148 47,111 48,111 49,259 50,370 51,259 52,185 53,185 54,222 55,222 56,185 57,259 58,185 59,185 60,222 61,259 62,148 63,333 64,370 65,370 66,222 67,185 68,185 69,333 70,185 71,370 72,333 73,296 74,259 75,370 76,333 77,185 78,222 79,185 80,222 81,185 82,296 83,370 84,333 85,222 86,148 87,148 88,333 89,148 90,296 91,148 92,111 93,111 94,148 95,222 96,333 97,185 98,333 99,222 100,222 101,185 102,259 103,222 104,259 105,296 106,222 107,185 108,296 109,222 111,222 112,296 113,259 114,333 115,296 116,333 117,370 118,370 119,333 120,296 121,370 123,370 124,333 125,296 126,333 127,333 128,370 129,333 131,333 132,296 133,370 134,296 135,333 136,185 137,370 138,370 139,259 140,333 141,370 142,370 143,333 144,185 145,222 146,259 147,148 148,185 150,185 151,333 152,185 153,185 154,259 155,296 156,222 157,296 158,333 159,296 162,296 163,333 164,259 165,370 168,370 169,222 170,370 172,370 172.35,370"><title>LR761638.1</title></polygon><rect class="average" height="1" width="172.35" x="0" y="202.74"><title>average:4.52</title></rect><rect class="median" height="1" width="172.35" x="0" y="259"><title>median:3</title></rect><text class="chromName" x="86.17" y="-12">LR761638.1<title>LR761638.1 73,550,375 bp</title></text><rect class="frame" height="370" width="172.35" x="0" y="0"/></g><g id="chrom-LR761639.1" transform="translate(750.784104388203,0)"><polygon class="cov1" points="0,370 0,333 1,148 2,185 3,259 4,148 5,222 6,370 7,222 8,111 9,111 10,148 11,222 12,259 13,111 14,148 15,111 17,111 18,74 20,74 21,111 22,111 23,148 24,148 25,185 26,148 27,333 28,370 29,222 30,333 31,111 32,148 33,111 34,185 35,185 36,222 37,111 38,111 39,74 40,148 41,111 42,111 43,74 44,111 45,74 46,111 48,111 49,148 50,148 51,111 54,111 55,74 56,74 57,111 58,111 59,74 62,74 63,111 64,74 65,74 66,148 67,74 68,74 69,185 70,74 71,111 72,111 73,74 74,148 75,74 76,74 77,111 78,74 82,74 83,111 84,148 85,74 90,74 91,111 92,74 93,148 94,148 95,111 96,74 101,74 102,111 103,111 104,74 105,74 106,222 107,74 108,74 109,111 110,74 111,333 112,148 113,74 114,148 115,74 116,111 118,111 119,74 120,148 121,74 122,74 123,111 124,148 125,111 127,111 128,148 129,111 130,185 131,148 132,185 133,370 134,111 135,148 136,222 137,148 138,222 139,185 140,333 140.95,370"><title>LR761639.1</title></polygon><rect class="average" height="1" width="140.95" x="0" y="116.02"><title>average:6.86</title></rect><rect class="median" height="1" width="140.95" x="0" y="111"><title>median:7</title></rect><text class="chromName" x="70.47" y="-12">LR761639.1<title>LR761639.1 60,151,564 bp</title></text><rect class="frame" height="370" width="140.95" x="0" y="0"/></g><g id="chrom-LR761640.1" transform="translate(892.7327113317651,0)"><polygon class="cov0" points="0,370 0,259 1,111 2,185 3,185 4,148 5,111 6,185 7,185 8,111 9,148 10,111 11,148 12,111 13,222 14,185 15,111 16,222 17,111 18,74 19,185 20,74 22,74 23,37 24,111 25,111 26,74 29,74 30,111 31,111 32,74 33,74 34,111 35,74 36,111 37,185 38,37 39,148 40,37 41,74 44,74 45,111 46,74 47,222 48,296 49,74 50,148 51,111 52,74 53,111 54,74 56,74 57,222 58,111 59,185 60,222 61,111 62,111 63,148 64,74 65,222 66,111 68,111 69,148 70,148 71,111 72,148 73,111 74,148 75,74 76,74 77,185 78,74 79,111 80,37 81,37 82,74 83,74 84,111 85,74 86,370 87,111 90,111 91,259 92,259 93,185 94,296 95,111 96,74 97,74 98,111 99,111 100,74 101,222 102,370 103,222 104,74 106,74 107,111 108,111 109,74 110,111 111,148 112,111 113,111 114,74 115,74 116,185 119,185 120,111 121,74 123,74 124,111 125,74 127,74 128,259 129,111 130,74 131,74 132,148 133,74 134,74 135,111 138,111 139,148 140,148 141,111 142,148 143,111 144,111 145,148 145.53,370"><title>LR761640.1</title></polygon><rect class="average" height="1" width="145.53" x="0" y="109.07"><title>average:7.05</title></rect><rect class="median" height="1" width="145.53" x="0" y="111"><title>median:7</title></rect><text class="chromName" x="72.77" y="-12">LR761640.1<title>LR761640.1 62,107,823 bp</title></text><rect class="frame" height="370" width="145.53" x="0" y="0"/></g><g id="chrom-LR761641.1" transform="translate(1039.265271917344,0)"><polygon class="cov1" points="0,370 0,333 1,185 2,333 3,222 5,222 6,259 8,259 9,185 10,185 11,222 12,222 13,148 14,185 15,148 16,111 17,370 18,148 20,148 21,222 22,222 23,148 24,185 25,148 26,259 27,222 28,259 29,333 30,222 31,222 32,259 33,222 34,259 35,296 36,370 37,333 38,259 39,296 40,185 41,333 42,333 43,370 44,259 46,259 47,296 48,222 49,148 51,148 52,111 54,111 55,74 56,111 57,148 58,185 59,148 60,148 61,370 62,148 63,185 64,185 65,222 66,222 67,259 68,259 69,148 70,222 71,111 72,185 73,333 74,222 75,333 76,185 77,148 78,185 79,222 80,296 81,370 82,370 83,296 84,185 85,185 86,259 87,148 88,222 90,222 91,296 92,148 93,222 94,259 95,185 96,185 97,370 98,148 99,370 100,296 101,148 102,185 103,111 104,222 105,148 106,259 107,148 110,148 111,333 112,111 113,296 114,185 115,185 116,111 117,185 118,148 119,259 120,222 121,185 122,222 123,222 124,148 125,222 126,259 127,148 128,296 129,185 130,296 131,222 132,370 133,259 134,185 135,370 136,370 136.99,370"><title>LR761641.1</title></polygon><rect class="average" height="1" width="136.99" x="0" y="179.1"><title>average:5.16</title></rect><rect class="median" height="1" width="136.99" x="0" y="222"><title>median:4</title></rect><text class="chromName" x="68.5" y="-12">LR761641.1<title>LR761641.1 58,462,999 bp</title></text><rect class="frame" height="370" width="136.99" x="0" y="0"/></g><g id="chrom-LR761642.1" transform="translate(1177.25719230686,0)"><polygon class="cov0" points="0,370 0,333 1,333 2,370 3,296 4,333 5,370 6,333 7,333 8,370 9,333 10,259 11,222 12,259 13,148 14,185 15,222 16,259 17,259 18,296 19,259 20,222 21,185 22,333 23,222 24,148 25,148 26,222 27,185 28,296 29,185 30,259 31,111 32,185 33,222 34,222 35,333 36,148 37,148 38,111 39,185 40,148 41,185 42,111 43,148 44,148 45,185 46,148 47,259 48,296 49,296 50,222 52,222 53,111 54,148 55,222 56,185 57,185 58,222 59,185 60,148 61,333 62,222 63,148 64,185 65,111 66,148 67,370 68,222 69,111 70,148 71,259 72,148 73,222 74,148 75,185 76,333 77,148 78,148 79,259 80,259 81,185 82,333 83,259 84,296 85,259 86,259 86.91,370"><title>LR761642.1</title></polygon><rect class="average" height="1" width="86.91" x="0" y="169.76"><title>average:5.41</title></rect><rect class="median" height="1" width="86.91" x="0" y="222"><title>median:4</title></rect><text class="chromName" x="43.45" y="-12">LR761642.1<title>LR761642.1 37,089,910 bp</title></text><rect class="frame" height="370" width="86.91" x="0" y="0"/></g><g id="chrom-LR761643.1" transform="translate(1265.1671710093603,0)"><polygon class="cov1" points="0,370 0,222 1,222 2,148 3,111 4,148 7,148 8,111 9,74 10,74 11,148 12,111 13,222 14,222 15,111 16,74 17,148 19,148 20,370 21,148 22,111 23,111 24,185 25,148 26,370 27,296 28,370 29,74 30,148 31,111 32,222 33,111 34,148 35,185 36,222 37,74 39,74 40,111 41,111 42,148 43,259 44,111 45,148 46,74 47,259 48,148 49,111 50,111 51,74 53,74 54,111 55,74 57,74 58,222 59,74 60,37 61,74 62,111 63,74 64,111 65,148 66,111 67,111 68,74 69,111 70,148 71,74 72,111 73,148 74,37 75,148 76,74 77,74 78,148 79,259 80,111 81,74 86,74 87,37 88,111 89,370 90,111 91,74 92,74 93,111 94,74 95,111 96,74 100,74 101,222 102,111 105,111 106,74 107,74 108,111 109,74 112,74 113,222 114,111 115,74 116,37 117,74 118,74 119,148 120,74 123,74 124,111 126,111 127,185 128,185 129,111 130,148 131,222 132,111 133,222 134,296 134.83,370"><title>LR761643.1</title></polygon><rect class="average" height="1" width="134.83" x="0" y="110.5"><title>average:7.01</title></rect><rect class="median" height="1" width="134.83" x="0" y="111"><title>median:7</title></rect><text class="chromName" x="67.42" y="-12">LR761643.1<title>LR761643.1 57,541,580 bp</title></text><rect class="frame" height="370" width="134.83" x="0" y="0"/></g><g><line class="ruler" x1="-2" x2="1390" y1="333" y2="333"><title>1</title></line><text class="ruler" x="-5" y="333">1</text><line class="ruler" x1="-2" x2="1390" y1="296" y2="296"><title>2</title></line><text class="ruler" x="-5" y="296">2</text><line class="ruler" x1="-2" x2="1390" y1="259" y2="259"><title>3</title></line><text class="ruler" x="-5" y="259">3</text><line class="ruler" x1="-2" x2="1390" y1="222" y2="222"><title>4</title></line><text class="ruler" x="-5" y="222">4</text><line class="ruler" x1="-2" x2="1390" y1="185" y2="185"><title>5</title></line><text class="ruler" x="-5" y="185">5</text><line class="ruler" x1="-2" x2="1390" y1="148" y2="148"><title>6</title></line><text class="ruler" x="-5" y="148">6</text><line class="ruler" x1="-2" x2="1390" y1="111" y2="111"><title>7</title></line><text class="ruler" x="-5" y="111">7</text><line class="ruler" x1="-2" x2="1390" y1="74" y2="74"><title>8</title></line><text class="ruler" x="-5" y="74">8</text><line class="ruler" x1="-2" x2="1390" y1="37" y2="37"><title>9</title></line><text class="ruler" x="-5" y="37">9</text><line class="ruler" x1="-2" x2="1390" y1="0" y2="0"><title>10</title></line><text class="ruler" x="-5" y="0">10</text></g></g><text class="title" x="795" y="40">F15.realigned.bam F15<title>./F15.realigned.bam</title></text><text class="xLabel" x="795" y="475">GCA_902806645.1_cgigas_uk_roslin_v1_genomic.fna  (589,358,857 bp)<title>../ref/GCA_902806645.1_cgigas_uk_roslin_v1_genomic.fna</title></text><text class="yLabel" transform="translate(25,265) rotate(90)" x="0" y="0">Coverage bp (median)</text></g></svg>