<?xml version="1.0" encoding="UTF-8" standalone="no"?><svg height="500" width="1500" xmlns="http://www.w3.org/2000/svg"><title>F15_M14_14.merged.realigned.bam</title><desc>Made with wgscoverageplotter undefined Author: Pierre Lindenbaum</desc><style>g.maing {stroke:black;stroke-width:0.5px;fill:none;}
text.title {stroke:none;fill:black;stroke-width:1px;text-anchor:middle;}
rect.frame {stroke:darkgray;fill:none;stroke-width:0.5px;}
text.ruler {stroke:none;fill:darkgray;stroke-width:1px;text-anchor:end;}
text.chromName {stroke:none;fill:darkgray;stroke-width:1px;text-anchor:middle;}
text.xLabel {stroke:none;fill:black;stroke-width:1px;text-anchor:middle;}
text.yLabel {stroke:none;fill:black;stroke-width:1px;text-anchor:middle;}
.cov0 {stroke:gray;fill:antiquewhite;stroke-width:0.5px;}
.cov1 {stroke:gray;fill:beige;stroke-width:0.5px;}
rect.average {stroke:green;fill:green;stroke-width:0.5px;opacity:0.3;}
rect.median {stroke:red;fill:red;stroke-width:0.5px;opacity:0.3;}
line.ruler {stroke:darkgray;stroke-dasharray:4;fill:none;stroke-width:1;}
</style><g class="maing"><g id="chromosomes" transform="translate(100.0,80.0)"><g id="chrom-LR761634.1" transform="translate(10.0,0)"><polygon class="cov0" points="0,370 0,308.33 1,143.89 2,164.44 3,267.22 4,246.67 5,205.56 6,267.22 7,205.56 8,164.44 9,143.89 10,185 11,143.89 12,164.44 13,246.67 14,287.78 15,143.89 16,143.89 17,205.56 18,143.89 20,143.89 21,164.44 22,164.44 23,185 24,185 25,143.89 31,143.89 32,287.78 33,143.89 34,143.89 35,164.44 36,123.33 37,205.56 38,205.56 39,164.44 40,143.89 42,143.89 43,185 44,185 45,226.11 46,185 47,164.44 51,164.44 52,143.89 53,164.44 54,246.67 55,287.78 56,143.89 57,123.33 58,143.89 59,164.44 60,164.44 61,123.33 62,164.44 63,185 64,205.56 65,185 66,164.44 67,205.56 68,143.89 69,205.56 70,164.44 71,143.89 72,226.11 73,205.56 74,164.44 75,143.89 76,143.89 77,185 78,185 79,143.89 80,287.78 81,287.78 82,143.89 83,143.89 84,164.44 85,143.89 86,123.33 87,205.56 88,143.89 89,287.78 90,185 91,185 92,143.89 93,164.44 94,123.33 95,143.89 96,123.33 97,164.44 98,267.22 99,143.89 100,143.89 101,205.56 102,164.44 103,164.44 104,185 105,123.33 106,205.56 107,205.56 108,267.22 109,123.33 110,123.33 111,164.44 112,143.89 113,143.89 114,287.78 115,226.11 116,123.33 117,143.89 118,123.33 119,164.44 120,164.44 121,123.33 122,143.89 123,123.33 124,143.89 125,123.33 126,123.33 127,143.89 128,205.56 129,164.44 130,205.56 130.72,370"><title>LR761634.1</title></polygon><rect class="average" height="1" width="130.72" x="0" y="163.28"><title>average:10.06</title></rect><rect class="median" height="1" width="130.72" x="0" y="164.44"><title>median:10</title></rect><text class="chromName" x="65.36" y="-12">LR761634.1<title>LR761634.1 55,785,328 bp</title></text><rect class="frame" height="370" width="130.72" x="0" y="0"/></g><g id="chrom-LR761635.1" transform="translate(141.71753661284166,0)"><polygon class="cov1" points="0,370 0,349.44 1,349.44 2,328.89 3,267.22 4,349.44 5,328.89 6,164.44 7,308.33 8,328.89 9,226.11 10,185 11,287.78 12,185 13,123.33 14,205.56 15,226.11 16,308.33 17,226.11 18,287.78 19,246.67 20,308.33 21,308.33 22,287.78 23,226.11 24,328.89 27,328.89 28,287.78 29,349.44 30,328.89 31,308.33 32,205.56 33,205.56 34,226.11 35,267.22 36,185 37,164.44 38,349.44 39,185 40,267.22 41,246.67 42,185 43,246.67 44,185 45,164.44 46,226.11 47,164.44 48,246.67 49,185 50,246.67 51,349.44 52,246.67 53,246.67 54,308.33 55,267.22 56,349.44 57,267.22 58,164.44 59,308.33 60,308.33 61,246.67 62,143.89 63,267.22 64,308.33 65,246.67 66,287.78 67,287.78 68,226.11 69,287.78 70,308.33 71,205.56 72,226.11 73,226.11 74,267.22 75,205.56 76,349.44 77,0 78,267.22 79,308.33 80,164.44 81,308.33 82,328.89 83,287.78 84,349.44 85,308.33 86,328.89 87,349.44 88,328.89 89,308.33 90,267.22 91,287.78 92,308.33 93,308.33 94,287.78 95,287.78 96,349.44 97,308.33 98,287.78 99,328.89 100,287.78 101,308.33 102,308.33 103,267.22 104,267.22 105,185 106,287.78 107,287.78 108,205.56 109,123.33 110,287.78 111,205.56 112,328.89 113,349.44 114,308.33 115,328.89 116,308.33 117,287.78 118,185 119,185 120,143.89 121,164.44 122,226.11 123,246.67 124,246.67 125,143.89 126,226.11 127,205.56 128,164.44 129,226.11 130,185 131,308.33 132,226.11 133,287.78 134,328.89 135,287.78 136,308.33 137,287.78 138,308.33 139,267.22 140,349.44 141,308.33 142,308.33 143,267.22 144,287.78 145,246.67 146,246.67 147,143.89 148,164.44 149,143.89 150,226.11 151,287.78 152,328.89 153,226.11 154,308.33 155,267.22 156,308.33 157,308.33 158,246.67 159,185 160,205.56 161,226.11 162,308.33 163,205.56 164,246.67 165,287.78 166,328.89 167,349.44 168,328.89 169,287.78 170,308.33 171,328.89 171.58,370"><title>LR761635.1</title></polygon><rect class="average" height="1" width="171.58" x="0" y="210.85"><title>average:7.74</title></rect><rect class="median" height="1" width="171.58" x="0" y="267.22"><title>median:5</title></rect><text class="chromName" x="85.79" y="-12">LR761635.1<title>LR761635.1 73,222,313 bp</title></text><rect class="frame" height="370" width="171.58" x="0" y="0"/></g><g id="chrom-LR761636.1" transform="translate(314.2938403401308,0)"><polygon class="cov0" points="0,370 0,349.44 1,185 2,246.67 3,267.22 4,226.11 5,143.89 6,123.33 7,143.89 8,123.33 9,143.89 10,123.33 11,143.89 12,143.89 13,267.22 14,123.33 15,143.89 16,143.89 17,123.33 18,143.89 19,164.44 20,143.89 23,143.89 24,205.56 25,143.89 26,226.11 27,287.78 28,143.89 30,143.89 31,123.33 32,123.33 33,143.89 34,164.44 35,205.56 36,143.89 37,185 38,164.44 39,143.89 40,164.44 42,164.44 43,185 44,143.89 45,164.44 46,185 47,143.89 48,185 49,164.44 50,164.44 51,123.33 52,164.44 53,143.89 54,246.67 55,185 56,164.44 57,143.89 58,164.44 59,143.89 60,164.44 61,226.11 62,185 63,164.44 67,164.44 68,185 69,164.44 70,226.11 71,123.33 72,143.89 73,185 74,164.44 75,164.44 76,308.33 77,246.67 78,246.67 79,267.22 80,287.78 81,143.89 82,205.56 83,185 84,143.89 85,164.44 86,308.33 87,185 88,164.44 89,226.11 90,164.44 91,143.89 92,205.56 93,185 94,143.89 95,205.56 96,205.56 97,143.89 98,164.44 99,185 100,164.44 101,143.89 102,143.89 103,123.33 104,143.89 105,143.89 106,164.44 107,143.89 108,123.33 109,143.89 110,143.89 111,185 112,164.44 113,185 114,143.89 117,143.89 118,185 119,143.89 120,143.89 121,267.22 122,143.89 123,143.89 124,185 125,123.33 126,123.33 127,185 128,287.78 129,123.33 130,143.89 131,164.44 133,164.44 134,123.33 135,143.89 136,287.78 136.65,370"><title>LR761636.1</title></polygon><rect class="average" height="1" width="136.65" x="0" y="161.17"><title>average:10.16</title></rect><rect class="median" height="1" width="136.65" x="0" y="164.44"><title>median:10</title></rect><text class="chromName" x="68.33" y="-12">LR761636.1<title>LR761636.1 58,319,100 bp</title></text><rect class="frame" height="370" width="136.65" x="0" y="0"/></g><g id="chrom-LR761637.1" transform="translate(451.9485730949149,0)"><polygon class="cov1" points="0,370 0,370 1,308.33 2,308.33 3,287.78 4,226.11 5,185 6,246.67 7,246.67 8,226.11 9,287.78 10,328.89 11,164.44 12,246.67 13,267.22 14,308.33 15,164.44 16,226.11 17,102.78 18,287.78 19,328.89 20,246.67 21,205.56 22,185 23,185 24,349.44 25,185 26,143.89 27,246.67 28,205.56 29,185 30,226.11 31,185 32,164.44 33,164.44 34,123.33 35,205.56 36,328.89 37,246.67 38,164.44 40,164.44 41,287.78 42,185 43,267.22 44,308.33 45,164.44 46,143.89 47,164.44 48,143.89 49,143.89 50,185 51,143.89 52,123.33 53,185 54,123.33 55,143.89 56,164.44 57,246.67 58,308.33 59,267.22 60,267.22 61,226.11 62,143.89 63,164.44 64,143.89 65,164.44 67,164.44 68,185 69,143.89 70,164.44 71,164.44 72,205.56 73,143.89 74,185 75,185 76,164.44 77,185 78,185 79,205.56 80,185 81,164.44 82,143.89 83,164.44 84,164.44 85,143.89 86,246.67 87,185 88,143.89 89,164.44 90,143.89 91,164.44 92,143.89 93,164.44 94,205.56 95,226.11 96,205.56 97,164.44 98,123.33 99,143.89 100,246.67 101,287.78 102,267.22 103,308.33 104,328.89 105,226.11 106,143.89 107,123.33 109,123.33 110,102.78 111,143.89 112,143.89 113,123.33 114,308.33 115,205.56 116,164.44 117,185 118,164.44 119,308.33 120,164.44 121,123.33 122,328.89 123,349.44 124,308.33 124.49,370"><title>LR761637.1</title></polygon><rect class="average" height="1" width="124.49" x="0" y="181.2"><title>average:9.18</title></rect><rect class="median" height="1" width="124.49" x="0" y="185"><title>median:9</title></rect><text class="chromName" x="62.25" y="-12">LR761637.1<title>LR761637.1 53,127,865 bp</title></text><rect class="frame" height="370" width="124.49" x="0" y="0"/></g><g id="chrom-LR761638.1" transform="translate(577.4390778079033,0)"><polygon class="cov0" points="0,370 0,185 1,143.89 2,328.89 3,123.33 4,164.44 5,102.78 6,205.56 7,205.56 8,226.11 9,123.33 10,185 11,308.33 12,143.89 13,164.44 14,123.33 15,164.44 16,102.78 17,123.33 18,246.67 19,308.33 20,123.33 21,226.11 22,143.89 24,143.89 25,185 26,308.33 27,123.33 28,185 29,328.89 30,267.22 31,164.44 32,370 33,349.44 34,205.56 35,246.67 36,164.44 37,328.89 38,287.78 39,349.44 40,349.44 41,308.33 42,246.67 43,164.44 44,164.44 45,308.33 46,164.44 47,123.33 48,123.33 49,226.11 50,370 51,267.22 52,205.56 53,185 54,267.22 55,246.67 56,164.44 57,246.67 58,164.44 59,185 60,226.11 61,246.67 62,164.44 63,287.78 64,328.89 65,287.78 66,185 67,164.44 68,164.44 69,246.67 70,185 71,349.44 72,328.89 73,308.33 74,246.67 75,328.89 76,308.33 77,205.56 78,328.89 79,308.33 80,308.33 81,185 82,308.33 83,328.89 84,308.33 85,205.56 86,164.44 87,185 88,308.33 89,143.89 90,308.33 91,164.44 92,123.33 93,143.89 94,164.44 95,226.11 96,267.22 97,143.89 98,287.78 99,205.56 100,205.56 101,164.44 102,287.78 103,185 104,267.22 105,308.33 106,226.11 107,185 108,226.11 109,164.44 110,205.56 111,205.56 112,267.22 113,226.11 114,246.67 115,267.22 116,328.89 117,370 118,370 119,287.78 120,287.78 121,328.89 122,349.44 123,370 124,308.33 125,308.33 126,328.89 127,287.78 128,370 129,287.78 130,349.44 131,328.89 132,267.22 133,328.89 134,246.67 135,308.33 136,185 137,370 138,349.44 139,287.78 140,349.44 141,370 142,349.44 143,287.78 144,185 145,205.56 146,287.78 147,143.89 148,185 149,185 150,205.56 151,328.89 152,164.44 153,164.44 154,267.22 155,246.67 156,205.56 157,246.67 158,287.78 159,246.67 160,267.22 161,267.22 162,226.11 163,267.22 165,267.22 166,287.78 167,287.78 168,246.67 169,205.56 170,287.78 172,287.78 172.35,370"><title>LR761638.1</title></polygon><rect class="average" height="1" width="172.35" x="0" y="207.04"><title>average:7.93</title></rect><rect class="median" height="1" width="172.35" x="0" y="246.67"><title>median:6</title></rect><text class="chromName" x="86.17" y="-12">LR761638.1<title>LR761638.1 73,550,375 bp</title></text><rect class="frame" height="370" width="172.35" x="0" y="0"/></g><g id="chrom-LR761639.1" transform="translate(750.784104388203,0)"><polygon class="cov1" points="0,370 0,308.33 1,164.44 2,143.89 3,267.22 4,143.89 5,226.11 6,328.89 7,246.67 8,143.89 9,143.89 10,164.44 11,246.67 12,287.78 13,143.89 14,164.44 15,143.89 18,143.89 19,123.33 20,123.33 21,143.89 22,164.44 23,185 24,185 25,205.56 26,185 27,328.89 28,349.44 29,226.11 30,308.33 31,164.44 32,164.44 33,143.89 34,226.11 35,226.11 36,205.56 37,143.89 38,164.44 39,143.89 40,246.67 41,143.89 42,143.89 43,123.33 44,143.89 45,143.89 46,185 47,143.89 48,143.89 49,185 50,164.44 51,143.89 52,205.56 53,164.44 54,185 55,164.44 56,143.89 57,164.44 58,164.44 59,143.89 61,143.89 62,164.44 63,164.44 64,123.33 65,143.89 66,185 67,164.44 68,143.89 69,185 70,164.44 72,164.44 73,143.89 74,226.11 75,143.89 76,164.44 77,164.44 78,143.89 79,164.44 80,185 81,143.89 83,143.89 84,205.56 85,164.44 86,143.89 90,143.89 91,164.44 92,143.89 93,185 94,164.44 95,143.89 96,164.44 97,143.89 103,143.89 104,123.33 105,143.89 106,246.67 107,164.44 108,123.33 109,143.89 110,143.89 111,328.89 112,205.56 113,123.33 114,185 115,123.33 116,164.44 117,143.89 119,143.89 120,164.44 121,143.89 122,143.89 123,123.33 124,185 125,143.89 127,143.89 128,164.44 129,123.33 130,185 131,143.89 132,185 133,349.44 134,123.33 135,164.44 136,164.44 137,143.89 138,185 139,164.44 140,287.78 140.95,370"><title>LR761639.1</title></polygon><rect class="average" height="1" width="140.95" x="0" y="162.34"><title>average:10.1</title></rect><rect class="median" height="1" width="140.95" x="0" y="164.44"><title>median:10</title></rect><text class="chromName" x="70.47" y="-12">LR761639.1<title>LR761639.1 60,151,564 bp</title></text><rect class="frame" height="370" width="140.95" x="0" y="0"/></g><g id="chrom-LR761640.1" transform="translate(892.7327113317651,0)"><polygon class="cov0" points="0,370 0,185 1,123.33 2,205.56 3,185 4,164.44 5,123.33 6,185 7,205.56 8,143.89 9,185 10,123.33 11,143.89 12,123.33 13,267.22 14,164.44 15,143.89 16,246.67 17,143.89 18,143.89 19,185 20,143.89 21,164.44 22,143.89 23,123.33 24,143.89 25,143.89 26,123.33 27,143.89 30,143.89 31,123.33 32,143.89 33,143.89 34,164.44 35,143.89 36,143.89 37,205.56 38,123.33 39,185 40,123.33 41,143.89 42,102.78 43,123.33 44,143.89 45,164.44 46,164.44 47,226.11 48,287.78 49,123.33 50,164.44 51,143.89 52,123.33 53,164.44 54,143.89 56,143.89 57,226.11 58,164.44 59,185 60,246.67 61,143.89 62,164.44 63,205.56 64,143.89 65,308.33 66,164.44 68,164.44 69,205.56 70,205.56 71,164.44 72,185 73,226.11 74,185 75,164.44 76,143.89 77,226.11 78,143.89 79,185 80,123.33 81,102.78 82,123.33 83,143.89 85,143.89 86,349.44 87,164.44 88,185 90,185 91,267.22 92,287.78 93,205.56 94,287.78 95,185 96,164.44 97,143.89 98,164.44 99,164.44 100,143.89 101,226.11 102,349.44 103,246.67 104,143.89 106,143.89 107,185 108,205.56 109,143.89 110,185 111,205.56 112,164.44 114,164.44 115,143.89 116,287.78 117,349.44 118,349.44 119,328.89 120,143.89 121,123.33 122,143.89 123,143.89 124,164.44 125,143.89 127,143.89 128,246.67 129,164.44 130,143.89 131,143.89 132,164.44 133,143.89 134,123.33 135,123.33 136,143.89 138,143.89 139,185 140,123.33 141,143.89 142,164.44 143,143.89 144,123.33 145,123.33 145.53,370"><title>LR761640.1</title></polygon><rect class="average" height="1" width="145.53" x="0" y="162.94"><title>average:10.07</title></rect><rect class="median" height="1" width="145.53" x="0" y="164.44"><title>median:10</title></rect><text class="chromName" x="72.77" y="-12">LR761640.1<title>LR761640.1 62,107,823 bp</title></text><rect class="frame" height="370" width="145.53" x="0" y="0"/></g><g id="chrom-LR761641.1" transform="translate(1039.265271917344,0)"><polygon class="cov1" points="0,370 0,287.78 1,143.89 2,267.22 3,164.44 4,123.33 5,205.56 6,267.22 7,226.11 8,287.78 9,185 10,143.89 11,205.56 12,226.11 13,123.33 14,205.56 15,123.33 16,143.89 17,287.78 18,143.89 20,143.89 21,164.44 22,205.56 23,164.44 24,205.56 25,185 26,246.67 27,185 28,226.11 29,308.33 30,246.67 31,185 32,226.11 33,226.11 34,287.78 35,287.78 36,349.44 37,226.11 38,267.22 39,287.78 40,246.67 41,308.33 42,267.22 43,328.89 44,246.67 45,246.67 46,267.22 47,287.78 48,246.67 49,164.44 50,185 51,164.44 52,123.33 56,123.33 57,164.44 58,164.44 59,185 60,164.44 61,308.33 62,164.44 63,185 64,226.11 65,185 66,226.11 67,267.22 68,205.56 69,164.44 70,226.11 71,143.89 72,205.56 73,328.89 74,226.11 75,308.33 76,185 77,205.56 78,164.44 79,246.67 80,287.78 81,349.44 82,349.44 83,287.78 84,185 85,164.44 86,267.22 87,123.33 88,226.11 89,185 90,246.67 91,246.67 92,143.89 93,226.11 94,267.22 95,205.56 96,205.56 97,328.89 98,143.89 99,370 100,267.22 101,123.33 102,164.44 103,123.33 104,185 105,143.89 106,246.67 107,123.33 108,164.44 109,143.89 110,143.89 111,246.67 112,143.89 113,267.22 114,164.44 115,164.44 116,123.33 117,185 118,143.89 119,226.11 120,226.11 121,185 122,164.44 123,246.67 124,164.44 125,226.11 126,267.22 127,123.33 128,287.78 129,185 130,267.22 131,185 132,370 133,267.22 134,123.33 135,349.44 136,349.44 136.99,370"><title>LR761641.1</title></polygon><rect class="average" height="1" width="136.99" x="0" y="182.72"><title>average:9.11</title></rect><rect class="median" height="1" width="136.99" x="0" y="205.56"><title>median:8</title></rect><text class="chromName" x="68.5" y="-12">LR761641.1<title>LR761641.1 58,462,999 bp</title></text><rect class="frame" height="370" width="136.99" x="0" y="0"/></g><g id="chrom-LR761642.1" transform="translate(1177.25719230686,0)"><polygon class="cov0" points="0,370 0,328.89 1,308.33 2,205.56 3,205.56 4,246.67 5,287.78 6,267.22 7,226.11 8,267.22 9,267.22 10,226.11 11,205.56 12,226.11 13,143.89 14,164.44 15,246.67 16,287.78 17,226.11 19,226.11 20,205.56 21,164.44 22,267.22 23,267.22 24,164.44 25,123.33 26,164.44 27,143.89 28,226.11 29,164.44 30,205.56 31,143.89 32,185 33,246.67 34,164.44 35,267.22 36,143.89 37,164.44 38,143.89 39,205.56 40,143.89 41,164.44 42,143.89 43,164.44 44,164.44 45,205.56 46,164.44 47,246.67 48,164.44 49,267.22 50,164.44 51,164.44 52,205.56 53,123.33 54,143.89 55,226.11 56,185 57,205.56 58,267.22 59,164.44 60,164.44 61,349.44 62,185 63,164.44 64,205.56 65,185 66,164.44 67,287.78 68,226.11 69,164.44 70,164.44 71,246.67 72,164.44 73,226.11 74,164.44 75,185 76,308.33 77,164.44 78,143.89 79,287.78 80,267.22 81,185 82,328.89 83,246.67 84,308.33 85,205.56 86,328.89 86.91,370"><title>LR761642.1</title></polygon><rect class="average" height="1" width="86.91" x="0" y="167.33"><title>average:9.86</title></rect><rect class="median" height="1" width="86.91" x="0" y="205.56"><title>median:8</title></rect><text class="chromName" x="43.45" y="-12">LR761642.1<title>LR761642.1 37,089,910 bp</title></text><rect class="frame" height="370" width="86.91" x="0" y="0"/></g><g id="chrom-LR761643.1" transform="translate(1265.1671710093603,0)"><polygon class="cov1" points="0,370 0,349.44 1,246.67 2,164.44 3,143.89 4,143.89 5,246.67 6,185 7,164.44 8,143.89 9,123.33 10,143.89 11,164.44 12,123.33 13,226.11 14,246.67 15,164.44 16,123.33 17,164.44 18,164.44 19,185 20,349.44 21,185 22,143.89 23,143.89 24,164.44 25,185 26,349.44 27,349.44 28,328.89 29,143.89 30,185 31,164.44 32,226.11 33,164.44 34,164.44 35,205.56 36,267.22 37,143.89 38,164.44 39,143.89 40,164.44 41,164.44 42,185 43,287.78 44,185 45,205.56 46,143.89 47,246.67 48,185 49,164.44 50,226.11 51,143.89 52,164.44 53,185 54,185 55,143.89 57,143.89 58,185 59,143.89 61,143.89 62,164.44 64,164.44 65,205.56 66,164.44 67,164.44 68,185 69,164.44 70,185 71,267.22 72,226.11 73,226.11 74,143.89 75,246.67 76,164.44 77,143.89 78,205.56 79,246.67 80,143.89 81,123.33 82,164.44 83,143.89 85,143.89 86,164.44 87,123.33 88,185 89,308.33 90,185 91,143.89 92,123.33 93,164.44 94,123.33 95,164.44 96,143.89 97,143.89 98,123.33 99,123.33 100,143.89 101,246.67 102,164.44 103,143.89 104,164.44 105,143.89 106,143.89 107,123.33 108,164.44 109,123.33 111,123.33 112,143.89 113,205.56 114,164.44 115,143.89 116,123.33 118,123.33 119,164.44 120,123.33 123,123.33 124,143.89 125,143.89 126,123.33 127,164.44 128,164.44 129,123.33 130,164.44 131,205.56 132,123.33 133,205.56 134,246.67 134.83,370"><title>LR761643.1</title></polygon><rect class="average" height="1" width="134.83" x="0" y="166.3"><title>average:9.91</title></rect><rect class="median" height="1" width="134.83" x="0" y="164.44"><title>median:10</title></rect><text class="chromName" x="67.42" y="-12">LR761643.1<title>LR761643.1 57,541,580 bp</title></text><rect class="frame" height="370" width="134.83" x="0" y="0"/></g><g><line class="ruler" x1="-2" x2="1390" y1="333" y2="333"><title>1</title></line><text class="ruler" x="-5" y="333">1</text><line class="ruler" x1="-2" x2="1390" y1="296" y2="296"><title>3</title></line><text class="ruler" x="-5" y="296">3</text><line class="ruler" x1="-2" x2="1390" y1="259" y2="259"><title>5</title></line><text class="ruler" x="-5" y="259">5</text><line class="ruler" x1="-2" x2="1390" y1="222" y2="222"><title>7</title></line><text class="ruler" x="-5" y="222">7</text><line class="ruler" x1="-2" x2="1390" y1="185" y2="185"><title>9</title></line><text class="ruler" x="-5" y="185">9</text><line class="ruler" x1="-2" x2="1390" y1="148" y2="148"><title>10</title></line><text class="ruler" x="-5" y="148">10</text><line class="ruler" x1="-2" x2="1390" y1="111" y2="111"><title>12</title></line><text class="ruler" x="-5" y="111">12</text><line class="ruler" x1="-2" x2="1390" y1="74" y2="74"><title>14</title></line><text class="ruler" x="-5" y="74">14</text><line class="ruler" x1="-2" x2="1390" y1="37" y2="37"><title>16</title></line><text class="ruler" x="-5" y="37">16</text><line class="ruler" x1="-2" x2="1390" y1="0" y2="0"><title>18</title></line><text class="ruler" x="-5" y="0">18</text></g></g><text class="title" x="795" y="40">F15_M14_14.merged.realigned.bam F15_M14_14 F15_M14_14_1 F15_M14_14_2<title>./F15_M14_14.merged.realigned.bam</title></text><text class="xLabel" x="795" y="475">GCA_902806645.1_cgigas_uk_roslin_v1_genomic.fna  (589,358,857 bp)<title>../ref/GCA_902806645.1_cgigas_uk_roslin_v1_genomic.fna</title></text><text class="yLabel" transform="translate(25,265) rotate(90)" x="0" y="0">Coverage bp (median)</text></g></svg>