<?xml version="1.0" encoding="UTF-8" standalone="no"?><svg height="500" width="1500" xmlns="http://www.w3.org/2000/svg"><title>F15_M13_14.merged.realigned.bam</title><desc>Made with wgscoverageplotter undefined Author: Pierre Lindenbaum</desc><style>g.maing {stroke:black;stroke-width:0.5px;fill:none;}
text.title {stroke:none;fill:black;stroke-width:1px;text-anchor:middle;}
rect.frame {stroke:darkgray;fill:none;stroke-width:0.5px;}
text.ruler {stroke:none;fill:darkgray;stroke-width:1px;text-anchor:end;}
text.chromName {stroke:none;fill:darkgray;stroke-width:1px;text-anchor:middle;}
text.xLabel {stroke:none;fill:black;stroke-width:1px;text-anchor:middle;}
text.yLabel {stroke:none;fill:black;stroke-width:1px;text-anchor:middle;}
.cov0 {stroke:gray;fill:antiquewhite;stroke-width:0.5px;}
.cov1 {stroke:gray;fill:beige;stroke-width:0.5px;}
rect.average {stroke:green;fill:green;stroke-width:0.5px;opacity:0.3;}
rect.median {stroke:red;fill:red;stroke-width:0.5px;opacity:0.3;}
line.ruler {stroke:darkgray;stroke-dasharray:4;fill:none;stroke-width:1;}
</style><g class="maing"><g id="chromosomes" transform="translate(100.0,80.0)"><g id="chrom-LR761634.1" transform="translate(10.0,0)"><polygon class="cov0" points="0,370 0,317.14 1,132.14 2,171.79 3,264.29 4,237.86 5,171.79 6,290.71 7,198.21 8,158.57 9,132.14 10,158.57 11,118.93 12,158.57 13,237.86 14,290.71 15,132.14 16,132.14 17,211.43 18,132.14 20,132.14 21,145.36 22,158.57 24,158.57 25,132.14 27,132.14 28,145.36 29,132.14 30,132.14 31,145.36 32,264.29 33,132.14 34,132.14 35,158.57 36,118.93 37,171.79 38,185 39,132.14 40,132.14 41,118.93 42,132.14 43,171.79 44,171.79 45,198.21 46,185 47,145.36 48,158.57 49,145.36 50,158.57 51,145.36 52,132.14 53,145.36 54,237.86 55,277.5 56,132.14 57,118.93 58,132.14 59,145.36 60,158.57 61,132.14 62,158.57 63,171.79 64,185 65,171.79 66,145.36 67,185 68,132.14 69,198.21 70,145.36 71,132.14 72,198.21 73,185 74,145.36 75,132.14 76,132.14 77,185 78,171.79 79,145.36 80,277.5 81,277.5 82,132.14 83,132.14 84,145.36 85,145.36 86,132.14 87,198.21 88,118.93 89,264.29 90,171.79 91,158.57 92,132.14 93,158.57 94,118.93 95,132.14 96,118.93 97,158.57 98,303.93 99,132.14 100,132.14 101,171.79 102,158.57 103,158.57 104,198.21 105,132.14 106,198.21 107,185 108,237.86 109,118.93 110,105.71 111,132.14 112,132.14 113,158.57 114,290.71 115,211.43 116,118.93 117,132.14 118,105.71 119,158.57 120,132.14 121,118.93 122,145.36 123,132.14 124,145.36 125,118.93 126,132.14 127,132.14 128,211.43 129,158.57 130,198.21 130.72,370"><title>LR761634.1</title></polygon><rect class="average" height="1" width="130.72" x="0" y="158.06"><title>average:16.04</title></rect><rect class="median" height="1" width="130.72" x="0" y="158.57"><title>median:16</title></rect><text class="chromName" x="65.36" y="-12">LR761634.1<title>LR761634.1 55,785,328 bp</title></text><rect class="frame" height="370" width="130.72" x="0" y="0"/></g><g id="chrom-LR761635.1" transform="translate(141.71753661284166,0)"><polygon class="cov1" points="0,370 0,343.57 1,343.57 2,330.36 3,277.5 4,343.57 5,290.71 6,185 7,303.93 8,303.93 9,277.5 10,264.29 11,303.93 12,264.29 13,118.93 14,185 15,224.64 16,290.71 17,211.43 18,277.5 19,237.86 20,303.93 21,290.71 22,264.29 23,211.43 24,303.93 25,330.36 26,343.57 27,330.36 28,277.5 29,356.79 30,356.79 31,330.36 32,224.64 33,185 34,224.64 35,237.86 36,171.79 37,171.79 38,356.79 39,185 40,277.5 41,237.86 42,171.79 43,224.64 44,171.79 45,158.57 46,198.21 47,145.36 48,251.07 49,185 50,237.86 51,330.36 52,237.86 53,251.07 54,303.93 55,277.5 56,356.79 57,251.07 58,171.79 59,317.14 60,303.93 61,251.07 62,118.93 63,251.07 64,317.14 65,237.86 66,277.5 67,290.71 68,224.64 69,277.5 70,290.71 71,198.21 72,224.64 73,224.64 74,264.29 75,237.86 76,343.57 77,0 78,264.29 79,303.93 80,145.36 81,277.5 82,317.14 83,277.5 84,343.57 85,317.14 86,330.36 87,343.57 88,356.79 89,343.57 90,277.5 91,277.5 92,317.14 93,317.14 94,277.5 95,264.29 96,290.71 97,303.93 98,303.93 99,317.14 100,290.71 101,356.79 102,290.71 103,224.64 104,237.86 105,185 106,251.07 107,277.5 108,171.79 109,145.36 110,290.71 111,185 112,330.36 113,317.14 114,303.93 115,317.14 116,290.71 117,277.5 118,185 119,171.79 120,145.36 121,198.21 122,237.86 123,237.86 124,224.64 125,132.14 126,237.86 127,237.86 128,145.36 129,251.07 130,185 131,264.29 132,224.64 133,290.71 134,303.93 135,290.71 136,317.14 137,303.93 138,317.14 139,264.29 140,330.36 141,290.71 142,277.5 143,290.71 144,264.29 145,224.64 146,251.07 147,79.29 148,158.57 149,118.93 150,211.43 151,290.71 152,317.14 153,211.43 154,277.5 155,251.07 156,303.93 157,330.36 158,211.43 159,185 160,224.64 161,198.21 162,303.93 163,237.86 164,237.86 165,277.5 166,317.14 167,343.57 168,317.14 169,251.07 170,330.36 171,330.36 171.58,370"><title>LR761635.1</title></polygon><rect class="average" height="1" width="171.58" x="0" y="209.31"><title>average:12.16</title></rect><rect class="median" height="1" width="171.58" x="0" y="264.29"><title>median:8</title></rect><text class="chromName" x="85.79" y="-12">LR761635.1<title>LR761635.1 73,222,313 bp</title></text><rect class="frame" height="370" width="171.58" x="0" y="0"/></g><g id="chrom-LR761636.1" transform="translate(314.2938403401308,0)"><polygon class="cov0" points="0,370 0,343.57 1,158.57 2,251.07 3,290.71 4,224.64 5,132.14 9,132.14 10,118.93 11,118.93 12,145.36 13,185 14,118.93 15,145.36 16,118.93 17,118.93 18,132.14 22,132.14 23,118.93 24,198.21 25,132.14 26,185 27,237.86 28,132.14 29,118.93 30,132.14 31,118.93 32,105.71 33,118.93 34,145.36 35,198.21 36,145.36 37,158.57 38,145.36 39,132.14 40,171.79 41,158.57 42,171.79 43,158.57 44,145.36 45,158.57 46,171.79 47,145.36 48,171.79 49,158.57 50,158.57 51,118.93 52,145.36 53,132.14 54,264.29 55,171.79 56,158.57 57,132.14 58,158.57 59,132.14 60,171.79 61,237.86 62,158.57 63,145.36 64,145.36 65,158.57 67,158.57 68,171.79 69,158.57 70,198.21 71,118.93 72,118.93 73,185 74,158.57 75,158.57 76,317.14 77,224.64 78,224.64 79,251.07 80,264.29 81,145.36 82,198.21 83,158.57 84,118.93 85,145.36 86,264.29 87,158.57 88,158.57 89,211.43 90,145.36 91,132.14 92,185 93,158.57 94,132.14 95,198.21 96,198.21 97,132.14 98,145.36 99,158.57 100,158.57 101,132.14 102,145.36 103,118.93 104,132.14 105,132.14 106,145.36 107,132.14 108,118.93 109,132.14 110,132.14 111,158.57 113,158.57 114,132.14 115,118.93 116,132.14 117,145.36 118,171.79 119,132.14 120,132.14 121,237.86 122,132.14 123,132.14 124,198.21 125,118.93 126,118.93 127,185 128,237.86 129,132.14 130,145.36 131,158.57 133,158.57 134,132.14 135,145.36 136,303.93 136.65,370"><title>LR761636.1</title></polygon><rect class="average" height="1" width="136.65" x="0" y="154.54"><title>average:16.3</title></rect><rect class="median" height="1" width="136.65" x="0" y="158.57"><title>median:16</title></rect><text class="chromName" x="68.33" y="-12">LR761636.1<title>LR761636.1 58,319,100 bp</title></text><rect class="frame" height="370" width="136.65" x="0" y="0"/></g><g id="chrom-LR761637.1" transform="translate(451.9485730949149,0)"><polygon class="cov1" points="0,370 0,356.79 1,303.93 2,317.14 3,303.93 4,211.43 5,171.79 6,198.21 7,237.86 8,211.43 9,303.93 10,317.14 11,171.79 12,264.29 13,264.29 14,251.07 15,145.36 16,211.43 17,132.14 18,290.71 19,317.14 20,251.07 21,185 22,158.57 23,224.64 24,343.57 25,171.79 26,132.14 27,211.43 28,198.21 29,198.21 30,251.07 31,145.36 32,145.36 33,171.79 34,118.93 35,198.21 36,317.14 37,251.07 38,158.57 39,145.36 40,145.36 41,264.29 42,145.36 43,264.29 44,317.14 45,145.36 46,145.36 47,158.57 48,132.14 49,145.36 50,185 51,145.36 52,105.71 53,171.79 54,118.93 55,145.36 56,145.36 57,224.64 58,290.71 59,264.29 60,264.29 61,224.64 62,145.36 63,145.36 64,132.14 65,158.57 66,145.36 67,145.36 68,171.79 69,132.14 70,145.36 71,132.14 72,185 73,145.36 74,185 75,145.36 76,145.36 77,158.57 78,158.57 79,171.79 80,171.79 81,158.57 82,132.14 83,145.36 84,158.57 85,132.14 86,237.86 87,158.57 88,132.14 89,145.36 90,132.14 91,132.14 92,118.93 93,158.57 94,211.43 95,224.64 96,185 97,132.14 98,105.71 99,118.93 100,224.64 101,237.86 102,237.86 103,290.71 104,290.71 105,185 106,132.14 107,118.93 109,118.93 110,105.71 111,132.14 112,145.36 113,118.93 114,330.36 115,211.43 116,171.79 117,158.57 118,145.36 119,290.71 120,158.57 121,132.14 122,330.36 123,330.36 124,317.14 124.49,370"><title>LR761637.1</title></polygon><rect class="average" height="1" width="124.49" x="0" y="175.65"><title>average:14.71</title></rect><rect class="median" height="1" width="124.49" x="0" y="185"><title>median:14</title></rect><text class="chromName" x="62.25" y="-12">LR761637.1<title>LR761637.1 53,127,865 bp</title></text><rect class="frame" height="370" width="124.49" x="0" y="0"/></g><g id="chrom-LR761638.1" transform="translate(577.4390778079033,0)"><polygon class="cov0" points="0,370 0,145.36 1,52.86 2,317.14 3,145.36 4,211.43 5,145.36 6,198.21 7,198.21 8,224.64 9,132.14 10,185 11,317.14 12,145.36 13,171.79 14,105.71 15,158.57 16,105.71 17,132.14 18,224.64 19,290.71 20,118.93 21,224.64 22,132.14 23,118.93 24,132.14 25,158.57 26,356.79 27,118.93 28,185 29,317.14 30,251.07 31,158.57 32,370 33,356.79 34,185 35,224.64 36,158.57 37,356.79 38,277.5 39,343.57 40,330.36 41,303.93 42,224.64 43,118.93 44,145.36 45,303.93 46,198.21 47,118.93 48,118.93 49,171.79 50,264.29 51,198.21 52,171.79 53,145.36 54,237.86 55,198.21 56,158.57 57,237.86 58,132.14 59,185 60,237.86 61,251.07 62,158.57 63,290.71 64,317.14 65,290.71 66,171.79 67,185 68,185 69,290.71 70,171.79 71,330.36 72,317.14 73,290.71 74,264.29 75,303.93 76,330.36 77,198.21 78,356.79 79,317.14 80,303.93 81,198.21 82,317.14 83,330.36 84,303.93 85,211.43 86,145.36 87,171.79 88,303.93 89,132.14 90,303.93 91,145.36 92,118.93 93,132.14 94,145.36 95,224.64 96,290.71 97,145.36 98,290.71 99,198.21 100,211.43 101,171.79 102,290.71 103,171.79 104,277.5 105,303.93 106,224.64 107,185 108,224.64 109,145.36 110,198.21 111,198.21 112,277.5 113,224.64 114,277.5 115,277.5 116,303.93 117,343.57 118,356.79 119,290.71 120,290.71 121,330.36 122,356.79 123,370 124,303.93 125,303.93 126,330.36 127,277.5 128,356.79 129,264.29 130,330.36 131,330.36 132,277.5 133,330.36 134,237.86 135,303.93 136,171.79 137,370 138,343.57 139,264.29 140,356.79 141,356.79 142,343.57 143,290.71 144,158.57 145,171.79 146,251.07 147,132.14 148,158.57 149,158.57 150,185 151,277.5 152,158.57 153,158.57 154,251.07 155,290.71 156,198.21 157,224.64 158,290.71 159,290.71 160,317.14 161,303.93 162,277.5 163,277.5 164,290.71 165,356.79 166,356.79 167,343.57 168,303.93 169,237.86 170,356.79 171,343.57 172,343.57 172.35,370"><title>LR761638.1</title></polygon><rect class="average" height="1" width="172.35" x="0" y="206.02"><title>average:12.41</title></rect><rect class="median" height="1" width="172.35" x="0" y="251.07"><title>median:9</title></rect><text class="chromName" x="86.17" y="-12">LR761638.1<title>LR761638.1 73,550,375 bp</title></text><rect class="frame" height="370" width="172.35" x="0" y="0"/></g><g id="chrom-LR761639.1" transform="translate(750.784104388203,0)"><polygon class="cov1" points="0,370 0,303.93 1,158.57 2,145.36 3,264.29 4,145.36 5,224.64 6,330.36 7,224.64 8,145.36 9,132.14 10,158.57 11,251.07 12,264.29 13,132.14 14,158.57 15,132.14 19,132.14 20,118.93 21,145.36 22,158.57 23,171.79 24,171.79 25,211.43 26,171.79 27,317.14 28,343.57 29,224.64 30,290.71 31,132.14 32,145.36 33,132.14 34,198.21 35,185 36,211.43 37,145.36 39,145.36 40,211.43 41,132.14 42,145.36 43,105.71 44,145.36 45,132.14 46,158.57 47,145.36 48,132.14 49,171.79 50,145.36 51,145.36 52,185 53,158.57 54,158.57 55,145.36 56,132.14 57,145.36 58,145.36 59,132.14 60,145.36 61,132.14 62,145.36 63,145.36 64,118.93 65,132.14 66,171.79 67,145.36 68,145.36 69,171.79 70,145.36 71,145.36 72,158.57 73,145.36 74,211.43 75,145.36 76,145.36 77,158.57 78,132.14 79,145.36 80,145.36 81,132.14 83,132.14 84,198.21 85,145.36 86,132.14 88,132.14 89,145.36 90,132.14 91,145.36 92,145.36 93,171.79 94,158.57 95,145.36 96,158.57 97,132.14 98,118.93 99,145.36 100,145.36 101,118.93 102,132.14 103,145.36 104,118.93 105,132.14 106,251.07 107,145.36 108,118.93 109,132.14 110,132.14 111,330.36 112,185 113,118.93 114,171.79 115,132.14 116,145.36 117,132.14 118,132.14 119,118.93 120,145.36 121,132.14 122,132.14 123,118.93 124,171.79 125,132.14 127,132.14 128,158.57 129,132.14 130,185 131,145.36 132,185 133,330.36 134,118.93 135,158.57 136,145.36 137,145.36 138,185 139,185 140,303.93 140.95,370"><title>LR761639.1</title></polygon><rect class="average" height="1" width="140.95" x="0" y="157.58"><title>average:16.08</title></rect><rect class="median" height="1" width="140.95" x="0" y="158.57"><title>median:16</title></rect><text class="chromName" x="70.47" y="-12">LR761639.1<title>LR761639.1 60,151,564 bp</title></text><rect class="frame" height="370" width="140.95" x="0" y="0"/></g><g id="chrom-LR761640.1" transform="translate(892.7327113317651,0)"><polygon class="cov0" points="0,370 0,145.36 1,105.71 2,198.21 3,171.79 4,158.57 5,118.93 6,198.21 7,185 8,132.14 9,198.21 10,105.71 11,145.36 12,118.93 13,277.5 14,171.79 15,145.36 16,237.86 17,145.36 18,132.14 19,185 20,132.14 21,145.36 22,132.14 23,118.93 24,145.36 25,145.36 26,118.93 27,132.14 28,145.36 29,132.14 33,132.14 34,158.57 35,145.36 36,132.14 37,198.21 38,118.93 39,171.79 40,118.93 41,132.14 42,105.71 43,118.93 44,118.93 45,145.36 46,145.36 47,251.07 48,303.93 49,118.93 50,158.57 51,132.14 52,132.14 53,145.36 54,132.14 56,132.14 57,211.43 58,158.57 59,185 60,251.07 61,132.14 62,158.57 63,185 64,132.14 65,303.93 66,132.14 67,145.36 68,158.57 69,198.21 70,185 71,145.36 72,185 73,224.64 74,171.79 75,145.36 76,145.36 77,224.64 78,145.36 79,185 80,118.93 82,118.93 83,145.36 84,132.14 85,145.36 86,343.57 87,158.57 88,171.79 89,171.79 90,158.57 91,264.29 92,277.5 93,185 94,264.29 95,158.57 96,145.36 97,145.36 98,158.57 99,145.36 100,132.14 101,211.43 102,330.36 103,251.07 104,132.14 105,132.14 106,145.36 107,158.57 108,211.43 109,132.14 110,171.79 111,198.21 112,145.36 114,145.36 115,132.14 116,264.29 117,343.57 118,356.79 119,343.57 120,132.14 121,118.93 122,132.14 123,145.36 124,145.36 125,132.14 127,132.14 128,237.86 129,158.57 130,132.14 131,132.14 132,145.36 133,132.14 134,118.93 135,105.71 136,145.36 137,145.36 138,132.14 139,185 140,145.36 141,132.14 142,158.57 143,171.79 144,118.93 145,118.93 145.53,370"><title>LR761640.1</title></polygon><rect class="average" height="1" width="145.53" x="0" y="159.7"><title>average:15.91</title></rect><rect class="median" height="1" width="145.53" x="0" y="158.57"><title>median:16</title></rect><text class="chromName" x="72.77" y="-12">LR761640.1<title>LR761640.1 62,107,823 bp</title></text><rect class="frame" height="370" width="145.53" x="0" y="0"/></g><g id="chrom-LR761641.1" transform="translate(1039.265271917344,0)"><polygon class="cov1" points="0,370 0,277.5 1,145.36 2,237.86 3,171.79 4,105.71 5,198.21 6,264.29 7,264.29 8,290.71 9,185 10,145.36 11,198.21 12,237.86 13,132.14 14,211.43 15,132.14 16,171.79 17,317.14 18,132.14 20,132.14 21,158.57 22,211.43 23,158.57 24,171.79 25,171.79 26,224.64 27,185 28,224.64 29,317.14 30,237.86 31,185 32,237.86 33,198.21 34,277.5 35,264.29 36,343.57 37,224.64 38,264.29 39,264.29 40,211.43 41,290.71 42,251.07 43,330.36 44,237.86 45,224.64 46,251.07 47,277.5 48,237.86 49,145.36 50,185 51,145.36 52,132.14 53,118.93 54,132.14 55,118.93 56,132.14 57,171.79 59,171.79 60,145.36 61,290.71 62,158.57 63,171.79 64,198.21 65,185 66,198.21 67,251.07 68,185 69,158.57 70,237.86 71,132.14 72,198.21 73,264.29 74,211.43 75,317.14 76,158.57 77,185 78,145.36 79,198.21 80,264.29 81,343.57 82,317.14 83,237.86 84,145.36 85,132.14 86,211.43 87,118.93 88,171.79 89,171.79 90,277.5 91,211.43 92,132.14 93,251.07 94,303.93 95,198.21 96,171.79 97,356.79 98,132.14 99,370 100,303.93 101,105.71 102,158.57 103,118.93 104,185 105,132.14 106,237.86 107,118.93 108,145.36 109,132.14 110,118.93 111,251.07 112,118.93 113,251.07 114,145.36 115,158.57 116,118.93 117,158.57 118,145.36 119,211.43 120,185 121,171.79 122,145.36 123,211.43 124,158.57 125,224.64 126,237.86 127,118.93 128,277.5 129,171.79 130,264.29 131,198.21 132,343.57 133,264.29 134,132.14 135,356.79 136,330.36 136.99,370"><title>LR761641.1</title></polygon><rect class="average" height="1" width="136.99" x="0" y="177.7"><title>average:14.55</title></rect><rect class="median" height="1" width="136.99" x="0" y="198.21"><title>median:13</title></rect><text class="chromName" x="68.5" y="-12">LR761641.1<title>LR761641.1 58,462,999 bp</title></text><rect class="frame" height="370" width="136.99" x="0" y="0"/></g><g id="chrom-LR761642.1" transform="translate(1177.25719230686,0)"><polygon class="cov0" points="0,370 0,317.14 1,303.93 2,251.07 3,251.07 4,303.93 5,343.57 6,290.71 7,277.5 8,356.79 9,290.71 10,277.5 11,237.86 12,251.07 13,145.36 14,171.79 15,211.43 16,277.5 17,198.21 18,290.71 19,251.07 20,224.64 21,171.79 22,303.93 23,277.5 24,158.57 25,132.14 26,185 27,158.57 28,264.29 29,158.57 30,224.64 31,132.14 32,158.57 33,198.21 34,145.36 35,317.14 36,145.36 37,145.36 38,118.93 39,198.21 40,145.36 41,171.79 42,132.14 43,145.36 44,145.36 45,185 46,145.36 47,237.86 48,224.64 49,277.5 50,185 51,158.57 52,185 53,118.93 54,132.14 55,224.64 56,171.79 57,198.21 58,277.5 59,171.79 60,145.36 61,343.57 62,211.43 63,145.36 64,185 65,171.79 66,171.79 67,277.5 68,198.21 69,171.79 70,185 71,264.29 72,158.57 73,224.64 74,132.14 75,185 76,303.93 77,145.36 78,132.14 79,277.5 80,251.07 81,171.79 82,317.14 83,237.86 84,290.71 85,198.21 86,317.14 86.91,370"><title>LR761642.1</title></polygon><rect class="average" height="1" width="86.91" x="0" y="178.66"><title>average:14.48</title></rect><rect class="median" height="1" width="86.91" x="0" y="211.43"><title>median:12</title></rect><text class="chromName" x="43.45" y="-12">LR761642.1<title>LR761642.1 37,089,910 bp</title></text><rect class="frame" height="370" width="86.91" x="0" y="0"/></g><g id="chrom-LR761643.1" transform="translate(1265.1671710093603,0)"><polygon class="cov1" points="0,370 0,343.57 1,251.07 2,158.57 3,132.14 4,158.57 5,224.64 6,171.79 7,171.79 8,145.36 9,118.93 10,132.14 11,171.79 12,132.14 13,198.21 14,237.86 15,158.57 16,118.93 17,132.14 18,145.36 19,158.57 20,343.57 21,158.57 22,132.14 23,132.14 24,145.36 25,171.79 26,356.79 27,343.57 28,290.71 29,132.14 30,171.79 31,145.36 32,224.64 33,145.36 34,145.36 35,198.21 36,251.07 37,132.14 38,145.36 39,132.14 40,145.36 41,158.57 42,211.43 43,277.5 44,158.57 45,185 46,132.14 47,237.86 48,158.57 49,145.36 50,211.43 51,145.36 52,145.36 53,171.79 54,171.79 55,145.36 56,132.14 57,145.36 58,171.79 59,145.36 60,132.14 61,132.14 62,171.79 63,145.36 64,158.57 65,198.21 66,171.79 67,158.57 68,158.57 69,145.36 70,171.79 71,251.07 72,211.43 73,198.21 74,132.14 75,224.64 76,145.36 77,132.14 78,211.43 79,251.07 80,132.14 81,118.93 82,132.14 83,145.36 84,132.14 85,132.14 86,145.36 87,118.93 88,171.79 89,317.14 90,171.79 91,132.14 92,132.14 93,171.79 94,118.93 95,145.36 96,118.93 97,132.14 100,132.14 101,237.86 102,145.36 105,145.36 106,132.14 107,132.14 108,145.36 109,118.93 111,118.93 112,132.14 113,198.21 114,145.36 115,145.36 116,118.93 117,118.93 118,132.14 119,158.57 120,132.14 121,118.93 122,132.14 123,132.14 124,145.36 125,132.14 126,118.93 127,185 128,171.79 129,118.93 130,158.57 131,211.43 132,132.14 133,251.07 134,317.14 134.83,370"><title>LR761643.1</title></polygon><rect class="average" height="1" width="134.83" x="0" y="163.82"><title>average:15.6</title></rect><rect class="median" height="1" width="134.83" x="0" y="158.57"><title>median:16</title></rect><text class="chromName" x="67.42" y="-12">LR761643.1<title>LR761643.1 57,541,580 bp</title></text><rect class="frame" height="370" width="134.83" x="0" y="0"/></g><g><line class="ruler" x1="-2" x2="1390" y1="333" y2="333"><title>2</title></line><text class="ruler" x="-5" y="333">2</text><line class="ruler" x1="-2" x2="1390" y1="296" y2="296"><title>5</title></line><text class="ruler" x="-5" y="296">5</text><line class="ruler" x1="-2" x2="1390" y1="259" y2="259"><title>8</title></line><text class="ruler" x="-5" y="259">8</text><line class="ruler" x1="-2" x2="1390" y1="222" y2="222"><title>11</title></line><text class="ruler" x="-5" y="222">11</text><line class="ruler" x1="-2" x2="1390" y1="185" y2="185"><title>14</title></line><text class="ruler" x="-5" y="185">14</text><line class="ruler" x1="-2" x2="1390" y1="148" y2="148"><title>16</title></line><text class="ruler" x="-5" y="148">16</text><line class="ruler" x1="-2" x2="1390" y1="111" y2="111"><title>19</title></line><text class="ruler" x="-5" y="111">19</text><line class="ruler" x1="-2" x2="1390" y1="74" y2="74"><title>22</title></line><text class="ruler" x="-5" y="74">22</text><line class="ruler" x1="-2" x2="1390" y1="37" y2="37"><title>25</title></line><text class="ruler" x="-5" y="37">25</text><line class="ruler" x1="-2" x2="1390" y1="0" y2="0"><title>28</title></line><text class="ruler" x="-5" y="0">28</text></g></g><text class="title" x="795" y="40">F15_M13_14.merged.realigned.bam F15_M13_14 F15_M13_14_1 F15_M13_14_2<title>./F15_M13_14.merged.realigned.bam</title></text><text class="xLabel" x="795" y="475">GCA_902806645.1_cgigas_uk_roslin_v1_genomic.fna  (589,358,857 bp)<title>../ref/GCA_902806645.1_cgigas_uk_roslin_v1_genomic.fna</title></text><text class="yLabel" transform="translate(25,265) rotate(90)" x="0" y="0">Coverage bp (median)</text></g></svg>