<?xml version="1.0" encoding="UTF-8" standalone="no"?><svg height="500" width="1500" xmlns="http://www.w3.org/2000/svg"><title>F15_M15_14.merged.realigned.bam</title><desc>Made with wgscoverageplotter undefined Author: Pierre Lindenbaum</desc><style>g.maing {stroke:black;stroke-width:0.5px;fill:none;}
text.title {stroke:none;fill:black;stroke-width:1px;text-anchor:middle;}
rect.frame {stroke:darkgray;fill:none;stroke-width:0.5px;}
text.ruler {stroke:none;fill:darkgray;stroke-width:1px;text-anchor:end;}
text.chromName {stroke:none;fill:darkgray;stroke-width:1px;text-anchor:middle;}
text.xLabel {stroke:none;fill:black;stroke-width:1px;text-anchor:middle;}
text.yLabel {stroke:none;fill:black;stroke-width:1px;text-anchor:middle;}
.cov0 {stroke:gray;fill:antiquewhite;stroke-width:0.5px;}
.cov1 {stroke:gray;fill:beige;stroke-width:0.5px;}
rect.average {stroke:green;fill:green;stroke-width:0.5px;opacity:0.3;}
rect.median {stroke:red;fill:red;stroke-width:0.5px;opacity:0.3;}
line.ruler {stroke:darkgray;stroke-dasharray:4;fill:none;stroke-width:1;}
</style><g class="maing"><g id="chromosomes" transform="translate(100.0,80.0)"><g id="chrom-LR761634.1" transform="translate(10.0,0)"><polygon class="cov0" points="0,370 0,251.07 1,145.36 2,171.79 3,277.5 4,224.64 5,224.64 6,290.71 7,171.79 8,145.36 9,132.14 10,158.57 11,118.93 12,145.36 13,198.21 14,264.29 15,145.36 16,132.14 17,237.86 18,132.14 19,145.36 20,132.14 21,145.36 22,145.36 23,158.57 24,158.57 25,118.93 26,132.14 27,132.14 28,145.36 29,132.14 31,132.14 32,264.29 33,132.14 34,145.36 35,158.57 36,118.93 37,185 38,185 39,145.36 40,132.14 41,118.93 42,132.14 43,171.79 44,158.57 45,198.21 46,185 47,145.36 48,158.57 49,145.36 51,145.36 52,132.14 53,145.36 54,145.36 55,118.93 56,105.71 57,118.93 58,132.14 59,158.57 60,145.36 61,118.93 62,158.57 63,185 64,211.43 65,158.57 66,158.57 67,198.21 68,132.14 69,211.43 70,145.36 71,132.14 72,224.64 73,171.79 74,145.36 75,132.14 76,145.36 77,171.79 78,171.79 79,132.14 80,277.5 81,277.5 82,132.14 83,132.14 84,158.57 85,132.14 86,118.93 87,198.21 88,118.93 89,264.29 90,158.57 91,145.36 92,132.14 93,158.57 94,118.93 95,132.14 96,118.93 97,198.21 98,237.86 99,132.14 100,132.14 101,145.36 102,145.36 103,171.79 104,198.21 105,118.93 106,198.21 107,198.21 108,211.43 109,118.93 110,105.71 111,132.14 112,132.14 113,171.79 114,251.07 115,185 116,105.71 117,118.93 118,105.71 119,145.36 120,171.79 121,132.14 122,118.93 123,118.93 124,132.14 125,118.93 126,132.14 127,132.14 128,171.79 129,145.36 130,185 130.72,370"><title>LR761634.1</title></polygon><rect class="average" height="1" width="130.72" x="0" y="153.26"><title>average:16.4</title></rect><rect class="median" height="1" width="130.72" x="0" y="145.36"><title>median:17</title></rect><text class="chromName" x="65.36" y="-12">LR761634.1<title>LR761634.1 55,785,328 bp</title></text><rect class="frame" height="370" width="130.72" x="0" y="0"/></g><g id="chrom-LR761635.1" transform="translate(141.71753661284166,0)"><polygon class="cov1" points="0,370 0,343.57 1,343.57 2,330.36 3,303.93 4,343.57 5,356.79 6,198.21 7,277.5 8,290.71 9,290.71 10,264.29 11,303.93 12,251.07 13,145.36 14,198.21 15,264.29 16,290.71 17,237.86 18,277.5 19,224.64 20,290.71 21,317.14 22,290.71 23,237.86 24,317.14 25,330.36 26,330.36 27,317.14 28,264.29 29,343.57 30,343.57 31,317.14 32,251.07 33,224.64 34,211.43 35,211.43 36,251.07 37,330.36 38,290.71 39,198.21 40,251.07 41,237.86 42,185 43,198.21 44,132.14 45,171.79 46,211.43 47,158.57 48,290.71 49,185 50,237.86 51,343.57 52,224.64 53,251.07 54,317.14 55,303.93 56,370 57,303.93 58,185 59,303.93 60,330.36 61,277.5 62,158.57 63,290.71 64,317.14 65,290.71 66,290.71 67,277.5 68,264.29 69,277.5 70,290.71 71,211.43 72,251.07 73,224.64 74,237.86 75,211.43 76,343.57 77,0 78,251.07 79,290.71 80,158.57 81,290.71 83,290.71 84,343.57 85,317.14 86,330.36 87,356.79 88,343.57 89,356.79 90,290.71 91,303.93 92,317.14 93,303.93 94,251.07 95,303.93 96,303.93 97,343.57 98,303.93 99,317.14 100,303.93 101,356.79 102,303.93 103,237.86 104,224.64 105,198.21 106,264.29 107,303.93 108,198.21 109,145.36 110,317.14 111,185 112,303.93 113,330.36 114,317.14 115,330.36 116,290.71 117,290.71 118,171.79 119,171.79 120,132.14 121,185 122,251.07 123,237.86 124,277.5 125,145.36 126,237.86 127,290.71 128,185 129,317.14 130,198.21 131,251.07 132,211.43 133,290.71 134,317.14 135,290.71 136,290.71 137,317.14 138,317.14 139,224.64 140,343.57 141,277.5 142,251.07 143,303.93 144,277.5 145,211.43 146,237.86 147,198.21 148,185 149,145.36 150,224.64 151,277.5 152,330.36 153,237.86 154,330.36 155,290.71 156,290.71 157,251.07 158,290.71 159,171.79 160,224.64 161,264.29 162,303.93 163,211.43 164,224.64 165,251.07 166,290.71 167,330.36 168,277.5 169,290.71 170,330.36 171,330.36 171.58,370"><title>LR761635.1</title></polygon><rect class="average" height="1" width="171.58" x="0" y="216.26"><title>average:11.63</title></rect><rect class="median" height="1" width="171.58" x="0" y="277.5"><title>median:7</title></rect><text class="chromName" x="85.79" y="-12">LR761635.1<title>LR761635.1 73,222,313 bp</title></text><rect class="frame" height="370" width="171.58" x="0" y="0"/></g><g id="chrom-LR761636.1" transform="translate(314.2938403401308,0)"><polygon class="cov0" points="0,370 0,343.57 1,171.79 2,211.43 3,330.36 4,264.29 5,145.36 6,158.57 7,185 8,118.93 9,145.36 10,118.93 11,145.36 12,145.36 13,224.64 14,105.71 15,145.36 16,132.14 17,118.93 18,145.36 19,132.14 20,132.14 21,118.93 22,118.93 23,132.14 24,185 25,118.93 26,185 27,251.07 28,118.93 33,118.93 34,145.36 35,185 36,145.36 37,158.57 38,145.36 39,132.14 40,145.36 41,158.57 42,158.57 43,145.36 44,132.14 45,145.36 46,171.79 47,132.14 48,198.21 49,145.36 50,171.79 51,118.93 52,145.36 53,132.14 54,211.43 55,171.79 56,158.57 57,132.14 58,158.57 59,132.14 60,158.57 61,224.64 62,158.57 63,145.36 64,132.14 65,158.57 66,145.36 67,158.57 68,158.57 69,145.36 70,185 71,105.71 72,118.93 73,158.57 75,158.57 76,317.14 77,224.64 78,211.43 79,251.07 80,264.29 81,145.36 82,211.43 83,132.14 84,132.14 85,145.36 86,264.29 87,158.57 88,145.36 89,211.43 90,145.36 91,132.14 92,198.21 93,158.57 94,145.36 95,145.36 96,211.43 97,145.36 98,145.36 99,171.79 100,158.57 101,118.93 102,171.79 103,118.93 104,132.14 105,132.14 106,145.36 107,132.14 108,118.93 109,132.14 110,132.14 111,171.79 112,145.36 113,158.57 114,132.14 115,118.93 116,118.93 117,145.36 118,171.79 119,132.14 120,132.14 121,185 122,132.14 123,132.14 124,171.79 125,118.93 126,118.93 127,211.43 128,277.5 129,118.93 130,145.36 131,145.36 132,158.57 133,158.57 134,132.14 135,145.36 136,277.5 136.65,370"><title>LR761636.1</title></polygon><rect class="average" height="1" width="136.65" x="0" y="155.22"><title>average:16.25</title></rect><rect class="median" height="1" width="136.65" x="0" y="145.36"><title>median:17</title></rect><text class="chromName" x="68.33" y="-12">LR761636.1<title>LR761636.1 58,319,100 bp</title></text><rect class="frame" height="370" width="136.65" x="0" y="0"/></g><g id="chrom-LR761637.1" transform="translate(451.9485730949149,0)"><polygon class="cov1" points="0,370 0,343.57 1,264.29 2,290.71 3,251.07 4,237.86 5,185 6,237.86 7,251.07 8,251.07 9,303.93 10,277.5 11,211.43 12,277.5 13,264.29 14,317.14 15,171.79 16,237.86 17,92.5 18,237.86 19,251.07 20,211.43 21,145.36 22,158.57 23,224.64 24,330.36 25,145.36 26,145.36 27,237.86 28,198.21 29,224.64 30,264.29 31,145.36 32,145.36 33,171.79 34,118.93 35,198.21 36,303.93 37,224.64 38,171.79 39,158.57 40,145.36 41,277.5 42,237.86 43,290.71 44,317.14 45,171.79 46,158.57 47,158.57 48,132.14 49,132.14 50,185 51,145.36 52,105.71 53,171.79 54,118.93 55,132.14 56,158.57 57,224.64 58,277.5 59,303.93 60,303.93 61,224.64 62,132.14 63,145.36 66,145.36 67,158.57 68,185 69,132.14 70,158.57 71,145.36 72,185 73,132.14 74,185 75,171.79 76,145.36 77,171.79 78,185 79,185 80,171.79 81,158.57 82,132.14 83,145.36 84,158.57 85,132.14 86,237.86 87,158.57 88,132.14 89,145.36 90,132.14 91,145.36 92,132.14 93,158.57 94,198.21 95,211.43 96,185 97,145.36 98,118.93 99,132.14 100,251.07 101,303.93 102,303.93 103,290.71 104,330.36 105,198.21 106,118.93 111,118.93 112,158.57 113,118.93 114,330.36 115,237.86 116,171.79 117,158.57 118,145.36 119,303.93 120,158.57 121,118.93 122,330.36 123,330.36 124,303.93 124.49,370"><title>LR761637.1</title></polygon><rect class="average" height="1" width="124.49" x="0" y="180.9"><title>average:14.31</title></rect><rect class="median" height="1" width="124.49" x="0" y="185"><title>median:14</title></rect><text class="chromName" x="62.25" y="-12">LR761637.1<title>LR761637.1 53,127,865 bp</title></text><rect class="frame" height="370" width="124.49" x="0" y="0"/></g><g id="chrom-LR761638.1" transform="translate(577.4390778079033,0)"><polygon class="cov0" points="0,370 0,224.64 1,158.57 2,303.93 3,132.14 4,251.07 5,145.36 6,198.21 8,198.21 9,132.14 10,158.57 11,290.71 12,132.14 13,158.57 14,118.93 15,158.57 16,132.14 17,132.14 18,277.5 19,317.14 20,145.36 21,224.64 22,132.14 24,132.14 25,171.79 26,317.14 27,132.14 28,198.21 29,330.36 30,264.29 31,158.57 32,356.79 33,343.57 34,198.21 35,224.64 36,158.57 37,303.93 38,290.71 39,317.14 40,343.57 41,317.14 42,211.43 43,145.36 44,145.36 45,277.5 46,171.79 47,118.93 48,132.14 49,211.43 50,356.79 51,237.86 52,185 53,171.79 54,211.43 55,224.64 56,158.57 57,237.86 58,171.79 59,185 60,211.43 61,211.43 62,158.57 63,303.93 64,343.57 65,290.71 66,224.64 67,211.43 68,185 69,317.14 70,171.79 71,330.36 72,303.93 73,290.71 74,237.86 75,330.36 76,317.14 77,224.64 78,290.71 79,264.29 80,264.29 81,158.57 82,237.86 83,343.57 84,290.71 85,211.43 86,118.93 87,171.79 88,303.93 89,145.36 90,290.71 91,158.57 92,118.93 93,118.93 94,132.14 95,211.43 96,303.93 97,185 98,277.5 99,224.64 100,198.21 101,171.79 102,251.07 103,198.21 104,277.5 105,290.71 106,237.86 107,198.21 108,237.86 109,198.21 110,211.43 111,198.21 112,290.71 113,237.86 114,277.5 115,264.29 116,317.14 117,343.57 118,317.14 119,317.14 120,303.93 121,356.79 122,343.57 123,356.79 124,303.93 125,290.71 126,303.93 127,277.5 128,370 129,303.93 130,330.36 131,317.14 132,277.5 133,330.36 134,277.5 135,317.14 136,171.79 137,370 138,343.57 139,277.5 140,303.93 141,343.57 142,343.57 143,277.5 144,171.79 145,198.21 146,277.5 147,132.14 148,171.79 149,171.79 150,185 151,317.14 152,171.79 153,158.57 154,264.29 155,290.71 156,198.21 157,303.93 158,303.93 159,290.71 160,317.14 161,303.93 162,290.71 163,290.71 164,277.5 165,317.14 166,343.57 167,356.79 168,290.71 169,224.64 170,356.79 171,343.57 172,343.57 172.35,370"><title>LR761638.1</title></polygon><rect class="average" height="1" width="172.35" x="0" y="211.7"><title>average:11.98</title></rect><rect class="median" height="1" width="172.35" x="0" y="251.07"><title>median:9</title></rect><text class="chromName" x="86.17" y="-12">LR761638.1<title>LR761638.1 73,550,375 bp</title></text><rect class="frame" height="370" width="172.35" x="0" y="0"/></g><g id="chrom-LR761639.1" transform="translate(750.784104388203,0)"><polygon class="cov1" points="0,370 0,303.93 1,145.36 2,132.14 3,264.29 4,158.57 5,237.86 6,356.79 7,277.5 8,132.14 9,118.93 10,145.36 11,224.64 12,264.29 13,132.14 14,171.79 15,132.14 18,132.14 19,118.93 20,118.93 21,145.36 22,158.57 23,171.79 24,171.79 25,211.43 26,185 27,317.14 28,356.79 29,211.43 30,303.93 31,145.36 32,171.79 33,145.36 34,224.64 35,211.43 36,237.86 37,145.36 38,132.14 39,132.14 40,185 41,132.14 42,145.36 43,118.93 44,145.36 45,132.14 46,158.57 47,145.36 48,132.14 49,171.79 50,171.79 51,132.14 52,171.79 53,158.57 54,158.57 55,145.36 56,132.14 57,145.36 58,145.36 59,132.14 61,132.14 62,118.93 63,132.14 64,105.71 65,132.14 66,185 67,132.14 68,132.14 69,211.43 70,145.36 73,145.36 74,211.43 75,132.14 76,145.36 77,145.36 78,132.14 79,132.14 80,145.36 81,132.14 82,132.14 83,158.57 84,211.43 85,145.36 86,118.93 87,145.36 88,132.14 89,132.14 90,118.93 91,145.36 92,145.36 93,171.79 94,158.57 95,132.14 96,145.36 97,132.14 99,132.14 100,145.36 101,132.14 102,145.36 103,145.36 104,118.93 105,118.93 106,251.07 107,145.36 108,118.93 109,132.14 110,132.14 111,317.14 112,185 113,118.93 114,171.79 115,118.93 116,158.57 117,132.14 119,132.14 120,158.57 121,132.14 122,118.93 123,118.93 124,171.79 125,132.14 127,132.14 128,158.57 129,132.14 130,171.79 131,158.57 132,171.79 133,330.36 134,118.93 135,171.79 137,171.79 138,198.21 139,185 140,264.29 140.95,370"><title>LR761639.1</title></polygon><rect class="average" height="1" width="140.95" x="0" y="158.53"><title>average:16</title></rect><rect class="median" height="1" width="140.95" x="0" y="158.57"><title>median:16</title></rect><text class="chromName" x="70.47" y="-12">LR761639.1<title>LR761639.1 60,151,564 bp</title></text><rect class="frame" height="370" width="140.95" x="0" y="0"/></g><g id="chrom-LR761640.1" transform="translate(892.7327113317651,0)"><polygon class="cov0" points="0,370 0,198.21 1,132.14 2,185 3,171.79 4,171.79 5,118.93 6,185 7,198.21 8,132.14 9,158.57 10,145.36 11,158.57 12,118.93 13,251.07 14,158.57 15,132.14 16,224.64 17,145.36 18,118.93 19,185 20,118.93 21,132.14 22,132.14 23,118.93 24,145.36 25,158.57 26,118.93 27,132.14 28,145.36 29,132.14 30,145.36 31,158.57 32,132.14 33,132.14 34,158.57 35,132.14 36,132.14 37,211.43 38,118.93 39,171.79 40,118.93 41,132.14 42,118.93 43,118.93 44,132.14 45,145.36 46,132.14 47,251.07 48,317.14 49,132.14 50,171.79 51,145.36 52,118.93 53,145.36 54,118.93 55,118.93 56,132.14 57,237.86 58,145.36 59,198.21 60,237.86 61,145.36 62,145.36 63,185 64,145.36 65,237.86 66,132.14 67,145.36 68,158.57 69,185 70,185 71,145.36 72,171.79 73,198.21 74,171.79 75,145.36 76,145.36 77,224.64 78,132.14 79,158.57 80,105.71 81,92.5 82,105.71 83,132.14 85,132.14 86,343.57 87,158.57 90,158.57 91,277.5 92,277.5 93,198.21 94,277.5 95,158.57 96,145.36 97,145.36 98,171.79 99,145.36 100,118.93 101,185 102,343.57 103,251.07 104,132.14 105,118.93 106,132.14 107,185 108,185 109,132.14 110,171.79 111,211.43 112,132.14 113,158.57 114,145.36 115,132.14 116,264.29 117,277.5 118,277.5 119,264.29 120,145.36 121,118.93 122,132.14 123,132.14 124,145.36 125,132.14 127,132.14 128,264.29 129,158.57 130,118.93 131,132.14 132,158.57 133,132.14 134,118.93 135,118.93 136,132.14 137,132.14 138,118.93 139,158.57 140,132.14 141,132.14 142,158.57 143,132.14 144,118.93 145,132.14 145.53,370"><title>LR761640.1</title></polygon><rect class="average" height="1" width="145.53" x="0" y="157.65"><title>average:16.07</title></rect><rect class="median" height="1" width="145.53" x="0" y="158.57"><title>median:16</title></rect><text class="chromName" x="72.77" y="-12">LR761640.1<title>LR761640.1 62,107,823 bp</title></text><rect class="frame" height="370" width="145.53" x="0" y="0"/></g><g id="chrom-LR761641.1" transform="translate(1039.265271917344,0)"><polygon class="cov1" points="0,370 0,290.71 1,171.79 2,264.29 3,185 4,105.71 5,198.21 6,264.29 7,237.86 8,264.29 9,185 10,145.36 11,211.43 12,237.86 13,118.93 14,185 15,132.14 16,132.14 17,343.57 18,132.14 19,132.14 20,145.36 21,185 22,211.43 23,158.57 24,171.79 25,145.36 26,251.07 27,224.64 28,237.86 29,317.14 30,237.86 31,198.21 32,264.29 33,211.43 34,277.5 35,290.71 37,290.71 38,264.29 39,251.07 40,198.21 41,277.5 42,330.36 43,343.57 44,251.07 45,198.21 46,237.86 47,277.5 48,251.07 49,145.36 50,185 51,145.36 52,132.14 53,118.93 54,132.14 55,118.93 56,118.93 57,171.79 58,185 59,171.79 60,145.36 61,343.57 62,145.36 63,185 64,198.21 65,185 66,198.21 67,237.86 68,224.64 69,171.79 70,290.71 71,132.14 72,198.21 73,303.93 74,211.43 75,290.71 76,171.79 77,158.57 78,171.79 79,211.43 80,277.5 81,356.79 82,356.79 83,303.93 84,171.79 85,171.79 86,264.29 87,118.93 88,224.64 89,171.79 90,264.29 91,264.29 92,132.14 93,237.86 94,277.5 95,237.86 96,158.57 97,303.93 98,145.36 99,370 100,264.29 101,118.93 102,185 103,132.14 104,185 105,145.36 106,237.86 107,132.14 108,145.36 109,145.36 110,132.14 111,303.93 112,132.14 113,290.71 114,145.36 115,198.21 116,118.93 117,171.79 118,145.36 119,224.64 120,211.43 121,171.79 122,171.79 123,237.86 124,158.57 125,224.64 126,264.29 127,118.93 128,277.5 129,185 130,277.5 131,198.21 132,356.79 133,277.5 134,158.57 135,356.79 136,343.57 136.99,370"><title>LR761641.1</title></polygon><rect class="average" height="1" width="136.99" x="0" y="188.88"><title>average:13.71</title></rect><rect class="median" height="1" width="136.99" x="0" y="211.43"><title>median:12</title></rect><text class="chromName" x="68.5" y="-12">LR761641.1<title>LR761641.1 58,462,999 bp</title></text><rect class="frame" height="370" width="136.99" x="0" y="0"/></g><g id="chrom-LR761642.1" transform="translate(1177.25719230686,0)"><polygon class="cov0" points="0,370 0,290.71 1,264.29 2,303.93 3,290.71 4,330.36 5,343.57 6,303.93 7,317.14 9,317.14 10,237.86 11,198.21 12,224.64 13,132.14 14,185 15,198.21 16,290.71 17,237.86 18,303.93 19,211.43 20,198.21 21,171.79 22,303.93 23,264.29 24,158.57 25,132.14 26,158.57 27,185 28,290.71 29,158.57 30,237.86 31,145.36 32,171.79 33,211.43 34,198.21 35,264.29 36,145.36 37,185 38,132.14 39,171.79 40,145.36 41,158.57 42,132.14 43,145.36 44,158.57 45,198.21 46,145.36 47,264.29 48,277.5 49,290.71 50,198.21 51,198.21 52,211.43 53,132.14 54,145.36 55,224.64 56,171.79 57,211.43 58,237.86 59,145.36 60,145.36 61,303.93 62,211.43 63,158.57 64,198.21 65,158.57 66,158.57 67,330.36 68,224.64 69,132.14 70,132.14 71,251.07 72,145.36 73,211.43 74,145.36 75,185 76,317.14 77,145.36 78,145.36 79,251.07 80,251.07 81,185 82,330.36 83,251.07 84,290.71 85,237.86 86,290.71 86.91,370"><title>LR761642.1</title></polygon><rect class="average" height="1" width="86.91" x="0" y="180.73"><title>average:14.32</title></rect><rect class="median" height="1" width="86.91" x="0" y="211.43"><title>median:12</title></rect><text class="chromName" x="43.45" y="-12">LR761642.1<title>LR761642.1 37,089,910 bp</title></text><rect class="frame" height="370" width="86.91" x="0" y="0"/></g><g id="chrom-LR761643.1" transform="translate(1265.1671710093603,0)"><polygon class="cov1" points="0,370 0,290.71 1,251.07 2,158.57 3,118.93 4,145.36 5,211.43 6,158.57 7,171.79 8,132.14 9,118.93 10,132.14 11,171.79 12,132.14 13,198.21 14,237.86 15,145.36 16,118.93 17,158.57 19,158.57 20,356.79 21,171.79 22,132.14 23,132.14 24,211.43 25,171.79 26,370 27,277.5 28,317.14 29,132.14 30,185 31,158.57 32,211.43 33,145.36 34,158.57 35,198.21 36,251.07 37,132.14 38,145.36 39,132.14 40,145.36 41,145.36 42,198.21 43,290.71 44,145.36 45,171.79 46,118.93 47,264.29 48,171.79 49,145.36 50,171.79 51,132.14 52,145.36 53,145.36 54,171.79 55,132.14 57,132.14 58,198.21 59,118.93 60,105.71 61,132.14 62,158.57 63,145.36 64,158.57 65,185 66,158.57 67,158.57 68,145.36 69,145.36 70,171.79 71,198.21 72,185 73,224.64 74,132.14 75,211.43 76,145.36 77,118.93 78,198.21 79,264.29 80,132.14 81,118.93 82,145.36 83,145.36 84,118.93 85,132.14 86,145.36 87,118.93 88,171.79 89,343.57 90,171.79 91,132.14 92,118.93 93,158.57 94,118.93 95,158.57 96,118.93 97,132.14 98,118.93 99,118.93 100,132.14 101,237.86 102,132.14 103,145.36 104,158.57 105,145.36 106,132.14 107,118.93 108,145.36 109,118.93 111,118.93 112,132.14 113,224.64 114,145.36 115,132.14 116,105.71 117,118.93 118,145.36 119,158.57 120,118.93 121,105.71 122,118.93 123,118.93 124,132.14 125,132.14 126,118.93 127,185 128,158.57 129,118.93 130,145.36 131,211.43 132,132.14 133,211.43 134,303.93 134.83,370"><title>LR761643.1</title></polygon><rect class="average" height="1" width="134.83" x="0" y="160.35"><title>average:15.87</title></rect><rect class="median" height="1" width="134.83" x="0" y="158.57"><title>median:16</title></rect><text class="chromName" x="67.42" y="-12">LR761643.1<title>LR761643.1 57,541,580 bp</title></text><rect class="frame" height="370" width="134.83" x="0" y="0"/></g><g><line class="ruler" x1="-2" x2="1390" y1="333" y2="333"><title>2</title></line><text class="ruler" x="-5" y="333">2</text><line class="ruler" x1="-2" x2="1390" y1="296" y2="296"><title>5</title></line><text class="ruler" x="-5" y="296">5</text><line class="ruler" x1="-2" x2="1390" y1="259" y2="259"><title>8</title></line><text class="ruler" x="-5" y="259">8</text><line class="ruler" x1="-2" x2="1390" y1="222" y2="222"><title>11</title></line><text class="ruler" x="-5" y="222">11</text><line class="ruler" x1="-2" x2="1390" y1="185" y2="185"><title>14</title></line><text class="ruler" x="-5" y="185">14</text><line class="ruler" x1="-2" x2="1390" y1="148" y2="148"><title>16</title></line><text class="ruler" x="-5" y="148">16</text><line class="ruler" x1="-2" x2="1390" y1="111" y2="111"><title>19</title></line><text class="ruler" x="-5" y="111">19</text><line class="ruler" x1="-2" x2="1390" y1="74" y2="74"><title>22</title></line><text class="ruler" x="-5" y="74">22</text><line class="ruler" x1="-2" x2="1390" y1="37" y2="37"><title>25</title></line><text class="ruler" x="-5" y="37">25</text><line class="ruler" x1="-2" x2="1390" y1="0" y2="0"><title>28</title></line><text class="ruler" x="-5" y="0">28</text></g></g><text class="title" x="795" y="40">F15_M15_14.merged.realigned.bam F15_M15_14 F15_M15_14_1 F15_M15_14_2<title>./F15_M15_14.merged.realigned.bam</title></text><text class="xLabel" x="795" y="475">GCA_902806645.1_cgigas_uk_roslin_v1_genomic.fna  (589,358,857 bp)<title>../ref/GCA_902806645.1_cgigas_uk_roslin_v1_genomic.fna</title></text><text class="yLabel" transform="translate(25,265) rotate(90)" x="0" y="0">Coverage bp (median)</text></g></svg>