<?xml version="1.0" encoding="UTF-8" standalone="no"?><svg height="500" width="1500" xmlns="http://www.w3.org/2000/svg"><title>F15_M13_24.merged.realigned.bam</title><desc>Made with wgscoverageplotter undefined Author: Pierre Lindenbaum</desc><style>g.maing {stroke:black;stroke-width:0.5px;fill:none;}
text.title {stroke:none;fill:black;stroke-width:1px;text-anchor:middle;}
rect.frame {stroke:darkgray;fill:none;stroke-width:0.5px;}
text.ruler {stroke:none;fill:darkgray;stroke-width:1px;text-anchor:end;}
text.chromName {stroke:none;fill:darkgray;stroke-width:1px;text-anchor:middle;}
text.xLabel {stroke:none;fill:black;stroke-width:1px;text-anchor:middle;}
text.yLabel {stroke:none;fill:black;stroke-width:1px;text-anchor:middle;}
.cov0 {stroke:gray;fill:antiquewhite;stroke-width:0.5px;}
.cov1 {stroke:gray;fill:beige;stroke-width:0.5px;}
rect.average {stroke:green;fill:green;stroke-width:0.5px;opacity:0.3;}
rect.median {stroke:red;fill:red;stroke-width:0.5px;opacity:0.3;}
line.ruler {stroke:darkgray;stroke-dasharray:4;fill:none;stroke-width:1;}
</style><g class="maing"><g id="chromosomes" transform="translate(100.0,80.0)"><g id="chrom-LR761634.1" transform="translate(10.0,0)"><polygon class="cov0" points="0,370 0,315.59 1,130.59 2,163.24 3,282.94 4,217.65 5,206.76 6,282.94 7,195.88 8,152.35 9,130.59 10,152.35 11,119.71 12,152.35 13,228.53 14,282.94 15,141.47 16,130.59 17,217.65 18,141.47 19,141.47 20,130.59 21,141.47 22,152.35 23,163.24 24,163.24 25,130.59 26,141.47 27,141.47 28,152.35 29,141.47 30,141.47 31,152.35 32,261.18 33,152.35 34,152.35 35,163.24 36,130.59 37,174.12 38,185 39,152.35 40,141.47 41,130.59 42,141.47 43,185 44,163.24 45,195.88 46,185 47,152.35 48,163.24 49,152.35 50,163.24 51,152.35 52,141.47 53,152.35 54,185 55,174.12 56,130.59 57,130.59 58,152.35 59,163.24 60,163.24 61,141.47 62,163.24 63,185 64,195.88 65,174.12 66,163.24 67,185 68,141.47 69,217.65 70,152.35 71,141.47 72,206.76 73,174.12 74,152.35 75,141.47 76,152.35 77,185 78,185 79,152.35 80,282.94 81,282.94 82,130.59 83,152.35 84,163.24 85,141.47 86,130.59 87,206.76 88,130.59 89,261.18 90,163.24 91,163.24 92,141.47 93,163.24 94,119.71 95,141.47 96,119.71 97,185 98,282.94 99,130.59 100,130.59 101,163.24 102,163.24 103,174.12 104,195.88 105,130.59 106,195.88 107,185 108,250.29 109,119.71 110,119.71 111,130.59 112,130.59 113,174.12 114,304.71 115,206.76 116,119.71 117,130.59 118,108.82 119,152.35 120,141.47 121,119.71 122,130.59 123,119.71 124,141.47 125,119.71 126,130.59 127,130.59 128,185 129,141.47 130,185 130.72,370"><title>LR761634.1</title></polygon><rect class="average" height="1" width="130.72" x="0" y="161.34"><title>average:19.17</title></rect><rect class="median" height="1" width="130.72" x="0" y="152.35"><title>median:20</title></rect><text class="chromName" x="65.36" y="-12">LR761634.1<title>LR761634.1 55,785,328 bp</title></text><rect class="frame" height="370" width="130.72" x="0" y="0"/></g><g id="chrom-LR761635.1" transform="translate(141.71753661284166,0)"><polygon class="cov1" points="0,370 0,348.24 1,348.24 2,337.35 3,304.71 4,337.35 5,337.35 6,195.88 7,315.59 8,304.71 9,250.29 10,228.53 11,293.82 12,206.76 13,141.47 14,217.65 15,261.18 16,293.82 17,217.65 18,272.06 19,185 20,282.94 21,304.71 22,282.94 23,195.88 24,293.82 25,337.35 26,348.24 27,304.71 28,239.41 29,348.24 30,348.24 31,337.35 32,250.29 33,195.88 34,206.76 35,206.76 36,217.65 37,315.59 38,304.71 39,185 40,282.94 41,195.88 42,152.35 43,185 44,119.71 45,185 46,163.24 47,130.59 48,293.82 49,185 50,228.53 51,326.47 52,195.88 53,228.53 54,293.82 55,293.82 56,348.24 57,282.94 58,195.88 59,304.71 60,370 61,282.94 62,141.47 63,293.82 64,315.59 65,261.18 66,293.82 67,272.06 68,272.06 69,282.94 70,239.41 71,228.53 72,250.29 73,239.41 74,217.65 75,250.29 76,348.24 77,0 78,239.41 79,282.94 80,163.24 81,261.18 82,293.82 83,272.06 84,359.12 85,326.47 86,326.47 87,359.12 88,348.24 89,348.24 90,282.94 91,282.94 92,326.47 93,337.35 94,261.18 95,272.06 96,250.29 97,293.82 98,315.59 99,315.59 100,272.06 101,359.12 102,282.94 103,195.88 105,195.88 106,250.29 107,304.71 108,174.12 109,206.76 110,304.71 111,174.12 112,337.35 113,326.47 114,304.71 115,326.47 116,282.94 117,272.06 118,174.12 119,174.12 120,141.47 121,195.88 122,239.41 123,239.41 124,272.06 125,141.47 126,250.29 127,282.94 128,152.35 129,315.59 130,185 131,250.29 132,217.65 133,304.71 134,315.59 135,282.94 136,315.59 137,326.47 138,304.71 139,261.18 140,337.35 141,282.94 142,228.53 143,304.71 144,261.18 145,217.65 146,261.18 147,141.47 148,174.12 149,130.59 150,195.88 151,282.94 152,326.47 153,228.53 154,282.94 155,250.29 156,293.82 157,293.82 158,239.41 159,174.12 160,228.53 161,206.76 162,315.59 163,239.41 164,206.76 165,250.29 166,304.71 167,315.59 168,293.82 169,250.29 170,315.59 171,326.47 171.58,370"><title>LR761635.1</title></polygon><rect class="average" height="1" width="171.58" x="0" y="208.07"><title>average:14.88</title></rect><rect class="median" height="1" width="171.58" x="0" y="272.06"><title>median:9</title></rect><text class="chromName" x="85.79" y="-12">LR761635.1<title>LR761635.1 73,222,313 bp</title></text><rect class="frame" height="370" width="171.58" x="0" y="0"/></g><g id="chrom-LR761636.1" transform="translate(314.2938403401308,0)"><polygon class="cov0" points="0,370 0,337.35 1,141.47 2,250.29 3,326.47 4,261.18 5,141.47 6,152.35 7,152.35 8,119.71 9,141.47 10,108.82 11,108.82 12,130.59 13,163.24 14,108.82 15,130.59 16,119.71 17,119.71 18,130.59 20,130.59 21,119.71 22,119.71 23,130.59 24,185 25,119.71 26,163.24 27,239.41 28,130.59 29,119.71 30,141.47 31,130.59 33,130.59 34,152.35 35,185 36,141.47 37,174.12 38,152.35 39,141.47 40,163.24 41,163.24 42,185 43,163.24 44,152.35 45,152.35 46,185 47,152.35 48,239.41 49,152.35 50,163.24 51,130.59 52,141.47 53,141.47 54,228.53 55,185 56,163.24 57,141.47 58,163.24 59,141.47 60,174.12 61,228.53 62,163.24 63,152.35 64,152.35 65,163.24 66,152.35 67,163.24 68,174.12 69,163.24 70,174.12 71,130.59 72,141.47 73,163.24 74,174.12 75,163.24 76,326.47 77,228.53 78,228.53 79,272.06 80,261.18 81,152.35 82,206.76 83,152.35 84,130.59 85,152.35 86,282.94 87,163.24 88,152.35 89,217.65 90,152.35 91,141.47 92,195.88 93,152.35 94,152.35 95,185 96,206.76 97,141.47 98,141.47 99,174.12 100,152.35 101,119.71 102,163.24 103,119.71 104,141.47 105,152.35 107,152.35 108,141.47 110,141.47 111,185 112,163.24 113,163.24 114,141.47 115,141.47 116,130.59 117,152.35 118,185 119,141.47 120,141.47 121,239.41 122,130.59 123,141.47 124,195.88 125,130.59 126,130.59 127,185 128,239.41 129,130.59 130,130.59 131,152.35 132,163.24 133,163.24 134,130.59 135,141.47 136,261.18 136.65,370"><title>LR761636.1</title></polygon><rect class="average" height="1" width="136.65" x="0" y="160.24"><title>average:19.28</title></rect><rect class="median" height="1" width="136.65" x="0" y="152.35"><title>median:20</title></rect><text class="chromName" x="68.33" y="-12">LR761636.1<title>LR761636.1 58,319,100 bp</title></text><rect class="frame" height="370" width="136.65" x="0" y="0"/></g><g id="chrom-LR761637.1" transform="translate(451.9485730949149,0)"><polygon class="cov1" points="0,370 0,348.24 1,250.29 2,293.82 3,272.06 4,217.65 5,163.24 6,206.76 7,250.29 8,228.53 9,304.71 10,272.06 11,185 12,250.29 13,261.18 14,250.29 15,174.12 16,228.53 17,119.71 18,239.41 19,239.41 20,206.76 21,141.47 22,141.47 23,217.65 24,337.35 25,152.35 26,141.47 27,206.76 28,185 29,217.65 30,261.18 31,141.47 32,141.47 33,195.88 34,130.59 35,195.88 36,315.59 37,239.41 38,163.24 39,152.35 40,152.35 41,272.06 42,195.88 43,250.29 44,326.47 45,174.12 46,163.24 47,163.24 48,141.47 49,141.47 50,195.88 51,152.35 52,119.71 53,174.12 54,130.59 55,152.35 56,163.24 57,228.53 58,282.94 59,304.71 60,315.59 61,239.41 62,152.35 64,152.35 65,163.24 67,163.24 68,185 69,141.47 70,174.12 71,163.24 72,195.88 73,141.47 74,185 75,163.24 76,152.35 77,174.12 81,174.12 82,141.47 83,152.35 84,163.24 85,141.47 86,239.41 87,174.12 88,130.59 89,152.35 90,130.59 91,141.47 92,130.59 93,152.35 94,217.65 95,217.65 96,174.12 97,141.47 98,119.71 99,130.59 100,239.41 101,272.06 102,272.06 103,293.82 104,304.71 105,163.24 106,130.59 107,119.71 111,119.71 112,141.47 113,119.71 114,337.35 115,228.53 116,174.12 117,152.35 118,152.35 119,293.82 120,163.24 121,119.71 122,315.59 123,337.35 124,304.71 124.49,370"><title>LR761637.1</title></polygon><rect class="average" height="1" width="124.49" x="0" y="181.66"><title>average:17.31</title></rect><rect class="median" height="1" width="124.49" x="0" y="185"><title>median:17</title></rect><text class="chromName" x="62.25" y="-12">LR761637.1<title>LR761637.1 53,127,865 bp</title></text><rect class="frame" height="370" width="124.49" x="0" y="0"/></g><g id="chrom-LR761638.1" transform="translate(577.4390778079033,0)"><polygon class="cov0" points="0,370 0,195.88 1,108.82 2,315.59 3,130.59 4,250.29 5,152.35 6,195.88 7,195.88 8,185 9,119.71 10,163.24 11,304.71 12,130.59 13,152.35 14,108.82 15,152.35 16,119.71 17,119.71 18,261.18 19,293.82 20,141.47 21,206.76 22,130.59 23,130.59 24,119.71 25,152.35 26,315.59 27,130.59 28,185 29,337.35 30,250.29 31,152.35 32,348.24 33,348.24 34,195.88 35,206.76 36,163.24 37,315.59 38,282.94 39,315.59 40,337.35 41,304.71 42,217.65 43,130.59 44,141.47 45,282.94 46,163.24 47,119.71 48,119.71 49,185 50,272.06 51,217.65 52,152.35 53,152.35 54,206.76 55,206.76 56,152.35 57,228.53 58,141.47 59,185 60,217.65 61,250.29 62,152.35 63,304.71 64,337.35 65,326.47 66,206.76 67,217.65 68,185 69,315.59 70,174.12 71,337.35 72,337.35 73,282.94 74,250.29 75,315.59 76,326.47 77,195.88 78,282.94 79,239.41 80,239.41 81,185 82,293.82 83,337.35 84,293.82 85,206.76 86,152.35 87,174.12 88,315.59 89,141.47 90,293.82 91,152.35 92,119.71 93,130.59 94,152.35 95,228.53 96,293.82 97,152.35 98,304.71 99,195.88 100,206.76 101,174.12 102,261.18 103,174.12 104,250.29 105,282.94 106,217.65 107,185 108,272.06 109,174.12 110,217.65 111,195.88 112,293.82 113,239.41 114,304.71 115,304.71 116,293.82 117,337.35 118,326.47 119,304.71 120,282.94 121,348.24 122,359.12 123,370 124,304.71 125,293.82 126,337.35 127,304.71 128,348.24 129,282.94 130,315.59 131,315.59 132,282.94 133,348.24 134,250.29 135,304.71 136,152.35 137,359.12 138,348.24 139,272.06 140,337.35 141,337.35 142,348.24 143,315.59 144,152.35 145,163.24 146,239.41 147,130.59 148,163.24 149,141.47 150,174.12 151,272.06 152,174.12 153,152.35 154,239.41 155,282.94 156,206.76 157,261.18 158,293.82 159,293.82 160,282.94 161,282.94 162,272.06 163,282.94 164,250.29 165,359.12 166,348.24 167,326.47 168,304.71 169,228.53 170,359.12 171,337.35 172,348.24 172.35,370"><title>LR761638.1</title></polygon><rect class="average" height="1" width="172.35" x="0" y="207.22"><title>average:14.96</title></rect><rect class="median" height="1" width="172.35" x="0" y="250.29"><title>median:11</title></rect><text class="chromName" x="86.17" y="-12">LR761638.1<title>LR761638.1 73,550,375 bp</title></text><rect class="frame" height="370" width="172.35" x="0" y="0"/></g><g id="chrom-LR761639.1" transform="translate(750.784104388203,0)"><polygon class="cov1" points="0,370 0,315.59 1,152.35 2,152.35 3,261.18 4,141.47 5,239.41 6,359.12 7,228.53 8,141.47 9,130.59 10,163.24 11,250.29 12,250.29 13,141.47 14,163.24 15,141.47 18,141.47 19,130.59 20,130.59 21,152.35 22,163.24 23,174.12 24,174.12 25,206.76 26,174.12 27,315.59 28,348.24 29,239.41 30,304.71 31,130.59 32,152.35 33,141.47 34,185 35,185 36,239.41 37,152.35 38,152.35 39,141.47 40,195.88 41,130.59 42,163.24 43,119.71 44,152.35 45,130.59 46,174.12 47,152.35 48,152.35 49,174.12 50,163.24 51,152.35 52,174.12 53,163.24 54,163.24 55,152.35 56,152.35 57,163.24 58,152.35 60,152.35 61,141.47 62,152.35 63,152.35 64,130.59 65,141.47 66,185 67,152.35 68,152.35 69,206.76 70,163.24 72,163.24 73,152.35 74,217.65 75,152.35 76,152.35 77,163.24 78,141.47 79,152.35 80,152.35 81,141.47 82,152.35 83,152.35 84,206.76 85,152.35 86,141.47 87,152.35 88,141.47 89,152.35 90,130.59 91,152.35 92,152.35 93,185 94,174.12 95,152.35 96,152.35 97,141.47 98,141.47 99,152.35 100,152.35 101,141.47 102,152.35 103,152.35 104,130.59 105,141.47 106,250.29 107,152.35 108,130.59 109,141.47 110,141.47 111,326.47 112,185 113,130.59 114,185 115,130.59 116,152.35 117,141.47 118,141.47 119,130.59 120,152.35 121,130.59 123,130.59 124,163.24 125,130.59 126,119.71 127,130.59 128,152.35 129,130.59 130,174.12 131,141.47 132,185 133,326.47 134,108.82 135,163.24 136,163.24 137,141.47 138,206.76 139,185 140,315.59 140.95,370"><title>LR761639.1</title></polygon><rect class="average" height="1" width="140.95" x="0" y="165.61"><title>average:18.78</title></rect><rect class="median" height="1" width="140.95" x="0" y="163.24"><title>median:19</title></rect><text class="chromName" x="70.47" y="-12">LR761639.1<title>LR761639.1 60,151,564 bp</title></text><rect class="frame" height="370" width="140.95" x="0" y="0"/></g><g id="chrom-LR761640.1" transform="translate(892.7327113317651,0)"><polygon class="cov0" points="0,370 0,174.12 1,119.71 2,206.76 3,174.12 4,163.24 5,119.71 6,195.88 7,185 8,130.59 9,174.12 10,119.71 11,152.35 12,119.71 13,250.29 14,174.12 15,152.35 16,250.29 17,141.47 18,130.59 19,185 20,130.59 21,152.35 22,130.59 23,130.59 24,152.35 25,174.12 26,141.47 27,152.35 28,163.24 29,152.35 30,152.35 31,174.12 32,152.35 33,141.47 34,163.24 35,152.35 36,152.35 37,217.65 38,130.59 39,185 40,130.59 41,141.47 42,130.59 43,130.59 44,141.47 45,152.35 46,130.59 47,250.29 48,304.71 49,130.59 50,174.12 51,152.35 52,141.47 53,152.35 54,141.47 55,152.35 56,152.35 57,206.76 58,163.24 59,195.88 60,228.53 61,141.47 62,174.12 63,185 64,152.35 65,272.06 66,152.35 67,152.35 68,174.12 69,206.76 70,195.88 71,152.35 72,185 73,206.76 74,185 75,152.35 76,152.35 77,228.53 78,152.35 79,185 80,130.59 81,119.71 82,141.47 83,152.35 85,152.35 86,348.24 87,163.24 88,174.12 89,174.12 90,163.24 91,272.06 92,282.94 93,206.76 94,272.06 95,152.35 97,152.35 98,163.24 99,163.24 100,141.47 101,217.65 102,326.47 103,250.29 104,152.35 105,141.47 106,141.47 107,174.12 108,185 109,152.35 110,174.12 111,206.76 112,163.24 113,163.24 114,152.35 115,141.47 116,228.53 117,272.06 118,282.94 119,272.06 120,152.35 121,130.59 122,141.47 123,152.35 124,152.35 125,141.47 127,141.47 128,261.18 129,163.24 130,141.47 131,130.59 132,163.24 133,141.47 134,119.71 135,119.71 136,141.47 137,141.47 138,130.59 139,185 140,141.47 141,119.71 142,152.35 143,152.35 144,130.59 145,119.71 145.53,370"><title>LR761640.1</title></polygon><rect class="average" height="1" width="145.53" x="0" y="166.22"><title>average:18.73</title></rect><rect class="median" height="1" width="145.53" x="0" y="163.24"><title>median:19</title></rect><text class="chromName" x="72.77" y="-12">LR761640.1<title>LR761640.1 62,107,823 bp</title></text><rect class="frame" height="370" width="145.53" x="0" y="0"/></g><g id="chrom-LR761641.1" transform="translate(1039.265271917344,0)"><polygon class="cov1" points="0,370 0,293.82 1,152.35 2,250.29 3,185 4,163.24 5,217.65 6,272.06 7,250.29 8,261.18 9,185 10,152.35 11,217.65 12,228.53 13,119.71 14,174.12 15,130.59 16,141.47 17,348.24 18,141.47 19,130.59 20,141.47 21,174.12 22,228.53 23,163.24 24,152.35 25,141.47 26,228.53 27,217.65 28,250.29 29,326.47 30,228.53 31,206.76 32,250.29 33,185 34,261.18 35,282.94 36,348.24 37,282.94 38,272.06 39,272.06 40,185 41,304.71 42,304.71 43,348.24 44,239.41 45,239.41 46,250.29 47,293.82 48,217.65 49,152.35 50,185 51,152.35 52,130.59 53,119.71 54,130.59 55,119.71 56,130.59 57,163.24 58,174.12 59,174.12 60,141.47 61,304.71 62,152.35 63,174.12 64,195.88 65,206.76 66,195.88 67,250.29 68,239.41 69,152.35 70,282.94 71,130.59 72,195.88 73,261.18 74,195.88 75,326.47 76,152.35 78,152.35 79,206.76 80,261.18 81,359.12 82,315.59 83,228.53 84,141.47 85,152.35 86,228.53 87,119.71 88,174.12 89,174.12 90,272.06 91,250.29 92,119.71 93,239.41 94,272.06 95,195.88 96,152.35 97,359.12 98,130.59 99,370 100,293.82 101,119.71 102,163.24 103,119.71 104,185 105,130.59 106,228.53 107,130.59 108,141.47 109,130.59 110,130.59 111,293.82 112,108.82 113,250.29 114,141.47 115,174.12 116,119.71 117,163.24 118,130.59 119,217.65 120,195.88 121,152.35 122,174.12 123,206.76 124,152.35 125,228.53 126,250.29 127,119.71 128,282.94 129,163.24 130,261.18 131,185 132,337.35 133,261.18 134,141.47 135,348.24 136,337.35 136.99,370"><title>LR761641.1</title></polygon><rect class="average" height="1" width="136.99" x="0" y="183.35"><title>average:17.15</title></rect><rect class="median" height="1" width="136.99" x="0" y="206.76"><title>median:15</title></rect><text class="chromName" x="68.5" y="-12">LR761641.1<title>LR761641.1 58,462,999 bp</title></text><rect class="frame" height="370" width="136.99" x="0" y="0"/></g><g id="chrom-LR761642.1" transform="translate(1177.25719230686,0)"><polygon class="cov0" points="0,370 0,315.59 1,326.47 2,326.47 3,304.71 4,337.35 5,359.12 6,326.47 7,337.35 8,348.24 9,293.82 10,250.29 11,228.53 12,250.29 13,130.59 14,174.12 15,185 16,261.18 17,206.76 18,293.82 19,250.29 20,195.88 21,163.24 22,293.82 23,250.29 24,152.35 25,130.59 26,195.88 27,152.35 28,282.94 29,152.35 30,228.53 31,141.47 32,152.35 33,185 34,174.12 35,315.59 36,141.47 37,141.47 38,108.82 39,195.88 40,141.47 41,163.24 42,130.59 43,141.47 44,152.35 45,174.12 46,141.47 47,261.18 48,261.18 49,293.82 50,195.88 51,174.12 52,206.76 53,119.71 54,130.59 55,217.65 56,163.24 57,185 58,239.41 59,174.12 60,141.47 61,326.47 62,217.65 63,141.47 64,174.12 65,141.47 66,152.35 67,326.47 68,195.88 69,130.59 70,141.47 71,261.18 72,152.35 73,217.65 74,130.59 75,174.12 76,315.59 77,141.47 78,130.59 79,272.06 80,250.29 81,163.24 82,326.47 83,239.41 84,293.82 85,217.65 86,272.06 86.91,370"><title>LR761642.1</title></polygon><rect class="average" height="1" width="86.91" x="0" y="181.3"><title>average:17.34</title></rect><rect class="median" height="1" width="86.91" x="0" y="206.76"><title>median:15</title></rect><text class="chromName" x="43.45" y="-12">LR761642.1<title>LR761642.1 37,089,910 bp</title></text><rect class="frame" height="370" width="86.91" x="0" y="0"/></g><g id="chrom-LR761643.1" transform="translate(1265.1671710093603,0)"><polygon class="cov1" points="0,370 0,282.94 1,228.53 2,141.47 3,119.71 4,152.35 5,206.76 6,163.24 7,174.12 8,141.47 9,130.59 10,141.47 11,163.24 12,141.47 13,195.88 14,239.41 15,152.35 16,130.59 17,152.35 18,163.24 19,163.24 20,337.35 21,163.24 22,141.47 23,141.47 24,174.12 25,185 26,359.12 27,304.71 28,304.71 29,141.47 30,185 31,163.24 32,239.41 33,152.35 34,185 35,217.65 36,261.18 37,152.35 38,163.24 39,152.35 40,152.35 41,174.12 42,228.53 43,272.06 44,163.24 45,185 46,130.59 47,250.29 48,174.12 49,163.24 50,185 51,152.35 52,152.35 53,163.24 54,174.12 55,152.35 57,152.35 58,206.76 59,130.59 60,119.71 61,141.47 62,174.12 63,152.35 64,174.12 65,195.88 66,174.12 67,174.12 68,152.35 69,163.24 70,185 71,195.88 72,195.88 73,217.65 74,141.47 75,206.76 76,152.35 77,141.47 78,206.76 79,272.06 80,152.35 81,141.47 82,152.35 84,152.35 85,141.47 86,163.24 87,141.47 88,185 89,326.47 90,185 91,141.47 92,141.47 93,174.12 94,141.47 95,163.24 96,130.59 97,141.47 99,141.47 100,152.35 101,239.41 102,152.35 103,163.24 105,163.24 106,141.47 107,130.59 108,174.12 109,130.59 110,141.47 112,141.47 113,239.41 114,163.24 115,152.35 116,119.71 117,130.59 118,141.47 119,163.24 120,141.47 121,130.59 122,141.47 123,130.59 124,141.47 125,130.59 126,119.71 127,185 128,174.12 129,119.71 130,152.35 131,217.65 132,119.71 133,239.41 134,304.71 134.83,370"><title>LR761643.1</title></polygon><rect class="average" height="1" width="134.83" x="0" y="170.24"><title>average:18.36</title></rect><rect class="median" height="1" width="134.83" x="0" y="163.24"><title>median:19</title></rect><text class="chromName" x="67.42" y="-12">LR761643.1<title>LR761643.1 57,541,580 bp</title></text><rect class="frame" height="370" width="134.83" x="0" y="0"/></g><g><line class="ruler" x1="-2" x2="1390" y1="333" y2="333"><title>3</title></line><text class="ruler" x="-5" y="333">3</text><line class="ruler" x1="-2" x2="1390" y1="296" y2="296"><title>6</title></line><text class="ruler" x="-5" y="296">6</text><line class="ruler" x1="-2" x2="1390" y1="259" y2="259"><title>10</title></line><text class="ruler" x="-5" y="259">10</text><line class="ruler" x1="-2" x2="1390" y1="222" y2="222"><title>13</title></line><text class="ruler" x="-5" y="222">13</text><line class="ruler" x1="-2" x2="1390" y1="185" y2="185"><title>17</title></line><text class="ruler" x="-5" y="185">17</text><line class="ruler" x1="-2" x2="1390" y1="148" y2="148"><title>20</title></line><text class="ruler" x="-5" y="148">20</text><line class="ruler" x1="-2" x2="1390" y1="111" y2="111"><title>23</title></line><text class="ruler" x="-5" y="111">23</text><line class="ruler" x1="-2" x2="1390" y1="74" y2="74"><title>27</title></line><text class="ruler" x="-5" y="74">27</text><line class="ruler" x1="-2" x2="1390" y1="37" y2="37"><title>30</title></line><text class="ruler" x="-5" y="37">30</text><line class="ruler" x1="-2" x2="1390" y1="0" y2="0"><title>34</title></line><text class="ruler" x="-5" y="0">34</text></g></g><text class="title" x="795" y="40">F15_M13_24.merged.realigned.bam F15_M13_24 F15_M13_24_1 F15_M13_24_2<title>./F15_M13_24.merged.realigned.bam</title></text><text class="xLabel" x="795" y="475">GCA_902806645.1_cgigas_uk_roslin_v1_genomic.fna  (589,358,857 bp)<title>../ref/GCA_902806645.1_cgigas_uk_roslin_v1_genomic.fna</title></text><text class="yLabel" transform="translate(25,265) rotate(90)" x="0" y="0">Coverage bp (median)</text></g></svg>