<?xml version="1.0" encoding="UTF-8" standalone="no"?><svg height="500" width="1500" xmlns="http://www.w3.org/2000/svg"><title>F1_M2_24.merged.realigned.bam</title><desc>Made with wgscoverageplotter undefined Author: Pierre Lindenbaum</desc><style>g.maing {stroke:black;stroke-width:0.5px;fill:none;}
text.title {stroke:none;fill:black;stroke-width:1px;text-anchor:middle;}
rect.frame {stroke:darkgray;fill:none;stroke-width:0.5px;}
text.ruler {stroke:none;fill:darkgray;stroke-width:1px;text-anchor:end;}
text.chromName {stroke:none;fill:darkgray;stroke-width:1px;text-anchor:middle;}
text.xLabel {stroke:none;fill:black;stroke-width:1px;text-anchor:middle;}
text.yLabel {stroke:none;fill:black;stroke-width:1px;text-anchor:middle;}
.cov0 {stroke:gray;fill:antiquewhite;stroke-width:0.5px;}
.cov1 {stroke:gray;fill:beige;stroke-width:0.5px;}
rect.average {stroke:green;fill:green;stroke-width:0.5px;opacity:0.3;}
rect.median {stroke:red;fill:red;stroke-width:0.5px;opacity:0.3;}
line.ruler {stroke:darkgray;stroke-dasharray:4;fill:none;stroke-width:1;}
</style><g class="maing"><g id="chromosomes" transform="translate(100.0,80.0)"><g id="chrom-LR761634.1" transform="translate(10.0,0)"><polygon class="cov0" points="0,370 0,319.55 1,151.36 2,151.36 3,285.91 4,235.45 5,151.36 6,302.73 7,201.82 8,151.36 9,117.73 10,151.36 11,100.91 12,151.36 13,235.45 14,185 15,134.55 16,117.73 17,185 18,151.36 19,134.55 20,117.73 21,134.55 22,151.36 23,168.18 24,151.36 25,117.73 26,117.73 27,134.55 31,134.55 32,252.27 33,134.55 34,134.55 35,151.36 36,117.73 37,185 38,201.82 39,151.36 40,134.55 41,117.73 42,134.55 43,185 44,168.18 45,218.64 46,168.18 47,134.55 48,151.36 49,134.55 50,151.36 51,151.36 52,134.55 53,134.55 54,235.45 55,269.09 56,117.73 57,100.91 58,117.73 59,151.36 60,151.36 61,117.73 62,151.36 63,168.18 64,201.82 65,168.18 66,134.55 67,185 68,117.73 69,201.82 70,134.55 71,134.55 72,218.64 73,168.18 74,151.36 75,134.55 76,134.55 77,185 78,168.18 79,134.55 80,269.09 81,269.09 82,117.73 83,134.55 84,151.36 85,134.55 86,117.73 87,185 88,117.73 89,252.27 90,151.36 91,151.36 92,134.55 93,151.36 94,117.73 95,117.73 96,100.91 97,185 98,252.27 99,134.55 100,134.55 101,168.18 102,151.36 103,151.36 104,201.82 105,117.73 106,218.64 107,185 108,269.09 109,100.91 110,100.91 111,134.55 112,117.73 113,185 114,319.55 115,185 116,100.91 117,117.73 118,100.91 119,151.36 120,185 121,134.55 122,134.55 123,117.73 124,134.55 125,117.73 126,134.55 127,134.55 128,201.82 129,168.18 130,218.64 130.72,370"><title>LR761634.1</title></polygon><rect class="average" height="1" width="130.72" x="0" y="152.01"><title>average:12.96</title></rect><rect class="median" height="1" width="130.72" x="0" y="151.36"><title>median:13</title></rect><text class="chromName" x="65.36" y="-12">LR761634.1<title>LR761634.1 55,785,328 bp</title></text><rect class="frame" height="370" width="130.72" x="0" y="0"/></g><g id="chrom-LR761635.1" transform="translate(141.71753661284166,0)"><polygon class="cov1" points="0,370 0,353.18 1,353.18 2,319.55 3,252.27 4,336.36 5,370 6,252.27 7,285.91 8,319.55 9,185 10,151.36 11,252.27 12,235.45 13,168.18 14,218.64 15,302.73 16,336.36 17,269.09 18,235.45 19,252.27 20,235.45 21,252.27 22,269.09 23,168.18 24,302.73 25,336.36 27,336.36 28,252.27 29,353.18 31,353.18 32,285.91 33,252.27 34,201.82 35,218.64 36,218.64 37,302.73 38,319.55 39,168.18 40,185 41,201.82 42,168.18 43,218.64 44,134.55 45,151.36 46,185 47,134.55 48,235.45 49,168.18 50,201.82 51,269.09 52,201.82 53,252.27 54,319.55 55,252.27 56,285.91 57,285.91 58,151.36 59,285.91 60,336.36 61,285.91 62,151.36 63,285.91 65,285.91 66,269.09 67,302.73 68,252.27 69,252.27 70,285.91 71,201.82 72,252.27 73,218.64 74,252.27 75,168.18 76,285.91 77,0 78,185 79,252.27 80,117.73 81,218.64 83,218.64 84,269.09 85,269.09 86,285.91 89,285.91 90,269.09 91,353.18 92,319.55 93,302.73 94,302.73 95,319.55 96,353.18 97,302.73 98,319.55 101,319.55 102,336.36 103,235.45 104,168.18 105,151.36 106,269.09 107,285.91 108,185 109,168.18 110,302.73 111,185 112,336.36 113,319.55 114,302.73 115,252.27 116,235.45 117,218.64 118,151.36 119,168.18 120,117.73 121,168.18 122,201.82 123,235.45 124,269.09 125,134.55 126,218.64 127,252.27 128,185 129,168.18 130,151.36 131,285.91 132,185 133,285.91 134,302.73 135,269.09 136,302.73 137,302.73 138,319.55 139,302.73 140,336.36 141,302.73 143,302.73 144,252.27 145,235.45 146,252.27 147,134.55 148,168.18 149,134.55 150,235.45 151,252.27 152,319.55 153,201.82 154,302.73 155,218.64 156,252.27 157,235.45 158,252.27 159,151.36 160,218.64 161,235.45 162,285.91 163,185 164,218.64 165,235.45 166,302.73 167,319.55 168,319.55 169,269.09 170,336.36 171,336.36 171.58,370"><title>LR761635.1</title></polygon><rect class="average" height="1" width="171.58" x="0" y="199.81"><title>average:10.12</title></rect><rect class="median" height="1" width="171.58" x="0" y="252.27"><title>median:7</title></rect><text class="chromName" x="85.79" y="-12">LR761635.1<title>LR761635.1 73,222,313 bp</title></text><rect class="frame" height="370" width="171.58" x="0" y="0"/></g><g id="chrom-LR761636.1" transform="translate(314.2938403401308,0)"><polygon class="cov0" points="0,370 0,336.36 1,151.36 2,285.91 3,336.36 4,235.45 5,134.55 6,151.36 7,168.18 8,117.73 9,134.55 10,100.91 11,134.55 12,134.55 13,201.82 14,100.91 15,117.73 16,117.73 17,100.91 18,151.36 19,117.73 23,117.73 24,185 25,100.91 26,185 27,269.09 28,117.73 29,100.91 30,117.73 31,100.91 32,117.73 33,117.73 34,134.55 35,185 36,134.55 37,151.36 38,134.55 40,134.55 41,151.36 42,168.18 43,151.36 44,134.55 45,151.36 46,168.18 47,117.73 48,185 49,151.36 50,168.18 51,117.73 52,134.55 53,134.55 54,285.91 55,168.18 56,151.36 57,117.73 58,134.55 59,117.73 60,151.36 61,218.64 62,151.36 63,134.55 64,117.73 65,151.36 66,134.55 67,151.36 68,151.36 69,134.55 70,151.36 71,100.91 72,117.73 73,134.55 74,151.36 75,151.36 76,336.36 77,218.64 78,235.45 79,252.27 80,269.09 81,134.55 82,218.64 83,151.36 84,117.73 85,134.55 86,302.73 87,151.36 88,134.55 89,201.82 90,151.36 91,117.73 92,201.82 93,151.36 94,134.55 95,168.18 96,201.82 97,134.55 98,134.55 99,168.18 100,151.36 101,117.73 102,134.55 103,100.91 104,134.55 106,134.55 107,117.73 108,117.73 109,134.55 110,117.73 111,151.36 112,151.36 113,168.18 114,117.73 116,117.73 117,134.55 118,168.18 119,134.55 120,134.55 121,201.82 122,117.73 123,117.73 124,185 125,117.73 126,117.73 127,201.82 128,218.64 129,117.73 130,134.55 131,168.18 132,151.36 133,151.36 134,117.73 135,134.55 136,336.36 136.65,370"><title>LR761636.1</title></polygon><rect class="average" height="1" width="136.65" x="0" y="147.48"><title>average:13.23</title></rect><rect class="median" height="1" width="136.65" x="0" y="151.36"><title>median:13</title></rect><text class="chromName" x="68.33" y="-12">LR761636.1<title>LR761636.1 58,319,100 bp</title></text><rect class="frame" height="370" width="136.65" x="0" y="0"/></g><g id="chrom-LR761637.1" transform="translate(451.9485730949149,0)"><polygon class="cov1" points="0,370 0,353.18 1,285.91 2,336.36 3,269.09 4,201.82 5,168.18 6,168.18 7,269.09 8,235.45 9,302.73 10,302.73 11,185 12,218.64 13,269.09 14,269.09 15,168.18 16,185 17,117.73 18,285.91 19,302.73 20,185 21,151.36 22,151.36 23,252.27 24,302.73 25,134.55 26,134.55 27,218.64 28,201.82 29,235.45 30,269.09 31,134.55 32,134.55 33,151.36 34,117.73 35,185 36,302.73 37,285.91 38,151.36 39,151.36 40,134.55 41,285.91 42,201.82 43,285.91 44,319.55 45,185 46,151.36 47,134.55 49,134.55 50,168.18 51,134.55 52,100.91 53,168.18 54,117.73 55,134.55 56,151.36 57,218.64 58,269.09 59,285.91 60,302.73 61,218.64 62,134.55 64,134.55 65,151.36 66,134.55 67,134.55 68,185 69,134.55 70,151.36 71,134.55 72,168.18 73,117.73 74,185 75,151.36 76,134.55 78,134.55 79,185 80,168.18 81,151.36 82,134.55 83,134.55 84,151.36 85,117.73 86,218.64 87,168.18 88,117.73 89,134.55 90,117.73 91,134.55 92,117.73 93,218.64 94,185 95,201.82 96,168.18 97,134.55 98,100.91 99,117.73 100,218.64 101,269.09 102,252.27 103,269.09 104,269.09 105,252.27 106,117.73 107,100.91 109,100.91 110,84.09 111,151.36 112,134.55 113,100.91 114,285.91 115,185 116,168.18 117,168.18 118,134.55 119,285.91 120,168.18 121,117.73 122,285.91 123,336.36 124,285.91 124.49,370"><title>LR761637.1</title></polygon><rect class="average" height="1" width="124.49" x="0" y="168.9"><title>average:11.96</title></rect><rect class="median" height="1" width="124.49" x="0" y="185"><title>median:11</title></rect><text class="chromName" x="62.25" y="-12">LR761637.1<title>LR761637.1 53,127,865 bp</title></text><rect class="frame" height="370" width="124.49" x="0" y="0"/></g><g id="chrom-LR761638.1" transform="translate(577.4390778079033,0)"><polygon class="cov0" points="0,370 0,168.18 1,67.27 2,319.55 3,134.55 4,218.64 5,151.36 6,185 8,185 9,117.73 10,168.18 11,269.09 12,134.55 13,168.18 14,100.91 15,151.36 16,100.91 17,117.73 18,252.27 19,336.36 20,117.73 21,201.82 22,134.55 23,117.73 24,117.73 25,168.18 26,302.73 27,117.73 28,185 29,319.55 30,269.09 31,151.36 32,353.18 33,336.36 34,185 35,235.45 36,168.18 37,336.36 38,285.91 39,336.36 40,336.36 41,319.55 42,269.09 43,151.36 44,151.36 45,302.73 46,201.82 47,100.91 48,117.73 49,218.64 50,285.91 51,218.64 52,168.18 53,168.18 54,235.45 55,235.45 56,134.55 57,252.27 58,151.36 59,168.18 60,151.36 61,201.82 62,151.36 63,336.36 65,336.36 66,185 67,201.82 68,151.36 69,252.27 70,168.18 71,336.36 72,353.18 73,302.73 74,252.27 75,336.36 76,336.36 77,218.64 78,336.36 79,319.55 80,319.55 81,168.18 82,252.27 83,336.36 84,285.91 85,185 86,117.73 87,168.18 88,319.55 89,134.55 90,285.91 91,134.55 92,100.91 93,117.73 94,134.55 95,201.82 96,269.09 97,117.73 98,269.09 99,185 100,151.36 101,134.55 102,218.64 103,168.18 104,218.64 105,252.27 106,235.45 107,168.18 108,201.82 109,201.82 110,218.64 111,185 112,285.91 113,235.45 114,269.09 115,269.09 116,319.55 117,302.73 118,302.73 119,285.91 120,285.91 121,353.18 123,353.18 124,302.73 125,319.55 126,336.36 127,252.27 128,269.09 129,218.64 130,252.27 131,235.45 132,285.91 133,336.36 134,252.27 135,302.73 136,168.18 137,370 138,353.18 139,285.91 140,353.18 141,353.18 142,319.55 143,252.27 144,151.36 145,185 146,269.09 147,134.55 148,151.36 149,168.18 150,185 151,218.64 152,134.55 153,134.55 154,235.45 155,285.91 156,218.64 157,269.09 158,302.73 159,235.45 160,269.09 161,252.27 162,218.64 163,185 164,218.64 165,235.45 166,269.09 167,252.27 168,252.27 169,168.18 170,269.09 171,285.91 172,269.09 172.35,370"><title>LR761638.1</title></polygon><rect class="average" height="1" width="172.35" x="0" y="195.16"><title>average:10.4</title></rect><rect class="median" height="1" width="172.35" x="0" y="235.45"><title>median:8</title></rect><text class="chromName" x="86.17" y="-12">LR761638.1<title>LR761638.1 73,550,375 bp</title></text><rect class="frame" height="370" width="172.35" x="0" y="0"/></g><g id="chrom-LR761639.1" transform="translate(750.784104388203,0)"><polygon class="cov1" points="0,370 0,285.91 1,151.36 2,117.73 3,235.45 4,134.55 5,201.82 6,370 7,218.64 8,134.55 9,117.73 10,134.55 11,235.45 12,269.09 13,117.73 14,151.36 15,134.55 16,117.73 17,117.73 18,134.55 19,117.73 20,117.73 21,134.55 22,151.36 23,151.36 24,185 25,201.82 26,168.18 27,302.73 28,285.91 29,201.82 30,285.91 31,134.55 32,117.73 33,117.73 34,185 35,201.82 36,218.64 37,134.55 39,134.55 40,218.64 41,117.73 42,134.55 43,100.91 44,151.36 45,117.73 46,151.36 47,134.55 48,134.55 49,151.36 50,151.36 51,134.55 52,168.18 53,151.36 54,151.36 55,134.55 62,134.55 63,151.36 64,117.73 65,134.55 66,168.18 67,134.55 68,134.55 69,201.82 70,134.55 71,134.55 72,151.36 73,134.55 74,269.09 75,134.55 79,134.55 80,168.18 81,117.73 82,134.55 83,134.55 84,201.82 85,151.36 86,117.73 87,134.55 89,134.55 90,117.73 91,151.36 92,134.55 93,168.18 94,151.36 95,134.55 96,151.36 97,134.55 98,117.73 99,134.55 103,134.55 104,117.73 105,117.73 106,235.45 107,134.55 108,117.73 109,134.55 110,134.55 111,302.73 112,185 113,117.73 114,168.18 115,117.73 116,151.36 117,134.55 118,134.55 119,117.73 120,168.18 121,117.73 123,117.73 124,151.36 125,134.55 126,117.73 127,134.55 128,134.55 129,117.73 130,185 131,151.36 132,168.18 133,319.55 134,117.73 135,151.36 136,168.18 137,151.36 138,201.82 139,168.18 140,235.45 140.95,370"><title>LR761639.1</title></polygon><rect class="average" height="1" width="140.95" x="0" y="149"><title>average:13.14</title></rect><rect class="median" height="1" width="140.95" x="0" y="151.36"><title>median:13</title></rect><text class="chromName" x="70.47" y="-12">LR761639.1<title>LR761639.1 60,151,564 bp</title></text><rect class="frame" height="370" width="140.95" x="0" y="0"/></g><g id="chrom-LR761640.1" transform="translate(892.7327113317651,0)"><polygon class="cov0" points="0,370 0,201.82 1,117.73 2,185 3,151.36 4,168.18 5,117.73 6,151.36 7,201.82 8,117.73 9,168.18 10,134.55 11,134.55 12,117.73 13,252.27 14,151.36 15,134.55 16,218.64 17,134.55 18,117.73 19,201.82 20,117.73 21,134.55 22,117.73 23,117.73 24,134.55 25,151.36 26,117.73 27,134.55 28,151.36 29,134.55 30,134.55 31,151.36 32,134.55 33,117.73 34,151.36 35,134.55 36,134.55 37,201.82 38,117.73 39,168.18 40,100.91 41,117.73 44,117.73 45,151.36 46,134.55 47,252.27 48,302.73 49,117.73 50,168.18 51,151.36 52,117.73 53,151.36 54,117.73 55,134.55 56,134.55 57,218.64 58,151.36 59,201.82 60,235.45 61,134.55 62,151.36 63,185 64,134.55 65,252.27 66,134.55 67,151.36 68,151.36 69,201.82 70,168.18 71,134.55 72,168.18 73,185 74,168.18 75,134.55 76,134.55 77,218.64 78,134.55 79,168.18 80,100.91 81,84.09 82,100.91 83,134.55 84,134.55 85,117.73 86,353.18 87,151.36 88,151.36 89,168.18 90,151.36 91,285.91 92,269.09 93,201.82 94,235.45 95,151.36 96,134.55 97,134.55 98,151.36 99,134.55 100,117.73 101,185 102,336.36 103,235.45 104,134.55 105,117.73 106,117.73 107,168.18 108,185 109,134.55 110,151.36 111,201.82 112,151.36 113,151.36 114,168.18 115,134.55 116,302.73 117,336.36 118,353.18 119,319.55 120,134.55 121,117.73 122,134.55 124,134.55 125,117.73 127,117.73 128,252.27 129,151.36 130,117.73 131,134.55 132,151.36 133,117.73 134,117.73 135,100.91 136,134.55 137,134.55 138,117.73 139,168.18 140,151.36 141,134.55 142,134.55 143,168.18 144,117.73 145,117.73 145.53,370"><title>LR761640.1</title></polygon><rect class="average" height="1" width="145.53" x="0" y="152.87"><title>average:12.91</title></rect><rect class="median" height="1" width="145.53" x="0" y="151.36"><title>median:13</title></rect><text class="chromName" x="72.77" y="-12">LR761640.1<title>LR761640.1 62,107,823 bp</title></text><rect class="frame" height="370" width="145.53" x="0" y="0"/></g><g id="chrom-LR761641.1" transform="translate(1039.265271917344,0)"><polygon class="cov1" points="0,370 0,302.73 1,151.36 2,218.64 3,201.82 4,151.36 5,201.82 6,302.73 7,252.27 8,218.64 9,185 10,134.55 11,218.64 12,235.45 13,100.91 14,218.64 15,134.55 16,151.36 17,302.73 18,134.55 19,117.73 20,134.55 21,168.18 22,201.82 23,151.36 24,185 25,134.55 26,252.27 27,235.45 28,235.45 29,252.27 30,235.45 31,185 32,252.27 33,235.45 34,285.91 35,285.91 36,336.36 37,285.91 38,269.09 39,285.91 40,168.18 41,285.91 42,252.27 43,319.55 44,235.45 45,218.64 46,252.27 47,269.09 48,285.91 49,151.36 50,168.18 51,151.36 52,117.73 56,117.73 57,168.18 58,168.18 59,185 60,134.55 61,235.45 62,168.18 63,185 65,185 66,201.82 67,235.45 68,201.82 69,134.55 70,218.64 71,117.73 72,185 73,319.55 74,201.82 75,319.55 76,185 77,185 78,168.18 79,252.27 80,269.09 81,353.18 82,353.18 83,319.55 84,185 85,134.55 86,252.27 87,117.73 88,185 89,185 90,269.09 91,252.27 92,117.73 93,285.91 94,269.09 95,168.18 96,168.18 97,319.55 98,134.55 99,370 100,302.73 101,134.55 102,151.36 103,100.91 104,185 105,117.73 106,218.64 107,117.73 108,134.55 110,134.55 111,285.91 112,134.55 113,269.09 114,134.55 115,185 116,117.73 117,151.36 118,117.73 119,201.82 120,185 121,151.36 122,168.18 123,218.64 124,134.55 125,185 126,252.27 127,100.91 128,235.45 129,151.36 130,252.27 131,134.55 132,185 133,168.18 134,84.09 135,353.18 136,252.27 136.99,370"><title>LR761641.1</title></polygon><rect class="average" height="1" width="136.99" x="0" y="175.86"><title>average:11.54</title></rect><rect class="median" height="1" width="136.99" x="0" y="201.82"><title>median:10</title></rect><text class="chromName" x="68.5" y="-12">LR761641.1<title>LR761641.1 58,462,999 bp</title></text><rect class="frame" height="370" width="136.99" x="0" y="0"/></g><g id="chrom-LR761642.1" transform="translate(1177.25719230686,0)"><polygon class="cov0" points="0,370 0,336.36 1,336.36 2,353.18 3,218.64 4,285.91 5,319.55 6,285.91 7,269.09 8,319.55 9,336.36 10,252.27 11,218.64 12,252.27 13,134.55 14,168.18 15,185 16,252.27 17,168.18 18,302.73 19,269.09 20,168.18 21,151.36 22,285.91 23,285.91 24,151.36 25,117.73 26,151.36 27,201.82 28,269.09 29,151.36 30,201.82 31,134.55 32,168.18 33,235.45 34,168.18 35,319.55 36,134.55 37,185 38,117.73 39,168.18 40,134.55 41,151.36 42,117.73 43,134.55 44,134.55 45,201.82 46,134.55 47,252.27 48,235.45 49,285.91 50,185 51,218.64 52,185 53,117.73 54,134.55 55,201.82 56,151.36 57,201.82 58,201.82 59,134.55 60,134.55 61,336.36 62,168.18 63,151.36 64,218.64 65,168.18 66,168.18 67,285.91 68,201.82 69,168.18 70,201.82 71,235.45 72,151.36 73,235.45 74,134.55 75,168.18 76,319.55 77,134.55 78,134.55 79,252.27 80,252.27 81,168.18 82,319.55 83,252.27 84,285.91 85,168.18 86,302.73 86.91,370"><title>LR761642.1</title></polygon><rect class="average" height="1" width="86.91" x="0" y="171.12"><title>average:11.83</title></rect><rect class="median" height="1" width="86.91" x="0" y="201.82"><title>median:10</title></rect><text class="chromName" x="43.45" y="-12">LR761642.1<title>LR761642.1 37,089,910 bp</title></text><rect class="frame" height="370" width="86.91" x="0" y="0"/></g><g id="chrom-LR761643.1" transform="translate(1265.1671710093603,0)"><polygon class="cov1" points="0,370 0,336.36 1,252.27 2,168.18 3,117.73 4,134.55 5,218.64 6,168.18 7,168.18 8,134.55 9,117.73 10,134.55 11,151.36 12,134.55 13,185 14,218.64 15,134.55 16,117.73 17,134.55 18,151.36 19,185 20,353.18 21,151.36 22,117.73 23,134.55 24,185 25,168.18 26,319.55 27,336.36 28,336.36 29,117.73 30,201.82 31,151.36 32,201.82 33,134.55 34,134.55 35,185 36,252.27 37,134.55 38,134.55 39,117.73 40,151.36 41,151.36 42,201.82 43,285.91 44,151.36 45,168.18 46,117.73 47,218.64 48,168.18 49,151.36 50,201.82 51,134.55 52,134.55 53,151.36 54,168.18 55,134.55 57,134.55 58,168.18 59,134.55 60,117.73 61,134.55 62,168.18 63,151.36 64,151.36 65,201.82 66,168.18 67,151.36 68,151.36 69,134.55 70,151.36 71,218.64 72,185 73,218.64 74,134.55 75,218.64 76,134.55 77,117.73 78,201.82 79,235.45 80,134.55 81,117.73 82,151.36 83,134.55 84,117.73 85,117.73 86,134.55 87,117.73 88,168.18 89,353.18 90,168.18 91,134.55 92,117.73 93,151.36 94,117.73 95,151.36 96,117.73 99,117.73 100,134.55 101,235.45 102,151.36 103,134.55 104,168.18 105,151.36 106,117.73 107,117.73 108,134.55 109,117.73 111,117.73 112,134.55 113,201.82 114,151.36 115,134.55 116,100.91 117,117.73 118,151.36 119,151.36 120,117.73 123,117.73 124,134.55 125,117.73 126,117.73 127,201.82 128,168.18 129,117.73 130,151.36 131,201.82 132,117.73 133,252.27 134,336.36 134.83,370"><title>LR761643.1</title></polygon><rect class="average" height="1" width="134.83" x="0" y="157.5"><title>average:12.64</title></rect><rect class="median" height="1" width="134.83" x="0" y="151.36"><title>median:13</title></rect><text class="chromName" x="67.42" y="-12">LR761643.1<title>LR761643.1 57,541,580 bp</title></text><rect class="frame" height="370" width="134.83" x="0" y="0"/></g><g><line class="ruler" x1="-2" x2="1390" y1="333" y2="333"><title>2</title></line><text class="ruler" x="-5" y="333">2</text><line class="ruler" x1="-2" x2="1390" y1="296" y2="296"><title>4</title></line><text class="ruler" x="-5" y="296">4</text><line class="ruler" x1="-2" x2="1390" y1="259" y2="259"><title>6</title></line><text class="ruler" x="-5" y="259">6</text><line class="ruler" x1="-2" x2="1390" y1="222" y2="222"><title>8</title></line><text class="ruler" x="-5" y="222">8</text><line class="ruler" x1="-2" x2="1390" y1="185" y2="185"><title>11</title></line><text class="ruler" x="-5" y="185">11</text><line class="ruler" x1="-2" x2="1390" y1="148" y2="148"><title>13</title></line><text class="ruler" x="-5" y="148">13</text><line class="ruler" x1="-2" x2="1390" y1="111" y2="111"><title>15</title></line><text class="ruler" x="-5" y="111">15</text><line class="ruler" x1="-2" x2="1390" y1="74" y2="74"><title>17</title></line><text class="ruler" x="-5" y="74">17</text><line class="ruler" x1="-2" x2="1390" y1="37" y2="37"><title>19</title></line><text class="ruler" x="-5" y="37">19</text><line class="ruler" x1="-2" x2="1390" y1="0" y2="0"><title>22</title></line><text class="ruler" x="-5" y="0">22</text></g></g><text class="title" x="795" y="40">F1_M2_24.merged.realigned.bam F1_M2_24 F1_M2_24_1 F1_M2_24_2<title>./F1_M2_24.merged.realigned.bam</title></text><text class="xLabel" x="795" y="475">GCA_902806645.1_cgigas_uk_roslin_v1_genomic.fna  (589,358,857 bp)<title>../ref/GCA_902806645.1_cgigas_uk_roslin_v1_genomic.fna</title></text><text class="yLabel" transform="translate(25,265) rotate(90)" x="0" y="0">Coverage bp (median)</text></g></svg>