<?xml version="1.0" encoding="UTF-8" standalone="no"?><svg height="500" width="1500" xmlns="http://www.w3.org/2000/svg"><title>F1_M1_14.merged.realigned.bam</title><desc>Made with wgscoverageplotter undefined Author: Pierre Lindenbaum</desc><style>g.maing {stroke:black;stroke-width:0.5px;fill:none;}
text.title {stroke:none;fill:black;stroke-width:1px;text-anchor:middle;}
rect.frame {stroke:darkgray;fill:none;stroke-width:0.5px;}
text.ruler {stroke:none;fill:darkgray;stroke-width:1px;text-anchor:end;}
text.chromName {stroke:none;fill:darkgray;stroke-width:1px;text-anchor:middle;}
text.xLabel {stroke:none;fill:black;stroke-width:1px;text-anchor:middle;}
text.yLabel {stroke:none;fill:black;stroke-width:1px;text-anchor:middle;}
.cov0 {stroke:gray;fill:antiquewhite;stroke-width:0.5px;}
.cov1 {stroke:gray;fill:beige;stroke-width:0.5px;}
rect.average {stroke:green;fill:green;stroke-width:0.5px;opacity:0.3;}
rect.median {stroke:red;fill:red;stroke-width:0.5px;opacity:0.3;}
line.ruler {stroke:darkgray;stroke-dasharray:4;fill:none;stroke-width:1;}
</style><g class="maing"><g id="chromosomes" transform="translate(100.0,80.0)"><g id="chrom-LR761634.1" transform="translate(10.0,0)"><polygon class="cov0" points="0,370 0,323.75 1,138.75 2,169.58 3,292.92 4,231.25 5,169.58 6,277.5 7,200.42 8,154.17 9,138.75 10,169.58 11,123.33 12,154.17 13,246.67 14,169.58 15,138.75 16,123.33 17,215.83 18,138.75 20,138.75 21,154.17 22,154.17 23,169.58 24,169.58 25,123.33 26,123.33 27,138.75 28,138.75 29,123.33 30,154.17 31,123.33 32,262.08 33,123.33 34,138.75 35,154.17 36,107.92 37,200.42 38,200.42 39,154.17 40,138.75 42,138.75 43,169.58 44,169.58 45,231.25 46,185 47,138.75 48,154.17 50,154.17 51,138.75 52,107.92 53,138.75 54,246.67 55,292.92 56,123.33 57,107.92 58,138.75 59,154.17 60,154.17 61,107.92 62,154.17 63,169.58 64,185 65,169.58 66,154.17 67,185 68,138.75 69,215.83 70,138.75 71,123.33 72,231.25 73,185 74,154.17 75,138.75 76,123.33 77,169.58 78,154.17 79,169.58 80,277.5 81,277.5 82,123.33 83,154.17 84,154.17 85,138.75 86,107.92 87,200.42 88,138.75 89,277.5 90,169.58 91,169.58 92,123.33 93,154.17 94,123.33 95,123.33 96,107.92 97,200.42 98,277.5 99,138.75 100,138.75 101,200.42 102,154.17 103,154.17 104,200.42 105,123.33 106,215.83 107,200.42 108,262.08 109,123.33 110,123.33 111,154.17 112,138.75 113,169.58 114,323.75 115,200.42 116,107.92 117,138.75 118,123.33 119,169.58 120,231.25 121,138.75 122,154.17 123,123.33 124,138.75 127,138.75 128,185 129,154.17 130,215.83 130.72,370"><title>LR761634.1</title></polygon><rect class="average" height="1" width="130.72" x="0" y="160.15"><title>average:13.61</title></rect><rect class="median" height="1" width="130.72" x="0" y="154.17"><title>median:14</title></rect><text class="chromName" x="65.36" y="-12">LR761634.1<title>LR761634.1 55,785,328 bp</title></text><rect class="frame" height="370" width="130.72" x="0" y="0"/></g><g id="chrom-LR761635.1" transform="translate(141.71753661284166,0)"><polygon class="cov1" points="0,370 0,339.17 1,354.58 2,323.75 3,262.08 4,339.17 5,370 6,262.08 7,308.33 8,323.75 9,231.25 10,246.67 11,292.92 12,215.83 13,169.58 14,231.25 15,308.33 16,339.17 17,262.08 18,262.08 19,246.67 20,277.5 22,277.5 23,215.83 24,277.5 25,339.17 26,292.92 27,323.75 28,292.92 29,354.58 30,339.17 31,292.92 32,262.08 33,231.25 34,200.42 35,231.25 36,277.5 37,323.75 38,323.75 39,185 40,169.58 41,231.25 42,185 43,215.83 44,169.58 45,169.58 46,185 47,138.75 48,231.25 49,185 50,215.83 51,262.08 52,215.83 53,277.5 54,308.33 55,246.67 56,277.5 57,277.5 58,200.42 59,308.33 60,339.17 61,277.5 62,154.17 63,292.92 64,308.33 65,277.5 66,292.92 67,308.33 68,277.5 69,231.25 70,277.5 71,246.67 72,277.5 73,246.67 74,262.08 75,215.83 76,354.58 77,0 78,246.67 79,323.75 80,138.75 81,308.33 82,323.75 83,277.5 84,339.17 85,308.33 86,354.58 87,354.58 88,339.17 89,370 90,323.75 91,354.58 92,323.75 93,262.08 94,292.92 95,277.5 96,339.17 97,277.5 98,323.75 99,277.5 100,308.33 101,308.33 102,339.17 103,246.67 104,215.83 105,138.75 106,292.92 107,308.33 108,215.83 109,185 110,308.33 111,200.42 112,354.58 113,308.33 114,308.33 115,277.5 116,277.5 117,246.67 118,169.58 119,185 120,138.75 121,169.58 122,215.83 123,246.67 124,277.5 125,154.17 126,246.67 127,292.92 128,231.25 129,262.08 130,154.17 131,231.25 132,169.58 133,262.08 134,308.33 135,292.92 136,323.75 138,323.75 139,354.58 140,339.17 141,308.33 142,277.5 143,308.33 144,277.5 145,215.83 146,292.92 147,138.75 148,185 149,154.17 150,246.67 151,292.92 152,323.75 153,215.83 154,277.5 155,292.92 157,292.92 158,277.5 159,169.58 160,231.25 161,246.67 162,292.92 163,277.5 164,200.42 165,169.58 166,231.25 167,262.08 168,200.42 169,277.5 170,339.17 171,323.75 171.58,370"><title>LR761635.1</title></polygon><rect class="average" height="1" width="171.58" x="0" y="214.74"><title>average:10.07</title></rect><rect class="median" height="1" width="171.58" x="0" y="277.5"><title>median:6</title></rect><text class="chromName" x="85.79" y="-12">LR761635.1<title>LR761635.1 73,222,313 bp</title></text><rect class="frame" height="370" width="171.58" x="0" y="0"/></g><g id="chrom-LR761636.1" transform="translate(314.2938403401308,0)"><polygon class="cov0" points="0,370 0,339.17 1,138.75 2,262.08 3,323.75 4,215.83 5,154.17 6,107.92 7,138.75 8,107.92 9,138.75 10,123.33 11,123.33 12,138.75 13,215.83 14,107.92 15,138.75 16,138.75 17,123.33 18,138.75 19,154.17 20,123.33 21,123.33 22,138.75 23,107.92 24,200.42 25,123.33 26,215.83 27,246.67 28,123.33 29,107.92 30,123.33 31,107.92 32,154.17 33,138.75 34,138.75 35,215.83 36,154.17 37,169.58 38,138.75 39,138.75 40,185 41,154.17 42,169.58 43,154.17 44,123.33 45,123.33 46,169.58 47,123.33 48,200.42 49,154.17 50,169.58 51,123.33 52,138.75 53,123.33 54,262.08 55,169.58 56,154.17 57,138.75 58,154.17 59,138.75 60,169.58 61,231.25 62,169.58 63,138.75 64,138.75 65,154.17 67,154.17 68,169.58 69,154.17 70,169.58 71,107.92 72,107.92 73,154.17 74,169.58 75,169.58 76,308.33 77,231.25 78,231.25 79,262.08 80,277.5 81,138.75 82,215.83 83,154.17 84,123.33 85,138.75 86,292.92 87,169.58 88,154.17 89,215.83 90,138.75 91,123.33 92,200.42 93,154.17 94,123.33 95,185 96,185 97,123.33 98,138.75 99,185 100,154.17 101,123.33 102,169.58 103,123.33 104,123.33 105,138.75 106,123.33 107,138.75 108,123.33 110,123.33 111,154.17 112,154.17 113,169.58 114,123.33 116,123.33 117,138.75 118,185 119,138.75 120,123.33 121,246.67 122,123.33 123,123.33 124,200.42 125,123.33 126,123.33 127,231.25 128,246.67 129,123.33 130,154.17 131,154.17 132,185 133,169.58 134,123.33 135,154.17 136,262.08 136.65,370"><title>LR761636.1</title></polygon><rect class="average" height="1" width="136.65" x="0" y="155.35"><title>average:13.92</title></rect><rect class="median" height="1" width="136.65" x="0" y="154.17"><title>median:14</title></rect><text class="chromName" x="68.33" y="-12">LR761636.1<title>LR761636.1 58,319,100 bp</title></text><rect class="frame" height="370" width="136.65" x="0" y="0"/></g><g id="chrom-LR761637.1" transform="translate(451.9485730949149,0)"><polygon class="cov1" points="0,370 0,354.58 1,277.5 2,308.33 3,277.5 4,231.25 5,169.58 6,215.83 7,246.67 8,231.25 9,292.92 10,339.17 11,200.42 12,246.67 13,292.92 14,292.92 15,169.58 16,200.42 17,123.33 18,262.08 19,308.33 20,246.67 21,154.17 22,169.58 23,246.67 24,323.75 25,169.58 26,154.17 27,231.25 28,231.25 29,246.67 30,262.08 31,154.17 33,154.17 34,123.33 35,200.42 36,308.33 37,323.75 38,169.58 39,169.58 40,154.17 41,292.92 42,246.67 43,277.5 44,308.33 45,215.83 46,154.17 47,138.75 48,123.33 49,138.75 50,200.42 51,138.75 52,123.33 53,185 54,123.33 55,138.75 56,169.58 57,231.25 58,277.5 59,292.92 60,308.33 61,231.25 62,123.33 63,138.75 64,138.75 65,154.17 67,154.17 68,185 69,123.33 70,138.75 71,138.75 72,185 73,138.75 74,185 75,154.17 76,138.75 77,138.75 78,154.17 79,185 80,169.58 81,154.17 82,138.75 83,154.17 84,154.17 85,123.33 86,246.67 87,169.58 88,138.75 89,138.75 90,123.33 91,138.75 92,138.75 93,185 94,185 95,200.42 96,215.83 97,138.75 98,107.92 99,123.33 100,246.67 101,292.92 102,308.33 104,308.33 105,215.83 106,138.75 107,123.33 109,123.33 110,107.92 111,185 112,154.17 113,123.33 114,277.5 115,185 116,185 117,154.17 118,138.75 119,308.33 120,169.58 121,123.33 122,323.75 123,339.17 124,308.33 124.49,370"><title>LR761637.1</title></polygon><rect class="average" height="1" width="124.49" x="0" y="181.79"><title>average:12.21</title></rect><rect class="median" height="1" width="124.49" x="0" y="185"><title>median:12</title></rect><text class="chromName" x="62.25" y="-12">LR761637.1<title>LR761637.1 53,127,865 bp</title></text><rect class="frame" height="370" width="124.49" x="0" y="0"/></g><g id="chrom-LR761638.1" transform="translate(577.4390778079033,0)"><polygon class="cov0" points="0,370 0,246.67 1,215.83 2,323.75 3,154.17 4,246.67 5,154.17 6,200.42 7,200.42 8,231.25 9,123.33 10,169.58 11,323.75 12,123.33 13,169.58 14,123.33 15,169.58 16,123.33 17,138.75 18,277.5 19,308.33 20,123.33 21,215.83 22,138.75 23,107.92 24,138.75 25,169.58 26,323.75 27,123.33 28,185 29,339.17 30,246.67 31,154.17 32,354.58 33,354.58 34,185 35,277.5 36,154.17 37,308.33 38,292.92 39,339.17 40,354.58 41,323.75 42,262.08 43,138.75 44,154.17 45,292.92 46,246.67 47,123.33 48,138.75 49,262.08 50,339.17 51,246.67 52,185 53,185 54,246.67 55,246.67 56,154.17 57,246.67 58,200.42 59,185 60,262.08 61,185 62,169.58 63,323.75 64,277.5 65,354.58 66,169.58 67,246.67 68,185 69,308.33 70,154.17 71,339.17 72,354.58 73,308.33 74,262.08 75,339.17 76,339.17 77,231.25 78,370 79,339.17 80,339.17 81,185 82,308.33 83,292.92 84,246.67 85,185 86,138.75 87,185 88,323.75 89,138.75 90,292.92 91,154.17 92,123.33 93,123.33 94,138.75 95,215.83 96,262.08 97,138.75 98,262.08 99,215.83 100,169.58 101,169.58 102,246.67 103,185 104,200.42 105,262.08 106,231.25 107,200.42 108,215.83 109,200.42 110,231.25 111,200.42 112,308.33 113,215.83 114,262.08 115,292.92 116,323.75 117,339.17 118,323.75 119,292.92 120,308.33 121,354.58 123,354.58 124,308.33 125,308.33 126,323.75 127,246.67 128,308.33 129,262.08 130,277.5 131,277.5 132,292.92 133,323.75 134,277.5 135,292.92 136,169.58 137,370 138,354.58 139,292.92 140,354.58 141,339.17 142,292.92 143,262.08 144,185 145,200.42 146,277.5 147,154.17 148,154.17 149,169.58 150,200.42 151,262.08 152,154.17 153,169.58 154,246.67 155,308.33 156,231.25 157,246.67 158,323.75 159,262.08 160,292.92 161,262.08 162,246.67 163,200.42 164,246.67 165,277.5 166,292.92 168,292.92 169,215.83 170,292.92 171,308.33 172,292.92 172.35,370"><title>LR761638.1</title></polygon><rect class="average" height="1" width="172.35" x="0" y="210.37"><title>average:10.35</title></rect><rect class="median" height="1" width="172.35" x="0" y="246.67"><title>median:8</title></rect><text class="chromName" x="86.17" y="-12">LR761638.1<title>LR761638.1 73,550,375 bp</title></text><rect class="frame" height="370" width="172.35" x="0" y="0"/></g><g id="chrom-LR761639.1" transform="translate(750.784104388203,0)"><polygon class="cov1" points="0,370 0,308.33 1,154.17 2,154.17 3,277.5 4,154.17 5,246.67 6,354.58 7,231.25 8,154.17 9,123.33 10,154.17 11,262.08 12,262.08 13,138.75 14,169.58 15,123.33 17,123.33 18,138.75 19,107.92 20,123.33 21,138.75 22,154.17 23,138.75 24,185 25,200.42 26,169.58 27,323.75 28,292.92 29,231.25 30,339.17 31,154.17 32,123.33 33,123.33 34,200.42 35,246.67 36,262.08 37,138.75 38,138.75 39,123.33 40,215.83 41,123.33 42,138.75 43,123.33 44,154.17 45,123.33 46,154.17 47,138.75 48,123.33 49,169.58 50,169.58 51,123.33 52,185 53,154.17 54,154.17 55,138.75 56,123.33 57,138.75 59,138.75 60,123.33 61,138.75 62,154.17 63,154.17 64,123.33 65,123.33 66,169.58 67,138.75 68,138.75 69,215.83 70,138.75 71,154.17 72,154.17 73,138.75 74,246.67 75,123.33 76,154.17 77,138.75 78,123.33 79,138.75 80,154.17 81,138.75 83,138.75 84,215.83 85,138.75 86,123.33 87,123.33 88,138.75 89,123.33 90,138.75 91,154.17 92,138.75 93,185 94,138.75 95,138.75 96,154.17 97,123.33 98,107.92 99,123.33 100,138.75 103,138.75 104,123.33 105,138.75 106,262.08 107,138.75 108,123.33 109,138.75 110,123.33 111,308.33 112,185 113,123.33 114,169.58 115,107.92 116,154.17 117,138.75 118,138.75 119,107.92 120,169.58 121,138.75 122,123.33 123,123.33 124,169.58 125,138.75 126,123.33 127,123.33 128,154.17 129,123.33 130,185 131,154.17 132,185 133,339.17 134,123.33 135,154.17 137,154.17 138,215.83 139,138.75 140,138.75 140.95,370"><title>LR761639.1</title></polygon><rect class="average" height="1" width="140.95" x="0" y="154.87"><title>average:13.95</title></rect><rect class="median" height="1" width="140.95" x="0" y="154.17"><title>median:14</title></rect><text class="chromName" x="70.47" y="-12">LR761639.1<title>LR761639.1 60,151,564 bp</title></text><rect class="frame" height="370" width="140.95" x="0" y="0"/></g><g id="chrom-LR761640.1" transform="translate(892.7327113317651,0)"><polygon class="cov0" points="0,370 0,185 1,123.33 2,185 3,169.58 4,169.58 5,123.33 6,185 7,200.42 8,138.75 9,169.58 10,138.75 11,154.17 12,138.75 13,246.67 14,169.58 15,138.75 16,231.25 17,138.75 18,123.33 19,200.42 20,138.75 22,138.75 23,107.92 24,138.75 25,154.17 26,107.92 27,138.75 28,154.17 29,107.92 30,138.75 32,138.75 33,123.33 34,138.75 35,123.33 36,138.75 37,200.42 38,123.33 39,169.58 40,107.92 41,107.92 42,92.5 43,123.33 44,123.33 45,154.17 46,169.58 47,262.08 48,323.75 49,123.33 50,169.58 51,138.75 52,123.33 53,138.75 54,123.33 55,138.75 56,123.33 57,215.83 58,154.17 59,185 60,246.67 61,138.75 62,154.17 63,185 64,138.75 65,262.08 66,138.75 67,154.17 68,169.58 69,200.42 70,185 71,138.75 72,169.58 73,185 74,169.58 75,138.75 76,123.33 77,215.83 78,138.75 79,169.58 80,107.92 82,107.92 83,123.33 84,138.75 85,138.75 86,323.75 87,169.58 88,154.17 89,185 90,154.17 91,292.92 92,262.08 93,200.42 94,277.5 95,169.58 96,138.75 97,123.33 98,154.17 99,154.17 100,123.33 101,200.42 102,339.17 103,231.25 104,138.75 106,138.75 107,169.58 108,215.83 109,123.33 110,169.58 111,200.42 112,154.17 113,123.33 114,169.58 115,138.75 116,339.17 117,339.17 118,354.58 119,323.75 120,138.75 121,123.33 122,138.75 124,138.75 125,123.33 126,123.33 127,138.75 128,246.67 129,154.17 130,123.33 131,138.75 132,154.17 133,138.75 134,107.92 135,107.92 136,138.75 138,138.75 139,185 140,138.75 141,138.75 142,169.58 143,200.42 144,138.75 145,123.33 145.53,370"><title>LR761640.1</title></polygon><rect class="average" height="1" width="145.53" x="0" y="159.17"><title>average:13.68</title></rect><rect class="median" height="1" width="145.53" x="0" y="154.17"><title>median:14</title></rect><text class="chromName" x="72.77" y="-12">LR761640.1<title>LR761640.1 62,107,823 bp</title></text><rect class="frame" height="370" width="145.53" x="0" y="0"/></g><g id="chrom-LR761641.1" transform="translate(1039.265271917344,0)"><polygon class="cov1" points="0,370 0,262.08 1,169.58 2,231.25 3,185 4,231.25 5,215.83 6,277.5 7,246.67 8,215.83 9,185 10,154.17 11,215.83 12,246.67 13,138.75 14,246.67 15,138.75 16,154.17 17,277.5 18,138.75 19,123.33 20,138.75 21,169.58 22,200.42 23,154.17 24,200.42 25,185 26,231.25 27,215.83 28,231.25 29,277.5 30,231.25 31,200.42 32,277.5 33,231.25 34,277.5 35,292.92 36,323.75 37,262.08 38,262.08 39,277.5 40,185 41,308.33 42,262.08 43,292.92 44,262.08 45,246.67 46,262.08 47,277.5 48,308.33 49,154.17 50,185 51,154.17 52,138.75 54,138.75 55,123.33 56,123.33 57,169.58 58,185 59,185 60,154.17 61,246.67 62,169.58 63,200.42 64,169.58 65,200.42 66,215.83 67,262.08 68,262.08 69,154.17 70,231.25 71,154.17 72,231.25 73,308.33 74,215.83 75,323.75 76,215.83 77,231.25 78,169.58 79,246.67 80,292.92 81,354.58 82,354.58 83,323.75 84,185 85,169.58 86,262.08 87,123.33 88,215.83 89,185 90,246.67 91,246.67 92,138.75 93,246.67 94,277.5 95,246.67 96,169.58 97,292.92 98,154.17 99,354.58 100,292.92 101,169.58 102,169.58 103,138.75 104,185 105,138.75 106,262.08 107,123.33 108,154.17 109,169.58 110,154.17 111,277.5 112,138.75 113,262.08 114,154.17 115,169.58 116,123.33 117,169.58 118,138.75 119,200.42 120,215.83 121,169.58 122,185 123,246.67 124,154.17 125,215.83 126,231.25 127,123.33 128,277.5 129,200.42 130,277.5 131,185 132,292.92 133,231.25 134,138.75 135,339.17 136,308.33 136.99,370"><title>LR761641.1</title></polygon><rect class="average" height="1" width="136.99" x="0" y="187.66"><title>average:11.83</title></rect><rect class="median" height="1" width="136.99" x="0" y="215.83"><title>median:10</title></rect><text class="chromName" x="68.5" y="-12">LR761641.1<title>LR761641.1 58,462,999 bp</title></text><rect class="frame" height="370" width="136.99" x="0" y="0"/></g><g id="chrom-LR761642.1" transform="translate(1177.25719230686,0)"><polygon class="cov0" points="0,370 0,292.92 1,277.5 2,308.33 3,262.08 4,323.75 5,339.17 6,308.33 7,323.75 8,277.5 9,323.75 10,277.5 11,215.83 12,231.25 13,138.75 14,200.42 15,185 16,262.08 17,231.25 18,308.33 19,231.25 20,215.83 21,169.58 22,292.92 23,308.33 24,169.58 25,138.75 26,169.58 27,185 28,277.5 29,169.58 30,231.25 31,154.17 32,169.58 33,246.67 34,169.58 35,323.75 36,154.17 37,185 38,138.75 39,185 40,154.17 41,169.58 42,123.33 43,154.17 44,154.17 45,200.42 46,154.17 47,246.67 48,231.25 49,292.92 50,185 51,215.83 52,215.83 53,138.75 54,154.17 55,231.25 56,169.58 57,231.25 58,215.83 59,169.58 60,154.17 61,339.17 62,185 63,169.58 64,215.83 65,185 66,185 67,308.33 68,215.83 69,169.58 70,200.42 71,277.5 72,169.58 73,231.25 74,154.17 75,185 76,308.33 77,169.58 78,154.17 79,262.08 80,246.67 81,185 82,308.33 83,246.67 84,292.92 85,215.83 86,323.75 86.91,370"><title>LR761642.1</title></polygon><rect class="average" height="1" width="86.91" x="0" y="187.11"><title>average:11.86</title></rect><rect class="median" height="1" width="86.91" x="0" y="215.83"><title>median:10</title></rect><text class="chromName" x="43.45" y="-12">LR761642.1<title>LR761642.1 37,089,910 bp</title></text><rect class="frame" height="370" width="86.91" x="0" y="0"/></g><g id="chrom-LR761643.1" transform="translate(1265.1671710093603,0)"><polygon class="cov1" points="0,370 0,339.17 1,277.5 2,169.58 3,138.75 4,154.17 5,246.67 6,185 7,169.58 8,154.17 9,123.33 10,123.33 11,154.17 12,123.33 13,200.42 14,231.25 15,138.75 16,123.33 17,169.58 18,169.58 19,185 20,354.58 21,169.58 22,138.75 23,123.33 24,185 25,169.58 26,339.17 28,339.17 29,123.33 30,200.42 31,154.17 32,200.42 33,154.17 34,169.58 35,185 36,246.67 37,123.33 38,138.75 39,123.33 40,138.75 41,154.17 42,200.42 43,277.5 44,154.17 45,169.58 46,138.75 47,246.67 48,169.58 49,154.17 50,185 51,123.33 52,138.75 53,169.58 54,169.58 55,138.75 56,123.33 57,138.75 58,138.75 59,154.17 60,123.33 61,138.75 62,154.17 64,154.17 65,200.42 66,169.58 67,154.17 68,154.17 69,138.75 70,169.58 71,200.42 72,185 73,215.83 74,138.75 75,215.83 76,138.75 77,123.33 78,185 79,246.67 80,123.33 81,107.92 82,138.75 83,138.75 84,123.33 85,123.33 86,154.17 87,107.92 88,169.58 89,354.58 90,185 91,138.75 92,123.33 93,154.17 94,123.33 95,154.17 96,107.92 97,123.33 98,107.92 99,107.92 100,138.75 101,215.83 102,154.17 104,154.17 105,138.75 106,123.33 109,123.33 110,107.92 111,123.33 112,123.33 113,200.42 114,154.17 115,138.75 116,107.92 117,107.92 118,138.75 119,154.17 120,123.33 121,107.92 122,123.33 123,107.92 124,138.75 125,123.33 126,123.33 127,200.42 128,185 129,107.92 130,154.17 131,231.25 132,123.33 133,277.5 134,308.33 134.83,370"><title>LR761643.1</title></polygon><rect class="average" height="1" width="134.83" x="0" y="162.24"><title>average:13.48</title></rect><rect class="median" height="1" width="134.83" x="0" y="154.17"><title>median:14</title></rect><text class="chromName" x="67.42" y="-12">LR761643.1<title>LR761643.1 57,541,580 bp</title></text><rect class="frame" height="370" width="134.83" x="0" y="0"/></g><g><line class="ruler" x1="-2" x2="1390" y1="333" y2="333"><title>2</title></line><text class="ruler" x="-5" y="333">2</text><line class="ruler" x1="-2" x2="1390" y1="296" y2="296"><title>4</title></line><text class="ruler" x="-5" y="296">4</text><line class="ruler" x1="-2" x2="1390" y1="259" y2="259"><title>7</title></line><text class="ruler" x="-5" y="259">7</text><line class="ruler" x1="-2" x2="1390" y1="222" y2="222"><title>9</title></line><text class="ruler" x="-5" y="222">9</text><line class="ruler" x1="-2" x2="1390" y1="185" y2="185"><title>12</title></line><text class="ruler" x="-5" y="185">12</text><line class="ruler" x1="-2" x2="1390" y1="148" y2="148"><title>14</title></line><text class="ruler" x="-5" y="148">14</text><line class="ruler" x1="-2" x2="1390" y1="111" y2="111"><title>16</title></line><text class="ruler" x="-5" y="111">16</text><line class="ruler" x1="-2" x2="1390" y1="74" y2="74"><title>19</title></line><text class="ruler" x="-5" y="74">19</text><line class="ruler" x1="-2" x2="1390" y1="37" y2="37"><title>21</title></line><text class="ruler" x="-5" y="37">21</text><line class="ruler" x1="-2" x2="1390" y1="0" y2="0"><title>24</title></line><text class="ruler" x="-5" y="0">24</text></g></g><text class="title" x="795" y="40">F1_M1_14.merged.realigned.bam F1_M1_14 F1_M1_14_1 F1_M1_14_2<title>./F1_M1_14.merged.realigned.bam</title></text><text class="xLabel" x="795" y="475">GCA_902806645.1_cgigas_uk_roslin_v1_genomic.fna  (589,358,857 bp)<title>../ref/GCA_902806645.1_cgigas_uk_roslin_v1_genomic.fna</title></text><text class="yLabel" transform="translate(25,265) rotate(90)" x="0" y="0">Coverage bp (median)</text></g></svg>