<?xml version="1.0" encoding="UTF-8" standalone="no"?><svg height="500" width="1500" xmlns="http://www.w3.org/2000/svg"><title>F1_M1_24.merged.realigned.bam</title><desc>Made with wgscoverageplotter undefined Author: Pierre Lindenbaum</desc><style>g.maing {stroke:black;stroke-width:0.5px;fill:none;}
text.title {stroke:none;fill:black;stroke-width:1px;text-anchor:middle;}
rect.frame {stroke:darkgray;fill:none;stroke-width:0.5px;}
text.ruler {stroke:none;fill:darkgray;stroke-width:1px;text-anchor:end;}
text.chromName {stroke:none;fill:darkgray;stroke-width:1px;text-anchor:middle;}
text.xLabel {stroke:none;fill:black;stroke-width:1px;text-anchor:middle;}
text.yLabel {stroke:none;fill:black;stroke-width:1px;text-anchor:middle;}
.cov0 {stroke:gray;fill:antiquewhite;stroke-width:0.5px;}
.cov1 {stroke:gray;fill:beige;stroke-width:0.5px;}
rect.average {stroke:green;fill:green;stroke-width:0.5px;opacity:0.3;}
rect.median {stroke:red;fill:red;stroke-width:0.5px;opacity:0.3;}
line.ruler {stroke:darkgray;stroke-dasharray:4;fill:none;stroke-width:1;}
</style><g class="maing"><g id="chromosomes" transform="translate(100.0,80.0)"><g id="chrom-LR761634.1" transform="translate(10.0,0)"><polygon class="cov0" points="0,370 0,341.54 1,156.54 2,170.77 3,284.62 4,227.69 5,185 6,284.62 7,199.23 8,170.77 9,142.31 10,170.77 11,128.08 12,170.77 13,241.92 14,170.77 15,142.31 16,128.08 17,213.46 18,142.31 19,142.31 20,128.08 21,142.31 22,156.54 23,170.77 24,170.77 25,128.08 27,128.08 28,142.31 29,128.08 30,128.08 31,142.31 32,256.15 33,128.08 34,142.31 35,142.31 36,113.85 37,185 38,199.23 39,142.31 40,128.08 42,128.08 43,156.54 44,156.54 45,227.69 46,170.77 47,142.31 51,142.31 52,113.85 53,142.31 54,256.15 55,313.08 56,113.85 57,113.85 58,128.08 59,142.31 60,156.54 61,128.08 62,156.54 63,170.77 65,170.77 66,142.31 67,185 68,128.08 69,213.46 70,128.08 71,128.08 72,227.69 73,156.54 74,142.31 75,128.08 76,128.08 77,156.54 79,156.54 80,284.62 81,284.62 82,128.08 83,142.31 84,156.54 85,128.08 86,113.85 87,199.23 88,128.08 89,270.38 90,156.54 91,156.54 92,128.08 93,156.54 94,113.85 95,128.08 96,113.85 97,199.23 98,284.62 99,142.31 100,142.31 101,185 102,156.54 103,156.54 104,185 105,128.08 106,199.23 107,199.23 108,256.15 109,128.08 110,128.08 111,156.54 112,142.31 113,156.54 114,327.31 115,199.23 116,128.08 117,142.31 118,128.08 119,185 120,241.92 121,142.31 122,142.31 123,128.08 124,142.31 127,142.31 128,199.23 129,170.77 130,227.69 130.72,370"><title>LR761634.1</title></polygon><rect class="average" height="1" width="130.72" x="0" y="160.72"><title>average:14.71</title></rect><rect class="median" height="1" width="130.72" x="0" y="156.54"><title>median:15</title></rect><text class="chromName" x="65.36" y="-12">LR761634.1<title>LR761634.1 55,785,328 bp</title></text><rect class="frame" height="370" width="130.72" x="0" y="0"/></g><g id="chrom-LR761635.1" transform="translate(141.71753661284166,0)"><polygon class="cov1" points="0,370 0,341.54 1,355.77 2,327.31 3,284.62 4,341.54 5,370 6,256.15 7,313.08 8,341.54 9,241.92 10,256.15 11,298.85 12,227.69 13,170.77 14,227.69 15,313.08 16,355.77 17,256.15 19,256.15 20,284.62 21,298.85 22,284.62 23,227.69 24,284.62 25,341.54 26,284.62 27,327.31 28,313.08 29,355.77 30,341.54 31,284.62 32,241.92 33,227.69 34,199.23 35,241.92 36,270.38 37,327.31 38,327.31 39,170.77 40,156.54 41,227.69 42,185 43,227.69 44,170.77 45,170.77 46,199.23 47,128.08 48,227.69 49,170.77 50,199.23 51,241.92 52,199.23 53,284.62 54,327.31 55,241.92 56,256.15 57,270.38 58,213.46 59,313.08 60,341.54 61,270.38 62,142.31 63,284.62 64,313.08 65,284.62 66,298.85 67,313.08 68,284.62 69,227.69 70,284.62 71,270.38 72,298.85 73,241.92 74,256.15 75,227.69 76,355.77 77,0 78,241.92 79,327.31 80,142.31 81,327.31 82,341.54 83,284.62 84,355.77 85,313.08 86,355.77 87,355.77 88,341.54 89,370 90,327.31 91,355.77 92,341.54 93,256.15 94,298.85 95,270.38 96,327.31 97,270.38 98,327.31 99,270.38 100,313.08 101,313.08 102,341.54 103,241.92 104,227.69 105,128.08 106,284.62 107,313.08 108,213.46 109,185 110,298.85 111,199.23 112,355.77 113,313.08 114,313.08 115,298.85 116,298.85 117,256.15 118,170.77 119,199.23 120,142.31 121,170.77 122,227.69 123,241.92 124,284.62 125,156.54 126,256.15 127,298.85 128,227.69 129,270.38 130,156.54 131,213.46 132,170.77 133,241.92 134,313.08 135,298.85 136,327.31 138,327.31 139,355.77 140,341.54 141,298.85 142,270.38 143,313.08 144,284.62 145,213.46 146,298.85 147,142.31 148,185 149,156.54 150,241.92 151,313.08 152,327.31 153,213.46 154,270.38 155,298.85 156,284.62 157,298.85 158,298.85 159,185 160,241.92 161,256.15 162,298.85 163,284.62 164,199.23 165,170.77 166,227.69 167,270.38 168,185 169,284.62 170,341.54 171,327.31 171.58,370"><title>LR761635.1</title></polygon><rect class="average" height="1" width="171.58" x="0" y="215.03"><title>average:10.89</title></rect><rect class="median" height="1" width="171.58" x="0" y="270.38"><title>median:7</title></rect><text class="chromName" x="85.79" y="-12">LR761635.1<title>LR761635.1 73,222,313 bp</title></text><rect class="frame" height="370" width="171.58" x="0" y="0"/></g><g id="chrom-LR761636.1" transform="translate(314.2938403401308,0)"><polygon class="cov0" points="0,370 0,341.54 1,156.54 2,256.15 3,313.08 4,213.46 5,156.54 6,128.08 7,156.54 8,128.08 9,156.54 10,142.31 11,142.31 12,156.54 13,227.69 14,128.08 15,156.54 16,142.31 17,128.08 18,156.54 19,156.54 20,128.08 21,128.08 22,142.31 23,128.08 24,199.23 25,142.31 26,213.46 27,227.69 28,128.08 30,128.08 31,113.85 32,128.08 33,128.08 34,142.31 35,199.23 36,142.31 37,156.54 38,142.31 39,142.31 40,185 41,156.54 42,170.77 43,156.54 44,128.08 45,142.31 46,185 47,128.08 48,185 49,156.54 50,170.77 51,113.85 52,142.31 53,128.08 54,270.38 55,170.77 56,156.54 57,128.08 58,142.31 59,128.08 60,170.77 61,227.69 62,170.77 63,142.31 64,128.08 65,156.54 66,142.31 67,156.54 68,170.77 69,142.31 70,170.77 71,113.85 72,113.85 73,156.54 75,156.54 76,313.08 77,213.46 78,227.69 79,256.15 80,270.38 81,142.31 82,213.46 83,142.31 84,128.08 85,142.31 86,284.62 87,156.54 88,142.31 89,213.46 90,142.31 91,128.08 92,185 93,156.54 94,128.08 95,185 96,170.77 97,128.08 98,128.08 99,170.77 100,156.54 101,128.08 102,170.77 103,113.85 104,128.08 105,142.31 106,128.08 110,128.08 111,156.54 113,156.54 114,128.08 115,113.85 116,113.85 117,142.31 118,185 119,128.08 120,142.31 121,270.38 122,128.08 123,128.08 124,199.23 125,128.08 126,142.31 127,227.69 128,256.15 129,142.31 130,156.54 131,170.77 132,199.23 133,185 134,142.31 135,170.77 136,256.15 136.65,370"><title>LR761636.1</title></polygon><rect class="average" height="1" width="136.65" x="0" y="158.22"><title>average:14.88</title></rect><rect class="median" height="1" width="136.65" x="0" y="156.54"><title>median:15</title></rect><text class="chromName" x="68.33" y="-12">LR761636.1<title>LR761636.1 58,319,100 bp</title></text><rect class="frame" height="370" width="136.65" x="0" y="0"/></g><g id="chrom-LR761637.1" transform="translate(451.9485730949149,0)"><polygon class="cov1" points="0,370 0,355.77 1,298.85 2,313.08 3,298.85 4,227.69 5,185 6,227.69 7,256.15 8,241.92 9,298.85 10,327.31 11,199.23 12,241.92 13,284.62 14,298.85 15,185 16,213.46 17,128.08 18,256.15 19,313.08 20,256.15 21,142.31 22,170.77 23,241.92 24,327.31 25,185 26,142.31 27,227.69 28,241.92 29,241.92 30,270.38 31,156.54 33,156.54 34,128.08 35,199.23 36,313.08 37,327.31 38,170.77 39,156.54 40,156.54 41,313.08 42,270.38 43,270.38 44,313.08 45,213.46 46,156.54 47,142.31 48,128.08 49,128.08 50,199.23 51,142.31 52,113.85 53,185 54,113.85 55,142.31 56,156.54 57,241.92 58,284.62 59,298.85 60,313.08 61,227.69 62,128.08 63,142.31 66,142.31 67,156.54 68,185 69,128.08 70,156.54 71,142.31 72,170.77 73,128.08 74,185 75,142.31 77,142.31 78,156.54 79,185 80,170.77 81,156.54 82,128.08 83,156.54 84,156.54 85,128.08 86,256.15 87,170.77 88,128.08 89,142.31 90,128.08 92,128.08 93,185 94,170.77 95,199.23 96,213.46 97,142.31 98,128.08 99,142.31 100,241.92 101,298.85 102,313.08 103,313.08 104,298.85 105,213.46 106,128.08 109,128.08 110,113.85 111,199.23 112,156.54 113,128.08 114,270.38 115,199.23 116,199.23 117,170.77 118,170.77 119,327.31 120,185 121,142.31 122,313.08 123,341.54 124,313.08 124.49,370"><title>LR761637.1</title></polygon><rect class="average" height="1" width="124.49" x="0" y="184.34"><title>average:13.05</title></rect><rect class="median" height="1" width="124.49" x="0" y="185"><title>median:13</title></rect><text class="chromName" x="62.25" y="-12">LR761637.1<title>LR761637.1 53,127,865 bp</title></text><rect class="frame" height="370" width="124.49" x="0" y="0"/></g><g id="chrom-LR761638.1" transform="translate(577.4390778079033,0)"><polygon class="cov0" points="0,370 0,270.38 1,241.92 2,327.31 3,170.77 4,270.38 5,170.77 6,213.46 7,213.46 8,241.92 9,142.31 10,185 11,327.31 12,142.31 13,185 14,128.08 15,170.77 16,128.08 17,142.31 18,284.62 19,298.85 20,142.31 21,227.69 22,142.31 23,128.08 24,128.08 25,170.77 26,313.08 27,128.08 28,185 29,341.54 30,241.92 31,156.54 32,355.77 33,355.77 34,199.23 35,256.15 36,156.54 37,313.08 38,298.85 39,341.54 40,355.77 41,327.31 42,256.15 43,142.31 44,156.54 45,284.62 46,241.92 47,128.08 48,142.31 49,256.15 50,341.54 51,241.92 52,185 53,185 54,241.92 55,241.92 56,156.54 57,241.92 58,199.23 59,199.23 60,284.62 61,185 62,170.77 63,327.31 64,256.15 65,341.54 66,170.77 67,241.92 68,170.77 69,313.08 70,156.54 71,341.54 72,341.54 73,298.85 74,256.15 75,341.54 76,341.54 77,227.69 78,370 79,341.54 80,341.54 81,185 82,327.31 83,270.38 84,227.69 85,185 86,128.08 87,185 88,313.08 89,142.31 90,284.62 91,156.54 92,113.85 93,113.85 94,142.31 95,213.46 96,256.15 97,142.31 98,256.15 99,213.46 100,170.77 101,170.77 102,256.15 103,185 104,213.46 105,270.38 106,227.69 107,199.23 108,213.46 109,199.23 110,241.92 111,213.46 112,313.08 113,213.46 114,270.38 115,298.85 116,341.54 118,341.54 119,298.85 120,313.08 121,355.77 123,355.77 124,298.85 125,327.31 126,327.31 127,256.15 128,327.31 129,284.62 130,298.85 131,298.85 132,284.62 133,327.31 134,284.62 135,284.62 136,170.77 137,370 138,355.77 139,284.62 140,341.54 141,341.54 142,284.62 143,256.15 144,185 145,199.23 146,256.15 147,156.54 148,156.54 149,170.77 150,199.23 151,284.62 152,170.77 153,170.77 154,256.15 155,313.08 156,227.69 157,241.92 158,341.54 159,298.85 160,313.08 161,284.62 162,270.38 163,213.46 164,298.85 165,298.85 166,313.08 167,313.08 168,327.31 169,227.69 170,327.31 171,327.31 172,313.08 172.35,370"><title>LR761638.1</title></polygon><rect class="average" height="1" width="172.35" x="0" y="214.14"><title>average:10.95</title></rect><rect class="median" height="1" width="172.35" x="0" y="256.15"><title>median:8</title></rect><text class="chromName" x="86.17" y="-12">LR761638.1<title>LR761638.1 73,550,375 bp</title></text><rect class="frame" height="370" width="172.35" x="0" y="0"/></g><g id="chrom-LR761639.1" transform="translate(750.784104388203,0)"><polygon class="cov1" points="0,370 0,313.08 1,156.54 2,156.54 3,270.38 4,170.77 5,256.15 6,355.77 7,241.92 8,156.54 9,142.31 10,170.77 11,270.38 12,256.15 13,142.31 14,185 15,142.31 16,128.08 21,128.08 22,156.54 23,142.31 24,185 25,199.23 26,170.77 27,313.08 28,313.08 29,241.92 30,341.54 31,142.31 32,113.85 33,128.08 34,185 35,241.92 36,256.15 37,142.31 38,142.31 39,128.08 40,213.46 41,128.08 42,142.31 43,113.85 44,142.31 45,128.08 46,156.54 47,142.31 48,128.08 49,170.77 50,156.54 51,142.31 52,185 53,156.54 54,142.31 55,128.08 56,128.08 57,142.31 58,128.08 60,128.08 61,142.31 62,142.31 63,170.77 64,113.85 65,128.08 66,156.54 67,142.31 68,142.31 69,213.46 70,142.31 72,142.31 73,128.08 74,227.69 75,128.08 76,128.08 77,142.31 78,128.08 79,128.08 80,142.31 81,128.08 83,128.08 84,185 85,142.31 86,128.08 87,142.31 88,128.08 90,128.08 91,142.31 92,128.08 93,170.77 94,128.08 95,128.08 96,142.31 97,113.85 98,113.85 99,128.08 100,142.31 101,128.08 102,142.31 103,142.31 104,113.85 105,128.08 106,256.15 107,128.08 108,128.08 109,142.31 110,128.08 111,313.08 112,185 113,113.85 114,185 115,113.85 116,142.31 117,142.31 118,128.08 119,113.85 120,156.54 121,128.08 123,128.08 124,170.77 125,128.08 126,128.08 127,142.31 128,156.54 129,128.08 130,199.23 131,170.77 132,199.23 133,355.77 134,142.31 135,170.77 136,156.54 137,156.54 138,213.46 139,156.54 140,142.31 140.95,370"><title>LR761639.1</title></polygon><rect class="average" height="1" width="140.95" x="0" y="156.75"><title>average:14.99</title></rect><rect class="median" height="1" width="140.95" x="0" y="156.54"><title>median:15</title></rect><text class="chromName" x="70.47" y="-12">LR761639.1<title>LR761639.1 60,151,564 bp</title></text><rect class="frame" height="370" width="140.95" x="0" y="0"/></g><g id="chrom-LR761640.1" transform="translate(892.7327113317651,0)"><polygon class="cov0" points="0,370 0,199.23 1,142.31 2,185 3,185 4,170.77 5,128.08 6,199.23 7,199.23 8,142.31 9,156.54 10,142.31 11,156.54 12,142.31 13,241.92 14,185 15,142.31 16,227.69 17,142.31 18,128.08 19,185 20,128.08 21,142.31 22,128.08 23,113.85 24,142.31 25,156.54 26,113.85 27,128.08 28,142.31 29,128.08 30,142.31 31,142.31 32,128.08 33,113.85 34,156.54 35,128.08 36,142.31 37,199.23 38,113.85 39,156.54 40,113.85 41,128.08 42,99.62 43,113.85 44,128.08 45,142.31 46,156.54 47,256.15 48,327.31 49,128.08 50,156.54 51,142.31 52,128.08 53,142.31 54,113.85 55,128.08 56,128.08 57,199.23 58,156.54 59,170.77 60,241.92 61,128.08 62,156.54 63,185 64,128.08 65,256.15 66,128.08 67,142.31 68,156.54 69,199.23 70,185 71,142.31 72,142.31 73,170.77 74,170.77 75,128.08 76,128.08 77,213.46 78,128.08 79,156.54 80,99.62 81,85.38 82,99.62 83,128.08 84,128.08 85,142.31 86,313.08 87,156.54 88,156.54 89,170.77 90,156.54 91,313.08 92,256.15 93,199.23 94,270.38 95,156.54 96,142.31 97,142.31 98,156.54 99,142.31 100,113.85 101,227.69 102,341.54 103,241.92 104,128.08 105,128.08 106,142.31 107,156.54 108,227.69 109,128.08 110,156.54 111,199.23 112,156.54 113,156.54 114,185 115,142.31 116,341.54 117,341.54 118,355.77 119,327.31 120,142.31 121,113.85 122,128.08 126,128.08 127,142.31 128,227.69 129,156.54 130,128.08 131,142.31 132,142.31 133,128.08 134,113.85 135,128.08 136,142.31 138,142.31 139,199.23 140,142.31 141,156.54 142,185 143,213.46 144,156.54 145,142.31 145.53,370"><title>LR761640.1</title></polygon><rect class="average" height="1" width="145.53" x="0" y="160.54"><title>average:14.72</title></rect><rect class="median" height="1" width="145.53" x="0" y="156.54"><title>median:15</title></rect><text class="chromName" x="72.77" y="-12">LR761640.1<title>LR761640.1 62,107,823 bp</title></text><rect class="frame" height="370" width="145.53" x="0" y="0"/></g><g id="chrom-LR761641.1" transform="translate(1039.265271917344,0)"><polygon class="cov1" points="0,370 0,256.15 1,185 2,241.92 3,199.23 4,241.92 5,227.69 6,270.38 7,256.15 8,227.69 9,199.23 10,156.54 11,213.46 12,256.15 13,142.31 14,241.92 15,142.31 16,156.54 17,298.85 18,128.08 19,128.08 20,142.31 21,185 22,185 23,142.31 24,199.23 25,185 26,227.69 27,213.46 28,227.69 29,270.38 30,241.92 31,213.46 32,284.62 33,227.69 34,256.15 35,284.62 36,313.08 37,256.15 38,256.15 39,270.38 40,199.23 41,313.08 42,270.38 43,298.85 44,284.62 45,241.92 46,256.15 47,284.62 48,313.08 49,156.54 50,185 51,156.54 52,128.08 56,128.08 57,170.77 59,170.77 60,142.31 61,241.92 62,156.54 63,185 64,170.77 65,199.23 66,213.46 67,241.92 68,270.38 69,170.77 70,227.69 71,142.31 72,227.69 73,313.08 74,213.46 75,327.31 76,213.46 77,227.69 78,170.77 79,227.69 80,313.08 81,355.77 82,355.77 83,327.31 84,185 85,170.77 86,270.38 87,128.08 88,213.46 89,199.23 90,241.92 91,241.92 92,142.31 93,241.92 94,270.38 95,256.15 96,156.54 97,284.62 98,142.31 99,355.77 100,298.85 101,170.77 102,170.77 103,142.31 104,199.23 105,142.31 106,270.38 107,142.31 108,170.77 109,170.77 110,156.54 111,270.38 112,128.08 113,256.15 114,156.54 115,185 116,128.08 117,185 118,142.31 119,213.46 120,213.46 121,170.77 122,185 123,241.92 124,170.77 125,227.69 126,227.69 127,142.31 128,270.38 129,213.46 130,284.62 131,213.46 132,313.08 133,241.92 134,156.54 135,341.54 136,327.31 136.99,370"><title>LR761641.1</title></polygon><rect class="average" height="1" width="136.99" x="0" y="190.46"><title>average:12.62</title></rect><rect class="median" height="1" width="136.99" x="0" y="213.46"><title>median:11</title></rect><text class="chromName" x="68.5" y="-12">LR761641.1<title>LR761641.1 58,462,999 bp</title></text><rect class="frame" height="370" width="136.99" x="0" y="0"/></g><g id="chrom-LR761642.1" transform="translate(1177.25719230686,0)"><polygon class="cov0" points="0,370 0,298.85 1,284.62 2,298.85 3,284.62 4,341.54 5,355.77 6,313.08 7,327.31 8,284.62 9,327.31 10,284.62 11,213.46 12,241.92 13,142.31 14,213.46 15,199.23 16,270.38 17,241.92 18,313.08 19,213.46 20,227.69 21,170.77 22,298.85 23,313.08 24,156.54 25,142.31 26,170.77 27,185 28,284.62 29,170.77 30,241.92 31,156.54 32,156.54 33,241.92 34,156.54 35,327.31 36,156.54 37,185 38,128.08 39,170.77 40,142.31 41,170.77 42,128.08 43,142.31 44,156.54 45,199.23 46,156.54 47,241.92 48,227.69 49,298.85 50,199.23 51,213.46 52,227.69 53,128.08 54,142.31 55,227.69 56,170.77 57,227.69 58,213.46 59,170.77 60,142.31 61,341.54 62,185 63,170.77 64,213.46 65,199.23 66,185 67,313.08 68,213.46 69,170.77 70,199.23 71,298.85 72,170.77 73,227.69 74,142.31 75,199.23 76,298.85 77,185 78,170.77 79,256.15 80,256.15 81,199.23 82,298.85 83,241.92 84,298.85 85,227.69 86,327.31 86.91,370"><title>LR761642.1</title></polygon><rect class="average" height="1" width="86.91" x="0" y="188.58"><title>average:12.75</title></rect><rect class="median" height="1" width="86.91" x="0" y="213.46"><title>median:11</title></rect><text class="chromName" x="43.45" y="-12">LR761642.1<title>LR761642.1 37,089,910 bp</title></text><rect class="frame" height="370" width="86.91" x="0" y="0"/></g><g id="chrom-LR761643.1" transform="translate(1265.1671710093603,0)"><polygon class="cov1" points="0,370 0,341.54 1,284.62 2,170.77 3,142.31 4,170.77 5,241.92 6,199.23 7,170.77 8,170.77 9,128.08 10,142.31 11,170.77 12,142.31 13,199.23 14,227.69 15,142.31 16,128.08 17,170.77 19,170.77 20,355.77 21,170.77 22,142.31 23,128.08 24,170.77 25,170.77 26,341.54 28,341.54 29,128.08 30,199.23 31,156.54 32,199.23 33,142.31 34,170.77 35,199.23 36,256.15 37,128.08 38,142.31 39,128.08 40,142.31 41,142.31 42,185 43,270.38 44,142.31 45,170.77 46,128.08 47,241.92 48,170.77 49,142.31 50,170.77 51,142.31 52,142.31 53,156.54 54,156.54 55,128.08 58,128.08 59,142.31 60,113.85 61,128.08 62,156.54 63,142.31 64,156.54 65,199.23 66,156.54 67,156.54 68,142.31 69,142.31 70,156.54 71,199.23 72,185 73,199.23 74,128.08 75,227.69 76,142.31 77,113.85 78,185 79,256.15 80,128.08 81,113.85 82,142.31 83,142.31 84,128.08 85,128.08 86,142.31 87,113.85 88,156.54 89,355.77 90,170.77 91,128.08 92,128.08 93,142.31 94,113.85 95,142.31 96,113.85 97,128.08 98,128.08 99,113.85 100,128.08 101,213.46 102,142.31 103,142.31 104,156.54 105,142.31 106,128.08 108,128.08 109,113.85 110,128.08 111,113.85 112,128.08 113,199.23 114,142.31 115,128.08 116,113.85 117,128.08 118,142.31 119,170.77 120,128.08 123,128.08 124,142.31 125,128.08 126,128.08 127,213.46 128,199.23 129,128.08 130,170.77 131,227.69 132,142.31 133,284.62 134,313.08 134.83,370"><title>LR761643.1</title></polygon><rect class="average" height="1" width="134.83" x="0" y="164.54"><title>average:14.44</title></rect><rect class="median" height="1" width="134.83" x="0" y="156.54"><title>median:15</title></rect><text class="chromName" x="67.42" y="-12">LR761643.1<title>LR761643.1 57,541,580 bp</title></text><rect class="frame" height="370" width="134.83" x="0" y="0"/></g><g><line class="ruler" x1="-2" x2="1390" y1="333" y2="333"><title>2</title></line><text class="ruler" x="-5" y="333">2</text><line class="ruler" x1="-2" x2="1390" y1="296" y2="296"><title>5</title></line><text class="ruler" x="-5" y="296">5</text><line class="ruler" x1="-2" x2="1390" y1="259" y2="259"><title>7</title></line><text class="ruler" x="-5" y="259">7</text><line class="ruler" x1="-2" x2="1390" y1="222" y2="222"><title>10</title></line><text class="ruler" x="-5" y="222">10</text><line class="ruler" x1="-2" x2="1390" y1="185" y2="185"><title>13</title></line><text class="ruler" x="-5" y="185">13</text><line class="ruler" x1="-2" x2="1390" y1="148" y2="148"><title>15</title></line><text class="ruler" x="-5" y="148">15</text><line class="ruler" x1="-2" x2="1390" y1="111" y2="111"><title>18</title></line><text class="ruler" x="-5" y="111">18</text><line class="ruler" x1="-2" x2="1390" y1="74" y2="74"><title>20</title></line><text class="ruler" x="-5" y="74">20</text><line class="ruler" x1="-2" x2="1390" y1="37" y2="37"><title>23</title></line><text class="ruler" x="-5" y="37">23</text><line class="ruler" x1="-2" x2="1390" y1="0" y2="0"><title>26</title></line><text class="ruler" x="-5" y="0">26</text></g></g><text class="title" x="795" y="40">F1_M1_24.merged.realigned.bam F1_M1_24 F1_M1_24_1 F1_M1_24_2<title>./F1_M1_24.merged.realigned.bam</title></text><text class="xLabel" x="795" y="475">GCA_902806645.1_cgigas_uk_roslin_v1_genomic.fna  (589,358,857 bp)<title>../ref/GCA_902806645.1_cgigas_uk_roslin_v1_genomic.fna</title></text><text class="yLabel" transform="translate(25,265) rotate(90)" x="0" y="0">Coverage bp (median)</text></g></svg>