<?xml version="1.0" encoding="UTF-8" standalone="no"?><svg height="500" width="1500" xmlns="http://www.w3.org/2000/svg"><title>F1_M3_24.merged.realigned.bam</title><desc>Made with wgscoverageplotter undefined Author: Pierre Lindenbaum</desc><style>g.maing {stroke:black;stroke-width:0.5px;fill:none;}
text.title {stroke:none;fill:black;stroke-width:1px;text-anchor:middle;}
rect.frame {stroke:darkgray;fill:none;stroke-width:0.5px;}
text.ruler {stroke:none;fill:darkgray;stroke-width:1px;text-anchor:end;}
text.chromName {stroke:none;fill:darkgray;stroke-width:1px;text-anchor:middle;}
text.xLabel {stroke:none;fill:black;stroke-width:1px;text-anchor:middle;}
text.yLabel {stroke:none;fill:black;stroke-width:1px;text-anchor:middle;}
.cov0 {stroke:gray;fill:antiquewhite;stroke-width:0.5px;}
.cov1 {stroke:gray;fill:beige;stroke-width:0.5px;}
rect.average {stroke:green;fill:green;stroke-width:0.5px;opacity:0.3;}
rect.median {stroke:red;fill:red;stroke-width:0.5px;opacity:0.3;}
line.ruler {stroke:darkgray;stroke-dasharray:4;fill:none;stroke-width:1;}
</style><g class="maing"><g id="chromosomes" transform="translate(100.0,80.0)"><g id="chrom-LR761634.1" transform="translate(10.0,0)"><polygon class="cov0" points="0,370 0,323.75 1,154.17 2,185 3,292.92 4,246.67 5,154.17 6,292.92 7,200.42 8,169.58 9,138.75 10,169.58 11,138.75 12,169.58 13,246.67 14,231.25 15,154.17 16,138.75 17,169.58 18,154.17 19,138.75 20,123.33 21,138.75 22,169.58 24,169.58 25,138.75 27,138.75 28,154.17 29,138.75 30,154.17 31,154.17 32,277.5 33,138.75 34,154.17 35,169.58 36,138.75 37,200.42 38,200.42 39,138.75 41,138.75 42,154.17 43,185 44,169.58 45,200.42 46,185 47,154.17 49,154.17 50,169.58 51,154.17 52,138.75 53,154.17 54,185 55,185 56,123.33 57,123.33 58,138.75 59,169.58 60,169.58 61,123.33 62,169.58 63,185 64,215.83 65,185 66,154.17 67,200.42 68,138.75 69,215.83 70,154.17 71,138.75 72,215.83 73,185 74,154.17 75,138.75 76,154.17 77,200.42 78,185 79,154.17 80,277.5 81,262.08 82,138.75 83,154.17 85,154.17 86,123.33 87,200.42 88,138.75 89,277.5 90,169.58 91,154.17 92,138.75 93,169.58 94,123.33 95,138.75 96,123.33 97,200.42 98,262.08 99,154.17 100,154.17 101,185 102,154.17 103,169.58 104,185 105,138.75 106,231.25 107,215.83 108,292.92 109,123.33 110,123.33 111,154.17 112,138.75 113,200.42 114,292.92 115,215.83 116,123.33 117,138.75 118,123.33 119,169.58 120,200.42 121,138.75 122,154.17 123,123.33 124,138.75 125,123.33 126,138.75 127,154.17 128,200.42 129,185 130,215.83 130.72,370"><title>LR761634.1</title></polygon><rect class="average" height="1" width="130.72" x="0" y="163.65"><title>average:13.38</title></rect><rect class="median" height="1" width="130.72" x="0" y="169.58"><title>median:13</title></rect><text class="chromName" x="65.36" y="-12">LR761634.1<title>LR761634.1 55,785,328 bp</title></text><rect class="frame" height="370" width="130.72" x="0" y="0"/></g><g id="chrom-LR761635.1" transform="translate(141.71753661284166,0)"><polygon class="cov1" points="0,370 0,354.58 1,323.75 2,323.75 3,277.5 4,339.17 5,370 6,231.25 7,292.92 8,292.92 9,231.25 10,215.83 11,277.5 12,200.42 13,169.58 14,231.25 15,292.92 16,292.92 17,246.67 18,277.5 19,200.42 20,262.08 21,262.08 22,246.67 23,215.83 24,292.92 25,339.17 26,339.17 27,354.58 28,277.5 29,354.58 31,354.58 32,277.5 33,231.25 34,246.67 35,231.25 36,262.08 37,308.33 38,323.75 39,200.42 40,246.67 41,262.08 42,185 43,246.67 44,200.42 46,200.42 47,169.58 48,323.75 49,215.83 50,262.08 51,339.17 52,246.67 53,231.25 54,323.75 55,292.92 56,354.58 57,277.5 58,169.58 59,308.33 60,277.5 61,277.5 62,154.17 63,246.67 64,246.67 65,231.25 66,277.5 67,292.92 68,262.08 69,277.5 70,292.92 71,185 72,231.25 73,231.25 74,215.83 75,169.58 76,277.5 77,0 78,215.83 79,262.08 80,123.33 81,246.67 82,246.67 83,231.25 84,292.92 85,277.5 86,277.5 87,292.92 88,277.5 89,292.92 90,262.08 91,339.17 92,323.75 93,323.75 94,308.33 95,323.75 96,339.17 98,339.17 99,308.33 100,292.92 101,323.75 102,323.75 103,215.83 104,169.58 105,169.58 106,277.5 107,308.33 108,215.83 109,200.42 110,308.33 111,215.83 112,323.75 113,339.17 114,308.33 115,200.42 117,200.42 118,154.17 119,154.17 120,138.75 121,185 122,169.58 123,246.67 124,308.33 125,154.17 126,231.25 127,292.92 128,231.25 129,246.67 130,169.58 131,292.92 132,169.58 133,292.92 134,308.33 135,262.08 136,292.92 137,323.75 138,308.33 139,323.75 140,339.17 141,308.33 143,308.33 144,262.08 145,231.25 146,277.5 147,138.75 148,169.58 149,154.17 150,262.08 151,262.08 152,323.75 153,215.83 154,292.92 155,262.08 156,292.92 157,262.08 158,231.25 159,169.58 160,215.83 161,262.08 162,292.92 163,246.67 164,246.67 165,262.08 166,308.33 167,339.17 168,323.75 169,292.92 170,323.75 171,323.75 171.58,370"><title>LR761635.1</title></polygon><rect class="average" height="1" width="171.58" x="0" y="213.18"><title>average:10.17</title></rect><rect class="median" height="1" width="171.58" x="0" y="262.08"><title>median:7</title></rect><text class="chromName" x="85.79" y="-12">LR761635.1<title>LR761635.1 73,222,313 bp</title></text><rect class="frame" height="370" width="171.58" x="0" y="0"/></g><g id="chrom-LR761636.1" transform="translate(314.2938403401308,0)"><polygon class="cov0" points="0,370 0,339.17 1,138.75 2,262.08 3,323.75 4,262.08 5,154.17 6,154.17 7,169.58 8,123.33 9,154.17 10,123.33 11,138.75 12,138.75 13,200.42 14,123.33 15,154.17 16,138.75 17,123.33 18,154.17 19,154.17 20,138.75 23,138.75 24,200.42 25,123.33 26,200.42 27,262.08 28,138.75 29,123.33 30,138.75 31,123.33 32,138.75 33,138.75 34,154.17 35,185 36,138.75 37,169.58 38,154.17 39,154.17 40,185 41,169.58 43,169.58 44,154.17 45,154.17 46,185 47,123.33 48,200.42 49,154.17 50,185 51,123.33 52,154.17 53,154.17 54,277.5 55,185 56,169.58 57,138.75 58,154.17 59,138.75 60,169.58 61,231.25 62,169.58 63,154.17 64,138.75 65,169.58 66,154.17 67,169.58 68,169.58 69,154.17 70,185 71,123.33 72,138.75 73,169.58 74,169.58 75,154.17 76,323.75 77,231.25 78,246.67 79,277.5 80,277.5 81,154.17 82,215.83 83,154.17 84,138.75 85,154.17 86,308.33 87,169.58 88,154.17 89,200.42 90,154.17 91,138.75 92,200.42 93,169.58 94,138.75 95,185 96,215.83 97,138.75 98,154.17 99,185 100,138.75 101,123.33 102,154.17 103,123.33 104,138.75 110,138.75 111,169.58 112,154.17 113,185 114,138.75 115,123.33 116,138.75 117,154.17 118,185 119,138.75 120,154.17 121,154.17 122,138.75 123,138.75 124,200.42 125,138.75 126,123.33 127,231.25 128,231.25 129,123.33 130,154.17 131,169.58 132,169.58 133,154.17 134,138.75 135,154.17 136,323.75 136.65,370"><title>LR761636.1</title></polygon><rect class="average" height="1" width="136.65" x="0" y="160.45"><title>average:13.59</title></rect><rect class="median" height="1" width="136.65" x="0" y="154.17"><title>median:14</title></rect><text class="chromName" x="68.33" y="-12">LR761636.1<title>LR761636.1 58,319,100 bp</title></text><rect class="frame" height="370" width="136.65" x="0" y="0"/></g><g id="chrom-LR761637.1" transform="translate(451.9485730949149,0)"><polygon class="cov1" points="0,370 0,354.58 1,262.08 2,292.92 3,246.67 4,231.25 5,185 6,200.42 7,262.08 8,231.25 9,308.33 10,292.92 11,215.83 12,231.25 13,323.75 14,277.5 15,169.58 16,215.83 17,138.75 18,292.92 19,308.33 20,231.25 21,169.58 22,169.58 23,262.08 24,339.17 25,154.17 26,154.17 27,215.83 28,215.83 29,246.67 30,292.92 31,169.58 32,154.17 33,185 34,123.33 35,200.42 36,308.33 37,292.92 38,169.58 39,154.17 40,154.17 41,292.92 42,215.83 43,262.08 44,323.75 45,246.67 46,154.17 47,138.75 48,138.75 49,154.17 50,200.42 51,154.17 52,107.92 53,169.58 54,123.33 55,154.17 56,154.17 57,231.25 58,277.5 59,292.92 60,308.33 61,231.25 62,154.17 64,154.17 65,169.58 66,154.17 67,169.58 68,200.42 69,138.75 70,169.58 71,154.17 72,185 73,138.75 74,200.42 75,154.17 77,154.17 78,138.75 79,169.58 80,185 81,169.58 82,138.75 83,154.17 84,154.17 85,138.75 86,231.25 87,185 88,138.75 89,154.17 90,123.33 91,154.17 92,138.75 93,200.42 94,200.42 95,215.83 96,185 97,154.17 98,123.33 99,138.75 100,262.08 101,308.33 102,308.33 103,323.75 104,323.75 105,231.25 106,138.75 107,123.33 108,138.75 109,123.33 110,123.33 111,169.58 112,154.17 113,123.33 114,292.92 115,200.42 116,185 117,169.58 118,138.75 119,308.33 120,185 121,138.75 122,339.17 123,354.58 124,308.33 124.49,370"><title>LR761637.1</title></polygon><rect class="average" height="1" width="124.49" x="0" y="185.14"><title>average:11.99</title></rect><rect class="median" height="1" width="124.49" x="0" y="200.42"><title>median:11</title></rect><text class="chromName" x="62.25" y="-12">LR761637.1<title>LR761637.1 53,127,865 bp</title></text><rect class="frame" height="370" width="124.49" x="0" y="0"/></g><g id="chrom-LR761638.1" transform="translate(577.4390778079033,0)"><polygon class="cov0" points="0,370 0,231.25 1,138.75 2,308.33 3,138.75 4,200.42 5,138.75 6,185 7,200.42 8,231.25 9,123.33 10,169.58 11,308.33 12,138.75 13,169.58 14,123.33 15,169.58 16,154.17 17,138.75 18,231.25 19,323.75 20,138.75 21,215.83 22,138.75 23,123.33 24,138.75 25,169.58 26,354.58 27,123.33 28,185 29,323.75 30,262.08 31,154.17 32,370 33,339.17 34,185 35,262.08 36,169.58 37,292.92 38,246.67 39,339.17 40,354.58 41,323.75 42,262.08 43,154.17 44,154.17 45,308.33 46,262.08 47,123.33 48,138.75 49,246.67 50,354.58 51,262.08 52,185 53,200.42 54,262.08 55,262.08 56,169.58 57,231.25 58,185 59,185 60,215.83 61,200.42 62,169.58 63,292.92 64,308.33 65,354.58 66,200.42 67,200.42 68,185 69,262.08 70,154.17 71,277.5 72,354.58 73,308.33 74,246.67 75,339.17 76,277.5 77,215.83 78,354.58 79,292.92 80,292.92 81,200.42 82,292.92 83,339.17 84,292.92 85,200.42 86,154.17 87,169.58 88,323.75 89,154.17 90,262.08 91,154.17 92,107.92 93,138.75 94,154.17 95,231.25 96,262.08 97,138.75 98,292.92 99,200.42 100,169.58 101,169.58 102,262.08 103,169.58 104,231.25 105,277.5 106,246.67 107,185 108,231.25 109,200.42 110,200.42 111,185 112,308.33 113,246.67 114,292.92 115,292.92 116,308.33 117,323.75 118,308.33 119,262.08 120,292.92 121,354.58 123,354.58 124,308.33 125,308.33 126,323.75 127,231.25 128,277.5 129,231.25 130,262.08 131,231.25 132,308.33 133,339.17 134,262.08 135,308.33 136,169.58 137,370 138,354.58 139,292.92 140,370 141,354.58 142,354.58 143,262.08 144,185 145,200.42 146,308.33 147,138.75 148,169.58 149,169.58 150,185 151,231.25 152,169.58 153,154.17 154,262.08 155,292.92 156,231.25 157,292.92 158,308.33 159,246.67 160,277.5 161,262.08 162,231.25 163,246.67 164,200.42 165,246.67 166,277.5 168,277.5 169,200.42 170,277.5 172,277.5 172.35,370"><title>LR761638.1</title></polygon><rect class="average" height="1" width="172.35" x="0" y="208.68"><title>average:10.46</title></rect><rect class="median" height="1" width="172.35" x="0" y="246.67"><title>median:8</title></rect><text class="chromName" x="86.17" y="-12">LR761638.1<title>LR761638.1 73,550,375 bp</title></text><rect class="frame" height="370" width="172.35" x="0" y="0"/></g><g id="chrom-LR761639.1" transform="translate(750.784104388203,0)"><polygon class="cov1" points="0,370 0,292.92 1,185 2,169.58 3,292.92 4,154.17 5,231.25 6,370 7,215.83 8,154.17 9,138.75 10,138.75 11,246.67 12,262.08 13,138.75 14,169.58 15,138.75 19,138.75 20,123.33 21,154.17 22,154.17 23,169.58 24,200.42 25,200.42 26,169.58 27,323.75 28,292.92 29,215.83 30,323.75 31,154.17 32,154.17 33,138.75 34,200.42 35,231.25 36,231.25 37,154.17 38,154.17 39,138.75 40,231.25 41,123.33 42,154.17 43,123.33 44,154.17 45,123.33 46,169.58 47,154.17 48,138.75 49,169.58 50,169.58 51,138.75 52,169.58 53,169.58 54,154.17 55,138.75 56,138.75 57,154.17 58,138.75 60,138.75 61,154.17 63,154.17 64,123.33 65,138.75 66,154.17 68,154.17 69,215.83 70,154.17 72,154.17 73,138.75 74,231.25 75,138.75 76,154.17 77,154.17 78,138.75 79,138.75 80,169.58 81,138.75 82,138.75 83,154.17 84,215.83 85,154.17 86,138.75 90,138.75 91,154.17 92,154.17 93,185 94,154.17 96,154.17 97,138.75 98,138.75 99,154.17 103,154.17 104,123.33 105,138.75 106,246.67 107,154.17 108,138.75 110,138.75 111,308.33 112,185 113,138.75 114,185 115,123.33 116,169.58 117,154.17 118,154.17 119,123.33 120,169.58 121,138.75 123,138.75 124,169.58 125,138.75 127,138.75 128,154.17 129,123.33 130,185 131,169.58 132,169.58 133,323.75 134,123.33 135,169.58 136,154.17 137,169.58 138,231.25 139,185 140,215.83 140.95,370"><title>LR761639.1</title></polygon><rect class="average" height="1" width="140.95" x="0" y="162.81"><title>average:13.44</title></rect><rect class="median" height="1" width="140.95" x="0" y="154.17"><title>median:14</title></rect><text class="chromName" x="70.47" y="-12">LR761639.1<title>LR761639.1 60,151,564 bp</title></text><rect class="frame" height="370" width="140.95" x="0" y="0"/></g><g id="chrom-LR761640.1" transform="translate(892.7327113317651,0)"><polygon class="cov0" points="0,370 0,215.83 1,123.33 2,200.42 3,169.58 4,169.58 5,123.33 6,185 7,200.42 8,138.75 9,185 10,154.17 11,154.17 12,123.33 13,277.5 14,185 15,154.17 16,231.25 17,154.17 18,138.75 19,200.42 20,138.75 22,138.75 23,123.33 24,154.17 25,169.58 26,138.75 27,138.75 28,154.17 29,138.75 30,138.75 31,154.17 32,138.75 33,138.75 34,154.17 35,138.75 36,154.17 37,200.42 38,123.33 39,169.58 40,123.33 41,138.75 42,123.33 43,123.33 44,138.75 45,154.17 46,154.17 47,246.67 48,308.33 49,138.75 50,169.58 51,154.17 52,138.75 53,154.17 54,138.75 55,154.17 56,138.75 57,246.67 58,154.17 59,200.42 60,246.67 61,154.17 62,169.58 63,185 64,138.75 65,292.92 66,154.17 67,154.17 68,169.58 69,200.42 70,185 71,154.17 72,185 73,200.42 74,185 75,154.17 76,154.17 77,231.25 78,154.17 79,185 80,107.92 81,107.92 82,123.33 83,138.75 85,138.75 86,323.75 87,185 88,169.58 89,185 90,169.58 91,262.08 92,277.5 93,200.42 94,277.5 95,169.58 96,169.58 97,154.17 99,154.17 100,138.75 101,185 102,339.17 103,246.67 104,138.75 106,138.75 107,169.58 108,200.42 109,138.75 110,169.58 111,215.83 112,169.58 113,154.17 114,154.17 115,138.75 116,323.75 117,339.17 118,354.58 119,323.75 120,138.75 121,138.75 122,154.17 124,154.17 125,138.75 126,138.75 127,154.17 128,262.08 129,169.58 130,138.75 131,138.75 132,169.58 133,138.75 134,123.33 135,92.5 136,138.75 138,138.75 139,200.42 140,138.75 141,138.75 142,169.58 143,215.83 144,138.75 145,138.75 145.53,370"><title>LR761640.1</title></polygon><rect class="average" height="1" width="145.53" x="0" y="166.44"><title>average:13.2</title></rect><rect class="median" height="1" width="145.53" x="0" y="169.58"><title>median:13</title></rect><text class="chromName" x="72.77" y="-12">LR761640.1<title>LR761640.1 62,107,823 bp</title></text><rect class="frame" height="370" width="145.53" x="0" y="0"/></g><g id="chrom-LR761641.1" transform="translate(1039.265271917344,0)"><polygon class="cov1" points="0,370 0,277.5 1,154.17 2,231.25 3,200.42 4,169.58 5,231.25 6,323.75 7,215.83 8,246.67 9,185 10,154.17 11,215.83 12,231.25 13,123.33 14,215.83 15,154.17 16,169.58 17,292.92 18,138.75 20,138.75 21,154.17 22,215.83 23,154.17 24,185 25,154.17 26,215.83 27,185 28,200.42 29,246.67 30,200.42 31,185 32,200.42 33,215.83 34,323.75 35,292.92 36,292.92 37,277.5 38,246.67 39,231.25 40,185 41,277.5 42,200.42 43,262.08 44,200.42 45,246.67 46,292.92 47,231.25 48,231.25 49,154.17 50,185 51,154.17 52,138.75 53,138.75 54,123.33 55,123.33 56,138.75 57,185 58,200.42 59,185 60,154.17 61,277.5 62,185 63,200.42 64,169.58 65,169.58 66,215.83 67,246.67 68,215.83 69,154.17 70,200.42 71,138.75 72,215.83 73,323.75 74,215.83 75,323.75 76,215.83 77,215.83 78,185 79,262.08 80,277.5 81,339.17 82,339.17 83,323.75 84,215.83 85,169.58 86,262.08 87,123.33 88,215.83 89,200.42 90,292.92 91,231.25 92,138.75 93,262.08 94,292.92 95,200.42 96,185 97,323.75 98,154.17 99,354.58 100,277.5 101,154.17 102,169.58 103,123.33 104,200.42 105,138.75 106,262.08 107,138.75 108,169.58 109,154.17 110,138.75 111,292.92 112,154.17 113,277.5 114,154.17 115,185 116,123.33 117,169.58 118,138.75 119,215.83 120,215.83 121,169.58 122,169.58 123,200.42 124,138.75 125,215.83 126,262.08 127,123.33 128,246.67 129,185 130,262.08 131,154.17 132,200.42 133,169.58 134,107.92 135,354.58 136,277.5 136.99,370"><title>LR761641.1</title></polygon><rect class="average" height="1" width="136.99" x="0" y="183.86"><title>average:12.07</title></rect><rect class="median" height="1" width="136.99" x="0" y="200.42"><title>median:11</title></rect><text class="chromName" x="68.5" y="-12">LR761641.1<title>LR761641.1 58,462,999 bp</title></text><rect class="frame" height="370" width="136.99" x="0" y="0"/></g><g id="chrom-LR761642.1" transform="translate(1177.25719230686,0)"><polygon class="cov0" points="0,370 0,308.33 1,292.92 2,308.33 3,262.08 4,308.33 5,339.17 6,292.92 7,308.33 8,323.75 9,339.17 10,292.92 11,277.5 12,231.25 13,154.17 14,200.42 15,215.83 16,262.08 17,215.83 18,308.33 19,277.5 20,200.42 21,169.58 22,262.08 23,308.33 24,169.58 25,138.75 26,169.58 27,200.42 28,292.92 29,154.17 30,231.25 31,138.75 32,169.58 33,246.67 34,169.58 35,323.75 36,154.17 37,169.58 38,138.75 39,185 40,154.17 41,169.58 42,138.75 43,154.17 44,154.17 45,215.83 46,169.58 47,262.08 48,231.25 49,292.92 50,200.42 51,215.83 52,200.42 53,123.33 54,154.17 55,215.83 56,169.58 57,215.83 58,185 59,154.17 60,154.17 61,323.75 62,200.42 63,154.17 64,215.83 65,169.58 66,185 67,292.92 68,231.25 69,169.58 70,169.58 71,277.5 72,169.58 73,215.83 74,169.58 75,185 76,308.33 77,154.17 78,154.17 79,292.92 80,262.08 81,185 82,323.75 83,262.08 84,308.33 85,215.83 86,323.75 86.91,370"><title>LR761642.1</title></polygon><rect class="average" height="1" width="86.91" x="0" y="187.85"><title>average:11.81</title></rect><rect class="median" height="1" width="86.91" x="0" y="215.83"><title>median:10</title></rect><text class="chromName" x="43.45" y="-12">LR761642.1<title>LR761642.1 37,089,910 bp</title></text><rect class="frame" height="370" width="86.91" x="0" y="0"/></g><g id="chrom-LR761643.1" transform="translate(1265.1671710093603,0)"><polygon class="cov1" points="0,370 0,339.17 1,277.5 2,169.58 3,138.75 4,154.17 5,246.67 6,185 7,169.58 8,138.75 9,123.33 10,138.75 11,169.58 12,138.75 13,200.42 14,246.67 15,154.17 16,138.75 17,154.17 18,169.58 19,185 20,354.58 21,169.58 22,138.75 23,138.75 24,185 25,185 26,339.17 27,308.33 28,308.33 29,138.75 30,246.67 31,169.58 32,215.83 33,154.17 34,169.58 35,200.42 36,262.08 37,138.75 38,154.17 39,138.75 40,154.17 41,169.58 42,215.83 43,292.92 44,169.58 45,185 46,123.33 47,246.67 48,169.58 49,154.17 50,185 51,154.17 52,154.17 53,185 54,185 55,154.17 56,138.75 57,154.17 58,185 59,154.17 60,123.33 61,154.17 62,185 63,154.17 64,169.58 65,185 66,169.58 68,169.58 69,154.17 70,169.58 71,200.42 72,200.42 73,277.5 74,138.75 75,215.83 76,154.17 77,138.75 78,215.83 79,246.67 80,154.17 81,138.75 82,154.17 83,154.17 84,123.33 85,138.75 86,154.17 87,123.33 88,169.58 89,339.17 90,169.58 91,154.17 92,138.75 93,169.58 94,138.75 95,169.58 96,123.33 97,138.75 100,138.75 101,246.67 102,154.17 103,154.17 104,169.58 105,154.17 106,138.75 107,138.75 108,154.17 109,138.75 112,138.75 113,215.83 114,154.17 115,154.17 116,123.33 117,138.75 118,169.58 119,169.58 120,138.75 121,138.75 122,123.33 123,138.75 125,138.75 126,123.33 127,185 128,169.58 129,138.75 130,169.58 131,246.67 132,138.75 133,277.5 134,323.75 134.83,370"><title>LR761643.1</title></polygon><rect class="average" height="1" width="134.83" x="0" y="170.48"><title>average:12.94</title></rect><rect class="median" height="1" width="134.83" x="0" y="169.58"><title>median:13</title></rect><text class="chromName" x="67.42" y="-12">LR761643.1<title>LR761643.1 57,541,580 bp</title></text><rect class="frame" height="370" width="134.83" x="0" y="0"/></g><g><line class="ruler" x1="-2" x2="1390" y1="333" y2="333"><title>2</title></line><text class="ruler" x="-5" y="333">2</text><line class="ruler" x1="-2" x2="1390" y1="296" y2="296"><title>4</title></line><text class="ruler" x="-5" y="296">4</text><line class="ruler" x1="-2" x2="1390" y1="259" y2="259"><title>7</title></line><text class="ruler" x="-5" y="259">7</text><line class="ruler" x1="-2" x2="1390" y1="222" y2="222"><title>9</title></line><text class="ruler" x="-5" y="222">9</text><line class="ruler" x1="-2" x2="1390" y1="185" y2="185"><title>12</title></line><text class="ruler" x="-5" y="185">12</text><line class="ruler" x1="-2" x2="1390" y1="148" y2="148"><title>14</title></line><text class="ruler" x="-5" y="148">14</text><line class="ruler" x1="-2" x2="1390" y1="111" y2="111"><title>16</title></line><text class="ruler" x="-5" y="111">16</text><line class="ruler" x1="-2" x2="1390" y1="74" y2="74"><title>19</title></line><text class="ruler" x="-5" y="74">19</text><line class="ruler" x1="-2" x2="1390" y1="37" y2="37"><title>21</title></line><text class="ruler" x="-5" y="37">21</text><line class="ruler" x1="-2" x2="1390" y1="0" y2="0"><title>24</title></line><text class="ruler" x="-5" y="0">24</text></g></g><text class="title" x="795" y="40">F1_M3_24.merged.realigned.bam F1_M3_24 F1_M3_24_1 F1_M3_24_2<title>./F1_M3_24.merged.realigned.bam</title></text><text class="xLabel" x="795" y="475">GCA_902806645.1_cgigas_uk_roslin_v1_genomic.fna  (589,358,857 bp)<title>../ref/GCA_902806645.1_cgigas_uk_roslin_v1_genomic.fna</title></text><text class="yLabel" transform="translate(25,265) rotate(90)" x="0" y="0">Coverage bp (median)</text></g></svg>