<?xml version="1.0" encoding="UTF-8" standalone="no"?><svg height="500" width="1500" xmlns="http://www.w3.org/2000/svg"><title>F2_M3_14.merged.realigned.bam</title><desc>Made with wgscoverageplotter undefined Author: Pierre Lindenbaum</desc><style>g.maing {stroke:black;stroke-width:0.5px;fill:none;}
text.title {stroke:none;fill:black;stroke-width:1px;text-anchor:middle;}
rect.frame {stroke:darkgray;fill:none;stroke-width:0.5px;}
text.ruler {stroke:none;fill:darkgray;stroke-width:1px;text-anchor:end;}
text.chromName {stroke:none;fill:darkgray;stroke-width:1px;text-anchor:middle;}
text.xLabel {stroke:none;fill:black;stroke-width:1px;text-anchor:middle;}
text.yLabel {stroke:none;fill:black;stroke-width:1px;text-anchor:middle;}
.cov0 {stroke:gray;fill:antiquewhite;stroke-width:0.5px;}
.cov1 {stroke:gray;fill:beige;stroke-width:0.5px;}
rect.average {stroke:green;fill:green;stroke-width:0.5px;opacity:0.3;}
rect.median {stroke:red;fill:red;stroke-width:0.5px;opacity:0.3;}
line.ruler {stroke:darkgray;stroke-dasharray:4;fill:none;stroke-width:1;}
</style><g class="maing"><g id="chromosomes" transform="translate(100.0,80.0)"><g id="chrom-LR761634.1" transform="translate(10.0,0)"><polygon class="cov0" points="0,370 0,302.73 1,151.36 2,168.18 3,319.55 4,235.45 5,185 6,285.91 7,185 8,168.18 9,151.36 10,168.18 11,134.55 12,168.18 13,218.64 14,252.27 15,151.36 16,134.55 17,201.82 18,134.55 20,134.55 21,151.36 23,151.36 24,168.18 25,134.55 27,134.55 28,168.18 29,134.55 30,151.36 31,151.36 32,269.09 33,151.36 34,151.36 35,168.18 36,134.55 37,201.82 38,185 39,151.36 40,151.36 41,134.55 42,151.36 43,185 44,168.18 45,201.82 46,201.82 47,151.36 49,151.36 50,168.18 51,168.18 52,134.55 53,151.36 54,218.64 55,218.64 56,134.55 57,134.55 58,151.36 59,168.18 60,168.18 61,134.55 62,168.18 63,201.82 64,201.82 65,185 66,151.36 67,201.82 68,134.55 69,218.64 70,151.36 71,134.55 72,201.82 73,185 74,168.18 75,134.55 76,151.36 77,185 78,185 79,151.36 80,302.73 81,269.09 82,134.55 83,151.36 84,168.18 85,151.36 86,134.55 87,201.82 88,134.55 89,269.09 90,168.18 91,168.18 92,151.36 93,168.18 94,134.55 95,134.55 96,117.73 97,168.18 98,319.55 99,134.55 100,151.36 101,201.82 102,151.36 103,168.18 104,185 105,134.55 106,218.64 107,201.82 108,218.64 109,134.55 110,117.73 111,134.55 112,117.73 113,151.36 114,235.45 115,218.64 116,117.73 117,134.55 118,117.73 119,151.36 120,168.18 121,134.55 124,134.55 125,117.73 126,134.55 127,134.55 128,185 129,168.18 130,201.82 130.72,370"><title>LR761634.1</title></polygon><rect class="average" height="1" width="130.72" x="0" y="161.31"><title>average:12.41</title></rect><rect class="median" height="1" width="130.72" x="0" y="168.18"><title>median:12</title></rect><text class="chromName" x="65.36" y="-12">LR761634.1<title>LR761634.1 55,785,328 bp</title></text><rect class="frame" height="370" width="130.72" x="0" y="0"/></g><g id="chrom-LR761635.1" transform="translate(141.71753661284166,0)"><polygon class="cov1" points="0,370 0,370 1,336.36 3,336.36 4,353.18 5,336.36 6,201.82 7,285.91 8,302.73 9,218.64 10,218.64 11,269.09 12,168.18 13,134.55 14,235.45 15,269.09 16,269.09 17,218.64 18,302.73 19,201.82 20,285.91 21,285.91 22,269.09 23,235.45 24,302.73 25,319.55 26,302.73 27,336.36 28,285.91 29,353.18 30,353.18 31,319.55 32,252.27 33,218.64 34,269.09 35,235.45 36,269.09 37,302.73 38,353.18 39,201.82 40,235.45 41,269.09 42,185 43,235.45 44,168.18 45,201.82 46,235.45 47,168.18 48,302.73 49,201.82 50,252.27 51,336.36 52,235.45 53,252.27 54,336.36 55,302.73 56,370 57,235.45 58,151.36 59,336.36 60,252.27 61,235.45 62,134.55 63,185 64,168.18 65,168.18 66,302.73 67,302.73 68,285.91 69,302.73 70,319.55 71,201.82 72,252.27 73,235.45 74,185 75,151.36 76,269.09 77,0 78,218.64 79,235.45 80,151.36 81,252.27 82,269.09 83,201.82 84,269.09 85,252.27 86,269.09 87,285.91 89,285.91 90,235.45 91,336.36 92,319.55 93,302.73 94,285.91 95,285.91 96,353.18 97,302.73 100,302.73 101,353.18 102,319.55 103,168.18 104,100.91 105,168.18 106,269.09 107,319.55 108,218.64 109,235.45 110,285.91 111,235.45 112,319.55 113,336.36 114,319.55 115,185 116,185 117,201.82 118,168.18 119,168.18 120,134.55 121,168.18 122,168.18 123,252.27 124,319.55 125,168.18 126,235.45 127,269.09 128,201.82 129,269.09 130,185 131,269.09 132,185 133,285.91 134,319.55 135,285.91 136,319.55 137,319.55 138,302.73 139,269.09 140,336.36 141,302.73 142,302.73 143,285.91 144,269.09 145,218.64 146,269.09 147,134.55 148,168.18 149,134.55 150,235.45 151,269.09 152,370 153,235.45 154,252.27 155,269.09 156,269.09 157,235.45 158,252.27 159,151.36 160,218.64 161,252.27 162,302.73 163,269.09 164,218.64 165,235.45 166,302.73 167,336.36 168,302.73 169,302.73 170,285.91 171,319.55 171.58,370"><title>LR761635.1</title></polygon><rect class="average" height="1" width="171.58" x="0" y="206.81"><title>average:9.7</title></rect><rect class="median" height="1" width="171.58" x="0" y="269.09"><title>median:6</title></rect><text class="chromName" x="85.79" y="-12">LR761635.1<title>LR761635.1 73,222,313 bp</title></text><rect class="frame" height="370" width="171.58" x="0" y="0"/></g><g id="chrom-LR761636.1" transform="translate(314.2938403401308,0)"><polygon class="cov0" points="0,370 0,336.36 1,134.55 2,252.27 3,319.55 4,235.45 5,134.55 6,151.36 7,151.36 8,117.73 9,151.36 10,117.73 11,151.36 12,151.36 13,218.64 14,117.73 15,151.36 16,134.55 17,134.55 18,151.36 19,185 20,151.36 23,151.36 24,201.82 25,151.36 26,218.64 27,252.27 28,134.55 29,134.55 30,151.36 31,134.55 33,134.55 34,168.18 35,185 36,134.55 37,185 38,151.36 40,151.36 41,168.18 42,185 43,185 44,151.36 45,168.18 46,185 47,134.55 48,185 49,168.18 50,185 51,134.55 52,151.36 53,151.36 54,269.09 55,185 56,168.18 57,151.36 58,168.18 59,151.36 60,168.18 61,218.64 62,185 63,151.36 64,151.36 65,168.18 67,168.18 68,185 69,168.18 70,201.82 71,134.55 72,134.55 73,185 74,168.18 75,168.18 76,302.73 77,218.64 78,252.27 79,252.27 80,269.09 81,151.36 82,201.82 83,168.18 84,134.55 85,151.36 86,252.27 87,168.18 88,168.18 89,201.82 90,151.36 91,134.55 92,185 93,168.18 94,151.36 95,168.18 96,218.64 97,151.36 98,151.36 99,185 100,168.18 101,151.36 102,151.36 103,117.73 104,151.36 106,151.36 107,134.55 108,134.55 109,151.36 110,134.55 111,185 112,168.18 113,168.18 114,134.55 116,134.55 117,168.18 118,185 119,151.36 121,151.36 122,134.55 123,134.55 124,201.82 125,134.55 126,134.55 127,201.82 128,269.09 129,117.73 130,151.36 133,151.36 134,134.55 135,134.55 136,201.82 136.65,370"><title>LR761636.1</title></polygon><rect class="average" height="1" width="136.65" x="0" y="161.44"><title>average:12.4</title></rect><rect class="median" height="1" width="136.65" x="0" y="168.18"><title>median:12</title></rect><text class="chromName" x="68.33" y="-12">LR761636.1<title>LR761636.1 58,319,100 bp</title></text><rect class="frame" height="370" width="136.65" x="0" y="0"/></g><g id="chrom-LR761637.1" transform="translate(451.9485730949149,0)"><polygon class="cov1" points="0,370 0,353.18 1,285.91 2,269.09 3,252.27 4,218.64 5,185 6,201.82 7,252.27 8,235.45 9,285.91 10,285.91 11,168.18 12,235.45 13,302.73 14,285.91 15,168.18 16,235.45 17,134.55 18,302.73 19,302.73 20,218.64 21,168.18 22,168.18 23,235.45 24,353.18 25,151.36 26,151.36 27,218.64 28,201.82 29,269.09 30,269.09 31,151.36 32,151.36 33,201.82 34,134.55 35,218.64 36,319.55 37,252.27 38,168.18 40,168.18 41,319.55 42,269.09 43,269.09 44,319.55 45,235.45 46,168.18 47,168.18 48,151.36 49,151.36 50,201.82 51,151.36 52,117.73 53,168.18 54,134.55 55,151.36 56,168.18 57,252.27 58,285.91 59,319.55 60,319.55 61,235.45 62,151.36 63,168.18 64,151.36 65,168.18 66,168.18 67,185 68,201.82 69,151.36 70,168.18 71,168.18 72,185 73,151.36 74,185 75,168.18 76,151.36 77,168.18 78,134.55 79,185 80,185 81,168.18 82,151.36 83,151.36 84,168.18 85,134.55 86,235.45 87,168.18 88,151.36 89,151.36 90,134.55 91,151.36 92,134.55 93,185 94,218.64 95,218.64 96,201.82 97,168.18 98,117.73 99,134.55 100,252.27 101,302.73 102,302.73 103,319.55 104,319.55 105,235.45 106,134.55 109,134.55 110,100.91 111,151.36 112,151.36 113,134.55 114,319.55 115,201.82 116,185 117,185 118,168.18 119,302.73 120,168.18 121,134.55 122,336.36 123,353.18 124,336.36 124.49,370"><title>LR761637.1</title></polygon><rect class="average" height="1" width="124.49" x="0" y="185.63"><title>average:10.96</title></rect><rect class="median" height="1" width="124.49" x="0" y="201.82"><title>median:10</title></rect><text class="chromName" x="62.25" y="-12">LR761637.1<title>LR761637.1 53,127,865 bp</title></text><rect class="frame" height="370" width="124.49" x="0" y="0"/></g><g id="chrom-LR761638.1" transform="translate(577.4390778079033,0)"><polygon class="cov0" points="0,370 0,252.27 1,185 2,302.73 3,134.55 4,185 5,117.73 6,201.82 7,201.82 8,218.64 9,134.55 10,168.18 11,302.73 12,134.55 13,185 14,117.73 15,168.18 16,134.55 17,134.55 18,235.45 19,336.36 20,134.55 21,218.64 22,151.36 23,134.55 24,134.55 25,168.18 26,319.55 27,117.73 28,185 29,302.73 30,235.45 31,151.36 32,370 33,353.18 34,201.82 35,235.45 36,168.18 37,269.09 38,235.45 39,336.36 40,353.18 41,319.55 42,235.45 43,168.18 44,168.18 45,285.91 46,218.64 47,117.73 48,134.55 49,235.45 50,370 51,285.91 52,168.18 53,201.82 54,218.64 55,269.09 56,168.18 57,235.45 58,201.82 59,185 60,269.09 61,218.64 62,168.18 63,269.09 64,285.91 65,336.36 66,185 67,201.82 68,168.18 69,252.27 70,168.18 71,285.91 72,353.18 73,285.91 74,269.09 75,336.36 76,269.09 77,218.64 78,353.18 79,285.91 80,269.09 81,168.18 82,302.73 83,336.36 84,302.73 85,201.82 86,151.36 87,168.18 88,319.55 89,151.36 90,235.45 91,168.18 92,117.73 93,134.55 94,151.36 95,235.45 96,285.91 97,168.18 98,285.91 99,201.82 100,201.82 101,185 102,336.36 103,185 104,285.91 105,319.55 106,235.45 107,185 108,252.27 109,185 110,218.64 111,185 112,319.55 113,235.45 114,269.09 115,285.91 116,319.55 117,336.36 118,336.36 119,302.73 120,285.91 121,353.18 122,353.18 123,370 124,302.73 125,319.55 126,302.73 127,252.27 128,370 129,285.91 130,336.36 131,285.91 132,285.91 133,336.36 134,285.91 135,302.73 136,168.18 137,370 138,353.18 139,269.09 140,370 141,353.18 142,336.36 143,285.91 144,185 145,201.82 146,302.73 147,151.36 148,168.18 149,151.36 150,201.82 151,302.73 152,168.18 153,168.18 154,269.09 155,285.91 156,201.82 157,302.73 158,269.09 159,302.73 160,353.18 161,302.73 162,285.91 163,218.64 164,285.91 165,353.18 166,336.36 167,353.18 168,353.18 169,235.45 170,353.18 172,353.18 172.35,370"><title>LR761638.1</title></polygon><rect class="average" height="1" width="172.35" x="0" y="212.56"><title>average:9.36</title></rect><rect class="median" height="1" width="172.35" x="0" y="252.27"><title>median:7</title></rect><text class="chromName" x="86.17" y="-12">LR761638.1<title>LR761638.1 73,550,375 bp</title></text><rect class="frame" height="370" width="172.35" x="0" y="0"/></g><g id="chrom-LR761639.1" transform="translate(750.784104388203,0)"><polygon class="cov1" points="0,370 0,319.55 1,151.36 2,134.55 3,285.91 4,134.55 5,252.27 6,353.18 7,218.64 8,134.55 9,134.55 10,151.36 11,269.09 12,235.45 13,134.55 14,168.18 15,134.55 16,151.36 17,134.55 18,151.36 19,134.55 20,134.55 21,151.36 22,168.18 23,185 24,185 25,218.64 26,185 27,336.36 28,353.18 29,235.45 30,269.09 31,151.36 32,168.18 33,134.55 34,201.82 35,201.82 36,235.45 37,151.36 39,151.36 40,235.45 41,134.55 42,168.18 43,134.55 44,168.18 45,134.55 46,168.18 47,151.36 48,151.36 49,168.18 50,168.18 51,151.36 52,168.18 54,168.18 55,151.36 56,151.36 57,168.18 58,168.18 59,151.36 61,151.36 62,168.18 63,168.18 64,134.55 65,151.36 66,168.18 67,151.36 68,151.36 69,218.64 70,168.18 72,168.18 73,151.36 74,201.82 75,151.36 76,151.36 77,168.18 78,151.36 79,151.36 80,185 81,134.55 82,151.36 83,151.36 84,218.64 85,168.18 86,134.55 87,151.36 88,134.55 90,134.55 91,151.36 92,151.36 93,185 94,168.18 95,151.36 96,151.36 97,134.55 98,134.55 99,151.36 103,151.36 104,134.55 105,134.55 106,252.27 107,151.36 108,134.55 109,151.36 110,151.36 111,302.73 112,201.82 113,134.55 114,185 115,134.55 116,168.18 117,134.55 118,151.36 119,134.55 120,168.18 121,151.36 122,151.36 123,134.55 124,168.18 125,134.55 126,134.55 127,151.36 128,151.36 129,134.55 130,168.18 131,134.55 132,185 133,319.55 134,117.73 135,185 136,134.55 137,168.18 138,201.82 139,168.18 140,235.45 140.95,370"><title>LR761639.1</title></polygon><rect class="average" height="1" width="140.95" x="0" y="162.19"><title>average:12.36</title></rect><rect class="median" height="1" width="140.95" x="0" y="168.18"><title>median:12</title></rect><text class="chromName" x="70.47" y="-12">LR761639.1<title>LR761639.1 60,151,564 bp</title></text><rect class="frame" height="370" width="140.95" x="0" y="0"/></g><g id="chrom-LR761640.1" transform="translate(892.7327113317651,0)"><polygon class="cov0" points="0,370 0,185 1,117.73 2,201.82 3,168.18 4,168.18 5,117.73 6,201.82 7,185 8,134.55 9,151.36 10,134.55 11,134.55 12,117.73 13,269.09 14,168.18 15,151.36 16,235.45 17,151.36 18,134.55 19,201.82 20,134.55 21,151.36 22,134.55 23,134.55 24,151.36 25,168.18 26,134.55 27,134.55 28,151.36 30,151.36 31,117.73 32,151.36 33,151.36 34,168.18 35,151.36 36,151.36 37,218.64 38,134.55 39,168.18 40,117.73 41,134.55 42,117.73 43,134.55 44,134.55 45,151.36 46,151.36 47,252.27 48,302.73 49,134.55 50,168.18 51,151.36 52,134.55 53,168.18 54,134.55 55,151.36 56,134.55 57,252.27 58,168.18 59,185 60,252.27 61,151.36 62,168.18 63,185 64,151.36 65,285.91 66,151.36 67,168.18 68,168.18 69,201.82 70,201.82 71,168.18 72,185 73,218.64 74,185 75,168.18 76,151.36 77,235.45 78,151.36 79,185 80,117.73 81,117.73 82,134.55 83,151.36 85,151.36 86,319.55 87,185 89,185 90,168.18 91,269.09 92,285.91 93,201.82 94,269.09 95,168.18 96,151.36 97,151.36 98,168.18 99,151.36 100,134.55 101,218.64 102,336.36 103,235.45 104,151.36 106,151.36 107,168.18 108,218.64 109,151.36 110,185 111,201.82 112,168.18 114,168.18 115,151.36 116,285.91 117,336.36 118,353.18 119,319.55 120,151.36 121,134.55 122,151.36 124,151.36 125,134.55 126,134.55 127,151.36 128,252.27 129,168.18 130,151.36 131,134.55 132,168.18 133,134.55 134,117.73 135,100.91 136,151.36 137,151.36 138,134.55 139,185 140,117.73 141,134.55 142,168.18 143,201.82 144,117.73 145,117.73 145.53,370"><title>LR761640.1</title></polygon><rect class="average" height="1" width="145.53" x="0" y="165.79"><title>average:12.14</title></rect><rect class="median" height="1" width="145.53" x="0" y="168.18"><title>median:12</title></rect><text class="chromName" x="72.77" y="-12">LR761640.1<title>LR761640.1 62,107,823 bp</title></text><rect class="frame" height="370" width="145.53" x="0" y="0"/></g><g id="chrom-LR761641.1" transform="translate(1039.265271917344,0)"><polygon class="cov1" points="0,370 0,252.27 1,151.36 2,235.45 3,168.18 4,100.91 5,252.27 6,302.73 7,218.64 8,302.73 9,168.18 10,151.36 11,185 12,235.45 13,100.91 14,185 15,151.36 16,168.18 17,370 18,151.36 19,134.55 20,151.36 21,168.18 22,201.82 23,151.36 24,168.18 25,151.36 26,201.82 27,185 28,201.82 29,252.27 30,201.82 31,185 32,201.82 33,201.82 34,319.55 35,285.91 36,302.73 37,269.09 38,235.45 39,218.64 40,168.18 41,269.09 42,252.27 43,235.45 44,201.82 45,252.27 46,269.09 47,252.27 48,235.45 49,151.36 50,185 51,168.18 52,151.36 53,134.55 56,134.55 57,185 58,218.64 59,168.18 60,168.18 61,319.55 62,168.18 63,201.82 64,201.82 65,151.36 66,252.27 67,201.82 68,218.64 69,151.36 70,185 71,134.55 72,201.82 73,319.55 74,218.64 75,319.55 76,218.64 77,185 78,185 79,235.45 80,285.91 81,336.36 82,336.36 83,319.55 84,185 85,168.18 86,235.45 87,117.73 88,218.64 89,201.82 90,319.55 91,235.45 92,134.55 93,235.45 94,302.73 95,252.27 96,201.82 97,319.55 98,134.55 99,353.18 100,269.09 101,151.36 102,185 103,134.55 104,201.82 105,151.36 106,285.91 107,134.55 108,168.18 109,134.55 110,151.36 111,285.91 112,134.55 113,285.91 114,151.36 115,168.18 116,134.55 117,168.18 118,134.55 119,218.64 120,185 121,168.18 122,168.18 123,201.82 124,151.36 125,201.82 126,252.27 127,117.73 128,218.64 129,151.36 130,269.09 131,168.18 132,252.27 133,218.64 134,151.36 135,353.18 136,302.73 136.99,370"><title>LR761641.1</title></polygon><rect class="average" height="1" width="136.99" x="0" y="183.07"><title>average:11.11</title></rect><rect class="median" height="1" width="136.99" x="0" y="201.82"><title>median:10</title></rect><text class="chromName" x="68.5" y="-12">LR761641.1<title>LR761641.1 58,462,999 bp</title></text><rect class="frame" height="370" width="136.99" x="0" y="0"/></g><g id="chrom-LR761642.1" transform="translate(1177.25719230686,0)"><polygon class="cov0" points="0,370 0,302.73 2,302.73 3,285.91 4,319.55 5,353.18 6,302.73 7,319.55 8,319.55 9,302.73 10,336.36 11,302.73 12,235.45 13,134.55 14,201.82 15,185 16,285.91 17,252.27 18,302.73 19,269.09 20,218.64 21,168.18 22,269.09 23,285.91 24,168.18 25,134.55 26,168.18 27,201.82 28,285.91 29,151.36 30,235.45 31,151.36 32,168.18 33,235.45 34,168.18 35,319.55 36,168.18 37,168.18 38,134.55 39,185 40,151.36 41,185 42,151.36 43,168.18 44,168.18 45,235.45 46,168.18 47,252.27 48,285.91 49,302.73 50,218.64 51,201.82 52,218.64 53,134.55 54,151.36 55,235.45 56,185 57,201.82 58,218.64 59,151.36 60,151.36 61,285.91 62,218.64 63,168.18 64,201.82 65,185 66,168.18 67,336.36 68,252.27 69,168.18 70,151.36 71,269.09 72,151.36 73,201.82 74,151.36 75,218.64 76,285.91 77,151.36 78,151.36 79,252.27 80,235.45 81,185 82,319.55 83,269.09 84,302.73 85,235.45 86,336.36 86.91,370"><title>LR761642.1</title></polygon><rect class="average" height="1" width="86.91" x="0" y="187.51"><title>average:10.85</title></rect><rect class="median" height="1" width="86.91" x="0" y="218.64"><title>median:9</title></rect><text class="chromName" x="43.45" y="-12">LR761642.1<title>LR761642.1 37,089,910 bp</title></text><rect class="frame" height="370" width="86.91" x="0" y="0"/></g><g id="chrom-LR761643.1" transform="translate(1265.1671710093603,0)"><polygon class="cov1" points="0,370 0,336.36 1,285.91 2,168.18 3,117.73 4,151.36 5,201.82 6,185 7,185 8,134.55 9,134.55 10,151.36 11,168.18 12,134.55 13,201.82 14,252.27 15,151.36 16,134.55 17,151.36 18,168.18 19,185 20,353.18 21,168.18 22,134.55 23,151.36 24,218.64 25,185 26,353.18 27,319.55 28,319.55 29,151.36 30,235.45 31,185 32,235.45 33,151.36 34,168.18 35,218.64 36,252.27 37,151.36 38,168.18 39,134.55 40,168.18 41,168.18 42,201.82 43,285.91 44,168.18 45,185 46,134.55 47,218.64 48,168.18 49,151.36 50,185 51,151.36 52,168.18 53,185 54,185 55,151.36 56,134.55 57,151.36 59,151.36 60,134.55 61,151.36 62,185 63,168.18 64,168.18 65,185 66,168.18 67,168.18 68,185 69,168.18 70,168.18 71,218.64 72,185 73,285.91 74,151.36 75,201.82 76,168.18 77,134.55 78,218.64 79,285.91 80,151.36 81,134.55 82,168.18 83,151.36 84,134.55 85,134.55 86,168.18 87,134.55 88,185 89,319.55 90,185 91,151.36 92,134.55 93,168.18 94,134.55 95,168.18 96,134.55 97,151.36 98,134.55 99,134.55 100,151.36 101,218.64 102,151.36 103,151.36 104,168.18 105,151.36 106,134.55 107,134.55 108,168.18 109,134.55 111,134.55 112,151.36 113,252.27 114,168.18 115,151.36 116,117.73 117,134.55 118,168.18 119,168.18 120,134.55 123,134.55 124,151.36 125,151.36 126,117.73 127,201.82 128,151.36 129,134.55 130,185 131,252.27 132,134.55 133,269.09 134,353.18 134.83,370"><title>LR761643.1</title></polygon><rect class="average" height="1" width="134.83" x="0" y="171.96"><title>average:11.78</title></rect><rect class="median" height="1" width="134.83" x="0" y="168.18"><title>median:12</title></rect><text class="chromName" x="67.42" y="-12">LR761643.1<title>LR761643.1 57,541,580 bp</title></text><rect class="frame" height="370" width="134.83" x="0" y="0"/></g><g><line class="ruler" x1="-2" x2="1390" y1="333" y2="333"><title>2</title></line><text class="ruler" x="-5" y="333">2</text><line class="ruler" x1="-2" x2="1390" y1="296" y2="296"><title>4</title></line><text class="ruler" x="-5" y="296">4</text><line class="ruler" x1="-2" x2="1390" y1="259" y2="259"><title>6</title></line><text class="ruler" x="-5" y="259">6</text><line class="ruler" x1="-2" x2="1390" y1="222" y2="222"><title>8</title></line><text class="ruler" x="-5" y="222">8</text><line class="ruler" x1="-2" x2="1390" y1="185" y2="185"><title>11</title></line><text class="ruler" x="-5" y="185">11</text><line class="ruler" x1="-2" x2="1390" y1="148" y2="148"><title>13</title></line><text class="ruler" x="-5" y="148">13</text><line class="ruler" x1="-2" x2="1390" y1="111" y2="111"><title>15</title></line><text class="ruler" x="-5" y="111">15</text><line class="ruler" x1="-2" x2="1390" y1="74" y2="74"><title>17</title></line><text class="ruler" x="-5" y="74">17</text><line class="ruler" x1="-2" x2="1390" y1="37" y2="37"><title>19</title></line><text class="ruler" x="-5" y="37">19</text><line class="ruler" x1="-2" x2="1390" y1="0" y2="0"><title>22</title></line><text class="ruler" x="-5" y="0">22</text></g></g><text class="title" x="795" y="40">F2_M3_14.merged.realigned.bam F2_M3_14 F2_M3_14_1 F2_M3_14_2<title>./F2_M3_14.merged.realigned.bam</title></text><text class="xLabel" x="795" y="475">GCA_902806645.1_cgigas_uk_roslin_v1_genomic.fna  (589,358,857 bp)<title>../ref/GCA_902806645.1_cgigas_uk_roslin_v1_genomic.fna</title></text><text class="yLabel" transform="translate(25,265) rotate(90)" x="0" y="0">Coverage bp (median)</text></g></svg>