<?xml version="1.0" encoding="UTF-8" standalone="no"?><svg height="500" width="1500" xmlns="http://www.w3.org/2000/svg"><title>F2_M3_24.merged.realigned.bam</title><desc>Made with wgscoverageplotter undefined Author: Pierre Lindenbaum</desc><style>g.maing {stroke:black;stroke-width:0.5px;fill:none;}
text.title {stroke:none;fill:black;stroke-width:1px;text-anchor:middle;}
rect.frame {stroke:darkgray;fill:none;stroke-width:0.5px;}
text.ruler {stroke:none;fill:darkgray;stroke-width:1px;text-anchor:end;}
text.chromName {stroke:none;fill:darkgray;stroke-width:1px;text-anchor:middle;}
text.xLabel {stroke:none;fill:black;stroke-width:1px;text-anchor:middle;}
text.yLabel {stroke:none;fill:black;stroke-width:1px;text-anchor:middle;}
.cov0 {stroke:gray;fill:antiquewhite;stroke-width:0.5px;}
.cov1 {stroke:gray;fill:beige;stroke-width:0.5px;}
rect.average {stroke:green;fill:green;stroke-width:0.5px;opacity:0.3;}
rect.median {stroke:red;fill:red;stroke-width:0.5px;opacity:0.3;}
line.ruler {stroke:darkgray;stroke-dasharray:4;fill:none;stroke-width:1;}
</style><g class="maing"><g id="chromosomes" transform="translate(100.0,80.0)"><g id="chrom-LR761634.1" transform="translate(10.0,0)"><polygon class="cov0" points="0,370 0,303.93 1,145.36 2,158.57 3,317.14 4,237.86 5,171.79 6,277.5 7,185 8,158.57 9,132.14 10,145.36 11,118.93 12,158.57 13,211.43 14,237.86 15,145.36 16,132.14 17,185 18,132.14 20,132.14 21,145.36 22,145.36 23,158.57 24,171.79 25,132.14 27,132.14 28,158.57 29,145.36 30,132.14 31,145.36 32,264.29 33,145.36 34,145.36 35,158.57 36,132.14 37,185 38,185 39,145.36 40,132.14 41,132.14 42,145.36 43,185 44,158.57 45,198.21 46,198.21 47,145.36 49,145.36 50,158.57 51,158.57 52,132.14 53,158.57 54,198.21 55,224.64 56,132.14 57,132.14 58,145.36 59,158.57 60,158.57 61,132.14 62,158.57 63,185 64,211.43 65,185 66,158.57 67,211.43 68,145.36 69,211.43 70,158.57 71,145.36 72,198.21 73,171.79 74,158.57 75,145.36 76,145.36 77,185 78,185 79,145.36 80,290.71 81,264.29 82,145.36 83,145.36 84,158.57 85,145.36 86,132.14 87,198.21 88,132.14 89,264.29 90,158.57 91,145.36 92,145.36 93,171.79 94,118.93 95,132.14 96,118.93 97,158.57 98,303.93 99,145.36 100,145.36 101,198.21 102,158.57 103,171.79 104,171.79 105,132.14 106,211.43 107,198.21 108,211.43 109,118.93 110,105.71 111,132.14 112,118.93 113,158.57 114,237.86 115,198.21 116,118.93 117,132.14 118,118.93 119,145.36 120,158.57 121,118.93 122,132.14 123,118.93 124,132.14 125,105.71 126,132.14 127,132.14 128,185 129,158.57 130,198.21 130.72,370"><title>LR761634.1</title></polygon><rect class="average" height="1" width="130.72" x="0" y="159.01"><title>average:15.97</title></rect><rect class="median" height="1" width="130.72" x="0" y="158.57"><title>median:16</title></rect><text class="chromName" x="65.36" y="-12">LR761634.1<title>LR761634.1 55,785,328 bp</title></text><rect class="frame" height="370" width="130.72" x="0" y="0"/></g><g id="chrom-LR761635.1" transform="translate(141.71753661284166,0)"><polygon class="cov1" points="0,370 0,356.79 1,330.36 3,330.36 4,343.57 5,343.57 6,211.43 7,290.71 8,303.93 9,211.43 10,211.43 11,264.29 12,171.79 13,132.14 14,224.64 15,277.5 16,264.29 17,211.43 18,303.93 19,185 20,277.5 21,277.5 22,264.29 23,224.64 24,303.93 25,317.14 26,303.93 27,330.36 28,290.71 29,356.79 30,356.79 31,317.14 32,264.29 33,211.43 34,277.5 35,237.86 36,264.29 37,303.93 38,343.57 39,198.21 40,224.64 41,251.07 42,171.79 43,237.86 44,171.79 45,185 46,224.64 47,158.57 48,303.93 49,185 50,251.07 51,330.36 52,224.64 53,237.86 54,330.36 55,303.93 56,370 57,237.86 58,145.36 59,330.36 60,237.86 61,224.64 62,132.14 63,171.79 64,158.57 65,158.57 66,303.93 67,290.71 68,277.5 69,303.93 70,317.14 71,198.21 72,237.86 73,224.64 74,185 75,145.36 76,264.29 77,0 78,211.43 79,237.86 80,132.14 81,237.86 82,264.29 83,211.43 84,264.29 85,251.07 86,264.29 87,290.71 88,277.5 89,290.71 90,237.86 91,343.57 92,330.36 93,303.93 94,290.71 95,290.71 96,343.57 97,303.93 100,303.93 101,343.57 102,330.36 103,158.57 104,105.71 105,158.57 106,264.29 107,317.14 108,211.43 109,237.86 110,290.71 111,224.64 112,317.14 113,330.36 114,317.14 115,185 116,185 117,198.21 118,158.57 119,158.57 120,132.14 121,171.79 122,171.79 123,251.07 124,317.14 125,158.57 126,237.86 127,277.5 128,198.21 129,264.29 130,185 131,264.29 132,185 133,290.71 134,317.14 135,290.71 136,317.14 137,317.14 138,303.93 139,264.29 140,343.57 141,303.93 142,303.93 143,290.71 144,264.29 145,224.64 146,264.29 147,118.93 148,158.57 149,132.14 150,237.86 151,264.29 152,356.79 153,224.64 154,237.86 155,264.29 156,264.29 157,224.64 158,251.07 159,145.36 160,211.43 161,251.07 162,303.93 163,264.29 164,211.43 165,237.86 166,303.93 167,330.36 168,303.93 169,317.14 170,290.71 171,317.14 171.58,370"><title>LR761635.1</title></polygon><rect class="average" height="1" width="171.58" x="0" y="204.86"><title>average:12.5</title></rect><rect class="median" height="1" width="171.58" x="0" y="264.29"><title>median:8</title></rect><text class="chromName" x="85.79" y="-12">LR761635.1<title>LR761635.1 73,222,313 bp</title></text><rect class="frame" height="370" width="171.58" x="0" y="0"/></g><g id="chrom-LR761636.1" transform="translate(314.2938403401308,0)"><polygon class="cov0" points="0,370 0,330.36 1,132.14 2,237.86 3,317.14 4,224.64 5,132.14 6,132.14 7,145.36 8,118.93 9,132.14 10,118.93 11,132.14 12,145.36 13,211.43 14,118.93 15,132.14 16,118.93 17,118.93 18,145.36 19,171.79 20,145.36 21,145.36 22,132.14 23,132.14 24,198.21 25,145.36 26,211.43 27,251.07 28,132.14 29,132.14 30,145.36 31,132.14 33,132.14 34,158.57 35,171.79 36,132.14 37,185 38,158.57 39,145.36 40,158.57 41,171.79 42,185 43,171.79 44,145.36 45,158.57 46,185 47,132.14 48,185 49,158.57 50,185 51,132.14 52,145.36 53,145.36 54,264.29 55,185 56,171.79 57,132.14 58,171.79 59,145.36 60,171.79 61,224.64 62,171.79 63,145.36 64,145.36 65,171.79 66,158.57 67,158.57 68,171.79 69,158.57 70,185 71,132.14 72,132.14 73,185 74,158.57 75,158.57 76,290.71 77,211.43 78,237.86 79,251.07 80,277.5 81,145.36 82,211.43 83,158.57 84,132.14 85,145.36 86,251.07 87,158.57 88,158.57 89,198.21 90,158.57 91,132.14 92,185 93,158.57 94,145.36 95,158.57 96,211.43 97,145.36 98,145.36 99,185 100,158.57 101,145.36 102,158.57 103,118.93 104,145.36 107,145.36 108,132.14 109,145.36 110,132.14 111,171.79 112,158.57 113,171.79 114,145.36 115,132.14 116,132.14 117,158.57 118,185 119,145.36 121,145.36 122,132.14 123,132.14 124,198.21 125,132.14 126,118.93 127,198.21 128,264.29 129,118.93 130,145.36 133,145.36 134,132.14 135,132.14 136,211.43 136.65,370"><title>LR761636.1</title></polygon><rect class="average" height="1" width="136.65" x="0" y="159.27"><title>average:15.95</title></rect><rect class="median" height="1" width="136.65" x="0" y="158.57"><title>median:16</title></rect><text class="chromName" x="68.33" y="-12">LR761636.1<title>LR761636.1 58,319,100 bp</title></text><rect class="frame" height="370" width="136.65" x="0" y="0"/></g><g id="chrom-LR761637.1" transform="translate(451.9485730949149,0)"><polygon class="cov1" points="0,370 0,356.79 1,277.5 2,264.29 3,237.86 4,211.43 5,185 6,198.21 7,251.07 8,224.64 9,290.71 10,277.5 11,171.79 12,237.86 13,303.93 14,290.71 15,171.79 16,224.64 17,118.93 18,290.71 19,303.93 20,224.64 21,158.57 22,158.57 23,237.86 24,343.57 25,145.36 26,145.36 27,211.43 28,198.21 29,264.29 30,264.29 31,145.36 32,145.36 33,185 34,132.14 35,198.21 36,317.14 37,237.86 38,171.79 39,158.57 40,158.57 41,317.14 42,264.29 43,251.07 44,317.14 45,237.86 46,158.57 47,158.57 48,132.14 49,145.36 50,185 51,145.36 52,118.93 53,158.57 54,132.14 55,145.36 56,171.79 57,237.86 58,277.5 59,317.14 60,317.14 61,237.86 62,145.36 63,158.57 64,145.36 65,171.79 66,158.57 67,171.79 68,198.21 69,145.36 70,171.79 71,158.57 72,185 73,145.36 74,171.79 75,158.57 76,158.57 77,171.79 78,118.93 79,171.79 80,171.79 81,158.57 82,145.36 83,158.57 84,145.36 85,132.14 86,224.64 87,171.79 88,145.36 89,145.36 90,132.14 91,145.36 92,132.14 93,171.79 94,211.43 95,211.43 96,185 97,158.57 98,118.93 99,118.93 100,251.07 101,303.93 103,303.93 104,317.14 105,224.64 106,118.93 107,118.93 108,132.14 109,118.93 110,105.71 111,145.36 112,145.36 113,118.93 114,317.14 115,185 116,185 117,171.79 118,158.57 119,303.93 120,171.79 121,132.14 122,343.57 123,356.79 124,330.36 124.49,370"><title>LR761637.1</title></polygon><rect class="average" height="1" width="124.49" x="0" y="182.29"><title>average:14.21</title></rect><rect class="median" height="1" width="124.49" x="0" y="185"><title>median:14</title></rect><text class="chromName" x="62.25" y="-12">LR761637.1<title>LR761637.1 53,127,865 bp</title></text><rect class="frame" height="370" width="124.49" x="0" y="0"/></g><g id="chrom-LR761638.1" transform="translate(577.4390778079033,0)"><polygon class="cov0" points="0,370 0,251.07 1,171.79 2,303.93 3,145.36 4,185 5,105.71 6,198.21 7,185 8,224.64 9,118.93 10,158.57 11,303.93 12,132.14 13,171.79 14,118.93 15,158.57 16,132.14 17,132.14 18,224.64 19,330.36 20,132.14 21,198.21 22,132.14 24,132.14 25,171.79 26,317.14 27,118.93 28,185 29,303.93 30,224.64 31,145.36 32,370 33,343.57 34,198.21 35,237.86 36,158.57 37,277.5 38,237.86 39,330.36 40,343.57 41,317.14 42,237.86 43,158.57 44,158.57 45,290.71 46,211.43 47,105.71 48,132.14 49,224.64 50,370 51,290.71 52,171.79 53,185 54,211.43 55,264.29 56,158.57 57,224.64 58,198.21 59,185 60,264.29 61,211.43 62,158.57 63,264.29 64,277.5 65,343.57 66,185 67,198.21 68,158.57 69,251.07 70,171.79 71,277.5 72,356.79 73,290.71 74,251.07 75,330.36 76,264.29 77,211.43 78,356.79 79,290.71 80,277.5 81,171.79 82,290.71 83,330.36 84,290.71 85,198.21 86,145.36 87,171.79 88,330.36 89,145.36 90,224.64 91,158.57 92,118.93 93,132.14 94,145.36 95,224.64 96,290.71 97,158.57 98,277.5 99,185 100,198.21 101,171.79 102,330.36 103,171.79 104,277.5 105,317.14 106,224.64 107,171.79 108,251.07 109,171.79 110,211.43 111,171.79 112,317.14 113,237.86 114,264.29 115,277.5 116,317.14 117,343.57 118,330.36 119,290.71 120,277.5 121,356.79 123,356.79 124,303.93 125,317.14 126,303.93 127,251.07 128,370 129,277.5 130,330.36 131,290.71 132,277.5 133,343.57 134,290.71 135,303.93 136,158.57 137,370 138,356.79 139,264.29 140,370 141,356.79 142,343.57 143,277.5 144,171.79 145,198.21 146,303.93 147,145.36 148,171.79 149,145.36 150,198.21 151,303.93 152,171.79 153,158.57 154,264.29 155,290.71 156,198.21 157,303.93 158,277.5 159,303.93 160,343.57 161,303.93 162,277.5 163,211.43 164,277.5 165,356.79 166,343.57 167,356.79 168,356.79 169,237.86 170,343.57 171,356.79 172,356.79 172.35,370"><title>LR761638.1</title></polygon><rect class="average" height="1" width="172.35" x="0" y="209.74"><title>average:12.13</title></rect><rect class="median" height="1" width="172.35" x="0" y="251.07"><title>median:9</title></rect><text class="chromName" x="86.17" y="-12">LR761638.1<title>LR761638.1 73,550,375 bp</title></text><rect class="frame" height="370" width="172.35" x="0" y="0"/></g><g id="chrom-LR761639.1" transform="translate(750.784104388203,0)"><polygon class="cov1" points="0,370 0,317.14 1,158.57 2,118.93 3,290.71 4,132.14 5,251.07 6,356.79 7,211.43 8,145.36 9,132.14 10,158.57 11,264.29 12,224.64 13,132.14 14,158.57 15,132.14 16,145.36 17,132.14 20,132.14 21,145.36 22,158.57 23,171.79 24,185 25,211.43 26,171.79 27,330.36 28,356.79 29,224.64 30,264.29 31,145.36 32,171.79 33,132.14 34,198.21 35,211.43 36,224.64 37,158.57 38,145.36 39,145.36 40,224.64 41,118.93 42,158.57 43,118.93 44,158.57 45,145.36 46,171.79 47,158.57 48,145.36 49,171.79 50,158.57 51,145.36 52,171.79 53,171.79 54,158.57 55,145.36 56,145.36 57,158.57 58,158.57 59,145.36 61,145.36 62,158.57 63,158.57 64,132.14 65,145.36 66,158.57 67,145.36 68,158.57 69,211.43 70,145.36 71,158.57 72,158.57 73,145.36 74,198.21 75,145.36 76,145.36 77,158.57 78,145.36 79,145.36 80,171.79 81,132.14 82,145.36 83,145.36 84,211.43 85,158.57 86,132.14 87,145.36 88,132.14 89,145.36 90,132.14 91,145.36 92,145.36 93,185 94,158.57 95,158.57 96,145.36 97,132.14 98,132.14 99,145.36 103,145.36 104,132.14 105,132.14 106,251.07 107,145.36 108,132.14 109,145.36 110,145.36 111,290.71 112,185 113,132.14 114,185 115,132.14 116,158.57 117,132.14 118,145.36 119,132.14 120,158.57 121,132.14 122,132.14 123,145.36 124,158.57 125,132.14 126,132.14 127,145.36 128,145.36 129,132.14 130,158.57 131,132.14 132,171.79 133,317.14 134,118.93 135,171.79 136,132.14 137,158.57 138,185 139,158.57 140,237.86 140.95,370"><title>LR761639.1</title></polygon><rect class="average" height="1" width="140.95" x="0" y="160.11"><title>average:15.88</title></rect><rect class="median" height="1" width="140.95" x="0" y="158.57"><title>median:16</title></rect><text class="chromName" x="70.47" y="-12">LR761639.1<title>LR761639.1 60,151,564 bp</title></text><rect class="frame" height="370" width="140.95" x="0" y="0"/></g><g id="chrom-LR761640.1" transform="translate(892.7327113317651,0)"><polygon class="cov0" points="0,370 0,185 1,118.93 2,198.21 3,158.57 4,158.57 5,118.93 6,185 7,185 8,132.14 11,132.14 12,118.93 13,264.29 14,158.57 15,145.36 16,224.64 17,145.36 18,132.14 19,198.21 20,132.14 21,145.36 22,132.14 23,132.14 24,145.36 25,158.57 26,132.14 27,132.14 28,145.36 30,145.36 31,118.93 32,145.36 33,145.36 34,158.57 35,145.36 36,145.36 37,211.43 38,132.14 39,158.57 40,118.93 41,132.14 42,105.71 43,132.14 44,132.14 45,145.36 46,145.36 47,251.07 48,290.71 49,118.93 50,158.57 51,145.36 52,132.14 53,158.57 54,132.14 55,145.36 56,145.36 57,251.07 58,158.57 59,185 60,237.86 61,145.36 62,158.57 63,185 64,145.36 65,290.71 66,145.36 67,158.57 68,158.57 69,198.21 70,198.21 71,158.57 72,171.79 73,211.43 74,185 75,158.57 76,145.36 77,237.86 78,145.36 79,185 80,105.71 81,105.71 82,118.93 83,145.36 84,158.57 85,145.36 86,317.14 87,171.79 88,171.79 89,185 90,171.79 91,264.29 92,290.71 93,198.21 94,277.5 95,158.57 98,158.57 99,145.36 100,132.14 101,211.43 102,343.57 103,237.86 104,145.36 106,145.36 107,158.57 108,211.43 109,145.36 110,171.79 111,198.21 112,158.57 114,158.57 115,145.36 116,277.5 117,330.36 118,356.79 119,317.14 120,145.36 121,132.14 122,145.36 124,145.36 125,132.14 126,145.36 127,145.36 128,264.29 129,158.57 130,132.14 131,132.14 132,158.57 133,132.14 134,118.93 135,92.5 136,132.14 137,145.36 138,132.14 139,185 140,118.93 141,132.14 142,158.57 143,198.21 144,132.14 145,118.93 145.53,370"><title>LR761640.1</title></polygon><rect class="average" height="1" width="145.53" x="0" y="163.71"><title>average:15.61</title></rect><rect class="median" height="1" width="145.53" x="0" y="158.57"><title>median:16</title></rect><text class="chromName" x="72.77" y="-12">LR761640.1<title>LR761640.1 62,107,823 bp</title></text><rect class="frame" height="370" width="145.53" x="0" y="0"/></g><g id="chrom-LR761641.1" transform="translate(1039.265271917344,0)"><polygon class="cov1" points="0,370 0,251.07 1,145.36 2,224.64 3,171.79 4,105.71 5,251.07 6,317.14 7,211.43 8,303.93 9,171.79 10,145.36 11,171.79 12,224.64 13,92.5 14,185 15,132.14 16,158.57 17,370 18,145.36 19,132.14 20,145.36 21,158.57 22,198.21 23,145.36 24,158.57 25,145.36 26,185 27,171.79 28,198.21 29,237.86 30,185 31,185 32,198.21 33,198.21 34,317.14 35,290.71 36,303.93 37,264.29 38,237.86 39,224.64 40,171.79 41,264.29 42,237.86 43,237.86 44,198.21 45,237.86 46,277.5 47,237.86 48,224.64 49,158.57 50,171.79 51,158.57 52,145.36 53,132.14 56,132.14 57,171.79 58,211.43 59,158.57 60,158.57 61,317.14 62,158.57 63,185 64,198.21 65,145.36 66,237.86 67,198.21 68,211.43 69,145.36 70,185 71,118.93 72,198.21 73,317.14 74,211.43 75,317.14 76,224.64 77,185 78,171.79 79,237.86 80,277.5 81,330.36 82,330.36 83,317.14 84,185 85,145.36 86,237.86 87,118.93 88,211.43 89,198.21 90,317.14 91,224.64 92,132.14 93,237.86 94,303.93 95,237.86 96,198.21 97,317.14 98,132.14 99,356.79 100,264.29 101,145.36 102,171.79 103,132.14 104,185 105,132.14 106,277.5 107,132.14 108,158.57 109,132.14 110,132.14 111,290.71 112,132.14 113,277.5 114,145.36 115,171.79 116,118.93 117,171.79 118,132.14 119,198.21 120,185 121,158.57 122,158.57 123,185 124,145.36 125,198.21 126,237.86 127,118.93 128,224.64 129,145.36 130,264.29 131,158.57 132,251.07 133,211.43 134,145.36 135,343.57 136,303.93 136.99,370"><title>LR761641.1</title></polygon><rect class="average" height="1" width="136.99" x="0" y="179.16"><title>average:14.44</title></rect><rect class="median" height="1" width="136.99" x="0" y="198.21"><title>median:13</title></rect><text class="chromName" x="68.5" y="-12">LR761641.1<title>LR761641.1 58,462,999 bp</title></text><rect class="frame" height="370" width="136.99" x="0" y="0"/></g><g id="chrom-LR761642.1" transform="translate(1177.25719230686,0)"><polygon class="cov0" points="0,370 0,303.93 1,290.71 2,303.93 3,277.5 4,317.14 5,356.79 6,303.93 7,317.14 8,317.14 9,290.71 10,330.36 11,290.71 12,237.86 13,132.14 14,185 15,185 16,277.5 17,251.07 18,290.71 19,264.29 20,224.64 21,171.79 22,264.29 23,290.71 24,158.57 25,132.14 26,158.57 27,185 28,277.5 29,145.36 30,237.86 31,132.14 32,171.79 33,237.86 34,158.57 35,317.14 36,158.57 37,158.57 38,132.14 39,185 40,145.36 41,185 42,132.14 43,145.36 44,158.57 45,224.64 46,158.57 47,251.07 48,277.5 49,290.71 50,211.43 51,185 52,198.21 53,118.93 54,145.36 55,224.64 56,171.79 57,198.21 58,211.43 59,145.36 60,158.57 61,277.5 62,211.43 63,158.57 64,198.21 65,185 66,158.57 67,330.36 68,237.86 69,158.57 70,145.36 71,277.5 72,145.36 73,185 74,145.36 75,211.43 76,290.71 77,145.36 78,145.36 79,251.07 80,237.86 81,185 82,317.14 83,264.29 84,303.93 85,224.64 86,330.36 86.91,370"><title>LR761642.1</title></polygon><rect class="average" height="1" width="86.91" x="0" y="183.77"><title>average:14.09</title></rect><rect class="median" height="1" width="86.91" x="0" y="211.43"><title>median:12</title></rect><text class="chromName" x="43.45" y="-12">LR761642.1<title>LR761642.1 37,089,910 bp</title></text><rect class="frame" height="370" width="86.91" x="0" y="0"/></g><g id="chrom-LR761643.1" transform="translate(1265.1671710093603,0)"><polygon class="cov1" points="0,370 0,330.36 1,277.5 2,158.57 3,118.93 4,158.57 5,198.21 6,171.79 7,171.79 8,132.14 9,118.93 10,145.36 11,171.79 12,132.14 13,198.21 14,251.07 15,145.36 16,132.14 17,145.36 18,158.57 19,171.79 20,356.79 21,171.79 22,132.14 23,145.36 24,211.43 25,185 26,356.79 27,303.93 28,317.14 29,145.36 30,224.64 31,171.79 32,237.86 33,145.36 34,158.57 35,211.43 36,251.07 37,145.36 38,158.57 39,145.36 40,158.57 41,171.79 42,198.21 43,290.71 44,171.79 45,185 46,132.14 47,224.64 48,171.79 49,158.57 50,171.79 51,145.36 52,158.57 53,171.79 54,171.79 55,158.57 56,145.36 57,145.36 58,158.57 59,145.36 60,118.93 61,145.36 62,171.79 63,158.57 64,171.79 65,185 66,158.57 67,171.79 68,171.79 69,158.57 70,171.79 71,211.43 72,185 73,277.5 74,145.36 75,198.21 76,158.57 77,145.36 78,211.43 79,277.5 80,145.36 81,132.14 82,158.57 83,145.36 84,132.14 85,145.36 86,158.57 87,132.14 88,171.79 89,317.14 90,185 91,145.36 92,132.14 93,158.57 94,132.14 95,158.57 96,132.14 97,145.36 98,145.36 99,132.14 100,145.36 101,224.64 102,145.36 103,158.57 104,171.79 105,158.57 106,145.36 107,132.14 108,158.57 109,132.14 111,132.14 112,145.36 113,237.86 114,158.57 115,145.36 116,118.93 117,132.14 118,158.57 119,171.79 120,132.14 123,132.14 124,145.36 125,145.36 126,118.93 127,185 128,145.36 129,118.93 130,171.79 131,251.07 132,132.14 133,264.29 134,343.57 134.83,370"><title>LR761643.1</title></polygon><rect class="average" height="1" width="134.83" x="0" y="170.54"><title>average:15.09</title></rect><rect class="median" height="1" width="134.83" x="0" y="158.57"><title>median:16</title></rect><text class="chromName" x="67.42" y="-12">LR761643.1<title>LR761643.1 57,541,580 bp</title></text><rect class="frame" height="370" width="134.83" x="0" y="0"/></g><g><line class="ruler" x1="-2" x2="1390" y1="333" y2="333"><title>2</title></line><text class="ruler" x="-5" y="333">2</text><line class="ruler" x1="-2" x2="1390" y1="296" y2="296"><title>5</title></line><text class="ruler" x="-5" y="296">5</text><line class="ruler" x1="-2" x2="1390" y1="259" y2="259"><title>8</title></line><text class="ruler" x="-5" y="259">8</text><line class="ruler" x1="-2" x2="1390" y1="222" y2="222"><title>11</title></line><text class="ruler" x="-5" y="222">11</text><line class="ruler" x1="-2" x2="1390" y1="185" y2="185"><title>14</title></line><text class="ruler" x="-5" y="185">14</text><line class="ruler" x1="-2" x2="1390" y1="148" y2="148"><title>16</title></line><text class="ruler" x="-5" y="148">16</text><line class="ruler" x1="-2" x2="1390" y1="111" y2="111"><title>19</title></line><text class="ruler" x="-5" y="111">19</text><line class="ruler" x1="-2" x2="1390" y1="74" y2="74"><title>22</title></line><text class="ruler" x="-5" y="74">22</text><line class="ruler" x1="-2" x2="1390" y1="37" y2="37"><title>25</title></line><text class="ruler" x="-5" y="37">25</text><line class="ruler" x1="-2" x2="1390" y1="0" y2="0"><title>28</title></line><text class="ruler" x="-5" y="0">28</text></g></g><text class="title" x="795" y="40">F2_M3_24.merged.realigned.bam F2_M3_24 F2_M3_24_1 F2_M3_24_2<title>./F2_M3_24.merged.realigned.bam</title></text><text class="xLabel" x="795" y="475">GCA_902806645.1_cgigas_uk_roslin_v1_genomic.fna  (589,358,857 bp)<title>../ref/GCA_902806645.1_cgigas_uk_roslin_v1_genomic.fna</title></text><text class="yLabel" transform="translate(25,265) rotate(90)" x="0" y="0">Coverage bp (median)</text></g></svg>