<?xml version="1.0" encoding="UTF-8" standalone="no"?><svg height="500" width="1500" xmlns="http://www.w3.org/2000/svg"><title>F2_M2_14.merged.realigned.bam</title><desc>Made with wgscoverageplotter undefined Author: Pierre Lindenbaum</desc><style>g.maing {stroke:black;stroke-width:0.5px;fill:none;}
text.title {stroke:none;fill:black;stroke-width:1px;text-anchor:middle;}
rect.frame {stroke:darkgray;fill:none;stroke-width:0.5px;}
text.ruler {stroke:none;fill:darkgray;stroke-width:1px;text-anchor:end;}
text.chromName {stroke:none;fill:darkgray;stroke-width:1px;text-anchor:middle;}
text.xLabel {stroke:none;fill:black;stroke-width:1px;text-anchor:middle;}
text.yLabel {stroke:none;fill:black;stroke-width:1px;text-anchor:middle;}
.cov0 {stroke:gray;fill:antiquewhite;stroke-width:0.5px;}
.cov1 {stroke:gray;fill:beige;stroke-width:0.5px;}
rect.average {stroke:green;fill:green;stroke-width:0.5px;opacity:0.3;}
rect.median {stroke:red;fill:red;stroke-width:0.5px;opacity:0.3;}
line.ruler {stroke:darkgray;stroke-dasharray:4;fill:none;stroke-width:1;}
</style><g class="maing"><g id="chromosomes" transform="translate(100.0,80.0)"><g id="chrom-LR761634.1" transform="translate(10.0,0)"><polygon class="cov0" points="0,370 0,308.33 1,154.17 2,138.75 3,323.75 4,215.83 5,169.58 6,277.5 7,185 8,154.17 9,138.75 10,154.17 11,123.33 12,154.17 13,200.42 14,215.83 15,138.75 16,138.75 17,231.25 18,138.75 19,138.75 20,123.33 21,138.75 22,154.17 23,169.58 24,154.17 25,123.33 26,138.75 27,123.33 28,154.17 29,123.33 30,123.33 31,138.75 32,262.08 33,123.33 34,138.75 35,154.17 36,123.33 37,185 38,200.42 39,154.17 40,138.75 41,123.33 42,138.75 43,185 44,169.58 45,200.42 46,169.58 47,138.75 48,154.17 49,138.75 50,154.17 51,138.75 52,123.33 53,138.75 54,262.08 55,339.17 56,123.33 57,107.92 58,138.75 59,154.17 60,154.17 61,123.33 62,154.17 63,185 64,200.42 65,169.58 66,138.75 67,200.42 68,138.75 69,215.83 70,138.75 71,138.75 72,200.42 73,169.58 74,154.17 75,123.33 76,138.75 77,185 78,169.58 79,138.75 80,308.33 81,292.92 82,123.33 83,138.75 84,154.17 85,138.75 86,123.33 87,200.42 88,123.33 89,262.08 90,169.58 91,154.17 92,138.75 93,169.58 94,123.33 96,123.33 97,169.58 98,308.33 99,138.75 100,138.75 101,185 102,154.17 103,154.17 104,185 105,123.33 106,215.83 107,185 108,200.42 109,123.33 110,107.92 111,138.75 112,123.33 113,138.75 114,262.08 115,200.42 116,123.33 117,123.33 118,107.92 119,154.17 120,169.58 121,138.75 122,138.75 123,123.33 124,138.75 125,123.33 126,138.75 127,154.17 128,200.42 129,185 130,215.83 130.72,370"><title>LR761634.1</title></polygon><rect class="average" height="1" width="130.72" x="0" y="156.98"><title>average:13.82</title></rect><rect class="median" height="1" width="130.72" x="0" y="154.17"><title>median:14</title></rect><text class="chromName" x="65.36" y="-12">LR761634.1<title>LR761634.1 55,785,328 bp</title></text><rect class="frame" height="370" width="130.72" x="0" y="0"/></g><g id="chrom-LR761635.1" transform="translate(141.71753661284166,0)"><polygon class="cov1" points="0,370 0,354.58 1,354.58 2,323.75 3,308.33 4,354.58 5,354.58 6,262.08 7,292.92 8,323.75 9,200.42 10,185 11,262.08 12,231.25 13,169.58 14,231.25 15,292.92 16,308.33 17,246.67 18,277.5 19,262.08 20,262.08 21,277.5 22,277.5 23,200.42 24,308.33 25,323.75 26,308.33 27,323.75 28,262.08 29,339.17 31,339.17 32,262.08 33,231.25 36,231.25 37,308.33 38,339.17 39,185 40,200.42 41,215.83 42,169.58 43,231.25 44,123.33 45,169.58 46,231.25 47,138.75 48,231.25 49,169.58 50,200.42 51,262.08 52,200.42 53,262.08 54,339.17 55,262.08 56,292.92 57,262.08 58,154.17 59,308.33 60,277.5 61,262.08 62,138.75 63,231.25 64,215.83 65,231.25 66,292.92 67,277.5 69,277.5 70,308.33 71,215.83 72,292.92 73,231.25 74,231.25 75,169.58 76,292.92 77,0 78,215.83 79,246.67 80,154.17 81,231.25 82,246.67 83,200.42 84,262.08 85,262.08 86,292.92 87,292.92 88,277.5 89,292.92 90,246.67 91,339.17 92,323.75 93,277.5 94,292.92 95,292.92 96,354.58 97,277.5 98,308.33 99,323.75 100,339.17 101,339.17 102,323.75 103,200.42 104,92.5 105,154.17 106,262.08 107,308.33 108,200.42 109,231.25 110,292.92 111,200.42 112,339.17 113,323.75 114,308.33 115,262.08 116,246.67 117,231.25 118,169.58 119,169.58 120,138.75 121,185 122,200.42 123,246.67 124,277.5 125,154.17 126,231.25 127,262.08 128,154.17 129,200.42 130,169.58 131,277.5 132,215.83 133,292.92 134,323.75 135,292.92 136,323.75 138,323.75 139,277.5 140,339.17 141,308.33 142,308.33 143,292.92 144,262.08 145,231.25 146,262.08 147,138.75 148,169.58 149,138.75 150,231.25 151,262.08 152,354.58 153,215.83 154,262.08 155,246.67 156,262.08 157,231.25 158,292.92 159,138.75 160,246.67 161,231.25 162,292.92 163,231.25 164,200.42 165,246.67 166,308.33 167,323.75 168,308.33 169,292.92 170,308.33 171,339.17 171.58,370"><title>LR761635.1</title></polygon><rect class="average" height="1" width="171.58" x="0" y="207.33"><title>average:10.55</title></rect><rect class="median" height="1" width="171.58" x="0" y="262.08"><title>median:7</title></rect><text class="chromName" x="85.79" y="-12">LR761635.1<title>LR761635.1 73,222,313 bp</title></text><rect class="frame" height="370" width="171.58" x="0" y="0"/></g><g id="chrom-LR761636.1" transform="translate(314.2938403401308,0)"><polygon class="cov0" points="0,370 0,339.17 1,185 2,262.08 3,339.17 4,231.25 5,123.33 6,154.17 7,169.58 8,138.75 9,154.17 10,123.33 11,154.17 12,154.17 13,231.25 14,123.33 15,138.75 16,123.33 17,123.33 18,169.58 19,154.17 20,138.75 23,138.75 24,200.42 25,123.33 26,215.83 27,262.08 28,123.33 29,107.92 30,138.75 31,107.92 32,123.33 33,123.33 34,154.17 35,200.42 36,123.33 37,169.58 38,154.17 39,138.75 40,123.33 41,154.17 42,169.58 43,154.17 44,138.75 45,154.17 46,185 47,138.75 48,200.42 49,154.17 50,169.58 51,123.33 52,138.75 53,138.75 54,262.08 55,185 56,154.17 57,123.33 58,154.17 59,138.75 60,154.17 61,231.25 62,154.17 63,138.75 64,138.75 65,169.58 66,154.17 67,154.17 68,169.58 69,154.17 70,185 71,123.33 72,123.33 73,154.17 75,154.17 76,292.92 77,231.25 78,231.25 79,246.67 80,262.08 81,138.75 82,231.25 83,154.17 84,123.33 85,138.75 86,246.67 87,154.17 88,138.75 89,200.42 90,154.17 91,123.33 92,185 93,154.17 94,138.75 95,154.17 96,215.83 97,138.75 98,138.75 99,185 100,169.58 101,138.75 102,154.17 103,107.92 104,138.75 107,138.75 108,123.33 109,138.75 110,138.75 111,169.58 112,154.17 113,154.17 114,123.33 116,123.33 117,138.75 118,185 119,138.75 120,138.75 121,215.83 122,123.33 123,138.75 124,185 125,123.33 126,123.33 127,185 128,262.08 129,123.33 130,138.75 131,169.58 132,138.75 133,154.17 134,138.75 135,123.33 136,200.42 136.65,370"><title>LR761636.1</title></polygon><rect class="average" height="1" width="136.65" x="0" y="156.43"><title>average:13.85</title></rect><rect class="median" height="1" width="136.65" x="0" y="154.17"><title>median:14</title></rect><text class="chromName" x="68.33" y="-12">LR761636.1<title>LR761636.1 58,319,100 bp</title></text><rect class="frame" height="370" width="136.65" x="0" y="0"/></g><g id="chrom-LR761637.1" transform="translate(451.9485730949149,0)"><polygon class="cov1" points="0,370 0,354.58 1,292.92 2,292.92 3,277.5 4,215.83 5,185 6,185 7,262.08 8,262.08 9,292.92 10,308.33 11,154.17 12,231.25 13,277.5 14,292.92 15,185 16,231.25 17,123.33 18,292.92 19,292.92 20,200.42 21,169.58 22,169.58 23,215.83 24,323.75 25,154.17 26,138.75 27,215.83 28,200.42 29,246.67 30,262.08 31,138.75 32,154.17 33,185 34,123.33 35,200.42 36,308.33 37,246.67 38,169.58 39,154.17 40,154.17 41,308.33 42,262.08 43,262.08 44,323.75 45,185 46,154.17 47,154.17 48,138.75 49,138.75 50,169.58 51,138.75 52,107.92 53,169.58 54,123.33 55,138.75 56,169.58 57,246.67 58,277.5 59,308.33 60,308.33 61,231.25 62,138.75 63,154.17 64,138.75 65,154.17 66,138.75 67,169.58 68,185 69,138.75 70,154.17 71,138.75 72,185 73,138.75 74,169.58 75,154.17 76,138.75 77,154.17 78,154.17 79,200.42 80,169.58 81,169.58 82,138.75 83,154.17 84,154.17 85,123.33 86,215.83 87,154.17 88,138.75 91,138.75 92,123.33 93,200.42 94,200.42 95,215.83 96,185 97,154.17 98,107.92 99,123.33 100,231.25 101,262.08 105,262.08 106,123.33 108,123.33 109,107.92 110,92.5 111,154.17 112,123.33 113,123.33 114,292.92 115,185 117,185 118,169.58 119,292.92 120,169.58 121,138.75 122,292.92 123,339.17 124,308.33 124.49,370"><title>LR761637.1</title></polygon><rect class="average" height="1" width="124.49" x="0" y="177.91"><title>average:12.46</title></rect><rect class="median" height="1" width="124.49" x="0" y="185"><title>median:12</title></rect><text class="chromName" x="62.25" y="-12">LR761637.1<title>LR761637.1 53,127,865 bp</title></text><rect class="frame" height="370" width="124.49" x="0" y="0"/></g><g id="chrom-LR761638.1" transform="translate(577.4390778079033,0)"><polygon class="cov0" points="0,370 0,215.83 1,123.33 2,308.33 3,154.17 4,215.83 5,154.17 6,200.42 8,200.42 9,138.75 10,185 11,277.5 12,138.75 13,169.58 14,123.33 15,154.17 16,107.92 17,138.75 18,262.08 19,354.58 20,138.75 21,200.42 22,138.75 23,123.33 24,123.33 25,169.58 26,277.5 27,123.33 28,200.42 29,308.33 30,262.08 31,154.17 32,354.58 33,339.17 34,200.42 35,215.83 36,154.17 37,308.33 38,277.5 39,339.17 40,354.58 41,308.33 42,246.67 43,169.58 44,169.58 45,277.5 46,169.58 47,123.33 48,123.33 49,215.83 50,292.92 51,231.25 52,154.17 53,169.58 54,200.42 55,246.67 56,154.17 57,246.67 58,154.17 59,185 60,215.83 61,231.25 62,169.58 63,323.75 64,308.33 65,339.17 66,185 67,200.42 68,169.58 69,262.08 70,185 71,339.17 72,354.58 73,292.92 74,262.08 75,339.17 76,339.17 77,215.83 78,339.17 79,323.75 80,292.92 81,154.17 82,262.08 83,339.17 84,308.33 85,185 86,138.75 87,169.58 88,323.75 89,138.75 90,262.08 91,154.17 92,123.33 93,123.33 94,154.17 95,200.42 96,292.92 97,169.58 98,277.5 99,185 100,185 101,169.58 102,308.33 103,185 104,277.5 105,292.92 106,231.25 107,169.58 108,215.83 109,185 110,246.67 111,185 112,308.33 113,231.25 114,262.08 115,262.08 116,323.75 117,308.33 118,323.75 119,308.33 120,262.08 121,354.58 122,354.58 123,370 124,292.92 125,308.33 126,323.75 127,292.92 128,370 129,292.92 130,323.75 131,323.75 132,277.5 133,354.58 134,262.08 135,308.33 136,169.58 137,370 138,354.58 139,277.5 140,354.58 141,354.58 142,339.17 143,292.92 144,154.17 145,200.42 146,277.5 147,154.17 148,169.58 149,169.58 150,200.42 151,308.33 152,169.58 153,154.17 154,246.67 155,292.92 156,200.42 157,292.92 158,277.5 159,323.75 160,354.58 161,308.33 162,292.92 163,169.58 164,308.33 165,354.58 168,354.58 169,215.83 170,370 171,354.58 172,354.58 172.35,370"><title>LR761638.1</title></polygon><rect class="average" height="1" width="172.35" x="0" y="209.65"><title>average:10.4</title></rect><rect class="median" height="1" width="172.35" x="0" y="246.67"><title>median:8</title></rect><text class="chromName" x="86.17" y="-12">LR761638.1<title>LR761638.1 73,550,375 bp</title></text><rect class="frame" height="370" width="172.35" x="0" y="0"/></g><g id="chrom-LR761639.1" transform="translate(750.784104388203,0)"><polygon class="cov1" points="0,370 0,308.33 1,154.17 2,107.92 3,246.67 4,154.17 5,231.25 6,354.58 7,231.25 8,138.75 9,138.75 10,169.58 11,262.08 12,231.25 13,138.75 14,154.17 15,138.75 16,138.75 17,123.33 20,123.33 21,138.75 22,154.17 23,169.58 24,169.58 25,200.42 26,185 27,323.75 28,354.58 29,246.67 30,231.25 31,138.75 32,154.17 33,123.33 34,200.42 35,185 36,215.83 37,138.75 39,138.75 40,231.25 41,123.33 42,138.75 43,123.33 44,154.17 45,123.33 46,169.58 47,138.75 48,138.75 49,169.58 50,154.17 51,138.75 52,169.58 54,169.58 55,138.75 56,138.75 57,154.17 58,138.75 60,138.75 61,123.33 62,138.75 63,169.58 64,123.33 65,123.33 66,154.17 67,138.75 68,138.75 69,200.42 70,154.17 71,138.75 72,154.17 73,138.75 74,200.42 75,138.75 77,138.75 78,123.33 79,138.75 80,169.58 81,123.33 82,123.33 83,138.75 84,200.42 85,154.17 86,123.33 87,138.75 88,123.33 90,123.33 91,138.75 92,138.75 93,185 94,154.17 95,138.75 96,138.75 97,123.33 98,123.33 99,138.75 103,138.75 104,123.33 105,123.33 106,246.67 107,123.33 108,123.33 109,138.75 110,138.75 111,292.92 112,185 113,123.33 114,185 115,123.33 116,138.75 117,123.33 118,138.75 119,123.33 120,154.17 121,123.33 122,138.75 123,138.75 124,169.58 125,123.33 126,123.33 127,138.75 128,154.17 129,123.33 130,169.58 131,138.75 132,185 133,323.75 134,123.33 135,185 136,154.17 137,154.17 138,185 139,169.58 140,277.5 140.95,370"><title>LR761639.1</title></polygon><rect class="average" height="1" width="140.95" x="0" y="154"><title>average:14.01</title></rect><rect class="median" height="1" width="140.95" x="0" y="154.17"><title>median:14</title></rect><text class="chromName" x="70.47" y="-12">LR761639.1<title>LR761639.1 60,151,564 bp</title></text><rect class="frame" height="370" width="140.95" x="0" y="0"/></g><g id="chrom-LR761640.1" transform="translate(892.7327113317651,0)"><polygon class="cov0" points="0,370 0,200.42 1,138.75 2,200.42 3,169.58 4,169.58 5,123.33 6,200.42 7,185 8,123.33 9,138.75 10,123.33 11,138.75 12,138.75 13,262.08 14,154.17 15,138.75 16,231.25 17,154.17 18,123.33 19,215.83 20,123.33 21,138.75 22,138.75 23,123.33 24,138.75 25,154.17 26,123.33 27,138.75 30,138.75 31,123.33 32,138.75 33,123.33 34,154.17 35,138.75 36,138.75 37,215.83 38,123.33 39,154.17 40,107.92 41,123.33 42,92.5 43,123.33 44,123.33 45,154.17 46,154.17 47,246.67 48,292.92 49,123.33 50,154.17 51,138.75 52,123.33 53,154.17 54,123.33 56,123.33 57,231.25 58,154.17 59,185 60,262.08 61,138.75 62,169.58 63,185 64,138.75 65,246.67 66,138.75 67,154.17 68,154.17 69,185 70,185 71,154.17 72,169.58 73,200.42 74,185 75,154.17 76,138.75 77,231.25 78,138.75 79,169.58 80,107.92 81,92.5 82,107.92 83,138.75 84,154.17 85,138.75 86,354.58 87,154.17 88,169.58 89,169.58 90,154.17 91,277.5 92,277.5 93,200.42 94,246.67 95,154.17 96,138.75 97,138.75 98,154.17 99,138.75 100,107.92 101,200.42 102,339.17 103,215.83 104,123.33 105,123.33 106,138.75 107,169.58 108,200.42 109,138.75 110,169.58 111,200.42 112,154.17 113,154.17 114,185 115,138.75 116,277.5 117,323.75 118,354.58 119,323.75 120,154.17 121,123.33 122,138.75 123,138.75 124,154.17 125,123.33 127,123.33 128,246.67 129,154.17 130,138.75 131,138.75 132,154.17 133,123.33 134,107.92 135,123.33 136,138.75 137,154.17 138,123.33 139,169.58 140,154.17 141,138.75 142,154.17 143,169.58 144,123.33 145,123.33 145.53,370"><title>LR761640.1</title></polygon><rect class="average" height="1" width="145.53" x="0" y="158.06"><title>average:13.75</title></rect><rect class="median" height="1" width="145.53" x="0" y="154.17"><title>median:14</title></rect><text class="chromName" x="72.77" y="-12">LR761640.1<title>LR761640.1 62,107,823 bp</title></text><rect class="frame" height="370" width="145.53" x="0" y="0"/></g><g id="chrom-LR761641.1" transform="translate(1039.265271917344,0)"><polygon class="cov1" points="0,370 0,277.5 1,169.58 2,231.25 3,185 4,107.92 5,246.67 6,308.33 7,262.08 8,308.33 9,185 10,154.17 11,200.42 12,231.25 13,107.92 14,200.42 15,138.75 16,154.17 17,370 18,154.17 19,123.33 20,138.75 21,185 22,215.83 23,169.58 24,169.58 25,154.17 26,246.67 27,215.83 28,246.67 29,277.5 30,231.25 31,200.42 32,262.08 33,231.25 34,292.92 35,277.5 36,339.17 37,277.5 38,277.5 39,262.08 40,169.58 41,292.92 42,323.75 43,323.75 44,246.67 45,215.83 46,246.67 47,277.5 48,277.5 49,154.17 50,169.58 51,154.17 52,138.75 53,123.33 55,123.33 56,138.75 57,169.58 58,200.42 59,169.58 60,154.17 61,277.5 62,169.58 63,200.42 64,215.83 65,185 66,246.67 67,200.42 68,246.67 69,154.17 70,231.25 71,123.33 72,185 73,323.75 74,215.83 75,323.75 76,200.42 77,169.58 78,169.58 79,231.25 80,277.5 81,354.58 82,339.17 83,323.75 84,169.58 85,138.75 86,231.25 87,123.33 88,200.42 89,185 90,308.33 91,277.5 92,123.33 93,277.5 94,292.92 95,215.83 96,169.58 97,323.75 98,138.75 99,370 100,292.92 101,138.75 102,185 103,123.33 104,185 105,138.75 106,231.25 107,138.75 108,154.17 109,138.75 110,138.75 111,292.92 112,123.33 113,277.5 114,154.17 115,185 116,123.33 117,185 118,154.17 119,215.83 120,200.42 121,169.58 122,185 123,231.25 124,169.58 125,185 126,262.08 127,123.33 128,231.25 129,138.75 130,277.5 131,200.42 132,262.08 133,231.25 134,138.75 135,354.58 136,292.92 136.99,370"><title>LR761641.1</title></polygon><rect class="average" height="1" width="136.99" x="0" y="187.02"><title>average:11.87</title></rect><rect class="median" height="1" width="136.99" x="0" y="215.83"><title>median:10</title></rect><text class="chromName" x="68.5" y="-12">LR761641.1<title>LR761641.1 58,462,999 bp</title></text><rect class="frame" height="370" width="136.99" x="0" y="0"/></g><g id="chrom-LR761642.1" transform="translate(1177.25719230686,0)"><polygon class="cov0" points="0,370 0,339.17 1,339.17 2,354.58 3,246.67 4,292.92 5,323.75 6,292.92 7,292.92 8,323.75 9,292.92 10,292.92 11,246.67 12,262.08 13,138.75 14,185 15,169.58 16,262.08 17,215.83 18,292.92 19,262.08 20,200.42 21,169.58 22,277.5 23,277.5 24,169.58 25,138.75 26,154.17 27,185 28,262.08 29,154.17 30,231.25 31,154.17 32,169.58 33,246.67 34,169.58 35,308.33 36,154.17 37,169.58 38,123.33 39,185 40,154.17 41,169.58 42,138.75 43,138.75 44,154.17 45,231.25 46,154.17 47,262.08 48,292.92 49,292.92 50,215.83 52,215.83 53,123.33 54,138.75 55,231.25 56,185 57,200.42 58,215.83 59,138.75 60,154.17 61,277.5 62,200.42 63,169.58 64,200.42 65,185 66,169.58 67,323.75 68,231.25 69,185 70,154.17 71,246.67 72,138.75 73,200.42 74,154.17 75,200.42 76,292.92 77,154.17 78,154.17 79,231.25 80,231.25 81,185 82,323.75 83,262.08 84,292.92 85,200.42 86,323.75 86.91,370"><title>LR761642.1</title></polygon><rect class="average" height="1" width="86.91" x="0" y="185.22"><title>average:11.99</title></rect><rect class="median" height="1" width="86.91" x="0" y="215.83"><title>median:10</title></rect><text class="chromName" x="43.45" y="-12">LR761642.1<title>LR761642.1 37,089,910 bp</title></text><rect class="frame" height="370" width="86.91" x="0" y="0"/></g><g id="chrom-LR761643.1" transform="translate(1265.1671710093603,0)"><polygon class="cov1" points="0,370 0,354.58 1,262.08 2,169.58 3,123.33 4,154.17 5,200.42 6,185 7,185 8,154.17 9,123.33 10,138.75 11,169.58 12,138.75 13,200.42 14,246.67 15,138.75 16,123.33 17,138.75 18,154.17 19,185 20,354.58 21,154.17 22,138.75 23,138.75 24,215.83 25,169.58 26,354.58 27,339.17 28,370 29,138.75 30,185 31,169.58 32,215.83 33,138.75 34,123.33 35,200.42 36,246.67 37,123.33 38,138.75 39,123.33 40,138.75 41,154.17 42,169.58 43,292.92 44,154.17 45,169.58 46,123.33 47,200.42 48,169.58 49,154.17 50,185 51,138.75 52,138.75 53,169.58 54,169.58 55,138.75 57,138.75 58,154.17 59,154.17 60,123.33 61,138.75 62,169.58 63,154.17 64,154.17 65,185 66,169.58 67,154.17 70,154.17 71,231.25 72,169.58 73,231.25 74,138.75 75,215.83 76,138.75 77,123.33 78,215.83 79,277.5 80,138.75 81,123.33 82,154.17 83,138.75 84,123.33 85,138.75 86,138.75 87,123.33 88,169.58 89,339.17 90,185 91,138.75 92,123.33 93,154.17 94,123.33 95,154.17 96,123.33 99,123.33 100,138.75 101,215.83 102,138.75 103,154.17 104,169.58 105,154.17 106,123.33 107,123.33 108,154.17 109,123.33 111,123.33 112,138.75 113,231.25 114,154.17 115,138.75 116,107.92 117,123.33 118,138.75 119,169.58 120,123.33 123,123.33 124,138.75 125,138.75 126,123.33 127,215.83 128,169.58 129,123.33 130,185 131,215.83 132,138.75 133,246.67 134,354.58 134.83,370"><title>LR761643.1</title></polygon><rect class="average" height="1" width="134.83" x="0" y="163.94"><title>average:13.37</title></rect><rect class="median" height="1" width="134.83" x="0" y="154.17"><title>median:14</title></rect><text class="chromName" x="67.42" y="-12">LR761643.1<title>LR761643.1 57,541,580 bp</title></text><rect class="frame" height="370" width="134.83" x="0" y="0"/></g><g><line class="ruler" x1="-2" x2="1390" y1="333" y2="333"><title>2</title></line><text class="ruler" x="-5" y="333">2</text><line class="ruler" x1="-2" x2="1390" y1="296" y2="296"><title>4</title></line><text class="ruler" x="-5" y="296">4</text><line class="ruler" x1="-2" x2="1390" y1="259" y2="259"><title>7</title></line><text class="ruler" x="-5" y="259">7</text><line class="ruler" x1="-2" x2="1390" y1="222" y2="222"><title>9</title></line><text class="ruler" x="-5" y="222">9</text><line class="ruler" x1="-2" x2="1390" y1="185" y2="185"><title>12</title></line><text class="ruler" x="-5" y="185">12</text><line class="ruler" x1="-2" x2="1390" y1="148" y2="148"><title>14</title></line><text class="ruler" x="-5" y="148">14</text><line class="ruler" x1="-2" x2="1390" y1="111" y2="111"><title>16</title></line><text class="ruler" x="-5" y="111">16</text><line class="ruler" x1="-2" x2="1390" y1="74" y2="74"><title>19</title></line><text class="ruler" x="-5" y="74">19</text><line class="ruler" x1="-2" x2="1390" y1="37" y2="37"><title>21</title></line><text class="ruler" x="-5" y="37">21</text><line class="ruler" x1="-2" x2="1390" y1="0" y2="0"><title>24</title></line><text class="ruler" x="-5" y="0">24</text></g></g><text class="title" x="795" y="40">F2_M2_14.merged.realigned.bam F2_M2_14 F2_M2_14_1 F2_M2_14_2<title>./F2_M2_14.merged.realigned.bam</title></text><text class="xLabel" x="795" y="475">GCA_902806645.1_cgigas_uk_roslin_v1_genomic.fna  (589,358,857 bp)<title>../ref/GCA_902806645.1_cgigas_uk_roslin_v1_genomic.fna</title></text><text class="yLabel" transform="translate(25,265) rotate(90)" x="0" y="0">Coverage bp (median)</text></g></svg>