<?xml version="1.0" encoding="UTF-8" standalone="no"?><svg height="500" width="1500" xmlns="http://www.w3.org/2000/svg"><title>F2_M2_24.merged.realigned.bam</title><desc>Made with wgscoverageplotter undefined Author: Pierre Lindenbaum</desc><style>g.maing {stroke:black;stroke-width:0.5px;fill:none;}
text.title {stroke:none;fill:black;stroke-width:1px;text-anchor:middle;}
rect.frame {stroke:darkgray;fill:none;stroke-width:0.5px;}
text.ruler {stroke:none;fill:darkgray;stroke-width:1px;text-anchor:end;}
text.chromName {stroke:none;fill:darkgray;stroke-width:1px;text-anchor:middle;}
text.xLabel {stroke:none;fill:black;stroke-width:1px;text-anchor:middle;}
text.yLabel {stroke:none;fill:black;stroke-width:1px;text-anchor:middle;}
.cov0 {stroke:gray;fill:antiquewhite;stroke-width:0.5px;}
.cov1 {stroke:gray;fill:beige;stroke-width:0.5px;}
rect.average {stroke:green;fill:green;stroke-width:0.5px;opacity:0.3;}
rect.median {stroke:red;fill:red;stroke-width:0.5px;opacity:0.3;}
line.ruler {stroke:darkgray;stroke-dasharray:4;fill:none;stroke-width:1;}
</style><g class="maing"><g id="chromosomes" transform="translate(100.0,80.0)"><g id="chrom-LR761634.1" transform="translate(10.0,0)"><polygon class="cov0" points="0,370 0,313.08 1,156.54 2,142.31 3,313.08 4,227.69 5,185 6,284.62 7,185 8,156.54 9,142.31 10,170.77 11,128.08 12,156.54 13,199.23 14,213.46 15,142.31 16,142.31 17,227.69 18,142.31 20,142.31 21,156.54 22,156.54 23,170.77 24,170.77 25,142.31 27,142.31 28,156.54 29,142.31 31,142.31 32,270.38 33,142.31 34,156.54 35,156.54 36,128.08 37,185 38,213.46 39,156.54 40,142.31 42,142.31 43,199.23 44,170.77 45,213.46 46,185 47,156.54 51,156.54 52,142.31 53,156.54 54,270.38 55,341.54 56,142.31 57,113.85 58,156.54 59,170.77 60,156.54 61,142.31 62,170.77 63,185 64,199.23 65,185 66,142.31 67,213.46 68,142.31 69,213.46 70,142.31 71,142.31 72,213.46 73,185 74,170.77 75,142.31 76,142.31 77,185 78,185 79,142.31 80,298.85 81,284.62 82,142.31 83,156.54 84,156.54 85,142.31 86,128.08 87,199.23 88,142.31 89,256.15 90,185 91,156.54 92,142.31 93,170.77 94,128.08 96,128.08 97,170.77 98,298.85 99,142.31 100,142.31 101,185 102,156.54 103,156.54 104,199.23 105,128.08 106,227.69 107,185 108,213.46 109,128.08 110,113.85 111,142.31 112,128.08 113,156.54 114,270.38 115,185 116,113.85 117,128.08 118,113.85 119,156.54 120,170.77 121,128.08 123,128.08 124,142.31 125,128.08 126,142.31 127,142.31 128,199.23 129,170.77 130,213.46 130.72,370"><title>LR761634.1</title></polygon><rect class="average" height="1" width="130.72" x="0" y="163.96"><title>average:14.48</title></rect><rect class="median" height="1" width="130.72" x="0" y="156.54"><title>median:15</title></rect><text class="chromName" x="65.36" y="-12">LR761634.1<title>LR761634.1 55,785,328 bp</title></text><rect class="frame" height="370" width="130.72" x="0" y="0"/></g><g id="chrom-LR761635.1" transform="translate(141.71753661284166,0)"><polygon class="cov1" points="0,370 0,355.77 1,355.77 2,327.31 3,298.85 4,341.54 5,355.77 6,256.15 7,298.85 8,327.31 9,185 10,170.77 11,256.15 12,227.69 13,156.54 14,227.69 15,284.62 16,313.08 17,241.92 18,270.38 19,241.92 20,256.15 21,284.62 22,270.38 23,199.23 24,298.85 25,327.31 26,298.85 27,327.31 28,256.15 29,341.54 31,341.54 32,256.15 33,227.69 35,227.69 36,213.46 37,298.85 38,327.31 39,185 40,185 41,199.23 42,170.77 43,227.69 44,128.08 45,156.54 46,227.69 47,142.31 48,227.69 49,170.77 50,199.23 51,256.15 52,185 53,270.38 54,327.31 55,256.15 56,284.62 57,256.15 58,156.54 59,313.08 60,284.62 61,256.15 62,142.31 63,241.92 64,227.69 65,241.92 66,284.62 67,270.38 69,270.38 70,313.08 71,213.46 72,284.62 73,241.92 74,227.69 75,170.77 76,284.62 77,0 78,213.46 79,241.92 80,156.54 81,227.69 82,227.69 83,185 84,256.15 85,256.15 86,270.38 87,284.62 88,270.38 89,284.62 90,241.92 91,341.54 92,327.31 93,284.62 94,298.85 95,298.85 96,341.54 97,284.62 98,298.85 99,327.31 100,341.54 101,341.54 102,327.31 103,199.23 104,99.62 105,156.54 106,256.15 107,313.08 108,199.23 109,213.46 110,298.85 111,213.46 112,327.31 113,327.31 114,298.85 115,256.15 116,256.15 117,241.92 118,170.77 119,170.77 120,142.31 121,170.77 122,199.23 123,241.92 124,284.62 125,156.54 126,227.69 127,256.15 128,156.54 129,185 130,170.77 131,270.38 132,227.69 133,284.62 134,327.31 135,298.85 136,327.31 137,313.08 138,327.31 139,284.62 140,341.54 141,298.85 143,298.85 144,256.15 145,241.92 146,256.15 147,142.31 148,170.77 149,142.31 150,227.69 151,270.38 152,355.77 153,213.46 154,256.15 155,241.92 156,256.15 157,227.69 158,284.62 159,142.31 160,241.92 161,227.69 162,284.62 163,213.46 164,199.23 165,241.92 166,298.85 167,313.08 168,298.85 169,284.62 170,298.85 171,327.31 171.58,370"><title>LR761635.1</title></polygon><rect class="average" height="1" width="171.58" x="0" y="206.14"><title>average:11.51</title></rect><rect class="median" height="1" width="171.58" x="0" y="256.15"><title>median:8</title></rect><text class="chromName" x="85.79" y="-12">LR761635.1<title>LR761635.1 73,222,313 bp</title></text><rect class="frame" height="370" width="171.58" x="0" y="0"/></g><g id="chrom-LR761636.1" transform="translate(314.2938403401308,0)"><polygon class="cov0" points="0,370 0,341.54 1,170.77 2,270.38 3,327.31 4,227.69 5,128.08 6,156.54 7,170.77 8,128.08 9,156.54 10,128.08 11,156.54 12,142.31 13,241.92 14,128.08 15,142.31 16,128.08 17,128.08 18,170.77 19,156.54 20,142.31 23,142.31 24,213.46 25,128.08 26,227.69 27,270.38 28,142.31 29,128.08 30,142.31 31,128.08 33,128.08 34,156.54 35,199.23 36,142.31 37,185 38,156.54 39,142.31 40,128.08 41,170.77 42,185 43,156.54 45,156.54 46,185 47,156.54 48,199.23 49,170.77 50,170.77 51,128.08 52,156.54 53,142.31 54,270.38 55,185 56,170.77 57,142.31 58,170.77 59,142.31 60,170.77 61,227.69 62,170.77 63,156.54 64,142.31 65,170.77 66,156.54 67,170.77 68,185 69,170.77 70,185 71,128.08 72,142.31 73,170.77 74,170.77 75,156.54 76,298.85 77,227.69 78,241.92 79,256.15 80,256.15 81,156.54 82,227.69 83,156.54 84,142.31 85,156.54 86,256.15 87,170.77 88,156.54 89,199.23 90,170.77 91,142.31 92,199.23 93,170.77 94,142.31 95,156.54 96,213.46 97,156.54 98,156.54 99,185 100,170.77 101,142.31 102,156.54 103,128.08 104,142.31 105,156.54 106,156.54 107,142.31 110,142.31 111,170.77 112,156.54 113,170.77 114,142.31 115,128.08 116,142.31 117,156.54 118,185 119,156.54 120,142.31 121,213.46 122,142.31 123,142.31 124,199.23 125,128.08 126,128.08 127,185 128,270.38 129,128.08 130,142.31 131,170.77 132,142.31 133,156.54 134,128.08 135,128.08 136,227.69 136.65,370"><title>LR761636.1</title></polygon><rect class="average" height="1" width="136.65" x="0" y="163.68"><title>average:14.5</title></rect><rect class="median" height="1" width="136.65" x="0" y="156.54"><title>median:15</title></rect><text class="chromName" x="68.33" y="-12">LR761636.1<title>LR761636.1 58,319,100 bp</title></text><rect class="frame" height="370" width="136.65" x="0" y="0"/></g><g id="chrom-LR761637.1" transform="translate(451.9485730949149,0)"><polygon class="cov1" points="0,370 0,355.77 1,298.85 2,298.85 3,270.38 4,213.46 5,170.77 6,185 7,256.15 8,270.38 9,298.85 10,313.08 11,156.54 12,227.69 13,270.38 14,284.62 15,170.77 16,227.69 17,128.08 18,298.85 19,298.85 20,185 21,170.77 22,170.77 23,213.46 24,313.08 25,142.31 26,142.31 27,227.69 28,199.23 29,241.92 30,256.15 31,142.31 32,156.54 33,185 34,128.08 35,199.23 36,313.08 37,241.92 38,170.77 39,156.54 40,156.54 41,313.08 42,256.15 43,270.38 44,327.31 45,185 46,156.54 47,170.77 48,142.31 49,142.31 50,185 51,156.54 52,113.85 53,170.77 54,128.08 55,156.54 56,170.77 57,241.92 58,284.62 59,313.08 60,313.08 61,241.92 62,156.54 66,156.54 67,170.77 68,199.23 69,142.31 70,170.77 71,156.54 72,185 73,142.31 74,185 75,170.77 76,156.54 77,156.54 78,170.77 79,199.23 80,170.77 81,170.77 82,142.31 83,156.54 84,156.54 85,128.08 86,213.46 87,170.77 88,142.31 89,156.54 90,142.31 92,142.31 93,199.23 94,199.23 95,227.69 96,199.23 97,156.54 98,128.08 99,128.08 100,227.69 101,241.92 102,256.15 104,256.15 105,270.38 106,128.08 108,128.08 109,113.85 110,99.62 111,156.54 112,128.08 113,128.08 114,298.85 115,185 117,185 118,156.54 119,298.85 120,156.54 121,128.08 122,284.62 123,341.54 124,298.85 124.49,370"><title>LR761637.1</title></polygon><rect class="average" height="1" width="124.49" x="0" y="181.87"><title>average:13.22</title></rect><rect class="median" height="1" width="124.49" x="0" y="185"><title>median:13</title></rect><text class="chromName" x="62.25" y="-12">LR761637.1<title>LR761637.1 53,127,865 bp</title></text><rect class="frame" height="370" width="124.49" x="0" y="0"/></g><g id="chrom-LR761638.1" transform="translate(577.4390778079033,0)"><polygon class="cov0" points="0,370 0,199.23 1,113.85 2,313.08 3,142.31 4,213.46 5,156.54 6,199.23 7,199.23 8,185 9,128.08 10,170.77 11,284.62 12,142.31 13,170.77 14,128.08 15,156.54 16,113.85 17,128.08 18,256.15 19,341.54 20,128.08 21,199.23 22,142.31 23,142.31 24,128.08 25,170.77 26,270.38 27,128.08 28,199.23 29,313.08 30,256.15 31,156.54 32,355.77 33,341.54 34,199.23 35,213.46 36,170.77 37,313.08 38,284.62 39,327.31 40,341.54 41,313.08 42,256.15 43,156.54 44,156.54 45,284.62 46,170.77 47,128.08 48,128.08 49,213.46 50,284.62 51,227.69 52,156.54 53,170.77 54,199.23 55,241.92 56,156.54 57,241.92 58,156.54 59,170.77 60,199.23 61,241.92 62,170.77 63,327.31 64,313.08 65,341.54 66,199.23 67,213.46 68,170.77 69,256.15 70,185 71,341.54 72,355.77 73,298.85 74,256.15 75,341.54 76,341.54 77,213.46 78,327.31 79,313.08 80,298.85 81,156.54 82,256.15 83,327.31 84,298.85 85,199.23 86,142.31 87,170.77 88,313.08 89,142.31 90,270.38 91,156.54 92,128.08 93,128.08 94,156.54 95,199.23 96,284.62 97,170.77 98,270.38 99,185 100,185 101,170.77 102,298.85 103,185 104,270.38 105,298.85 106,227.69 107,170.77 108,213.46 109,199.23 110,241.92 111,185 112,313.08 113,227.69 114,256.15 115,256.15 116,327.31 117,298.85 118,313.08 119,298.85 120,256.15 121,355.77 122,355.77 123,370 124,298.85 125,313.08 126,313.08 127,298.85 128,370 129,284.62 130,327.31 131,327.31 132,270.38 133,341.54 134,270.38 135,313.08 136,170.77 137,370 138,355.77 139,270.38 140,355.77 141,355.77 142,327.31 143,284.62 144,156.54 145,199.23 146,270.38 147,142.31 148,170.77 149,170.77 150,199.23 151,298.85 152,170.77 153,156.54 154,241.92 155,284.62 156,199.23 157,298.85 158,284.62 159,313.08 160,355.77 161,313.08 162,298.85 163,170.77 164,313.08 165,355.77 166,341.54 167,355.77 168,355.77 169,213.46 170,370 171,355.77 172,355.77 172.35,370"><title>LR761638.1</title></polygon><rect class="average" height="1" width="172.35" x="0" y="210.11"><title>average:11.24</title></rect><rect class="median" height="1" width="172.35" x="0" y="256.15"><title>median:8</title></rect><text class="chromName" x="86.17" y="-12">LR761638.1<title>LR761638.1 73,550,375 bp</title></text><rect class="frame" height="370" width="172.35" x="0" y="0"/></g><g id="chrom-LR761639.1" transform="translate(750.784104388203,0)"><polygon class="cov1" points="0,370 0,313.08 1,142.31 2,113.85 3,227.69 4,142.31 5,227.69 6,355.77 7,227.69 8,142.31 9,142.31 10,170.77 11,270.38 12,241.92 13,142.31 14,170.77 15,142.31 16,142.31 17,128.08 18,142.31 21,142.31 22,170.77 24,170.77 25,213.46 26,185 27,313.08 28,355.77 29,241.92 30,227.69 31,142.31 32,170.77 33,128.08 34,199.23 35,185 36,213.46 37,142.31 38,156.54 39,142.31 40,227.69 41,128.08 42,156.54 43,128.08 44,156.54 45,142.31 46,170.77 47,156.54 48,156.54 49,170.77 50,170.77 51,156.54 52,185 53,170.77 54,170.77 55,156.54 56,156.54 57,170.77 58,156.54 59,142.31 61,142.31 62,156.54 63,185 64,128.08 65,142.31 66,170.77 67,156.54 68,156.54 69,199.23 70,156.54 73,156.54 74,227.69 75,142.31 76,156.54 77,156.54 78,142.31 79,156.54 80,185 81,142.31 82,142.31 83,156.54 84,199.23 85,156.54 86,142.31 89,142.31 90,128.08 91,156.54 92,156.54 93,185 94,170.77 95,156.54 96,142.31 99,142.31 100,156.54 101,156.54 102,142.31 103,156.54 104,128.08 105,142.31 106,256.15 107,142.31 108,128.08 109,142.31 110,142.31 111,298.85 112,185 113,128.08 114,185 115,128.08 116,156.54 117,128.08 118,142.31 119,128.08 120,170.77 121,142.31 123,142.31 124,156.54 125,128.08 126,128.08 127,142.31 128,156.54 129,128.08 130,170.77 131,142.31 132,185 133,327.31 134,128.08 135,185 136,156.54 137,156.54 138,185 139,156.54 140,284.62 140.95,370"><title>LR761639.1</title></polygon><rect class="average" height="1" width="140.95" x="0" y="162.15"><title>average:14.61</title></rect><rect class="median" height="1" width="140.95" x="0" y="156.54"><title>median:15</title></rect><text class="chromName" x="70.47" y="-12">LR761639.1<title>LR761639.1 60,151,564 bp</title></text><rect class="frame" height="370" width="140.95" x="0" y="0"/></g><g id="chrom-LR761640.1" transform="translate(892.7327113317651,0)"><polygon class="cov0" points="0,370 0,199.23 1,128.08 2,199.23 3,156.54 4,170.77 5,128.08 6,185 7,185 8,128.08 9,142.31 10,128.08 12,128.08 13,256.15 14,156.54 15,142.31 16,227.69 17,156.54 18,128.08 19,213.46 20,142.31 22,142.31 23,128.08 24,142.31 25,170.77 26,128.08 27,142.31 28,156.54 29,142.31 33,142.31 34,170.77 35,142.31 36,156.54 37,213.46 38,128.08 39,170.77 40,128.08 41,142.31 42,113.85 43,128.08 44,142.31 45,170.77 46,156.54 47,270.38 48,298.85 49,142.31 50,170.77 51,156.54 52,142.31 53,170.77 54,142.31 56,142.31 57,241.92 58,156.54 59,199.23 60,270.38 61,142.31 62,170.77 63,185 64,142.31 65,256.15 66,156.54 67,156.54 68,170.77 69,199.23 70,199.23 71,156.54 72,185 73,199.23 74,199.23 75,156.54 76,156.54 77,241.92 78,156.54 79,185 80,113.85 81,113.85 82,128.08 83,156.54 85,156.54 86,355.77 87,156.54 88,170.77 89,185 90,170.77 91,284.62 92,284.62 93,213.46 94,241.92 95,170.77 96,156.54 97,156.54 98,170.77 99,156.54 100,128.08 101,213.46 102,327.31 103,227.69 104,142.31 105,128.08 106,142.31 107,170.77 108,213.46 109,142.31 110,185 111,213.46 112,156.54 113,170.77 114,185 115,142.31 116,270.38 117,327.31 118,355.77 119,327.31 120,156.54 121,128.08 122,142.31 123,142.31 124,156.54 125,142.31 127,142.31 128,241.92 129,170.77 130,142.31 131,142.31 132,170.77 133,142.31 134,128.08 135,128.08 136,142.31 137,142.31 138,128.08 139,185 140,156.54 141,142.31 142,156.54 143,170.77 144,113.85 145,113.85 145.53,370"><title>LR761640.1</title></polygon><rect class="average" height="1" width="145.53" x="0" y="166.75"><title>average:14.28</title></rect><rect class="median" height="1" width="145.53" x="0" y="156.54"><title>median:15</title></rect><text class="chromName" x="72.77" y="-12">LR761640.1<title>LR761640.1 62,107,823 bp</title></text><rect class="frame" height="370" width="145.53" x="0" y="0"/></g><g id="chrom-LR761641.1" transform="translate(1039.265271917344,0)"><polygon class="cov1" points="0,370 0,284.62 1,156.54 2,227.69 3,185 4,99.62 5,256.15 6,298.85 7,270.38 8,313.08 9,185 10,156.54 11,199.23 12,227.69 13,99.62 14,199.23 15,142.31 16,156.54 17,370 18,156.54 19,128.08 20,142.31 21,185 22,213.46 23,170.77 24,170.77 25,142.31 26,256.15 27,227.69 28,241.92 29,270.38 30,241.92 31,199.23 32,270.38 33,227.69 34,284.62 35,284.62 36,341.54 37,284.62 38,270.38 39,270.38 40,170.77 41,284.62 42,313.08 43,313.08 44,241.92 45,213.46 46,241.92 47,284.62 48,284.62 49,156.54 50,170.77 51,156.54 52,142.31 53,128.08 55,128.08 56,142.31 57,170.77 58,199.23 59,185 60,156.54 61,270.38 62,170.77 63,199.23 64,213.46 65,185 66,256.15 67,213.46 68,241.92 69,156.54 70,227.69 71,128.08 72,185 73,313.08 74,227.69 75,327.31 76,199.23 77,170.77 78,170.77 79,241.92 80,270.38 81,355.77 82,341.54 83,313.08 84,185 85,142.31 86,241.92 87,128.08 88,199.23 89,199.23 90,298.85 91,270.38 92,128.08 93,270.38 94,284.62 95,213.46 96,170.77 97,327.31 98,142.31 99,370 100,298.85 101,142.31 102,185 103,128.08 104,185 105,142.31 106,227.69 107,142.31 110,142.31 111,284.62 112,128.08 113,284.62 114,156.54 115,185 116,128.08 117,170.77 118,142.31 119,213.46 120,185 121,170.77 122,185 123,227.69 124,156.54 125,185 126,241.92 127,128.08 128,227.69 129,128.08 130,270.38 131,185 132,241.92 133,213.46 134,128.08 135,355.77 136,284.62 136.99,370"><title>LR761641.1</title></polygon><rect class="average" height="1" width="136.99" x="0" y="188.62"><title>average:12.75</title></rect><rect class="median" height="1" width="136.99" x="0" y="213.46"><title>median:11</title></rect><text class="chromName" x="68.5" y="-12">LR761641.1<title>LR761641.1 58,462,999 bp</title></text><rect class="frame" height="370" width="136.99" x="0" y="0"/></g><g id="chrom-LR761642.1" transform="translate(1177.25719230686,0)"><polygon class="cov0" points="0,370 0,341.54 2,341.54 3,241.92 4,284.62 5,327.31 6,284.62 7,284.62 8,327.31 9,298.85 10,284.62 11,241.92 12,270.38 13,142.31 14,170.77 15,170.77 16,256.15 17,213.46 18,298.85 19,256.15 20,199.23 21,170.77 22,284.62 23,284.62 24,156.54 25,128.08 26,156.54 27,199.23 28,270.38 29,156.54 30,227.69 31,156.54 32,170.77 33,241.92 34,170.77 35,313.08 36,156.54 37,170.77 38,128.08 39,185 40,156.54 41,185 42,142.31 43,156.54 44,156.54 45,227.69 46,156.54 47,256.15 48,284.62 49,298.85 50,199.23 51,227.69 52,213.46 53,128.08 54,142.31 55,241.92 56,185 57,199.23 58,227.69 59,142.31 60,156.54 61,284.62 62,199.23 63,170.77 64,213.46 65,185 66,170.77 67,313.08 68,227.69 69,185 70,170.77 71,241.92 72,142.31 73,199.23 74,142.31 75,199.23 76,298.85 77,156.54 78,156.54 79,227.69 80,227.69 81,185 82,313.08 83,270.38 84,284.62 85,185 86,327.31 86.91,370"><title>LR761642.1</title></polygon><rect class="average" height="1" width="86.91" x="0" y="184.85"><title>average:13.01</title></rect><rect class="median" height="1" width="86.91" x="0" y="213.46"><title>median:11</title></rect><text class="chromName" x="43.45" y="-12">LR761642.1<title>LR761642.1 37,089,910 bp</title></text><rect class="frame" height="370" width="86.91" x="0" y="0"/></g><g id="chrom-LR761643.1" transform="translate(1265.1671710093603,0)"><polygon class="cov1" points="0,370 0,341.54 1,270.38 2,170.77 3,128.08 4,156.54 5,199.23 6,185 7,170.77 8,156.54 9,128.08 10,142.31 11,170.77 12,142.31 13,213.46 14,241.92 15,156.54 16,128.08 17,142.31 18,170.77 19,185 20,355.77 21,156.54 22,142.31 23,142.31 24,227.69 25,185 26,355.77 27,341.54 28,370 29,142.31 30,185 31,170.77 32,227.69 33,156.54 34,142.31 35,213.46 36,256.15 37,142.31 38,156.54 39,142.31 40,156.54 41,170.77 42,185 43,284.62 44,170.77 45,185 46,142.31 47,213.46 48,185 49,170.77 50,199.23 51,156.54 52,156.54 53,170.77 54,170.77 55,156.54 56,142.31 57,142.31 58,156.54 59,156.54 60,128.08 61,156.54 62,170.77 64,170.77 65,199.23 66,170.77 68,170.77 69,156.54 70,170.77 71,241.92 72,185 73,227.69 74,142.31 75,213.46 76,156.54 77,142.31 78,227.69 79,270.38 80,142.31 81,142.31 82,156.54 83,156.54 84,142.31 85,142.31 86,156.54 87,142.31 88,185 89,341.54 90,199.23 91,142.31 92,128.08 93,156.54 94,128.08 95,156.54 96,142.31 100,142.31 101,227.69 102,156.54 103,156.54 104,185 105,156.54 106,142.31 107,142.31 108,156.54 109,128.08 110,142.31 112,142.31 113,213.46 114,170.77 115,156.54 116,128.08 117,128.08 118,142.31 119,170.77 120,142.31 121,128.08 122,142.31 123,128.08 124,142.31 125,142.31 126,113.85 127,213.46 128,170.77 129,128.08 130,185 131,213.46 132,128.08 133,241.92 134,355.77 134.83,370"><title>LR761643.1</title></polygon><rect class="average" height="1" width="134.83" x="0" y="172.19"><title>average:13.9</title></rect><rect class="median" height="1" width="134.83" x="0" y="170.77"><title>median:14</title></rect><text class="chromName" x="67.42" y="-12">LR761643.1<title>LR761643.1 57,541,580 bp</title></text><rect class="frame" height="370" width="134.83" x="0" y="0"/></g><g><line class="ruler" x1="-2" x2="1390" y1="333" y2="333"><title>2</title></line><text class="ruler" x="-5" y="333">2</text><line class="ruler" x1="-2" x2="1390" y1="296" y2="296"><title>5</title></line><text class="ruler" x="-5" y="296">5</text><line class="ruler" x1="-2" x2="1390" y1="259" y2="259"><title>7</title></line><text class="ruler" x="-5" y="259">7</text><line class="ruler" x1="-2" x2="1390" y1="222" y2="222"><title>10</title></line><text class="ruler" x="-5" y="222">10</text><line class="ruler" x1="-2" x2="1390" y1="185" y2="185"><title>13</title></line><text class="ruler" x="-5" y="185">13</text><line class="ruler" x1="-2" x2="1390" y1="148" y2="148"><title>15</title></line><text class="ruler" x="-5" y="148">15</text><line class="ruler" x1="-2" x2="1390" y1="111" y2="111"><title>18</title></line><text class="ruler" x="-5" y="111">18</text><line class="ruler" x1="-2" x2="1390" y1="74" y2="74"><title>20</title></line><text class="ruler" x="-5" y="74">20</text><line class="ruler" x1="-2" x2="1390" y1="37" y2="37"><title>23</title></line><text class="ruler" x="-5" y="37">23</text><line class="ruler" x1="-2" x2="1390" y1="0" y2="0"><title>26</title></line><text class="ruler" x="-5" y="0">26</text></g></g><text class="title" x="795" y="40">F2_M2_24.merged.realigned.bam F2_M2_24 F2_M2_24_1 F2_M2_24_2<title>./F2_M2_24.merged.realigned.bam</title></text><text class="xLabel" x="795" y="475">GCA_902806645.1_cgigas_uk_roslin_v1_genomic.fna  (589,358,857 bp)<title>../ref/GCA_902806645.1_cgigas_uk_roslin_v1_genomic.fna</title></text><text class="yLabel" transform="translate(25,265) rotate(90)" x="0" y="0">Coverage bp (median)</text></g></svg>