<?xml version="1.0" encoding="UTF-8" standalone="no"?><svg height="500" width="1500" xmlns="http://www.w3.org/2000/svg"><title>F2_M1_14.merged.realigned.bam</title><desc>Made with wgscoverageplotter undefined Author: Pierre Lindenbaum</desc><style>g.maing {stroke:black;stroke-width:0.5px;fill:none;}
text.title {stroke:none;fill:black;stroke-width:1px;text-anchor:middle;}
rect.frame {stroke:darkgray;fill:none;stroke-width:0.5px;}
text.ruler {stroke:none;fill:darkgray;stroke-width:1px;text-anchor:end;}
text.chromName {stroke:none;fill:darkgray;stroke-width:1px;text-anchor:middle;}
text.xLabel {stroke:none;fill:black;stroke-width:1px;text-anchor:middle;}
text.yLabel {stroke:none;fill:black;stroke-width:1px;text-anchor:middle;}
.cov0 {stroke:gray;fill:antiquewhite;stroke-width:0.5px;}
.cov1 {stroke:gray;fill:beige;stroke-width:0.5px;}
rect.average {stroke:green;fill:green;stroke-width:0.5px;opacity:0.3;}
rect.median {stroke:red;fill:red;stroke-width:0.5px;opacity:0.3;}
line.ruler {stroke:darkgray;stroke-dasharray:4;fill:none;stroke-width:1;}
</style><g class="maing"><g id="chromosomes" transform="translate(100.0,80.0)"><g id="chrom-LR761634.1" transform="translate(10.0,0)"><polygon class="cov0" points="0,370 0,328.89 1,143.89 2,164.44 3,308.33 4,205.56 5,185 6,267.22 7,185 8,164.44 9,123.33 10,164.44 11,102.78 12,143.89 13,205.56 14,164.44 15,123.33 16,123.33 17,226.11 18,123.33 20,123.33 21,143.89 22,143.89 23,164.44 24,164.44 25,102.78 26,102.78 27,123.33 28,123.33 29,102.78 30,102.78 31,123.33 32,246.67 33,102.78 34,123.33 35,143.89 36,102.78 37,164.44 38,185 39,123.33 40,123.33 41,102.78 42,123.33 43,164.44 44,164.44 45,205.56 46,164.44 47,123.33 48,143.89 49,123.33 51,123.33 52,102.78 53,123.33 54,267.22 55,349.44 56,102.78 57,82.22 58,123.33 59,123.33 60,143.89 61,102.78 62,143.89 63,164.44 64,185 65,164.44 66,123.33 67,185 68,123.33 69,205.56 70,123.33 71,123.33 72,205.56 73,164.44 74,143.89 75,102.78 76,102.78 77,143.89 78,164.44 79,143.89 80,287.78 81,308.33 82,123.33 83,123.33 84,143.89 85,123.33 86,102.78 87,185 88,123.33 89,267.22 90,143.89 91,164.44 92,123.33 93,164.44 94,102.78 95,123.33 96,102.78 97,164.44 98,308.33 99,123.33 100,123.33 101,185 102,143.89 103,143.89 104,164.44 105,123.33 106,205.56 107,185 108,205.56 109,102.78 110,102.78 111,123.33 113,123.33 114,246.67 115,205.56 116,102.78 117,123.33 118,102.78 119,143.89 120,205.56 121,123.33 122,123.33 123,102.78 124,123.33 127,123.33 128,164.44 129,164.44 130,205.56 130.72,370"><title>LR761634.1</title></polygon><rect class="average" height="1" width="130.72" x="0" y="144.29"><title>average:10.98</title></rect><rect class="median" height="1" width="130.72" x="0" y="143.89"><title>median:11</title></rect><text class="chromName" x="65.36" y="-12">LR761634.1<title>LR761634.1 55,785,328 bp</title></text><rect class="frame" height="370" width="130.72" x="0" y="0"/></g><g id="chrom-LR761635.1" transform="translate(141.71753661284166,0)"><polygon class="cov1" points="0,370 0,349.44 1,370 2,328.89 3,308.33 4,349.44 5,349.44 6,246.67 7,308.33 8,328.89 9,226.11 10,246.67 11,287.78 12,205.56 13,143.89 14,226.11 15,287.78 16,308.33 17,226.11 18,267.22 19,246.67 20,287.78 22,287.78 23,226.11 24,287.78 25,328.89 26,287.78 27,328.89 28,308.33 29,349.44 30,349.44 31,287.78 32,246.67 33,226.11 34,205.56 35,246.67 36,267.22 37,308.33 38,328.89 39,185 40,164.44 41,226.11 42,185 43,226.11 44,123.33 45,164.44 46,205.56 47,143.89 48,226.11 49,164.44 50,205.56 51,246.67 52,185 53,267.22 54,328.89 55,246.67 56,287.78 57,246.67 58,185 59,328.89 60,308.33 61,246.67 62,123.33 63,226.11 65,226.11 66,308.33 67,287.78 68,287.78 69,246.67 70,287.78 71,246.67 72,287.78 73,226.11 74,226.11 75,185 76,349.44 77,0 78,246.67 79,308.33 80,164.44 81,308.33 82,349.44 83,246.67 84,328.89 85,308.33 86,349.44 88,349.44 89,370 90,287.78 91,349.44 92,308.33 93,246.67 94,267.22 95,246.67 96,328.89 97,246.67 98,287.78 99,267.22 100,308.33 101,328.89 102,328.89 103,185 104,143.89 105,123.33 106,287.78 107,308.33 108,205.56 109,226.11 110,308.33 111,205.56 112,349.44 113,308.33 114,308.33 115,267.22 116,267.22 117,226.11 118,164.44 119,164.44 120,123.33 121,164.44 122,205.56 123,246.67 124,287.78 125,143.89 126,246.67 127,287.78 128,185 129,267.22 130,164.44 131,226.11 132,185 133,267.22 134,308.33 135,308.33 136,328.89 138,328.89 139,267.22 140,349.44 141,287.78 142,267.22 143,308.33 144,287.78 145,205.56 146,287.78 147,123.33 148,164.44 149,143.89 150,226.11 151,287.78 152,328.89 153,205.56 154,246.67 155,287.78 156,267.22 157,246.67 158,287.78 159,143.89 160,226.11 161,246.67 162,308.33 163,308.33 164,185 165,164.44 166,226.11 167,267.22 168,185 169,287.78 170,308.33 171,328.89 171.58,370"><title>LR761635.1</title></polygon><rect class="average" height="1" width="171.58" x="0" y="206.1"><title>average:7.97</title></rect><rect class="median" height="1" width="171.58" x="0" y="267.22"><title>median:5</title></rect><text class="chromName" x="85.79" y="-12">LR761635.1<title>LR761635.1 73,222,313 bp</title></text><rect class="frame" height="370" width="171.58" x="0" y="0"/></g><g id="chrom-LR761636.1" transform="translate(314.2938403401308,0)"><polygon class="cov0" points="0,370 0,328.89 1,143.89 2,226.11 3,308.33 4,205.56 5,143.89 6,102.78 7,143.89 8,123.33 9,143.89 10,123.33 11,143.89 12,143.89 13,226.11 14,102.78 15,123.33 17,123.33 18,143.89 19,164.44 20,123.33 22,123.33 23,102.78 24,205.56 25,123.33 26,226.11 27,246.67 28,123.33 29,102.78 30,123.33 31,102.78 32,123.33 33,123.33 34,143.89 35,205.56 36,143.89 37,164.44 38,143.89 39,123.33 40,143.89 41,143.89 42,164.44 43,164.44 44,123.33 45,123.33 46,164.44 47,123.33 48,185 49,143.89 50,164.44 51,102.78 52,123.33 53,123.33 54,246.67 55,164.44 56,143.89 57,123.33 58,143.89 59,123.33 60,164.44 61,205.56 62,143.89 63,123.33 64,123.33 65,143.89 67,143.89 68,164.44 69,143.89 70,164.44 71,102.78 72,102.78 73,143.89 74,164.44 75,143.89 76,287.78 77,205.56 78,226.11 79,246.67 80,246.67 81,143.89 82,205.56 83,143.89 84,102.78 85,123.33 86,226.11 87,143.89 88,143.89 89,205.56 90,143.89 91,123.33 92,164.44 93,143.89 94,123.33 95,164.44 96,185 97,123.33 98,123.33 99,164.44 100,143.89 101,123.33 102,143.89 103,102.78 104,123.33 105,143.89 106,123.33 107,123.33 108,102.78 109,123.33 110,123.33 111,143.89 112,143.89 113,164.44 114,123.33 115,102.78 116,102.78 117,123.33 118,185 119,123.33 120,123.33 121,246.67 122,123.33 123,102.78 124,185 125,123.33 126,123.33 127,205.56 128,246.67 129,102.78 130,143.89 131,143.89 132,164.44 133,164.44 134,123.33 135,143.89 136,185 136.65,370"><title>LR761636.1</title></polygon><rect class="average" height="1" width="136.65" x="0" y="143.75"><title>average:11.01</title></rect><rect class="median" height="1" width="136.65" x="0" y="143.89"><title>median:11</title></rect><text class="chromName" x="68.33" y="-12">LR761636.1<title>LR761636.1 58,319,100 bp</title></text><rect class="frame" height="370" width="136.65" x="0" y="0"/></g><g id="chrom-LR761637.1" transform="translate(451.9485730949149,0)"><polygon class="cov1" points="0,370 0,349.44 1,287.78 3,287.78 4,226.11 5,185 6,205.56 7,246.67 8,226.11 9,287.78 10,328.89 11,185 12,246.67 13,287.78 14,287.78 15,185 16,226.11 17,143.89 18,267.22 19,308.33 20,226.11 21,143.89 22,164.44 23,226.11 24,328.89 25,164.44 26,143.89 27,226.11 28,226.11 29,267.22 30,246.67 31,123.33 32,143.89 33,164.44 34,123.33 35,185 36,308.33 37,287.78 38,164.44 39,143.89 40,143.89 41,328.89 42,287.78 43,246.67 44,308.33 45,205.56 46,143.89 47,143.89 48,102.78 49,102.78 50,185 51,123.33 52,82.22 53,164.44 54,102.78 55,123.33 56,143.89 57,246.67 58,267.22 59,308.33 60,308.33 61,226.11 62,123.33 64,123.33 65,143.89 67,143.89 68,164.44 69,102.78 70,143.89 71,123.33 72,164.44 73,123.33 74,164.44 75,143.89 76,123.33 77,143.89 78,143.89 79,185 80,164.44 81,143.89 82,123.33 83,143.89 84,143.89 85,102.78 86,226.11 87,143.89 88,123.33 92,123.33 93,164.44 94,185 96,185 97,143.89 98,102.78 99,123.33 100,246.67 101,287.78 102,308.33 104,308.33 105,226.11 106,123.33 107,102.78 108,102.78 109,123.33 110,102.78 111,164.44 112,143.89 113,102.78 114,287.78 115,164.44 116,185 117,164.44 118,164.44 119,287.78 120,164.44 121,123.33 122,308.33 123,328.89 124,328.89 124.49,370"><title>LR761637.1</title></polygon><rect class="average" height="1" width="124.49" x="0" y="170.24"><title>average:9.72</title></rect><rect class="median" height="1" width="124.49" x="0" y="185"><title>median:9</title></rect><text class="chromName" x="62.25" y="-12">LR761637.1<title>LR761637.1 53,127,865 bp</title></text><rect class="frame" height="370" width="124.49" x="0" y="0"/></g><g id="chrom-LR761638.1" transform="translate(577.4390778079033,0)"><polygon class="cov0" points="0,370 0,267.22 1,226.11 2,308.33 3,143.89 4,246.67 5,143.89 6,205.56 7,205.56 8,226.11 9,123.33 10,185 11,308.33 12,123.33 13,164.44 14,123.33 15,164.44 16,102.78 17,123.33 18,267.22 19,308.33 20,123.33 21,205.56 22,143.89 23,102.78 24,123.33 25,164.44 26,287.78 27,123.33 28,185 29,308.33 30,226.11 31,143.89 32,349.44 33,349.44 34,205.56 35,246.67 36,143.89 37,308.33 38,287.78 39,328.89 40,370 41,308.33 42,246.67 43,143.89 44,164.44 45,267.22 46,226.11 47,102.78 48,123.33 49,246.67 50,370 51,246.67 52,164.44 53,185 54,205.56 55,267.22 56,143.89 57,226.11 58,185 59,185 60,308.33 61,205.56 62,164.44 63,287.78 64,246.67 65,328.89 66,164.44 67,226.11 68,164.44 69,287.78 70,164.44 71,328.89 72,349.44 73,287.78 74,267.22 75,328.89 76,328.89 77,226.11 78,370 79,349.44 80,308.33 81,143.89 82,308.33 83,287.78 84,246.67 85,185 86,123.33 87,164.44 88,308.33 89,143.89 90,267.22 91,143.89 92,102.78 93,102.78 94,143.89 95,205.56 96,267.22 97,143.89 98,267.22 99,185 100,185 101,164.44 102,308.33 103,185 104,226.11 105,287.78 106,226.11 107,185 108,226.11 109,185 110,226.11 111,185 112,308.33 113,205.56 114,267.22 115,287.78 116,328.89 117,328.89 118,370 119,308.33 120,287.78 121,349.44 122,370 123,370 124,287.78 125,308.33 126,328.89 127,267.22 128,370 129,308.33 130,328.89 131,328.89 132,267.22 133,328.89 134,287.78 135,287.78 136,164.44 137,370 138,349.44 139,287.78 140,349.44 141,349.44 142,287.78 143,287.78 144,185 145,205.56 146,267.22 147,143.89 148,164.44 149,164.44 150,205.56 151,308.33 152,164.44 153,164.44 154,267.22 155,287.78 156,205.56 157,267.22 158,308.33 159,328.89 160,349.44 161,287.78 162,287.78 163,185 164,308.33 165,370 166,349.44 167,349.44 168,370 169,246.67 170,370 171,370 172,349.44 172.35,370"><title>LR761638.1</title></polygon><rect class="average" height="1" width="172.35" x="0" y="208.22"><title>average:7.87</title></rect><rect class="median" height="1" width="172.35" x="0" y="246.67"><title>median:6</title></rect><text class="chromName" x="86.17" y="-12">LR761638.1<title>LR761638.1 73,550,375 bp</title></text><rect class="frame" height="370" width="172.35" x="0" y="0"/></g><g id="chrom-LR761639.1" transform="translate(750.784104388203,0)"><polygon class="cov1" points="0,370 0,328.89 1,143.89 2,123.33 3,267.22 4,143.89 5,267.22 6,349.44 7,246.67 8,143.89 9,123.33 10,164.44 11,267.22 12,226.11 13,123.33 14,143.89 15,123.33 18,123.33 19,102.78 20,102.78 21,123.33 22,143.89 23,143.89 24,164.44 25,205.56 26,164.44 27,308.33 28,349.44 29,226.11 30,267.22 31,123.33 32,143.89 33,123.33 34,185 35,226.11 36,246.67 37,123.33 39,123.33 40,226.11 41,102.78 42,123.33 43,102.78 44,143.89 45,102.78 46,143.89 47,123.33 48,123.33 49,143.89 50,143.89 51,123.33 52,164.44 53,143.89 54,143.89 55,123.33 62,123.33 63,164.44 64,102.78 65,102.78 66,143.89 67,123.33 68,123.33 69,185 70,123.33 71,143.89 72,143.89 73,123.33 74,185 75,123.33 79,123.33 80,143.89 81,102.78 82,123.33 83,123.33 84,185 85,143.89 86,102.78 87,123.33 88,102.78 90,102.78 91,123.33 92,123.33 93,164.44 94,123.33 96,123.33 97,102.78 99,102.78 100,123.33 103,123.33 104,102.78 105,102.78 106,246.67 107,123.33 108,102.78 109,123.33 110,123.33 111,287.78 112,164.44 113,102.78 114,164.44 115,102.78 116,123.33 118,123.33 119,102.78 120,143.89 121,123.33 123,123.33 124,164.44 125,102.78 126,123.33 127,123.33 128,143.89 129,123.33 130,164.44 131,143.89 132,185 133,328.89 134,123.33 135,185 136,143.89 137,143.89 138,185 139,143.89 140,185 140.95,370"><title>LR761639.1</title></polygon><rect class="average" height="1" width="140.95" x="0" y="139.88"><title>average:11.2</title></rect><rect class="median" height="1" width="140.95" x="0" y="143.89"><title>median:11</title></rect><text class="chromName" x="70.47" y="-12">LR761639.1<title>LR761639.1 60,151,564 bp</title></text><rect class="frame" height="370" width="140.95" x="0" y="0"/></g><g id="chrom-LR761640.1" transform="translate(892.7327113317651,0)"><polygon class="cov0" points="0,370 0,185 1,123.33 2,185 3,164.44 4,164.44 5,102.78 6,205.56 7,185 8,123.33 12,123.33 13,226.11 14,143.89 15,123.33 16,226.11 17,123.33 18,102.78 19,185 20,123.33 22,123.33 23,102.78 24,123.33 25,143.89 26,102.78 27,102.78 28,123.33 30,123.33 31,102.78 32,123.33 33,102.78 34,143.89 35,123.33 36,123.33 37,205.56 38,102.78 39,143.89 40,102.78 41,102.78 42,61.67 43,102.78 44,102.78 45,143.89 46,164.44 47,246.67 48,328.89 49,102.78 50,143.89 51,123.33 52,102.78 53,143.89 54,102.78 56,102.78 57,226.11 58,143.89 59,164.44 60,246.67 61,123.33 62,143.89 63,185 64,123.33 65,246.67 66,123.33 67,143.89 68,143.89 69,185 70,185 71,123.33 72,143.89 73,164.44 74,164.44 75,123.33 76,123.33 77,226.11 78,123.33 79,164.44 80,82.22 81,61.67 82,82.22 83,123.33 85,123.33 86,328.89 87,143.89 88,164.44 89,164.44 90,143.89 91,287.78 92,267.22 93,185 94,267.22 95,143.89 96,123.33 97,123.33 98,143.89 99,123.33 100,102.78 101,205.56 102,328.89 103,226.11 104,123.33 105,123.33 106,143.89 107,164.44 108,226.11 109,123.33 110,164.44 111,185 112,143.89 113,143.89 114,164.44 115,123.33 116,287.78 117,328.89 118,370 119,328.89 120,123.33 121,102.78 122,123.33 124,123.33 125,102.78 126,123.33 127,123.33 128,226.11 129,143.89 130,123.33 131,123.33 132,143.89 133,123.33 134,102.78 135,102.78 136,123.33 138,123.33 139,185 140,123.33 141,123.33 142,164.44 143,205.56 144,143.89 145,123.33 145.53,370"><title>LR761640.1</title></polygon><rect class="average" height="1" width="145.53" x="0" y="144.21"><title>average:10.98</title></rect><rect class="median" height="1" width="145.53" x="0" y="143.89"><title>median:11</title></rect><text class="chromName" x="72.77" y="-12">LR761640.1<title>LR761640.1 62,107,823 bp</title></text><rect class="frame" height="370" width="145.53" x="0" y="0"/></g><g id="chrom-LR761641.1" transform="translate(1039.265271917344,0)"><polygon class="cov1" points="0,370 0,267.22 1,185 2,246.67 3,185 4,164.44 5,226.11 6,267.22 7,246.67 8,267.22 9,185 10,143.89 11,185 12,246.67 13,102.78 14,205.56 15,123.33 16,143.89 17,328.89 18,143.89 19,123.33 20,123.33 21,164.44 22,205.56 23,143.89 24,185 25,164.44 26,226.11 27,205.56 28,226.11 29,287.78 30,226.11 31,205.56 32,267.22 33,226.11 34,267.22 35,267.22 36,328.89 37,246.67 39,246.67 40,164.44 41,308.33 42,287.78 43,287.78 44,246.67 45,226.11 46,246.67 47,267.22 48,287.78 49,143.89 50,185 51,143.89 52,123.33 53,123.33 54,102.78 56,102.78 57,143.89 58,185 59,164.44 60,143.89 61,267.22 62,143.89 63,185 64,185 65,164.44 66,226.11 67,205.56 68,246.67 69,143.89 70,205.56 71,123.33 72,205.56 73,308.33 74,205.56 75,328.89 76,226.11 77,205.56 78,164.44 79,226.11 80,328.89 81,349.44 82,349.44 83,308.33 84,164.44 85,143.89 86,246.67 87,123.33 88,205.56 89,185 90,267.22 91,267.22 92,123.33 93,246.67 94,287.78 95,267.22 96,164.44 97,287.78 98,143.89 99,370 100,287.78 101,143.89 102,185 103,123.33 104,185 105,123.33 106,267.22 107,143.89 110,143.89 111,267.22 112,123.33 113,267.22 114,143.89 115,164.44 116,123.33 117,185 118,143.89 119,205.56 120,205.56 121,185 122,185 123,226.11 124,164.44 125,205.56 126,246.67 127,123.33 128,267.22 129,164.44 130,287.78 131,205.56 132,349.44 133,267.22 134,164.44 135,328.89 136,349.44 136.99,370"><title>LR761641.1</title></polygon><rect class="average" height="1" width="136.99" x="0" y="179.88"><title>average:9.25</title></rect><rect class="median" height="1" width="136.99" x="0" y="205.56"><title>median:8</title></rect><text class="chromName" x="68.5" y="-12">LR761641.1<title>LR761641.1 58,462,999 bp</title></text><rect class="frame" height="370" width="136.99" x="0" y="0"/></g><g id="chrom-LR761642.1" transform="translate(1177.25719230686,0)"><polygon class="cov0" points="0,370 0,308.33 1,287.78 2,308.33 3,287.78 4,328.89 5,349.44 6,328.89 7,349.44 8,287.78 9,287.78 10,308.33 11,246.67 12,226.11 13,123.33 14,185 15,185 16,267.22 17,267.22 18,308.33 19,226.11 20,246.67 21,164.44 22,287.78 23,287.78 24,164.44 25,123.33 26,164.44 27,164.44 28,267.22 29,164.44 30,246.67 31,123.33 32,164.44 33,226.11 34,164.44 35,308.33 36,164.44 37,164.44 38,123.33 39,164.44 40,143.89 41,164.44 42,123.33 43,143.89 44,164.44 45,205.56 46,143.89 47,246.67 48,267.22 49,287.78 50,205.56 51,205.56 52,226.11 53,123.33 54,143.89 55,226.11 56,164.44 57,205.56 58,205.56 59,164.44 60,164.44 61,287.78 62,205.56 63,164.44 64,205.56 65,205.56 66,164.44 67,328.89 68,226.11 69,164.44 70,164.44 71,287.78 72,143.89 73,205.56 74,143.89 75,205.56 76,287.78 77,164.44 78,164.44 79,226.11 80,246.67 81,185 82,308.33 83,246.67 84,287.78 85,226.11 86,328.89 86.91,370"><title>LR761642.1</title></polygon><rect class="average" height="1" width="86.91" x="0" y="177.76"><title>average:9.35</title></rect><rect class="median" height="1" width="86.91" x="0" y="205.56"><title>median:8</title></rect><text class="chromName" x="43.45" y="-12">LR761642.1<title>LR761642.1 37,089,910 bp</title></text><rect class="frame" height="370" width="86.91" x="0" y="0"/></g><g id="chrom-LR761643.1" transform="translate(1265.1671710093603,0)"><polygon class="cov1" points="0,370 0,349.44 1,267.22 2,164.44 3,123.33 4,143.89 5,205.56 6,185 7,164.44 8,143.89 9,123.33 10,123.33 11,164.44 12,123.33 13,205.56 14,246.67 15,143.89 16,123.33 17,143.89 18,164.44 19,164.44 20,370 21,164.44 22,123.33 23,123.33 24,185 25,164.44 26,349.44 28,349.44 29,123.33 30,185 31,143.89 32,205.56 33,123.33 34,143.89 35,185 36,246.67 37,102.78 38,123.33 39,102.78 40,123.33 41,143.89 42,164.44 43,267.22 44,143.89 45,164.44 46,123.33 47,205.56 48,164.44 49,123.33 50,164.44 51,123.33 52,123.33 53,143.89 54,143.89 55,123.33 56,102.78 58,102.78 59,123.33 60,102.78 61,123.33 62,143.89 63,123.33 64,143.89 65,185 66,143.89 68,143.89 69,123.33 70,143.89 71,205.56 72,164.44 73,226.11 74,123.33 75,205.56 76,123.33 77,102.78 78,185 79,267.22 80,123.33 81,102.78 82,143.89 83,123.33 86,123.33 87,102.78 88,164.44 89,328.89 90,164.44 91,123.33 92,102.78 93,143.89 94,102.78 95,143.89 96,102.78 99,102.78 100,123.33 101,205.56 102,123.33 103,143.89 105,143.89 106,102.78 107,102.78 108,143.89 109,102.78 111,102.78 112,123.33 113,205.56 114,143.89 115,123.33 116,82.22 117,102.78 118,123.33 119,164.44 120,102.78 123,102.78 124,123.33 126,123.33 127,205.56 128,164.44 129,123.33 130,164.44 131,226.11 132,123.33 133,246.67 134,328.89 134.83,370"><title>LR761643.1</title></polygon><rect class="average" height="1" width="134.83" x="0" y="150.31"><title>average:10.69</title></rect><rect class="median" height="1" width="134.83" x="0" y="143.89"><title>median:11</title></rect><text class="chromName" x="67.42" y="-12">LR761643.1<title>LR761643.1 57,541,580 bp</title></text><rect class="frame" height="370" width="134.83" x="0" y="0"/></g><g><line class="ruler" x1="-2" x2="1390" y1="333" y2="333"><title>1</title></line><text class="ruler" x="-5" y="333">1</text><line class="ruler" x1="-2" x2="1390" y1="296" y2="296"><title>3</title></line><text class="ruler" x="-5" y="296">3</text><line class="ruler" x1="-2" x2="1390" y1="259" y2="259"><title>5</title></line><text class="ruler" x="-5" y="259">5</text><line class="ruler" x1="-2" x2="1390" y1="222" y2="222"><title>7</title></line><text class="ruler" x="-5" y="222">7</text><line class="ruler" x1="-2" x2="1390" y1="185" y2="185"><title>9</title></line><text class="ruler" x="-5" y="185">9</text><line class="ruler" x1="-2" x2="1390" y1="148" y2="148"><title>10</title></line><text class="ruler" x="-5" y="148">10</text><line class="ruler" x1="-2" x2="1390" y1="111" y2="111"><title>12</title></line><text class="ruler" x="-5" y="111">12</text><line class="ruler" x1="-2" x2="1390" y1="74" y2="74"><title>14</title></line><text class="ruler" x="-5" y="74">14</text><line class="ruler" x1="-2" x2="1390" y1="37" y2="37"><title>16</title></line><text class="ruler" x="-5" y="37">16</text><line class="ruler" x1="-2" x2="1390" y1="0" y2="0"><title>18</title></line><text class="ruler" x="-5" y="0">18</text></g></g><text class="title" x="795" y="40">F2_M1_14.merged.realigned.bam F2_M1_14 F2_M1_14_1 F2_M1_14_2<title>./F2_M1_14.merged.realigned.bam</title></text><text class="xLabel" x="795" y="475">GCA_902806645.1_cgigas_uk_roslin_v1_genomic.fna  (589,358,857 bp)<title>../ref/GCA_902806645.1_cgigas_uk_roslin_v1_genomic.fna</title></text><text class="yLabel" transform="translate(25,265) rotate(90)" x="0" y="0">Coverage bp (median)</text></g></svg>