<?xml version="1.0" encoding="UTF-8" standalone="no"?><svg height="500" width="1500" xmlns="http://www.w3.org/2000/svg"><title>F2_M1_24.merged.realigned.bam</title><desc>Made with wgscoverageplotter undefined Author: Pierre Lindenbaum</desc><style>g.maing {stroke:black;stroke-width:0.5px;fill:none;}
text.title {stroke:none;fill:black;stroke-width:1px;text-anchor:middle;}
rect.frame {stroke:darkgray;fill:none;stroke-width:0.5px;}
text.ruler {stroke:none;fill:darkgray;stroke-width:1px;text-anchor:end;}
text.chromName {stroke:none;fill:darkgray;stroke-width:1px;text-anchor:middle;}
text.xLabel {stroke:none;fill:black;stroke-width:1px;text-anchor:middle;}
text.yLabel {stroke:none;fill:black;stroke-width:1px;text-anchor:middle;}
.cov0 {stroke:gray;fill:antiquewhite;stroke-width:0.5px;}
.cov1 {stroke:gray;fill:beige;stroke-width:0.5px;}
rect.average {stroke:green;fill:green;stroke-width:0.5px;opacity:0.3;}
rect.median {stroke:red;fill:red;stroke-width:0.5px;opacity:0.3;}
line.ruler {stroke:darkgray;stroke-dasharray:4;fill:none;stroke-width:1;}
</style><g class="maing"><g id="chromosomes" transform="translate(100.0,80.0)"><g id="chrom-LR761634.1" transform="translate(10.0,0)"><polygon class="cov0" points="0,370 0,326.47 1,152.35 2,163.24 3,304.71 4,206.76 5,185 6,272.06 7,195.88 8,163.24 9,130.59 10,152.35 11,119.71 12,163.24 13,217.65 14,163.24 15,141.47 16,130.59 17,239.41 18,141.47 19,130.59 20,130.59 21,141.47 22,152.35 23,163.24 24,174.12 25,130.59 26,119.71 27,130.59 28,141.47 29,119.71 30,130.59 31,130.59 32,250.29 33,130.59 34,141.47 35,141.47 36,119.71 37,174.12 38,195.88 39,141.47 40,130.59 41,119.71 42,130.59 43,163.24 44,163.24 45,217.65 46,174.12 47,141.47 48,152.35 49,130.59 50,141.47 51,141.47 52,119.71 53,141.47 54,272.06 55,337.35 56,130.59 57,108.82 58,141.47 59,141.47 60,152.35 61,119.71 62,152.35 63,174.12 64,185 65,163.24 66,141.47 67,195.88 68,130.59 69,206.76 70,141.47 71,130.59 72,206.76 73,163.24 74,141.47 75,130.59 76,119.71 77,152.35 78,163.24 79,152.35 80,293.82 81,304.71 82,130.59 83,141.47 84,152.35 85,141.47 86,119.71 87,195.88 88,130.59 89,261.18 90,152.35 91,163.24 92,130.59 93,163.24 94,119.71 95,130.59 96,108.82 97,174.12 98,304.71 99,141.47 100,141.47 101,195.88 102,152.35 103,152.35 104,174.12 105,119.71 106,195.88 107,195.88 108,217.65 109,119.71 110,119.71 111,141.47 112,130.59 113,141.47 114,282.94 115,195.88 116,119.71 117,130.59 118,119.71 119,163.24 120,217.65 121,130.59 122,141.47 123,130.59 124,141.47 125,130.59 126,141.47 127,130.59 128,174.12 129,163.24 130,206.76 130.72,370"><title>LR761634.1</title></polygon><rect class="average" height="1" width="130.72" x="0" y="160.1"><title>average:19.29</title></rect><rect class="median" height="1" width="130.72" x="0" y="152.35"><title>median:20</title></rect><text class="chromName" x="65.36" y="-12">LR761634.1<title>LR761634.1 55,785,328 bp</title></text><rect class="frame" height="370" width="130.72" x="0" y="0"/></g><g id="chrom-LR761635.1" transform="translate(141.71753661284166,0)"><polygon class="cov1" points="0,370 0,359.12 1,359.12 2,326.47 3,304.71 4,348.24 5,359.12 6,250.29 7,304.71 8,326.47 9,228.53 10,250.29 11,282.94 12,206.76 13,163.24 14,228.53 15,304.71 16,315.59 17,239.41 18,272.06 19,261.18 20,282.94 21,304.71 22,282.94 23,228.53 24,272.06 25,326.47 26,282.94 27,315.59 28,304.71 29,359.12 30,337.35 31,282.94 32,239.41 33,217.65 34,195.88 35,239.41 36,272.06 37,315.59 38,337.35 39,185 40,163.24 41,228.53 42,174.12 43,217.65 44,141.47 45,174.12 46,206.76 47,141.47 48,228.53 49,163.24 50,206.76 51,250.29 52,195.88 53,282.94 54,326.47 55,239.41 56,272.06 57,261.18 58,185 59,337.35 60,315.59 61,250.29 62,141.47 63,250.29 64,261.18 65,239.41 66,304.71 67,282.94 68,293.82 69,239.41 70,282.94 71,261.18 72,293.82 73,239.41 74,239.41 75,206.76 76,359.12 77,0 78,250.29 79,315.59 80,152.35 81,315.59 82,348.24 83,261.18 84,337.35 85,304.71 86,348.24 87,359.12 88,348.24 89,370 90,304.71 91,348.24 92,326.47 93,239.41 94,282.94 95,261.18 96,326.47 97,250.29 98,304.71 99,272.06 100,315.59 101,326.47 102,326.47 103,206.76 104,163.24 105,119.71 106,272.06 107,304.71 108,206.76 109,217.65 110,293.82 111,206.76 112,359.12 113,304.71 114,304.71 115,282.94 116,282.94 117,250.29 118,163.24 119,185 120,141.47 121,163.24 122,206.76 123,250.29 124,282.94 125,152.35 126,250.29 127,293.82 128,206.76 129,272.06 130,163.24 131,217.65 132,185 133,250.29 134,315.59 135,293.82 136,326.47 138,326.47 139,282.94 140,337.35 141,293.82 142,272.06 143,304.71 144,293.82 145,217.65 146,293.82 147,119.71 148,174.12 149,141.47 150,228.53 151,304.71 152,326.47 153,206.76 154,239.41 155,293.82 156,272.06 157,261.18 158,293.82 159,163.24 160,228.53 161,250.29 162,304.71 163,304.71 164,185 165,174.12 166,228.53 167,261.18 168,185 169,282.94 170,315.59 171,337.35 171.58,370"><title>LR761635.1</title></polygon><rect class="average" height="1" width="171.58" x="0" y="212.54"><title>average:14.47</title></rect><rect class="median" height="1" width="171.58" x="0" y="261.18"><title>median:10</title></rect><text class="chromName" x="85.79" y="-12">LR761635.1<title>LR761635.1 73,222,313 bp</title></text><rect class="frame" height="370" width="171.58" x="0" y="0"/></g><g id="chrom-LR761636.1" transform="translate(314.2938403401308,0)"><polygon class="cov0" points="0,370 0,337.35 1,152.35 2,239.41 3,315.59 4,206.76 5,141.47 6,119.71 7,141.47 8,119.71 9,152.35 10,130.59 11,141.47 12,152.35 13,228.53 14,119.71 15,141.47 16,130.59 17,130.59 18,152.35 19,163.24 20,130.59 21,141.47 22,141.47 23,130.59 24,206.76 25,141.47 26,228.53 27,239.41 28,130.59 29,119.71 30,130.59 31,108.82 32,130.59 33,130.59 34,141.47 35,206.76 36,141.47 37,163.24 38,141.47 39,130.59 40,163.24 43,163.24 44,141.47 45,141.47 46,174.12 47,141.47 48,185 49,152.35 50,163.24 51,119.71 52,141.47 53,130.59 54,261.18 55,174.12 56,152.35 57,130.59 58,163.24 59,130.59 60,174.12 61,217.65 62,163.24 63,141.47 64,141.47 65,152.35 67,152.35 68,163.24 69,152.35 70,174.12 71,119.71 72,119.71 73,152.35 74,163.24 75,141.47 76,293.82 77,217.65 78,228.53 79,250.29 80,261.18 81,141.47 82,217.65 83,152.35 84,119.71 85,141.47 86,239.41 87,152.35 88,141.47 89,206.76 90,141.47 91,130.59 92,174.12 93,152.35 94,130.59 95,174.12 96,174.12 97,130.59 98,130.59 99,163.24 100,152.35 101,130.59 102,163.24 103,108.82 104,130.59 105,141.47 106,141.47 107,130.59 110,130.59 111,152.35 112,152.35 113,163.24 114,130.59 115,119.71 116,108.82 117,141.47 118,174.12 119,130.59 120,130.59 121,261.18 122,119.71 123,130.59 124,185 125,130.59 126,130.59 127,206.76 128,261.18 129,130.59 130,152.35 131,152.35 132,174.12 133,163.24 134,130.59 135,152.35 136,185 136.65,370"><title>LR761636.1</title></polygon><rect class="average" height="1" width="136.65" x="0" y="158.57"><title>average:19.43</title></rect><rect class="median" height="1" width="136.65" x="0" y="152.35"><title>median:20</title></rect><text class="chromName" x="68.33" y="-12">LR761636.1<title>LR761636.1 58,319,100 bp</title></text><rect class="frame" height="370" width="136.65" x="0" y="0"/></g><g id="chrom-LR761637.1" transform="translate(451.9485730949149,0)"><polygon class="cov1" points="0,370 0,359.12 1,293.82 2,282.94 3,282.94 4,228.53 5,174.12 6,228.53 7,250.29 8,239.41 9,282.94 10,326.47 11,174.12 12,250.29 13,282.94 14,293.82 15,185 16,228.53 17,141.47 18,261.18 19,304.71 20,239.41 21,152.35 22,163.24 23,228.53 24,337.35 25,174.12 26,141.47 27,228.53 28,228.53 29,261.18 30,250.29 31,141.47 32,152.35 33,163.24 34,130.59 35,195.88 36,315.59 37,293.82 38,163.24 39,152.35 40,152.35 41,326.47 42,293.82 43,261.18 44,304.71 45,217.65 46,152.35 47,141.47 48,119.71 49,130.59 50,185 51,141.47 52,108.82 53,174.12 54,119.71 55,141.47 56,163.24 57,250.29 58,282.94 59,315.59 60,315.59 61,228.53 62,130.59 63,141.47 64,130.59 65,152.35 66,141.47 67,152.35 68,174.12 69,130.59 70,152.35 71,141.47 72,174.12 73,130.59 74,174.12 75,152.35 76,141.47 77,141.47 78,152.35 79,185 80,163.24 81,152.35 82,130.59 83,141.47 84,152.35 85,119.71 86,239.41 87,163.24 88,130.59 89,141.47 90,130.59 92,130.59 93,174.12 94,185 95,195.88 96,206.76 97,141.47 98,119.71 99,130.59 100,239.41 101,293.82 102,304.71 104,304.71 105,206.76 106,130.59 107,119.71 108,130.59 109,130.59 110,108.82 111,185 112,141.47 113,119.71 114,272.06 115,185 116,195.88 117,163.24 118,163.24 119,293.82 120,174.12 121,130.59 122,315.59 123,337.35 124,315.59 124.49,370"><title>LR761637.1</title></polygon><rect class="average" height="1" width="124.49" x="0" y="183.79"><title>average:17.11</title></rect><rect class="median" height="1" width="124.49" x="0" y="185"><title>median:17</title></rect><text class="chromName" x="62.25" y="-12">LR761637.1<title>LR761637.1 53,127,865 bp</title></text><rect class="frame" height="370" width="124.49" x="0" y="0"/></g><g id="chrom-LR761638.1" transform="translate(577.4390778079033,0)"><polygon class="cov0" points="0,370 0,272.06 1,239.41 2,315.59 3,152.35 4,239.41 5,152.35 6,206.76 7,206.76 8,228.53 9,141.47 10,185 11,326.47 12,130.59 13,174.12 14,119.71 15,163.24 16,119.71 17,130.59 18,282.94 19,304.71 20,141.47 21,206.76 22,141.47 23,130.59 24,130.59 25,163.24 26,293.82 27,130.59 28,185 29,315.59 30,228.53 31,141.47 32,359.12 33,348.24 34,195.88 35,250.29 36,152.35 37,304.71 38,293.82 39,337.35 40,359.12 41,326.47 42,250.29 43,141.47 44,152.35 45,282.94 46,217.65 47,119.71 48,141.47 49,239.41 50,359.12 51,250.29 52,174.12 53,185 54,206.76 55,250.29 56,152.35 57,239.41 58,195.88 59,185 60,304.71 61,206.76 62,163.24 63,293.82 64,250.29 65,337.35 66,174.12 67,239.41 68,163.24 69,293.82 70,163.24 71,337.35 72,337.35 73,293.82 74,261.18 75,326.47 76,326.47 77,217.65 78,370 79,337.35 80,326.47 81,163.24 82,315.59 83,272.06 84,250.29 85,174.12 86,130.59 87,174.12 88,315.59 89,141.47 90,282.94 91,152.35 92,130.59 93,119.71 94,141.47 95,217.65 96,261.18 97,152.35 98,261.18 99,195.88 100,185 101,163.24 102,293.82 103,185 104,228.53 105,293.82 106,217.65 107,185 108,228.53 109,185 110,228.53 111,206.76 112,326.47 113,206.76 114,261.18 115,293.82 116,337.35 117,326.47 118,359.12 119,315.59 120,293.82 121,348.24 122,359.12 123,359.12 124,293.82 125,315.59 126,326.47 127,272.06 128,370 129,304.71 130,326.47 131,326.47 132,272.06 133,326.47 134,293.82 135,282.94 136,163.24 137,359.12 138,348.24 139,282.94 140,348.24 141,337.35 142,282.94 143,282.94 144,174.12 145,195.88 146,261.18 147,152.35 148,163.24 149,163.24 150,206.76 151,315.59 152,174.12 153,163.24 154,261.18 155,293.82 156,206.76 157,261.18 158,315.59 159,326.47 160,348.24 161,304.71 162,282.94 163,185 164,315.59 165,359.12 166,348.24 167,359.12 168,359.12 169,239.41 170,359.12 171,359.12 172,348.24 172.35,370"><title>LR761638.1</title></polygon><rect class="average" height="1" width="172.35" x="0" y="215.85"><title>average:14.17</title></rect><rect class="median" height="1" width="172.35" x="0" y="250.29"><title>median:11</title></rect><text class="chromName" x="86.17" y="-12">LR761638.1<title>LR761638.1 73,550,375 bp</title></text><rect class="frame" height="370" width="172.35" x="0" y="0"/></g><g id="chrom-LR761639.1" transform="translate(750.784104388203,0)"><polygon class="cov1" points="0,370 0,326.47 1,152.35 2,141.47 3,272.06 4,152.35 5,261.18 6,337.35 7,239.41 8,152.35 9,141.47 10,174.12 11,272.06 12,239.41 13,141.47 14,174.12 15,130.59 17,130.59 18,119.71 20,119.71 21,130.59 22,152.35 23,152.35 24,174.12 25,206.76 26,174.12 27,315.59 28,337.35 29,239.41 30,293.82 31,141.47 32,130.59 33,130.59 34,185 35,228.53 36,250.29 37,141.47 38,141.47 39,130.59 40,228.53 41,130.59 42,141.47 43,119.71 44,152.35 45,119.71 46,152.35 47,141.47 48,130.59 49,163.24 50,152.35 51,130.59 52,185 53,152.35 54,152.35 55,141.47 56,130.59 57,141.47 58,130.59 60,130.59 61,141.47 62,141.47 63,174.12 64,119.71 65,130.59 66,152.35 67,141.47 68,141.47 69,195.88 70,141.47 73,141.47 74,206.76 75,130.59 76,130.59 77,141.47 78,130.59 79,130.59 80,163.24 81,119.71 82,141.47 83,130.59 84,195.88 85,141.47 86,130.59 87,141.47 88,119.71 89,130.59 90,119.71 91,141.47 92,130.59 93,174.12 94,141.47 95,141.47 96,119.71 98,119.71 99,130.59 103,130.59 104,119.71 105,130.59 106,250.29 107,130.59 108,119.71 109,130.59 110,130.59 111,304.71 112,174.12 113,119.71 114,174.12 115,119.71 116,141.47 117,130.59 118,130.59 119,119.71 120,152.35 121,130.59 123,130.59 124,174.12 125,130.59 126,130.59 127,141.47 128,152.35 129,130.59 130,174.12 131,152.35 132,185 133,337.35 134,130.59 135,174.12 136,141.47 137,152.35 138,195.88 139,152.35 140,163.24 140.95,370"><title>LR761639.1</title></polygon><rect class="average" height="1" width="140.95" x="0" y="156.36"><title>average:19.63</title></rect><rect class="median" height="1" width="140.95" x="0" y="152.35"><title>median:20</title></rect><text class="chromName" x="70.47" y="-12">LR761639.1<title>LR761639.1 60,151,564 bp</title></text><rect class="frame" height="370" width="140.95" x="0" y="0"/></g><g id="chrom-LR761640.1" transform="translate(892.7327113317651,0)"><polygon class="cov0" points="0,370 0,195.88 1,141.47 2,185 3,163.24 4,174.12 5,119.71 6,195.88 7,185 8,130.59 9,141.47 10,130.59 11,141.47 12,141.47 13,239.41 14,163.24 15,141.47 16,217.65 17,141.47 18,119.71 19,195.88 20,130.59 21,141.47 22,130.59 23,119.71 24,141.47 25,152.35 26,119.71 27,119.71 28,141.47 29,130.59 30,130.59 31,119.71 32,130.59 33,119.71 34,152.35 35,130.59 36,141.47 37,195.88 38,119.71 39,152.35 40,119.71 41,130.59 42,97.94 43,119.71 44,119.71 45,141.47 46,152.35 47,250.29 48,326.47 49,130.59 50,152.35 51,130.59 52,119.71 53,141.47 54,130.59 55,119.71 56,130.59 57,206.76 58,141.47 59,163.24 60,250.29 61,130.59 62,163.24 63,185 64,130.59 65,250.29 66,130.59 67,141.47 68,152.35 69,195.88 70,185 71,141.47 72,141.47 73,185 74,174.12 75,130.59 76,130.59 77,228.53 78,141.47 79,163.24 80,97.94 81,97.94 82,108.82 83,130.59 84,141.47 85,141.47 86,315.59 87,152.35 88,163.24 89,174.12 90,152.35 91,293.82 92,272.06 93,195.88 94,272.06 95,152.35 96,141.47 97,141.47 98,152.35 99,141.47 100,119.71 101,217.65 102,337.35 103,228.53 104,130.59 105,141.47 106,141.47 107,163.24 108,228.53 109,130.59 110,163.24 111,185 112,152.35 113,152.35 114,185 115,130.59 116,304.71 117,337.35 118,359.12 119,326.47 120,141.47 121,119.71 122,130.59 124,130.59 125,119.71 126,130.59 127,130.59 128,228.53 129,152.35 130,130.59 131,130.59 132,141.47 133,130.59 134,119.71 135,130.59 136,141.47 138,141.47 139,195.88 140,141.47 141,141.47 142,174.12 143,206.76 144,141.47 145,130.59 145.53,370"><title>LR761640.1</title></polygon><rect class="average" height="1" width="145.53" x="0" y="160.83"><title>average:19.22</title></rect><rect class="median" height="1" width="145.53" x="0" y="152.35"><title>median:20</title></rect><text class="chromName" x="72.77" y="-12">LR761640.1<title>LR761640.1 62,107,823 bp</title></text><rect class="frame" height="370" width="145.53" x="0" y="0"/></g><g id="chrom-LR761641.1" transform="translate(1039.265271917344,0)"><polygon class="cov1" points="0,370 0,261.18 1,185 2,239.41 3,185 4,174.12 5,239.41 6,261.18 7,250.29 8,272.06 9,185 10,152.35 11,195.88 12,250.29 13,119.71 14,228.53 15,141.47 16,141.47 17,326.47 18,141.47 19,130.59 20,130.59 21,174.12 22,185 23,141.47 24,185 25,174.12 26,228.53 27,206.76 28,217.65 29,282.94 30,228.53 31,206.76 32,282.94 33,217.65 34,261.18 35,282.94 36,315.59 37,250.29 38,250.29 39,261.18 40,174.12 41,304.71 42,282.94 43,293.82 44,261.18 45,239.41 46,250.29 47,282.94 48,293.82 49,152.35 50,185 51,152.35 52,130.59 54,130.59 55,119.71 56,130.59 57,163.24 58,174.12 59,174.12 60,141.47 61,261.18 62,152.35 63,185 64,185 65,174.12 66,228.53 67,217.65 68,250.29 69,152.35 70,217.65 71,130.59 72,217.65 73,304.71 74,217.65 75,326.47 76,228.53 77,206.76 78,163.24 79,228.53 80,315.59 81,348.24 82,348.24 83,315.59 84,174.12 85,152.35 86,250.29 87,119.71 88,206.76 89,185 90,261.18 91,250.29 92,141.47 93,239.41 94,282.94 95,282.94 96,174.12 97,282.94 98,141.47 99,359.12 100,282.94 101,152.35 102,174.12 103,130.59 104,185 105,141.47 106,272.06 107,141.47 108,152.35 109,152.35 110,141.47 111,272.06 112,119.71 113,261.18 114,152.35 115,163.24 116,119.71 117,185 118,141.47 119,206.76 120,206.76 121,174.12 122,174.12 123,239.41 124,163.24 125,217.65 126,239.41 127,130.59 128,261.18 129,174.12 130,282.94 131,217.65 132,337.35 133,272.06 134,163.24 135,337.35 136,348.24 136.99,370"><title>LR761641.1</title></polygon><rect class="average" height="1" width="136.99" x="0" y="189.78"><title>average:16.56</title></rect><rect class="median" height="1" width="136.99" x="0" y="206.76"><title>median:15</title></rect><text class="chromName" x="68.5" y="-12">LR761641.1<title>LR761641.1 58,462,999 bp</title></text><rect class="frame" height="370" width="136.99" x="0" y="0"/></g><g id="chrom-LR761642.1" transform="translate(1177.25719230686,0)"><polygon class="cov0" points="0,370 0,293.82 1,282.94 2,304.71 3,293.82 4,337.35 5,359.12 6,326.47 7,337.35 8,282.94 9,293.82 10,293.82 11,228.53 12,239.41 13,141.47 14,195.88 15,174.12 16,272.06 17,261.18 18,304.71 19,217.65 20,228.53 21,163.24 22,293.82 23,293.82 24,163.24 25,130.59 26,163.24 27,174.12 28,272.06 29,163.24 30,239.41 31,141.47 32,163.24 33,239.41 34,163.24 35,315.59 36,152.35 37,174.12 38,130.59 39,174.12 40,141.47 41,174.12 42,130.59 43,141.47 44,152.35 45,206.76 46,152.35 47,250.29 48,250.29 49,293.82 50,195.88 51,195.88 52,217.65 53,130.59 54,141.47 55,228.53 56,174.12 57,217.65 58,217.65 59,163.24 60,152.35 61,293.82 62,195.88 63,174.12 64,195.88 65,206.76 66,174.12 67,326.47 68,228.53 69,163.24 70,174.12 71,293.82 72,152.35 73,206.76 74,141.47 75,195.88 76,293.82 77,174.12 78,163.24 79,239.41 80,239.41 81,185 82,304.71 83,250.29 84,282.94 85,228.53 86,315.59 86.91,370"><title>LR761642.1</title></polygon><rect class="average" height="1" width="86.91" x="0" y="187.53"><title>average:16.77</title></rect><rect class="median" height="1" width="86.91" x="0" y="217.65"><title>median:14</title></rect><text class="chromName" x="43.45" y="-12">LR761642.1<title>LR761642.1 37,089,910 bp</title></text><rect class="frame" height="370" width="86.91" x="0" y="0"/></g><g id="chrom-LR761643.1" transform="translate(1265.1671710093603,0)"><polygon class="cov1" points="0,370 0,348.24 1,272.06 2,174.12 3,141.47 4,163.24 5,217.65 6,185 7,174.12 8,152.35 9,130.59 10,141.47 11,163.24 12,141.47 13,206.76 14,228.53 15,152.35 16,130.59 17,152.35 18,163.24 19,163.24 20,359.12 21,163.24 22,130.59 23,130.59 24,185 25,174.12 26,359.12 27,348.24 28,348.24 29,130.59 30,185 31,163.24 32,206.76 33,141.47 34,163.24 35,195.88 36,250.29 37,130.59 38,141.47 39,130.59 40,141.47 41,152.35 42,163.24 43,272.06 44,152.35 45,174.12 46,130.59 47,217.65 48,163.24 49,141.47 50,163.24 51,130.59 52,141.47 53,152.35 54,152.35 55,130.59 57,130.59 58,119.71 59,141.47 60,119.71 61,130.59 62,163.24 63,141.47 64,163.24 65,195.88 66,152.35 67,152.35 68,141.47 69,141.47 70,152.35 71,217.65 72,185 73,217.65 74,130.59 75,217.65 76,141.47 77,119.71 78,185 79,272.06 80,141.47 81,119.71 82,141.47 83,141.47 84,119.71 85,130.59 86,141.47 87,119.71 88,163.24 89,337.35 90,174.12 91,130.59 92,130.59 93,141.47 94,119.71 95,141.47 96,119.71 99,119.71 100,130.59 101,206.76 102,130.59 103,141.47 104,152.35 105,141.47 106,119.71 107,130.59 108,141.47 109,119.71 111,119.71 112,130.59 113,206.76 114,152.35 115,130.59 116,108.82 117,119.71 118,130.59 119,163.24 120,130.59 121,119.71 122,130.59 123,119.71 124,130.59 126,130.59 127,206.76 128,174.12 129,130.59 130,174.12 131,228.53 132,130.59 133,261.18 134,315.59 134.83,370"><title>LR761643.1</title></polygon><rect class="average" height="1" width="134.83" x="0" y="165.97"><title>average:18.75</title></rect><rect class="median" height="1" width="134.83" x="0" y="152.35"><title>median:20</title></rect><text class="chromName" x="67.42" y="-12">LR761643.1<title>LR761643.1 57,541,580 bp</title></text><rect class="frame" height="370" width="134.83" x="0" y="0"/></g><g><line class="ruler" x1="-2" x2="1390" y1="333" y2="333"><title>3</title></line><text class="ruler" x="-5" y="333">3</text><line class="ruler" x1="-2" x2="1390" y1="296" y2="296"><title>6</title></line><text class="ruler" x="-5" y="296">6</text><line class="ruler" x1="-2" x2="1390" y1="259" y2="259"><title>10</title></line><text class="ruler" x="-5" y="259">10</text><line class="ruler" x1="-2" x2="1390" y1="222" y2="222"><title>13</title></line><text class="ruler" x="-5" y="222">13</text><line class="ruler" x1="-2" x2="1390" y1="185" y2="185"><title>17</title></line><text class="ruler" x="-5" y="185">17</text><line class="ruler" x1="-2" x2="1390" y1="148" y2="148"><title>20</title></line><text class="ruler" x="-5" y="148">20</text><line class="ruler" x1="-2" x2="1390" y1="111" y2="111"><title>23</title></line><text class="ruler" x="-5" y="111">23</text><line class="ruler" x1="-2" x2="1390" y1="74" y2="74"><title>27</title></line><text class="ruler" x="-5" y="74">27</text><line class="ruler" x1="-2" x2="1390" y1="37" y2="37"><title>30</title></line><text class="ruler" x="-5" y="37">30</text><line class="ruler" x1="-2" x2="1390" y1="0" y2="0"><title>34</title></line><text class="ruler" x="-5" y="0">34</text></g></g><text class="title" x="795" y="40">F2_M1_24.merged.realigned.bam F2_M1_24 F2_M1_24_1 F2_M1_24_2<title>./F2_M1_24.merged.realigned.bam</title></text><text class="xLabel" x="795" y="475">GCA_902806645.1_cgigas_uk_roslin_v1_genomic.fna  (589,358,857 bp)<title>../ref/GCA_902806645.1_cgigas_uk_roslin_v1_genomic.fna</title></text><text class="yLabel" transform="translate(25,265) rotate(90)" x="0" y="0">Coverage bp (median)</text></g></svg>