<?xml version="1.0" encoding="UTF-8" standalone="no"?><svg height="500" width="1500" xmlns="http://www.w3.org/2000/svg"><title>F3_M1_14.merged.realigned.bam</title><desc>Made with wgscoverageplotter undefined Author: Pierre Lindenbaum</desc><style>g.maing {stroke:black;stroke-width:0.5px;fill:none;}
text.title {stroke:none;fill:black;stroke-width:1px;text-anchor:middle;}
rect.frame {stroke:darkgray;fill:none;stroke-width:0.5px;}
text.ruler {stroke:none;fill:darkgray;stroke-width:1px;text-anchor:end;}
text.chromName {stroke:none;fill:darkgray;stroke-width:1px;text-anchor:middle;}
text.xLabel {stroke:none;fill:black;stroke-width:1px;text-anchor:middle;}
text.yLabel {stroke:none;fill:black;stroke-width:1px;text-anchor:middle;}
.cov0 {stroke:gray;fill:antiquewhite;stroke-width:0.5px;}
.cov1 {stroke:gray;fill:beige;stroke-width:0.5px;}
rect.average {stroke:green;fill:green;stroke-width:0.5px;opacity:0.3;}
rect.median {stroke:red;fill:red;stroke-width:0.5px;opacity:0.3;}
line.ruler {stroke:darkgray;stroke-dasharray:4;fill:none;stroke-width:1;}
</style><g class="maing"><g id="chromosomes" transform="translate(100.0,80.0)"><g id="chrom-LR761634.1" transform="translate(10.0,0)"><polygon class="cov0" points="0,370 0,313.08 1,142.31 2,156.54 3,298.85 4,227.69 5,185 6,270.38 7,199.23 8,156.54 9,142.31 10,170.77 11,128.08 12,170.77 13,241.92 14,199.23 15,156.54 16,142.31 17,199.23 18,142.31 19,128.08 20,128.08 21,142.31 22,156.54 23,156.54 24,170.77 25,128.08 26,128.08 27,142.31 28,156.54 29,128.08 30,142.31 31,142.31 32,270.38 33,142.31 35,142.31 36,128.08 37,185 38,199.23 39,142.31 40,128.08 41,142.31 42,142.31 43,170.77 44,156.54 45,213.46 46,185 47,142.31 48,156.54 49,142.31 50,156.54 51,142.31 52,128.08 53,156.54 54,199.23 55,227.69 56,128.08 57,128.08 58,142.31 59,142.31 60,156.54 61,128.08 62,156.54 63,170.77 64,185 65,170.77 66,156.54 67,199.23 68,128.08 69,199.23 70,128.08 71,128.08 72,227.69 73,170.77 74,156.54 75,128.08 76,128.08 77,185 78,170.77 79,156.54 80,241.92 81,270.38 82,128.08 83,142.31 84,156.54 85,142.31 86,128.08 87,199.23 88,128.08 89,270.38 90,156.54 91,156.54 92,128.08 93,170.77 94,113.85 95,128.08 96,128.08 97,185 98,313.08 99,142.31 100,142.31 101,199.23 102,156.54 103,170.77 104,185 105,128.08 106,199.23 107,185 108,270.38 109,128.08 110,128.08 111,156.54 112,142.31 113,185 114,327.31 115,199.23 116,128.08 118,128.08 119,185 120,241.92 121,142.31 126,142.31 127,156.54 128,199.23 129,185 130,199.23 130.72,370"><title>LR761634.1</title></polygon><rect class="average" height="1" width="130.72" x="0" y="162.06"><title>average:14.61</title></rect><rect class="median" height="1" width="130.72" x="0" y="156.54"><title>median:15</title></rect><text class="chromName" x="65.36" y="-12">LR761634.1<title>LR761634.1 55,785,328 bp</title></text><rect class="frame" height="370" width="130.72" x="0" y="0"/></g><g id="chrom-LR761635.1" transform="translate(141.71753661284166,0)"><polygon class="cov1" points="0,370 0,355.77 1,355.77 2,341.54 3,313.08 4,355.77 5,370 6,270.38 7,313.08 8,341.54 9,213.46 10,227.69 11,284.62 12,213.46 13,170.77 14,213.46 15,298.85 16,298.85 17,241.92 18,270.38 19,241.92 20,284.62 21,313.08 22,284.62 23,227.69 24,284.62 25,341.54 26,270.38 27,327.31 28,298.85 29,341.54 30,341.54 31,298.85 32,227.69 33,241.92 34,185 35,241.92 36,284.62 37,341.54 38,327.31 39,156.54 40,128.08 41,213.46 42,185 43,199.23 44,170.77 45,156.54 46,199.23 47,128.08 48,170.77 49,156.54 50,170.77 51,199.23 52,170.77 53,298.85 54,327.31 55,213.46 56,227.69 57,241.92 58,199.23 59,313.08 60,370 61,270.38 62,156.54 63,298.85 64,327.31 65,284.62 66,313.08 67,298.85 68,298.85 69,241.92 70,284.62 72,284.62 73,241.92 75,241.92 76,327.31 77,0 78,256.15 79,313.08 80,156.54 81,327.31 82,355.77 83,270.38 84,355.77 85,313.08 86,355.77 88,355.77 89,370 90,341.54 91,341.54 92,327.31 93,241.92 94,284.62 95,284.62 96,313.08 97,270.38 98,327.31 99,270.38 100,327.31 101,313.08 102,341.54 103,227.69 104,227.69 105,156.54 106,270.38 107,298.85 108,199.23 109,213.46 110,284.62 111,199.23 112,327.31 113,327.31 114,313.08 115,327.31 116,298.85 117,284.62 118,170.77 119,185 120,142.31 121,170.77 122,241.92 123,241.92 124,270.38 125,142.31 126,256.15 127,270.38 128,170.77 129,227.69 130,170.77 131,241.92 132,199.23 133,270.38 134,313.08 135,313.08 136,341.54 137,313.08 138,327.31 139,327.31 140,341.54 141,298.85 142,284.62 143,298.85 144,284.62 145,227.69 146,270.38 147,128.08 148,170.77 149,142.31 150,241.92 151,298.85 152,327.31 153,213.46 154,270.38 155,284.62 158,284.62 159,185 160,213.46 161,241.92 162,284.62 163,270.38 164,199.23 165,199.23 166,241.92 167,284.62 168,213.46 169,256.15 170,341.54 171,327.31 171.58,370"><title>LR761635.1</title></polygon><rect class="average" height="1" width="171.58" x="0" y="213.63"><title>average:10.99</title></rect><rect class="median" height="1" width="171.58" x="0" y="270.38"><title>median:7</title></rect><text class="chromName" x="85.79" y="-12">LR761635.1<title>LR761635.1 73,222,313 bp</title></text><rect class="frame" height="370" width="171.58" x="0" y="0"/></g><g id="chrom-LR761636.1" transform="translate(314.2938403401308,0)"><polygon class="cov0" points="0,370 0,341.54 1,170.77 2,270.38 3,313.08 4,213.46 5,142.31 6,128.08 7,156.54 8,128.08 9,156.54 10,128.08 11,142.31 12,156.54 13,256.15 14,128.08 15,142.31 16,142.31 17,128.08 18,170.77 19,156.54 20,128.08 21,142.31 22,142.31 23,128.08 24,199.23 25,142.31 26,227.69 27,256.15 28,128.08 29,113.85 30,128.08 33,128.08 34,142.31 35,213.46 36,142.31 37,170.77 38,156.54 39,142.31 40,170.77 42,170.77 43,156.54 44,142.31 45,156.54 46,185 47,142.31 48,199.23 49,156.54 50,170.77 51,128.08 52,142.31 53,142.31 54,227.69 55,156.54 56,156.54 57,128.08 58,156.54 59,128.08 60,170.77 61,213.46 62,170.77 63,142.31 64,142.31 65,156.54 67,156.54 68,170.77 69,156.54 70,170.77 71,113.85 72,128.08 73,170.77 74,170.77 75,156.54 76,313.08 77,227.69 78,227.69 79,256.15 80,270.38 81,142.31 82,213.46 83,156.54 84,128.08 85,142.31 86,284.62 87,156.54 88,156.54 89,213.46 90,142.31 91,128.08 92,185 93,156.54 94,142.31 95,199.23 96,185 97,142.31 98,142.31 99,170.77 100,170.77 101,142.31 102,170.77 103,113.85 104,128.08 105,142.31 107,142.31 108,128.08 109,142.31 110,142.31 111,170.77 112,156.54 113,170.77 114,128.08 116,128.08 117,142.31 118,185 119,142.31 120,142.31 121,185 122,128.08 123,128.08 124,185 125,142.31 126,142.31 127,199.23 128,270.38 129,128.08 130,156.54 131,156.54 132,170.77 133,170.77 134,128.08 135,156.54 136,270.38 136.65,370"><title>LR761636.1</title></polygon><rect class="average" height="1" width="136.65" x="0" y="160.62"><title>average:14.71</title></rect><rect class="median" height="1" width="136.65" x="0" y="156.54"><title>median:15</title></rect><text class="chromName" x="68.33" y="-12">LR761636.1<title>LR761636.1 58,319,100 bp</title></text><rect class="frame" height="370" width="136.65" x="0" y="0"/></g><g id="chrom-LR761637.1" transform="translate(451.9485730949149,0)"><polygon class="cov1" points="0,370 0,355.77 1,284.62 2,298.85 3,298.85 4,227.69 5,185 6,213.46 7,256.15 8,256.15 9,284.62 10,327.31 11,199.23 12,256.15 13,298.85 14,298.85 15,185 16,227.69 17,113.85 18,270.38 19,298.85 20,241.92 21,156.54 22,170.77 23,227.69 24,327.31 25,170.77 26,142.31 27,227.69 28,227.69 29,241.92 30,256.15 31,156.54 32,156.54 33,185 34,142.31 35,199.23 36,327.31 37,270.38 38,170.77 39,170.77 40,156.54 41,313.08 42,241.92 43,256.15 44,327.31 45,227.69 46,156.54 47,142.31 48,128.08 49,142.31 50,199.23 51,142.31 52,113.85 53,199.23 54,128.08 55,142.31 56,170.77 57,241.92 58,284.62 59,298.85 60,313.08 61,227.69 62,142.31 63,156.54 64,142.31 65,156.54 66,142.31 67,156.54 68,185 69,128.08 70,156.54 71,142.31 72,185 73,142.31 74,199.23 75,156.54 76,142.31 77,142.31 78,170.77 80,170.77 81,156.54 82,142.31 83,156.54 84,156.54 85,128.08 86,227.69 87,170.77 88,128.08 89,142.31 90,128.08 91,142.31 92,128.08 93,185 94,170.77 95,213.46 96,213.46 97,142.31 98,128.08 99,142.31 100,199.23 101,227.69 102,241.92 103,241.92 104,256.15 105,213.46 106,128.08 109,128.08 110,113.85 111,156.54 112,156.54 113,128.08 114,284.62 115,199.23 116,199.23 117,170.77 118,156.54 119,284.62 120,170.77 121,142.31 122,284.62 123,327.31 124,313.08 124.49,370"><title>LR761637.1</title></polygon><rect class="average" height="1" width="124.49" x="0" y="182.24"><title>average:13.19</title></rect><rect class="median" height="1" width="124.49" x="0" y="185"><title>median:13</title></rect><text class="chromName" x="62.25" y="-12">LR761637.1<title>LR761637.1 53,127,865 bp</title></text><rect class="frame" height="370" width="124.49" x="0" y="0"/></g><g id="chrom-LR761638.1" transform="translate(577.4390778079033,0)"><polygon class="cov0" points="0,370 0,298.85 1,298.85 2,313.08 3,156.54 4,270.38 5,156.54 6,213.46 7,213.46 8,241.92 9,142.31 10,199.23 11,313.08 12,142.31 13,170.77 14,128.08 15,156.54 16,128.08 17,142.31 18,284.62 19,313.08 20,156.54 21,227.69 22,142.31 23,128.08 24,142.31 25,170.77 26,313.08 27,128.08 28,185 29,341.54 30,241.92 31,142.31 32,355.77 33,341.54 34,199.23 35,256.15 36,156.54 37,298.85 38,298.85 39,341.54 40,355.77 41,341.54 42,284.62 43,142.31 44,156.54 45,270.38 46,213.46 47,113.85 48,142.31 49,241.92 50,355.77 51,256.15 52,170.77 53,185 54,227.69 55,241.92 56,156.54 57,227.69 58,185 59,199.23 60,270.38 61,213.46 62,170.77 63,298.85 64,284.62 65,327.31 66,170.77 67,256.15 68,185 69,270.38 70,170.77 71,341.54 72,355.77 73,284.62 74,256.15 75,327.31 76,341.54 77,213.46 78,327.31 79,298.85 80,313.08 81,170.77 82,327.31 83,284.62 84,256.15 85,185 86,142.31 87,185 88,313.08 89,142.31 90,298.85 91,156.54 92,128.08 93,128.08 94,142.31 95,213.46 96,270.38 97,142.31 98,270.38 99,199.23 100,185 101,170.77 102,298.85 103,185 104,241.92 105,284.62 106,227.69 107,185 108,213.46 109,185 110,241.92 111,213.46 112,327.31 113,213.46 114,256.15 115,256.15 116,341.54 117,355.77 118,327.31 119,327.31 120,298.85 121,355.77 123,355.77 124,298.85 125,327.31 126,313.08 127,298.85 128,370 129,313.08 130,341.54 131,341.54 132,270.38 133,327.31 134,284.62 135,298.85 136,170.77 137,370 138,355.77 139,270.38 140,327.31 141,341.54 142,284.62 143,270.38 144,185 145,199.23 146,241.92 147,156.54 148,142.31 149,185 150,199.23 151,313.08 152,185 153,156.54 154,241.92 155,284.62 156,213.46 157,270.38 158,341.54 159,313.08 160,341.54 161,298.85 162,284.62 163,256.15 164,341.54 165,355.77 166,355.77 167,370 168,355.77 169,241.92 170,355.77 171,370 172,355.77 172.35,370"><title>LR761638.1</title></polygon><rect class="average" height="1" width="172.35" x="0" y="217.44"><title>average:10.72</title></rect><rect class="median" height="1" width="172.35" x="0" y="256.15"><title>median:8</title></rect><text class="chromName" x="86.17" y="-12">LR761638.1<title>LR761638.1 73,550,375 bp</title></text><rect class="frame" height="370" width="172.35" x="0" y="0"/></g><g id="chrom-LR761639.1" transform="translate(750.784104388203,0)"><polygon class="cov1" points="0,370 0,270.38 1,156.54 2,156.54 3,256.15 4,156.54 5,256.15 6,341.54 7,213.46 8,156.54 9,128.08 10,185 11,270.38 12,256.15 13,142.31 14,170.77 15,142.31 16,128.08 21,128.08 22,156.54 23,156.54 24,185 25,199.23 26,185 27,298.85 28,284.62 29,213.46 30,298.85 31,142.31 32,128.08 33,128.08 34,185 35,199.23 36,213.46 37,142.31 39,142.31 40,213.46 41,128.08 42,142.31 43,128.08 44,142.31 45,128.08 46,156.54 47,142.31 48,128.08 49,170.77 50,170.77 51,142.31 52,185 53,156.54 54,156.54 55,142.31 56,128.08 57,142.31 58,142.31 59,128.08 60,128.08 61,142.31 63,142.31 64,128.08 65,128.08 66,170.77 67,142.31 68,142.31 69,199.23 70,142.31 71,142.31 72,156.54 73,142.31 74,213.46 75,128.08 76,142.31 77,156.54 78,128.08 79,142.31 80,170.77 81,128.08 82,142.31 83,142.31 84,199.23 85,156.54 86,128.08 87,142.31 88,128.08 90,128.08 91,142.31 92,128.08 93,170.77 94,142.31 95,128.08 98,128.08 99,142.31 100,142.31 101,128.08 102,142.31 103,142.31 104,128.08 105,128.08 106,256.15 107,142.31 108,128.08 109,142.31 110,142.31 111,298.85 112,185 113,128.08 114,185 115,128.08 116,156.54 117,142.31 118,142.31 119,128.08 120,156.54 121,142.31 122,128.08 123,128.08 124,170.77 125,142.31 126,128.08 127,142.31 128,156.54 129,128.08 130,185 131,170.77 132,185 133,313.08 134,128.08 135,170.77 136,156.54 137,156.54 138,185 139,156.54 140,199.23 140.95,370"><title>LR761639.1</title></polygon><rect class="average" height="1" width="140.95" x="0" y="155.67"><title>average:15.06</title></rect><rect class="median" height="1" width="140.95" x="0" y="156.54"><title>median:15</title></rect><text class="chromName" x="70.47" y="-12">LR761639.1<title>LR761639.1 60,151,564 bp</title></text><rect class="frame" height="370" width="140.95" x="0" y="0"/></g><g id="chrom-LR761640.1" transform="translate(892.7327113317651,0)"><polygon class="cov0" points="0,370 0,199.23 1,128.08 2,199.23 3,185 4,170.77 5,128.08 6,199.23 7,199.23 8,142.31 9,156.54 10,142.31 11,156.54 12,128.08 13,241.92 14,185 15,156.54 16,213.46 17,142.31 18,128.08 19,199.23 20,128.08 21,142.31 22,128.08 23,128.08 24,142.31 25,170.77 26,128.08 27,128.08 28,156.54 29,142.31 30,142.31 31,156.54 32,142.31 33,128.08 34,156.54 35,142.31 36,142.31 37,213.46 38,128.08 39,170.77 40,113.85 41,128.08 42,113.85 43,128.08 44,128.08 45,156.54 46,170.77 47,241.92 48,327.31 49,128.08 50,156.54 51,128.08 52,128.08 53,142.31 54,128.08 55,142.31 56,128.08 57,213.46 58,156.54 59,185 60,256.15 61,128.08 62,170.77 63,185 64,142.31 65,241.92 66,128.08 67,156.54 68,156.54 69,199.23 70,185 71,142.31 72,156.54 73,199.23 74,185 75,142.31 76,142.31 77,213.46 78,142.31 79,170.77 80,99.62 81,99.62 82,113.85 83,142.31 85,142.31 86,327.31 87,156.54 88,170.77 89,170.77 90,156.54 91,341.54 92,284.62 93,199.23 94,284.62 95,156.54 96,156.54 97,142.31 98,156.54 99,142.31 100,128.08 101,256.15 102,341.54 103,241.92 104,142.31 106,142.31 107,170.77 108,227.69 109,142.31 110,185 111,185 112,156.54 113,156.54 114,199.23 115,142.31 116,313.08 117,341.54 118,355.77 119,327.31 120,156.54 121,128.08 122,142.31 124,142.31 125,128.08 126,128.08 127,142.31 128,256.15 129,156.54 130,128.08 131,142.31 132,156.54 133,142.31 134,128.08 135,142.31 138,142.31 139,199.23 140,142.31 141,128.08 142,170.77 143,227.69 144,142.31 145,142.31 145.53,370"><title>LR761640.1</title></polygon><rect class="average" height="1" width="145.53" x="0" y="164.28"><title>average:14.46</title></rect><rect class="median" height="1" width="145.53" x="0" y="156.54"><title>median:15</title></rect><text class="chromName" x="72.77" y="-12">LR761640.1<title>LR761640.1 62,107,823 bp</title></text><rect class="frame" height="370" width="145.53" x="0" y="0"/></g><g id="chrom-LR761641.1" transform="translate(1039.265271917344,0)"><polygon class="cov1" points="0,370 0,270.38 1,199.23 2,241.92 3,199.23 4,241.92 5,227.69 6,270.38 7,241.92 8,227.69 9,199.23 10,156.54 11,199.23 12,256.15 13,142.31 14,213.46 15,142.31 16,142.31 17,327.31 18,128.08 19,142.31 20,142.31 21,185 22,199.23 23,156.54 24,199.23 25,170.77 26,241.92 27,227.69 28,241.92 29,284.62 30,241.92 31,213.46 32,284.62 33,185 34,256.15 35,284.62 36,313.08 37,270.38 38,270.38 39,284.62 40,213.46 41,256.15 42,270.38 43,313.08 44,270.38 45,256.15 46,256.15 47,284.62 48,241.92 49,156.54 50,185 51,156.54 52,142.31 53,128.08 54,142.31 55,128.08 56,128.08 57,170.77 58,170.77 59,156.54 60,142.31 61,256.15 62,156.54 63,185 64,199.23 65,199.23 66,213.46 67,241.92 68,241.92 69,170.77 70,227.69 71,142.31 72,227.69 73,284.62 74,213.46 75,341.54 76,185 77,170.77 78,170.77 79,241.92 80,284.62 81,341.54 82,341.54 83,327.31 84,185 85,170.77 86,270.38 87,128.08 88,213.46 89,199.23 90,241.92 91,241.92 92,142.31 93,213.46 94,256.15 95,241.92 96,170.77 97,298.85 98,142.31 99,284.62 100,256.15 101,142.31 102,185 103,128.08 104,185 105,142.31 106,270.38 107,142.31 108,156.54 110,156.54 111,270.38 112,142.31 113,241.92 114,156.54 115,170.77 116,128.08 117,170.77 118,156.54 119,199.23 120,241.92 121,170.77 122,170.77 123,241.92 124,170.77 125,227.69 126,241.92 127,128.08 128,241.92 129,185 130,284.62 131,227.69 132,355.77 133,270.38 134,170.77 135,355.77 136,355.77 136.99,370"><title>LR761641.1</title></polygon><rect class="average" height="1" width="136.99" x="0" y="189.82"><title>average:12.66</title></rect><rect class="median" height="1" width="136.99" x="0" y="213.46"><title>median:11</title></rect><text class="chromName" x="68.5" y="-12">LR761641.1<title>LR761641.1 58,462,999 bp</title></text><rect class="frame" height="370" width="136.99" x="0" y="0"/></g><g id="chrom-LR761642.1" transform="translate(1177.25719230686,0)"><polygon class="cov0" points="0,370 0,298.85 1,270.38 2,270.38 3,256.15 4,313.08 5,341.54 6,298.85 7,298.85 8,284.62 9,313.08 10,284.62 11,213.46 12,256.15 13,142.31 14,199.23 15,199.23 16,284.62 17,256.15 18,298.85 19,213.46 20,227.69 21,170.77 22,313.08 23,298.85 24,170.77 25,142.31 26,170.77 27,199.23 28,284.62 29,170.77 30,227.69 31,142.31 32,170.77 33,256.15 34,156.54 35,313.08 36,156.54 37,185 38,128.08 39,170.77 40,142.31 41,170.77 42,128.08 43,142.31 44,156.54 45,213.46 46,156.54 47,241.92 48,227.69 49,298.85 50,199.23 51,199.23 52,227.69 53,128.08 54,156.54 55,241.92 56,170.77 57,213.46 58,213.46 59,170.77 60,156.54 61,313.08 62,185 63,170.77 64,199.23 65,199.23 66,185 67,313.08 68,241.92 69,170.77 70,199.23 71,270.38 72,170.77 73,213.46 74,156.54 75,213.46 76,298.85 77,170.77 78,156.54 79,256.15 80,241.92 81,185 82,298.85 83,241.92 84,284.62 85,227.69 86,313.08 86.91,370"><title>LR761642.1</title></polygon><rect class="average" height="1" width="86.91" x="0" y="185.57"><title>average:12.96</title></rect><rect class="median" height="1" width="86.91" x="0" y="213.46"><title>median:11</title></rect><text class="chromName" x="43.45" y="-12">LR761642.1<title>LR761642.1 37,089,910 bp</title></text><rect class="frame" height="370" width="86.91" x="0" y="0"/></g><g id="chrom-LR761643.1" transform="translate(1265.1671710093603,0)"><polygon class="cov1" points="0,370 0,355.77 1,270.38 2,170.77 3,142.31 4,170.77 5,213.46 6,185 7,185 8,156.54 9,128.08 10,142.31 11,170.77 12,142.31 13,199.23 14,227.69 15,156.54 16,128.08 17,156.54 18,156.54 19,170.77 20,341.54 21,170.77 22,142.31 23,142.31 24,199.23 25,170.77 26,355.77 27,327.31 28,355.77 29,142.31 30,213.46 31,156.54 32,213.46 33,142.31 34,170.77 35,199.23 36,256.15 37,142.31 38,142.31 39,128.08 40,142.31 41,156.54 42,170.77 43,284.62 44,156.54 45,185 46,128.08 47,185 48,170.77 49,142.31 50,170.77 51,128.08 52,142.31 53,156.54 54,156.54 55,142.31 56,128.08 57,128.08 58,142.31 59,142.31 60,113.85 61,128.08 62,156.54 63,142.31 64,156.54 65,185 66,156.54 67,156.54 68,142.31 69,142.31 70,170.77 71,199.23 72,185 73,199.23 74,128.08 75,213.46 76,142.31 77,128.08 78,185 79,256.15 80,128.08 81,128.08 82,142.31 83,142.31 84,128.08 85,128.08 86,142.31 87,128.08 88,156.54 89,355.77 90,185 91,128.08 92,128.08 93,156.54 94,128.08 95,156.54 96,113.85 97,128.08 99,128.08 100,142.31 101,213.46 102,142.31 103,142.31 104,156.54 105,142.31 106,128.08 107,128.08 108,156.54 109,113.85 110,128.08 112,128.08 113,199.23 114,156.54 115,128.08 116,113.85 117,128.08 118,142.31 119,170.77 120,128.08 123,128.08 124,142.31 125,128.08 126,128.08 127,199.23 128,185 129,128.08 130,170.77 131,227.69 132,142.31 133,241.92 134,327.31 134.83,370"><title>LR761643.1</title></polygon><rect class="average" height="1" width="134.83" x="0" y="164.51"><title>average:14.44</title></rect><rect class="median" height="1" width="134.83" x="0" y="156.54"><title>median:15</title></rect><text class="chromName" x="67.42" y="-12">LR761643.1<title>LR761643.1 57,541,580 bp</title></text><rect class="frame" height="370" width="134.83" x="0" y="0"/></g><g><line class="ruler" x1="-2" x2="1390" y1="333" y2="333"><title>2</title></line><text class="ruler" x="-5" y="333">2</text><line class="ruler" x1="-2" x2="1390" y1="296" y2="296"><title>5</title></line><text class="ruler" x="-5" y="296">5</text><line class="ruler" x1="-2" x2="1390" y1="259" y2="259"><title>7</title></line><text class="ruler" x="-5" y="259">7</text><line class="ruler" x1="-2" x2="1390" y1="222" y2="222"><title>10</title></line><text class="ruler" x="-5" y="222">10</text><line class="ruler" x1="-2" x2="1390" y1="185" y2="185"><title>13</title></line><text class="ruler" x="-5" y="185">13</text><line class="ruler" x1="-2" x2="1390" y1="148" y2="148"><title>15</title></line><text class="ruler" x="-5" y="148">15</text><line class="ruler" x1="-2" x2="1390" y1="111" y2="111"><title>18</title></line><text class="ruler" x="-5" y="111">18</text><line class="ruler" x1="-2" x2="1390" y1="74" y2="74"><title>20</title></line><text class="ruler" x="-5" y="74">20</text><line class="ruler" x1="-2" x2="1390" y1="37" y2="37"><title>23</title></line><text class="ruler" x="-5" y="37">23</text><line class="ruler" x1="-2" x2="1390" y1="0" y2="0"><title>26</title></line><text class="ruler" x="-5" y="0">26</text></g></g><text class="title" x="795" y="40">F3_M1_14.merged.realigned.bam F3_M1_14 F3_M1_14_1 F3_M1_14_2<title>./F3_M1_14.merged.realigned.bam</title></text><text class="xLabel" x="795" y="475">GCA_902806645.1_cgigas_uk_roslin_v1_genomic.fna  (589,358,857 bp)<title>../ref/GCA_902806645.1_cgigas_uk_roslin_v1_genomic.fna</title></text><text class="yLabel" transform="translate(25,265) rotate(90)" x="0" y="0">Coverage bp (median)</text></g></svg>