<?xml version="1.0" encoding="UTF-8" standalone="no"?><svg height="500" width="1500" xmlns="http://www.w3.org/2000/svg"><title>F3_M2_14.merged.realigned.bam</title><desc>Made with wgscoverageplotter undefined Author: Pierre Lindenbaum</desc><style>g.maing {stroke:black;stroke-width:0.5px;fill:none;}
text.title {stroke:none;fill:black;stroke-width:1px;text-anchor:middle;}
rect.frame {stroke:darkgray;fill:none;stroke-width:0.5px;}
text.ruler {stroke:none;fill:darkgray;stroke-width:1px;text-anchor:end;}
text.chromName {stroke:none;fill:darkgray;stroke-width:1px;text-anchor:middle;}
text.xLabel {stroke:none;fill:black;stroke-width:1px;text-anchor:middle;}
text.yLabel {stroke:none;fill:black;stroke-width:1px;text-anchor:middle;}
.cov0 {stroke:gray;fill:antiquewhite;stroke-width:0.5px;}
.cov1 {stroke:gray;fill:beige;stroke-width:0.5px;}
rect.average {stroke:green;fill:green;stroke-width:0.5px;opacity:0.3;}
rect.median {stroke:red;fill:red;stroke-width:0.5px;opacity:0.3;}
line.ruler {stroke:darkgray;stroke-dasharray:4;fill:none;stroke-width:1;}
</style><g class="maing"><g id="chromosomes" transform="translate(100.0,80.0)"><g id="chrom-LR761634.1" transform="translate(10.0,0)"><polygon class="cov0" points="0,370 0,313.08 1,142.31 2,156.54 3,298.85 4,227.69 5,185 6,284.62 7,185 8,156.54 9,128.08 10,156.54 11,113.85 12,156.54 13,213.46 14,241.92 15,142.31 16,128.08 17,170.77 18,128.08 20,128.08 21,142.31 22,156.54 24,156.54 25,113.85 26,128.08 27,128.08 28,142.31 29,113.85 30,128.08 31,128.08 32,270.38 33,128.08 34,128.08 35,142.31 36,113.85 37,170.77 38,185 39,142.31 40,128.08 42,128.08 43,170.77 44,156.54 45,199.23 46,170.77 47,128.08 48,142.31 49,128.08 50,142.31 51,142.31 52,113.85 53,142.31 54,185 55,213.46 56,113.85 57,113.85 58,128.08 59,142.31 60,142.31 61,113.85 62,142.31 63,170.77 64,199.23 65,170.77 66,142.31 67,185 68,113.85 69,199.23 70,113.85 71,128.08 72,213.46 73,170.77 74,142.31 75,128.08 76,128.08 77,185 78,156.54 79,142.31 80,241.92 81,256.15 82,128.08 83,128.08 84,142.31 85,128.08 86,99.62 87,199.23 88,128.08 89,256.15 90,156.54 91,142.31 92,128.08 93,156.54 94,113.85 95,113.85 96,99.62 97,170.77 98,298.85 99,142.31 100,142.31 101,170.77 102,142.31 103,170.77 104,185 105,113.85 106,213.46 107,185 108,270.38 109,113.85 110,113.85 111,142.31 112,128.08 113,199.23 114,341.54 115,170.77 116,113.85 118,113.85 119,170.77 120,213.46 121,128.08 122,142.31 123,128.08 124,142.31 125,128.08 126,142.31 127,142.31 128,213.46 129,185 130,213.46 130.72,370"><title>LR761634.1</title></polygon><rect class="average" height="1" width="130.72" x="0" y="154.44"><title>average:15.15</title></rect><rect class="median" height="1" width="130.72" x="0" y="156.54"><title>median:15</title></rect><text class="chromName" x="65.36" y="-12">LR761634.1<title>LR761634.1 55,785,328 bp</title></text><rect class="frame" height="370" width="130.72" x="0" y="0"/></g><g id="chrom-LR761635.1" transform="translate(141.71753661284166,0)"><polygon class="cov1" points="0,370 0,355.77 1,355.77 2,327.31 3,313.08 4,341.54 5,370 6,284.62 7,313.08 8,341.54 9,199.23 10,170.77 11,256.15 12,227.69 13,170.77 14,213.46 15,284.62 16,298.85 17,256.15 18,270.38 19,227.69 20,270.38 21,298.85 22,284.62 23,213.46 24,313.08 25,341.54 26,284.62 27,327.31 28,241.92 29,327.31 30,341.54 31,313.08 32,241.92 33,241.92 34,199.23 35,227.69 36,241.92 37,327.31 38,327.31 39,142.31 40,156.54 41,170.77 42,185 43,213.46 44,170.77 45,142.31 46,227.69 47,128.08 48,156.54 49,142.31 50,170.77 51,199.23 52,170.77 53,298.85 54,341.54 55,213.46 56,227.69 57,241.92 58,170.77 59,298.85 60,341.54 61,298.85 62,156.54 63,313.08 64,313.08 65,298.85 67,298.85 68,284.62 69,256.15 70,270.38 71,241.92 72,270.38 73,241.92 74,227.69 75,199.23 76,270.38 77,0 78,199.23 79,256.15 80,156.54 81,241.92 82,241.92 83,199.23 84,270.38 85,270.38 86,284.62 88,284.62 89,298.85 90,270.38 91,327.31 92,327.31 93,270.38 94,298.85 95,313.08 96,327.31 97,298.85 98,341.54 99,298.85 100,341.54 101,327.31 102,327.31 103,213.46 104,170.77 105,185 106,256.15 107,298.85 108,185 109,213.46 110,284.62 111,199.23 112,327.31 113,355.77 114,313.08 115,327.31 116,284.62 117,284.62 118,185 119,185 120,142.31 121,156.54 122,241.92 123,241.92 124,270.38 125,142.31 126,227.69 127,227.69 128,128.08 129,156.54 130,156.54 131,284.62 132,213.46 133,327.31 134,327.31 135,313.08 136,341.54 137,313.08 138,327.31 139,298.85 140,341.54 141,313.08 142,327.31 143,298.85 144,270.38 145,256.15 146,227.69 147,142.31 148,170.77 149,128.08 150,241.92 151,270.38 152,355.77 153,213.46 154,284.62 155,241.92 156,270.38 157,256.15 158,270.38 159,170.77 160,227.69 161,227.69 162,284.62 163,199.23 164,227.69 165,284.62 166,327.31 168,327.31 169,256.15 170,341.54 171,327.31 171.58,370"><title>LR761635.1</title></polygon><rect class="average" height="1" width="171.58" x="0" y="209.59"><title>average:11.27</title></rect><rect class="median" height="1" width="171.58" x="0" y="256.15"><title>median:8</title></rect><text class="chromName" x="85.79" y="-12">LR761635.1<title>LR761635.1 73,222,313 bp</title></text><rect class="frame" height="370" width="171.58" x="0" y="0"/></g><g id="chrom-LR761636.1" transform="translate(314.2938403401308,0)"><polygon class="cov0" points="0,370 0,341.54 1,170.77 2,313.08 3,355.77 4,241.92 5,142.31 6,170.77 7,185 8,128.08 9,156.54 10,113.85 11,156.54 12,142.31 13,298.85 14,113.85 15,142.31 16,128.08 17,113.85 18,170.77 19,128.08 20,113.85 21,142.31 22,128.08 23,128.08 24,185 25,113.85 26,213.46 27,284.62 28,128.08 29,85.38 30,128.08 31,99.62 32,99.62 33,113.85 34,142.31 35,199.23 36,128.08 37,170.77 38,128.08 40,128.08 41,142.31 42,156.54 43,142.31 44,128.08 45,142.31 46,156.54 47,128.08 48,185 49,156.54 50,156.54 51,113.85 52,128.08 53,128.08 54,241.92 55,142.31 56,142.31 57,113.85 58,156.54 59,128.08 60,156.54 61,213.46 62,156.54 63,128.08 64,128.08 65,142.31 67,142.31 68,156.54 69,142.31 70,156.54 71,99.62 72,113.85 73,156.54 74,170.77 75,142.31 76,313.08 77,227.69 78,241.92 79,256.15 80,256.15 81,142.31 82,227.69 83,142.31 84,113.85 85,128.08 86,284.62 87,142.31 88,156.54 89,199.23 90,142.31 91,128.08 92,199.23 93,156.54 94,128.08 95,185 96,199.23 97,128.08 98,142.31 99,156.54 100,170.77 101,142.31 102,142.31 103,113.85 104,128.08 105,142.31 106,128.08 107,128.08 108,113.85 109,128.08 110,128.08 111,156.54 112,156.54 113,142.31 114,113.85 116,113.85 117,128.08 118,170.77 119,128.08 120,128.08 121,170.77 122,113.85 123,113.85 124,170.77 125,113.85 126,128.08 127,156.54 128,270.38 129,113.85 130,142.31 131,156.54 133,156.54 134,128.08 135,128.08 136,327.31 136.65,370"><title>LR761636.1</title></polygon><rect class="average" height="1" width="136.65" x="0" y="154.18"><title>average:15.17</title></rect><rect class="median" height="1" width="136.65" x="0" y="142.31"><title>median:16</title></rect><text class="chromName" x="68.33" y="-12">LR761636.1<title>LR761636.1 58,319,100 bp</title></text><rect class="frame" height="370" width="136.65" x="0" y="0"/></g><g id="chrom-LR761637.1" transform="translate(451.9485730949149,0)"><polygon class="cov1" points="0,370 0,355.77 1,298.85 2,313.08 3,284.62 4,213.46 5,170.77 6,170.77 7,256.15 8,270.38 9,298.85 10,313.08 11,170.77 12,241.92 13,270.38 14,298.85 15,170.77 16,227.69 17,113.85 18,298.85 19,298.85 20,213.46 21,170.77 22,170.77 23,227.69 24,313.08 25,156.54 26,142.31 27,227.69 28,199.23 29,227.69 30,256.15 31,142.31 32,142.31 33,170.77 34,128.08 35,199.23 36,313.08 37,227.69 38,156.54 39,156.54 40,142.31 41,313.08 42,213.46 43,256.15 44,341.54 45,185 46,142.31 47,142.31 48,128.08 49,128.08 50,185 51,142.31 52,99.62 53,185 54,113.85 55,142.31 56,142.31 57,227.69 58,284.62 59,298.85 60,298.85 61,213.46 62,128.08 64,128.08 65,142.31 66,128.08 67,142.31 68,170.77 69,113.85 70,142.31 71,142.31 72,170.77 73,128.08 74,199.23 75,142.31 76,128.08 77,128.08 78,170.77 81,170.77 82,128.08 83,142.31 84,142.31 85,113.85 86,199.23 87,156.54 88,128.08 89,142.31 90,113.85 91,128.08 92,113.85 93,199.23 94,170.77 95,213.46 96,185 97,142.31 98,113.85 99,128.08 100,170.77 101,185 102,185 103,199.23 104,213.46 105,241.92 106,113.85 110,113.85 111,142.31 112,142.31 113,113.85 114,298.85 115,199.23 116,185 117,170.77 118,142.31 119,298.85 120,170.77 121,128.08 122,270.38 123,327.31 124,298.85 124.49,370"><title>LR761637.1</title></polygon><rect class="average" height="1" width="124.49" x="0" y="172.87"><title>average:13.85</title></rect><rect class="median" height="1" width="124.49" x="0" y="170.77"><title>median:14</title></rect><text class="chromName" x="62.25" y="-12">LR761637.1<title>LR761637.1 53,127,865 bp</title></text><rect class="frame" height="370" width="124.49" x="0" y="0"/></g><g id="chrom-LR761638.1" transform="translate(577.4390778079033,0)"><polygon class="cov0" points="0,370 0,227.69 1,185 2,313.08 3,142.31 4,241.92 5,142.31 6,213.46 7,199.23 8,213.46 9,128.08 10,185 11,284.62 12,142.31 13,156.54 14,113.85 15,156.54 16,113.85 17,128.08 18,270.38 19,327.31 20,156.54 21,227.69 22,128.08 23,113.85 24,128.08 25,170.77 26,284.62 27,128.08 28,185 29,341.54 30,270.38 31,142.31 32,341.54 33,341.54 34,185 35,227.69 36,142.31 37,313.08 38,298.85 39,341.54 40,341.54 41,327.31 42,284.62 43,142.31 44,156.54 45,284.62 46,156.54 47,113.85 48,128.08 49,199.23 50,284.62 51,227.69 52,156.54 53,170.77 54,213.46 55,213.46 56,142.31 57,241.92 58,142.31 59,199.23 60,185 61,241.92 62,170.77 63,341.54 64,327.31 65,313.08 66,185 67,227.69 68,185 69,227.69 70,185 71,355.77 72,355.77 73,298.85 74,256.15 75,355.77 76,341.54 77,199.23 78,313.08 79,284.62 80,298.85 81,156.54 82,284.62 83,327.31 84,298.85 85,199.23 86,142.31 87,170.77 88,313.08 89,128.08 90,298.85 91,142.31 92,113.85 93,128.08 94,142.31 95,199.23 96,284.62 97,142.31 98,270.38 99,185 100,185 101,170.77 102,298.85 103,185 104,270.38 105,284.62 106,227.69 107,170.77 108,213.46 109,199.23 110,270.38 111,199.23 112,313.08 113,227.69 114,241.92 115,241.92 116,341.54 117,327.31 118,298.85 119,341.54 120,284.62 121,355.77 122,355.77 123,370 124,298.85 125,327.31 126,313.08 127,327.31 128,370 129,284.62 130,341.54 131,327.31 132,284.62 133,355.77 134,270.38 135,313.08 136,170.77 137,370 138,355.77 139,270.38 140,370 141,355.77 142,313.08 143,270.38 144,156.54 145,199.23 146,227.69 147,142.31 148,142.31 149,185 150,199.23 151,298.85 152,185 153,142.31 154,241.92 155,284.62 156,213.46 157,298.85 158,313.08 159,298.85 160,341.54 161,313.08 162,298.85 163,270.38 164,341.54 165,355.77 166,355.77 167,370 168,355.77 169,227.69 170,370 171,370 172,355.77 172.35,370"><title>LR761638.1</title></polygon><rect class="average" height="1" width="172.35" x="0" y="211.4"><title>average:11.15</title></rect><rect class="median" height="1" width="172.35" x="0" y="256.15"><title>median:8</title></rect><text class="chromName" x="86.17" y="-12">LR761638.1<title>LR761638.1 73,550,375 bp</title></text><rect class="frame" height="370" width="172.35" x="0" y="0"/></g><g id="chrom-LR761639.1" transform="translate(750.784104388203,0)"><polygon class="cov1" points="0,370 0,241.92 1,142.31 2,128.08 3,213.46 4,142.31 5,213.46 6,355.77 7,199.23 8,142.31 9,128.08 10,156.54 11,256.15 12,256.15 13,142.31 14,156.54 15,128.08 16,128.08 17,113.85 18,128.08 19,113.85 20,113.85 21,128.08 22,156.54 23,156.54 24,170.77 25,199.23 26,185 27,298.85 28,284.62 29,199.23 30,256.15 31,142.31 32,128.08 33,128.08 34,185 35,170.77 36,170.77 37,113.85 38,142.31 39,128.08 40,227.69 41,113.85 42,128.08 43,113.85 44,142.31 45,113.85 46,142.31 47,128.08 48,128.08 49,156.54 50,170.77 51,113.85 52,170.77 53,142.31 54,156.54 55,128.08 58,128.08 59,113.85 60,113.85 61,128.08 62,113.85 63,128.08 64,99.62 65,113.85 66,170.77 67,128.08 68,128.08 69,185 70,142.31 72,142.31 73,128.08 74,199.23 75,128.08 76,142.31 77,142.31 78,113.85 79,128.08 80,170.77 81,113.85 82,128.08 83,128.08 84,185 85,128.08 86,113.85 87,128.08 88,113.85 90,113.85 91,128.08 92,128.08 93,170.77 94,142.31 95,128.08 96,113.85 98,113.85 99,128.08 100,128.08 101,113.85 102,128.08 103,128.08 104,113.85 105,128.08 106,241.92 107,128.08 108,113.85 109,128.08 110,128.08 111,298.85 112,170.77 113,113.85 114,170.77 115,113.85 116,142.31 117,128.08 118,128.08 119,113.85 120,156.54 121,128.08 123,128.08 124,156.54 125,128.08 127,128.08 128,142.31 129,128.08 130,185 131,142.31 132,170.77 133,298.85 134,128.08 135,185 136,170.77 137,156.54 138,170.77 139,185 140,313.08 140.95,370"><title>LR761639.1</title></polygon><rect class="average" height="1" width="140.95" x="0" y="147.41"><title>average:15.64</title></rect><rect class="median" height="1" width="140.95" x="0" y="142.31"><title>median:16</title></rect><text class="chromName" x="70.47" y="-12">LR761639.1<title>LR761639.1 60,151,564 bp</title></text><rect class="frame" height="370" width="140.95" x="0" y="0"/></g><g id="chrom-LR761640.1" transform="translate(892.7327113317651,0)"><polygon class="cov0" points="0,370 0,199.23 1,128.08 2,199.23 3,170.77 4,170.77 5,128.08 6,170.77 7,185 8,128.08 9,170.77 10,142.31 11,142.31 12,128.08 13,256.15 14,170.77 15,142.31 16,227.69 17,142.31 18,128.08 19,199.23 20,128.08 22,128.08 23,113.85 24,128.08 25,156.54 26,113.85 27,128.08 28,142.31 29,128.08 30,128.08 31,142.31 32,128.08 33,113.85 34,142.31 35,128.08 36,128.08 37,199.23 38,113.85 39,156.54 40,99.62 41,113.85 44,113.85 45,142.31 46,142.31 47,241.92 48,298.85 49,113.85 50,156.54 51,128.08 52,113.85 53,142.31 54,113.85 55,128.08 56,113.85 57,199.23 58,142.31 59,199.23 60,270.38 61,128.08 62,170.77 63,185 64,128.08 65,241.92 66,128.08 67,142.31 68,142.31 69,199.23 70,170.77 71,142.31 72,156.54 73,213.46 74,185 75,128.08 76,128.08 77,213.46 78,128.08 79,156.54 80,85.38 81,85.38 82,99.62 83,128.08 84,128.08 85,113.85 86,341.54 87,142.31 88,156.54 90,156.54 91,341.54 92,270.38 93,185 94,256.15 95,142.31 96,142.31 97,128.08 98,156.54 99,142.31 100,113.85 101,241.92 102,341.54 103,227.69 104,113.85 106,113.85 107,156.54 108,199.23 109,128.08 110,185 111,185 112,142.31 113,142.31 114,185 115,128.08 116,313.08 117,341.54 118,355.77 119,327.31 120,142.31 121,113.85 122,128.08 123,128.08 124,142.31 125,113.85 126,113.85 127,128.08 128,256.15 129,142.31 130,113.85 131,128.08 132,142.31 133,128.08 134,99.62 135,128.08 136,128.08 137,142.31 138,128.08 139,170.77 140,156.54 141,113.85 142,142.31 143,199.23 144,128.08 145,142.31 145.53,370"><title>LR761640.1</title></polygon><rect class="average" height="1" width="145.53" x="0" y="155.74"><title>average:15.06</title></rect><rect class="median" height="1" width="145.53" x="0" y="142.31"><title>median:16</title></rect><text class="chromName" x="72.77" y="-12">LR761640.1<title>LR761640.1 62,107,823 bp</title></text><rect class="frame" height="370" width="145.53" x="0" y="0"/></g><g id="chrom-LR761641.1" transform="translate(1039.265271917344,0)"><polygon class="cov1" points="0,370 0,298.85 1,185 2,241.92 3,199.23 4,170.77 5,227.69 6,298.85 7,256.15 8,256.15 9,199.23 10,170.77 11,213.46 12,241.92 13,128.08 14,185 15,142.31 16,128.08 17,355.77 18,128.08 19,156.54 20,156.54 21,185 22,213.46 23,156.54 24,170.77 25,142.31 26,256.15 27,227.69 28,256.15 29,284.62 30,241.92 31,199.23 32,256.15 33,199.23 34,270.38 35,298.85 36,341.54 37,313.08 38,284.62 39,298.85 40,185 41,256.15 42,298.85 43,341.54 44,241.92 46,241.92 47,270.38 48,227.69 49,142.31 50,170.77 51,142.31 52,128.08 54,128.08 55,113.85 56,113.85 57,170.77 58,170.77 59,156.54 60,142.31 61,270.38 62,156.54 63,185 64,213.46 65,199.23 66,213.46 67,241.92 68,241.92 69,156.54 70,241.92 71,128.08 72,199.23 73,313.08 74,213.46 75,327.31 76,170.77 77,142.31 78,170.77 79,256.15 80,256.15 81,341.54 82,355.77 83,327.31 84,185 85,142.31 86,256.15 87,128.08 88,199.23 89,199.23 90,256.15 91,270.38 92,128.08 93,241.92 94,256.15 95,185 96,156.54 97,355.77 98,142.31 99,284.62 100,256.15 101,142.31 102,185 103,113.85 104,185 105,142.31 106,241.92 107,113.85 108,142.31 109,156.54 110,142.31 111,284.62 112,142.31 113,256.15 114,156.54 115,185 116,128.08 117,170.77 118,156.54 119,199.23 120,227.69 121,156.54 122,170.77 123,227.69 124,156.54 125,199.23 126,256.15 127,128.08 128,199.23 129,156.54 130,270.38 131,199.23 132,270.38 133,227.69 134,142.31 135,355.77 136,298.85 136.99,370"><title>LR761641.1</title></polygon><rect class="average" height="1" width="136.99" x="0" y="186.68"><title>average:12.88</title></rect><rect class="median" height="1" width="136.99" x="0" y="213.46"><title>median:11</title></rect><text class="chromName" x="68.5" y="-12">LR761641.1<title>LR761641.1 58,462,999 bp</title></text><rect class="frame" height="370" width="136.99" x="0" y="0"/></g><g id="chrom-LR761642.1" transform="translate(1177.25719230686,0)"><polygon class="cov0" points="0,370 0,327.31 1,313.08 2,298.85 3,227.69 4,270.38 5,313.08 6,270.38 7,256.15 8,327.31 9,313.08 10,256.15 11,199.23 12,284.62 13,142.31 14,185 15,213.46 16,270.38 17,199.23 18,284.62 19,256.15 20,199.23 21,185 22,298.85 23,284.62 24,170.77 25,128.08 26,185 27,241.92 28,298.85 29,156.54 30,213.46 31,142.31 32,170.77 33,256.15 34,170.77 35,313.08 36,142.31 37,185 38,128.08 39,170.77 40,142.31 41,156.54 42,128.08 43,142.31 44,142.31 45,213.46 46,156.54 47,256.15 48,256.15 49,298.85 50,199.23 51,213.46 52,227.69 53,128.08 54,142.31 55,227.69 56,170.77 57,199.23 58,227.69 59,156.54 60,156.54 61,313.08 62,185 63,170.77 64,199.23 65,185 66,170.77 67,313.08 68,241.92 69,185 70,213.46 71,241.92 72,156.54 73,213.46 74,142.31 75,199.23 76,327.31 77,156.54 78,142.31 79,227.69 80,241.92 81,185 82,298.85 83,256.15 84,284.62 85,199.23 86,313.08 86.91,370"><title>LR761642.1</title></polygon><rect class="average" height="1" width="86.91" x="0" y="182.69"><title>average:13.16</title></rect><rect class="median" height="1" width="86.91" x="0" y="213.46"><title>median:11</title></rect><text class="chromName" x="43.45" y="-12">LR761642.1<title>LR761642.1 37,089,910 bp</title></text><rect class="frame" height="370" width="86.91" x="0" y="0"/></g><g id="chrom-LR761643.1" transform="translate(1265.1671710093603,0)"><polygon class="cov1" points="0,370 0,341.54 1,270.38 2,170.77 3,142.31 4,156.54 5,199.23 6,170.77 7,185 8,156.54 9,128.08 10,128.08 11,156.54 12,128.08 13,170.77 14,227.69 15,142.31 16,113.85 17,142.31 18,156.54 19,185 20,341.54 21,156.54 22,128.08 23,128.08 24,213.46 25,156.54 26,355.77 27,327.31 28,370 29,128.08 30,199.23 31,156.54 32,199.23 33,142.31 34,142.31 35,185 36,256.15 37,113.85 38,128.08 39,113.85 40,128.08 41,142.31 42,156.54 43,284.62 44,142.31 45,156.54 46,113.85 47,170.77 48,156.54 49,142.31 50,185 51,128.08 52,128.08 53,156.54 54,156.54 55,128.08 56,113.85 57,128.08 58,170.77 59,128.08 60,113.85 61,128.08 62,156.54 63,142.31 64,142.31 65,185 66,142.31 68,142.31 69,128.08 70,156.54 71,199.23 72,156.54 73,185 74,128.08 75,185 76,128.08 77,113.85 78,199.23 79,256.15 80,128.08 81,113.85 82,128.08 83,128.08 84,113.85 85,113.85 86,142.31 87,113.85 88,156.54 89,355.77 90,170.77 91,128.08 92,113.85 93,128.08 94,113.85 95,142.31 96,113.85 99,113.85 100,128.08 101,227.69 102,128.08 103,128.08 104,156.54 105,128.08 106,113.85 107,113.85 108,128.08 109,99.62 110,113.85 111,113.85 112,128.08 113,199.23 114,142.31 115,128.08 116,99.62 117,113.85 118,128.08 119,156.54 120,113.85 123,113.85 124,128.08 125,128.08 126,113.85 127,199.23 128,185 129,128.08 130,170.77 131,199.23 132,128.08 133,241.92 134,355.77 134.83,370"><title>LR761643.1</title></polygon><rect class="average" height="1" width="134.83" x="0" y="155.65"><title>average:15.06</title></rect><rect class="median" height="1" width="134.83" x="0" y="142.31"><title>median:16</title></rect><text class="chromName" x="67.42" y="-12">LR761643.1<title>LR761643.1 57,541,580 bp</title></text><rect class="frame" height="370" width="134.83" x="0" y="0"/></g><g><line class="ruler" x1="-2" x2="1390" y1="333" y2="333"><title>2</title></line><text class="ruler" x="-5" y="333">2</text><line class="ruler" x1="-2" x2="1390" y1="296" y2="296"><title>5</title></line><text class="ruler" x="-5" y="296">5</text><line class="ruler" x1="-2" x2="1390" y1="259" y2="259"><title>7</title></line><text class="ruler" x="-5" y="259">7</text><line class="ruler" x1="-2" x2="1390" y1="222" y2="222"><title>10</title></line><text class="ruler" x="-5" y="222">10</text><line class="ruler" x1="-2" x2="1390" y1="185" y2="185"><title>13</title></line><text class="ruler" x="-5" y="185">13</text><line class="ruler" x1="-2" x2="1390" y1="148" y2="148"><title>15</title></line><text class="ruler" x="-5" y="148">15</text><line class="ruler" x1="-2" x2="1390" y1="111" y2="111"><title>18</title></line><text class="ruler" x="-5" y="111">18</text><line class="ruler" x1="-2" x2="1390" y1="74" y2="74"><title>20</title></line><text class="ruler" x="-5" y="74">20</text><line class="ruler" x1="-2" x2="1390" y1="37" y2="37"><title>23</title></line><text class="ruler" x="-5" y="37">23</text><line class="ruler" x1="-2" x2="1390" y1="0" y2="0"><title>26</title></line><text class="ruler" x="-5" y="0">26</text></g></g><text class="title" x="795" y="40">F3_M2_14.merged.realigned.bam F3_M2_14 F3_M2_14_1 F3_M2_14_2<title>./F3_M2_14.merged.realigned.bam</title></text><text class="xLabel" x="795" y="475">GCA_902806645.1_cgigas_uk_roslin_v1_genomic.fna  (589,358,857 bp)<title>../ref/GCA_902806645.1_cgigas_uk_roslin_v1_genomic.fna</title></text><text class="yLabel" transform="translate(25,265) rotate(90)" x="0" y="0">Coverage bp (median)</text></g></svg>