<?xml version="1.0" encoding="UTF-8" standalone="no"?><svg height="500" width="1500" xmlns="http://www.w3.org/2000/svg"><title>F3_M1_24.merged.realigned.bam</title><desc>Made with wgscoverageplotter undefined Author: Pierre Lindenbaum</desc><style>g.maing {stroke:black;stroke-width:0.5px;fill:none;}
text.title {stroke:none;fill:black;stroke-width:1px;text-anchor:middle;}
rect.frame {stroke:darkgray;fill:none;stroke-width:0.5px;}
text.ruler {stroke:none;fill:darkgray;stroke-width:1px;text-anchor:end;}
text.chromName {stroke:none;fill:darkgray;stroke-width:1px;text-anchor:middle;}
text.xLabel {stroke:none;fill:black;stroke-width:1px;text-anchor:middle;}
text.yLabel {stroke:none;fill:black;stroke-width:1px;text-anchor:middle;}
.cov0 {stroke:gray;fill:antiquewhite;stroke-width:0.5px;}
.cov1 {stroke:gray;fill:beige;stroke-width:0.5px;}
rect.average {stroke:green;fill:green;stroke-width:0.5px;opacity:0.3;}
rect.median {stroke:red;fill:red;stroke-width:0.5px;opacity:0.3;}
line.ruler {stroke:darkgray;stroke-dasharray:4;fill:none;stroke-width:1;}
</style><g class="maing"><g id="chromosomes" transform="translate(100.0,80.0)"><g id="chrom-LR761634.1" transform="translate(10.0,0)"><polygon class="cov0" points="0,370 0,327.31 1,142.31 2,156.54 3,284.62 4,213.46 5,185 6,270.38 7,185 8,156.54 9,128.08 10,156.54 11,113.85 12,156.54 13,227.69 14,170.77 15,142.31 16,128.08 17,199.23 18,128.08 19,128.08 20,113.85 21,128.08 22,142.31 23,156.54 24,156.54 25,113.85 27,113.85 28,128.08 29,113.85 30,113.85 31,128.08 32,256.15 33,113.85 34,128.08 35,128.08 36,99.62 37,170.77 38,185 39,128.08 40,113.85 42,113.85 43,156.54 44,142.31 45,213.46 46,170.77 47,128.08 48,142.31 49,128.08 50,142.31 51,128.08 52,113.85 53,128.08 54,227.69 55,256.15 56,113.85 57,99.62 58,113.85 59,128.08 60,142.31 61,113.85 62,142.31 63,156.54 65,156.54 66,142.31 67,170.77 68,113.85 69,199.23 70,113.85 71,113.85 72,213.46 73,156.54 74,142.31 75,113.85 76,113.85 77,156.54 78,156.54 79,142.31 80,256.15 81,284.62 82,113.85 83,128.08 84,142.31 85,128.08 86,113.85 87,185 88,113.85 89,270.38 90,142.31 91,142.31 92,113.85 93,156.54 94,99.62 95,128.08 96,113.85 97,185 98,313.08 99,128.08 100,128.08 101,185 102,142.31 103,156.54 104,170.77 105,113.85 106,185 107,185 108,256.15 109,113.85 110,113.85 111,142.31 112,128.08 113,156.54 114,327.31 115,199.23 116,113.85 117,128.08 118,113.85 119,170.77 120,241.92 121,128.08 122,142.31 123,128.08 124,142.31 125,128.08 126,142.31 127,128.08 128,185 129,156.54 130,213.46 130.72,370"><title>LR761634.1</title></polygon><rect class="average" height="1" width="130.72" x="0" y="150.9"><title>average:15.4</title></rect><rect class="median" height="1" width="130.72" x="0" y="142.31"><title>median:16</title></rect><text class="chromName" x="65.36" y="-12">LR761634.1<title>LR761634.1 55,785,328 bp</title></text><rect class="frame" height="370" width="130.72" x="0" y="0"/></g><g id="chrom-LR761635.1" transform="translate(141.71753661284166,0)"><polygon class="cov1" points="0,370 0,355.77 1,355.77 2,341.54 3,298.85 4,355.77 5,370 6,256.15 7,313.08 8,341.54 9,227.69 10,241.92 11,284.62 12,213.46 13,156.54 14,227.69 15,298.85 16,313.08 17,241.92 18,256.15 19,241.92 20,284.62 21,313.08 22,284.62 23,227.69 24,270.38 25,341.54 26,270.38 27,313.08 28,298.85 29,355.77 30,341.54 31,284.62 32,227.69 33,227.69 34,185 35,241.92 36,284.62 37,341.54 38,341.54 39,156.54 40,128.08 41,199.23 42,185 43,199.23 44,170.77 45,156.54 46,199.23 47,113.85 48,170.77 49,142.31 50,170.77 51,199.23 52,170.77 53,298.85 54,327.31 55,213.46 56,227.69 57,241.92 58,199.23 59,327.31 60,370 61,270.38 62,142.31 63,298.85 64,313.08 65,284.62 66,313.08 67,298.85 68,298.85 69,227.69 70,284.62 71,298.85 72,298.85 73,241.92 74,256.15 75,227.69 76,341.54 77,0 78,241.92 79,313.08 80,142.31 81,327.31 82,355.77 83,270.38 84,355.77 85,298.85 86,355.77 88,355.77 89,370 90,341.54 91,341.54 92,327.31 93,241.92 94,298.85 95,270.38 96,313.08 97,270.38 98,327.31 99,256.15 100,313.08 101,313.08 102,341.54 103,227.69 104,213.46 105,128.08 106,270.38 107,313.08 108,199.23 109,199.23 110,284.62 111,185 112,341.54 113,327.31 114,313.08 115,327.31 116,313.08 117,270.38 118,170.77 119,185 120,128.08 121,156.54 122,227.69 123,241.92 124,270.38 125,142.31 126,256.15 127,284.62 128,185 129,256.15 130,156.54 131,213.46 132,185 133,256.15 134,313.08 135,313.08 136,341.54 137,327.31 138,327.31 139,341.54 140,341.54 141,298.85 142,270.38 143,298.85 144,284.62 145,227.69 146,284.62 147,113.85 148,170.77 149,142.31 150,241.92 151,298.85 152,327.31 153,199.23 154,256.15 155,284.62 157,284.62 158,298.85 159,170.77 160,213.46 161,241.92 162,284.62 163,270.38 164,199.23 165,185 166,227.69 167,270.38 168,185 169,256.15 170,341.54 171,327.31 171.58,370"><title>LR761635.1</title></polygon><rect class="average" height="1" width="171.58" x="0" y="207.66"><title>average:11.41</title></rect><rect class="median" height="1" width="171.58" x="0" y="270.38"><title>median:7</title></rect><text class="chromName" x="85.79" y="-12">LR761635.1<title>LR761635.1 73,222,313 bp</title></text><rect class="frame" height="370" width="171.58" x="0" y="0"/></g><g id="chrom-LR761636.1" transform="translate(314.2938403401308,0)"><polygon class="cov0" points="0,370 0,341.54 1,156.54 2,256.15 3,313.08 4,213.46 5,142.31 6,113.85 7,142.31 8,113.85 9,142.31 10,128.08 11,128.08 12,142.31 13,241.92 14,113.85 15,128.08 16,128.08 17,113.85 18,142.31 19,142.31 20,128.08 22,128.08 23,113.85 24,199.23 25,128.08 26,227.69 27,227.69 28,113.85 29,99.62 30,113.85 31,99.62 32,113.85 33,113.85 34,128.08 35,199.23 36,142.31 37,156.54 38,142.31 39,128.08 40,156.54 43,156.54 44,128.08 45,142.31 46,170.77 47,128.08 48,185 49,142.31 50,156.54 51,113.85 52,128.08 53,128.08 54,227.69 55,156.54 56,142.31 57,113.85 58,156.54 59,128.08 60,170.77 61,213.46 62,156.54 63,128.08 64,128.08 65,142.31 67,142.31 68,156.54 69,142.31 70,142.31 71,99.62 72,113.85 73,156.54 74,156.54 75,142.31 76,298.85 77,213.46 78,227.69 79,256.15 80,256.15 81,128.08 82,213.46 83,142.31 84,113.85 85,128.08 86,284.62 87,142.31 88,142.31 89,199.23 90,128.08 91,113.85 92,170.77 93,142.31 94,128.08 95,185 96,170.77 97,128.08 98,128.08 99,156.54 100,156.54 101,128.08 102,156.54 103,99.62 104,128.08 107,128.08 108,113.85 110,113.85 111,156.54 112,142.31 113,156.54 114,113.85 115,99.62 116,99.62 117,128.08 118,170.77 119,128.08 120,128.08 121,213.46 122,113.85 123,113.85 124,185 125,128.08 126,113.85 127,199.23 128,256.15 129,128.08 130,142.31 131,156.54 132,170.77 133,170.77 134,128.08 135,156.54 136,256.15 136.65,370"><title>LR761636.1</title></polygon><rect class="average" height="1" width="136.65" x="0" y="149.75"><title>average:15.48</title></rect><rect class="median" height="1" width="136.65" x="0" y="142.31"><title>median:16</title></rect><text class="chromName" x="68.33" y="-12">LR761636.1<title>LR761636.1 58,319,100 bp</title></text><rect class="frame" height="370" width="136.65" x="0" y="0"/></g><g id="chrom-LR761637.1" transform="translate(451.9485730949149,0)"><polygon class="cov1" points="0,370 0,355.77 1,284.62 2,298.85 3,298.85 4,227.69 5,185 6,213.46 7,241.92 8,256.15 9,284.62 10,327.31 11,185 12,241.92 13,284.62 14,298.85 15,185 16,213.46 17,113.85 18,256.15 19,298.85 20,241.92 21,142.31 22,156.54 23,213.46 24,327.31 25,170.77 26,128.08 27,227.69 28,227.69 29,241.92 30,256.15 31,142.31 32,142.31 33,156.54 34,128.08 35,199.23 36,327.31 37,284.62 38,156.54 39,156.54 40,142.31 41,313.08 42,270.38 43,241.92 44,313.08 45,213.46 46,142.31 47,142.31 48,113.85 49,128.08 50,185 51,128.08 52,99.62 53,185 54,99.62 55,128.08 56,156.54 57,241.92 58,284.62 59,298.85 60,298.85 61,213.46 62,128.08 63,142.31 64,128.08 65,142.31 66,128.08 67,142.31 68,170.77 69,113.85 70,142.31 71,128.08 72,170.77 73,128.08 74,185 75,128.08 77,128.08 78,142.31 79,156.54 81,156.54 82,128.08 83,142.31 84,142.31 85,113.85 86,241.92 87,156.54 88,113.85 89,128.08 90,113.85 91,128.08 92,113.85 93,170.77 94,170.77 95,199.23 96,213.46 97,128.08 98,113.85 99,128.08 100,213.46 101,241.92 102,270.38 103,256.15 104,270.38 105,199.23 106,113.85 108,113.85 109,128.08 110,113.85 111,185 112,142.31 113,113.85 114,270.38 115,185 116,185 117,156.54 118,156.54 119,298.85 120,170.77 121,128.08 122,298.85 123,327.31 124,313.08 124.49,370"><title>LR761637.1</title></polygon><rect class="average" height="1" width="124.49" x="0" y="174.39"><title>average:13.75</title></rect><rect class="median" height="1" width="124.49" x="0" y="185"><title>median:13</title></rect><text class="chromName" x="62.25" y="-12">LR761637.1<title>LR761637.1 53,127,865 bp</title></text><rect class="frame" height="370" width="124.49" x="0" y="0"/></g><g id="chrom-LR761638.1" transform="translate(577.4390778079033,0)"><polygon class="cov0" points="0,370 0,298.85 1,284.62 2,313.08 3,156.54 4,270.38 5,156.54 6,199.23 7,199.23 8,227.69 9,128.08 10,185 11,313.08 12,128.08 13,170.77 14,113.85 15,156.54 16,113.85 17,128.08 18,270.38 19,298.85 20,142.31 21,227.69 22,142.31 23,113.85 24,128.08 25,156.54 26,298.85 27,128.08 28,185 29,341.54 30,227.69 31,128.08 32,355.77 33,341.54 34,185 35,256.15 36,142.31 37,298.85 38,298.85 39,341.54 40,355.77 41,341.54 42,270.38 43,128.08 44,142.31 45,270.38 46,213.46 47,113.85 48,128.08 49,241.92 50,355.77 51,241.92 52,156.54 53,170.77 54,213.46 55,227.69 56,142.31 57,227.69 58,185 59,199.23 60,284.62 61,199.23 62,156.54 63,298.85 64,256.15 65,327.31 66,170.77 67,256.15 68,170.77 69,284.62 70,156.54 71,341.54 72,341.54 73,298.85 74,256.15 75,341.54 76,327.31 77,199.23 78,341.54 79,313.08 80,327.31 81,170.77 82,341.54 83,270.38 84,227.69 85,170.77 86,113.85 87,170.77 88,313.08 89,128.08 90,284.62 91,156.54 92,113.85 93,113.85 94,128.08 95,213.46 96,256.15 97,142.31 98,256.15 99,199.23 100,170.77 101,156.54 102,284.62 103,185 104,227.69 105,284.62 106,213.46 107,185 108,213.46 109,185 110,241.92 111,199.23 112,327.31 113,213.46 114,256.15 115,270.38 116,341.54 117,355.77 118,341.54 119,327.31 120,313.08 121,355.77 123,355.77 124,298.85 125,327.31 126,313.08 127,284.62 128,370 129,313.08 130,341.54 131,327.31 132,270.38 133,327.31 134,284.62 135,284.62 136,156.54 137,370 138,355.77 139,270.38 140,327.31 141,341.54 142,270.38 143,270.38 144,170.77 145,185 146,227.69 147,142.31 148,142.31 149,170.77 150,199.23 151,313.08 152,170.77 153,156.54 154,241.92 155,298.85 156,213.46 157,256.15 158,355.77 159,313.08 160,355.77 161,298.85 162,284.62 163,241.92 164,341.54 165,355.77 166,355.77 167,370 168,355.77 169,241.92 170,370 171,370 172,355.77 172.35,370"><title>LR761638.1</title></polygon><rect class="average" height="1" width="172.35" x="0" y="211.14"><title>average:11.16</title></rect><rect class="median" height="1" width="172.35" x="0" y="256.15"><title>median:8</title></rect><text class="chromName" x="86.17" y="-12">LR761638.1<title>LR761638.1 73,550,375 bp</title></text><rect class="frame" height="370" width="172.35" x="0" y="0"/></g><g id="chrom-LR761639.1" transform="translate(750.784104388203,0)"><polygon class="cov1" points="0,370 0,284.62 1,142.31 2,142.31 3,256.15 4,156.54 5,256.15 6,341.54 7,227.69 8,142.31 9,128.08 10,170.77 11,270.38 12,241.92 13,142.31 14,170.77 15,128.08 16,128.08 17,113.85 21,113.85 22,142.31 23,142.31 24,170.77 25,199.23 26,170.77 27,298.85 28,298.85 29,227.69 30,313.08 31,128.08 32,99.62 33,113.85 34,185 35,213.46 36,213.46 37,128.08 39,128.08 40,213.46 41,113.85 42,142.31 43,113.85 44,128.08 45,113.85 46,142.31 47,128.08 48,113.85 49,156.54 50,156.54 51,128.08 52,170.77 53,142.31 54,142.31 55,128.08 56,113.85 57,128.08 58,128.08 59,113.85 60,113.85 61,128.08 62,128.08 63,142.31 64,99.62 65,113.85 66,156.54 67,128.08 68,128.08 69,199.23 70,128.08 71,128.08 72,142.31 73,128.08 74,199.23 75,113.85 76,128.08 77,142.31 78,113.85 79,113.85 80,142.31 81,113.85 82,128.08 83,113.85 84,199.23 85,142.31 86,113.85 87,128.08 88,99.62 89,113.85 90,113.85 91,142.31 92,113.85 93,156.54 94,113.85 96,113.85 97,99.62 98,99.62 99,113.85 101,113.85 102,128.08 103,128.08 104,99.62 105,113.85 106,241.92 107,128.08 108,113.85 109,128.08 110,128.08 111,313.08 112,170.77 113,113.85 114,170.77 115,99.62 116,128.08 117,128.08 118,113.85 119,113.85 120,156.54 121,128.08 122,113.85 123,128.08 124,170.77 125,113.85 126,113.85 127,128.08 128,142.31 129,113.85 130,185 131,156.54 132,185 133,327.31 134,113.85 135,170.77 136,156.54 137,142.31 138,199.23 139,142.31 140,170.77 140.95,370"><title>LR761639.1</title></polygon><rect class="average" height="1" width="140.95" x="0" y="145.07"><title>average:15.81</title></rect><rect class="median" height="1" width="140.95" x="0" y="142.31"><title>median:16</title></rect><text class="chromName" x="70.47" y="-12">LR761639.1<title>LR761639.1 60,151,564 bp</title></text><rect class="frame" height="370" width="140.95" x="0" y="0"/></g><g id="chrom-LR761640.1" transform="translate(892.7327113317651,0)"><polygon class="cov0" points="0,370 0,185 1,128.08 2,185 3,170.77 4,170.77 5,113.85 6,185 7,185 8,128.08 9,142.31 11,142.31 12,128.08 13,241.92 14,170.77 15,142.31 16,199.23 17,128.08 18,113.85 19,185 20,113.85 21,128.08 22,128.08 23,113.85 24,128.08 25,156.54 26,99.62 27,113.85 28,142.31 29,128.08 30,128.08 31,142.31 32,113.85 33,113.85 34,142.31 35,113.85 36,128.08 37,199.23 38,113.85 39,156.54 40,99.62 41,113.85 42,85.38 43,113.85 44,113.85 45,142.31 46,142.31 47,256.15 48,327.31 49,113.85 50,142.31 51,113.85 52,113.85 53,128.08 54,113.85 55,113.85 56,128.08 57,199.23 58,142.31 59,156.54 60,241.92 61,113.85 62,156.54 63,170.77 64,113.85 65,227.69 66,113.85 67,142.31 68,142.31 69,185 70,170.77 71,128.08 72,142.31 73,185 74,170.77 75,113.85 76,128.08 77,213.46 78,128.08 79,156.54 80,85.38 82,85.38 83,128.08 84,113.85 85,113.85 86,313.08 87,142.31 88,142.31 89,156.54 90,142.31 91,341.54 92,270.38 93,185 94,284.62 95,142.31 96,142.31 97,128.08 98,142.31 99,142.31 100,113.85 101,241.92 102,341.54 103,227.69 104,128.08 105,128.08 106,142.31 107,156.54 108,213.46 109,128.08 110,156.54 111,185 112,142.31 113,142.31 114,185 115,128.08 116,327.31 117,341.54 118,355.77 119,341.54 120,128.08 121,113.85 122,128.08 124,128.08 125,113.85 126,113.85 127,128.08 128,227.69 129,142.31 130,113.85 131,128.08 133,128.08 134,113.85 135,128.08 136,128.08 137,142.31 138,128.08 139,199.23 140,142.31 141,128.08 142,170.77 143,213.46 144,142.31 145,128.08 145.53,370"><title>LR761640.1</title></polygon><rect class="average" height="1" width="145.53" x="0" y="152.21"><title>average:15.3</title></rect><rect class="median" height="1" width="145.53" x="0" y="142.31"><title>median:16</title></rect><text class="chromName" x="72.77" y="-12">LR761640.1<title>LR761640.1 62,107,823 bp</title></text><rect class="frame" height="370" width="145.53" x="0" y="0"/></g><g id="chrom-LR761641.1" transform="translate(1039.265271917344,0)"><polygon class="cov1" points="0,370 0,256.15 1,185 2,241.92 3,185 4,241.92 5,227.69 6,256.15 7,241.92 8,227.69 9,185 10,156.54 11,185 12,256.15 13,128.08 14,227.69 15,142.31 16,128.08 17,327.31 18,113.85 19,128.08 20,142.31 21,170.77 22,185 23,142.31 24,185 25,170.77 26,227.69 27,213.46 28,227.69 29,270.38 30,227.69 31,199.23 32,284.62 33,199.23 34,241.92 35,284.62 36,313.08 37,256.15 38,256.15 39,270.38 40,199.23 41,284.62 42,284.62 43,298.85 44,284.62 45,256.15 46,241.92 47,270.38 48,256.15 49,142.31 50,170.77 51,142.31 52,128.08 53,113.85 54,128.08 55,113.85 56,113.85 57,156.54 59,156.54 60,128.08 61,256.15 62,142.31 63,185 64,170.77 65,199.23 66,199.23 67,241.92 68,256.15 69,156.54 70,227.69 71,128.08 72,227.69 73,298.85 74,213.46 75,341.54 76,185 77,185 78,156.54 79,227.69 80,298.85 81,341.54 82,341.54 83,327.31 84,185 85,156.54 86,270.38 87,113.85 88,213.46 89,185 90,227.69 91,241.92 92,142.31 93,227.69 94,270.38 95,256.15 96,156.54 97,284.62 98,128.08 99,313.08 100,270.38 101,142.31 102,170.77 103,128.08 104,185 105,142.31 106,270.38 107,128.08 108,156.54 109,156.54 110,142.31 111,256.15 112,128.08 113,241.92 114,142.31 115,156.54 116,113.85 117,170.77 118,156.54 119,199.23 120,213.46 121,170.77 122,170.77 123,241.92 124,156.54 125,213.46 126,227.69 127,128.08 128,241.92 129,199.23 130,284.62 131,213.46 132,355.77 133,270.38 134,156.54 135,355.77 136,355.77 136.99,370"><title>LR761641.1</title></polygon><rect class="average" height="1" width="136.99" x="0" y="182.58"><title>average:13.17</title></rect><rect class="median" height="1" width="136.99" x="0" y="199.23"><title>median:12</title></rect><text class="chromName" x="68.5" y="-12">LR761641.1<title>LR761641.1 58,462,999 bp</title></text><rect class="frame" height="370" width="136.99" x="0" y="0"/></g><g id="chrom-LR761642.1" transform="translate(1177.25719230686,0)"><polygon class="cov0" points="0,370 0,284.62 1,270.38 3,270.38 4,327.31 5,341.54 6,313.08 7,313.08 8,284.62 9,313.08 10,270.38 11,199.23 12,227.69 13,142.31 14,199.23 15,199.23 16,284.62 17,256.15 18,298.85 19,199.23 20,227.69 21,156.54 22,313.08 23,298.85 24,156.54 25,128.08 26,170.77 27,185 28,284.62 29,156.54 30,227.69 31,142.31 32,156.54 33,227.69 34,142.31 35,327.31 36,142.31 37,170.77 38,128.08 39,170.77 40,128.08 41,170.77 42,113.85 43,142.31 44,142.31 45,199.23 46,142.31 47,241.92 48,227.69 49,298.85 50,185 51,199.23 52,227.69 53,128.08 54,142.31 55,227.69 56,156.54 57,213.46 58,213.46 59,170.77 60,142.31 61,327.31 62,185 63,170.77 64,199.23 65,199.23 66,170.77 67,313.08 68,227.69 69,156.54 70,199.23 71,284.62 72,156.54 73,213.46 74,142.31 75,199.23 76,298.85 77,170.77 78,156.54 79,241.92 80,241.92 81,185 82,298.85 83,241.92 84,284.62 85,227.69 86,313.08 86.91,370"><title>LR761642.1</title></polygon><rect class="average" height="1" width="86.91" x="0" y="180.33"><title>average:13.33</title></rect><rect class="median" height="1" width="86.91" x="0" y="213.46"><title>median:11</title></rect><text class="chromName" x="43.45" y="-12">LR761642.1<title>LR761642.1 37,089,910 bp</title></text><rect class="frame" height="370" width="86.91" x="0" y="0"/></g><g id="chrom-LR761643.1" transform="translate(1265.1671710093603,0)"><polygon class="cov1" points="0,370 0,341.54 1,270.38 2,170.77 3,128.08 4,156.54 5,213.46 6,185 7,170.77 8,142.31 9,113.85 10,128.08 11,156.54 12,128.08 13,199.23 14,227.69 15,142.31 16,128.08 17,156.54 18,156.54 19,170.77 20,341.54 21,156.54 22,128.08 23,128.08 24,185 25,170.77 26,355.77 27,327.31 28,355.77 29,128.08 30,185 31,156.54 32,199.23 33,128.08 34,156.54 35,185 36,256.15 37,113.85 38,128.08 39,113.85 40,128.08 41,142.31 42,156.54 43,270.38 44,142.31 45,170.77 46,128.08 47,199.23 48,156.54 49,142.31 50,156.54 51,128.08 52,128.08 53,142.31 54,142.31 55,128.08 56,113.85 58,113.85 59,128.08 60,99.62 61,113.85 62,142.31 63,128.08 64,156.54 65,185 66,142.31 67,142.31 68,128.08 69,128.08 70,156.54 71,199.23 72,170.77 73,185 74,113.85 75,213.46 76,128.08 77,113.85 78,170.77 79,256.15 80,128.08 81,113.85 82,128.08 83,128.08 84,113.85 85,113.85 86,128.08 87,113.85 88,142.31 89,355.77 90,170.77 91,128.08 92,113.85 93,142.31 94,113.85 95,142.31 96,99.62 97,113.85 99,113.85 100,128.08 101,199.23 102,128.08 103,142.31 104,142.31 105,128.08 106,113.85 107,113.85 108,128.08 109,113.85 112,113.85 113,185 114,142.31 115,128.08 116,99.62 117,113.85 118,128.08 119,156.54 120,113.85 123,113.85 124,128.08 125,128.08 126,113.85 127,199.23 128,185 129,128.08 130,156.54 131,213.46 132,128.08 133,270.38 134,313.08 134.83,370"><title>LR761643.1</title></polygon><rect class="average" height="1" width="134.83" x="0" y="155.09"><title>average:15.1</title></rect><rect class="median" height="1" width="134.83" x="0" y="142.31"><title>median:16</title></rect><text class="chromName" x="67.42" y="-12">LR761643.1<title>LR761643.1 57,541,580 bp</title></text><rect class="frame" height="370" width="134.83" x="0" y="0"/></g><g><line class="ruler" x1="-2" x2="1390" y1="333" y2="333"><title>2</title></line><text class="ruler" x="-5" y="333">2</text><line class="ruler" x1="-2" x2="1390" y1="296" y2="296"><title>5</title></line><text class="ruler" x="-5" y="296">5</text><line class="ruler" x1="-2" x2="1390" y1="259" y2="259"><title>7</title></line><text class="ruler" x="-5" y="259">7</text><line class="ruler" x1="-2" x2="1390" y1="222" y2="222"><title>10</title></line><text class="ruler" x="-5" y="222">10</text><line class="ruler" x1="-2" x2="1390" y1="185" y2="185"><title>13</title></line><text class="ruler" x="-5" y="185">13</text><line class="ruler" x1="-2" x2="1390" y1="148" y2="148"><title>15</title></line><text class="ruler" x="-5" y="148">15</text><line class="ruler" x1="-2" x2="1390" y1="111" y2="111"><title>18</title></line><text class="ruler" x="-5" y="111">18</text><line class="ruler" x1="-2" x2="1390" y1="74" y2="74"><title>20</title></line><text class="ruler" x="-5" y="74">20</text><line class="ruler" x1="-2" x2="1390" y1="37" y2="37"><title>23</title></line><text class="ruler" x="-5" y="37">23</text><line class="ruler" x1="-2" x2="1390" y1="0" y2="0"><title>26</title></line><text class="ruler" x="-5" y="0">26</text></g></g><text class="title" x="795" y="40">F3_M1_24.merged.realigned.bam F3_M1_24 F3_M1_24_1 F3_M1_24_2<title>./F3_M1_24.merged.realigned.bam</title></text><text class="xLabel" x="795" y="475">GCA_902806645.1_cgigas_uk_roslin_v1_genomic.fna  (589,358,857 bp)<title>../ref/GCA_902806645.1_cgigas_uk_roslin_v1_genomic.fna</title></text><text class="yLabel" transform="translate(25,265) rotate(90)" x="0" y="0">Coverage bp (median)</text></g></svg>