<?xml version="1.0" encoding="UTF-8" standalone="no"?><svg height="500" width="1500" xmlns="http://www.w3.org/2000/svg"><title>F3_M2_24.merged.realigned.bam</title><desc>Made with wgscoverageplotter undefined Author: Pierre Lindenbaum</desc><style>g.maing {stroke:black;stroke-width:0.5px;fill:none;}
text.title {stroke:none;fill:black;stroke-width:1px;text-anchor:middle;}
rect.frame {stroke:darkgray;fill:none;stroke-width:0.5px;}
text.ruler {stroke:none;fill:darkgray;stroke-width:1px;text-anchor:end;}
text.chromName {stroke:none;fill:darkgray;stroke-width:1px;text-anchor:middle;}
text.xLabel {stroke:none;fill:black;stroke-width:1px;text-anchor:middle;}
text.yLabel {stroke:none;fill:black;stroke-width:1px;text-anchor:middle;}
.cov0 {stroke:gray;fill:antiquewhite;stroke-width:0.5px;}
.cov1 {stroke:gray;fill:beige;stroke-width:0.5px;}
rect.average {stroke:green;fill:green;stroke-width:0.5px;opacity:0.3;}
rect.median {stroke:red;fill:red;stroke-width:0.5px;opacity:0.3;}
line.ruler {stroke:darkgray;stroke-dasharray:4;fill:none;stroke-width:1;}
</style><g class="maing"><g id="chromosomes" transform="translate(100.0,80.0)"><g id="chrom-LR761634.1" transform="translate(10.0,0)"><polygon class="cov0" points="0,370 0,308.33 1,138.75 2,138.75 3,292.92 4,215.83 5,169.58 6,277.5 7,185 8,154.17 9,138.75 10,154.17 11,123.33 12,169.58 13,215.83 14,246.67 15,154.17 16,138.75 17,169.58 18,138.75 19,138.75 20,123.33 21,138.75 22,154.17 24,154.17 25,123.33 26,138.75 27,138.75 28,154.17 29,123.33 30,138.75 31,138.75 32,262.08 33,138.75 34,138.75 35,154.17 36,123.33 37,185 38,200.42 39,138.75 40,123.33 41,138.75 42,138.75 43,185 44,154.17 45,200.42 46,169.58 47,138.75 48,154.17 49,138.75 50,154.17 51,154.17 52,138.75 53,154.17 54,200.42 55,215.83 56,123.33 57,123.33 58,138.75 59,154.17 60,154.17 61,123.33 62,154.17 63,185 65,185 66,154.17 67,200.42 68,123.33 69,200.42 70,138.75 71,138.75 72,215.83 73,185 74,154.17 75,138.75 76,138.75 77,200.42 78,169.58 79,138.75 80,246.67 81,246.67 82,123.33 83,138.75 84,154.17 85,138.75 86,123.33 87,200.42 88,123.33 89,262.08 90,154.17 91,138.75 92,138.75 93,169.58 94,107.92 95,138.75 96,123.33 97,169.58 98,292.92 99,138.75 100,138.75 101,169.58 102,154.17 103,169.58 104,185 105,123.33 106,215.83 107,185 108,262.08 109,123.33 110,107.92 111,138.75 112,123.33 113,200.42 114,323.75 115,169.58 116,123.33 117,107.92 118,107.92 119,154.17 120,200.42 121,123.33 122,138.75 123,123.33 124,138.75 125,123.33 126,138.75 127,138.75 128,200.42 129,185 130,215.83 130.72,370"><title>LR761634.1</title></polygon><rect class="average" height="1" width="130.72" x="0" y="157.23"><title>average:13.8</title></rect><rect class="median" height="1" width="130.72" x="0" y="154.17"><title>median:14</title></rect><text class="chromName" x="65.36" y="-12">LR761634.1<title>LR761634.1 55,785,328 bp</title></text><rect class="frame" height="370" width="130.72" x="0" y="0"/></g><g id="chrom-LR761635.1" transform="translate(141.71753661284166,0)"><polygon class="cov1" points="0,370 0,354.58 1,354.58 2,323.75 3,308.33 4,354.58 5,370 6,277.5 7,308.33 8,339.17 9,185 10,154.17 11,231.25 12,215.83 13,154.17 14,215.83 15,277.5 16,292.92 17,246.67 18,262.08 19,231.25 20,262.08 21,292.92 22,277.5 23,200.42 24,308.33 25,339.17 26,277.5 27,308.33 28,246.67 29,323.75 30,339.17 31,323.75 32,231.25 33,231.25 34,185 35,215.83 36,231.25 37,323.75 38,339.17 39,138.75 40,138.75 41,169.58 42,169.58 43,200.42 44,154.17 45,138.75 46,215.83 47,123.33 48,154.17 49,138.75 50,154.17 51,200.42 52,154.17 53,292.92 54,339.17 55,200.42 56,215.83 57,231.25 58,169.58 59,292.92 60,339.17 61,292.92 62,138.75 63,308.33 64,308.33 65,292.92 67,292.92 68,277.5 69,246.67 70,262.08 71,246.67 72,277.5 73,231.25 74,215.83 75,185 76,262.08 77,0 78,200.42 79,246.67 80,138.75 81,215.83 82,231.25 83,185 84,262.08 85,262.08 86,277.5 88,277.5 89,292.92 90,262.08 91,339.17 92,323.75 93,262.08 94,292.92 95,308.33 96,323.75 97,292.92 98,339.17 99,308.33 100,339.17 101,323.75 102,323.75 103,200.42 104,154.17 105,169.58 106,246.67 107,292.92 108,185 109,215.83 110,277.5 111,185 112,323.75 113,354.58 114,308.33 115,323.75 116,277.5 117,277.5 118,185 119,185 120,138.75 121,154.17 122,246.67 123,246.67 124,262.08 125,138.75 126,215.83 127,231.25 128,107.92 129,138.75 130,154.17 131,277.5 132,215.83 133,323.75 134,323.75 135,308.33 136,339.17 137,308.33 138,323.75 139,292.92 140,339.17 141,323.75 142,323.75 143,292.92 144,262.08 145,246.67 146,231.25 147,123.33 148,169.58 149,123.33 150,231.25 151,277.5 152,354.58 153,215.83 154,277.5 155,215.83 156,262.08 157,246.67 158,262.08 159,169.58 160,215.83 161,215.83 162,277.5 163,169.58 164,215.83 165,277.5 166,323.75 168,323.75 169,246.67 170,339.17 171,339.17 171.58,370"><title>LR761635.1</title></polygon><rect class="average" height="1" width="171.58" x="0" y="200.28"><title>average:11.01</title></rect><rect class="median" height="1" width="171.58" x="0" y="246.67"><title>median:8</title></rect><text class="chromName" x="85.79" y="-12">LR761635.1<title>LR761635.1 73,222,313 bp</title></text><rect class="frame" height="370" width="171.58" x="0" y="0"/></g><g id="chrom-LR761636.1" transform="translate(314.2938403401308,0)"><polygon class="cov0" points="0,370 0,339.17 1,169.58 2,308.33 3,354.58 4,231.25 5,123.33 6,154.17 7,169.58 8,123.33 9,138.75 10,107.92 11,138.75 12,138.75 13,292.92 14,123.33 15,138.75 16,123.33 17,123.33 18,169.58 19,123.33 20,123.33 21,138.75 22,123.33 23,123.33 24,200.42 25,123.33 26,215.83 27,277.5 28,123.33 29,107.92 30,123.33 31,123.33 32,107.92 33,123.33 34,138.75 35,185 36,138.75 37,169.58 38,138.75 39,138.75 40,123.33 41,154.17 42,169.58 43,138.75 44,138.75 45,154.17 46,169.58 47,138.75 48,185 49,154.17 50,154.17 51,123.33 52,138.75 53,138.75 54,246.67 55,154.17 56,154.17 57,123.33 58,154.17 59,138.75 60,154.17 61,215.83 62,154.17 63,138.75 64,138.75 65,154.17 67,154.17 68,169.58 69,154.17 70,169.58 71,123.33 72,123.33 73,169.58 74,169.58 75,154.17 76,308.33 77,231.25 78,246.67 79,262.08 80,262.08 81,138.75 82,231.25 83,154.17 84,123.33 85,138.75 86,292.92 87,154.17 88,154.17 89,200.42 90,154.17 91,123.33 92,200.42 93,154.17 94,138.75 95,185 96,215.83 97,138.75 98,138.75 99,169.58 100,185 101,138.75 102,154.17 103,123.33 104,138.75 107,138.75 108,123.33 109,138.75 110,138.75 111,169.58 112,154.17 113,154.17 114,123.33 115,123.33 116,138.75 117,138.75 118,169.58 119,138.75 120,138.75 121,169.58 122,123.33 123,123.33 124,185 125,138.75 126,123.33 127,154.17 128,277.5 129,123.33 130,138.75 131,154.17 132,138.75 133,154.17 134,123.33 135,123.33 136,323.75 136.65,370"><title>LR761636.1</title></polygon><rect class="average" height="1" width="136.65" x="0" y="156.57"><title>average:13.84</title></rect><rect class="median" height="1" width="136.65" x="0" y="154.17"><title>median:14</title></rect><text class="chromName" x="68.33" y="-12">LR761636.1<title>LR761636.1 58,319,100 bp</title></text><rect class="frame" height="370" width="136.65" x="0" y="0"/></g><g id="chrom-LR761637.1" transform="translate(451.9485730949149,0)"><polygon class="cov1" points="0,370 0,354.58 1,292.92 2,323.75 3,277.5 4,200.42 5,154.17 6,169.58 7,262.08 8,277.5 9,292.92 10,308.33 11,154.17 12,231.25 13,262.08 14,292.92 15,169.58 16,215.83 17,92.5 18,292.92 19,292.92 20,200.42 21,154.17 22,154.17 23,215.83 24,308.33 25,138.75 26,138.75 27,231.25 28,200.42 29,231.25 30,246.67 31,138.75 32,138.75 33,185 34,123.33 35,200.42 36,323.75 37,231.25 38,169.58 39,154.17 40,154.17 41,308.33 42,215.83 43,246.67 44,339.17 45,185 46,154.17 47,138.75 49,138.75 50,185 51,154.17 52,107.92 53,185 54,123.33 55,138.75 56,154.17 57,231.25 58,277.5 59,292.92 60,308.33 61,231.25 62,138.75 64,138.75 65,154.17 66,138.75 67,154.17 68,185 69,138.75 70,154.17 71,138.75 72,169.58 73,123.33 74,200.42 75,154.17 76,138.75 77,138.75 78,169.58 81,169.58 82,138.75 83,154.17 84,154.17 85,123.33 86,200.42 87,154.17 88,123.33 89,138.75 90,123.33 91,138.75 92,123.33 93,200.42 94,169.58 95,215.83 96,185 97,138.75 98,107.92 99,123.33 100,154.17 101,169.58 102,169.58 103,185 104,200.42 105,246.67 106,107.92 107,123.33 108,123.33 109,107.92 110,92.5 111,123.33 112,123.33 113,107.92 114,292.92 115,200.42 116,185 117,169.58 118,154.17 119,292.92 120,154.17 121,123.33 122,262.08 123,339.17 124,308.33 124.49,370"><title>LR761637.1</title></polygon><rect class="average" height="1" width="124.49" x="0" y="171.18"><title>average:12.9</title></rect><rect class="median" height="1" width="124.49" x="0" y="185"><title>median:12</title></rect><text class="chromName" x="62.25" y="-12">LR761637.1<title>LR761637.1 53,127,865 bp</title></text><rect class="frame" height="370" width="124.49" x="0" y="0"/></g><g id="chrom-LR761638.1" transform="translate(577.4390778079033,0)"><polygon class="cov0" points="0,370 0,200.42 1,154.17 2,308.33 3,138.75 4,215.83 5,138.75 6,200.42 8,200.42 9,123.33 10,185 11,277.5 12,123.33 13,154.17 14,107.92 15,138.75 16,107.92 17,123.33 18,277.5 19,323.75 20,138.75 21,215.83 22,138.75 23,123.33 24,123.33 25,169.58 26,277.5 27,123.33 28,185 29,339.17 30,262.08 31,154.17 32,339.17 33,339.17 34,185 35,231.25 36,154.17 37,323.75 38,292.92 39,339.17 40,354.58 41,323.75 42,277.5 43,138.75 44,154.17 45,277.5 46,154.17 47,107.92 48,123.33 49,185 50,262.08 51,215.83 52,138.75 53,169.58 54,215.83 55,215.83 56,154.17 57,231.25 58,138.75 59,185 60,169.58 61,231.25 62,169.58 63,339.17 64,339.17 65,308.33 66,185 67,231.25 68,169.58 69,215.83 70,185 71,354.58 72,354.58 73,292.92 74,246.67 75,354.58 76,339.17 77,200.42 78,308.33 79,277.5 80,308.33 81,154.17 82,277.5 83,339.17 84,292.92 85,200.42 86,138.75 87,169.58 88,308.33 89,138.75 90,292.92 91,154.17 92,123.33 93,123.33 94,154.17 95,200.42 96,292.92 97,154.17 98,262.08 99,185 100,185 101,169.58 102,292.92 103,185 104,262.08 105,277.5 106,231.25 107,169.58 108,200.42 109,185 110,262.08 111,200.42 112,308.33 113,231.25 115,231.25 116,339.17 117,323.75 118,308.33 119,339.17 120,277.5 121,354.58 122,354.58 123,370 124,292.92 125,323.75 127,323.75 128,370 129,292.92 130,339.17 131,323.75 132,277.5 133,354.58 134,262.08 135,308.33 136,154.17 137,370 138,354.58 139,262.08 140,370 141,370 142,308.33 143,262.08 144,154.17 145,200.42 146,231.25 147,138.75 148,123.33 149,185 150,185 151,292.92 152,169.58 153,138.75 154,231.25 155,277.5 156,200.42 157,308.33 158,292.92 159,308.33 160,354.58 161,308.33 162,292.92 163,246.67 164,339.17 165,354.58 166,354.58 167,370 168,354.58 169,215.83 170,370 171,370 172,354.58 172.35,370"><title>LR761638.1</title></polygon><rect class="average" height="1" width="172.35" x="0" y="206"><title>average:10.64</title></rect><rect class="median" height="1" width="172.35" x="0" y="246.67"><title>median:8</title></rect><text class="chromName" x="86.17" y="-12">LR761638.1<title>LR761638.1 73,550,375 bp</title></text><rect class="frame" height="370" width="172.35" x="0" y="0"/></g><g id="chrom-LR761639.1" transform="translate(750.784104388203,0)"><polygon class="cov1" points="0,370 0,246.67 1,123.33 2,123.33 3,215.83 4,123.33 5,215.83 6,354.58 7,185 8,138.75 9,123.33 10,154.17 11,246.67 12,246.67 13,138.75 14,169.58 15,138.75 16,123.33 17,123.33 18,138.75 19,123.33 20,123.33 21,138.75 22,154.17 23,169.58 24,185 25,200.42 26,185 27,292.92 28,292.92 29,200.42 30,246.67 31,138.75 32,138.75 33,123.33 34,185 35,169.58 36,169.58 37,123.33 38,138.75 39,138.75 40,231.25 41,123.33 42,138.75 43,123.33 44,154.17 45,123.33 46,154.17 47,138.75 48,138.75 49,169.58 50,169.58 51,138.75 52,169.58 53,169.58 54,154.17 55,138.75 56,138.75 57,154.17 58,138.75 59,138.75 60,123.33 61,138.75 62,138.75 63,154.17 64,123.33 65,138.75 66,185 67,138.75 68,138.75 69,200.42 70,138.75 71,154.17 73,154.17 74,215.83 75,138.75 76,138.75 77,154.17 78,138.75 79,138.75 80,185 81,123.33 82,138.75 83,154.17 84,200.42 85,154.17 86,138.75 87,138.75 88,123.33 89,138.75 90,123.33 91,154.17 92,138.75 93,169.58 94,154.17 95,138.75 96,123.33 98,123.33 99,138.75 100,138.75 101,123.33 102,138.75 103,138.75 104,123.33 105,123.33 106,246.67 107,123.33 108,123.33 109,138.75 110,138.75 111,292.92 112,169.58 113,123.33 114,185 115,123.33 116,154.17 117,123.33 118,138.75 119,123.33 120,154.17 121,123.33 122,123.33 123,138.75 124,154.17 125,123.33 126,123.33 127,138.75 128,138.75 129,123.33 130,185 131,138.75 132,169.58 133,308.33 134,123.33 135,169.58 136,169.58 137,154.17 138,169.58 139,169.58 140,308.33 140.95,370"><title>LR761639.1</title></polygon><rect class="average" height="1" width="140.95" x="0" y="150.86"><title>average:14.21</title></rect><rect class="median" height="1" width="140.95" x="0" y="154.17"><title>median:14</title></rect><text class="chromName" x="70.47" y="-12">LR761639.1<title>LR761639.1 60,151,564 bp</title></text><rect class="frame" height="370" width="140.95" x="0" y="0"/></g><g id="chrom-LR761640.1" transform="translate(892.7327113317651,0)"><polygon class="cov0" points="0,370 0,200.42 1,107.92 2,200.42 3,169.58 4,169.58 5,123.33 6,169.58 7,185 8,123.33 9,154.17 10,123.33 11,138.75 12,123.33 13,246.67 14,169.58 15,138.75 16,231.25 17,138.75 18,123.33 19,200.42 20,123.33 21,138.75 22,138.75 23,123.33 24,138.75 25,169.58 26,123.33 27,138.75 28,154.17 29,138.75 30,138.75 31,154.17 32,138.75 33,123.33 34,154.17 35,138.75 36,138.75 37,215.83 38,123.33 39,169.58 40,123.33 41,138.75 42,123.33 44,123.33 45,154.17 46,154.17 47,246.67 48,292.92 49,123.33 50,154.17 51,138.75 52,138.75 53,154.17 54,123.33 55,138.75 56,138.75 57,200.42 58,154.17 59,200.42 60,262.08 61,138.75 62,169.58 63,185 64,138.75 65,246.67 66,138.75 67,154.17 68,154.17 69,200.42 70,185 71,154.17 72,169.58 73,215.83 74,185 75,154.17 76,138.75 77,215.83 78,154.17 79,169.58 80,107.92 81,92.5 82,107.92 83,138.75 85,138.75 86,339.17 87,154.17 88,169.58 90,169.58 91,339.17 92,277.5 93,185 94,262.08 95,154.17 99,154.17 100,123.33 101,231.25 102,339.17 103,231.25 104,138.75 105,123.33 106,123.33 107,169.58 108,200.42 109,138.75 110,185 111,200.42 112,154.17 113,154.17 114,200.42 115,138.75 116,308.33 117,339.17 118,354.58 119,323.75 120,154.17 121,123.33 122,138.75 124,138.75 125,123.33 126,138.75 127,138.75 128,262.08 129,154.17 130,123.33 131,138.75 132,169.58 133,138.75 134,107.92 135,138.75 137,138.75 138,123.33 139,185 140,154.17 141,123.33 142,138.75 143,185 144,107.92 145,123.33 145.53,370"><title>LR761640.1</title></polygon><rect class="average" height="1" width="145.53" x="0" y="160.71"><title>average:13.58</title></rect><rect class="median" height="1" width="145.53" x="0" y="154.17"><title>median:14</title></rect><text class="chromName" x="72.77" y="-12">LR761640.1<title>LR761640.1 62,107,823 bp</title></text><rect class="frame" height="370" width="145.53" x="0" y="0"/></g><g id="chrom-LR761641.1" transform="translate(1039.265271917344,0)"><polygon class="cov1" points="0,370 0,292.92 1,169.58 2,231.25 3,200.42 4,154.17 5,215.83 6,292.92 7,246.67 8,262.08 9,185 10,169.58 11,200.42 12,231.25 13,123.33 14,185 15,138.75 16,123.33 17,354.58 18,123.33 19,154.17 20,154.17 21,185 22,200.42 23,169.58 24,185 25,138.75 26,262.08 27,215.83 28,262.08 29,277.5 30,231.25 31,200.42 32,246.67 33,200.42 34,262.08 35,292.92 36,339.17 37,308.33 38,277.5 39,292.92 40,185 41,262.08 42,292.92 43,339.17 44,246.67 45,231.25 46,246.67 47,277.5 48,231.25 49,154.17 50,185 51,154.17 52,138.75 53,123.33 54,138.75 55,123.33 56,138.75 57,169.58 58,169.58 59,154.17 60,138.75 61,262.08 62,154.17 63,185 64,200.42 65,200.42 66,215.83 67,231.25 68,231.25 69,154.17 70,231.25 71,123.33 72,185 73,308.33 74,215.83 75,323.75 76,169.58 77,138.75 78,169.58 79,246.67 80,262.08 81,339.17 82,354.58 83,323.75 84,185 85,123.33 86,246.67 87,123.33 88,185 89,185 90,246.67 91,262.08 92,123.33 93,246.67 94,262.08 95,185 96,154.17 97,354.58 98,138.75 99,292.92 100,246.67 101,123.33 102,185 103,107.92 104,185 105,138.75 106,231.25 107,123.33 108,138.75 110,138.75 111,277.5 112,123.33 113,262.08 114,138.75 115,169.58 116,123.33 117,169.58 118,138.75 119,200.42 120,215.83 121,138.75 122,154.17 123,231.25 124,154.17 125,200.42 126,246.67 127,123.33 128,200.42 129,138.75 130,262.08 131,185 132,262.08 133,215.83 134,123.33 135,354.58 136,292.92 136.99,370"><title>LR761641.1</title></polygon><rect class="average" height="1" width="136.99" x="0" y="181.1"><title>average:12.25</title></rect><rect class="median" height="1" width="136.99" x="0" y="200.42"><title>median:11</title></rect><text class="chromName" x="68.5" y="-12">LR761641.1<title>LR761641.1 58,462,999 bp</title></text><rect class="frame" height="370" width="136.99" x="0" y="0"/></g><g id="chrom-LR761642.1" transform="translate(1177.25719230686,0)"><polygon class="cov0" points="0,370 0,323.75 1,323.75 2,292.92 3,215.83 4,262.08 5,308.33 6,277.5 7,246.67 8,323.75 9,323.75 10,262.08 11,200.42 12,277.5 13,123.33 14,185 15,200.42 16,262.08 17,200.42 18,277.5 19,246.67 20,185 21,169.58 22,292.92 23,277.5 24,154.17 25,123.33 26,185 27,231.25 28,292.92 29,154.17 30,215.83 31,138.75 32,169.58 33,246.67 34,154.17 35,308.33 36,138.75 37,185 38,123.33 39,185 40,154.17 41,169.58 42,138.75 43,138.75 44,154.17 45,215.83 46,154.17 47,246.67 48,246.67 49,292.92 50,200.42 51,215.83 52,231.25 53,123.33 54,138.75 55,231.25 56,169.58 57,200.42 58,215.83 59,138.75 60,154.17 61,308.33 62,169.58 63,154.17 64,200.42 65,185 66,169.58 67,308.33 68,231.25 69,185 70,200.42 71,231.25 72,154.17 73,215.83 74,138.75 75,200.42 76,323.75 77,154.17 78,138.75 79,231.25 80,231.25 81,185 82,292.92 83,246.67 84,277.5 85,185 86,308.33 86.91,370"><title>LR761642.1</title></polygon><rect class="average" height="1" width="86.91" x="0" y="175.95"><title>average:12.59</title></rect><rect class="median" height="1" width="86.91" x="0" y="215.83"><title>median:10</title></rect><text class="chromName" x="43.45" y="-12">LR761642.1<title>LR761642.1 37,089,910 bp</title></text><rect class="frame" height="370" width="86.91" x="0" y="0"/></g><g id="chrom-LR761643.1" transform="translate(1265.1671710093603,0)"><polygon class="cov1" points="0,370 0,354.58 1,262.08 2,169.58 3,123.33 4,154.17 5,200.42 6,169.58 7,169.58 8,154.17 9,123.33 10,138.75 11,154.17 12,123.33 13,169.58 14,231.25 15,154.17 16,123.33 17,138.75 18,154.17 19,185 20,339.17 21,154.17 22,138.75 23,138.75 24,200.42 25,169.58 26,354.58 27,323.75 28,370 29,138.75 30,200.42 31,154.17 32,215.83 33,154.17 34,154.17 35,200.42 36,262.08 37,138.75 38,138.75 39,123.33 40,154.17 41,154.17 42,169.58 43,292.92 44,169.58 45,185 46,123.33 47,169.58 48,169.58 49,154.17 50,185 51,138.75 52,138.75 53,154.17 54,169.58 55,138.75 57,138.75 58,169.58 59,138.75 60,123.33 61,138.75 62,169.58 63,154.17 64,154.17 65,200.42 66,154.17 68,154.17 69,138.75 70,154.17 71,215.83 72,169.58 73,185 74,138.75 75,200.42 76,138.75 77,123.33 78,215.83 79,262.08 80,138.75 81,123.33 82,138.75 83,138.75 84,123.33 85,138.75 86,138.75 87,123.33 88,169.58 89,370 90,185 91,138.75 92,123.33 93,138.75 94,123.33 95,154.17 96,123.33 99,123.33 100,138.75 101,231.25 102,138.75 103,154.17 104,169.58 105,154.17 106,123.33 107,123.33 108,154.17 109,123.33 111,123.33 112,138.75 113,200.42 114,154.17 115,138.75 116,107.92 117,123.33 118,123.33 119,169.58 120,123.33 121,123.33 122,138.75 123,123.33 124,138.75 125,138.75 126,107.92 127,200.42 128,169.58 129,123.33 130,169.58 131,200.42 132,123.33 133,231.25 134,354.58 134.83,370"><title>LR761643.1</title></polygon><rect class="average" height="1" width="134.83" x="0" y="161.42"><title>average:13.53</title></rect><rect class="median" height="1" width="134.83" x="0" y="154.17"><title>median:14</title></rect><text class="chromName" x="67.42" y="-12">LR761643.1<title>LR761643.1 57,541,580 bp</title></text><rect class="frame" height="370" width="134.83" x="0" y="0"/></g><g><line class="ruler" x1="-2" x2="1390" y1="333" y2="333"><title>2</title></line><text class="ruler" x="-5" y="333">2</text><line class="ruler" x1="-2" x2="1390" y1="296" y2="296"><title>4</title></line><text class="ruler" x="-5" y="296">4</text><line class="ruler" x1="-2" x2="1390" y1="259" y2="259"><title>7</title></line><text class="ruler" x="-5" y="259">7</text><line class="ruler" x1="-2" x2="1390" y1="222" y2="222"><title>9</title></line><text class="ruler" x="-5" y="222">9</text><line class="ruler" x1="-2" x2="1390" y1="185" y2="185"><title>12</title></line><text class="ruler" x="-5" y="185">12</text><line class="ruler" x1="-2" x2="1390" y1="148" y2="148"><title>14</title></line><text class="ruler" x="-5" y="148">14</text><line class="ruler" x1="-2" x2="1390" y1="111" y2="111"><title>16</title></line><text class="ruler" x="-5" y="111">16</text><line class="ruler" x1="-2" x2="1390" y1="74" y2="74"><title>19</title></line><text class="ruler" x="-5" y="74">19</text><line class="ruler" x1="-2" x2="1390" y1="37" y2="37"><title>21</title></line><text class="ruler" x="-5" y="37">21</text><line class="ruler" x1="-2" x2="1390" y1="0" y2="0"><title>24</title></line><text class="ruler" x="-5" y="0">24</text></g></g><text class="title" x="795" y="40">F3_M2_24.merged.realigned.bam F3_M2_24 F3_M2_24_1 F3_M2_24_2<title>./F3_M2_24.merged.realigned.bam</title></text><text class="xLabel" x="795" y="475">GCA_902806645.1_cgigas_uk_roslin_v1_genomic.fna  (589,358,857 bp)<title>../ref/GCA_902806645.1_cgigas_uk_roslin_v1_genomic.fna</title></text><text class="yLabel" transform="translate(25,265) rotate(90)" x="0" y="0">Coverage bp (median)</text></g></svg>