<?xml version="1.0" encoding="UTF-8" standalone="no"?><svg height="500" width="1500" xmlns="http://www.w3.org/2000/svg"><title>F3_M3_14.merged.realigned.bam</title><desc>Made with wgscoverageplotter undefined Author: Pierre Lindenbaum</desc><style>g.maing {stroke:black;stroke-width:0.5px;fill:none;}
text.title {stroke:none;fill:black;stroke-width:1px;text-anchor:middle;}
rect.frame {stroke:darkgray;fill:none;stroke-width:0.5px;}
text.ruler {stroke:none;fill:darkgray;stroke-width:1px;text-anchor:end;}
text.chromName {stroke:none;fill:darkgray;stroke-width:1px;text-anchor:middle;}
text.xLabel {stroke:none;fill:black;stroke-width:1px;text-anchor:middle;}
text.yLabel {stroke:none;fill:black;stroke-width:1px;text-anchor:middle;}
.cov0 {stroke:gray;fill:antiquewhite;stroke-width:0.5px;}
.cov1 {stroke:gray;fill:beige;stroke-width:0.5px;}
rect.average {stroke:green;fill:green;stroke-width:0.5px;opacity:0.3;}
rect.median {stroke:red;fill:red;stroke-width:0.5px;opacity:0.3;}
line.ruler {stroke:darkgray;stroke-dasharray:4;fill:none;stroke-width:1;}
</style><g class="maing"><g id="chromosomes" transform="translate(100.0,80.0)"><g id="chrom-LR761634.1" transform="translate(10.0,0)"><polygon class="cov0" points="0,370 0,314.5 1,129.5 2,148 3,296 4,222 5,166.5 6,296 7,185 8,166.5 9,111 10,148 11,111 12,148 13,222 14,277.5 15,148 16,129.5 18,129.5 19,111 20,111 21,129.5 22,148 23,129.5 24,148 25,111 26,129.5 27,129.5 28,148 29,111 30,129.5 31,148 32,259 33,129.5 34,129.5 35,148 36,111 37,185 38,185 39,111 40,129.5 42,129.5 43,185 44,148 45,185 46,185 47,148 51,148 52,129.5 53,148 54,148 55,111 56,92.5 57,111 58,129.5 59,148 60,148 61,111 62,148 63,185 64,185 65,166.5 66,148 67,185 68,129.5 69,203.5 70,148 71,129.5 72,203.5 73,166.5 74,148 75,129.5 76,129.5 77,203.5 78,166.5 79,129.5 80,240.5 81,240.5 82,129.5 83,129.5 84,148 85,129.5 86,111 87,203.5 88,111 89,277.5 90,148 91,129.5 92,129.5 93,166.5 94,111 95,129.5 96,111 97,166.5 98,314.5 99,129.5 100,129.5 101,185 102,148 103,166.5 104,185 105,111 106,203.5 107,166.5 108,277.5 109,111 110,111 111,129.5 112,129.5 113,203.5 114,296 115,203.5 116,111 117,129.5 118,111 119,148 120,203.5 121,129.5 124,129.5 125,92.5 126,129.5 127,129.5 128,185 129,166.5 130,203.5 130.72,370"><title>LR761634.1</title></polygon><rect class="average" height="1" width="130.72" x="0" y="147.75"><title>average:12.01</title></rect><rect class="median" height="1" width="130.72" x="0" y="148"><title>median:12</title></rect><text class="chromName" x="65.36" y="-12">LR761634.1<title>LR761634.1 55,785,328 bp</title></text><rect class="frame" height="370" width="130.72" x="0" y="0"/></g><g id="chrom-LR761635.1" transform="translate(141.71753661284166,0)"><polygon class="cov1" points="0,370 0,351.5 1,333 3,333 4,351.5 5,370 6,222 7,296 8,314.5 9,203.5 10,185 11,259 12,166.5 13,129.5 14,203.5 15,277.5 16,259 17,203.5 18,277.5 19,185 20,277.5 22,277.5 23,222 24,296 25,333 26,277.5 27,333 28,277.5 29,333 30,351.5 31,296 32,222 33,222 34,203.5 35,222 36,277.5 37,333 38,314.5 39,166.5 40,166.5 41,222 42,166.5 43,203.5 44,203.5 45,166.5 46,222 47,148 48,203.5 49,166.5 50,203.5 51,259 52,185 53,259 54,314.5 55,240.5 56,277.5 57,240.5 58,166.5 59,314.5 60,296 61,259 62,129.5 63,240.5 64,240.5 65,222 66,296 67,259 68,277.5 70,277.5 71,203.5 72,222 73,222 74,166.5 75,166.5 76,240.5 77,0 78,203.5 79,240.5 80,129.5 81,240.5 82,259 83,203.5 84,277.5 85,259 86,277.5 88,277.5 89,296 90,259 91,333 92,314.5 93,277.5 94,277.5 95,296 96,314.5 97,314.5 98,351.5 99,277.5 100,296 101,314.5 102,314.5 103,185 104,166.5 105,185 106,240.5 107,296 108,203.5 109,222 110,277.5 111,203.5 112,296 113,351.5 114,296 115,240.5 116,203.5 117,240.5 118,166.5 119,166.5 120,129.5 121,166.5 122,203.5 123,240.5 124,277.5 125,129.5 126,240.5 127,240.5 128,166.5 129,222 130,166.5 131,277.5 132,185 133,314.5 134,314.5 135,296 136,314.5 137,314.5 138,296 139,277.5 140,333 141,314.5 142,314.5 143,277.5 144,259 145,240.5 146,240.5 147,92.5 148,148 149,111 150,240.5 151,277.5 152,351.5 153,222 154,259 155,259 156,277.5 157,259 158,222 159,166.5 160,185 161,240.5 162,277.5 163,222 164,240.5 165,277.5 166,314.5 167,333 168,314.5 169,259 170,314.5 171,314.5 171.58,370"><title>LR761635.1</title></polygon><rect class="average" height="1" width="171.58" x="0" y="197.72"><title>average:9.31</title></rect><rect class="median" height="1" width="171.58" x="0" y="259"><title>median:6</title></rect><text class="chromName" x="85.79" y="-12">LR761635.1<title>LR761635.1 73,222,313 bp</title></text><rect class="frame" height="370" width="171.58" x="0" y="0"/></g><g id="chrom-LR761636.1" transform="translate(314.2938403401308,0)"><polygon class="cov0" points="0,370 0,333 1,148 2,277.5 3,314.5 4,240.5 5,111 6,129.5 7,148 8,111 9,129.5 10,111 11,129.5 12,129.5 13,240.5 14,111 15,129.5 16,111 17,111 18,166.5 19,148 20,129.5 23,129.5 24,185 25,129.5 26,222 27,259 28,129.5 29,111 30,129.5 31,111 32,92.5 33,111 34,129.5 35,166.5 36,129.5 37,166.5 38,148 39,129.5 40,148 41,148 42,166.5 43,148 44,129.5 45,148 46,166.5 47,129.5 48,166.5 49,148 50,166.5 51,111 52,129.5 53,148 54,222 55,166.5 56,166.5 57,111 58,166.5 59,129.5 60,166.5 61,203.5 62,166.5 63,129.5 64,129.5 65,148 67,148 68,166.5 69,148 70,166.5 71,111 72,111 73,166.5 74,166.5 75,148 76,314.5 77,222 78,240.5 79,259 80,259 81,129.5 82,203.5 83,148 84,111 85,148 86,296 87,148 88,148 89,185 90,129.5 91,111 92,185 93,148 94,129.5 95,185 96,203.5 97,129.5 98,129.5 99,166.5 100,166.5 101,129.5 102,148 103,111 104,129.5 105,129.5 106,148 107,129.5 108,111 109,129.5 110,129.5 111,166.5 112,148 113,166.5 114,129.5 115,111 116,129.5 117,129.5 118,166.5 119,129.5 120,129.5 121,111 122,129.5 123,129.5 124,185 125,129.5 126,129.5 127,185 128,277.5 129,111 130,129.5 131,148 132,148 133,129.5 135,129.5 136,314.5 136.65,370"><title>LR761636.1</title></polygon><rect class="average" height="1" width="136.65" x="0" y="148.35"><title>average:11.98</title></rect><rect class="median" height="1" width="136.65" x="0" y="148"><title>median:12</title></rect><text class="chromName" x="68.33" y="-12">LR761636.1<title>LR761636.1 58,319,100 bp</title></text><rect class="frame" height="370" width="136.65" x="0" y="0"/></g><g id="chrom-LR761637.1" transform="translate(451.9485730949149,0)"><polygon class="cov1" points="0,370 0,351.5 1,259 2,277.5 3,259 4,222 5,185 6,185 7,240.5 8,240.5 9,277.5 10,277.5 11,185 12,240.5 13,314.5 14,296 15,148 16,222 17,92.5 18,296 19,296 20,222 21,148 22,148 23,222 24,351.5 25,129.5 26,129.5 27,203.5 28,203.5 29,222 30,259 31,148 32,148 33,185 34,111 35,185 36,314.5 37,222 38,148 40,148 41,314.5 42,203.5 43,240.5 44,314.5 45,222 46,148 47,129.5 49,129.5 50,203.5 51,148 52,92.5 53,185 54,111 55,129.5 56,148 57,240.5 58,277.5 59,296 60,314.5 61,222 62,129.5 63,148 64,129.5 65,148 66,148 67,166.5 68,185 69,129.5 70,148 71,148 72,185 73,129.5 74,203.5 75,148 77,148 78,129.5 79,129.5 80,166.5 81,166.5 82,129.5 83,148 84,148 85,111 86,203.5 87,148 88,129.5 90,129.5 91,148 92,129.5 93,166.5 94,185 95,203.5 96,185 97,148 98,111 99,129.5 100,185 101,203.5 102,222 103,222 104,259 105,203.5 106,111 109,111 110,92.5 111,129.5 112,129.5 113,111 114,314.5 115,222 116,185 117,166.5 118,129.5 119,296 120,166.5 121,111 122,296 123,351.5 124,314.5 124.49,370"><title>LR761637.1</title></polygon><rect class="average" height="1" width="124.49" x="0" y="168.31"><title>average:10.9</title></rect><rect class="median" height="1" width="124.49" x="0" y="185"><title>median:10</title></rect><text class="chromName" x="62.25" y="-12">LR761637.1<title>LR761637.1 53,127,865 bp</title></text><rect class="frame" height="370" width="124.49" x="0" y="0"/></g><g id="chrom-LR761638.1" transform="translate(577.4390778079033,0)"><polygon class="cov0" points="0,370 0,277.5 1,222 2,296 3,129.5 4,185 5,111 6,203.5 7,185 8,222 9,129.5 10,166.5 11,296 12,129.5 13,166.5 14,111 15,148 16,129.5 17,111 18,222 19,314.5 20,129.5 21,222 22,129.5 23,129.5 24,111 25,166.5 26,314.5 27,111 28,185 29,333 30,240.5 31,148 32,351.5 33,333 34,185 35,240.5 36,148 37,277.5 38,240.5 39,333 40,351.5 41,333 42,259 43,129.5 44,148 45,277.5 46,203.5 47,92.5 48,129.5 49,222 50,370 51,277.5 52,166.5 53,185 54,222 55,240.5 56,148 57,203.5 58,166.5 59,203.5 60,222 61,222 62,148 63,277.5 64,296 65,314.5 66,203.5 67,222 68,166.5 69,222 70,166.5 71,277.5 72,351.5 73,277.5 74,259 75,333 76,277.5 77,185 78,333 79,259 80,277.5 81,166.5 82,333 83,333 84,277.5 85,203.5 86,148 87,166.5 88,314.5 89,129.5 90,259 91,148 92,111 93,111 94,148 95,222 96,277.5 97,148 98,277.5 99,185 100,185 101,166.5 102,333 103,185 104,277.5 105,296 106,222 107,166.5 108,222 109,166.5 110,222 111,185 112,314.5 113,222 114,240.5 115,240.5 116,314.5 117,351.5 118,314.5 119,314.5 120,277.5 121,351.5 122,351.5 123,370 124,296 125,314.5 126,296 127,277.5 128,370 129,277.5 130,333 131,296 132,277.5 133,351.5 134,259 135,314.5 136,148 137,370 138,351.5 139,259 140,351.5 141,351.5 142,314.5 143,240.5 144,166.5 145,185 146,259 147,129.5 148,129.5 149,166.5 150,185 151,296 152,166.5 153,129.5 154,240.5 155,277.5 156,185 157,314.5 158,296 159,296 160,351.5 161,314.5 162,277.5 163,314.5 164,296 165,351.5 166,351.5 167,370 168,351.5 169,240.5 170,351.5 171,370 172,351.5 172.35,370"><title>LR761638.1</title></polygon><rect class="average" height="1" width="172.35" x="0" y="203.88"><title>average:8.98</title></rect><rect class="median" height="1" width="172.35" x="0" y="240.5"><title>median:7</title></rect><text class="chromName" x="86.17" y="-12">LR761638.1<title>LR761638.1 73,550,375 bp</title></text><rect class="frame" height="370" width="172.35" x="0" y="0"/></g><g id="chrom-LR761639.1" transform="translate(750.784104388203,0)"><polygon class="cov1" points="0,370 0,240.5 1,129.5 2,129.5 3,259 4,129.5 5,240.5 6,351.5 7,185 8,129.5 9,129.5 10,148 11,259 12,240.5 13,111 14,166.5 15,129.5 16,129.5 17,111 18,129.5 19,129.5 20,111 21,129.5 22,148 23,166.5 24,185 25,185 26,166.5 27,314.5 28,277.5 29,185 30,296 31,129.5 33,129.5 34,185 36,185 37,129.5 39,129.5 40,222 41,111 42,129.5 43,111 44,148 45,129.5 46,148 47,129.5 48,129.5 49,148 50,166.5 51,129.5 52,148 54,148 55,129.5 56,129.5 57,148 58,129.5 59,129.5 60,111 61,129.5 62,148 63,129.5 64,111 65,111 66,148 67,129.5 68,129.5 69,203.5 70,129.5 71,148 72,148 73,129.5 74,185 75,129.5 76,129.5 77,148 78,129.5 79,129.5 80,166.5 81,111 82,129.5 83,148 84,203.5 85,148 86,129.5 87,129.5 88,111 89,129.5 90,111 91,129.5 92,129.5 93,166.5 94,148 95,129.5 96,111 98,111 99,129.5 100,129.5 101,111 102,148 103,129.5 104,111 105,129.5 106,240.5 107,129.5 108,111 109,129.5 110,129.5 111,296 112,166.5 113,111 114,185 115,111 116,148 117,129.5 118,129.5 119,111 120,148 121,129.5 123,129.5 124,166.5 125,129.5 127,129.5 128,148 129,129.5 130,166.5 131,148 132,166.5 133,296 134,111 135,166.5 136,129.5 137,148 138,166.5 139,166.5 140,277.5 140.95,370"><title>LR761639.1</title></polygon><rect class="average" height="1" width="140.95" x="0" y="144.23"><title>average:12.2</title></rect><rect class="median" height="1" width="140.95" x="0" y="148"><title>median:12</title></rect><text class="chromName" x="70.47" y="-12">LR761639.1<title>LR761639.1 60,151,564 bp</title></text><rect class="frame" height="370" width="140.95" x="0" y="0"/></g><g id="chrom-LR761640.1" transform="translate(892.7327113317651,0)"><polygon class="cov0" points="0,370 0,185 1,111 2,185 3,166.5 4,166.5 5,111 6,185 7,185 8,129.5 9,166.5 10,129.5 11,148 12,92.5 13,259 14,166.5 15,148 16,222 17,129.5 18,129.5 19,185 20,111 21,129.5 22,129.5 23,111 24,148 25,166.5 26,111 27,129.5 28,148 29,129.5 30,129.5 31,148 32,129.5 33,129.5 34,148 35,129.5 36,129.5 37,203.5 38,111 39,166.5 40,111 44,111 45,129.5 46,148 47,240.5 48,296 49,111 50,148 51,129.5 53,129.5 54,111 55,129.5 56,129.5 57,222 58,148 59,185 60,240.5 61,129.5 62,166.5 63,185 64,129.5 65,259 66,129.5 67,148 68,148 69,203.5 70,166.5 71,148 72,166.5 73,222 74,185 75,148 76,148 77,222 78,148 79,166.5 80,92.5 81,92.5 82,111 83,129.5 85,129.5 86,314.5 87,166.5 90,166.5 91,314.5 92,277.5 93,185 94,296 95,148 99,148 100,129.5 101,240.5 102,351.5 103,240.5 104,129.5 105,111 106,129.5 107,148 108,203.5 109,129.5 110,166.5 111,185 112,148 113,148 114,166.5 115,129.5 116,314.5 117,333 118,351.5 119,314.5 120,129.5 121,111 122,129.5 124,129.5 125,111 126,129.5 127,129.5 128,259 129,148 130,129.5 131,129.5 132,148 133,129.5 134,111 135,92.5 136,129.5 138,129.5 139,185 140,111 141,92.5 142,148 143,203.5 144,111 145,129.5 145.53,370"><title>LR761640.1</title></polygon><rect class="average" height="1" width="145.53" x="0" y="153.4"><title>average:11.71</title></rect><rect class="median" height="1" width="145.53" x="0" y="148"><title>median:12</title></rect><text class="chromName" x="72.77" y="-12">LR761640.1<title>LR761640.1 62,107,823 bp</title></text><rect class="frame" height="370" width="145.53" x="0" y="0"/></g><g id="chrom-LR761641.1" transform="translate(1039.265271917344,0)"><polygon class="cov1" points="0,370 0,259 1,148 2,222 3,166.5 4,166.5 5,222 6,296 7,203.5 8,259 9,166.5 10,148 11,185 12,240.5 13,92.5 14,166.5 15,148 16,129.5 17,351.5 18,111 19,129.5 20,148 21,148 22,185 23,148 24,166.5 25,148 26,203.5 27,185 28,203.5 29,259 30,203.5 31,166.5 32,203.5 33,166.5 34,296 36,296 37,277.5 38,240.5 39,240.5 40,203.5 41,222 42,222 43,259 44,203.5 45,259 46,277.5 47,240.5 48,185 49,148 50,185 51,148 52,129.5 53,111 54,129.5 55,111 56,111 57,166.5 58,166.5 59,148 60,129.5 61,296 62,148 63,166.5 64,185 65,166.5 66,203.5 67,240.5 68,203.5 69,129.5 70,203.5 71,111 72,203.5 73,296 74,203.5 75,333 76,185 77,166.5 78,166.5 79,222 80,259 81,333 83,333 84,203.5 85,148 86,259 87,111 88,203.5 89,203.5 90,259 91,203.5 92,129.5 93,203.5 94,259 95,203.5 96,166.5 97,351.5 98,129.5 99,277.5 100,222 101,129.5 102,166.5 103,111 104,185 105,129.5 106,277.5 107,111 108,148 109,129.5 110,129.5 111,277.5 112,129.5 113,259 114,129.5 115,166.5 116,111 117,166.5 118,129.5 119,185 120,203.5 121,148 122,129.5 123,185 124,129.5 125,203.5 126,240.5 127,111 128,185 129,148 130,259 131,166.5 132,277.5 133,222 134,148 135,351.5 136,314.5 136.99,370"><title>LR761641.1</title></polygon><rect class="average" height="1" width="136.99" x="0" y="169.85"><title>average:10.82</title></rect><rect class="median" height="1" width="136.99" x="0" y="203.5"><title>median:9</title></rect><text class="chromName" x="68.5" y="-12">LR761641.1<title>LR761641.1 58,462,999 bp</title></text><rect class="frame" height="370" width="136.99" x="0" y="0"/></g><g id="chrom-LR761642.1" transform="translate(1177.25719230686,0)"><polygon class="cov0" points="0,370 0,296 1,277.5 2,259 3,240.5 4,296 5,333 6,277.5 7,277.5 8,314.5 9,314.5 10,277.5 11,222 12,240.5 13,129.5 14,185 15,222 16,296 17,240.5 18,296 19,240.5 20,222 21,166.5 22,277.5 23,277.5 24,166.5 25,129.5 26,166.5 27,203.5 28,296 29,148 30,222 31,129.5 32,166.5 33,240.5 34,148 35,314.5 36,148 37,148 38,111 39,166.5 40,148 41,166.5 42,129.5 43,129.5 44,148 45,222 46,148 47,240.5 48,222 49,277.5 50,203.5 51,185 52,222 53,111 54,148 55,222 56,166.5 57,185 58,203.5 59,129.5 60,129.5 61,296 62,185 63,148 64,203.5 65,185 66,166.5 67,314.5 68,240.5 69,166.5 70,166.5 71,259 72,148 73,203.5 74,148 75,222 76,314.5 77,148 78,129.5 79,259 80,240.5 81,166.5 82,314.5 83,240.5 84,296 85,222 86,314.5 86.91,370"><title>LR761642.1</title></polygon><rect class="average" height="1" width="86.91" x="0" y="171.06"><title>average:10.75</title></rect><rect class="median" height="1" width="86.91" x="0" y="203.5"><title>median:9</title></rect><text class="chromName" x="43.45" y="-12">LR761642.1<title>LR761642.1 37,089,910 bp</title></text><rect class="frame" height="370" width="86.91" x="0" y="0"/></g><g id="chrom-LR761643.1" transform="translate(1265.1671710093603,0)"><polygon class="cov1" points="0,370 0,333 1,277.5 2,148 3,111 4,148 5,203.5 6,166.5 7,166.5 8,129.5 9,111 10,129.5 11,148 12,129.5 13,185 14,222 15,148 16,111 17,129.5 18,148 19,166.5 20,333 21,148 22,129.5 23,129.5 24,203.5 25,166.5 26,351.5 27,296 28,314.5 29,129.5 30,240.5 31,148 32,222 33,148 34,166.5 35,203.5 36,259 37,129.5 38,148 39,129.5 40,148 41,166.5 42,185 43,296 44,148 45,166.5 46,111 47,185 48,166.5 49,148 50,166.5 51,129.5 52,129.5 53,166.5 54,166.5 55,129.5 57,129.5 58,166.5 59,129.5 60,111 61,129.5 62,166.5 63,148 64,148 65,185 66,148 68,148 69,129.5 70,166.5 71,185 72,166.5 73,222 74,129.5 75,185 76,148 77,111 78,203.5 79,259 80,129.5 81,111 82,129.5 83,129.5 84,111 85,129.5 86,148 87,111 88,148 89,333 90,166.5 91,129.5 92,111 93,148 94,111 95,148 96,111 97,129.5 98,111 99,129.5 100,129.5 101,222 102,129.5 103,129.5 104,148 105,148 106,111 107,111 108,148 109,111 110,129.5 112,129.5 113,222 114,148 115,129.5 116,92.5 117,111 118,148 119,166.5 120,111 123,111 124,129.5 125,129.5 126,111 127,166.5 128,129.5 129,111 130,148 131,240.5 132,111 133,259 134,351.5 134.83,370"><title>LR761643.1</title></polygon><rect class="average" height="1" width="134.83" x="0" y="154.02"><title>average:11.67</title></rect><rect class="median" height="1" width="134.83" x="0" y="148"><title>median:12</title></rect><text class="chromName" x="67.42" y="-12">LR761643.1<title>LR761643.1 57,541,580 bp</title></text><rect class="frame" height="370" width="134.83" x="0" y="0"/></g><g><line class="ruler" x1="-2" x2="1390" y1="333" y2="333"><title>2</title></line><text class="ruler" x="-5" y="333">2</text><line class="ruler" x1="-2" x2="1390" y1="296" y2="296"><title>4</title></line><text class="ruler" x="-5" y="296">4</text><line class="ruler" x1="-2" x2="1390" y1="259" y2="259"><title>6</title></line><text class="ruler" x="-5" y="259">6</text><line class="ruler" x1="-2" x2="1390" y1="222" y2="222"><title>8</title></line><text class="ruler" x="-5" y="222">8</text><line class="ruler" x1="-2" x2="1390" y1="185" y2="185"><title>10</title></line><text class="ruler" x="-5" y="185">10</text><line class="ruler" x1="-2" x2="1390" y1="148" y2="148"><title>12</title></line><text class="ruler" x="-5" y="148">12</text><line class="ruler" x1="-2" x2="1390" y1="111" y2="111"><title>14</title></line><text class="ruler" x="-5" y="111">14</text><line class="ruler" x1="-2" x2="1390" y1="74" y2="74"><title>16</title></line><text class="ruler" x="-5" y="74">16</text><line class="ruler" x1="-2" x2="1390" y1="37" y2="37"><title>18</title></line><text class="ruler" x="-5" y="37">18</text><line class="ruler" x1="-2" x2="1390" y1="0" y2="0"><title>20</title></line><text class="ruler" x="-5" y="0">20</text></g></g><text class="title" x="795" y="40">F3_M3_14.merged.realigned.bam F3_M3_14 F3_M3_14_1 F3_M3_14_2<title>./F3_M3_14.merged.realigned.bam</title></text><text class="xLabel" x="795" y="475">GCA_902806645.1_cgigas_uk_roslin_v1_genomic.fna  (589,358,857 bp)<title>../ref/GCA_902806645.1_cgigas_uk_roslin_v1_genomic.fna</title></text><text class="yLabel" transform="translate(25,265) rotate(90)" x="0" y="0">Coverage bp (median)</text></g></svg>