<?xml version="1.0" encoding="UTF-8" standalone="no"?><svg height="500" width="1500" xmlns="http://www.w3.org/2000/svg"><title>F6_M5_24.merged.realigned.bam</title><desc>Made with wgscoverageplotter undefined Author: Pierre Lindenbaum</desc><style>g.maing {stroke:black;stroke-width:0.5px;fill:none;}
text.title {stroke:none;fill:black;stroke-width:1px;text-anchor:middle;}
rect.frame {stroke:darkgray;fill:none;stroke-width:0.5px;}
text.ruler {stroke:none;fill:darkgray;stroke-width:1px;text-anchor:end;}
text.chromName {stroke:none;fill:darkgray;stroke-width:1px;text-anchor:middle;}
text.xLabel {stroke:none;fill:black;stroke-width:1px;text-anchor:middle;}
text.yLabel {stroke:none;fill:black;stroke-width:1px;text-anchor:middle;}
.cov0 {stroke:gray;fill:antiquewhite;stroke-width:0.5px;}
.cov1 {stroke:gray;fill:beige;stroke-width:0.5px;}
rect.average {stroke:green;fill:green;stroke-width:0.5px;opacity:0.3;}
rect.median {stroke:red;fill:red;stroke-width:0.5px;opacity:0.3;}
line.ruler {stroke:darkgray;stroke-dasharray:4;fill:none;stroke-width:1;}
</style><g class="maing"><g id="chromosomes" transform="translate(100.0,80.0)"><g id="chrom-LR761634.1" transform="translate(10.0,0)"><polygon class="cov0" points="0,370 0,318.61 1,154.17 2,174.72 3,277.5 4,226.11 5,205.56 6,277.5 7,205.56 8,164.44 9,143.89 10,164.44 11,133.61 12,164.44 13,226.11 14,277.5 15,143.89 16,133.61 17,205.56 18,154.17 19,143.89 20,133.61 21,143.89 22,154.17 23,164.44 24,164.44 25,133.61 27,133.61 28,143.89 29,123.33 30,143.89 31,143.89 32,267.22 33,133.61 34,143.89 35,154.17 36,123.33 37,185 38,185 39,154.17 40,133.61 41,133.61 42,143.89 43,185 44,164.44 45,215.83 46,174.72 47,143.89 48,154.17 49,143.89 50,154.17 51,143.89 52,133.61 53,143.89 54,246.67 55,298.06 56,123.33 57,113.06 58,133.61 59,143.89 60,143.89 61,123.33 62,154.17 63,185 64,205.56 65,164.44 66,154.17 67,195.28 68,133.61 69,164.44 70,123.33 71,123.33 72,226.11 73,174.72 74,143.89 75,133.61 76,133.61 77,164.44 78,174.72 79,143.89 80,205.56 81,215.83 82,123.33 83,143.89 84,154.17 85,143.89 86,123.33 87,195.28 88,123.33 89,287.78 90,154.17 91,143.89 92,133.61 93,164.44 94,123.33 95,133.61 96,113.06 97,195.28 98,236.39 99,133.61 100,154.17 101,195.28 102,154.17 103,164.44 104,205.56 105,133.61 106,215.83 107,195.28 108,267.22 109,123.33 110,123.33 111,143.89 112,143.89 113,174.72 114,298.06 115,205.56 116,113.06 117,143.89 118,133.61 119,164.44 120,195.28 121,133.61 122,154.17 123,133.61 124,154.17 125,143.89 126,143.89 127,164.44 128,205.56 129,174.72 130,215.83 130.72,370"><title>LR761634.1</title></polygon><rect class="average" height="1" width="130.72" x="0" y="165.21"><title>average:19.93</title></rect><rect class="median" height="1" width="130.72" x="0" y="154.17"><title>median:21</title></rect><text class="chromName" x="65.36" y="-12">LR761634.1<title>LR761634.1 55,785,328 bp</title></text><rect class="frame" height="370" width="130.72" x="0" y="0"/></g><g id="chrom-LR761635.1" transform="translate(141.71753661284166,0)"><polygon class="cov1" points="0,370 0,359.72 1,339.17 2,328.89 3,308.33 4,349.44 5,359.72 6,226.11 7,318.61 8,328.89 9,226.11 10,195.28 11,277.5 12,154.17 13,154.17 14,205.56 15,298.06 16,298.06 17,236.39 18,298.06 19,215.83 20,277.5 21,308.33 22,277.5 23,195.28 24,287.78 25,339.17 26,287.78 27,318.61 28,277.5 29,339.17 30,349.44 31,328.89 32,267.22 33,226.11 34,215.83 35,226.11 36,246.67 37,328.89 38,328.89 39,185 40,205.56 41,195.28 42,174.72 43,236.39 44,174.72 45,174.72 46,226.11 47,143.89 48,215.83 49,174.72 50,205.56 51,256.94 52,215.83 53,287.78 54,298.06 55,236.39 56,256.94 57,277.5 58,195.28 59,298.06 60,339.17 61,277.5 62,154.17 63,287.78 64,267.22 65,277.5 66,298.06 67,308.33 68,267.22 69,267.22 70,277.5 71,226.11 72,215.83 73,246.67 74,246.67 75,226.11 76,339.17 77,51.39 78,267.22 79,308.33 80,185 81,298.06 82,328.89 83,287.78 84,318.61 85,287.78 86,339.17 87,349.44 88,339.17 89,359.72 90,267.22 91,328.89 92,328.89 93,267.22 94,287.78 95,277.5 96,349.44 97,298.06 98,298.06 99,308.33 100,267.22 101,298.06 102,318.61 103,267.22 104,267.22 105,174.72 106,205.56 107,277.5 108,195.28 109,205.56 110,298.06 111,195.28 112,328.89 113,328.89 114,308.33 115,267.22 116,318.61 117,298.06 118,164.44 119,174.72 120,143.89 121,195.28 122,246.67 124,246.67 125,154.17 126,226.11 127,287.78 128,215.83 129,185 130,164.44 131,298.06 132,215.83 133,267.22 134,308.33 135,277.5 136,318.61 137,328.89 138,318.61 139,287.78 140,328.89 141,318.61 142,287.78 143,308.33 144,277.5 145,246.67 146,267.22 147,123.33 148,174.72 149,143.89 150,236.39 151,298.06 152,328.89 153,215.83 154,287.78 155,277.5 156,298.06 157,267.22 158,267.22 159,185 160,226.11 161,236.39 162,298.06 163,267.22 164,246.67 165,287.78 166,318.61 167,339.17 168,308.33 169,287.78 170,318.61 171,339.17 171.58,370"><title>LR761635.1</title></polygon><rect class="average" height="1" width="171.58" x="0" y="218.63"><title>average:14.73</title></rect><rect class="median" height="1" width="171.58" x="0" y="267.22"><title>median:10</title></rect><text class="chromName" x="85.79" y="-12">LR761635.1<title>LR761635.1 73,222,313 bp</title></text><rect class="frame" height="370" width="171.58" x="0" y="0"/></g><g id="chrom-LR761636.1" transform="translate(314.2938403401308,0)"><polygon class="cov0" points="0,370 0,339.17 1,174.72 2,246.67 3,277.5 4,246.67 5,154.17 6,143.89 7,154.17 8,133.61 9,154.17 10,143.89 11,154.17 12,143.89 13,267.22 14,123.33 15,143.89 16,143.89 17,133.61 18,174.72 19,154.17 20,133.61 21,143.89 22,133.61 23,123.33 24,215.83 25,133.61 26,195.28 27,246.67 28,133.61 29,123.33 30,133.61 31,123.33 32,123.33 33,133.61 34,154.17 35,226.11 36,143.89 37,185 38,143.89 39,143.89 40,174.72 41,154.17 42,174.72 43,154.17 44,143.89 45,154.17 46,174.72 47,143.89 48,205.56 49,164.44 50,185 51,133.61 52,143.89 53,143.89 54,287.78 55,174.72 56,164.44 57,143.89 58,174.72 59,133.61 60,174.72 61,215.83 62,174.72 63,154.17 64,143.89 65,154.17 67,154.17 68,174.72 69,164.44 70,205.56 71,113.06 72,123.33 73,164.44 74,154.17 75,164.44 76,298.06 77,215.83 78,215.83 79,246.67 80,267.22 81,143.89 82,205.56 83,154.17 84,133.61 85,143.89 86,287.78 87,164.44 88,154.17 89,215.83 90,143.89 91,133.61 92,185 93,164.44 94,143.89 95,185 96,215.83 97,143.89 98,143.89 99,205.56 100,164.44 101,154.17 102,164.44 103,123.33 104,133.61 105,143.89 107,143.89 108,133.61 110,133.61 111,164.44 112,164.44 113,174.72 114,133.61 115,123.33 116,133.61 117,143.89 118,174.72 119,143.89 120,143.89 121,185 122,133.61 123,133.61 124,195.28 125,123.33 126,123.33 127,205.56 128,256.94 129,133.61 130,154.17 131,123.33 132,174.72 133,164.44 134,143.89 135,143.89 136,318.61 136.65,370"><title>LR761636.1</title></polygon><rect class="average" height="1" width="136.65" x="0" y="165.09"><title>average:19.94</title></rect><rect class="median" height="1" width="136.65" x="0" y="154.17"><title>median:21</title></rect><text class="chromName" x="68.33" y="-12">LR761636.1<title>LR761636.1 58,319,100 bp</title></text><rect class="frame" height="370" width="136.65" x="0" y="0"/></g><g id="chrom-LR761637.1" transform="translate(451.9485730949149,0)"><polygon class="cov1" points="0,370 0,267.22 1,246.67 3,246.67 4,215.83 5,174.72 6,195.28 7,246.67 8,174.72 9,246.67 10,339.17 11,185 12,205.56 13,256.94 14,298.06 15,195.28 16,226.11 17,133.61 18,226.11 19,226.11 20,185 21,164.44 22,164.44 23,195.28 24,308.33 25,143.89 26,154.17 27,226.11 28,205.56 29,205.56 30,256.94 31,164.44 32,154.17 33,174.72 34,123.33 35,185 36,328.89 37,328.89 38,164.44 39,164.44 40,154.17 41,174.72 42,164.44 43,277.5 44,318.61 45,164.44 46,143.89 47,143.89 48,123.33 49,133.61 50,185 51,133.61 52,102.78 53,154.17 54,113.06 55,133.61 56,143.89 57,226.11 58,287.78 59,267.22 60,267.22 61,236.39 62,133.61 63,154.17 64,133.61 65,154.17 66,154.17 67,164.44 68,185 69,133.61 70,164.44 71,143.89 72,185 73,133.61 74,195.28 75,154.17 76,143.89 77,154.17 78,174.72 79,164.44 81,164.44 82,133.61 83,154.17 84,164.44 85,133.61 86,236.39 87,174.72 88,133.61 89,143.89 90,133.61 91,143.89 92,133.61 93,185 94,185 95,215.83 96,195.28 97,143.89 98,123.33 99,133.61 100,226.11 101,256.94 102,236.39 103,256.94 104,256.94 105,277.5 106,133.61 107,123.33 108,123.33 109,133.61 110,123.33 111,185 112,154.17 113,133.61 114,277.5 115,215.83 116,185 117,185 118,154.17 119,318.61 120,195.28 121,133.61 122,328.89 123,339.17 124,308.33 124.49,370"><title>LR761637.1</title></polygon><rect class="average" height="1" width="124.49" x="0" y="179.84"><title>average:18.5</title></rect><rect class="median" height="1" width="124.49" x="0" y="185"><title>median:18</title></rect><text class="chromName" x="62.25" y="-12">LR761637.1<title>LR761637.1 53,127,865 bp</title></text><rect class="frame" height="370" width="124.49" x="0" y="0"/></g><g id="chrom-LR761638.1" transform="translate(577.4390778079033,0)"><polygon class="cov0" points="0,370 0,267.22 1,195.28 2,308.33 3,143.89 4,236.39 5,154.17 6,205.56 7,195.28 8,205.56 9,133.61 10,195.28 11,308.33 12,143.89 13,174.72 14,133.61 15,164.44 16,164.44 17,143.89 18,256.94 19,328.89 20,143.89 21,236.39 22,143.89 23,133.61 24,133.61 25,174.72 26,349.44 27,133.61 28,195.28 29,298.06 30,256.94 31,154.17 32,359.72 33,349.44 34,205.56 35,236.39 36,154.17 37,318.61 38,308.33 39,339.17 40,339.17 41,318.61 42,256.94 43,154.17 44,164.44 45,298.06 46,143.89 47,133.61 48,143.89 49,215.83 50,359.72 51,246.67 52,205.56 53,185 54,267.22 55,246.67 56,154.17 57,205.56 58,164.44 59,185 60,205.56 61,226.11 62,174.72 63,256.94 64,287.78 65,339.17 66,215.83 67,205.56 68,174.72 69,246.67 70,143.89 71,267.22 72,328.89 73,298.06 74,267.22 75,339.17 76,256.94 77,185 78,359.72 79,287.78 80,287.78 81,215.83 82,298.06 83,277.5 84,236.39 85,195.28 86,143.89 87,174.72 88,308.33 89,154.17 90,287.78 91,164.44 92,113.06 93,123.33 94,133.61 95,205.56 96,277.5 97,185 98,267.22 99,215.83 100,174.72 101,154.17 102,226.11 103,164.44 104,195.28 105,236.39 106,267.22 107,164.44 108,174.72 109,154.17 110,215.83 111,205.56 112,246.67 113,236.39 114,226.11 115,298.06 116,298.06 117,328.89 118,328.89 119,298.06 120,339.17 121,349.44 122,349.44 123,370 124,298.06 125,298.06 126,339.17 127,246.67 128,267.22 129,205.56 130,246.67 131,246.67 132,328.89 133,308.33 134,256.94 135,277.5 136,174.72 137,318.61 138,328.89 139,267.22 140,298.06 141,328.89 142,308.33 143,267.22 144,174.72 145,195.28 146,195.28 147,154.17 148,154.17 149,174.72 150,195.28 151,298.06 152,195.28 153,164.44 154,277.5 155,298.06 156,205.56 157,246.67 158,328.89 159,298.06 160,308.33 161,287.78 162,287.78 163,267.22 164,339.17 165,349.44 166,349.44 167,359.72 168,359.72 169,236.39 170,267.22 171,267.22 172,256.94 172.35,370"><title>LR761638.1</title></polygon><rect class="average" height="1" width="172.35" x="0" y="212.77"><title>average:15.3</title></rect><rect class="median" height="1" width="172.35" x="0" y="246.67"><title>median:12</title></rect><text class="chromName" x="86.17" y="-12">LR761638.1<title>LR761638.1 73,550,375 bp</title></text><rect class="frame" height="370" width="172.35" x="0" y="0"/></g><g id="chrom-LR761639.1" transform="translate(750.784104388203,0)"><polygon class="cov1" points="0,370 0,370 1,164.44 2,154.17 3,267.22 4,154.17 5,256.94 6,339.17 7,205.56 8,154.17 9,133.61 10,143.89 11,308.33 12,318.61 13,143.89 14,154.17 15,133.61 16,143.89 17,133.61 18,143.89 19,123.33 20,123.33 21,143.89 22,154.17 23,185 24,185 25,205.56 26,185 27,328.89 28,349.44 29,215.83 30,287.78 31,154.17 32,164.44 33,143.89 34,205.56 35,205.56 36,215.83 37,143.89 38,154.17 39,143.89 40,195.28 41,133.61 42,154.17 43,123.33 44,154.17 45,133.61 46,164.44 47,154.17 48,133.61 49,164.44 50,174.72 51,133.61 52,185 53,154.17 54,174.72 55,143.89 56,133.61 57,143.89 58,143.89 59,133.61 61,133.61 62,143.89 63,154.17 64,123.33 65,133.61 66,174.72 67,143.89 68,133.61 69,174.72 70,143.89 71,154.17 72,143.89 73,133.61 74,215.83 75,133.61 76,143.89 77,143.89 78,133.61 79,143.89 80,174.72 81,143.89 83,143.89 84,205.56 85,143.89 86,133.61 87,143.89 88,133.61 89,143.89 90,133.61 91,154.17 92,143.89 93,174.72 94,154.17 95,143.89 96,154.17 97,133.61 98,123.33 99,133.61 100,143.89 101,133.61 102,133.61 103,143.89 104,123.33 105,123.33 106,256.94 107,143.89 108,123.33 109,133.61 110,133.61 111,349.44 112,195.28 113,123.33 114,174.72 115,123.33 116,154.17 117,143.89 118,143.89 119,133.61 120,164.44 121,133.61 123,133.61 124,174.72 125,154.17 126,143.89 127,143.89 128,154.17 129,143.89 130,205.56 131,154.17 132,185 133,349.44 134,133.61 135,205.56 136,154.17 137,164.44 138,205.56 139,185 140,298.06 140.95,370"><title>LR761639.1</title></polygon><rect class="average" height="1" width="140.95" x="0" y="166.56"><title>average:19.79</title></rect><rect class="median" height="1" width="140.95" x="0" y="154.17"><title>median:21</title></rect><text class="chromName" x="70.47" y="-12">LR761639.1<title>LR761639.1 60,151,564 bp</title></text><rect class="frame" height="370" width="140.95" x="0" y="0"/></g><g id="chrom-LR761640.1" transform="translate(892.7327113317651,0)"><polygon class="cov0" points="0,370 0,185 1,123.33 2,195.28 3,185 4,185 5,133.61 6,185 7,205.56 8,143.89 9,185 10,154.17 11,154.17 12,133.61 13,267.22 14,185 15,143.89 16,226.11 17,143.89 18,133.61 19,195.28 20,133.61 21,143.89 22,133.61 23,123.33 24,133.61 25,154.17 26,123.33 27,143.89 28,143.89 29,133.61 30,133.61 31,113.06 32,133.61 33,133.61 34,154.17 35,133.61 36,143.89 37,205.56 38,123.33 39,154.17 40,123.33 41,123.33 42,102.78 43,133.61 44,133.61 45,154.17 46,164.44 47,246.67 48,328.89 49,133.61 50,164.44 51,143.89 52,123.33 53,143.89 54,123.33 55,133.61 56,133.61 57,226.11 58,164.44 59,195.28 60,267.22 61,143.89 62,164.44 63,185 64,133.61 65,287.78 66,143.89 67,154.17 68,154.17 69,205.56 70,174.72 71,143.89 72,154.17 73,205.56 74,174.72 75,133.61 76,143.89 77,226.11 78,133.61 79,174.72 80,113.06 81,102.78 82,123.33 83,133.61 84,143.89 85,133.61 86,318.61 87,154.17 88,164.44 89,174.72 90,154.17 91,298.06 92,298.06 93,185 94,287.78 95,164.44 96,143.89 97,143.89 98,154.17 99,154.17 100,123.33 101,226.11 102,328.89 103,215.83 104,133.61 105,133.61 106,143.89 107,174.72 108,205.56 109,133.61 110,185 111,205.56 112,154.17 113,143.89 114,174.72 115,143.89 116,308.33 117,339.17 118,359.72 119,318.61 120,154.17 121,133.61 123,133.61 124,154.17 125,133.61 126,133.61 127,143.89 128,267.22 129,154.17 130,133.61 131,133.61 132,154.17 133,143.89 134,113.06 135,123.33 136,133.61 137,143.89 138,143.89 139,185 140,143.89 141,133.61 142,174.72 143,215.83 144,154.17 145,133.61 145.53,370"><title>LR761640.1</title></polygon><rect class="average" height="1" width="145.53" x="0" y="167.07"><title>average:19.74</title></rect><rect class="median" height="1" width="145.53" x="0" y="154.17"><title>median:21</title></rect><text class="chromName" x="72.77" y="-12">LR761640.1<title>LR761640.1 62,107,823 bp</title></text><rect class="frame" height="370" width="145.53" x="0" y="0"/></g><g id="chrom-LR761641.1" transform="translate(1039.265271917344,0)"><polygon class="cov1" points="0,370 0,298.06 1,205.56 2,256.94 3,195.28 4,143.89 5,215.83 6,287.78 7,267.22 8,318.61 9,195.28 10,174.72 11,205.56 12,246.67 13,133.61 14,185 15,154.17 16,174.72 17,349.44 18,143.89 19,143.89 20,154.17 21,164.44 22,226.11 23,164.44 24,195.28 25,174.72 26,246.67 27,205.56 28,256.94 29,318.61 30,236.39 31,205.56 32,277.5 33,205.56 34,267.22 35,287.78 36,328.89 37,298.06 38,277.5 39,287.78 40,195.28 41,267.22 42,287.78 43,328.89 44,236.39 45,236.39 46,256.94 47,287.78 48,226.11 49,143.89 50,195.28 51,143.89 52,123.33 53,133.61 54,133.61 55,113.06 56,123.33 57,164.44 58,174.72 59,174.72 60,154.17 61,267.22 62,164.44 63,205.56 64,164.44 65,205.56 66,215.83 67,236.39 68,267.22 69,164.44 70,164.44 71,123.33 72,205.56 73,328.89 74,215.83 75,298.06 76,215.83 77,215.83 78,174.72 79,205.56 80,256.94 81,370 82,349.44 83,318.61 84,195.28 85,195.28 86,267.22 87,133.61 88,236.39 89,174.72 90,256.94 91,277.5 92,143.89 93,246.67 94,318.61 95,236.39 96,174.72 97,298.06 98,143.89 99,370 100,308.33 101,143.89 102,174.72 103,143.89 104,185 105,143.89 106,267.22 107,143.89 108,154.17 110,154.17 111,298.06 112,154.17 113,256.94 114,164.44 115,174.72 116,133.61 117,185 118,143.89 119,215.83 120,226.11 121,185 122,205.56 123,246.67 124,154.17 125,246.67 126,267.22 127,133.61 128,256.94 129,195.28 130,277.5 131,205.56 132,359.72 133,277.5 134,143.89 135,359.72 136,349.44 136.99,370"><title>LR761641.1</title></polygon><rect class="average" height="1" width="136.99" x="0" y="197.03"><title>average:16.83</title></rect><rect class="median" height="1" width="136.99" x="0" y="215.83"><title>median:15</title></rect><text class="chromName" x="68.5" y="-12">LR761641.1<title>LR761641.1 58,462,999 bp</title></text><rect class="frame" height="370" width="136.99" x="0" y="0"/></g><g id="chrom-LR761642.1" transform="translate(1177.25719230686,0)"><polygon class="cov0" points="0,370 0,328.89 1,318.61 2,308.33 3,308.33 4,339.17 5,359.72 6,339.17 7,339.17 8,349.44 9,318.61 10,267.22 11,236.39 12,256.94 13,143.89 14,185 15,185 16,308.33 17,256.94 18,256.94 19,226.11 20,236.39 21,164.44 22,308.33 23,287.78 24,174.72 25,133.61 26,195.28 27,215.83 28,246.67 29,164.44 30,226.11 31,143.89 32,154.17 33,236.39 34,164.44 35,308.33 36,154.17 37,154.17 38,133.61 39,174.72 40,143.89 41,164.44 42,133.61 43,143.89 44,154.17 45,226.11 46,164.44 47,267.22 48,246.67 49,308.33 50,195.28 51,195.28 52,215.83 53,133.61 54,143.89 55,226.11 56,185 57,205.56 58,267.22 59,164.44 60,174.72 61,328.89 62,205.56 63,174.72 64,215.83 65,195.28 66,164.44 67,318.61 68,246.67 69,164.44 70,154.17 71,277.5 72,154.17 73,205.56 74,143.89 75,195.28 76,277.5 77,164.44 78,154.17 79,246.67 80,246.67 81,195.28 82,318.61 83,267.22 84,298.06 85,185 86,318.61 86.91,370"><title>LR761642.1</title></polygon><rect class="average" height="1" width="86.91" x="0" y="193.05"><title>average:17.22</title></rect><rect class="median" height="1" width="86.91" x="0" y="226.11"><title>median:14</title></rect><text class="chromName" x="43.45" y="-12">LR761642.1<title>LR761642.1 37,089,910 bp</title></text><rect class="frame" height="370" width="86.91" x="0" y="0"/></g><g id="chrom-LR761643.1" transform="translate(1265.1671710093603,0)"><polygon class="cov1" points="0,370 0,277.5 1,246.67 2,164.44 3,143.89 4,154.17 5,215.83 6,174.72 7,174.72 8,143.89 9,133.61 10,143.89 11,174.72 12,143.89 13,195.28 14,246.67 15,154.17 16,123.33 17,164.44 18,164.44 19,174.72 20,359.72 21,174.72 22,143.89 23,143.89 24,195.28 25,174.72 26,339.17 27,328.89 28,328.89 29,133.61 30,205.56 31,164.44 32,215.83 33,143.89 34,143.89 35,205.56 36,256.94 37,133.61 38,143.89 39,123.33 40,143.89 41,154.17 42,174.72 43,298.06 44,154.17 45,174.72 46,143.89 47,215.83 48,164.44 49,154.17 50,205.56 51,133.61 52,154.17 53,164.44 54,164.44 55,143.89 56,133.61 57,133.61 58,143.89 59,143.89 60,123.33 61,143.89 62,164.44 63,154.17 64,154.17 65,195.28 66,164.44 67,154.17 68,154.17 69,143.89 70,164.44 71,195.28 72,195.28 73,215.83 74,133.61 75,205.56 76,143.89 77,133.61 78,195.28 79,267.22 80,133.61 81,123.33 82,154.17 83,143.89 84,133.61 85,143.89 86,154.17 87,133.61 88,164.44 89,287.78 90,174.72 91,133.61 92,133.61 93,164.44 94,133.61 95,164.44 96,133.61 98,133.61 99,123.33 100,133.61 101,236.39 102,143.89 103,154.17 104,154.17 105,143.89 106,133.61 107,133.61 108,143.89 109,123.33 110,123.33 111,133.61 112,133.61 113,246.67 114,154.17 115,143.89 116,133.61 117,123.33 118,154.17 119,154.17 120,123.33 121,123.33 122,133.61 123,123.33 124,143.89 125,133.61 126,133.61 127,195.28 128,174.72 129,133.61 130,154.17 131,236.39 132,133.61 133,226.11 134,308.33 134.83,370"><title>LR761643.1</title></polygon><rect class="average" height="1" width="134.83" x="0" y="169.62"><title>average:19.5</title></rect><rect class="median" height="1" width="134.83" x="0" y="154.17"><title>median:21</title></rect><text class="chromName" x="67.42" y="-12">LR761643.1<title>LR761643.1 57,541,580 bp</title></text><rect class="frame" height="370" width="134.83" x="0" y="0"/></g><g><line class="ruler" x1="-2" x2="1390" y1="333" y2="333"><title>3</title></line><text class="ruler" x="-5" y="333">3</text><line class="ruler" x1="-2" x2="1390" y1="296" y2="296"><title>7</title></line><text class="ruler" x="-5" y="296">7</text><line class="ruler" x1="-2" x2="1390" y1="259" y2="259"><title>10</title></line><text class="ruler" x="-5" y="259">10</text><line class="ruler" x1="-2" x2="1390" y1="222" y2="222"><title>14</title></line><text class="ruler" x="-5" y="222">14</text><line class="ruler" x1="-2" x2="1390" y1="185" y2="185"><title>18</title></line><text class="ruler" x="-5" y="185">18</text><line class="ruler" x1="-2" x2="1390" y1="148" y2="148"><title>21</title></line><text class="ruler" x="-5" y="148">21</text><line class="ruler" x1="-2" x2="1390" y1="111" y2="111"><title>25</title></line><text class="ruler" x="-5" y="111">25</text><line class="ruler" x1="-2" x2="1390" y1="74" y2="74"><title>28</title></line><text class="ruler" x="-5" y="74">28</text><line class="ruler" x1="-2" x2="1390" y1="37" y2="37"><title>32</title></line><text class="ruler" x="-5" y="37">32</text><line class="ruler" x1="-2" x2="1390" y1="0" y2="0"><title>36</title></line><text class="ruler" x="-5" y="0">36</text></g></g><text class="title" x="795" y="40">F6_M5_24.merged.realigned.bam F6_M5_24 F6_M5_24_1 F6_M5_24_2<title>./F6_M5_24.merged.realigned.bam</title></text><text class="xLabel" x="795" y="475">GCA_902806645.1_cgigas_uk_roslin_v1_genomic.fna  (589,358,857 bp)<title>../ref/GCA_902806645.1_cgigas_uk_roslin_v1_genomic.fna</title></text><text class="yLabel" transform="translate(25,265) rotate(90)" x="0" y="0">Coverage bp (median)</text></g></svg>