<?xml version="1.0" encoding="UTF-8" standalone="no"?><svg height="500" width="1500" xmlns="http://www.w3.org/2000/svg"><title>F6_M6_14.merged.realigned.bam</title><desc>Made with wgscoverageplotter undefined Author: Pierre Lindenbaum</desc><style>g.maing {stroke:black;stroke-width:0.5px;fill:none;}
text.title {stroke:none;fill:black;stroke-width:1px;text-anchor:middle;}
rect.frame {stroke:darkgray;fill:none;stroke-width:0.5px;}
text.ruler {stroke:none;fill:darkgray;stroke-width:1px;text-anchor:end;}
text.chromName {stroke:none;fill:darkgray;stroke-width:1px;text-anchor:middle;}
text.xLabel {stroke:none;fill:black;stroke-width:1px;text-anchor:middle;}
text.yLabel {stroke:none;fill:black;stroke-width:1px;text-anchor:middle;}
.cov0 {stroke:gray;fill:antiquewhite;stroke-width:0.5px;}
.cov1 {stroke:gray;fill:beige;stroke-width:0.5px;}
rect.average {stroke:green;fill:green;stroke-width:0.5px;opacity:0.3;}
rect.median {stroke:red;fill:red;stroke-width:0.5px;opacity:0.3;}
line.ruler {stroke:darkgray;stroke-dasharray:4;fill:none;stroke-width:1;}
</style><g class="maing"><g id="chromosomes" transform="translate(100.0,80.0)"><g id="chrom-LR761634.1" transform="translate(10.0,0)"><polygon class="cov0" points="0,370 0,308.33 1,123.33 2,154.17 3,277.5 4,215.83 5,185 6,277.5 7,185 8,154.17 9,123.33 10,154.17 11,92.5 12,154.17 13,215.83 14,277.5 15,123.33 16,92.5 17,185 18,123.33 19,123.33 20,92.5 21,123.33 22,123.33 23,154.17 24,154.17 25,92.5 27,92.5 28,123.33 29,92.5 31,92.5 32,246.67 33,92.5 34,123.33 35,123.33 36,61.67 37,154.17 38,185 39,123.33 40,92.5 42,92.5 43,154.17 44,154.17 45,215.83 46,154.17 47,123.33 50,123.33 51,92.5 52,92.5 53,123.33 54,215.83 55,246.67 56,92.5 57,61.67 58,92.5 59,123.33 60,123.33 61,92.5 62,123.33 63,154.17 64,185 65,154.17 66,123.33 67,185 68,92.5 69,154.17 70,92.5 71,92.5 72,215.83 73,154.17 74,123.33 75,92.5 76,92.5 77,154.17 78,154.17 79,92.5 80,215.83 81,215.83 82,92.5 83,123.33 85,123.33 86,92.5 87,185 88,92.5 89,277.5 90,123.33 91,123.33 92,92.5 93,123.33 94,92.5 95,92.5 96,61.67 97,185 98,215.83 99,92.5 100,123.33 101,154.17 102,123.33 103,154.17 104,185 105,92.5 106,215.83 107,185 108,246.67 109,92.5 110,92.5 111,123.33 112,123.33 113,154.17 114,277.5 115,185 116,61.67 117,92.5 118,92.5 119,154.17 120,185 121,92.5 122,123.33 123,92.5 124,123.33 126,123.33 127,154.17 128,185 129,154.17 130,215.83 130.72,370"><title>LR761634.1</title></polygon><rect class="average" height="1" width="130.72" x="0" y="124"><title>average:7.98</title></rect><rect class="median" height="1" width="130.72" x="0" y="123.33"><title>median:8</title></rect><text class="chromName" x="65.36" y="-12">LR761634.1<title>LR761634.1 55,785,328 bp</title></text><rect class="frame" height="370" width="130.72" x="0" y="0"/></g><g id="chrom-LR761635.1" transform="translate(141.71753661284166,0)"><polygon class="cov1" points="0,370 0,370 1,339.17 2,339.17 3,308.33 4,339.17 5,370 6,215.83 7,308.33 8,308.33 9,215.83 10,215.83 11,277.5 12,154.17 13,154.17 14,215.83 15,308.33 16,277.5 17,246.67 18,308.33 19,215.83 20,277.5 21,308.33 22,277.5 23,185 24,277.5 25,339.17 26,308.33 27,308.33 28,277.5 29,339.17 31,339.17 32,246.67 33,215.83 35,215.83 36,246.67 37,339.17 38,339.17 39,154.17 40,185 42,185 43,246.67 44,154.17 45,185 46,215.83 47,123.33 48,215.83 49,154.17 50,185 51,246.67 52,215.83 53,277.5 54,277.5 55,246.67 56,246.67 57,277.5 58,185 59,308.33 60,339.17 61,277.5 62,154.17 63,277.5 64,277.5 65,246.67 66,277.5 67,308.33 68,246.67 69,246.67 70,277.5 71,215.83 72,215.83 73,246.67 74,246.67 75,215.83 76,339.17 77,30.83 78,246.67 79,308.33 80,185 81,277.5 82,308.33 83,277.5 84,339.17 85,277.5 86,339.17 87,370 88,339.17 89,370 90,277.5 91,308.33 92,339.17 93,277.5 95,277.5 96,339.17 97,277.5 98,277.5 99,308.33 100,246.67 101,308.33 102,308.33 103,277.5 104,246.67 105,185 106,215.83 107,277.5 108,185 109,215.83 110,277.5 111,185 112,339.17 113,339.17 114,308.33 115,277.5 116,308.33 117,277.5 118,154.17 119,154.17 120,123.33 121,154.17 122,246.67 124,246.67 125,123.33 126,215.83 127,277.5 128,185 129,185 130,154.17 131,277.5 132,215.83 133,277.5 134,308.33 135,277.5 136,308.33 137,339.17 138,308.33 139,277.5 140,339.17 141,308.33 142,277.5 143,308.33 144,277.5 145,246.67 146,246.67 147,92.5 148,185 149,123.33 150,246.67 151,277.5 152,339.17 153,215.83 154,308.33 155,277.5 156,277.5 157,246.67 158,246.67 159,154.17 160,215.83 161,215.83 162,308.33 163,277.5 164,215.83 165,277.5 166,308.33 167,339.17 168,308.33 169,277.5 170,308.33 171,339.17 171.58,370"><title>LR761635.1</title></polygon><rect class="average" height="1" width="171.58" x="0" y="199.81"><title>average:5.52</title></rect><rect class="median" height="1" width="171.58" x="0" y="277.5"><title>median:3</title></rect><text class="chromName" x="85.79" y="-12">LR761635.1<title>LR761635.1 73,222,313 bp</title></text><rect class="frame" height="370" width="171.58" x="0" y="0"/></g><g id="chrom-LR761636.1" transform="translate(314.2938403401308,0)"><polygon class="cov0" points="0,370 0,339.17 1,154.17 2,246.67 3,277.5 4,246.67 5,123.33 7,123.33 8,92.5 9,123.33 10,92.5 11,123.33 12,123.33 13,246.67 14,92.5 15,123.33 16,123.33 17,92.5 18,154.17 19,123.33 21,123.33 22,92.5 23,92.5 24,185 25,92.5 26,154.17 27,246.67 28,92.5 29,61.67 30,92.5 31,92.5 32,61.67 33,92.5 34,123.33 35,185 36,123.33 37,154.17 38,123.33 39,92.5 40,154.17 41,123.33 42,154.17 43,123.33 45,123.33 46,154.17 47,123.33 48,185 49,123.33 50,154.17 51,92.5 52,123.33 53,123.33 54,277.5 55,154.17 56,154.17 57,92.5 58,154.17 59,92.5 60,154.17 61,215.83 62,154.17 63,123.33 64,92.5 65,123.33 67,123.33 68,154.17 69,123.33 70,185 71,61.67 72,92.5 73,154.17 74,123.33 75,154.17 76,308.33 77,215.83 78,215.83 79,246.67 80,246.67 81,123.33 82,185 83,123.33 84,92.5 85,123.33 86,277.5 87,123.33 88,123.33 89,185 90,123.33 91,92.5 92,185 93,154.17 94,123.33 95,154.17 96,185 97,92.5 98,123.33 99,185 100,154.17 101,123.33 102,154.17 103,92.5 105,92.5 106,123.33 107,123.33 108,92.5 110,92.5 111,123.33 112,154.17 113,154.17 114,92.5 115,61.67 116,92.5 117,123.33 118,154.17 119,92.5 120,92.5 121,154.17 122,92.5 123,92.5 124,154.17 125,92.5 126,92.5 127,185 128,246.67 129,92.5 130,123.33 131,92.5 132,154.17 133,154.17 134,92.5 135,123.33 136,308.33 136.65,370"><title>LR761636.1</title></polygon><rect class="average" height="1" width="136.65" x="0" y="122.28"><title>average:8.03</title></rect><rect class="median" height="1" width="136.65" x="0" y="123.33"><title>median:8</title></rect><text class="chromName" x="68.33" y="-12">LR761636.1<title>LR761636.1 58,319,100 bp</title></text><rect class="frame" height="370" width="136.65" x="0" y="0"/></g><g id="chrom-LR761637.1" transform="translate(451.9485730949149,0)"><polygon class="cov1" points="0,370 0,277.5 1,246.67 3,246.67 4,215.83 5,154.17 6,185 7,246.67 8,185 9,246.67 10,339.17 11,185 12,185 13,246.67 14,277.5 15,185 16,215.83 17,123.33 18,215.83 19,215.83 20,185 21,154.17 22,154.17 23,185 24,308.33 25,123.33 26,154.17 27,215.83 28,185 29,215.83 30,246.67 31,154.17 33,154.17 34,92.5 35,185 36,339.17 37,339.17 38,154.17 39,123.33 40,123.33 41,185 42,154.17 43,246.67 44,308.33 45,154.17 46,123.33 47,123.33 48,92.5 49,92.5 50,185 51,92.5 52,61.67 53,154.17 54,61.67 55,92.5 56,123.33 57,215.83 58,277.5 60,277.5 61,215.83 62,92.5 63,123.33 64,92.5 65,123.33 67,123.33 68,154.17 69,92.5 70,123.33 71,123.33 72,185 73,92.5 74,185 75,123.33 77,123.33 78,154.17 81,154.17 82,92.5 83,123.33 84,123.33 85,92.5 86,215.83 87,154.17 88,92.5 89,123.33 90,92.5 91,123.33 92,92.5 93,185 94,154.17 95,215.83 96,185 97,123.33 98,92.5 99,92.5 100,215.83 101,246.67 102,246.67 103,277.5 105,277.5 106,92.5 110,92.5 111,154.17 112,123.33 113,92.5 114,277.5 115,185 116,154.17 117,154.17 118,123.33 119,308.33 120,185 121,123.33 122,339.17 123,339.17 124,308.33 124.49,370"><title>LR761637.1</title></polygon><rect class="average" height="1" width="124.49" x="0" y="147.19"><title>average:7.23</title></rect><rect class="median" height="1" width="124.49" x="0" y="154.17"><title>median:7</title></rect><text class="chromName" x="62.25" y="-12">LR761637.1<title>LR761637.1 53,127,865 bp</title></text><rect class="frame" height="370" width="124.49" x="0" y="0"/></g><g id="chrom-LR761638.1" transform="translate(577.4390778079033,0)"><polygon class="cov0" points="0,370 0,277.5 1,185 2,308.33 3,123.33 4,215.83 5,123.33 6,185 8,185 9,92.5 10,185 11,308.33 12,123.33 13,154.17 14,92.5 15,154.17 16,154.17 17,123.33 18,246.67 19,339.17 20,123.33 21,215.83 22,123.33 23,92.5 24,92.5 25,154.17 26,370 27,92.5 28,185 29,277.5 30,246.67 31,123.33 32,370 33,339.17 34,185 35,215.83 36,154.17 37,308.33 38,308.33 39,339.17 40,339.17 41,308.33 42,246.67 43,123.33 44,154.17 45,308.33 46,123.33 48,123.33 49,215.83 50,370 51,246.67 52,200.42 53,154.17 54,246.67 55,215.83 56,123.33 57,185 58,154.17 59,185 60,185 61,215.83 62,154.17 63,246.67 64,277.5 65,339.17 66,185 67,185 68,154.17 69,246.67 70,123.33 71,246.67 72,339.17 73,308.33 74,246.67 75,339.17 76,246.67 77,185 78,370 79,277.5 80,277.5 81,185 82,308.33 83,277.5 84,246.67 85,185 86,123.33 87,154.17 88,308.33 89,123.33 90,277.5 91,154.17 92,92.5 94,92.5 95,185 96,246.67 97,185 98,246.67 99,215.83 100,154.17 101,154.17 102,215.83 103,154.17 104,185 105,246.67 106,246.67 107,154.17 109,154.17 110,215.83 111,185 112,246.67 113,215.83 114,215.83 115,308.33 117,308.33 118,339.17 119,277.5 120,339.17 121,339.17 122,370 123,370 124,308.33 125,308.33 126,339.17 127,246.67 128,277.5 129,215.83 130,246.67 131,246.67 132,308.33 133,308.33 134,246.67 135,277.5 136,185 137,308.33 138,308.33 139,246.67 140,308.33 142,308.33 143,246.67 144,185 146,185 147,123.33 148,154.17 149,154.17 150,185 151,277.5 152,185 153,154.17 154,277.5 155,277.5 156,185 157,246.67 158,339.17 159,308.33 160,308.33 161,277.5 162,277.5 163,215.83 164,339.17 166,339.17 167,370 168,370 169,215.83 170,277.5 171,277.5 172,246.67 172.35,370"><title>LR761638.1</title></polygon><rect class="average" height="1" width="172.35" x="0" y="189.11"><title>average:5.87</title></rect><rect class="median" height="1" width="172.35" x="0" y="246.67"><title>median:4</title></rect><text class="chromName" x="86.17" y="-12">LR761638.1<title>LR761638.1 73,550,375 bp</title></text><rect class="frame" height="370" width="172.35" x="0" y="0"/></g><g id="chrom-LR761639.1" transform="translate(750.784104388203,0)"><polygon class="cov1" points="0,370 0,370 1,154.17 2,123.33 3,277.5 4,154.17 5,246.67 6,339.17 7,215.83 8,123.33 9,92.5 10,123.33 11,277.5 12,308.33 13,123.33 14,123.33 15,92.5 16,123.33 17,92.5 20,92.5 21,123.33 22,123.33 23,154.17 24,154.17 25,185 26,154.17 27,308.33 28,339.17 29,215.83 30,277.5 31,123.33 32,154.17 33,123.33 34,185 35,185 36,215.83 37,123.33 39,123.33 40,185 41,92.5 42,123.33 43,61.67 44,123.33 45,92.5 46,123.33 47,123.33 48,92.5 49,154.17 50,154.17 51,92.5 52,154.17 53,123.33 54,154.17 55,92.5 62,92.5 63,123.33 64,61.67 65,92.5 66,154.17 67,92.5 68,92.5 69,154.17 70,92.5 71,123.33 72,123.33 73,92.5 74,215.83 75,92.5 76,92.5 77,123.33 78,92.5 79,92.5 80,154.17 81,92.5 82,92.5 83,123.33 84,185 85,123.33 86,92.5 87,123.33 88,92.5 90,92.5 91,123.33 92,92.5 93,154.17 94,123.33 95,92.5 96,123.33 97,92.5 98,61.67 99,92.5 105,92.5 106,246.67 107,123.33 108,92.5 110,92.5 111,339.17 112,185 113,92.5 114,154.17 115,92.5 116,123.33 117,123.33 118,92.5 119,92.5 120,154.17 121,92.5 123,92.5 124,154.17 125,123.33 126,123.33 127,92.5 128,123.33 129,123.33 130,185 131,154.17 132,185 133,339.17 134,92.5 135,185 136,123.33 137,154.17 138,215.83 139,185 140,277.5 140.95,370"><title>LR761639.1</title></polygon><rect class="average" height="1" width="140.95" x="0" y="123.16"><title>average:8.01</title></rect><rect class="median" height="1" width="140.95" x="0" y="123.33"><title>median:8</title></rect><text class="chromName" x="70.47" y="-12">LR761639.1<title>LR761639.1 60,151,564 bp</title></text><rect class="frame" height="370" width="140.95" x="0" y="0"/></g><g id="chrom-LR761640.1" transform="translate(892.7327113317651,0)"><polygon class="cov0" points="0,370 0,154.17 1,92.5 2,185 3,154.17 4,154.17 5,92.5 6,154.17 7,185 8,123.33 9,185 10,123.33 12,123.33 13,277.5 14,154.17 15,92.5 16,215.83 17,123.33 18,92.5 19,185 20,92.5 21,123.33 22,92.5 23,61.67 24,92.5 25,123.33 26,61.67 27,123.33 28,123.33 29,92.5 30,92.5 31,61.67 32,92.5 33,92.5 34,123.33 35,92.5 36,123.33 37,185 38,61.67 39,123.33 40,61.67 41,92.5 42,61.67 43,92.5 44,92.5 45,123.33 46,154.17 47,246.67 48,339.17 49,92.5 50,123.33 51,123.33 52,92.5 53,123.33 54,92.5 56,92.5 57,215.83 58,123.33 59,185 60,277.5 61,123.33 62,123.33 63,154.17 64,92.5 65,277.5 66,123.33 68,123.33 69,185 70,154.17 71,123.33 72,154.17 73,185 74,154.17 75,92.5 76,92.5 77,185 78,92.5 79,154.17 80,61.67 82,61.67 83,92.5 85,92.5 86,308.33 87,123.33 88,123.33 89,154.17 90,123.33 91,277.5 92,277.5 93,185 94,277.5 95,123.33 99,123.33 100,92.5 101,215.83 102,339.17 103,185 104,92.5 106,92.5 107,154.17 108,185 109,92.5 110,154.17 111,185 112,123.33 113,123.33 114,154.17 115,92.5 116,308.33 117,339.17 118,370 119,308.33 120,123.33 121,92.5 123,92.5 124,123.33 125,92.5 127,92.5 128,246.67 129,123.33 130,92.5 131,92.5 132,123.33 133,92.5 134,61.67 135,92.5 137,92.5 138,123.33 139,185 140,123.33 141,92.5 142,154.17 143,215.83 144,123.33 145,92.5 145.53,370"><title>LR761640.1</title></polygon><rect class="average" height="1" width="145.53" x="0" y="123.65"><title>average:7.99</title></rect><rect class="median" height="1" width="145.53" x="0" y="123.33"><title>median:8</title></rect><text class="chromName" x="72.77" y="-12">LR761640.1<title>LR761640.1 62,107,823 bp</title></text><rect class="frame" height="370" width="145.53" x="0" y="0"/></g><g id="chrom-LR761641.1" transform="translate(1039.265271917344,0)"><polygon class="cov1" points="0,370 0,277.5 1,185 2,246.67 3,185 4,123.33 5,185 6,277.5 7,246.67 8,308.33 9,185 10,154.17 11,185 12,246.67 13,92.5 14,185 15,123.33 16,154.17 17,370 18,123.33 20,123.33 21,154.17 22,215.83 23,154.17 24,185 25,154.17 26,246.67 27,215.83 28,246.67 29,308.33 30,246.67 31,185 32,277.5 33,185 34,277.5 35,277.5 36,339.17 37,277.5 39,277.5 40,185 41,246.67 42,277.5 43,339.17 44,246.67 45,215.83 46,246.67 47,277.5 48,215.83 49,123.33 50,185 51,123.33 52,92.5 56,92.5 57,154.17 60,154.17 61,277.5 62,154.17 63,215.83 64,154.17 65,185 66,215.83 67,246.67 68,246.67 69,154.17 70,123.33 71,92.5 72,185 73,339.17 74,215.83 75,308.33 76,215.83 77,215.83 78,154.17 79,215.83 80,246.67 81,370 82,339.17 83,308.33 84,185 85,185 86,246.67 87,92.5 88,215.83 89,154.17 90,246.67 91,277.5 92,123.33 93,246.67 94,308.33 95,215.83 96,154.17 97,277.5 98,123.33 99,370 100,308.33 101,123.33 102,154.17 103,123.33 104,185 105,123.33 106,277.5 107,123.33 108,123.33 109,154.17 110,123.33 111,277.5 112,154.17 113,246.67 114,154.17 115,154.17 116,92.5 117,154.17 118,123.33 119,215.83 120,215.83 121,185 122,185 123,246.67 124,123.33 125,246.67 126,277.5 127,123.33 128,246.67 129,185 130,277.5 131,185 132,370 133,246.67 134,123.33 135,370 136,339.17 136.99,370"><title>LR761641.1</title></polygon><rect class="average" height="1" width="136.99" x="0" y="169.25"><title>average:6.51</title></rect><rect class="median" height="1" width="136.99" x="0" y="215.83"><title>median:5</title></rect><text class="chromName" x="68.5" y="-12">LR761641.1<title>LR761641.1 58,462,999 bp</title></text><rect class="frame" height="370" width="136.99" x="0" y="0"/></g><g id="chrom-LR761642.1" transform="translate(1177.25719230686,0)"><polygon class="cov0" points="0,370 0,339.17 1,339.17 2,308.33 3,308.33 4,339.17 5,370 6,339.17 8,339.17 9,308.33 10,246.67 11,215.83 12,246.67 13,123.33 14,185 15,185 16,308.33 17,246.67 18,246.67 19,215.83 20,246.67 21,154.17 22,308.33 23,277.5 24,154.17 25,123.33 26,185 27,185 28,246.67 29,154.17 30,215.83 31,123.33 32,123.33 33,215.83 34,154.17 35,308.33 36,154.17 37,154.17 38,92.5 39,154.17 40,123.33 41,154.17 42,92.5 43,123.33 44,123.33 45,215.83 46,154.17 47,277.5 48,215.83 49,308.33 50,185 51,215.83 52,215.83 53,92.5 54,123.33 55,215.83 56,185 57,215.83 58,246.67 59,154.17 60,154.17 61,308.33 62,185 63,154.17 64,215.83 65,185 66,154.17 67,308.33 68,246.67 69,154.17 70,123.33 71,277.5 72,154.17 73,185 74,123.33 75,185 76,277.5 77,154.17 78,154.17 79,246.67 80,246.67 81,185 82,308.33 83,246.67 84,308.33 85,185 86,308.33 86.91,370"><title>LR761642.1</title></polygon><rect class="average" height="1" width="86.91" x="0" y="162.72"><title>average:6.72</title></rect><rect class="median" height="1" width="86.91" x="0" y="215.83"><title>median:5</title></rect><text class="chromName" x="43.45" y="-12">LR761642.1<title>LR761642.1 37,089,910 bp</title></text><rect class="frame" height="370" width="86.91" x="0" y="0"/></g><g id="chrom-LR761643.1" transform="translate(1265.1671710093603,0)"><polygon class="cov1" points="0,370 0,277.5 1,246.67 2,154.17 3,92.5 4,123.33 5,185 6,154.17 7,154.17 8,123.33 9,92.5 10,123.33 11,154.17 12,123.33 13,185 14,215.83 15,123.33 16,92.5 17,154.17 19,154.17 20,370 21,154.17 22,92.5 23,92.5 24,185 25,154.17 26,339.17 27,339.17 28,308.33 29,92.5 30,185 31,123.33 32,215.83 33,123.33 34,123.33 35,185 36,246.67 37,92.5 39,92.5 40,123.33 41,123.33 42,154.17 43,277.5 44,123.33 45,154.17 46,123.33 47,215.83 48,154.17 49,123.33 50,185 51,92.5 52,123.33 54,123.33 55,92.5 57,92.5 58,123.33 59,123.33 60,92.5 61,92.5 62,154.17 63,92.5 64,123.33 65,185 66,123.33 69,123.33 70,154.17 71,185 72,185 73,215.83 74,92.5 75,185 76,123.33 77,92.5 78,185 79,277.5 80,92.5 81,61.67 82,123.33 83,123.33 84,92.5 85,92.5 86,123.33 87,92.5 88,154.17 89,277.5 90,154.17 91,92.5 92,92.5 93,123.33 94,92.5 95,123.33 96,92.5 100,92.5 101,215.83 102,123.33 104,123.33 105,92.5 109,92.5 110,61.67 111,92.5 112,92.5 113,215.83 114,123.33 115,92.5 117,92.5 118,123.33 119,123.33 120,92.5 121,61.67 122,92.5 123,92.5 124,123.33 125,92.5 126,92.5 127,185 128,154.17 129,92.5 130,123.33 131,215.83 132,92.5 133,215.83 134,308.33 134.83,370"><title>LR761643.1</title></polygon><rect class="average" height="1" width="134.83" x="0" y="125.2"><title>average:7.94</title></rect><rect class="median" height="1" width="134.83" x="0" y="123.33"><title>median:8</title></rect><text class="chromName" x="67.42" y="-12">LR761643.1<title>LR761643.1 57,541,580 bp</title></text><rect class="frame" height="370" width="134.83" x="0" y="0"/></g><g><line class="ruler" x1="-2" x2="1390" y1="333" y2="333"><title>1</title></line><text class="ruler" x="-5" y="333">1</text><line class="ruler" x1="-2" x2="1390" y1="296" y2="296"><title>2</title></line><text class="ruler" x="-5" y="296">2</text><line class="ruler" x1="-2" x2="1390" y1="259" y2="259"><title>3</title></line><text class="ruler" x="-5" y="259">3</text><line class="ruler" x1="-2" x2="1390" y1="222" y2="222"><title>4</title></line><text class="ruler" x="-5" y="222">4</text><line class="ruler" x1="-2" x2="1390" y1="185" y2="185"><title>6</title></line><text class="ruler" x="-5" y="185">6</text><line class="ruler" x1="-2" x2="1390" y1="148" y2="148"><title>7</title></line><text class="ruler" x="-5" y="148">7</text><line class="ruler" x1="-2" x2="1390" y1="111" y2="111"><title>8</title></line><text class="ruler" x="-5" y="111">8</text><line class="ruler" x1="-2" x2="1390" y1="74" y2="74"><title>9</title></line><text class="ruler" x="-5" y="74">9</text><line class="ruler" x1="-2" x2="1390" y1="37" y2="37"><title>10</title></line><text class="ruler" x="-5" y="37">10</text><line class="ruler" x1="-2" x2="1390" y1="0" y2="0"><title>12</title></line><text class="ruler" x="-5" y="0">12</text></g></g><text class="title" x="795" y="40">F6_M6_14.merged.realigned.bam F6_M6_14 F6_M6_14_1 F6_M6_14_2<title>./F6_M6_14.merged.realigned.bam</title></text><text class="xLabel" x="795" y="475">GCA_902806645.1_cgigas_uk_roslin_v1_genomic.fna  (589,358,857 bp)<title>../ref/GCA_902806645.1_cgigas_uk_roslin_v1_genomic.fna</title></text><text class="yLabel" transform="translate(25,265) rotate(90)" x="0" y="0">Coverage bp (median)</text></g></svg>