<?xml version="1.0" encoding="UTF-8" standalone="no"?><svg height="500" width="1500" xmlns="http://www.w3.org/2000/svg"><title>F6_M4_24.merged.realigned.bam</title><desc>Made with wgscoverageplotter undefined Author: Pierre Lindenbaum</desc><style>g.maing {stroke:black;stroke-width:0.5px;fill:none;}
text.title {stroke:none;fill:black;stroke-width:1px;text-anchor:middle;}
rect.frame {stroke:darkgray;fill:none;stroke-width:0.5px;}
text.ruler {stroke:none;fill:darkgray;stroke-width:1px;text-anchor:end;}
text.chromName {stroke:none;fill:darkgray;stroke-width:1px;text-anchor:middle;}
text.xLabel {stroke:none;fill:black;stroke-width:1px;text-anchor:middle;}
text.yLabel {stroke:none;fill:black;stroke-width:1px;text-anchor:middle;}
.cov0 {stroke:gray;fill:antiquewhite;stroke-width:0.5px;}
.cov1 {stroke:gray;fill:beige;stroke-width:0.5px;}
rect.average {stroke:green;fill:green;stroke-width:0.5px;opacity:0.3;}
rect.median {stroke:red;fill:red;stroke-width:0.5px;opacity:0.3;}
line.ruler {stroke:darkgray;stroke-dasharray:4;fill:none;stroke-width:1;}
</style><g class="maing"><g id="chromosomes" transform="translate(100.0,80.0)"><g id="chrom-LR761634.1" transform="translate(10.0,0)"><polygon class="cov0" points="0,370 0,296 1,129.5 2,166.5 3,277.5 4,203.5 5,185 6,277.5 7,185 8,148 9,129.5 10,148 11,111 12,148 13,203.5 14,277.5 15,148 16,129.5 17,203.5 18,129.5 19,129.5 20,111 21,129.5 22,148 23,166.5 24,148 25,111 26,129.5 28,129.5 29,111 30,129.5 31,129.5 32,259 33,129.5 34,148 35,148 36,111 37,166.5 38,185 39,148 40,129.5 41,111 42,129.5 43,185 44,148 45,185 46,166.5 47,129.5 49,129.5 50,148 51,129.5 52,111 53,148 54,240.5 55,277.5 56,111 57,111 58,129.5 59,148 60,148 61,111 62,148 63,185 64,185 65,166.5 66,148 67,185 68,129.5 69,148 70,111 71,111 72,222 73,166.5 74,148 75,111 76,111 77,148 78,166.5 79,129.5 80,166.5 81,185 82,111 83,148 84,148 85,129.5 86,111 87,185 88,111 89,277.5 90,148 91,129.5 92,129.5 93,166.5 94,92.5 95,129.5 96,111 97,166.5 98,222 99,129.5 100,129.5 101,222 102,148 103,166.5 104,185 105,111 106,203.5 107,185 108,277.5 109,111 110,111 111,148 112,129.5 113,129.5 114,296 115,185 116,111 117,129.5 118,111 119,166.5 120,166.5 121,111 122,129.5 123,129.5 124,148 125,129.5 126,129.5 127,148 128,203.5 129,166.5 130,203.5 130.72,370"><title>LR761634.1</title></polygon><rect class="average" height="1" width="130.72" x="0" y="148.84"><title>average:11.95</title></rect><rect class="median" height="1" width="130.72" x="0" y="148"><title>median:12</title></rect><text class="chromName" x="65.36" y="-12">LR761634.1<title>LR761634.1 55,785,328 bp</title></text><rect class="frame" height="370" width="130.72" x="0" y="0"/></g><g id="chrom-LR761635.1" transform="translate(141.71753661284166,0)"><polygon class="cov1" points="0,370 0,351.5 1,351.5 2,333 3,314.5 4,351.5 5,351.5 6,240.5 7,314.5 8,333 9,203.5 10,166.5 11,277.5 12,129.5 13,129.5 14,166.5 15,314.5 16,333 17,203.5 18,277.5 19,185 20,277.5 21,314.5 22,277.5 23,166.5 24,277.5 25,351.5 26,296 27,314.5 28,277.5 29,351.5 30,333 31,333 32,240.5 33,203.5 35,203.5 36,222 37,314.5 38,314.5 39,166.5 40,185 41,166.5 42,166.5 43,222 44,166.5 45,166.5 46,222 47,111 48,185 49,148 50,185 51,222 52,185 53,277.5 54,296 55,222 56,240.5 57,259 58,185 59,296 60,351.5 61,277.5 62,148 63,277.5 64,240.5 65,259 66,277.5 67,314.5 68,277.5 69,259 70,240.5 71,240.5 72,222 73,240.5 74,240.5 75,222 76,314.5 77,55.5 78,259 79,314.5 80,166.5 81,314.5 82,333 83,277.5 84,314.5 85,277.5 86,351.5 87,370 88,351.5 89,370 90,277.5 91,314.5 92,314.5 93,259 94,277.5 95,277.5 96,351.5 97,314.5 98,333 99,314.5 100,277.5 101,314.5 102,314.5 103,240.5 104,240.5 105,148 106,203.5 107,259 108,203.5 109,185 110,333 111,185 112,351.5 113,333 114,314.5 115,240.5 116,314.5 117,296 118,166.5 119,185 120,129.5 121,185 122,240.5 124,240.5 125,166.5 126,222 127,296 128,222 129,148 130,148 131,314.5 132,203.5 133,240.5 134,314.5 135,259 136,296 137,314.5 138,314.5 139,277.5 140,333 141,314.5 142,296 143,314.5 144,259 145,240.5 146,259 147,129.5 148,166.5 149,129.5 150,222 151,296 152,333 153,203.5 154,259 155,296 156,296 157,259 158,296 159,166.5 160,222 161,240.5 162,296 163,240.5 164,259 165,277.5 166,314.5 167,333 168,296 169,296 170,314.5 171,333 171.58,370"><title>LR761635.1</title></polygon><rect class="average" height="1" width="171.58" x="0" y="201.73"><title>average:9.1</title></rect><rect class="median" height="1" width="171.58" x="0" y="259"><title>median:6</title></rect><text class="chromName" x="85.79" y="-12">LR761635.1<title>LR761635.1 73,222,313 bp</title></text><rect class="frame" height="370" width="171.58" x="0" y="0"/></g><g id="chrom-LR761636.1" transform="translate(314.2938403401308,0)"><polygon class="cov0" points="0,370 0,333 1,166.5 2,240.5 3,277.5 4,240.5 5,148 6,129.5 7,129.5 8,111 9,148 10,129.5 11,129.5 12,148 13,259 14,111 15,148 16,111 17,111 18,185 19,148 20,129.5 22,129.5 23,111 24,222 25,129.5 26,203.5 27,240.5 28,129.5 29,111 30,129.5 31,111 32,92.5 33,111 34,148 35,240.5 36,129.5 37,166.5 38,148 39,129.5 40,185 41,148 42,166.5 43,148 44,129.5 45,148 46,185 47,148 48,203.5 49,148 50,166.5 51,111 52,129.5 53,129.5 54,277.5 55,166.5 56,166.5 57,129.5 58,166.5 59,129.5 60,166.5 61,222 62,166.5 63,148 64,129.5 65,148 67,148 68,166.5 69,148 70,203.5 71,111 72,111 73,166.5 74,148 75,148 76,296 77,222 78,203.5 79,240.5 80,259 81,129.5 82,203.5 83,148 84,111 85,129.5 86,277.5 87,148 88,148 89,203.5 90,148 91,129.5 92,166.5 93,166.5 94,148 95,185 96,185 97,129.5 98,129.5 99,203.5 100,166.5 101,148 102,166.5 103,111 104,129.5 105,148 106,148 107,129.5 110,129.5 111,166.5 113,166.5 114,111 115,111 116,129.5 117,148 118,166.5 119,129.5 120,129.5 121,185 122,111 123,129.5 124,185 125,111 126,129.5 127,185 128,259 129,129.5 130,148 131,129.5 132,166.5 133,166.5 134,129.5 135,148 136,314.5 136.65,370"><title>LR761636.1</title></polygon><rect class="average" height="1" width="136.65" x="0" y="151.16"><title>average:11.83</title></rect><rect class="median" height="1" width="136.65" x="0" y="148"><title>median:12</title></rect><text class="chromName" x="68.33" y="-12">LR761636.1<title>LR761636.1 58,319,100 bp</title></text><rect class="frame" height="370" width="136.65" x="0" y="0"/></g><g id="chrom-LR761637.1" transform="translate(451.9485730949149,0)"><polygon class="cov1" points="0,370 0,222 1,203.5 2,203.5 3,185 4,185 5,148 6,166.5 7,222 8,148 9,203.5 10,351.5 11,185 12,185 13,222 14,333 15,203.5 16,222 17,92.5 18,185 19,185 20,166.5 21,148 22,148 23,185 24,296 25,111 26,129.5 27,222 28,203.5 29,203.5 30,259 31,148 33,148 34,111 35,166.5 36,314.5 37,277.5 38,148 39,148 40,129.5 41,148 42,148 43,277.5 44,314.5 45,166.5 46,129.5 47,148 48,111 49,129.5 50,166.5 51,129.5 52,92.5 53,148 54,92.5 55,111 56,111 57,222 58,296 59,259 60,240.5 61,203.5 62,129.5 63,148 64,129.5 65,148 67,148 68,185 69,129.5 70,148 71,148 72,185 73,129.5 74,185 75,148 76,129.5 77,166.5 78,166.5 79,148 80,166.5 81,148 82,129.5 83,148 84,148 85,129.5 86,222 87,166.5 88,129.5 89,129.5 90,111 91,129.5 92,129.5 93,166.5 94,185 95,222 96,185 97,148 98,111 99,129.5 100,185 101,203.5 102,185 103,222 104,203.5 105,240.5 106,111 108,111 109,129.5 110,111 111,185 112,148 113,111 114,277.5 115,222 116,185 117,166.5 118,148 119,333 120,185 121,129.5 122,333 123,333 124,314.5 124.49,370"><title>LR761637.1</title></polygon><rect class="average" height="1" width="124.49" x="0" y="159.76"><title>average:11.36</title></rect><rect class="median" height="1" width="124.49" x="0" y="166.5"><title>median:11</title></rect><text class="chromName" x="62.25" y="-12">LR761637.1<title>LR761637.1 53,127,865 bp</title></text><rect class="frame" height="370" width="124.49" x="0" y="0"/></g><g id="chrom-LR761638.1" transform="translate(577.4390778079033,0)"><polygon class="cov0" points="0,370 0,259 1,185 2,314.5 3,148 4,240.5 5,148 6,185 7,203.5 8,203.5 9,129.5 10,185 11,314.5 12,129.5 13,166.5 14,111 15,166.5 16,148 17,129.5 18,240.5 19,351.5 20,129.5 21,222 22,129.5 23,129.5 24,111 25,166.5 26,351.5 27,129.5 28,185 29,314.5 30,240.5 31,148 32,370 33,351.5 34,203.5 35,222 36,148 37,333 38,314.5 39,333 40,351.5 41,314.5 42,240.5 43,129.5 44,148 45,296 46,129.5 47,111 48,129.5 49,203.5 50,370 51,240.5 52,203.5 53,166.5 54,259 55,259 56,148 57,185 58,148 59,185 60,166.5 61,240.5 62,166.5 63,222 64,277.5 65,333 66,203.5 67,203.5 68,166.5 69,203.5 70,129.5 71,240.5 72,333 73,296 74,259 75,333 76,222 77,166.5 78,370 79,296 80,277.5 81,203.5 82,296 83,277.5 84,222 85,166.5 86,129.5 87,166.5 88,314.5 89,129.5 90,296 91,148 92,92.5 93,92.5 94,111 95,203.5 96,277.5 97,166.5 98,222 99,185 100,148 101,129.5 102,203.5 103,148 104,166.5 105,203.5 106,277.5 107,148 109,148 110,185 111,185 112,259 113,240.5 114,203.5 115,277.5 116,296 117,333 118,351.5 119,314.5 120,333 121,351.5 122,351.5 123,370 124,277.5 125,314.5 126,333 127,240.5 128,240.5 129,185 130,222 131,222 132,314.5 133,296 134,222 135,277.5 136,166.5 137,370 138,351.5 139,259 140,296 141,333 142,314.5 143,259 144,148 145,203.5 146,185 147,148 148,148 149,166.5 150,203.5 151,314.5 152,185 153,148 154,277.5 155,296 156,203.5 157,240.5 158,333 159,277.5 160,296 161,277.5 162,277.5 163,333 164,351.5 166,351.5 167,370 168,351.5 169,203.5 170,240.5 172,240.5 172.35,370"><title>LR761638.1</title></polygon><rect class="average" height="1" width="172.35" x="0" y="198.07"><title>average:9.29</title></rect><rect class="median" height="1" width="172.35" x="0" y="240.5"><title>median:7</title></rect><text class="chromName" x="86.17" y="-12">LR761638.1<title>LR761638.1 73,550,375 bp</title></text><rect class="frame" height="370" width="172.35" x="0" y="0"/></g><g id="chrom-LR761639.1" transform="translate(750.784104388203,0)"><polygon class="cov1" points="0,370 0,351.5 1,148 2,129.5 3,259 4,148 5,259 6,351.5 7,203.5 8,148 9,129.5 10,129.5 11,277.5 12,314.5 13,129.5 14,148 15,129.5 18,129.5 19,111 20,111 21,129.5 22,166.5 23,166.5 24,185 25,203.5 26,185 27,314.5 28,351.5 29,222 30,314.5 31,129.5 32,148 33,129.5 34,203.5 36,203.5 37,129.5 38,148 39,148 40,222 41,129.5 42,148 43,111 44,148 45,129.5 46,166.5 47,148 48,129.5 49,148 50,148 51,129.5 52,166.5 53,148 54,166.5 55,129.5 56,129.5 57,148 58,148 59,129.5 62,129.5 63,148 64,111 65,129.5 66,166.5 67,129.5 68,129.5 69,166.5 70,129.5 73,129.5 74,203.5 75,129.5 76,129.5 77,148 78,129.5 79,129.5 80,185 81,129.5 82,129.5 83,148 84,203.5 85,148 86,129.5 87,148 88,129.5 89,129.5 90,111 91,148 92,148 93,166.5 94,166.5 95,148 96,148 97,129.5 98,111 99,129.5 100,129.5 101,111 102,129.5 103,148 104,111 105,111 106,240.5 107,148 108,129.5 110,129.5 111,314.5 112,185 113,111 114,185 115,111 116,166.5 117,129.5 119,129.5 120,166.5 121,129.5 123,129.5 124,166.5 125,129.5 127,129.5 128,148 129,129.5 130,185 131,148 132,185 133,351.5 134,129.5 135,185 136,148 137,148 138,166.5 139,166.5 140,259 140.95,370"><title>LR761639.1</title></polygon><rect class="average" height="1" width="140.95" x="0" y="152.71"><title>average:11.75</title></rect><rect class="median" height="1" width="140.95" x="0" y="148"><title>median:12</title></rect><text class="chromName" x="70.47" y="-12">LR761639.1<title>LR761639.1 60,151,564 bp</title></text><rect class="frame" height="370" width="140.95" x="0" y="0"/></g><g id="chrom-LR761640.1" transform="translate(892.7327113317651,0)"><polygon class="cov0" points="0,370 0,185 1,111 2,185 3,166.5 4,185 5,111 6,185 7,185 8,148 9,185 10,129.5 12,129.5 13,259 14,166.5 15,148 16,222 17,129.5 18,129.5 19,203.5 20,111 21,129.5 22,129.5 23,111 24,129.5 25,148 26,111 27,129.5 28,148 29,129.5 30,129.5 31,92.5 32,129.5 33,111 34,148 35,129.5 36,129.5 37,203.5 38,111 39,148 40,111 41,111 42,92.5 43,111 44,129.5 45,148 46,148 47,222 48,333 49,129.5 50,166.5 51,148 52,111 53,148 54,111 55,111 56,129.5 57,185 58,148 59,185 60,259 61,129.5 62,166.5 63,166.5 64,129.5 65,277.5 66,129.5 67,148 68,148 69,203.5 70,166.5 71,148 72,148 73,185 74,166.5 75,129.5 76,129.5 77,222 78,129.5 79,185 80,92.5 81,92.5 82,111 83,129.5 84,129.5 85,111 86,314.5 87,148 88,166.5 89,166.5 90,148 91,333 92,314.5 93,185 94,296 95,148 96,148 97,129.5 98,148 99,148 100,111 101,222 102,351.5 103,222 104,129.5 106,129.5 107,166.5 108,203.5 109,129.5 110,166.5 111,203.5 112,166.5 113,148 114,166.5 115,129.5 116,333 117,351.5 118,351.5 119,314.5 120,148 121,129.5 123,129.5 124,148 125,129.5 127,129.5 128,277.5 129,148 130,129.5 131,111 132,148 133,129.5 134,111 135,111 136,129.5 137,148 138,148 139,185 140,129.5 141,129.5 142,166.5 143,222 144,148 145,129.5 145.53,370"><title>LR761640.1</title></polygon><rect class="average" height="1" width="145.53" x="0" y="153.87"><title>average:11.68</title></rect><rect class="median" height="1" width="145.53" x="0" y="148"><title>median:12</title></rect><text class="chromName" x="72.77" y="-12">LR761640.1<title>LR761640.1 62,107,823 bp</title></text><rect class="frame" height="370" width="145.53" x="0" y="0"/></g><g id="chrom-LR761641.1" transform="translate(1039.265271917344,0)"><polygon class="cov1" points="0,370 0,296 1,222 2,277.5 3,185 4,129.5 5,240.5 6,296 7,277.5 8,333 9,185 10,166.5 11,185 12,240.5 13,111 14,185 15,148 16,166.5 17,351.5 18,129.5 19,129.5 20,148 21,148 22,222 23,166.5 24,185 25,166.5 26,240.5 27,203.5 28,259 29,333 30,240.5 31,203.5 32,259 33,203.5 34,277.5 35,296 36,351.5 37,333 38,277.5 39,277.5 40,185 41,259 42,333 43,333 44,240.5 46,240.5 47,296 48,203.5 49,129.5 50,185 51,148 52,111 53,111 54,129.5 55,111 56,111 57,148 58,185 59,148 60,148 61,222 62,148 63,203.5 64,166.5 65,203.5 66,222 67,240.5 68,240.5 69,148 70,185 71,111 72,185 73,333 74,203.5 75,296 76,203.5 77,203.5 78,166.5 79,185 80,240.5 81,351.5 82,351.5 83,314.5 84,185 85,203.5 86,277.5 87,129.5 88,222 89,185 90,240.5 91,240.5 92,129.5 93,240.5 94,333 95,240.5 96,166.5 97,296 98,129.5 99,370 100,296 101,129.5 102,166.5 103,129.5 104,185 105,129.5 106,277.5 107,129.5 108,148 109,148 110,129.5 111,296 112,129.5 113,259 114,148 115,148 116,111 117,166.5 118,129.5 119,203.5 120,240.5 121,166.5 122,185 123,240.5 124,148 125,222 126,259 127,129.5 128,240.5 129,185 130,277.5 131,203.5 132,370 133,277.5 134,129.5 135,351.5 136,370 136.99,370"><title>LR761641.1</title></polygon><rect class="average" height="1" width="136.99" x="0" y="182.43"><title>average:10.14</title></rect><rect class="median" height="1" width="136.99" x="0" y="203.5"><title>median:9</title></rect><text class="chromName" x="68.5" y="-12">LR761641.1<title>LR761641.1 58,462,999 bp</title></text><rect class="frame" height="370" width="136.99" x="0" y="0"/></g><g id="chrom-LR761642.1" transform="translate(1177.25719230686,0)"><polygon class="cov0" points="0,370 0,314.5 1,314.5 2,277.5 3,296 4,333 5,351.5 6,333 7,333 8,351.5 9,314.5 10,277.5 11,259 12,259 13,129.5 14,185 15,185 16,314.5 17,240.5 18,240.5 19,222 20,222 21,148 22,296 23,296 24,166.5 25,129.5 26,185 27,185 28,259 29,148 30,222 31,148 32,148 33,203.5 34,148 35,314.5 36,148 37,148 38,129.5 39,166.5 40,148 41,166.5 42,111 43,129.5 44,129.5 45,203.5 46,148 47,259 48,259 49,296 50,185 51,203.5 52,203.5 53,111 54,129.5 55,222 56,185 57,203.5 58,277.5 59,166.5 60,148 61,333 62,203.5 63,148 64,203.5 65,185 66,148 67,314.5 68,259 69,148 70,129.5 71,259 72,148 73,203.5 74,129.5 75,185 76,277.5 77,148 78,148 79,240.5 80,222 81,185 82,314.5 83,259 84,296 85,148 86,333 86.91,370"><title>LR761642.1</title></polygon><rect class="average" height="1" width="86.91" x="0" y="173.48"><title>average:10.62</title></rect><rect class="median" height="1" width="86.91" x="0" y="222"><title>median:8</title></rect><text class="chromName" x="43.45" y="-12">LR761642.1<title>LR761642.1 37,089,910 bp</title></text><rect class="frame" height="370" width="86.91" x="0" y="0"/></g><g id="chrom-LR761643.1" transform="translate(1265.1671710093603,0)"><polygon class="cov1" points="0,370 0,259 1,240.5 2,148 3,129.5 4,148 5,185 6,166.5 7,166.5 8,129.5 10,129.5 11,166.5 12,129.5 13,203.5 14,240.5 15,148 16,129.5 17,148 18,166.5 19,185 20,370 21,166.5 22,129.5 23,129.5 24,203.5 25,166.5 26,370 27,333 28,351.5 29,129.5 30,185 31,166.5 32,240.5 33,148 34,129.5 35,185 36,259 37,129.5 38,148 39,111 40,148 41,148 42,166.5 43,296 44,148 45,185 46,148 47,203.5 48,166.5 49,148 50,203.5 51,129.5 52,129.5 53,166.5 54,166.5 55,129.5 59,129.5 60,111 61,129.5 62,166.5 63,148 64,148 65,203.5 66,166.5 67,148 69,148 70,166.5 71,203.5 73,203.5 74,129.5 75,203.5 76,148 77,129.5 78,185 79,259 80,148 81,129.5 82,148 83,148 84,129.5 85,129.5 86,148 87,129.5 88,166.5 89,296 90,185 91,129.5 92,129.5 93,166.5 94,129.5 95,166.5 96,111 97,129.5 98,129.5 99,111 100,129.5 101,240.5 102,148 105,148 106,129.5 107,129.5 108,148 109,129.5 112,129.5 113,240.5 114,148 115,129.5 116,111 117,111 118,148 119,166.5 120,129.5 121,111 122,129.5 123,111 124,129.5 126,129.5 127,203.5 128,166.5 129,129.5 130,148 131,240.5 132,129.5 133,222 134,314.5 134.83,370"><title>LR761643.1</title></polygon><rect class="average" height="1" width="134.83" x="0" y="157.77"><title>average:11.47</title></rect><rect class="median" height="1" width="134.83" x="0" y="148"><title>median:12</title></rect><text class="chromName" x="67.42" y="-12">LR761643.1<title>LR761643.1 57,541,580 bp</title></text><rect class="frame" height="370" width="134.83" x="0" y="0"/></g><g><line class="ruler" x1="-2" x2="1390" y1="333" y2="333"><title>2</title></line><text class="ruler" x="-5" y="333">2</text><line class="ruler" x1="-2" x2="1390" y1="296" y2="296"><title>4</title></line><text class="ruler" x="-5" y="296">4</text><line class="ruler" x1="-2" x2="1390" y1="259" y2="259"><title>6</title></line><text class="ruler" x="-5" y="259">6</text><line class="ruler" x1="-2" x2="1390" y1="222" y2="222"><title>8</title></line><text class="ruler" x="-5" y="222">8</text><line class="ruler" x1="-2" x2="1390" y1="185" y2="185"><title>10</title></line><text class="ruler" x="-5" y="185">10</text><line class="ruler" x1="-2" x2="1390" y1="148" y2="148"><title>12</title></line><text class="ruler" x="-5" y="148">12</text><line class="ruler" x1="-2" x2="1390" y1="111" y2="111"><title>14</title></line><text class="ruler" x="-5" y="111">14</text><line class="ruler" x1="-2" x2="1390" y1="74" y2="74"><title>16</title></line><text class="ruler" x="-5" y="74">16</text><line class="ruler" x1="-2" x2="1390" y1="37" y2="37"><title>18</title></line><text class="ruler" x="-5" y="37">18</text><line class="ruler" x1="-2" x2="1390" y1="0" y2="0"><title>20</title></line><text class="ruler" x="-5" y="0">20</text></g></g><text class="title" x="795" y="40">F6_M4_24.merged.realigned.bam F6_M4_24 F6_M4_24_1 F6_M4_24_2<title>./F6_M4_24.merged.realigned.bam</title></text><text class="xLabel" x="795" y="475">GCA_902806645.1_cgigas_uk_roslin_v1_genomic.fna  (589,358,857 bp)<title>../ref/GCA_902806645.1_cgigas_uk_roslin_v1_genomic.fna</title></text><text class="yLabel" transform="translate(25,265) rotate(90)" x="0" y="0">Coverage bp (median)</text></g></svg>