<?xml version="1.0" encoding="UTF-8" standalone="no"?><svg height="500" width="1500" xmlns="http://www.w3.org/2000/svg"><title>F6_M4_14.merged.realigned.bam</title><desc>Made with wgscoverageplotter undefined Author: Pierre Lindenbaum</desc><style>g.maing {stroke:black;stroke-width:0.5px;fill:none;}
text.title {stroke:none;fill:black;stroke-width:1px;text-anchor:middle;}
rect.frame {stroke:darkgray;fill:none;stroke-width:0.5px;}
text.ruler {stroke:none;fill:darkgray;stroke-width:1px;text-anchor:end;}
text.chromName {stroke:none;fill:darkgray;stroke-width:1px;text-anchor:middle;}
text.xLabel {stroke:none;fill:black;stroke-width:1px;text-anchor:middle;}
text.yLabel {stroke:none;fill:black;stroke-width:1px;text-anchor:middle;}
.cov0 {stroke:gray;fill:antiquewhite;stroke-width:0.5px;}
.cov1 {stroke:gray;fill:beige;stroke-width:0.5px;}
rect.average {stroke:green;fill:green;stroke-width:0.5px;opacity:0.3;}
rect.median {stroke:red;fill:red;stroke-width:0.5px;opacity:0.3;}
line.ruler {stroke:darkgray;stroke-dasharray:4;fill:none;stroke-width:1;}
</style><g class="maing"><g id="chromosomes" transform="translate(100.0,80.0)"><g id="chrom-LR761634.1" transform="translate(10.0,0)"><polygon class="cov0" points="0,370 0,277.5 1,129.5 2,185 3,296 4,203.5 5,185 6,277.5 7,185 8,166.5 9,148 10,166.5 11,129.5 12,166.5 13,203.5 14,277.5 15,148 16,129.5 17,203.5 18,148 19,148 20,129.5 21,148 22,166.5 24,166.5 25,129.5 27,129.5 28,148 29,129.5 30,148 31,148 32,259 33,129.5 34,148 35,166.5 36,129.5 37,185 38,203.5 39,166.5 40,148 41,129.5 42,148 43,185 44,166.5 45,203.5 46,185 47,148 49,148 50,166.5 51,148 52,129.5 53,148 54,222 55,259 56,129.5 57,111 58,148 59,166.5 60,148 61,129.5 62,166.5 63,185 64,203.5 65,166.5 66,166.5 67,203.5 68,148 69,185 70,129.5 71,129.5 72,222 73,185 74,148 75,129.5 76,129.5 77,166.5 78,185 79,148 80,185 81,203.5 82,129.5 83,148 84,166.5 85,148 86,129.5 87,203.5 88,129.5 89,277.5 90,166.5 91,148 92,129.5 93,166.5 94,111 95,129.5 96,129.5 97,185 98,240.5 99,148 100,148 101,222 102,166.5 103,185 104,185 105,129.5 106,222 107,185 108,277.5 109,129.5 110,129.5 111,148 112,129.5 113,148 114,296 115,203.5 116,111 117,129.5 118,129.5 119,166.5 120,185 121,129.5 122,148 123,129.5 124,148 126,148 127,166.5 128,203.5 129,185 130,222 130.72,370"><title>LR761634.1</title></polygon><rect class="average" height="1" width="130.72" x="0" y="159.11"><title>average:11.4</title></rect><rect class="median" height="1" width="130.72" x="0" y="166.5"><title>median:11</title></rect><text class="chromName" x="65.36" y="-12">LR761634.1<title>LR761634.1 55,785,328 bp</title></text><rect class="frame" height="370" width="130.72" x="0" y="0"/></g><g id="chrom-LR761635.1" transform="translate(141.71753661284166,0)"><polygon class="cov1" points="0,370 0,351.5 1,351.5 2,333 3,314.5 4,351.5 5,333 6,240.5 7,314.5 8,333 9,222 10,166.5 11,277.5 12,148 13,129.5 14,185 15,314.5 16,333 17,203.5 18,277.5 19,185 20,277.5 21,296 22,277.5 23,185 24,277.5 25,351.5 26,314.5 27,314.5 28,259 29,333 30,333 31,314.5 32,240.5 33,222 34,203.5 35,222 36,240.5 37,314.5 38,314.5 39,166.5 40,203.5 41,185 42,166.5 43,240.5 44,166.5 45,185 46,222 47,129.5 48,222 49,166.5 50,203.5 51,240.5 52,203.5 53,277.5 54,277.5 55,240.5 56,259 57,259 58,185 59,296 60,351.5 61,277.5 62,166.5 63,277.5 64,259 65,277.5 66,277.5 67,314.5 68,277.5 69,277.5 70,259 71,240.5 72,222 73,240.5 74,240.5 75,222 76,314.5 77,74 78,259 79,314.5 80,185 81,296 82,333 83,259 84,333 85,296 86,351.5 87,370 88,351.5 89,370 90,277.5 91,314.5 92,314.5 93,277.5 95,277.5 96,351.5 97,314.5 99,314.5 100,296 101,314.5 102,314.5 103,240.5 104,240.5 105,166.5 106,222 107,259 108,203.5 109,185 110,333 111,203.5 112,351.5 113,333 114,296 115,259 116,314.5 117,296 118,185 119,185 120,148 121,185 122,240.5 124,240.5 125,166.5 126,222 127,277.5 128,222 129,166.5 130,166.5 131,314.5 132,203.5 133,259 134,314.5 135,259 136,296 137,296 138,314.5 139,259 140,333 141,296 143,296 144,277.5 145,240.5 146,259 147,129.5 148,185 149,148 150,240.5 151,296 152,333 153,222 154,259 155,296 156,296 157,259 158,277.5 159,166.5 160,240.5 161,240.5 162,296 163,259 164,259 165,277.5 166,314.5 167,333 168,296 169,296 170,314.5 171,333 171.58,370"><title>LR761635.1</title></polygon><rect class="average" height="1" width="171.58" x="0" y="209.59"><title>average:8.67</title></rect><rect class="median" height="1" width="171.58" x="0" y="259"><title>median:6</title></rect><text class="chromName" x="85.79" y="-12">LR761635.1<title>LR761635.1 73,222,313 bp</title></text><rect class="frame" height="370" width="171.58" x="0" y="0"/></g><g id="chrom-LR761636.1" transform="translate(314.2938403401308,0)"><polygon class="cov0" points="0,370 0,333 1,166.5 2,240.5 3,277.5 4,240.5 5,148 7,148 8,129.5 9,148 10,129.5 11,148 12,148 13,277.5 14,129.5 15,148 16,129.5 17,129.5 18,185 19,166.5 20,148 22,148 23,129.5 24,222 25,148 26,222 27,240.5 28,129.5 29,129.5 30,148 31,129.5 32,111 33,129.5 34,148 35,222 36,148 37,185 38,148 39,148 40,185 41,166.5 42,166.5 43,148 44,148 45,166.5 46,185 47,148 48,222 49,166.5 50,185 51,129.5 52,148 53,148 54,277.5 55,185 56,166.5 57,148 58,185 59,148 60,185 61,222 62,185 63,166.5 64,148 65,166.5 67,166.5 68,185 69,166.5 70,203.5 71,111 72,129.5 73,166.5 75,166.5 76,314.5 77,222 78,222 79,240.5 80,259 81,148 82,203.5 83,166.5 84,129.5 85,148 86,296 87,166.5 88,148 89,222 90,148 91,129.5 92,185 93,166.5 94,148 95,185 96,203.5 97,148 98,148 99,222 100,166.5 101,148 102,166.5 103,129.5 104,148 107,148 108,129.5 110,129.5 111,185 112,166.5 113,185 114,129.5 115,129.5 116,148 117,148 118,185 119,148 120,148 121,203.5 122,129.5 123,129.5 124,185 125,129.5 126,129.5 127,203.5 128,259 129,129.5 130,148 131,129.5 132,166.5 133,166.5 134,129.5 135,148 136,314.5 136.65,370"><title>LR761636.1</title></polygon><rect class="average" height="1" width="136.65" x="0" y="161.67"><title>average:11.26</title></rect><rect class="median" height="1" width="136.65" x="0" y="166.5"><title>median:11</title></rect><text class="chromName" x="68.33" y="-12">LR761636.1<title>LR761636.1 58,319,100 bp</title></text><rect class="frame" height="370" width="136.65" x="0" y="0"/></g><g id="chrom-LR761637.1" transform="translate(451.9485730949149,0)"><polygon class="cov1" points="0,370 0,222 1,222 2,203.5 3,203.5 4,185 5,148 6,166.5 7,222 8,166.5 9,222 10,351.5 11,185 12,185 13,222 14,333 15,203.5 16,240.5 17,92.5 18,185 19,203.5 20,185 21,166.5 22,166.5 23,185 24,296 25,148 26,148 27,222 28,222 29,203.5 30,259 31,166.5 33,166.5 34,111 35,185 36,314.5 37,259 38,166.5 39,166.5 40,148 41,185 42,166.5 43,277.5 44,314.5 45,185 46,148 47,148 48,129.5 49,148 50,185 51,129.5 52,111 53,166.5 54,111 55,148 56,129.5 57,222 58,296 59,277.5 60,259 61,222 62,129.5 63,148 64,129.5 65,166.5 67,166.5 68,185 69,129.5 70,166.5 71,148 72,203.5 73,148 74,185 75,166.5 76,148 77,166.5 78,185 79,166.5 80,185 81,166.5 82,129.5 83,148 84,166.5 85,129.5 86,222 87,166.5 88,148 89,148 90,129.5 91,148 92,129.5 93,185 94,185 95,222 96,185 97,148 98,129.5 99,129.5 100,203.5 101,222 102,222 103,240.5 104,222 105,240.5 106,129.5 107,111 108,129.5 109,129.5 110,111 111,185 112,166.5 113,129.5 114,277.5 115,222 116,185 117,185 118,148 119,314.5 120,185 121,129.5 122,333 123,333 124,314.5 124.49,370"><title>LR761637.1</title></polygon><rect class="average" height="1" width="124.49" x="0" y="171.49"><title>average:10.73</title></rect><rect class="median" height="1" width="124.49" x="0" y="185"><title>median:10</title></rect><text class="chromName" x="62.25" y="-12">LR761637.1<title>LR761637.1 53,127,865 bp</title></text><rect class="frame" height="370" width="124.49" x="0" y="0"/></g><g id="chrom-LR761638.1" transform="translate(577.4390778079033,0)"><polygon class="cov0" points="0,370 0,259 1,203.5 2,314.5 3,148 4,240.5 5,166.5 6,203.5 8,203.5 9,129.5 10,185 11,314.5 12,148 13,185 14,129.5 15,166.5 16,148 17,148 18,240.5 19,333 20,148 21,240.5 22,148 23,148 24,129.5 25,166.5 26,351.5 27,129.5 28,203.5 29,314.5 30,240.5 31,166.5 32,370 33,351.5 34,222 35,240.5 36,166.5 37,333 38,314.5 39,333 40,351.5 41,314.5 42,240.5 43,129.5 44,166.5 45,296 46,166.5 47,129.5 48,148 49,203.5 50,370 51,259 52,203.5 53,185 54,259 55,259 56,148 57,203.5 58,166.5 59,185 60,166.5 61,240.5 62,166.5 63,259 64,296 65,333 66,222 67,203.5 68,166.5 69,222 70,148 71,259 72,333 73,296 74,277.5 75,333 76,259 77,185 78,370 79,296 80,277.5 81,203.5 82,296 83,277.5 84,259 85,203.5 86,148 87,185 88,314.5 89,148 90,296 91,166.5 92,111 93,129.5 94,129.5 95,222 96,277.5 97,185 98,259 99,185 100,166.5 101,166.5 102,222 103,166.5 104,185 105,222 106,259 107,148 108,166.5 109,166.5 110,203.5 111,203.5 112,277.5 113,240.5 114,222 115,277.5 116,314.5 117,333 118,333 119,296 120,314.5 121,351.5 122,351.5 123,370 124,296 125,314.5 126,333 127,259 128,259 129,203.5 130,240.5 131,240.5 132,296 133,296 134,240.5 135,277.5 136,166.5 137,370 138,351.5 139,259 140,314.5 141,333 142,333 143,259 144,166.5 145,203.5 146,203.5 147,148 148,148 149,185 150,203.5 151,314.5 152,203.5 153,166.5 154,277.5 155,296 156,203.5 157,240.5 158,333 159,296 161,296 162,277.5 163,333 164,351.5 166,351.5 167,370 168,351.5 169,222 170,259 171,277.5 172,259 172.35,370"><title>LR761638.1</title></polygon><rect class="average" height="1" width="172.35" x="0" y="208.27"><title>average:8.74</title></rect><rect class="median" height="1" width="172.35" x="0" y="240.5"><title>median:7</title></rect><text class="chromName" x="86.17" y="-12">LR761638.1<title>LR761638.1 73,550,375 bp</title></text><rect class="frame" height="370" width="172.35" x="0" y="0"/></g><g id="chrom-LR761639.1" transform="translate(750.784104388203,0)"><polygon class="cov1" points="0,370 0,333 1,166.5 2,129.5 3,259 4,166.5 5,240.5 6,351.5 7,203.5 8,166.5 9,129.5 10,148 11,259 12,296 13,148 14,166.5 15,129.5 16,148 17,129.5 18,148 19,129.5 20,129.5 21,148 22,166.5 23,185 24,185 25,203.5 26,185 27,314.5 28,351.5 29,240.5 30,314.5 31,148 32,166.5 33,148 34,222 35,203.5 36,222 37,148 38,166.5 39,148 40,222 41,148 42,148 43,129.5 44,166.5 45,129.5 46,166.5 47,148 48,148 49,166.5 50,166.5 51,148 52,185 53,166.5 54,166.5 55,148 56,129.5 57,148 58,148 59,129.5 60,148 61,129.5 62,148 63,166.5 64,129.5 65,129.5 66,185 67,148 68,148 69,185 70,148 73,148 74,222 75,148 76,148 77,166.5 78,129.5 79,148 80,185 81,148 83,148 84,203.5 85,148 86,129.5 87,148 88,129.5 89,148 90,129.5 91,166.5 92,148 93,185 94,166.5 95,148 96,148 97,129.5 98,129.5 99,148 100,148 101,129.5 102,129.5 103,148 104,129.5 105,129.5 106,240.5 107,148 108,129.5 109,148 110,129.5 111,296 112,185 113,129.5 114,185 115,129.5 116,166.5 117,148 118,148 119,129.5 120,166.5 121,148 123,148 124,185 125,148 126,129.5 127,148 128,166.5 129,148 130,185 131,148 132,185 133,351.5 134,129.5 135,203.5 136,148 137,148 138,185 139,166.5 140,222 140.95,370"><title>LR761639.1</title></polygon><rect class="average" height="1" width="140.95" x="0" y="161.66"><title>average:11.26</title></rect><rect class="median" height="1" width="140.95" x="0" y="166.5"><title>median:11</title></rect><text class="chromName" x="70.47" y="-12">LR761639.1<title>LR761639.1 60,151,564 bp</title></text><rect class="frame" height="370" width="140.95" x="0" y="0"/></g><g id="chrom-LR761640.1" transform="translate(892.7327113317651,0)"><polygon class="cov0" points="0,370 0,185 1,129.5 2,185 4,185 5,129.5 6,185 7,203.5 8,148 9,203.5 10,148 12,148 13,259 14,185 15,148 16,222 17,148 18,129.5 19,203.5 20,129.5 21,148 22,129.5 23,129.5 24,148 25,166.5 26,129.5 27,148 28,166.5 29,148 30,148 31,111 32,148 33,129.5 34,166.5 35,148 36,148 37,203.5 38,129.5 39,166.5 40,129.5 41,129.5 42,111 43,129.5 44,148 45,148 46,166.5 47,240.5 48,333 49,129.5 50,166.5 51,148 52,129.5 53,166.5 54,129.5 56,129.5 57,185 58,166.5 59,185 60,259 61,148 62,166.5 63,185 64,148 65,277.5 66,148 67,166.5 68,166.5 69,203.5 70,185 71,148 72,166.5 73,203.5 74,185 75,148 76,148 77,222 78,148 79,185 80,111 81,111 82,129.5 83,148 84,148 85,129.5 86,314.5 87,166.5 88,166.5 89,185 90,166.5 91,333 92,296 93,185 94,296 95,166.5 96,166.5 97,148 98,166.5 99,148 100,129.5 101,222 102,333 103,222 104,148 105,148 106,129.5 107,185 108,203.5 109,148 110,185 111,203.5 112,166.5 113,148 114,185 115,148 116,333 117,351.5 118,351.5 119,314.5 120,148 121,129.5 122,148 124,148 125,129.5 126,148 127,148 128,277.5 129,148 130,129.5 131,129.5 132,148 133,148 134,129.5 135,129.5 136,148 138,148 139,185 140,148 141,129.5 142,166.5 143,222 144,148 145,129.5 145.53,370"><title>LR761640.1</title></polygon><rect class="average" height="1" width="145.53" x="0" y="164.42"><title>average:11.11</title></rect><rect class="median" height="1" width="145.53" x="0" y="166.5"><title>median:11</title></rect><text class="chromName" x="72.77" y="-12">LR761640.1<title>LR761640.1 62,107,823 bp</title></text><rect class="frame" height="370" width="145.53" x="0" y="0"/></g><g id="chrom-LR761641.1" transform="translate(1039.265271917344,0)"><polygon class="cov1" points="0,370 0,296 1,203.5 2,277.5 3,185 4,129.5 5,222 6,277.5 7,277.5 8,314.5 9,185 10,166.5 11,185 12,240.5 13,111 14,185 15,166.5 16,166.5 17,351.5 18,148 21,148 22,222 23,166.5 24,185 25,166.5 26,240.5 27,203.5 28,277.5 29,333 30,240.5 31,222 32,277.5 33,203.5 34,296 35,296 36,351.5 37,314.5 38,259 39,277.5 40,203.5 41,277.5 42,333 43,333 44,240.5 45,240.5 46,259 47,296 48,222 49,148 50,185 51,148 52,129.5 54,129.5 55,111 56,129.5 57,166.5 58,203.5 59,166.5 60,148 61,222 62,166.5 63,203.5 64,185 65,203.5 66,222 67,240.5 68,259 69,148 70,203.5 71,129.5 72,203.5 73,314.5 74,222 75,296 76,203.5 77,222 78,166.5 79,203.5 80,259 81,351.5 82,351.5 83,314.5 84,203.5 85,203.5 86,277.5 87,129.5 88,240.5 89,185 90,259 91,240.5 92,148 93,240.5 94,333 95,259 96,185 97,314.5 98,129.5 99,370 100,296 101,148 102,185 103,129.5 104,203.5 105,148 106,259 107,148 110,148 111,296 112,148 113,259 114,166.5 115,166.5 116,129.5 117,166.5 118,148 119,222 120,240.5 121,166.5 122,185 123,240.5 124,148 125,240.5 126,259 127,129.5 128,240.5 129,185 130,277.5 131,203.5 132,370 133,277.5 134,129.5 135,370 136,370 136.99,370"><title>LR761641.1</title></polygon><rect class="average" height="1" width="136.99" x="0" y="191.02"><title>average:9.67</title></rect><rect class="median" height="1" width="136.99" x="0" y="222"><title>median:8</title></rect><text class="chromName" x="68.5" y="-12">LR761641.1<title>LR761641.1 58,462,999 bp</title></text><rect class="frame" height="370" width="136.99" x="0" y="0"/></g><g id="chrom-LR761642.1" transform="translate(1177.25719230686,0)"><polygon class="cov0" points="0,370 0,314.5 1,314.5 2,296 3,296 4,333 5,351.5 6,333 7,333 8,351.5 9,296 10,296 11,259 12,259 13,148 14,185 15,203.5 16,314.5 17,240.5 18,259 19,240.5 20,222 21,166.5 22,296 23,277.5 24,166.5 25,129.5 26,185 27,203.5 28,259 29,166.5 30,240.5 31,148 32,148 33,222 34,166.5 35,314.5 36,148 37,166.5 38,129.5 39,185 40,148 41,166.5 42,129.5 43,148 44,148 45,222 46,166.5 47,259 48,277.5 49,296 50,203.5 51,203.5 52,222 53,129.5 54,148 55,222 56,185 57,203.5 58,277.5 59,166.5 60,166.5 61,333 62,222 63,166.5 64,222 65,203.5 66,166.5 67,314.5 68,259 69,148 70,129.5 71,259 72,148 73,203.5 74,148 75,185 76,277.5 77,166.5 78,148 79,240.5 80,240.5 81,185 82,314.5 83,259 84,296 85,166.5 86,333 86.91,370"><title>LR761642.1</title></polygon><rect class="average" height="1" width="86.91" x="0" y="183.13"><title>average:10.1</title></rect><rect class="median" height="1" width="86.91" x="0" y="222"><title>median:8</title></rect><text class="chromName" x="43.45" y="-12">LR761642.1<title>LR761642.1 37,089,910 bp</title></text><rect class="frame" height="370" width="86.91" x="0" y="0"/></g><g id="chrom-LR761643.1" transform="translate(1265.1671710093603,0)"><polygon class="cov1" points="0,370 0,277.5 1,240.5 2,166.5 3,148 4,148 5,203.5 6,185 7,185 8,148 9,129.5 10,148 11,185 12,148 13,222 14,240.5 15,148 16,129.5 17,166.5 18,166.5 19,185 20,370 21,166.5 22,148 23,148 24,203.5 25,185 26,351.5 27,333 28,333 29,148 30,203.5 31,166.5 32,240.5 33,148 34,148 35,203.5 36,259 37,129.5 38,148 39,129.5 40,166.5 41,166.5 42,185 43,296 44,166.5 45,185 46,148 47,222 48,185 49,166.5 50,203.5 51,129.5 52,148 53,166.5 54,166.5 55,148 56,148 57,129.5 58,148 59,148 60,129.5 61,148 62,185 63,148 64,166.5 65,203.5 66,166.5 70,166.5 71,222 72,203.5 73,222 74,129.5 75,203.5 76,148 77,129.5 78,185 79,277.5 80,148 81,129.5 82,166.5 83,148 84,129.5 85,148 86,148 87,129.5 88,166.5 89,296 90,185 91,148 92,129.5 93,166.5 94,129.5 95,166.5 96,129.5 97,148 98,129.5 99,129.5 100,148 101,240.5 102,148 103,148 104,166.5 105,148 106,129.5 107,129.5 108,166.5 109,129.5 112,129.5 113,222 114,166.5 115,148 116,129.5 117,129.5 118,166.5 119,166.5 120,129.5 123,129.5 124,148 125,129.5 126,129.5 127,203.5 128,166.5 129,129.5 130,148 131,240.5 132,129.5 133,240.5 134,314.5 134.83,370"><title>LR761643.1</title></polygon><rect class="average" height="1" width="134.83" x="0" y="167.46"><title>average:10.95</title></rect><rect class="median" height="1" width="134.83" x="0" y="166.5"><title>median:11</title></rect><text class="chromName" x="67.42" y="-12">LR761643.1<title>LR761643.1 57,541,580 bp</title></text><rect class="frame" height="370" width="134.83" x="0" y="0"/></g><g><line class="ruler" x1="-2" x2="1390" y1="333" y2="333"><title>2</title></line><text class="ruler" x="-5" y="333">2</text><line class="ruler" x1="-2" x2="1390" y1="296" y2="296"><title>4</title></line><text class="ruler" x="-5" y="296">4</text><line class="ruler" x1="-2" x2="1390" y1="259" y2="259"><title>6</title></line><text class="ruler" x="-5" y="259">6</text><line class="ruler" x1="-2" x2="1390" y1="222" y2="222"><title>8</title></line><text class="ruler" x="-5" y="222">8</text><line class="ruler" x1="-2" x2="1390" y1="185" y2="185"><title>10</title></line><text class="ruler" x="-5" y="185">10</text><line class="ruler" x1="-2" x2="1390" y1="148" y2="148"><title>12</title></line><text class="ruler" x="-5" y="148">12</text><line class="ruler" x1="-2" x2="1390" y1="111" y2="111"><title>14</title></line><text class="ruler" x="-5" y="111">14</text><line class="ruler" x1="-2" x2="1390" y1="74" y2="74"><title>16</title></line><text class="ruler" x="-5" y="74">16</text><line class="ruler" x1="-2" x2="1390" y1="37" y2="37"><title>18</title></line><text class="ruler" x="-5" y="37">18</text><line class="ruler" x1="-2" x2="1390" y1="0" y2="0"><title>20</title></line><text class="ruler" x="-5" y="0">20</text></g></g><text class="title" x="795" y="40">F6_M4_14.merged.realigned.bam F6_M4_14 F6_M4_14_1 F6_M4_14_2<title>./F6_M4_14.merged.realigned.bam</title></text><text class="xLabel" x="795" y="475">GCA_902806645.1_cgigas_uk_roslin_v1_genomic.fna  (589,358,857 bp)<title>../ref/GCA_902806645.1_cgigas_uk_roslin_v1_genomic.fna</title></text><text class="yLabel" transform="translate(25,265) rotate(90)" x="0" y="0">Coverage bp (median)</text></g></svg>