<?xml version="1.0" encoding="UTF-8" standalone="no"?><svg height="500" width="1500" xmlns="http://www.w3.org/2000/svg"><title>F6_M6_24.merged.realigned.bam</title><desc>Made with wgscoverageplotter undefined Author: Pierre Lindenbaum</desc><style>g.maing {stroke:black;stroke-width:0.5px;fill:none;}
text.title {stroke:none;fill:black;stroke-width:1px;text-anchor:middle;}
rect.frame {stroke:darkgray;fill:none;stroke-width:0.5px;}
text.ruler {stroke:none;fill:darkgray;stroke-width:1px;text-anchor:end;}
text.chromName {stroke:none;fill:darkgray;stroke-width:1px;text-anchor:middle;}
text.xLabel {stroke:none;fill:black;stroke-width:1px;text-anchor:middle;}
text.yLabel {stroke:none;fill:black;stroke-width:1px;text-anchor:middle;}
.cov0 {stroke:gray;fill:antiquewhite;stroke-width:0.5px;}
.cov1 {stroke:gray;fill:beige;stroke-width:0.5px;}
rect.average {stroke:green;fill:green;stroke-width:0.5px;opacity:0.3;}
rect.median {stroke:red;fill:red;stroke-width:0.5px;opacity:0.3;}
line.ruler {stroke:darkgray;stroke-dasharray:4;fill:none;stroke-width:1;}
</style><g class="maing"><g id="chromosomes" transform="translate(100.0,80.0)"><g id="chrom-LR761634.1" transform="translate(10.0,0)"><polygon class="cov0" points="0,370 0,319.55 1,151.36 2,168.18 3,302.73 4,235.45 5,185 6,285.91 7,185 8,168.18 9,134.55 10,151.36 11,117.73 12,168.18 13,218.64 14,269.09 15,134.55 16,134.55 17,151.36 18,134.55 19,134.55 20,117.73 21,151.36 22,168.18 23,151.36 24,151.36 25,117.73 26,117.73 27,134.55 28,134.55 29,117.73 30,117.73 31,134.55 32,269.09 33,134.55 34,134.55 35,151.36 36,117.73 37,201.82 38,185 39,168.18 40,134.55 41,117.73 42,117.73 43,168.18 44,168.18 45,201.82 46,185 47,134.55 51,134.55 52,117.73 53,134.55 54,269.09 55,353.18 56,117.73 57,100.91 58,134.55 60,134.55 61,117.73 62,151.36 63,185 64,185 65,168.18 66,151.36 67,185 68,117.73 69,168.18 70,117.73 71,117.73 72,235.45 73,185 74,151.36 75,117.73 76,134.55 77,168.18 78,168.18 79,134.55 80,235.45 81,218.64 82,117.73 83,134.55 84,151.36 85,134.55 86,117.73 87,185 88,117.73 89,269.09 90,168.18 91,151.36 92,134.55 93,168.18 94,117.73 95,134.55 96,100.91 97,168.18 98,285.91 99,134.55 100,151.36 101,185 102,151.36 103,168.18 104,201.82 105,134.55 106,218.64 107,185 108,269.09 109,117.73 110,117.73 111,134.55 113,134.55 114,302.73 115,201.82 116,117.73 117,134.55 118,117.73 119,168.18 120,185 121,134.55 122,151.36 123,134.55 124,151.36 125,134.55 126,151.36 127,151.36 128,201.82 129,185 130,235.45 130.72,370"><title>LR761634.1</title></polygon><rect class="average" height="1" width="130.72" x="0" y="156.47"><title>average:12.7</title></rect><rect class="median" height="1" width="130.72" x="0" y="151.36"><title>median:13</title></rect><text class="chromName" x="65.36" y="-12">LR761634.1<title>LR761634.1 55,785,328 bp</title></text><rect class="frame" height="370" width="130.72" x="0" y="0"/></g><g id="chrom-LR761635.1" transform="translate(141.71753661284166,0)"><polygon class="cov1" points="0,370 0,353.18 1,353.18 2,336.36 3,302.73 4,353.18 5,353.18 6,235.45 7,319.55 8,319.55 9,218.64 10,201.82 11,285.91 12,168.18 13,151.36 14,218.64 15,302.73 16,302.73 17,235.45 18,285.91 19,201.82 20,269.09 21,285.91 22,285.91 23,235.45 24,285.91 25,353.18 26,302.73 27,319.55 28,269.09 29,353.18 30,336.36 31,319.55 32,269.09 33,218.64 34,218.64 35,235.45 36,252.27 37,319.55 38,336.36 39,185 40,201.82 41,218.64 42,185 43,235.45 44,134.55 45,168.18 46,218.64 47,151.36 48,235.45 49,168.18 50,201.82 51,269.09 52,235.45 53,285.91 54,336.36 55,252.27 56,285.91 57,269.09 58,185 59,285.91 60,353.18 61,269.09 62,168.18 63,285.91 64,269.09 65,285.91 66,302.73 67,285.91 68,252.27 69,285.91 70,285.91 71,235.45 75,235.45 76,336.36 77,0 78,252.27 79,302.73 80,185 81,302.73 82,285.91 83,285.91 84,319.55 85,285.91 86,336.36 87,353.18 88,336.36 89,370 90,269.09 91,336.36 92,319.55 93,252.27 94,285.91 95,285.91 96,353.18 97,285.91 98,319.55 99,319.55 100,269.09 101,302.73 102,319.55 103,252.27 104,252.27 105,201.82 106,235.45 107,269.09 108,201.82 109,201.82 110,336.36 111,201.82 112,336.36 113,319.55 114,302.73 115,269.09 116,285.91 117,285.91 118,168.18 119,185 120,134.55 121,235.45 123,235.45 124,252.27 125,168.18 126,235.45 127,302.73 128,218.64 129,235.45 130,168.18 131,285.91 132,201.82 133,269.09 134,319.55 135,285.91 136,285.91 137,319.55 138,319.55 139,285.91 140,336.36 141,319.55 142,285.91 143,336.36 144,269.09 145,235.45 146,269.09 147,117.73 148,185 149,134.55 150,218.64 151,269.09 152,336.36 153,218.64 154,269.09 155,302.73 156,302.73 157,235.45 158,285.91 159,168.18 160,252.27 161,252.27 162,319.55 163,285.91 164,252.27 165,285.91 166,302.73 167,336.36 168,302.73 169,269.09 170,269.09 171,319.55 171.58,370"><title>LR761635.1</title></polygon><rect class="average" height="1" width="171.58" x="0" y="215.17"><title>average:9.21</title></rect><rect class="median" height="1" width="171.58" x="0" y="269.09"><title>median:6</title></rect><text class="chromName" x="85.79" y="-12">LR761635.1<title>LR761635.1 73,222,313 bp</title></text><rect class="frame" height="370" width="171.58" x="0" y="0"/></g><g id="chrom-LR761636.1" transform="translate(314.2938403401308,0)"><polygon class="cov0" points="0,370 0,336.36 1,151.36 2,218.64 3,285.91 4,252.27 5,151.36 6,134.55 7,134.55 8,117.73 9,151.36 10,134.55 11,134.55 12,151.36 13,269.09 14,117.73 15,151.36 16,134.55 17,117.73 18,168.18 19,151.36 20,134.55 22,134.55 23,117.73 24,201.82 25,134.55 26,218.64 27,252.27 28,117.73 29,100.91 30,134.55 31,117.73 33,117.73 34,151.36 35,218.64 36,134.55 37,168.18 38,151.36 39,134.55 40,185 41,151.36 43,151.36 44,134.55 45,134.55 46,185 47,134.55 48,185 49,151.36 50,168.18 51,117.73 52,134.55 53,134.55 54,269.09 55,168.18 56,168.18 57,134.55 58,168.18 59,134.55 60,185 61,218.64 62,168.18 63,151.36 64,134.55 65,151.36 66,134.55 67,151.36 69,151.36 70,185 71,100.91 72,100.91 73,151.36 75,151.36 76,302.73 77,218.64 78,201.82 79,252.27 80,252.27 81,134.55 82,201.82 83,151.36 84,117.73 85,134.55 86,252.27 87,151.36 88,134.55 89,218.64 90,134.55 91,117.73 92,185 93,151.36 94,134.55 95,185 96,201.82 97,134.55 98,134.55 99,201.82 100,168.18 101,134.55 102,168.18 103,117.73 104,134.55 106,134.55 107,117.73 110,117.73 111,168.18 112,151.36 113,168.18 114,117.73 116,117.73 117,134.55 118,168.18 119,134.55 120,134.55 121,201.82 122,117.73 123,117.73 124,185 125,117.73 126,117.73 127,201.82 128,269.09 129,117.73 130,151.36 131,117.73 132,168.18 133,168.18 134,134.55 135,151.36 136,319.55 136.65,370"><title>LR761636.1</title></polygon><rect class="average" height="1" width="136.65" x="0" y="154.01"><title>average:12.84</title></rect><rect class="median" height="1" width="136.65" x="0" y="151.36"><title>median:13</title></rect><text class="chromName" x="68.33" y="-12">LR761636.1<title>LR761636.1 58,319,100 bp</title></text><rect class="frame" height="370" width="136.65" x="0" y="0"/></g><g id="chrom-LR761637.1" transform="translate(451.9485730949149,0)"><polygon class="cov1" points="0,370 0,285.91 1,252.27 2,269.09 3,235.45 4,201.82 5,185 6,185 7,252.27 8,185 9,252.27 10,336.36 11,168.18 12,218.64 13,252.27 14,302.73 15,185 16,235.45 17,117.73 18,235.45 19,235.45 20,185 21,168.18 22,168.18 23,201.82 24,302.73 25,134.55 26,134.55 27,252.27 28,235.45 29,201.82 30,269.09 31,168.18 32,151.36 33,151.36 34,117.73 35,185 36,319.55 37,319.55 38,168.18 39,151.36 40,151.36 41,218.64 42,185 43,252.27 44,302.73 45,168.18 46,134.55 47,134.55 48,117.73 49,134.55 50,168.18 51,134.55 52,100.91 53,151.36 54,100.91 55,117.73 56,134.55 57,218.64 58,285.91 59,269.09 60,269.09 61,218.64 62,134.55 64,134.55 65,151.36 66,134.55 67,151.36 68,185 69,117.73 70,151.36 71,151.36 72,185 73,134.55 74,185 75,134.55 76,134.55 77,168.18 81,168.18 82,134.55 83,151.36 84,151.36 85,117.73 86,235.45 87,168.18 88,134.55 89,134.55 90,117.73 91,134.55 92,117.73 93,168.18 94,168.18 95,218.64 96,185 97,151.36 98,117.73 99,134.55 100,235.45 101,269.09 102,252.27 103,269.09 104,285.91 105,269.09 106,117.73 108,117.73 109,134.55 110,117.73 111,185 112,134.55 113,117.73 114,285.91 115,201.82 116,185 117,168.18 118,134.55 119,336.36 120,185 121,134.55 122,302.73 123,302.73 124,336.36 124.49,370"><title>LR761637.1</title></polygon><rect class="average" height="1" width="124.49" x="0" y="172.43"><title>average:11.75</title></rect><rect class="median" height="1" width="124.49" x="0" y="185"><title>median:11</title></rect><text class="chromName" x="62.25" y="-12">LR761637.1<title>LR761637.1 53,127,865 bp</title></text><rect class="frame" height="370" width="124.49" x="0" y="0"/></g><g id="chrom-LR761638.1" transform="translate(577.4390778079033,0)"><polygon class="cov0" points="0,370 0,235.45 1,134.55 2,302.73 3,151.36 4,235.45 5,168.18 6,185 7,201.82 8,218.64 9,134.55 10,185 11,285.91 12,134.55 13,168.18 14,134.55 15,168.18 16,134.55 17,134.55 18,252.27 19,319.55 20,134.55 21,218.64 22,134.55 23,134.55 24,117.73 25,168.18 26,319.55 27,134.55 28,185 29,252.27 30,218.64 31,134.55 32,370 33,353.18 34,201.82 35,252.27 36,151.36 37,269.09 38,252.27 39,269.09 40,302.73 41,319.55 42,252.27 43,151.36 44,168.18 45,269.09 46,134.55 47,117.73 48,134.55 49,201.82 50,370 51,252.27 52,201.82 53,201.82 54,269.09 55,252.27 56,151.36 57,201.82 58,151.36 59,185 60,185 61,252.27 62,168.18 63,218.64 64,269.09 65,336.36 66,218.64 67,201.82 68,168.18 69,218.64 70,134.55 71,235.45 72,336.36 73,302.73 74,285.91 75,353.18 76,218.64 77,168.18 78,370 79,285.91 80,285.91 81,201.82 82,319.55 83,252.27 84,201.82 85,168.18 86,134.55 87,168.18 88,319.55 89,151.36 90,285.91 91,168.18 92,100.91 93,100.91 94,117.73 95,201.82 96,302.73 97,185 98,218.64 99,185 100,151.36 101,134.55 102,201.82 103,151.36 104,151.36 105,185 106,269.09 107,151.36 108,185 109,134.55 110,185 111,185 112,269.09 113,235.45 114,218.64 115,252.27 116,302.73 117,336.36 118,353.18 119,285.91 120,285.91 121,336.36 122,353.18 123,370 124,302.73 125,302.73 126,336.36 127,269.09 128,285.91 129,235.45 130,269.09 131,252.27 132,285.91 133,302.73 134,235.45 135,285.91 136,168.18 137,370 138,353.18 139,269.09 140,302.73 141,336.36 142,319.55 143,269.09 144,168.18 145,201.82 146,235.45 147,151.36 148,185 149,185 150,201.82 151,319.55 152,185 153,151.36 154,269.09 155,302.73 156,201.82 157,269.09 158,302.73 159,285.91 160,319.55 161,285.91 162,285.91 163,302.73 164,336.36 165,319.55 166,353.18 167,370 168,285.91 169,218.64 170,285.91 171,269.09 172,269.09 172.35,370"><title>LR761638.1</title></polygon><rect class="average" height="1" width="172.35" x="0" y="202.42"><title>average:9.96</title></rect><rect class="median" height="1" width="172.35" x="0" y="235.45"><title>median:8</title></rect><text class="chromName" x="86.17" y="-12">LR761638.1<title>LR761638.1 73,550,375 bp</title></text><rect class="frame" height="370" width="172.35" x="0" y="0"/></g><g id="chrom-LR761639.1" transform="translate(750.784104388203,0)"><polygon class="cov1" points="0,370 0,336.36 1,151.36 2,134.55 3,269.09 4,168.18 5,252.27 6,336.36 7,235.45 8,151.36 9,134.55 10,151.36 11,235.45 12,302.73 13,134.55 14,151.36 15,134.55 17,134.55 18,117.73 20,117.73 21,134.55 22,151.36 23,168.18 24,201.82 25,201.82 26,168.18 27,319.55 28,353.18 29,201.82 30,319.55 31,151.36 32,151.36 33,134.55 34,201.82 35,201.82 36,218.64 37,151.36 38,151.36 39,134.55 40,235.45 41,134.55 42,151.36 43,117.73 44,151.36 45,117.73 46,151.36 47,151.36 48,134.55 49,168.18 50,168.18 51,117.73 52,168.18 53,151.36 54,151.36 55,134.55 56,117.73 57,134.55 59,134.55 60,117.73 61,134.55 63,134.55 64,117.73 65,134.55 66,168.18 67,134.55 68,117.73 69,185 70,134.55 73,134.55 74,218.64 75,117.73 76,134.55 77,151.36 78,117.73 79,134.55 80,185 81,134.55 83,134.55 84,185 85,134.55 87,134.55 88,117.73 89,134.55 90,117.73 91,134.55 92,134.55 93,168.18 94,151.36 95,134.55 96,151.36 97,117.73 98,117.73 99,134.55 100,134.55 101,117.73 102,134.55 103,134.55 104,117.73 105,117.73 106,252.27 107,134.55 108,117.73 109,117.73 110,134.55 111,336.36 112,185 113,117.73 114,168.18 115,117.73 116,151.36 117,134.55 118,134.55 119,117.73 120,168.18 121,117.73 123,117.73 124,168.18 125,151.36 126,134.55 127,134.55 128,151.36 129,134.55 130,185 131,168.18 132,185 133,353.18 134,117.73 135,201.82 136,151.36 137,168.18 138,185 139,185 140,285.91 140.95,370"><title>LR761639.1</title></polygon><rect class="average" height="1" width="140.95" x="0" y="154.46"><title>average:12.82</title></rect><rect class="median" height="1" width="140.95" x="0" y="151.36"><title>median:13</title></rect><text class="chromName" x="70.47" y="-12">LR761639.1<title>LR761639.1 60,151,564 bp</title></text><rect class="frame" height="370" width="140.95" x="0" y="0"/></g><g id="chrom-LR761640.1" transform="translate(892.7327113317651,0)"><polygon class="cov0" points="0,370 0,218.64 1,134.55 2,201.82 3,185 4,168.18 5,117.73 6,185 7,201.82 8,151.36 9,185 10,151.36 11,134.55 12,134.55 13,269.09 14,185 15,151.36 16,218.64 17,134.55 18,134.55 19,201.82 20,134.55 21,134.55 22,117.73 23,100.91 24,134.55 25,151.36 26,117.73 27,134.55 30,134.55 31,100.91 32,134.55 33,117.73 34,151.36 35,134.55 36,134.55 37,201.82 38,117.73 39,168.18 40,100.91 41,117.73 42,100.91 43,117.73 44,117.73 45,151.36 46,151.36 47,252.27 48,336.36 49,117.73 50,151.36 51,134.55 52,117.73 53,134.55 54,117.73 55,117.73 56,134.55 57,185 58,151.36 59,185 60,269.09 61,117.73 62,168.18 63,185 64,134.55 65,235.45 66,134.55 67,134.55 68,151.36 69,201.82 70,185 71,134.55 72,151.36 73,185 74,168.18 75,134.55 76,134.55 77,218.64 78,117.73 79,168.18 80,100.91 82,100.91 83,134.55 84,134.55 85,117.73 86,319.55 87,151.36 88,151.36 89,168.18 90,151.36 91,336.36 92,302.73 93,185 94,302.73 95,151.36 96,151.36 97,134.55 99,134.55 100,117.73 101,218.64 102,336.36 103,235.45 104,134.55 105,117.73 106,134.55 107,185 108,218.64 109,134.55 110,185 111,201.82 112,151.36 113,151.36 114,168.18 115,134.55 116,302.73 117,336.36 118,353.18 119,319.55 120,151.36 121,117.73 122,117.73 123,134.55 124,134.55 125,117.73 126,117.73 127,134.55 128,269.09 129,151.36 130,117.73 131,117.73 132,134.55 133,134.55 134,117.73 135,100.91 136,134.55 138,134.55 139,185 140,151.36 141,134.55 142,168.18 143,201.82 144,151.36 145,134.55 145.53,370"><title>LR761640.1</title></polygon><rect class="average" height="1" width="145.53" x="0" y="155.75"><title>average:12.74</title></rect><rect class="median" height="1" width="145.53" x="0" y="151.36"><title>median:13</title></rect><text class="chromName" x="72.77" y="-12">LR761640.1<title>LR761640.1 62,107,823 bp</title></text><rect class="frame" height="370" width="145.53" x="0" y="0"/></g><g id="chrom-LR761641.1" transform="translate(1039.265271917344,0)"><polygon class="cov1" points="0,370 0,269.09 1,201.82 2,269.09 3,185 4,201.82 5,235.45 6,285.91 7,235.45 8,302.73 9,185 10,168.18 11,201.82 12,235.45 13,151.36 14,168.18 15,151.36 16,134.55 17,353.18 18,134.55 19,151.36 20,151.36 21,168.18 22,235.45 23,168.18 24,201.82 25,168.18 26,252.27 27,218.64 28,252.27 29,285.91 30,235.45 31,201.82 32,269.09 33,201.82 34,285.91 35,285.91 36,353.18 37,285.91 38,269.09 39,269.09 40,185 41,252.27 42,336.36 43,336.36 44,252.27 45,218.64 46,252.27 47,285.91 48,235.45 49,134.55 50,185 51,151.36 52,134.55 54,134.55 55,117.73 56,117.73 57,151.36 58,185 59,168.18 60,151.36 61,269.09 62,168.18 63,201.82 64,168.18 65,185 66,218.64 67,235.45 68,252.27 69,168.18 70,218.64 71,117.73 72,185 73,336.36 74,218.64 75,302.73 76,218.64 77,218.64 78,168.18 79,218.64 80,252.27 81,370 82,353.18 83,319.55 84,185 85,185 86,269.09 87,134.55 88,235.45 89,185 90,269.09 91,235.45 92,134.55 93,252.27 94,319.55 95,269.09 96,168.18 97,269.09 98,134.55 99,370 100,302.73 101,151.36 102,168.18 103,134.55 104,185 105,134.55 106,285.91 107,151.36 110,151.36 111,285.91 112,151.36 113,269.09 114,168.18 115,168.18 116,117.73 117,185 118,151.36 119,218.64 120,218.64 121,185 122,185 123,235.45 124,151.36 125,235.45 126,269.09 127,134.55 128,235.45 129,201.82 130,285.91 131,201.82 132,336.36 133,285.91 134,151.36 135,353.18 136,319.55 136.99,370"><title>LR761641.1</title></polygon><rect class="average" height="1" width="136.99" x="0" y="191.76"><title>average:10.6</title></rect><rect class="median" height="1" width="136.99" x="0" y="218.64"><title>median:9</title></rect><text class="chromName" x="68.5" y="-12">LR761641.1<title>LR761641.1 58,462,999 bp</title></text><rect class="frame" height="370" width="136.99" x="0" y="0"/></g><g id="chrom-LR761642.1" transform="translate(1177.25719230686,0)"><polygon class="cov0" points="0,370 0,319.55 2,319.55 3,302.73 4,336.36 5,353.18 6,336.36 8,336.36 9,302.73 10,302.73 11,285.91 12,252.27 13,134.55 14,201.82 15,201.82 16,302.73 17,218.64 18,269.09 19,218.64 20,235.45 21,168.18 22,319.55 23,302.73 24,185 25,134.55 26,168.18 27,201.82 28,269.09 29,168.18 30,218.64 31,151.36 32,151.36 33,235.45 34,168.18 35,319.55 36,151.36 37,151.36 38,134.55 39,168.18 40,151.36 41,168.18 42,134.55 43,151.36 44,151.36 45,218.64 46,151.36 47,269.09 48,252.27 49,302.73 50,201.82 52,201.82 53,117.73 54,134.55 55,201.82 56,185 57,201.82 58,252.27 59,168.18 60,168.18 61,336.36 62,185 63,151.36 64,201.82 65,185 66,168.18 67,319.55 68,269.09 69,151.36 70,134.55 71,269.09 72,151.36 73,218.64 74,151.36 75,201.82 76,269.09 77,151.36 78,151.36 79,252.27 80,252.27 81,201.82 82,302.73 83,269.09 84,302.73 85,185 86,319.55 86.91,370"><title>LR761642.1</title></polygon><rect class="average" height="1" width="86.91" x="0" y="187.08"><title>average:10.88</title></rect><rect class="median" height="1" width="86.91" x="0" y="218.64"><title>median:9</title></rect><text class="chromName" x="43.45" y="-12">LR761642.1<title>LR761642.1 37,089,910 bp</title></text><rect class="frame" height="370" width="86.91" x="0" y="0"/></g><g id="chrom-LR761643.1" transform="translate(1265.1671710093603,0)"><polygon class="cov1" points="0,370 0,285.91 1,252.27 2,168.18 3,134.55 4,151.36 5,201.82 6,168.18 7,185 8,151.36 9,134.55 10,151.36 11,185 12,134.55 13,185 14,235.45 15,134.55 16,117.73 17,168.18 19,168.18 20,336.36 21,168.18 22,134.55 23,134.55 24,185 25,168.18 26,336.36 27,302.73 28,319.55 29,134.55 30,218.64 31,151.36 32,201.82 33,134.55 34,134.55 35,218.64 36,218.64 37,117.73 38,134.55 39,117.73 40,134.55 41,151.36 42,168.18 43,285.91 44,151.36 45,168.18 46,134.55 47,168.18 48,168.18 49,134.55 50,185 51,134.55 52,134.55 53,151.36 54,168.18 55,134.55 57,134.55 58,168.18 59,134.55 60,100.91 61,117.73 62,168.18 63,134.55 64,151.36 65,201.82 66,151.36 67,151.36 68,134.55 69,151.36 70,151.36 71,218.64 72,201.82 73,218.64 74,117.73 75,201.82 76,134.55 77,117.73 78,185 79,269.09 80,134.55 81,117.73 82,151.36 83,134.55 84,117.73 85,117.73 86,134.55 87,117.73 88,168.18 89,302.73 90,168.18 91,134.55 92,117.73 93,151.36 94,117.73 95,151.36 96,117.73 100,117.73 101,235.45 102,134.55 103,134.55 104,151.36 105,134.55 106,117.73 107,117.73 108,134.55 109,117.73 112,117.73 113,252.27 114,151.36 115,134.55 116,117.73 117,117.73 118,134.55 119,151.36 120,117.73 123,117.73 124,134.55 126,134.55 127,201.82 128,151.36 129,134.55 130,151.36 131,235.45 132,134.55 133,252.27 134,285.91 134.83,370"><title>LR761643.1</title></polygon><rect class="average" height="1" width="134.83" x="0" y="158.38"><title>average:12.58</title></rect><rect class="median" height="1" width="134.83" x="0" y="151.36"><title>median:13</title></rect><text class="chromName" x="67.42" y="-12">LR761643.1<title>LR761643.1 57,541,580 bp</title></text><rect class="frame" height="370" width="134.83" x="0" y="0"/></g><g><line class="ruler" x1="-2" x2="1390" y1="333" y2="333"><title>2</title></line><text class="ruler" x="-5" y="333">2</text><line class="ruler" x1="-2" x2="1390" y1="296" y2="296"><title>4</title></line><text class="ruler" x="-5" y="296">4</text><line class="ruler" x1="-2" x2="1390" y1="259" y2="259"><title>6</title></line><text class="ruler" x="-5" y="259">6</text><line class="ruler" x1="-2" x2="1390" y1="222" y2="222"><title>8</title></line><text class="ruler" x="-5" y="222">8</text><line class="ruler" x1="-2" x2="1390" y1="185" y2="185"><title>11</title></line><text class="ruler" x="-5" y="185">11</text><line class="ruler" x1="-2" x2="1390" y1="148" y2="148"><title>13</title></line><text class="ruler" x="-5" y="148">13</text><line class="ruler" x1="-2" x2="1390" y1="111" y2="111"><title>15</title></line><text class="ruler" x="-5" y="111">15</text><line class="ruler" x1="-2" x2="1390" y1="74" y2="74"><title>17</title></line><text class="ruler" x="-5" y="74">17</text><line class="ruler" x1="-2" x2="1390" y1="37" y2="37"><title>19</title></line><text class="ruler" x="-5" y="37">19</text><line class="ruler" x1="-2" x2="1390" y1="0" y2="0"><title>22</title></line><text class="ruler" x="-5" y="0">22</text></g></g><text class="title" x="795" y="40">F6_M6_24.merged.realigned.bam F6_M6_24 F6_M6_24_1 F6_M6_24_2<title>./F6_M6_24.merged.realigned.bam</title></text><text class="xLabel" x="795" y="475">GCA_902806645.1_cgigas_uk_roslin_v1_genomic.fna  (589,358,857 bp)<title>../ref/GCA_902806645.1_cgigas_uk_roslin_v1_genomic.fna</title></text><text class="yLabel" transform="translate(25,265) rotate(90)" x="0" y="0">Coverage bp (median)</text></g></svg>