<?xml version="1.0" encoding="UTF-8" standalone="no"?><svg height="500" width="1500" xmlns="http://www.w3.org/2000/svg"><title>F7_M8_24.merged.realigned.bam</title><desc>Made with wgscoverageplotter undefined Author: Pierre Lindenbaum</desc><style>g.maing {stroke:black;stroke-width:0.5px;fill:none;}
text.title {stroke:none;fill:black;stroke-width:1px;text-anchor:middle;}
rect.frame {stroke:darkgray;fill:none;stroke-width:0.5px;}
text.ruler {stroke:none;fill:darkgray;stroke-width:1px;text-anchor:end;}
text.chromName {stroke:none;fill:darkgray;stroke-width:1px;text-anchor:middle;}
text.xLabel {stroke:none;fill:black;stroke-width:1px;text-anchor:middle;}
text.yLabel {stroke:none;fill:black;stroke-width:1px;text-anchor:middle;}
.cov0 {stroke:gray;fill:antiquewhite;stroke-width:0.5px;}
.cov1 {stroke:gray;fill:beige;stroke-width:0.5px;}
rect.average {stroke:green;fill:green;stroke-width:0.5px;opacity:0.3;}
rect.median {stroke:red;fill:red;stroke-width:0.5px;opacity:0.3;}
line.ruler {stroke:darkgray;stroke-dasharray:4;fill:none;stroke-width:1;}
</style><g class="maing"><g id="chromosomes" transform="translate(100.0,80.0)"><g id="chrom-LR761634.1" transform="translate(10.0,0)"><polygon class="cov0" points="0,370 0,336.36 1,117.73 2,168.18 3,269.09 4,252.27 5,168.18 6,269.09 7,185 8,134.55 9,117.73 10,151.36 11,100.91 12,151.36 13,235.45 14,285.91 15,117.73 16,117.73 17,201.82 18,117.73 20,117.73 21,134.55 22,151.36 24,151.36 25,100.91 26,117.73 30,117.73 31,134.55 32,252.27 33,117.73 34,134.55 35,134.55 36,100.91 37,185 38,185 39,134.55 40,117.73 42,117.73 43,185 44,151.36 45,185 46,168.18 47,134.55 48,151.36 49,134.55 50,151.36 51,134.55 52,117.73 53,134.55 54,201.82 55,218.64 56,117.73 57,117.73 58,134.55 60,134.55 61,117.73 62,151.36 63,185 64,185 65,168.18 66,134.55 67,201.82 68,117.73 69,185 70,117.73 71,117.73 72,218.64 73,168.18 74,134.55 75,117.73 76,134.55 77,185 78,151.36 79,134.55 80,319.55 81,285.91 82,117.73 83,134.55 85,134.55 86,100.91 87,185 88,117.73 89,269.09 90,151.36 91,151.36 92,117.73 93,151.36 94,100.91 96,100.91 97,151.36 98,285.91 99,117.73 100,117.73 101,151.36 102,151.36 103,134.55 104,185 105,100.91 106,201.82 107,185 108,235.45 109,100.91 110,100.91 111,117.73 113,117.73 114,285.91 115,185 116,100.91 117,117.73 118,84.09 119,134.55 120,201.82 121,117.73 122,117.73 123,100.91 124,117.73 126,117.73 127,134.55 128,185 129,151.36 130,235.45 130.72,370"><title>LR761634.1</title></polygon><rect class="average" height="1" width="130.72" x="0" y="145.81"><title>average:13.33</title></rect><rect class="median" height="1" width="130.72" x="0" y="151.36"><title>median:13</title></rect><text class="chromName" x="65.36" y="-12">LR761634.1<title>LR761634.1 55,785,328 bp</title></text><rect class="frame" height="370" width="130.72" x="0" y="0"/></g><g id="chrom-LR761635.1" transform="translate(141.71753661284166,0)"><polygon class="cov1" points="0,370 0,353.18 1,353.18 2,336.36 3,269.09 4,336.36 5,370 6,252.27 7,302.73 8,319.55 9,218.64 10,151.36 11,235.45 12,151.36 13,151.36 14,168.18 15,302.73 16,319.55 17,235.45 18,252.27 20,252.27 21,269.09 22,269.09 23,235.45 24,269.09 25,336.36 26,269.09 27,336.36 28,285.91 29,336.36 30,336.36 31,302.73 32,252.27 33,201.82 34,201.82 35,218.64 36,285.91 37,336.36 38,319.55 39,168.18 40,151.36 41,201.82 42,168.18 43,185 44,151.36 45,185 46,201.82 47,134.55 48,285.91 49,185 50,218.64 51,336.36 52,269.09 53,235.45 54,302.73 55,285.91 56,370 57,285.91 58,151.36 59,302.73 60,269.09 61,252.27 62,151.36 63,252.27 64,235.45 65,218.64 66,269.09 67,285.91 68,235.45 69,285.91 70,302.73 71,201.82 73,201.82 74,235.45 75,201.82 76,336.36 77,0 78,235.45 79,285.91 80,151.36 81,302.73 82,285.91 83,285.91 84,370 85,302.73 86,336.36 87,336.36 88,319.55 89,319.55 90,252.27 91,285.91 92,319.55 93,302.73 94,285.91 95,269.09 96,353.18 97,302.73 98,319.55 99,319.55 100,269.09 101,285.91 102,319.55 103,252.27 104,269.09 105,185 106,252.27 107,269.09 108,201.82 109,218.64 110,285.91 111,185 112,336.36 113,336.36 114,302.73 115,319.55 116,319.55 117,269.09 118,168.18 119,185 120,134.55 121,201.82 122,235.45 124,235.45 125,151.36 126,235.45 127,302.73 128,185 129,319.55 130,185 131,252.27 132,218.64 133,235.45 134,302.73 137,302.73 138,285.91 139,302.73 140,319.55 141,285.91 142,285.91 143,302.73 144,252.27 145,218.64 146,269.09 147,67.27 148,151.36 149,134.55 150,235.45 151,269.09 152,336.36 153,218.64 154,285.91 155,302.73 156,285.91 157,235.45 158,302.73 159,151.36 160,269.09 161,252.27 162,336.36 163,353.18 164,252.27 165,252.27 166,302.73 167,302.73 168,285.91 169,319.55 170,302.73 171,319.55 171.58,370"><title>LR761635.1</title></polygon><rect class="average" height="1" width="171.58" x="0" y="202.39"><title>average:9.97</title></rect><rect class="median" height="1" width="171.58" x="0" y="269.09"><title>median:6</title></rect><text class="chromName" x="85.79" y="-12">LR761635.1<title>LR761635.1 73,222,313 bp</title></text><rect class="frame" height="370" width="171.58" x="0" y="0"/></g><g id="chrom-LR761636.1" transform="translate(314.2938403401308,0)"><polygon class="cov0" points="0,370 0,336.36 1,134.55 2,235.45 3,319.55 4,218.64 5,134.55 6,134.55 7,151.36 8,100.91 9,134.55 10,100.91 11,100.91 12,134.55 13,201.82 14,100.91 15,117.73 16,100.91 17,100.91 18,134.55 19,134.55 20,117.73 23,117.73 24,185 25,117.73 26,185 27,235.45 28,117.73 30,117.73 31,100.91 32,100.91 33,117.73 34,134.55 35,151.36 36,134.55 37,168.18 38,134.55 39,117.73 40,134.55 41,151.36 43,151.36 44,134.55 45,134.55 46,168.18 47,117.73 48,218.64 49,151.36 50,151.36 51,117.73 52,134.55 53,134.55 54,252.27 55,168.18 56,151.36 57,117.73 58,151.36 59,134.55 60,151.36 61,218.64 62,168.18 63,134.55 64,134.55 65,151.36 66,134.55 67,151.36 69,151.36 70,201.82 71,100.91 72,117.73 73,185 74,151.36 75,151.36 76,319.55 77,185 78,218.64 79,252.27 80,269.09 81,134.55 82,218.64 83,134.55 84,117.73 85,134.55 86,218.64 87,151.36 88,134.55 89,185 90,151.36 91,117.73 92,185 93,151.36 94,134.55 95,185 96,201.82 97,117.73 98,134.55 99,168.18 100,151.36 101,185 102,151.36 103,100.91 104,117.73 105,117.73 106,134.55 107,134.55 108,117.73 110,117.73 111,151.36 112,134.55 113,168.18 114,117.73 117,117.73 118,151.36 119,117.73 120,117.73 121,218.64 122,100.91 123,117.73 124,168.18 125,117.73 126,100.91 127,218.64 128,235.45 129,100.91 130,117.73 131,117.73 132,134.55 133,117.73 135,117.73 136,302.73 136.65,370"><title>LR761636.1</title></polygon><rect class="average" height="1" width="136.65" x="0" y="144.17"><title>average:13.43</title></rect><rect class="median" height="1" width="136.65" x="0" y="134.55"><title>median:14</title></rect><text class="chromName" x="68.33" y="-12">LR761636.1<title>LR761636.1 58,319,100 bp</title></text><rect class="frame" height="370" width="136.65" x="0" y="0"/></g><g id="chrom-LR761637.1" transform="translate(451.9485730949149,0)"><polygon class="cov1" points="0,370 0,353.18 1,269.09 2,285.91 3,252.27 4,218.64 5,168.18 6,218.64 7,235.45 8,218.64 9,285.91 10,269.09 11,134.55 12,269.09 13,269.09 14,302.73 15,134.55 16,218.64 17,100.91 18,302.73 19,285.91 20,201.82 21,151.36 22,151.36 23,235.45 24,353.18 25,134.55 26,117.73 27,235.45 28,185 29,252.27 30,285.91 31,134.55 32,134.55 33,168.18 34,100.91 35,185 36,302.73 37,168.18 38,151.36 39,151.36 40,134.55 41,302.73 42,218.64 43,269.09 44,319.55 45,185 46,151.36 47,134.55 48,117.73 49,117.73 50,185 51,134.55 52,84.09 53,151.36 54,100.91 55,134.55 56,151.36 57,201.82 58,285.91 59,319.55 60,302.73 61,218.64 62,134.55 64,134.55 65,151.36 66,134.55 67,151.36 68,185 69,117.73 70,151.36 71,134.55 72,168.18 73,134.55 74,168.18 75,151.36 76,134.55 77,151.36 78,151.36 79,185 80,151.36 81,151.36 82,117.73 83,134.55 84,151.36 85,117.73 86,218.64 87,151.36 88,117.73 89,134.55 90,100.91 91,134.55 92,117.73 93,151.36 94,168.18 95,201.82 96,185 97,134.55 98,100.91 99,100.91 100,235.45 101,269.09 102,252.27 103,285.91 104,269.09 105,252.27 106,117.73 107,84.09 108,100.91 109,100.91 110,84.09 111,100.91 112,117.73 113,100.91 114,285.91 115,185 116,168.18 117,151.36 118,117.73 119,285.91 120,168.18 121,117.73 122,252.27 123,319.55 124,319.55 124.49,370"><title>LR761637.1</title></polygon><rect class="average" height="1" width="124.49" x="0" y="166.07"><title>average:12.13</title></rect><rect class="median" height="1" width="124.49" x="0" y="168.18"><title>median:12</title></rect><text class="chromName" x="62.25" y="-12">LR761637.1<title>LR761637.1 53,127,865 bp</title></text><rect class="frame" height="370" width="124.49" x="0" y="0"/></g><g id="chrom-LR761638.1" transform="translate(577.4390778079033,0)"><polygon class="cov0" points="0,370 0,168.18 1,50.45 2,201.82 3,117.73 4,269.09 5,151.36 6,185 7,185 8,168.18 9,117.73 10,168.18 11,285.91 12,117.73 13,151.36 14,100.91 15,151.36 16,117.73 17,117.73 18,252.27 19,319.55 20,134.55 21,235.45 22,117.73 23,100.91 24,117.73 25,151.36 26,353.18 27,100.91 28,168.18 29,319.55 30,269.09 31,134.55 32,353.18 33,353.18 34,185 35,218.64 36,151.36 37,319.55 38,285.91 39,353.18 40,336.36 41,285.91 42,235.45 43,134.55 44,151.36 45,285.91 46,201.82 47,100.91 48,117.73 49,235.45 50,353.18 51,218.64 52,185 53,168.18 54,235.45 55,235.45 56,134.55 57,201.82 58,134.55 59,201.82 60,151.36 61,168.18 62,168.18 63,319.55 64,319.55 65,302.73 66,235.45 67,201.82 68,168.18 69,285.91 70,168.18 71,336.36 72,336.36 73,285.91 74,252.27 75,302.73 76,336.36 77,218.64 78,370 79,353.18 80,285.91 81,201.82 82,336.36 83,319.55 84,302.73 85,185 86,151.36 87,168.18 88,319.55 89,151.36 90,285.91 91,151.36 92,117.73 93,117.73 94,151.36 95,218.64 96,302.73 97,151.36 98,269.09 99,201.82 100,201.82 101,151.36 102,302.73 103,185 104,269.09 105,302.73 106,235.45 107,185 108,269.09 109,185 110,235.45 111,185 112,302.73 113,218.64 114,252.27 115,269.09 116,319.55 117,319.55 118,353.18 119,302.73 120,285.91 121,336.36 122,353.18 123,353.18 124,302.73 125,302.73 126,319.55 127,252.27 128,353.18 129,285.91 130,319.55 131,302.73 132,252.27 133,336.36 134,269.09 135,302.73 136,151.36 137,370 138,353.18 139,269.09 140,370 141,370 142,319.55 143,269.09 144,151.36 145,185 146,201.82 147,134.55 148,134.55 149,168.18 150,201.82 151,235.45 152,168.18 153,134.55 154,252.27 155,285.91 156,201.82 157,285.91 158,336.36 159,235.45 160,269.09 161,269.09 162,252.27 163,252.27 164,269.09 165,285.91 166,285.91 167,302.73 168,285.91 169,201.82 170,370 171,353.18 172,353.18 172.35,370"><title>LR761638.1</title></polygon><rect class="average" height="1" width="172.35" x="0" y="201.6"><title>average:10.01</title></rect><rect class="median" height="1" width="172.35" x="0" y="252.27"><title>median:7</title></rect><text class="chromName" x="86.17" y="-12">LR761638.1<title>LR761638.1 73,550,375 bp</title></text><rect class="frame" height="370" width="172.35" x="0" y="0"/></g><g id="chrom-LR761639.1" transform="translate(750.784104388203,0)"><polygon class="cov1" points="0,370 0,285.91 1,134.55 2,117.73 3,269.09 4,151.36 5,201.82 6,353.18 7,235.45 8,117.73 9,117.73 10,151.36 11,235.45 12,269.09 13,117.73 14,151.36 15,117.73 16,117.73 17,100.91 18,117.73 20,117.73 21,134.55 22,151.36 23,168.18 24,168.18 25,201.82 26,168.18 27,336.36 28,353.18 29,201.82 30,319.55 31,134.55 32,134.55 33,117.73 34,201.82 35,185 36,168.18 37,134.55 39,134.55 40,252.27 41,134.55 42,134.55 43,100.91 44,134.55 45,117.73 46,151.36 47,134.55 48,117.73 49,151.36 50,151.36 51,117.73 52,185 53,151.36 54,151.36 55,134.55 58,134.55 59,117.73 60,117.73 61,134.55 63,134.55 64,117.73 65,117.73 66,151.36 67,134.55 68,134.55 69,185 70,134.55 71,134.55 72,151.36 73,134.55 74,218.64 75,134.55 76,134.55 77,151.36 78,117.73 79,134.55 80,151.36 81,134.55 82,117.73 83,134.55 84,185 85,134.55 86,117.73 87,134.55 88,100.91 89,117.73 90,117.73 91,134.55 92,134.55 93,168.18 94,151.36 95,134.55 96,134.55 97,117.73 98,117.73 99,134.55 100,134.55 101,117.73 102,134.55 103,117.73 104,100.91 105,117.73 106,235.45 107,117.73 108,100.91 109,117.73 110,117.73 111,319.55 112,168.18 113,100.91 114,168.18 115,100.91 116,134.55 117,134.55 118,117.73 119,100.91 120,117.73 123,117.73 124,168.18 125,117.73 127,117.73 128,134.55 129,100.91 130,168.18 131,134.55 132,168.18 133,353.18 134,100.91 135,185 136,117.73 137,117.73 138,218.64 139,185 140,336.36 140.95,370"><title>LR761639.1</title></polygon><rect class="average" height="1" width="140.95" x="0" y="145.68"><title>average:13.34</title></rect><rect class="median" height="1" width="140.95" x="0" y="151.36"><title>median:13</title></rect><text class="chromName" x="70.47" y="-12">LR761639.1<title>LR761639.1 60,151,564 bp</title></text><rect class="frame" height="370" width="140.95" x="0" y="0"/></g><g id="chrom-LR761640.1" transform="translate(892.7327113317651,0)"><polygon class="cov0" points="0,370 0,201.82 1,100.91 2,185 3,151.36 4,151.36 5,100.91 6,168.18 7,185 8,100.91 9,151.36 10,134.55 11,134.55 12,117.73 13,285.91 14,134.55 15,117.73 16,201.82 17,134.55 18,117.73 19,218.64 20,117.73 22,117.73 23,100.91 24,117.73 25,134.55 26,117.73 27,117.73 28,134.55 29,117.73 30,134.55 31,151.36 32,117.73 33,117.73 34,151.36 35,117.73 36,117.73 37,201.82 38,100.91 39,151.36 40,100.91 41,117.73 44,117.73 45,134.55 46,117.73 47,235.45 48,269.09 49,117.73 50,151.36 51,117.73 52,117.73 53,134.55 54,117.73 56,117.73 57,201.82 58,151.36 59,168.18 60,235.45 61,134.55 62,151.36 63,168.18 64,134.55 65,302.73 66,134.55 67,151.36 68,151.36 69,185 70,185 71,134.55 72,168.18 73,218.64 74,168.18 75,134.55 76,134.55 77,218.64 78,134.55 79,168.18 80,100.91 82,100.91 83,134.55 84,134.55 85,117.73 86,353.18 87,151.36 88,151.36 89,168.18 90,168.18 91,252.27 92,269.09 93,185 94,235.45 95,151.36 96,134.55 97,134.55 98,151.36 99,134.55 100,117.73 101,185 102,285.91 103,218.64 104,117.73 106,117.73 107,168.18 108,185 109,134.55 110,168.18 111,185 112,151.36 113,134.55 114,185 115,134.55 116,336.36 117,336.36 118,353.18 119,302.73 120,134.55 121,117.73 122,134.55 124,134.55 125,100.91 126,117.73 127,117.73 128,218.64 129,151.36 130,117.73 131,117.73 132,134.55 133,117.73 134,100.91 135,67.27 136,117.73 138,117.73 139,168.18 140,117.73 141,117.73 142,151.36 143,252.27 144,117.73 145,117.73 145.53,370"><title>LR761640.1</title></polygon><rect class="average" height="1" width="145.53" x="0" y="147.86"><title>average:13.21</title></rect><rect class="median" height="1" width="145.53" x="0" y="151.36"><title>median:13</title></rect><text class="chromName" x="72.77" y="-12">LR761640.1<title>LR761640.1 62,107,823 bp</title></text><rect class="frame" height="370" width="145.53" x="0" y="0"/></g><g id="chrom-LR761641.1" transform="translate(1039.265271917344,0)"><polygon class="cov1" points="0,370 0,302.73 1,151.36 2,201.82 3,185 4,168.18 5,201.82 6,302.73 7,252.27 8,235.45 9,151.36 10,117.73 11,201.82 12,218.64 13,117.73 14,218.64 15,100.91 16,117.73 17,269.09 18,134.55 19,117.73 20,117.73 21,151.36 22,185 23,134.55 24,185 25,168.18 26,218.64 28,218.64 29,285.91 30,235.45 31,185 32,252.27 33,235.45 34,285.91 35,285.91 36,336.36 37,235.45 38,269.09 39,252.27 40,185 41,218.64 42,336.36 43,353.18 44,269.09 45,185 46,235.45 47,269.09 48,285.91 49,134.55 50,185 51,151.36 52,117.73 53,117.73 54,134.55 55,117.73 56,117.73 57,151.36 58,168.18 59,168.18 60,134.55 61,285.91 62,151.36 63,168.18 64,185 65,168.18 66,218.64 67,235.45 68,235.45 69,151.36 70,235.45 71,117.73 72,201.82 73,302.73 74,218.64 75,319.55 76,218.64 77,218.64 78,168.18 79,235.45 80,285.91 81,336.36 82,336.36 83,319.55 84,168.18 85,151.36 86,269.09 87,117.73 88,218.64 89,168.18 90,285.91 91,201.82 92,117.73 93,201.82 94,269.09 95,185 96,185 97,319.55 98,117.73 99,370 100,285.91 101,134.55 102,185 103,117.73 104,168.18 105,117.73 106,269.09 107,117.73 108,134.55 109,134.55 110,117.73 111,269.09 112,117.73 113,252.27 114,117.73 115,134.55 116,100.91 117,151.36 118,134.55 119,201.82 120,168.18 121,168.18 122,151.36 123,218.64 124,134.55 125,185 126,235.45 127,117.73 128,235.45 129,185 130,252.27 131,218.64 132,302.73 133,269.09 134,134.55 135,370 136,302.73 136.99,370"><title>LR761641.1</title></polygon><rect class="average" height="1" width="136.99" x="0" y="175.24"><title>average:11.58</title></rect><rect class="median" height="1" width="136.99" x="0" y="201.82"><title>median:10</title></rect><text class="chromName" x="68.5" y="-12">LR761641.1<title>LR761641.1 58,462,999 bp</title></text><rect class="frame" height="370" width="136.99" x="0" y="0"/></g><g id="chrom-LR761642.1" transform="translate(1177.25719230686,0)"><polygon class="cov0" points="0,370 0,336.36 1,353.18 2,336.36 3,252.27 4,302.73 5,319.55 6,285.91 9,285.91 10,252.27 11,201.82 12,269.09 13,117.73 14,185 15,168.18 16,285.91 17,252.27 18,285.91 19,218.64 20,201.82 21,168.18 22,285.91 23,285.91 24,168.18 25,117.73 26,168.18 27,185 28,269.09 29,151.36 30,235.45 31,134.55 32,151.36 33,201.82 34,134.55 35,185 36,134.55 37,134.55 38,117.73 39,185 40,134.55 41,151.36 42,117.73 43,134.55 44,151.36 45,185 46,151.36 47,235.45 48,185 49,269.09 50,151.36 51,168.18 52,218.64 53,117.73 54,117.73 55,218.64 56,151.36 57,218.64 58,235.45 59,134.55 60,151.36 61,336.36 62,151.36 63,168.18 64,201.82 65,168.18 66,168.18 67,319.55 68,252.27 69,151.36 70,151.36 71,252.27 72,151.36 73,201.82 74,134.55 75,201.82 76,302.73 77,134.55 78,134.55 79,252.27 80,218.64 81,168.18 82,319.55 83,252.27 84,285.91 85,218.64 86,302.73 86.91,370"><title>LR761642.1</title></polygon><rect class="average" height="1" width="86.91" x="0" y="166.21"><title>average:12.12</title></rect><rect class="median" height="1" width="86.91" x="0" y="201.82"><title>median:10</title></rect><text class="chromName" x="43.45" y="-12">LR761642.1<title>LR761642.1 37,089,910 bp</title></text><rect class="frame" height="370" width="86.91" x="0" y="0"/></g><g id="chrom-LR761643.1" transform="translate(1265.1671710093603,0)"><polygon class="cov1" points="0,370 0,285.91 1,252.27 2,134.55 3,117.73 4,134.55 5,218.64 6,168.18 7,151.36 8,117.73 9,100.91 10,117.73 11,151.36 12,117.73 13,185 14,235.45 15,134.55 16,100.91 17,134.55 18,134.55 19,151.36 20,336.36 21,151.36 22,117.73 23,117.73 24,201.82 25,168.18 26,353.18 27,285.91 28,252.27 29,117.73 30,218.64 31,151.36 32,201.82 33,134.55 34,134.55 35,201.82 36,252.27 37,117.73 38,134.55 39,117.73 40,151.36 41,151.36 42,168.18 43,252.27 44,151.36 45,185 46,134.55 47,218.64 48,168.18 49,151.36 50,185 51,134.55 52,134.55 53,168.18 54,168.18 55,134.55 57,134.55 58,151.36 59,134.55 60,117.73 61,134.55 62,168.18 63,151.36 64,168.18 65,201.82 66,168.18 67,151.36 68,151.36 69,134.55 70,151.36 71,252.27 72,201.82 73,201.82 74,117.73 75,235.45 76,151.36 77,117.73 78,201.82 79,235.45 80,134.55 81,117.73 82,151.36 83,134.55 84,117.73 85,134.55 86,151.36 87,117.73 88,168.18 89,319.55 90,168.18 91,134.55 92,117.73 93,151.36 94,117.73 95,151.36 96,117.73 99,117.73 100,134.55 101,218.64 102,134.55 103,134.55 104,151.36 105,134.55 106,117.73 107,117.73 108,151.36 109,117.73 111,117.73 112,134.55 113,218.64 114,151.36 115,117.73 116,84.09 117,100.91 118,117.73 119,151.36 120,117.73 121,100.91 122,100.91 123,117.73 124,134.55 125,117.73 126,117.73 127,168.18 128,168.18 129,100.91 130,134.55 131,218.64 132,100.91 133,218.64 134,302.73 134.83,370"><title>LR761643.1</title></polygon><rect class="average" height="1" width="134.83" x="0" y="152.37"><title>average:12.94</title></rect><rect class="median" height="1" width="134.83" x="0" y="151.36"><title>median:13</title></rect><text class="chromName" x="67.42" y="-12">LR761643.1<title>LR761643.1 57,541,580 bp</title></text><rect class="frame" height="370" width="134.83" x="0" y="0"/></g><g><line class="ruler" x1="-2" x2="1390" y1="333" y2="333"><title>2</title></line><text class="ruler" x="-5" y="333">2</text><line class="ruler" x1="-2" x2="1390" y1="296" y2="296"><title>4</title></line><text class="ruler" x="-5" y="296">4</text><line class="ruler" x1="-2" x2="1390" y1="259" y2="259"><title>6</title></line><text class="ruler" x="-5" y="259">6</text><line class="ruler" x1="-2" x2="1390" y1="222" y2="222"><title>8</title></line><text class="ruler" x="-5" y="222">8</text><line class="ruler" x1="-2" x2="1390" y1="185" y2="185"><title>11</title></line><text class="ruler" x="-5" y="185">11</text><line class="ruler" x1="-2" x2="1390" y1="148" y2="148"><title>13</title></line><text class="ruler" x="-5" y="148">13</text><line class="ruler" x1="-2" x2="1390" y1="111" y2="111"><title>15</title></line><text class="ruler" x="-5" y="111">15</text><line class="ruler" x1="-2" x2="1390" y1="74" y2="74"><title>17</title></line><text class="ruler" x="-5" y="74">17</text><line class="ruler" x1="-2" x2="1390" y1="37" y2="37"><title>19</title></line><text class="ruler" x="-5" y="37">19</text><line class="ruler" x1="-2" x2="1390" y1="0" y2="0"><title>22</title></line><text class="ruler" x="-5" y="0">22</text></g></g><text class="title" x="795" y="40">F7_M8_24.merged.realigned.bam F7_M8_24 F7_M8_24_1 F7_M8_24_2<title>./F7_M8_24.merged.realigned.bam</title></text><text class="xLabel" x="795" y="475">GCA_902806645.1_cgigas_uk_roslin_v1_genomic.fna  (589,358,857 bp)<title>../ref/GCA_902806645.1_cgigas_uk_roslin_v1_genomic.fna</title></text><text class="yLabel" transform="translate(25,265) rotate(90)" x="0" y="0">Coverage bp (median)</text></g></svg>