<?xml version="1.0" encoding="UTF-8" standalone="no"?><svg height="500" width="1500" xmlns="http://www.w3.org/2000/svg"><title>F7_M7_24.merged.realigned.bam</title><desc>Made with wgscoverageplotter undefined Author: Pierre Lindenbaum</desc><style>g.maing {stroke:black;stroke-width:0.5px;fill:none;}
text.title {stroke:none;fill:black;stroke-width:1px;text-anchor:middle;}
rect.frame {stroke:darkgray;fill:none;stroke-width:0.5px;}
text.ruler {stroke:none;fill:darkgray;stroke-width:1px;text-anchor:end;}
text.chromName {stroke:none;fill:darkgray;stroke-width:1px;text-anchor:middle;}
text.xLabel {stroke:none;fill:black;stroke-width:1px;text-anchor:middle;}
text.yLabel {stroke:none;fill:black;stroke-width:1px;text-anchor:middle;}
.cov0 {stroke:gray;fill:antiquewhite;stroke-width:0.5px;}
.cov1 {stroke:gray;fill:beige;stroke-width:0.5px;}
rect.average {stroke:green;fill:green;stroke-width:0.5px;opacity:0.3;}
rect.median {stroke:red;fill:red;stroke-width:0.5px;opacity:0.3;}
line.ruler {stroke:darkgray;stroke-dasharray:4;fill:none;stroke-width:1;}
</style><g class="maing"><g id="chromosomes" transform="translate(100.0,80.0)"><g id="chrom-LR761634.1" transform="translate(10.0,0)"><polygon class="cov0" points="0,370 0,323.75 1,123.33 2,169.58 3,277.5 4,246.67 5,169.58 6,262.08 7,200.42 8,154.17 9,123.33 10,154.17 11,107.92 12,154.17 13,231.25 14,277.5 15,123.33 16,123.33 17,215.83 18,123.33 19,123.33 20,107.92 21,138.75 22,138.75 23,154.17 24,154.17 25,107.92 26,107.92 27,123.33 28,123.33 29,107.92 30,123.33 31,123.33 32,262.08 33,107.92 34,123.33 35,138.75 36,107.92 37,185 38,200.42 39,138.75 40,123.33 41,107.92 42,123.33 43,169.58 44,154.17 45,185 46,169.58 47,138.75 50,138.75 51,123.33 52,107.92 53,123.33 54,185 55,215.83 56,107.92 57,92.5 58,123.33 59,138.75 60,138.75 61,107.92 62,138.75 63,169.58 64,200.42 65,169.58 66,138.75 67,185 68,107.92 69,200.42 70,123.33 71,107.92 72,200.42 73,169.58 74,138.75 75,123.33 76,123.33 77,185 78,154.17 79,138.75 80,323.75 81,262.08 82,107.92 83,123.33 84,138.75 85,123.33 86,107.92 87,185 88,107.92 89,262.08 90,154.17 91,138.75 92,123.33 93,154.17 94,107.92 96,107.92 97,154.17 98,308.33 99,138.75 100,138.75 101,185 102,154.17 103,154.17 104,169.58 105,107.92 106,215.83 107,200.42 108,262.08 109,107.92 110,107.92 111,138.75 112,123.33 113,154.17 114,292.92 115,200.42 116,107.92 117,123.33 118,107.92 119,154.17 120,200.42 121,123.33 122,138.75 123,107.92 124,138.75 125,138.75 126,123.33 127,138.75 128,200.42 129,185 130,231.25 130.72,370"><title>LR761634.1</title></polygon><rect class="average" height="1" width="130.72" x="0" y="150"><title>average:14.27</title></rect><rect class="median" height="1" width="130.72" x="0" y="138.75"><title>median:15</title></rect><text class="chromName" x="65.36" y="-12">LR761634.1<title>LR761634.1 55,785,328 bp</title></text><rect class="frame" height="370" width="130.72" x="0" y="0"/></g><g id="chrom-LR761635.1" transform="translate(141.71753661284166,0)"><polygon class="cov1" points="0,370 0,323.75 1,354.58 2,323.75 3,262.08 4,339.17 5,370 6,277.5 7,308.33 8,308.33 9,215.83 10,200.42 11,262.08 12,231.25 13,169.58 14,200.42 15,308.33 16,323.75 17,215.83 18,277.5 19,246.67 20,277.5 22,277.5 23,262.08 24,277.5 25,308.33 26,277.5 27,323.75 28,339.17 29,323.75 30,339.17 31,292.92 32,246.67 33,215.83 35,215.83 36,277.5 37,339.17 38,323.75 39,138.75 40,154.17 41,185 43,185 44,123.33 45,169.58 46,215.83 47,154.17 48,246.67 49,169.58 50,200.42 51,277.5 52,215.83 53,262.08 54,323.75 55,262.08 56,292.92 57,292.92 58,169.58 59,292.92 60,308.33 61,277.5 62,185 63,292.92 64,292.92 65,246.67 66,262.08 67,277.5 68,246.67 69,292.92 70,246.67 71,215.83 72,231.25 73,215.83 74,246.67 75,231.25 76,308.33 77,0 78,231.25 79,292.92 80,169.58 81,308.33 82,308.33 83,292.92 84,339.17 85,308.33 86,339.17 87,354.58 88,339.17 89,354.58 90,277.5 91,292.92 92,323.75 93,323.75 94,277.5 95,292.92 96,339.17 97,308.33 98,323.75 99,323.75 100,292.92 101,323.75 102,308.33 103,231.25 104,246.67 105,231.25 106,292.92 107,262.08 108,200.42 109,215.83 110,292.92 111,200.42 112,370 113,339.17 114,308.33 115,323.75 116,308.33 117,277.5 118,185 119,185 120,123.33 121,215.83 122,231.25 123,246.67 124,246.67 125,138.75 126,262.08 127,292.92 128,200.42 129,308.33 130,169.58 131,246.67 132,231.25 133,246.67 134,308.33 135,308.33 136,323.75 137,323.75 138,308.33 139,246.67 140,323.75 141,308.33 143,308.33 144,277.5 145,215.83 146,277.5 147,107.92 148,169.58 149,138.75 150,231.25 151,277.5 152,339.17 153,215.83 154,277.5 155,215.83 156,262.08 157,231.25 158,292.92 159,169.58 160,292.92 161,231.25 162,323.75 163,292.92 164,262.08 165,277.5 166,323.75 167,323.75 168,308.33 169,292.92 170,292.92 171,308.33 171.58,370"><title>LR761635.1</title></polygon><rect class="average" height="1" width="171.58" x="0" y="212.94"><title>average:10.19</title></rect><rect class="median" height="1" width="171.58" x="0" y="277.5"><title>median:6</title></rect><text class="chromName" x="85.79" y="-12">LR761635.1<title>LR761635.1 73,222,313 bp</title></text><rect class="frame" height="370" width="171.58" x="0" y="0"/></g><g id="chrom-LR761636.1" transform="translate(314.2938403401308,0)"><polygon class="cov0" points="0,370 0,339.17 1,169.58 2,246.67 3,308.33 4,215.83 5,154.17 6,154.17 7,185 8,107.92 9,154.17 10,123.33 11,123.33 12,138.75 13,231.25 14,107.92 15,138.75 16,123.33 17,107.92 18,138.75 19,154.17 20,123.33 22,123.33 23,107.92 24,200.42 25,123.33 26,200.42 27,246.67 28,107.92 33,107.92 34,138.75 35,169.58 36,138.75 37,154.17 38,138.75 39,123.33 40,154.17 41,154.17 42,138.75 45,138.75 46,169.58 47,123.33 48,200.42 49,138.75 50,169.58 51,123.33 53,123.33 54,215.83 55,169.58 56,154.17 57,123.33 58,154.17 59,123.33 60,154.17 61,215.83 62,154.17 63,123.33 64,123.33 65,154.17 66,138.75 67,138.75 68,154.17 69,154.17 70,200.42 71,92.5 72,107.92 73,169.58 74,138.75 75,154.17 76,308.33 77,185 78,231.25 79,246.67 80,277.5 81,123.33 82,215.83 83,138.75 84,107.92 85,138.75 86,215.83 87,154.17 88,138.75 89,200.42 90,138.75 91,107.92 92,185 93,138.75 94,123.33 95,185 96,185 97,123.33 98,138.75 99,154.17 100,154.17 101,169.58 102,154.17 103,107.92 104,123.33 105,123.33 106,138.75 107,123.33 108,107.92 109,123.33 110,123.33 111,154.17 112,138.75 113,154.17 114,107.92 116,107.92 117,123.33 118,154.17 119,123.33 120,123.33 121,231.25 122,107.92 123,107.92 124,169.58 125,107.92 126,107.92 127,215.83 128,231.25 129,123.33 130,138.75 131,169.58 132,154.17 133,138.75 134,123.33 135,138.75 136,308.33 136.65,370"><title>LR761636.1</title></polygon><rect class="average" height="1" width="136.65" x="0" y="149.02"><title>average:14.33</title></rect><rect class="median" height="1" width="136.65" x="0" y="138.75"><title>median:15</title></rect><text class="chromName" x="68.33" y="-12">LR761636.1<title>LR761636.1 58,319,100 bp</title></text><rect class="frame" height="370" width="136.65" x="0" y="0"/></g><g id="chrom-LR761637.1" transform="translate(451.9485730949149,0)"><polygon class="cov1" points="0,370 0,354.58 1,277.5 2,292.92 3,246.67 4,231.25 5,169.58 6,215.83 7,246.67 8,246.67 9,308.33 10,277.5 11,154.17 12,231.25 13,277.5 14,292.92 15,138.75 16,231.25 17,107.92 18,292.92 19,292.92 20,262.08 21,154.17 22,154.17 23,246.67 24,308.33 25,138.75 26,138.75 27,231.25 28,215.83 29,262.08 30,277.5 31,138.75 32,154.17 33,154.17 34,107.92 35,200.42 36,277.5 37,215.83 38,154.17 39,138.75 40,138.75 41,308.33 42,231.25 43,262.08 44,323.75 45,200.42 46,138.75 47,123.33 48,107.92 49,123.33 50,185 51,123.33 52,92.5 53,154.17 54,92.5 55,123.33 56,138.75 57,200.42 58,277.5 59,308.33 60,292.92 61,215.83 62,123.33 63,138.75 64,123.33 65,138.75 67,138.75 68,169.58 69,107.92 70,138.75 71,138.75 72,169.58 73,123.33 74,154.17 75,138.75 76,123.33 77,154.17 78,154.17 79,200.42 80,154.17 81,154.17 82,123.33 83,138.75 84,138.75 85,123.33 86,200.42 87,138.75 88,123.33 89,123.33 90,107.92 91,123.33 92,123.33 93,154.17 94,185 95,200.42 96,169.58 97,123.33 98,107.92 99,107.92 100,277.5 101,292.92 102,277.5 103,323.75 104,308.33 105,246.67 106,123.33 107,107.92 108,107.92 109,123.33 110,107.92 111,123.33 112,138.75 113,107.92 114,277.5 115,200.42 116,185 117,169.58 118,138.75 119,277.5 120,169.58 121,123.33 122,292.92 123,323.75 124,323.75 124.49,370"><title>LR761637.1</title></polygon><rect class="average" height="1" width="124.49" x="0" y="172.08"><title>average:12.84</title></rect><rect class="median" height="1" width="124.49" x="0" y="185"><title>median:12</title></rect><text class="chromName" x="62.25" y="-12">LR761637.1<title>LR761637.1 53,127,865 bp</title></text><rect class="frame" height="370" width="124.49" x="0" y="0"/></g><g id="chrom-LR761638.1" transform="translate(577.4390778079033,0)"><polygon class="cov0" points="0,370 0,138.75 1,15.42 2,215.83 3,138.75 4,246.67 5,154.17 6,200.42 7,200.42 8,185 9,123.33 10,154.17 11,308.33 12,123.33 13,169.58 14,123.33 15,154.17 16,154.17 17,123.33 18,246.67 19,339.17 20,138.75 21,200.42 22,123.33 23,107.92 24,123.33 25,169.58 26,354.58 27,107.92 28,169.58 29,323.75 30,246.67 31,138.75 32,354.58 33,354.58 34,185 35,215.83 36,154.17 37,323.75 38,292.92 39,339.17 40,339.17 41,277.5 42,246.67 43,138.75 44,154.17 45,262.08 46,200.42 47,107.92 48,123.33 49,231.25 50,339.17 51,231.25 52,185 53,185 54,246.67 55,246.67 56,154.17 57,231.25 58,138.75 59,200.42 60,154.17 61,215.83 62,169.58 63,308.33 65,308.33 66,200.42 67,215.83 68,169.58 69,292.92 70,154.17 71,339.17 72,354.58 73,292.92 74,262.08 75,323.75 76,339.17 77,231.25 78,370 79,292.92 80,262.08 81,200.42 82,339.17 83,323.75 84,308.33 85,185 86,154.17 87,169.58 88,308.33 89,138.75 90,277.5 91,154.17 92,123.33 93,123.33 94,138.75 95,215.83 96,308.33 97,138.75 98,308.33 99,200.42 100,200.42 101,169.58 102,308.33 103,185 104,277.5 105,292.92 106,246.67 107,185 108,262.08 109,169.58 110,231.25 111,185 112,323.75 113,231.25 114,231.25 115,277.5 116,339.17 117,354.58 118,339.17 119,308.33 120,292.92 121,323.75 122,339.17 123,354.58 124,292.92 125,308.33 126,308.33 127,246.67 128,354.58 129,308.33 130,323.75 131,339.17 132,262.08 133,339.17 134,292.92 135,323.75 136,154.17 137,370 138,354.58 139,262.08 140,354.58 141,354.58 142,323.75 143,262.08 144,154.17 145,200.42 146,185 147,138.75 148,138.75 149,169.58 150,200.42 151,292.92 152,185 153,138.75 154,246.67 155,292.92 156,215.83 157,308.33 158,308.33 159,292.92 160,308.33 161,308.33 162,262.08 163,308.33 164,339.17 165,354.58 166,323.75 167,370 168,354.58 169,246.67 170,370 171,370 172,323.75 172.35,370"><title>LR761638.1</title></polygon><rect class="average" height="1" width="172.35" x="0" y="207.78"><title>average:10.52</title></rect><rect class="median" height="1" width="172.35" x="0" y="246.67"><title>median:8</title></rect><text class="chromName" x="86.17" y="-12">LR761638.1<title>LR761638.1 73,550,375 bp</title></text><rect class="frame" height="370" width="172.35" x="0" y="0"/></g><g id="chrom-LR761639.1" transform="translate(750.784104388203,0)"><polygon class="cov1" points="0,370 0,308.33 1,169.58 2,154.17 3,277.5 4,154.17 5,215.83 6,339.17 7,292.92 8,138.75 9,123.33 10,154.17 11,246.67 12,246.67 13,123.33 14,138.75 15,123.33 16,123.33 17,107.92 18,123.33 19,107.92 20,107.92 21,123.33 22,154.17 23,154.17 24,169.58 25,200.42 26,169.58 27,323.75 28,339.17 29,185 30,308.33 31,123.33 32,154.17 33,123.33 34,200.42 35,185 36,200.42 37,123.33 38,138.75 39,123.33 40,246.67 41,123.33 42,138.75 43,107.92 44,138.75 45,107.92 46,154.17 47,123.33 48,123.33 49,154.17 50,154.17 51,123.33 52,185 53,138.75 54,154.17 55,123.33 61,123.33 62,138.75 63,123.33 64,107.92 65,123.33 66,154.17 67,138.75 68,123.33 69,169.58 70,138.75 72,138.75 73,123.33 74,231.25 75,123.33 76,123.33 77,138.75 78,123.33 79,123.33 80,138.75 81,123.33 83,123.33 84,185 85,138.75 86,107.92 87,123.33 88,107.92 89,123.33 90,107.92 91,138.75 92,123.33 93,138.75 94,138.75 95,123.33 96,138.75 97,107.92 98,107.92 99,123.33 100,123.33 101,107.92 102,107.92 103,123.33 104,92.5 105,107.92 106,215.83 107,107.92 109,107.92 110,123.33 111,277.5 112,154.17 113,107.92 114,169.58 115,107.92 116,138.75 117,123.33 118,123.33 119,107.92 120,138.75 121,107.92 122,107.92 123,123.33 124,154.17 125,138.75 126,123.33 127,123.33 128,138.75 129,123.33 130,185 131,154.17 132,169.58 133,339.17 134,123.33 135,169.58 136,138.75 137,154.17 138,231.25 139,185 140,339.17 140.95,370"><title>LR761639.1</title></polygon><rect class="average" height="1" width="140.95" x="0" y="146.79"><title>average:14.48</title></rect><rect class="median" height="1" width="140.95" x="0" y="138.75"><title>median:15</title></rect><text class="chromName" x="70.47" y="-12">LR761639.1<title>LR761639.1 60,151,564 bp</title></text><rect class="frame" height="370" width="140.95" x="0" y="0"/></g><g id="chrom-LR761640.1" transform="translate(892.7327113317651,0)"><polygon class="cov0" points="0,370 0,200.42 1,123.33 2,200.42 3,169.58 4,169.58 5,123.33 6,185 7,185 8,123.33 9,185 10,138.75 11,138.75 12,107.92 13,292.92 14,154.17 15,123.33 16,215.83 17,138.75 18,123.33 19,215.83 20,123.33 22,123.33 23,107.92 24,123.33 25,154.17 26,107.92 27,123.33 28,138.75 29,123.33 30,123.33 31,138.75 32,123.33 33,107.92 34,138.75 35,123.33 36,138.75 37,200.42 38,107.92 39,169.58 40,107.92 41,107.92 42,77.08 43,107.92 44,107.92 45,138.75 46,138.75 47,246.67 48,308.33 49,123.33 50,154.17 51,123.33 52,107.92 53,138.75 54,107.92 55,123.33 56,107.92 57,215.83 58,154.17 59,169.58 60,246.67 61,123.33 62,138.75 63,169.58 64,123.33 65,292.92 66,123.33 67,138.75 68,138.75 69,185 70,169.58 71,123.33 72,169.58 73,200.42 74,169.58 75,123.33 76,123.33 77,215.83 78,123.33 79,169.58 80,92.5 81,77.08 82,92.5 83,123.33 84,123.33 85,92.5 86,354.58 87,138.75 88,138.75 89,154.17 90,154.17 91,231.25 92,262.08 93,185 94,231.25 95,154.17 96,138.75 97,123.33 98,138.75 99,123.33 100,107.92 101,154.17 102,339.17 103,246.67 104,123.33 105,123.33 106,107.92 107,169.58 108,215.83 109,123.33 110,169.58 111,185 112,138.75 113,138.75 114,169.58 115,123.33 116,308.33 117,339.17 118,354.58 119,323.75 120,138.75 121,107.92 122,138.75 123,123.33 124,123.33 125,107.92 126,123.33 127,123.33 128,200.42 129,138.75 130,107.92 131,107.92 132,138.75 133,123.33 134,92.5 135,77.08 136,123.33 138,123.33 139,169.58 140,138.75 141,123.33 142,169.58 143,246.67 144,123.33 145,123.33 145.53,370"><title>LR761640.1</title></polygon><rect class="average" height="1" width="145.53" x="0" y="149.88"><title>average:14.28</title></rect><rect class="median" height="1" width="145.53" x="0" y="138.75"><title>median:15</title></rect><text class="chromName" x="72.77" y="-12">LR761640.1<title>LR761640.1 62,107,823 bp</title></text><rect class="frame" height="370" width="145.53" x="0" y="0"/></g><g id="chrom-LR761641.1" transform="translate(1039.265271917344,0)"><polygon class="cov1" points="0,370 0,308.33 1,185 2,200.42 3,215.83 4,231.25 5,185 6,308.33 7,262.08 8,215.83 9,154.17 10,107.92 11,231.25 12,200.42 13,138.75 14,215.83 15,107.92 16,123.33 17,185 18,123.33 20,123.33 21,138.75 22,231.25 23,154.17 24,185 25,169.58 26,231.25 27,200.42 28,231.25 29,262.08 30,231.25 31,185 32,262.08 33,246.67 34,292.92 35,292.92 36,339.17 37,262.08 38,262.08 39,246.67 40,200.42 41,215.83 42,323.75 43,339.17 44,262.08 45,200.42 46,231.25 47,262.08 48,277.5 49,138.75 50,169.58 51,138.75 52,123.33 54,123.33 55,107.92 56,107.92 57,154.17 58,185 59,169.58 60,138.75 61,277.5 62,138.75 63,169.58 64,185 65,169.58 66,215.83 67,231.25 68,246.67 69,154.17 70,231.25 71,123.33 72,200.42 73,277.5 74,231.25 75,308.33 76,215.83 77,246.67 78,169.58 79,215.83 80,277.5 81,354.58 82,354.58 83,308.33 84,154.17 85,154.17 86,262.08 87,107.92 88,231.25 89,185 90,277.5 91,246.67 92,123.33 93,215.83 94,246.67 95,185 96,185 97,323.75 98,138.75 99,370 100,262.08 101,138.75 102,185 103,123.33 104,169.58 105,123.33 106,277.5 107,123.33 108,138.75 109,154.17 110,138.75 111,292.92 112,154.17 113,262.08 114,154.17 115,169.58 116,123.33 117,169.58 118,154.17 119,200.42 120,185 121,169.58 122,154.17 123,215.83 124,154.17 125,200.42 126,231.25 127,123.33 128,231.25 129,185 130,262.08 131,215.83 132,323.75 133,277.5 134,169.58 135,354.58 136,339.17 136.99,370"><title>LR761641.1</title></polygon><rect class="average" height="1" width="136.99" x="0" y="182.19"><title>average:12.18</title></rect><rect class="median" height="1" width="136.99" x="0" y="200.42"><title>median:11</title></rect><text class="chromName" x="68.5" y="-12">LR761641.1<title>LR761641.1 58,462,999 bp</title></text><rect class="frame" height="370" width="136.99" x="0" y="0"/></g><g id="chrom-LR761642.1" transform="translate(1177.25719230686,0)"><polygon class="cov0" points="0,370 0,323.75 1,308.33 2,308.33 3,231.25 4,292.92 5,308.33 6,277.5 7,277.5 8,292.92 9,308.33 10,277.5 11,200.42 12,277.5 13,138.75 14,215.83 15,215.83 16,308.33 17,262.08 18,292.92 19,200.42 20,185 21,169.58 22,292.92 23,277.5 24,169.58 25,123.33 26,154.17 27,185 28,262.08 29,154.17 30,246.67 31,138.75 32,154.17 33,231.25 34,154.17 35,200.42 36,138.75 37,138.75 38,123.33 39,200.42 40,123.33 41,138.75 42,123.33 43,138.75 44,138.75 45,154.17 46,154.17 47,246.67 48,154.17 49,262.08 50,154.17 51,138.75 52,215.83 53,123.33 54,138.75 55,231.25 56,169.58 57,215.83 58,231.25 59,138.75 60,154.17 61,339.17 62,169.58 63,169.58 64,200.42 65,169.58 66,169.58 67,339.17 68,231.25 69,154.17 70,154.17 71,262.08 72,154.17 73,215.83 74,154.17 75,200.42 76,308.33 77,138.75 78,154.17 79,231.25 80,246.67 81,185 82,308.33 83,262.08 84,292.92 85,215.83 86,308.33 86.91,370"><title>LR761642.1</title></polygon><rect class="average" height="1" width="86.91" x="0" y="169.9"><title>average:12.98</title></rect><rect class="median" height="1" width="86.91" x="0" y="200.42"><title>median:11</title></rect><text class="chromName" x="43.45" y="-12">LR761642.1<title>LR761642.1 37,089,910 bp</title></text><rect class="frame" height="370" width="86.91" x="0" y="0"/></g><g id="chrom-LR761643.1" transform="translate(1265.1671710093603,0)"><polygon class="cov1" points="0,370 0,339.17 1,277.5 2,169.58 3,123.33 4,154.17 5,231.25 6,169.58 7,169.58 8,138.75 9,107.92 10,123.33 11,154.17 12,123.33 13,185 14,231.25 15,138.75 16,107.92 17,154.17 19,154.17 20,354.58 21,154.17 22,123.33 23,123.33 24,215.83 25,154.17 26,354.58 27,292.92 28,262.08 29,123.33 30,215.83 31,138.75 32,231.25 33,123.33 34,138.75 35,200.42 36,231.25 37,123.33 38,123.33 39,107.92 40,123.33 41,154.17 42,154.17 43,262.08 44,138.75 45,185 46,123.33 47,200.42 48,154.17 49,138.75 50,185 51,123.33 52,123.33 53,154.17 54,154.17 55,123.33 57,123.33 58,138.75 59,123.33 60,107.92 61,123.33 62,154.17 63,138.75 64,154.17 65,200.42 66,138.75 68,138.75 69,123.33 70,138.75 71,231.25 72,185 73,200.42 74,123.33 75,215.83 76,138.75 77,107.92 78,200.42 79,246.67 80,123.33 81,107.92 82,138.75 83,123.33 84,107.92 85,123.33 86,138.75 87,107.92 88,169.58 89,339.17 90,169.58 91,123.33 92,107.92 93,138.75 94,107.92 95,138.75 96,107.92 99,107.92 100,123.33 101,215.83 102,123.33 103,138.75 104,138.75 105,123.33 106,107.92 107,107.92 108,138.75 109,107.92 111,107.92 112,123.33 113,200.42 114,138.75 115,123.33 116,92.5 117,107.92 118,123.33 119,154.17 120,107.92 123,107.92 124,123.33 126,123.33 127,169.58 128,169.58 129,123.33 130,169.58 131,231.25 132,123.33 133,231.25 134,308.33 134.83,370"><title>LR761643.1</title></polygon><rect class="average" height="1" width="134.83" x="0" y="152.4"><title>average:14.11</title></rect><rect class="median" height="1" width="134.83" x="0" y="138.75"><title>median:15</title></rect><text class="chromName" x="67.42" y="-12">LR761643.1<title>LR761643.1 57,541,580 bp</title></text><rect class="frame" height="370" width="134.83" x="0" y="0"/></g><g><line class="ruler" x1="-2" x2="1390" y1="333" y2="333"><title>2</title></line><text class="ruler" x="-5" y="333">2</text><line class="ruler" x1="-2" x2="1390" y1="296" y2="296"><title>4</title></line><text class="ruler" x="-5" y="296">4</text><line class="ruler" x1="-2" x2="1390" y1="259" y2="259"><title>7</title></line><text class="ruler" x="-5" y="259">7</text><line class="ruler" x1="-2" x2="1390" y1="222" y2="222"><title>9</title></line><text class="ruler" x="-5" y="222">9</text><line class="ruler" x1="-2" x2="1390" y1="185" y2="185"><title>12</title></line><text class="ruler" x="-5" y="185">12</text><line class="ruler" x1="-2" x2="1390" y1="148" y2="148"><title>14</title></line><text class="ruler" x="-5" y="148">14</text><line class="ruler" x1="-2" x2="1390" y1="111" y2="111"><title>16</title></line><text class="ruler" x="-5" y="111">16</text><line class="ruler" x1="-2" x2="1390" y1="74" y2="74"><title>19</title></line><text class="ruler" x="-5" y="74">19</text><line class="ruler" x1="-2" x2="1390" y1="37" y2="37"><title>21</title></line><text class="ruler" x="-5" y="37">21</text><line class="ruler" x1="-2" x2="1390" y1="0" y2="0"><title>24</title></line><text class="ruler" x="-5" y="0">24</text></g></g><text class="title" x="795" y="40">F7_M7_24.merged.realigned.bam F7_M7_24 F7_M7_24_1 F7_M7_24_2<title>./F7_M7_24.merged.realigned.bam</title></text><text class="xLabel" x="795" y="475">GCA_902806645.1_cgigas_uk_roslin_v1_genomic.fna  (589,358,857 bp)<title>../ref/GCA_902806645.1_cgigas_uk_roslin_v1_genomic.fna</title></text><text class="yLabel" transform="translate(25,265) rotate(90)" x="0" y="0">Coverage bp (median)</text></g></svg>