<?xml version="1.0" encoding="UTF-8" standalone="no"?><svg height="500" width="1500" xmlns="http://www.w3.org/2000/svg"><title>F7_M7_14.merged.realigned.bam</title><desc>Made with wgscoverageplotter undefined Author: Pierre Lindenbaum</desc><style>g.maing {stroke:black;stroke-width:0.5px;fill:none;}
text.title {stroke:none;fill:black;stroke-width:1px;text-anchor:middle;}
rect.frame {stroke:darkgray;fill:none;stroke-width:0.5px;}
text.ruler {stroke:none;fill:darkgray;stroke-width:1px;text-anchor:end;}
text.chromName {stroke:none;fill:darkgray;stroke-width:1px;text-anchor:middle;}
text.xLabel {stroke:none;fill:black;stroke-width:1px;text-anchor:middle;}
text.yLabel {stroke:none;fill:black;stroke-width:1px;text-anchor:middle;}
.cov0 {stroke:gray;fill:antiquewhite;stroke-width:0.5px;}
.cov1 {stroke:gray;fill:beige;stroke-width:0.5px;}
rect.average {stroke:green;fill:green;stroke-width:0.5px;opacity:0.3;}
rect.median {stroke:red;fill:red;stroke-width:0.5px;opacity:0.3;}
line.ruler {stroke:darkgray;stroke-dasharray:4;fill:none;stroke-width:1;}
</style><g class="maing"><g id="chromosomes" transform="translate(100.0,80.0)"><g id="chrom-LR761634.1" transform="translate(10.0,0)"><polygon class="cov0" points="0,370 0,308.33 1,123.33 2,154.17 3,277.5 4,215.83 5,185 6,277.5 7,185 8,154.17 9,123.33 10,154.17 11,92.5 12,154.17 13,215.83 14,277.5 15,123.33 16,123.33 17,154.17 18,123.33 19,92.5 20,92.5 21,123.33 22,154.17 23,123.33 24,154.17 25,92.5 27,92.5 28,123.33 29,92.5 31,92.5 32,246.67 33,92.5 34,92.5 35,123.33 36,92.5 37,185 38,154.17 39,154.17 40,92.5 42,92.5 43,154.17 44,154.17 45,185 46,154.17 47,123.33 51,123.33 52,92.5 53,123.33 54,277.5 55,339.17 56,92.5 57,61.67 58,123.33 60,123.33 61,92.5 62,123.33 63,185 64,185 65,154.17 66,123.33 67,185 68,92.5 69,154.17 70,92.5 71,92.5 72,215.83 73,154.17 74,123.33 75,92.5 76,92.5 77,154.17 78,154.17 79,123.33 80,215.83 81,215.83 82,92.5 83,123.33 85,123.33 86,92.5 87,185 88,92.5 89,246.67 90,123.33 92,123.33 93,154.17 94,92.5 95,123.33 96,92.5 97,154.17 98,277.5 99,123.33 100,123.33 101,185 102,154.17 103,154.17 104,185 105,92.5 106,215.83 107,185 108,246.67 109,92.5 110,92.5 111,123.33 113,123.33 114,277.5 115,185 116,92.5 117,123.33 118,123.33 119,154.17 120,154.17 121,123.33 122,154.17 123,123.33 127,123.33 128,185 129,185 130,246.67 130.72,370"><title>LR761634.1</title></polygon><rect class="average" height="1" width="130.72" x="0" y="129.56"><title>average:7.8</title></rect><rect class="median" height="1" width="130.72" x="0" y="123.33"><title>median:8</title></rect><text class="chromName" x="65.36" y="-12">LR761634.1<title>LR761634.1 55,785,328 bp</title></text><rect class="frame" height="370" width="130.72" x="0" y="0"/></g><g id="chrom-LR761635.1" transform="translate(141.71753661284166,0)"><polygon class="cov1" points="0,370 0,339.17 2,339.17 3,308.33 4,339.17 5,339.17 6,215.83 7,308.33 8,308.33 9,215.83 10,185 11,277.5 12,154.17 13,123.33 14,185 15,308.33 16,308.33 17,215.83 18,277.5 19,185 20,277.5 22,277.5 23,215.83 24,277.5 25,339.17 26,308.33 27,308.33 28,277.5 29,370 30,339.17 31,308.33 32,246.67 33,215.83 35,215.83 36,246.67 37,308.33 38,339.17 39,154.17 40,185 41,185 42,154.17 43,215.83 44,123.33 45,154.17 46,215.83 47,123.33 48,215.83 49,154.17 50,185 51,246.67 52,215.83 53,277.5 54,339.17 55,246.67 56,277.5 57,277.5 58,185 59,277.5 60,370 61,277.5 62,123.33 63,277.5 65,277.5 66,308.33 67,277.5 68,246.67 69,277.5 70,277.5 71,215.83 75,215.83 76,339.17 77,0 78,246.67 79,277.5 80,185 81,277.5 83,277.5 84,308.33 85,277.5 86,339.17 87,370 88,339.17 89,370 90,246.67 91,339.17 92,308.33 93,246.67 94,277.5 95,277.5 96,339.17 97,277.5 98,308.33 99,308.33 100,246.67 101,308.33 102,308.33 103,246.67 104,246.67 105,185 106,215.83 107,246.67 108,185 109,185 110,339.17 111,185 112,339.17 113,308.33 114,308.33 115,277.5 117,277.5 118,154.17 119,154.17 120,123.33 121,215.83 122,246.67 124,246.67 125,154.17 126,215.83 127,308.33 128,215.83 129,215.83 130,154.17 131,277.5 132,215.83 133,246.67 134,308.33 135,277.5 136,277.5 137,339.17 138,308.33 139,277.5 140,339.17 141,308.33 142,277.5 143,339.17 144,277.5 145,215.83 146,246.67 147,92.5 148,154.17 149,123.33 150,215.83 151,277.5 152,339.17 153,215.83 154,277.5 155,308.33 156,308.33 157,215.83 158,277.5 159,154.17 160,246.67 161,246.67 162,308.33 163,277.5 164,246.67 165,277.5 166,308.33 167,339.17 168,308.33 169,277.5 170,277.5 171,308.33 171.58,370"><title>LR761635.1</title></polygon><rect class="average" height="1" width="171.58" x="0" y="197.08"><title>average:5.61</title></rect><rect class="median" height="1" width="171.58" x="0" y="277.5"><title>median:3</title></rect><text class="chromName" x="85.79" y="-12">LR761635.1<title>LR761635.1 73,222,313 bp</title></text><rect class="frame" height="370" width="171.58" x="0" y="0"/></g><g id="chrom-LR761636.1" transform="translate(314.2938403401308,0)"><polygon class="cov0" points="0,370 0,339.17 1,123.33 2,215.83 3,277.5 4,246.67 5,154.17 6,123.33 7,123.33 8,92.5 9,123.33 12,123.33 13,277.5 14,92.5 15,154.17 16,123.33 17,92.5 18,154.17 19,154.17 20,123.33 22,123.33 23,92.5 24,215.83 25,123.33 26,215.83 27,246.67 28,92.5 33,92.5 34,123.33 35,215.83 36,123.33 37,154.17 38,123.33 39,92.5 40,185 41,154.17 42,154.17 43,123.33 45,123.33 46,154.17 47,92.5 48,185 49,123.33 50,154.17 51,92.5 52,123.33 53,123.33 54,246.67 55,154.17 56,154.17 57,92.5 58,154.17 59,92.5 60,154.17 61,215.83 62,154.17 63,123.33 64,92.5 65,123.33 67,123.33 68,154.17 69,123.33 70,185 71,61.67 72,61.67 73,154.17 74,123.33 75,123.33 76,308.33 77,215.83 78,185 79,246.67 80,246.67 81,123.33 82,185 83,123.33 84,92.5 85,123.33 86,246.67 87,123.33 88,123.33 89,185 90,123.33 91,92.5 92,154.17 93,154.17 94,123.33 95,154.17 96,185 97,123.33 98,123.33 99,185 100,154.17 101,123.33 102,154.17 103,92.5 104,92.5 105,123.33 107,123.33 108,92.5 110,92.5 111,154.17 112,123.33 113,154.17 114,92.5 116,92.5 117,123.33 118,154.17 119,92.5 120,92.5 121,185 122,92.5 123,92.5 124,185 125,92.5 126,92.5 127,185 128,246.67 129,92.5 130,123.33 131,92.5 132,154.17 133,154.17 134,123.33 135,123.33 136,308.33 136.65,370"><title>LR761636.1</title></polygon><rect class="average" height="1" width="136.65" x="0" y="126.09"><title>average:7.91</title></rect><rect class="median" height="1" width="136.65" x="0" y="123.33"><title>median:8</title></rect><text class="chromName" x="68.33" y="-12">LR761636.1<title>LR761636.1 58,319,100 bp</title></text><rect class="frame" height="370" width="136.65" x="0" y="0"/></g><g id="chrom-LR761637.1" transform="translate(451.9485730949149,0)"><polygon class="cov1" points="0,370 0,277.5 1,246.67 2,246.67 3,215.83 4,185 5,154.17 6,185 7,246.67 8,154.17 9,246.67 10,339.17 11,154.17 12,215.83 13,246.67 14,308.33 15,185 16,215.83 17,92.5 18,215.83 19,215.83 20,154.17 22,154.17 23,185 24,308.33 25,123.33 26,123.33 27,246.67 28,215.83 29,185 30,277.5 31,154.17 32,154.17 33,123.33 34,92.5 35,185 36,339.17 37,308.33 38,154.17 39,123.33 40,123.33 41,185 42,154.17 43,246.67 44,308.33 45,154.17 46,123.33 47,123.33 48,92.5 49,123.33 50,154.17 51,92.5 52,61.67 53,154.17 54,61.67 55,92.5 56,123.33 57,215.83 58,277.5 59,246.67 60,246.67 61,215.83 62,92.5 63,123.33 67,123.33 68,154.17 69,92.5 70,154.17 71,123.33 72,185 73,92.5 74,185 75,123.33 76,123.33 77,154.17 81,154.17 82,92.5 83,123.33 84,123.33 85,92.5 86,215.83 87,154.17 88,92.5 89,123.33 90,92.5 91,123.33 92,92.5 93,154.17 94,154.17 95,215.83 96,185 97,123.33 98,92.5 99,123.33 100,215.83 101,246.67 103,246.67 104,277.5 105,246.67 106,92.5 108,92.5 109,123.33 110,92.5 111,154.17 112,123.33 113,92.5 114,277.5 115,185 116,154.17 117,154.17 118,123.33 119,339.17 120,185 121,123.33 122,308.33 123,308.33 124,339.17 124.49,370"><title>LR761637.1</title></polygon><rect class="average" height="1" width="124.49" x="0" y="148.68"><title>average:7.18</title></rect><rect class="median" height="1" width="124.49" x="0" y="154.17"><title>median:7</title></rect><text class="chromName" x="62.25" y="-12">LR761637.1<title>LR761637.1 53,127,865 bp</title></text><rect class="frame" height="370" width="124.49" x="0" y="0"/></g><g id="chrom-LR761638.1" transform="translate(577.4390778079033,0)"><polygon class="cov0" points="0,370 0,215.83 1,123.33 2,308.33 3,123.33 4,215.83 5,154.17 6,185 7,185 8,215.83 9,123.33 10,154.17 11,277.5 12,123.33 13,185 14,123.33 15,154.17 16,123.33 17,123.33 18,246.67 19,308.33 20,123.33 21,215.83 22,123.33 23,92.5 24,92.5 25,154.17 26,308.33 27,123.33 28,185 29,246.67 30,185 31,123.33 32,370 33,370 34,185 35,246.67 36,123.33 37,277.5 38,246.67 39,277.5 40,277.5 41,339.17 42,246.67 43,123.33 44,154.17 45,277.5 46,123.33 47,92.5 48,123.33 49,215.83 50,370 51,246.67 52,185 53,185 54,246.67 55,246.67 56,154.17 57,185 58,123.33 59,154.17 60,154.17 61,246.67 62,154.17 63,215.83 64,277.5 65,339.17 66,185 67,185 68,154.17 69,185 70,92.5 71,215.83 72,339.17 73,308.33 74,277.5 75,339.17 76,215.83 77,154.17 78,370 79,277.5 80,277.5 81,185 82,308.33 83,246.67 84,185 85,154.17 86,92.5 87,154.17 88,308.33 89,123.33 90,277.5 91,154.17 92,92.5 93,61.67 94,92.5 95,185 96,277.5 97,154.17 98,215.83 99,185 100,123.33 101,123.33 102,185 103,123.33 104,123.33 105,154.17 106,246.67 107,123.33 108,154.17 109,92.5 110,154.17 111,154.17 112,277.5 113,215.83 114,185 115,246.67 116,308.33 117,339.17 118,370 119,277.5 120,277.5 121,339.17 122,370 123,370 124,277.5 125,308.33 126,339.17 127,246.67 128,277.5 129,215.83 130,246.67 131,246.67 132,277.5 133,308.33 134,215.83 135,277.5 136,154.17 137,370 138,339.17 139,277.5 140,308.33 141,339.17 142,308.33 143,246.67 144,154.17 145,185 146,215.83 147,123.33 148,154.17 149,154.17 150,185 151,308.33 152,185 153,154.17 154,246.67 155,308.33 156,185 157,246.67 158,308.33 159,277.5 160,308.33 161,277.5 163,277.5 164,339.17 165,308.33 166,339.17 167,370 168,277.5 169,215.83 170,246.67 172,246.67 172.35,370"><title>LR761638.1</title></polygon><rect class="average" height="1" width="172.35" x="0" y="182.13"><title>average:6.09</title></rect><rect class="median" height="1" width="172.35" x="0" y="215.83"><title>median:5</title></rect><text class="chromName" x="86.17" y="-12">LR761638.1<title>LR761638.1 73,550,375 bp</title></text><rect class="frame" height="370" width="172.35" x="0" y="0"/></g><g id="chrom-LR761639.1" transform="translate(750.784104388203,0)"><polygon class="cov1" points="0,370 0,339.17 1,154.17 2,123.33 3,246.67 4,154.17 5,246.67 6,339.17 7,215.83 8,154.17 9,92.5 10,123.33 11,246.67 12,308.33 13,92.5 14,123.33 15,92.5 16,123.33 17,92.5 20,92.5 21,123.33 22,154.17 23,154.17 24,185 25,185 26,154.17 27,308.33 28,339.17 29,215.83 30,308.33 31,123.33 33,123.33 34,185 35,215.83 36,215.83 37,123.33 39,123.33 40,215.83 41,123.33 42,123.33 43,92.5 44,123.33 45,92.5 46,123.33 48,123.33 49,154.17 50,154.17 51,92.5 52,154.17 53,123.33 54,123.33 55,92.5 56,92.5 57,123.33 58,123.33 59,92.5 61,92.5 62,123.33 63,123.33 64,61.67 65,92.5 66,154.17 67,123.33 68,92.5 69,154.17 70,123.33 72,123.33 73,92.5 74,185 75,92.5 76,92.5 77,123.33 78,92.5 79,92.5 80,154.17 81,92.5 82,92.5 83,123.33 84,185 85,123.33 86,92.5 90,92.5 91,123.33 92,123.33 93,154.17 94,123.33 96,123.33 97,92.5 99,92.5 100,123.33 101,92.5 102,123.33 103,92.5 104,61.67 105,92.5 106,246.67 107,123.33 108,92.5 110,92.5 111,339.17 112,185 113,92.5 114,154.17 115,92.5 116,123.33 118,123.33 119,92.5 120,154.17 121,92.5 123,92.5 124,154.17 125,123.33 129,123.33 130,185 131,154.17 132,185 133,339.17 134,92.5 135,185 136,154.17 137,154.17 138,185 139,185 140,277.5 140.95,370"><title>LR761639.1</title></polygon><rect class="average" height="1" width="140.95" x="0" y="127.01"><title>average:7.88</title></rect><rect class="median" height="1" width="140.95" x="0" y="123.33"><title>median:8</title></rect><text class="chromName" x="70.47" y="-12">LR761639.1<title>LR761639.1 60,151,564 bp</title></text><rect class="frame" height="370" width="140.95" x="0" y="0"/></g><g id="chrom-LR761640.1" transform="translate(892.7327113317651,0)"><polygon class="cov0" points="0,370 0,215.83 1,123.33 2,185 3,185 4,154.17 5,92.5 6,185 7,185 8,123.33 9,185 10,123.33 12,123.33 13,246.67 14,185 15,123.33 16,215.83 17,123.33 18,92.5 19,185 20,92.5 21,123.33 22,92.5 23,61.67 24,92.5 25,123.33 26,92.5 27,92.5 28,123.33 29,92.5 30,123.33 31,92.5 33,92.5 34,123.33 35,92.5 36,123.33 37,185 38,92.5 39,154.17 40,61.67 41,92.5 42,61.67 43,92.5 44,92.5 45,123.33 46,123.33 47,246.67 48,339.17 49,92.5 50,123.33 51,123.33 52,92.5 53,123.33 54,92.5 56,92.5 57,154.17 58,123.33 59,185 60,277.5 61,92.5 62,154.17 63,154.17 64,92.5 65,246.67 66,92.5 67,123.33 68,123.33 69,185 70,154.17 71,123.33 72,123.33 73,185 74,154.17 75,92.5 76,92.5 77,215.83 78,92.5 79,154.17 80,61.67 81,30.83 82,61.67 83,123.33 84,92.5 85,92.5 86,308.33 87,123.33 88,154.17 89,154.17 90,123.33 91,339.17 92,308.33 93,185 94,277.5 95,123.33 99,123.33 100,92.5 101,215.83 102,339.17 103,246.67 104,92.5 105,92.5 106,123.33 107,154.17 108,215.83 109,92.5 110,154.17 111,185 112,123.33 113,123.33 114,154.17 115,92.5 116,277.5 117,339.17 118,370 119,308.33 120,123.33 121,92.5 123,92.5 124,123.33 125,92.5 127,92.5 128,277.5 129,123.33 130,92.5 131,92.5 132,123.33 133,123.33 134,92.5 135,92.5 136,123.33 138,123.33 139,154.17 140,123.33 141,123.33 142,154.17 143,185 144,123.33 145,123.33 145.53,370"><title>LR761640.1</title></polygon><rect class="average" height="1" width="145.53" x="0" y="128.31"><title>average:7.84</title></rect><rect class="median" height="1" width="145.53" x="0" y="123.33"><title>median:8</title></rect><text class="chromName" x="72.77" y="-12">LR761640.1<title>LR761640.1 62,107,823 bp</title></text><rect class="frame" height="370" width="145.53" x="0" y="0"/></g><g id="chrom-LR761641.1" transform="translate(1039.265271917344,0)"><polygon class="cov1" points="0,370 0,246.67 1,215.83 2,246.67 3,185 4,185 5,215.83 6,277.5 7,246.67 8,308.33 9,185 10,154.17 11,185 12,215.83 13,123.33 14,154.17 15,123.33 16,123.33 17,339.17 18,123.33 19,123.33 20,154.17 21,123.33 22,215.83 23,154.17 24,185 25,154.17 26,246.67 27,215.83 28,246.67 29,277.5 30,215.83 31,185 32,246.67 33,215.83 34,277.5 35,277.5 36,339.17 37,277.5 38,277.5 39,246.67 40,185 41,246.67 42,339.17 43,339.17 44,246.67 45,215.83 46,246.67 47,277.5 48,215.83 49,123.33 50,185 51,123.33 52,92.5 56,92.5 57,154.17 58,185 59,123.33 60,123.33 61,246.67 62,154.17 63,185 64,154.17 65,185 66,215.83 67,215.83 68,246.67 69,154.17 70,215.83 71,92.5 72,185 73,339.17 74,215.83 75,308.33 76,215.83 77,215.83 78,154.17 79,215.83 80,246.67 81,370 82,339.17 83,308.33 84,185 85,154.17 86,277.5 87,92.5 88,246.67 89,185 90,277.5 91,215.83 92,123.33 93,246.67 94,308.33 95,246.67 96,154.17 97,246.67 98,123.33 99,370 100,308.33 101,123.33 102,154.17 103,123.33 104,185 105,123.33 106,277.5 107,123.33 108,154.17 109,123.33 110,123.33 111,277.5 112,123.33 113,277.5 114,154.17 115,154.17 116,123.33 117,154.17 118,154.17 119,215.83 120,215.83 121,154.17 122,185 123,246.67 124,154.17 125,215.83 126,246.67 127,123.33 128,215.83 129,185 130,277.5 131,185 132,339.17 133,277.5 134,123.33 135,370 136,339.17 136.99,370"><title>LR761641.1</title></polygon><rect class="average" height="1" width="136.99" x="0" y="170.43"><title>average:6.47</title></rect><rect class="median" height="1" width="136.99" x="0" y="215.83"><title>median:5</title></rect><text class="chromName" x="68.5" y="-12">LR761641.1<title>LR761641.1 58,462,999 bp</title></text><rect class="frame" height="370" width="136.99" x="0" y="0"/></g><g id="chrom-LR761642.1" transform="translate(1177.25719230686,0)"><polygon class="cov0" points="0,370 0,308.33 1,339.17 2,308.33 3,308.33 4,339.17 5,370 6,339.17 8,339.17 9,308.33 10,308.33 11,277.5 12,246.67 13,123.33 14,185 15,185 16,308.33 17,215.83 18,246.67 19,185 20,215.83 21,154.17 22,308.33 23,277.5 24,154.17 25,123.33 26,154.17 27,185 28,246.67 29,154.17 30,215.83 31,123.33 32,123.33 33,215.83 34,154.17 35,308.33 36,123.33 37,123.33 38,92.5 39,154.17 40,123.33 41,154.17 42,92.5 43,123.33 44,123.33 45,215.83 46,123.33 47,246.67 48,246.67 49,308.33 50,185 52,185 53,92.5 54,123.33 55,185 57,185 58,246.67 59,154.17 60,154.17 61,339.17 62,154.17 63,154.17 64,185 65,185 66,154.17 67,339.17 68,277.5 69,123.33 70,123.33 71,277.5 72,154.17 73,215.83 74,123.33 75,185 76,277.5 77,154.17 78,123.33 79,246.67 80,246.67 81,185 82,308.33 83,246.67 84,308.33 85,154.17 86,308.33 86.91,370"><title>LR761642.1</title></polygon><rect class="average" height="1" width="86.91" x="0" y="162.8"><title>average:6.72</title></rect><rect class="median" height="1" width="86.91" x="0" y="215.83"><title>median:5</title></rect><text class="chromName" x="43.45" y="-12">LR761642.1<title>LR761642.1 37,089,910 bp</title></text><rect class="frame" height="370" width="86.91" x="0" y="0"/></g><g id="chrom-LR761643.1" transform="translate(1265.1671710093603,0)"><polygon class="cov1" points="0,370 0,277.5 1,246.67 2,154.17 3,123.33 4,123.33 5,185 6,154.17 7,185 8,123.33 10,123.33 11,154.17 12,123.33 13,185 14,215.83 15,123.33 16,92.5 17,154.17 19,154.17 20,339.17 21,154.17 22,123.33 23,123.33 24,185 25,154.17 26,339.17 27,308.33 28,308.33 29,92.5 30,185 31,154.17 32,215.83 33,123.33 34,92.5 35,185 36,215.83 37,92.5 39,92.5 40,123.33 41,123.33 42,154.17 43,277.5 44,123.33 45,154.17 46,92.5 47,154.17 48,154.17 49,123.33 50,185 51,92.5 52,123.33 53,123.33 54,154.17 55,123.33 56,92.5 57,92.5 58,123.33 59,123.33 60,61.67 61,92.5 62,154.17 63,123.33 64,123.33 65,185 66,123.33 70,123.33 71,215.83 72,185 73,185 74,92.5 75,185 76,123.33 77,92.5 78,154.17 79,277.5 80,123.33 81,92.5 82,123.33 83,123.33 84,92.5 85,92.5 86,123.33 87,92.5 88,154.17 89,308.33 90,154.17 91,92.5 92,92.5 93,154.17 94,92.5 95,123.33 96,92.5 100,92.5 101,215.83 102,123.33 105,123.33 106,92.5 107,92.5 108,123.33 109,92.5 112,92.5 113,246.67 114,123.33 115,123.33 116,92.5 117,92.5 118,123.33 119,123.33 120,92.5 123,92.5 124,123.33 125,123.33 126,92.5 127,185 128,154.17 129,123.33 130,123.33 131,215.83 132,123.33 133,246.67 134,277.5 134.83,370"><title>LR761643.1</title></polygon><rect class="average" height="1" width="134.83" x="0" y="130.55"><title>average:7.77</title></rect><rect class="median" height="1" width="134.83" x="0" y="123.33"><title>median:8</title></rect><text class="chromName" x="67.42" y="-12">LR761643.1<title>LR761643.1 57,541,580 bp</title></text><rect class="frame" height="370" width="134.83" x="0" y="0"/></g><g><line class="ruler" x1="-2" x2="1390" y1="333" y2="333"><title>1</title></line><text class="ruler" x="-5" y="333">1</text><line class="ruler" x1="-2" x2="1390" y1="296" y2="296"><title>2</title></line><text class="ruler" x="-5" y="296">2</text><line class="ruler" x1="-2" x2="1390" y1="259" y2="259"><title>3</title></line><text class="ruler" x="-5" y="259">3</text><line class="ruler" x1="-2" x2="1390" y1="222" y2="222"><title>4</title></line><text class="ruler" x="-5" y="222">4</text><line class="ruler" x1="-2" x2="1390" y1="185" y2="185"><title>6</title></line><text class="ruler" x="-5" y="185">6</text><line class="ruler" x1="-2" x2="1390" y1="148" y2="148"><title>7</title></line><text class="ruler" x="-5" y="148">7</text><line class="ruler" x1="-2" x2="1390" y1="111" y2="111"><title>8</title></line><text class="ruler" x="-5" y="111">8</text><line class="ruler" x1="-2" x2="1390" y1="74" y2="74"><title>9</title></line><text class="ruler" x="-5" y="74">9</text><line class="ruler" x1="-2" x2="1390" y1="37" y2="37"><title>10</title></line><text class="ruler" x="-5" y="37">10</text><line class="ruler" x1="-2" x2="1390" y1="0" y2="0"><title>12</title></line><text class="ruler" x="-5" y="0">12</text></g></g><text class="title" x="795" y="40">F7_M7_14.merged.realigned.bam F7_M7_14 F7_M7_14_1 F7_M7_14_2<title>./F7_M7_14.merged.realigned.bam</title></text><text class="xLabel" x="795" y="475">GCA_902806645.1_cgigas_uk_roslin_v1_genomic.fna  (589,358,857 bp)<title>../ref/GCA_902806645.1_cgigas_uk_roslin_v1_genomic.fna</title></text><text class="yLabel" transform="translate(25,265) rotate(90)" x="0" y="0">Coverage bp (median)</text></g></svg>