<?xml version="1.0" encoding="UTF-8" standalone="no"?><svg height="500" width="1500" xmlns="http://www.w3.org/2000/svg"><title>F7_M9_24.merged.realigned.bam</title><desc>Made with wgscoverageplotter undefined Author: Pierre Lindenbaum</desc><style>g.maing {stroke:black;stroke-width:0.5px;fill:none;}
text.title {stroke:none;fill:black;stroke-width:1px;text-anchor:middle;}
rect.frame {stroke:darkgray;fill:none;stroke-width:0.5px;}
text.ruler {stroke:none;fill:darkgray;stroke-width:1px;text-anchor:end;}
text.chromName {stroke:none;fill:darkgray;stroke-width:1px;text-anchor:middle;}
text.xLabel {stroke:none;fill:black;stroke-width:1px;text-anchor:middle;}
text.yLabel {stroke:none;fill:black;stroke-width:1px;text-anchor:middle;}
.cov0 {stroke:gray;fill:antiquewhite;stroke-width:0.5px;}
.cov1 {stroke:gray;fill:beige;stroke-width:0.5px;}
rect.average {stroke:green;fill:green;stroke-width:0.5px;opacity:0.3;}
rect.median {stroke:red;fill:red;stroke-width:0.5px;opacity:0.3;}
line.ruler {stroke:darkgray;stroke-dasharray:4;fill:none;stroke-width:1;}
</style><g class="maing"><g id="chromosomes" transform="translate(100.0,80.0)"><g id="chrom-LR761634.1" transform="translate(10.0,0)"><polygon class="cov0" points="0,370 0,341.54 1,142.31 2,185 3,284.62 4,227.69 5,185 6,270.38 7,199.23 8,170.77 9,142.31 10,170.77 11,128.08 12,156.54 13,227.69 14,284.62 15,142.31 16,142.31 17,199.23 18,142.31 19,128.08 20,128.08 21,142.31 22,170.77 23,156.54 24,170.77 25,128.08 26,128.08 27,142.31 28,142.31 29,128.08 30,142.31 31,142.31 32,270.38 33,142.31 34,142.31 35,156.54 36,128.08 37,199.23 38,199.23 39,142.31 40,128.08 41,128.08 42,142.31 43,199.23 44,170.77 45,213.46 46,185 47,142.31 48,156.54 49,142.31 50,156.54 51,142.31 52,128.08 53,142.31 54,227.69 55,270.38 56,128.08 57,113.85 58,142.31 59,156.54 60,156.54 61,128.08 62,156.54 63,199.23 64,199.23 65,170.77 66,156.54 67,185 68,128.08 69,213.46 70,142.31 71,142.31 72,227.69 73,185 74,142.31 76,142.31 77,199.23 78,170.77 79,156.54 80,284.62 81,270.38 82,128.08 83,142.31 84,156.54 85,142.31 86,128.08 87,199.23 88,128.08 89,270.38 90,170.77 91,156.54 92,142.31 93,170.77 94,113.85 95,128.08 96,113.85 97,142.31 98,327.31 99,142.31 100,142.31 101,185 102,156.54 103,170.77 104,199.23 105,128.08 106,213.46 107,185 108,256.15 109,113.85 110,128.08 111,142.31 112,142.31 113,156.54 114,270.38 115,213.46 116,113.85 117,142.31 118,113.85 119,170.77 120,213.46 121,142.31 122,142.31 123,128.08 124,156.54 125,128.08 126,142.31 127,156.54 128,213.46 129,185 130,241.92 130.72,370"><title>LR761634.1</title></polygon><rect class="average" height="1" width="130.72" x="0" y="163.64"><title>average:14.5</title></rect><rect class="median" height="1" width="130.72" x="0" y="156.54"><title>median:15</title></rect><text class="chromName" x="65.36" y="-12">LR761634.1<title>LR761634.1 55,785,328 bp</title></text><rect class="frame" height="370" width="130.72" x="0" y="0"/></g><g id="chrom-LR761635.1" transform="translate(141.71753661284166,0)"><polygon class="cov1" points="0,370 0,341.54 1,341.54 2,327.31 3,270.38 4,341.54 5,355.77 6,213.46 7,313.08 8,313.08 9,256.15 10,227.69 11,270.38 12,241.92 13,199.23 14,213.46 15,298.85 16,298.85 17,256.15 18,284.62 19,227.69 20,284.62 22,284.62 23,270.38 24,298.85 25,355.77 26,298.85 27,341.54 28,313.08 29,355.77 30,341.54 31,298.85 32,256.15 33,213.46 34,241.92 35,241.92 36,284.62 37,313.08 38,313.08 39,170.77 40,185 41,213.46 42,185 43,199.23 44,170.77 45,185 46,227.69 47,170.77 48,313.08 49,199.23 50,227.69 51,341.54 52,284.62 53,256.15 54,313.08 55,313.08 56,341.54 57,313.08 58,185 59,298.85 60,298.85 61,270.38 62,185 63,298.85 64,284.62 65,256.15 66,256.15 67,313.08 68,256.15 69,284.62 70,298.85 71,241.92 72,227.69 73,227.69 74,241.92 75,213.46 76,341.54 77,0 78,256.15 79,298.85 80,156.54 81,284.62 82,313.08 83,284.62 84,355.77 85,313.08 86,341.54 87,341.54 88,327.31 89,327.31 90,270.38 91,298.85 92,327.31 93,341.54 94,298.85 95,298.85 96,341.54 97,298.85 98,313.08 99,327.31 100,284.62 101,298.85 102,313.08 103,241.92 104,256.15 105,227.69 106,270.38 107,284.62 108,213.46 109,199.23 110,298.85 111,199.23 112,341.54 113,327.31 114,313.08 115,327.31 116,313.08 117,284.62 118,185 119,185 120,156.54 121,199.23 122,241.92 124,241.92 125,156.54 126,241.92 127,284.62 128,185 129,270.38 130,185 131,270.38 132,227.69 133,270.38 134,313.08 135,313.08 136,327.31 137,313.08 139,313.08 140,327.31 141,313.08 142,313.08 143,298.85 144,270.38 145,241.92 146,241.92 147,113.85 148,185 149,156.54 150,241.92 151,298.85 152,327.31 153,241.92 154,298.85 155,256.15 156,284.62 157,256.15 158,298.85 159,170.77 160,284.62 161,256.15 162,313.08 163,298.85 164,241.92 165,270.38 166,313.08 167,341.54 168,298.85 169,327.31 170,298.85 171,313.08 171.58,370"><title>LR761635.1</title></polygon><rect class="average" height="1" width="171.58" x="0" y="223.9"><title>average:10.27</title></rect><rect class="median" height="1" width="171.58" x="0" y="284.62"><title>median:6</title></rect><text class="chromName" x="85.79" y="-12">LR761635.1<title>LR761635.1 73,222,313 bp</title></text><rect class="frame" height="370" width="171.58" x="0" y="0"/></g><g id="chrom-LR761636.1" transform="translate(314.2938403401308,0)"><polygon class="cov0" points="0,370 0,341.54 1,156.54 2,270.38 3,298.85 4,241.92 5,156.54 6,185 7,170.77 8,128.08 9,156.54 10,142.31 11,142.31 12,156.54 13,241.92 14,113.85 15,142.31 16,128.08 17,128.08 18,142.31 19,170.77 20,142.31 22,142.31 23,128.08 24,199.23 25,128.08 26,199.23 27,241.92 28,128.08 33,128.08 34,142.31 35,185 36,142.31 37,170.77 38,142.31 40,142.31 41,156.54 42,170.77 43,142.31 44,142.31 45,156.54 46,185 47,142.31 48,213.46 49,156.54 50,170.77 51,128.08 52,142.31 53,142.31 54,241.92 55,185 56,170.77 57,142.31 58,170.77 59,142.31 60,170.77 61,241.92 62,170.77 63,142.31 64,142.31 65,156.54 67,156.54 68,170.77 69,170.77 70,199.23 71,113.85 72,128.08 73,170.77 74,156.54 75,156.54 76,327.31 77,199.23 78,227.69 79,270.38 80,284.62 81,142.31 82,227.69 83,142.31 84,128.08 85,156.54 86,241.92 87,170.77 88,156.54 89,199.23 90,156.54 91,128.08 92,213.46 93,156.54 94,142.31 95,185 96,213.46 97,142.31 98,142.31 99,185 100,156.54 101,170.77 102,170.77 103,113.85 104,142.31 107,142.31 108,128.08 110,128.08 111,156.54 112,156.54 113,170.77 114,128.08 116,128.08 117,142.31 118,170.77 119,128.08 120,142.31 121,241.92 122,128.08 123,128.08 124,185 125,128.08 126,128.08 127,199.23 128,241.92 129,128.08 130,142.31 131,156.54 133,156.54 134,142.31 135,142.31 136,313.08 136.65,370"><title>LR761636.1</title></polygon><rect class="average" height="1" width="136.65" x="0" y="161.87"><title>average:14.63</title></rect><rect class="median" height="1" width="136.65" x="0" y="156.54"><title>median:15</title></rect><text class="chromName" x="68.33" y="-12">LR761636.1<title>LR761636.1 58,319,100 bp</title></text><rect class="frame" height="370" width="136.65" x="0" y="0"/></g><g id="chrom-LR761637.1" transform="translate(451.9485730949149,0)"><polygon class="cov1" points="0,370 0,355.77 1,270.38 2,298.85 3,256.15 4,227.69 5,185 6,227.69 7,256.15 8,256.15 9,298.85 10,284.62 11,170.77 12,270.38 13,270.38 14,298.85 15,156.54 16,241.92 17,142.31 18,284.62 19,298.85 20,256.15 21,156.54 22,170.77 23,241.92 24,341.54 25,156.54 26,156.54 27,256.15 28,213.46 29,227.69 30,256.15 31,156.54 32,156.54 33,199.23 34,128.08 35,199.23 36,284.62 37,256.15 38,156.54 40,156.54 41,313.08 42,241.92 43,270.38 44,313.08 45,227.69 46,156.54 47,142.31 48,128.08 49,142.31 50,185 51,142.31 52,113.85 53,170.77 54,113.85 55,142.31 56,156.54 57,213.46 58,284.62 59,313.08 60,313.08 61,227.69 62,142.31 64,142.31 65,156.54 66,142.31 67,170.77 68,185 69,128.08 70,156.54 71,156.54 72,185 73,142.31 74,185 75,156.54 76,142.31 77,156.54 78,170.77 79,213.46 80,170.77 81,156.54 82,142.31 83,156.54 84,156.54 85,128.08 86,227.69 87,156.54 88,142.31 89,142.31 90,128.08 91,142.31 92,128.08 93,170.77 94,185 95,227.69 96,185 97,156.54 98,113.85 99,128.08 100,256.15 101,298.85 102,284.62 103,327.31 104,313.08 105,213.46 106,142.31 107,113.85 108,128.08 109,128.08 110,113.85 111,128.08 112,142.31 113,128.08 114,313.08 115,199.23 116,185 117,185 118,142.31 119,298.85 120,170.77 121,142.31 122,284.62 123,341.54 124,327.31 124.49,370"><title>LR761637.1</title></polygon><rect class="average" height="1" width="124.49" x="0" y="184.19"><title>average:13.06</title></rect><rect class="median" height="1" width="124.49" x="0" y="185"><title>median:13</title></rect><text class="chromName" x="62.25" y="-12">LR761637.1<title>LR761637.1 53,127,865 bp</title></text><rect class="frame" height="370" width="124.49" x="0" y="0"/></g><g id="chrom-LR761638.1" transform="translate(577.4390778079033,0)"><polygon class="cov0" points="0,370 0,213.46 1,113.85 2,256.15 3,142.31 4,256.15 5,156.54 6,213.46 7,213.46 8,185 9,128.08 10,170.77 11,313.08 12,142.31 13,170.77 14,128.08 15,170.77 16,170.77 17,142.31 18,256.15 19,313.08 20,156.54 21,241.92 22,142.31 23,128.08 24,128.08 25,170.77 26,355.77 27,128.08 28,185 29,284.62 30,241.92 31,156.54 32,355.77 33,355.77 34,199.23 35,227.69 36,170.77 37,284.62 38,270.38 39,284.62 40,313.08 41,298.85 42,256.15 43,156.54 44,156.54 45,284.62 46,185 47,113.85 48,142.31 49,241.92 50,355.77 51,256.15 52,185 53,185 54,270.38 55,241.92 56,156.54 57,227.69 58,142.31 59,199.23 60,199.23 61,213.46 62,170.77 63,313.08 64,327.31 65,313.08 66,256.15 67,213.46 68,185 69,298.85 70,170.77 71,327.31 72,341.54 73,284.62 74,256.15 75,313.08 76,327.31 77,227.69 78,370 79,355.77 80,298.85 81,199.23 82,327.31 83,313.08 84,313.08 85,185 86,170.77 87,170.77 88,327.31 89,156.54 90,284.62 91,156.54 92,128.08 93,128.08 94,156.54 95,227.69 96,298.85 97,170.77 98,298.85 99,199.23 100,213.46 101,170.77 102,313.08 103,199.23 104,284.62 105,298.85 106,241.92 107,199.23 108,270.38 109,185 110,241.92 111,199.23 112,313.08 113,227.69 114,270.38 115,298.85 116,327.31 117,327.31 118,341.54 119,298.85 120,298.85 121,355.77 123,355.77 124,298.85 125,313.08 126,327.31 127,270.38 128,370 129,284.62 130,341.54 131,327.31 132,270.38 133,313.08 134,256.15 135,313.08 136,185 137,313.08 138,327.31 139,270.38 140,341.54 141,355.77 142,327.31 143,256.15 144,170.77 145,199.23 146,185 147,156.54 148,156.54 149,185 150,213.46 151,298.85 152,199.23 153,156.54 154,270.38 155,298.85 156,213.46 157,298.85 158,341.54 159,298.85 160,341.54 161,327.31 162,313.08 163,241.92 164,341.54 165,355.77 166,355.77 167,370 168,355.77 169,241.92 170,370 171,370 172,341.54 172.35,370"><title>LR761638.1</title></polygon><rect class="average" height="1" width="172.35" x="0" y="216.7"><title>average:10.77</title></rect><rect class="median" height="1" width="172.35" x="0" y="256.15"><title>median:8</title></rect><text class="chromName" x="86.17" y="-12">LR761638.1<title>LR761638.1 73,550,375 bp</title></text><rect class="frame" height="370" width="172.35" x="0" y="0"/></g><g id="chrom-LR761639.1" transform="translate(750.784104388203,0)"><polygon class="cov1" points="0,370 0,270.38 1,170.77 2,142.31 3,256.15 4,156.54 5,227.69 6,298.85 7,270.38 8,142.31 9,142.31 10,156.54 11,270.38 12,256.15 13,142.31 14,156.54 15,128.08 16,142.31 17,128.08 18,142.31 19,128.08 20,128.08 21,142.31 22,156.54 23,170.77 24,185 25,199.23 26,185 27,327.31 28,298.85 29,185 30,313.08 31,142.31 32,156.54 33,142.31 34,199.23 35,185 36,185 37,142.31 39,142.31 40,256.15 41,142.31 42,156.54 43,113.85 44,142.31 45,128.08 46,170.77 47,142.31 48,128.08 49,170.77 50,170.77 51,142.31 52,185 53,156.54 54,170.77 55,142.31 61,142.31 62,156.54 63,156.54 64,128.08 65,142.31 66,156.54 67,142.31 68,142.31 69,185 70,156.54 72,156.54 73,142.31 74,227.69 75,142.31 76,142.31 77,156.54 78,142.31 79,142.31 80,156.54 81,142.31 83,142.31 84,199.23 85,156.54 86,128.08 87,142.31 88,128.08 89,142.31 90,128.08 91,142.31 92,142.31 93,170.77 94,156.54 95,142.31 96,156.54 97,128.08 98,128.08 99,142.31 100,142.31 101,128.08 102,128.08 103,142.31 104,113.85 105,128.08 106,227.69 107,142.31 108,128.08 109,128.08 110,142.31 111,327.31 112,170.77 113,128.08 114,185 115,128.08 116,142.31 118,142.31 119,113.85 120,156.54 121,128.08 123,128.08 124,170.77 125,142.31 126,128.08 127,142.31 128,156.54 129,128.08 130,199.23 131,156.54 132,185 133,341.54 134,128.08 135,185 136,142.31 137,156.54 138,227.69 139,199.23 140,327.31 140.95,370"><title>LR761639.1</title></polygon><rect class="average" height="1" width="140.95" x="0" y="158.75"><title>average:14.84</title></rect><rect class="median" height="1" width="140.95" x="0" y="156.54"><title>median:15</title></rect><text class="chromName" x="70.47" y="-12">LR761639.1<title>LR761639.1 60,151,564 bp</title></text><rect class="frame" height="370" width="140.95" x="0" y="0"/></g><g id="chrom-LR761640.1" transform="translate(892.7327113317651,0)"><polygon class="cov0" points="0,370 0,213.46 1,142.31 2,213.46 3,170.77 4,170.77 5,128.08 6,199.23 7,199.23 8,142.31 9,185 10,156.54 11,170.77 12,142.31 13,298.85 14,156.54 15,142.31 16,227.69 17,142.31 18,128.08 19,213.46 20,142.31 21,142.31 22,128.08 23,113.85 24,142.31 25,156.54 26,128.08 27,142.31 28,156.54 29,142.31 30,142.31 31,156.54 32,142.31 33,128.08 34,156.54 35,142.31 36,142.31 37,199.23 38,128.08 39,170.77 40,128.08 41,128.08 42,113.85 43,128.08 44,128.08 45,156.54 46,156.54 47,241.92 48,256.15 49,128.08 50,156.54 51,142.31 52,128.08 53,156.54 54,128.08 56,128.08 57,227.69 58,156.54 59,185 60,256.15 61,142.31 62,170.77 63,170.77 64,142.31 65,313.08 66,142.31 67,156.54 68,156.54 69,199.23 70,185 71,156.54 72,185 73,213.46 74,185 75,142.31 76,142.31 77,227.69 78,142.31 79,199.23 80,128.08 81,113.85 82,113.85 83,142.31 84,142.31 85,128.08 86,355.77 87,156.54 88,170.77 90,170.77 91,256.15 92,270.38 93,199.23 94,256.15 95,170.77 96,156.54 99,156.54 100,128.08 101,185 102,327.31 103,241.92 104,142.31 105,128.08 106,142.31 107,185 108,227.69 109,142.31 110,199.23 111,199.23 112,156.54 113,156.54 114,199.23 115,142.31 116,355.77 117,341.54 118,355.77 119,327.31 120,156.54 121,128.08 122,156.54 123,142.31 124,156.54 125,113.85 126,142.31 127,128.08 128,227.69 129,156.54 130,128.08 131,128.08 132,156.54 133,128.08 134,113.85 135,99.62 136,142.31 138,142.31 139,170.77 140,142.31 141,142.31 142,170.77 143,270.38 144,142.31 145,128.08 145.53,370"><title>LR761640.1</title></polygon><rect class="average" height="1" width="145.53" x="0" y="164.37"><title>average:14.45</title></rect><rect class="median" height="1" width="145.53" x="0" y="156.54"><title>median:15</title></rect><text class="chromName" x="72.77" y="-12">LR761640.1<title>LR761640.1 62,107,823 bp</title></text><rect class="frame" height="370" width="145.53" x="0" y="0"/></g><g id="chrom-LR761641.1" transform="translate(1039.265271917344,0)"><polygon class="cov1" points="0,370 0,284.62 1,185 2,241.92 3,199.23 4,142.31 5,213.46 6,313.08 7,256.15 8,241.92 9,170.77 10,128.08 11,213.46 12,241.92 13,142.31 14,227.69 15,128.08 16,142.31 17,270.38 18,142.31 20,142.31 21,156.54 22,199.23 23,156.54 24,199.23 25,185 26,241.92 27,199.23 28,213.46 29,270.38 30,241.92 31,213.46 32,270.38 33,241.92 34,284.62 35,298.85 36,341.54 37,270.38 39,270.38 40,185 41,256.15 42,313.08 43,341.54 44,270.38 45,199.23 46,241.92 47,270.38 48,284.62 49,156.54 50,185 51,156.54 52,142.31 54,142.31 55,128.08 56,128.08 57,170.77 58,199.23 59,170.77 60,142.31 61,241.92 62,156.54 63,185 64,185 65,170.77 66,213.46 67,241.92 68,241.92 69,170.77 70,256.15 71,128.08 72,199.23 73,313.08 74,227.69 75,298.85 76,227.69 77,256.15 78,170.77 79,256.15 80,298.85 81,341.54 82,341.54 83,327.31 84,170.77 85,170.77 86,256.15 87,128.08 88,213.46 89,185 90,298.85 91,241.92 92,142.31 93,241.92 94,284.62 95,213.46 96,185 97,313.08 98,156.54 99,370 100,298.85 101,142.31 102,185 103,142.31 104,185 105,142.31 106,256.15 107,142.31 108,156.54 109,156.54 110,142.31 111,284.62 112,142.31 113,256.15 114,156.54 115,156.54 116,128.08 117,185 118,170.77 119,227.69 120,199.23 121,185 122,156.54 123,227.69 124,156.54 125,213.46 126,241.92 127,142.31 128,241.92 129,185 130,270.38 131,227.69 132,341.54 133,284.62 134,170.77 135,370 136,341.54 136.99,370"><title>LR761641.1</title></polygon><rect class="average" height="1" width="136.99" x="0" y="192.24"><title>average:12.49</title></rect><rect class="median" height="1" width="136.99" x="0" y="213.46"><title>median:11</title></rect><text class="chromName" x="68.5" y="-12">LR761641.1<title>LR761641.1 58,462,999 bp</title></text><rect class="frame" height="370" width="136.99" x="0" y="0"/></g><g id="chrom-LR761642.1" transform="translate(1177.25719230686,0)"><polygon class="cov0" points="0,370 0,327.31 1,327.31 2,313.08 3,256.15 4,298.85 5,327.31 6,298.85 7,284.62 8,291.73 9,327.31 10,270.38 11,227.69 12,270.38 13,156.54 14,199.23 15,185 16,298.85 17,256.15 18,298.85 19,241.92 20,227.69 21,185 22,298.85 23,270.38 24,170.77 25,142.31 26,170.77 27,199.23 28,284.62 29,185 30,241.92 31,142.31 32,170.77 33,241.92 34,170.77 35,241.92 36,156.54 37,170.77 38,142.31 39,199.23 40,142.31 41,156.54 42,128.08 43,156.54 44,156.54 45,199.23 46,170.77 47,256.15 48,185 49,270.38 50,170.77 51,199.23 52,227.69 53,142.31 54,142.31 55,241.92 56,170.77 57,241.92 58,241.92 59,170.77 60,170.77 61,341.54 62,199.23 63,185 64,213.46 65,185 66,185 67,341.54 68,270.38 69,170.77 70,142.31 71,256.15 72,156.54 73,227.69 74,156.54 75,199.23 76,313.08 77,156.54 78,156.54 79,270.38 80,241.92 81,185 82,327.31 83,256.15 84,313.08 85,241.92 86,313.08 86.91,370"><title>LR761642.1</title></polygon><rect class="average" height="1" width="86.91" x="0" y="184.62"><title>average:13.03</title></rect><rect class="median" height="1" width="86.91" x="0" y="213.46"><title>median:11</title></rect><text class="chromName" x="43.45" y="-12">LR761642.1<title>LR761642.1 37,089,910 bp</title></text><rect class="frame" height="370" width="86.91" x="0" y="0"/></g><g id="chrom-LR761643.1" transform="translate(1265.1671710093603,0)"><polygon class="cov1" points="0,370 0,341.54 1,284.62 2,185 3,142.31 4,156.54 5,241.92 6,185 7,170.77 8,156.54 9,128.08 10,142.31 11,170.77 12,142.31 13,199.23 14,256.15 15,156.54 16,128.08 17,156.54 18,170.77 19,170.77 20,341.54 21,170.77 22,142.31 23,128.08 24,241.92 25,185 26,355.77 27,284.62 28,270.38 29,142.31 30,213.46 31,156.54 32,227.69 33,142.31 34,156.54 35,213.46 36,241.92 37,128.08 38,142.31 39,128.08 40,156.54 41,170.77 42,170.77 43,270.38 44,156.54 45,199.23 46,142.31 47,213.46 48,170.77 49,156.54 50,156.54 51,142.31 52,142.31 53,156.54 54,170.77 55,142.31 57,142.31 58,156.54 59,142.31 60,128.08 61,142.31 62,170.77 63,156.54 64,170.77 65,213.46 66,156.54 68,156.54 69,142.31 70,156.54 71,256.15 72,213.46 73,241.92 74,128.08 75,241.92 76,156.54 77,128.08 78,213.46 79,256.15 80,142.31 81,128.08 82,142.31 83,142.31 84,128.08 85,128.08 86,156.54 87,128.08 88,170.77 89,327.31 90,185 91,142.31 92,128.08 93,156.54 94,128.08 95,156.54 96,128.08 99,128.08 100,142.31 101,227.69 102,142.31 103,156.54 104,170.77 105,142.31 106,128.08 107,128.08 108,156.54 109,128.08 111,128.08 112,142.31 113,227.69 114,156.54 115,142.31 116,113.85 117,113.85 118,128.08 119,170.77 120,128.08 123,128.08 124,142.31 125,128.08 126,128.08 127,185 128,199.23 129,128.08 130,170.77 131,227.69 132,142.31 133,241.92 134,327.31 134.83,370"><title>LR761643.1</title></polygon><rect class="average" height="1" width="134.83" x="0" y="166.56"><title>average:14.3</title></rect><rect class="median" height="1" width="134.83" x="0" y="156.54"><title>median:15</title></rect><text class="chromName" x="67.42" y="-12">LR761643.1<title>LR761643.1 57,541,580 bp</title></text><rect class="frame" height="370" width="134.83" x="0" y="0"/></g><g><line class="ruler" x1="-2" x2="1390" y1="333" y2="333"><title>2</title></line><text class="ruler" x="-5" y="333">2</text><line class="ruler" x1="-2" x2="1390" y1="296" y2="296"><title>5</title></line><text class="ruler" x="-5" y="296">5</text><line class="ruler" x1="-2" x2="1390" y1="259" y2="259"><title>7</title></line><text class="ruler" x="-5" y="259">7</text><line class="ruler" x1="-2" x2="1390" y1="222" y2="222"><title>10</title></line><text class="ruler" x="-5" y="222">10</text><line class="ruler" x1="-2" x2="1390" y1="185" y2="185"><title>13</title></line><text class="ruler" x="-5" y="185">13</text><line class="ruler" x1="-2" x2="1390" y1="148" y2="148"><title>15</title></line><text class="ruler" x="-5" y="148">15</text><line class="ruler" x1="-2" x2="1390" y1="111" y2="111"><title>18</title></line><text class="ruler" x="-5" y="111">18</text><line class="ruler" x1="-2" x2="1390" y1="74" y2="74"><title>20</title></line><text class="ruler" x="-5" y="74">20</text><line class="ruler" x1="-2" x2="1390" y1="37" y2="37"><title>23</title></line><text class="ruler" x="-5" y="37">23</text><line class="ruler" x1="-2" x2="1390" y1="0" y2="0"><title>26</title></line><text class="ruler" x="-5" y="0">26</text></g></g><text class="title" x="795" y="40">F7_M9_24.merged.realigned.bam F7_M9_24 F7_M9_24_1 F7_M9_24_2<title>./F7_M9_24.merged.realigned.bam</title></text><text class="xLabel" x="795" y="475">GCA_902806645.1_cgigas_uk_roslin_v1_genomic.fna  (589,358,857 bp)<title>../ref/GCA_902806645.1_cgigas_uk_roslin_v1_genomic.fna</title></text><text class="yLabel" transform="translate(25,265) rotate(90)" x="0" y="0">Coverage bp (median)</text></g></svg>