<?xml version="1.0" encoding="UTF-8" standalone="no"?><svg height="500" width="1500" xmlns="http://www.w3.org/2000/svg"><title>F7_M8_14.merged.realigned.bam</title><desc>Made with wgscoverageplotter undefined Author: Pierre Lindenbaum</desc><style>g.maing {stroke:black;stroke-width:0.5px;fill:none;}
text.title {stroke:none;fill:black;stroke-width:1px;text-anchor:middle;}
rect.frame {stroke:darkgray;fill:none;stroke-width:0.5px;}
text.ruler {stroke:none;fill:darkgray;stroke-width:1px;text-anchor:end;}
text.chromName {stroke:none;fill:darkgray;stroke-width:1px;text-anchor:middle;}
text.xLabel {stroke:none;fill:black;stroke-width:1px;text-anchor:middle;}
text.yLabel {stroke:none;fill:black;stroke-width:1px;text-anchor:middle;}
.cov0 {stroke:gray;fill:antiquewhite;stroke-width:0.5px;}
.cov1 {stroke:gray;fill:beige;stroke-width:0.5px;}
rect.average {stroke:green;fill:green;stroke-width:0.5px;opacity:0.3;}
rect.median {stroke:red;fill:red;stroke-width:0.5px;opacity:0.3;}
line.ruler {stroke:darkgray;stroke-dasharray:4;fill:none;stroke-width:1;}
</style><g class="maing"><g id="chromosomes" transform="translate(100.0,80.0)"><g id="chrom-LR761634.1" transform="translate(10.0,0)"><polygon class="cov0" points="0,370 0,292.92 1,107.92 2,154.17 3,292.92 4,200.42 5,169.58 6,277.5 7,200.42 8,154.17 9,138.75 10,154.17 11,123.33 12,169.58 13,215.83 14,246.67 15,138.75 16,138.75 17,200.42 18,138.75 19,138.75 20,123.33 21,138.75 22,154.17 23,169.58 24,185 25,123.33 26,138.75 30,138.75 31,154.17 32,262.08 33,138.75 34,154.17 35,154.17 36,138.75 37,200.42 38,200.42 39,154.17 40,138.75 42,138.75 43,185 44,169.58 45,200.42 46,185 47,154.17 48,169.58 49,154.17 50,169.58 51,154.17 52,138.75 53,154.17 54,169.58 55,154.17 56,123.33 57,138.75 58,154.17 59,154.17 60,169.58 61,138.75 62,169.58 63,185 64,231.25 65,169.58 66,154.17 67,200.42 68,138.75 69,215.83 70,154.17 71,138.75 72,215.83 73,185 74,154.17 75,138.75 76,154.17 77,200.42 78,185 79,138.75 80,323.75 81,277.5 82,138.75 83,154.17 85,154.17 86,123.33 87,200.42 88,123.33 89,262.08 90,154.17 91,154.17 92,138.75 93,169.58 94,138.75 95,123.33 96,123.33 97,185 98,277.5 99,138.75 100,138.75 101,154.17 102,138.75 103,185 104,169.58 105,107.92 106,215.83 107,185 108,277.5 109,123.33 110,123.33 111,138.75 112,123.33 113,185 114,262.08 115,200.42 116,107.92 117,123.33 118,107.92 119,154.17 120,215.83 121,123.33 122,138.75 123,123.33 124,154.17 125,123.33 126,123.33 127,154.17 128,185 129,185 130,200.42 130.72,370"><title>LR761634.1</title></polygon><rect class="average" height="1" width="130.72" x="0" y="157.95"><title>average:13.75</title></rect><rect class="median" height="1" width="130.72" x="0" y="154.17"><title>median:14</title></rect><text class="chromName" x="65.36" y="-12">LR761634.1<title>LR761634.1 55,785,328 bp</title></text><rect class="frame" height="370" width="130.72" x="0" y="0"/></g><g id="chrom-LR761635.1" transform="translate(141.71753661284166,0)"><polygon class="cov1" points="0,370 0,323.75 1,354.58 2,308.33 3,292.92 4,354.58 5,323.75 6,246.67 7,277.5 8,277.5 9,185 10,215.83 11,277.5 12,231.25 13,154.17 14,231.25 15,277.5 16,308.33 17,215.83 18,262.08 19,200.42 20,277.5 21,262.08 23,262.08 24,292.92 25,308.33 26,292.92 27,339.17 28,308.33 29,323.75 30,339.17 31,277.5 32,246.67 33,200.42 34,185 35,231.25 36,215.83 37,308.33 38,323.75 39,169.58 40,185 41,215.83 42,169.58 43,185 44,77.08 45,154.17 46,215.83 47,154.17 48,231.25 49,154.17 50,200.42 51,262.08 52,215.83 53,262.08 54,292.92 55,231.25 56,246.67 57,277.5 58,185 59,323.75 60,370 61,277.5 62,138.75 63,277.5 64,277.5 65,231.25 66,246.67 67,262.08 68,246.67 69,292.92 70,215.83 71,231.25 72,215.83 73,215.83 74,246.67 75,215.83 76,308.33 77,107.92 78,246.67 79,292.92 80,138.75 81,323.75 82,354.58 83,308.33 84,323.75 85,308.33 86,354.58 89,354.58 90,323.75 91,308.33 92,292.92 93,262.08 94,262.08 95,292.92 96,323.75 97,308.33 98,323.75 99,292.92 100,308.33 101,308.33 102,323.75 103,200.42 104,169.58 105,138.75 106,246.67 107,246.67 108,185 109,185 110,292.92 111,200.42 112,323.75 113,339.17 114,308.33 115,323.75 116,308.33 117,262.08 118,185 119,169.58 120,154.17 121,185 122,246.67 123,246.67 124,262.08 125,138.75 126,215.83 127,231.25 128,169.58 129,200.42 130,169.58 131,277.5 132,231.25 133,277.5 134,308.33 135,292.92 136,339.17 137,323.75 138,323.75 139,246.67 140,339.17 141,308.33 142,292.92 143,292.92 144,277.5 145,200.42 146,277.5 147,107.92 148,154.17 149,123.33 150,215.83 151,246.67 152,354.58 153,215.83 154,292.92 155,169.58 156,215.83 157,169.58 158,231.25 159,154.17 160,262.08 161,200.42 162,277.5 163,200.42 164,231.25 165,277.5 166,308.33 167,308.33 168,277.5 169,292.92 170,292.92 171,308.33 171.58,370"><title>LR761635.1</title></polygon><rect class="average" height="1" width="171.58" x="0" y="199.87"><title>average:11.04</title></rect><rect class="median" height="1" width="171.58" x="0" y="262.08"><title>median:7</title></rect><text class="chromName" x="85.79" y="-12">LR761635.1<title>LR761635.1 73,222,313 bp</title></text><rect class="frame" height="370" width="171.58" x="0" y="0"/></g><g id="chrom-LR761636.1" transform="translate(314.2938403401308,0)"><polygon class="cov0" points="0,370 0,339.17 1,138.75 2,246.67 3,308.33 4,200.42 5,123.33 6,107.92 7,138.75 8,107.92 9,138.75 10,107.92 11,107.92 12,138.75 13,246.67 14,107.92 15,138.75 16,107.92 17,123.33 18,154.17 19,154.17 20,138.75 23,138.75 24,200.42 25,138.75 26,215.83 27,262.08 28,138.75 29,123.33 30,138.75 31,123.33 32,107.92 33,123.33 34,154.17 35,215.83 36,138.75 37,185 38,154.17 39,138.75 40,185 41,169.58 43,169.58 44,154.17 45,154.17 46,169.58 47,154.17 48,215.83 49,154.17 50,169.58 51,138.75 52,154.17 53,154.17 54,231.25 55,169.58 56,169.58 57,138.75 58,169.58 59,138.75 60,169.58 61,231.25 62,169.58 63,138.75 64,154.17 66,154.17 67,169.58 69,169.58 70,185 71,123.33 72,138.75 73,185 74,169.58 75,154.17 76,308.33 77,215.83 78,246.67 79,262.08 80,277.5 81,138.75 82,231.25 83,154.17 84,138.75 85,154.17 86,231.25 87,169.58 88,154.17 89,215.83 90,154.17 91,138.75 92,185 93,154.17 94,138.75 95,185 96,200.42 97,138.75 98,138.75 99,169.58 100,169.58 101,138.75 102,154.17 103,123.33 104,138.75 110,138.75 111,169.58 112,154.17 113,169.58 114,138.75 115,138.75 116,123.33 117,138.75 118,169.58 119,138.75 120,138.75 121,246.67 122,138.75 123,138.75 124,200.42 125,123.33 126,123.33 127,215.83 128,246.67 129,123.33 130,138.75 131,154.17 132,169.58 133,154.17 134,123.33 135,138.75 136,308.33 136.65,370"><title>LR761636.1</title></polygon><rect class="average" height="1" width="136.65" x="0" y="159.35"><title>average:13.66</title></rect><rect class="median" height="1" width="136.65" x="0" y="154.17"><title>median:14</title></rect><text class="chromName" x="68.33" y="-12">LR761636.1<title>LR761636.1 58,319,100 bp</title></text><rect class="frame" height="370" width="136.65" x="0" y="0"/></g><g id="chrom-LR761637.1" transform="translate(451.9485730949149,0)"><polygon class="cov1" points="0,370 0,277.5 1,231.25 2,262.08 3,215.83 4,185 5,123.33 6,154.17 7,246.67 8,215.83 9,246.67 10,339.17 11,138.75 12,185 13,277.5 14,308.33 15,169.58 16,215.83 17,92.5 18,262.08 19,277.5 20,246.67 21,138.75 22,138.75 23,200.42 24,262.08 25,169.58 26,138.75 27,246.67 28,231.25 29,262.08 30,262.08 31,138.75 32,154.17 33,169.58 34,138.75 35,215.83 36,277.5 37,231.25 38,169.58 39,154.17 40,169.58 41,292.92 42,246.67 43,292.92 44,323.75 45,200.42 46,154.17 47,154.17 48,138.75 49,154.17 50,200.42 51,154.17 52,123.33 53,185 54,138.75 55,154.17 56,169.58 57,231.25 58,292.92 59,308.33 60,308.33 61,231.25 62,154.17 64,154.17 65,169.58 66,154.17 67,169.58 68,185 69,138.75 70,169.58 71,154.17 72,185 73,138.75 74,154.17 75,169.58 76,154.17 77,169.58 78,169.58 79,200.42 80,169.58 81,169.58 82,138.75 83,154.17 84,169.58 85,138.75 86,215.83 87,169.58 88,138.75 89,154.17 90,138.75 91,154.17 92,138.75 93,154.17 94,200.42 95,231.25 96,185 97,138.75 98,123.33 99,123.33 100,277.5 101,308.33 102,277.5 103,323.75 104,323.75 105,246.67 106,123.33 109,123.33 110,92.5 111,154.17 112,138.75 113,123.33 114,277.5 115,200.42 116,185 117,169.58 118,154.17 119,308.33 120,154.17 121,123.33 122,323.75 123,339.17 124,292.92 124.49,370"><title>LR761637.1</title></polygon><rect class="average" height="1" width="124.49" x="0" y="178.29"><title>average:12.44</title></rect><rect class="median" height="1" width="124.49" x="0" y="185"><title>median:12</title></rect><text class="chromName" x="62.25" y="-12">LR761637.1<title>LR761637.1 53,127,865 bp</title></text><rect class="frame" height="370" width="124.49" x="0" y="0"/></g><g id="chrom-LR761638.1" transform="translate(577.4390778079033,0)"><polygon class="cov0" points="0,370 0,92.5 1,15.42 2,169.58 3,123.33 4,262.08 5,138.75 6,185 7,185 8,200.42 9,123.33 10,123.33 11,246.67 12,138.75 13,185 14,107.92 15,138.75 16,92.5 17,107.92 18,262.08 19,354.58 20,154.17 21,185 22,138.75 23,138.75 24,123.33 25,154.17 26,323.75 27,107.92 28,185 29,308.33 30,231.25 31,154.17 32,370 33,354.58 34,200.42 35,215.83 36,169.58 37,339.17 38,262.08 39,339.17 40,339.17 41,308.33 42,246.67 43,154.17 44,154.17 45,277.5 46,200.42 47,107.92 48,123.33 49,231.25 50,354.58 51,246.67 52,169.58 53,169.58 54,246.67 55,246.67 56,154.17 57,231.25 58,154.17 59,185 60,138.75 61,231.25 62,154.17 63,323.75 64,308.33 65,339.17 66,154.17 67,215.83 68,185 69,292.92 70,169.58 71,339.17 72,354.58 73,308.33 74,262.08 75,339.17 76,339.17 77,215.83 78,370 79,292.92 80,277.5 81,200.42 82,339.17 83,339.17 84,292.92 85,169.58 86,138.75 87,169.58 88,308.33 89,138.75 90,277.5 91,154.17 92,123.33 93,123.33 94,154.17 95,231.25 96,323.75 97,123.33 98,308.33 99,215.83 100,200.42 101,185 102,277.5 103,185 104,308.33 105,308.33 106,246.67 107,169.58 108,200.42 109,185 110,231.25 111,200.42 112,308.33 113,262.08 114,231.25 115,277.5 116,292.92 117,323.75 118,339.17 119,308.33 120,262.08 121,323.75 122,354.58 123,370 124,308.33 125,292.92 126,308.33 127,246.67 128,339.17 129,277.5 130,339.17 131,308.33 132,262.08 133,323.75 134,277.5 135,292.92 136,138.75 137,370 138,339.17 139,277.5 140,370 141,354.58 142,292.92 143,277.5 144,154.17 145,169.58 146,215.83 147,123.33 148,138.75 149,138.75 150,169.58 151,246.67 152,169.58 153,138.75 154,231.25 155,277.5 156,200.42 157,277.5 158,277.5 159,215.83 160,246.67 161,215.83 162,185 163,246.67 164,323.75 165,354.58 166,323.75 167,370 168,292.92 169,215.83 170,370 171,339.17 172,323.75 172.35,370"><title>LR761638.1</title></polygon><rect class="average" height="1" width="172.35" x="0" y="203.13"><title>average:10.82</title></rect><rect class="median" height="1" width="172.35" x="0" y="246.67"><title>median:8</title></rect><text class="chromName" x="86.17" y="-12">LR761638.1<title>LR761638.1 73,550,375 bp</title></text><rect class="frame" height="370" width="172.35" x="0" y="0"/></g><g id="chrom-LR761639.1" transform="translate(750.784104388203,0)"><polygon class="cov1" points="0,370 0,323.75 1,123.33 2,123.33 3,262.08 4,138.75 5,231.25 6,339.17 7,246.67 8,138.75 9,138.75 10,154.17 11,262.08 12,231.25 13,123.33 14,169.58 15,138.75 19,138.75 20,123.33 21,138.75 22,154.17 23,169.58 24,185 25,200.42 26,185 27,323.75 28,323.75 29,215.83 30,292.92 31,138.75 32,154.17 33,123.33 34,185 35,215.83 36,215.83 37,138.75 39,138.75 40,200.42 41,138.75 42,154.17 43,123.33 44,169.58 45,138.75 46,169.58 47,154.17 48,138.75 49,169.58 50,154.17 51,138.75 52,185 53,169.58 54,169.58 55,154.17 59,154.17 60,138.75 61,154.17 62,154.17 63,169.58 64,123.33 65,138.75 66,169.58 67,154.17 68,154.17 69,185 70,154.17 73,154.17 74,231.25 75,138.75 76,154.17 77,169.58 78,138.75 79,154.17 80,169.58 81,138.75 82,154.17 83,138.75 84,215.83 85,154.17 86,138.75 87,154.17 88,138.75 89,138.75 90,123.33 91,154.17 92,138.75 93,169.58 94,154.17 95,138.75 99,138.75 100,154.17 101,123.33 102,123.33 103,138.75 104,123.33 105,138.75 106,231.25 107,138.75 108,123.33 109,138.75 110,138.75 111,277.5 112,154.17 113,123.33 114,185 115,123.33 116,154.17 117,123.33 118,138.75 119,123.33 120,154.17 121,123.33 122,138.75 123,123.33 124,154.17 125,138.75 126,154.17 127,123.33 128,138.75 129,123.33 130,169.58 131,138.75 132,169.58 133,339.17 134,107.92 135,138.75 137,138.75 138,200.42 139,169.58 140,339.17 140.95,370"><title>LR761639.1</title></polygon><rect class="average" height="1" width="140.95" x="0" y="158.57"><title>average:13.71</title></rect><rect class="median" height="1" width="140.95" x="0" y="154.17"><title>median:14</title></rect><text class="chromName" x="70.47" y="-12">LR761639.1<title>LR761639.1 60,151,564 bp</title></text><rect class="frame" height="370" width="140.95" x="0" y="0"/></g><g id="chrom-LR761640.1" transform="translate(892.7327113317651,0)"><polygon class="cov0" points="0,370 0,185 1,107.92 2,200.42 3,169.58 4,154.17 5,123.33 6,185 7,185 8,123.33 9,169.58 10,138.75 11,123.33 12,92.5 13,231.25 14,169.58 15,154.17 16,246.67 17,154.17 18,138.75 19,200.42 20,138.75 22,138.75 23,123.33 24,154.17 25,169.58 26,123.33 27,138.75 28,154.17 32,154.17 33,138.75 34,154.17 35,138.75 36,154.17 37,200.42 38,123.33 39,169.58 40,123.33 41,138.75 42,107.92 43,123.33 44,123.33 45,154.17 46,154.17 47,262.08 48,308.33 49,138.75 50,154.17 51,138.75 52,123.33 53,154.17 54,123.33 55,138.75 56,138.75 57,215.83 58,154.17 59,185 60,246.67 61,138.75 62,169.58 63,185 64,138.75 65,292.92 66,154.17 67,154.17 68,169.58 69,200.42 70,200.42 71,154.17 72,169.58 73,200.42 74,185 75,154.17 76,154.17 77,231.25 78,154.17 79,185 80,123.33 82,123.33 83,154.17 84,154.17 85,138.75 86,292.92 87,154.17 88,169.58 89,185 90,169.58 91,292.92 92,277.5 93,200.42 94,262.08 95,169.58 96,154.17 99,154.17 100,138.75 101,185 102,339.17 103,246.67 104,138.75 106,138.75 107,200.42 108,231.25 109,138.75 110,169.58 111,200.42 112,154.17 113,169.58 114,185 115,138.75 116,292.92 117,339.17 118,354.58 119,323.75 120,154.17 121,123.33 122,138.75 123,138.75 124,154.17 125,138.75 127,138.75 128,231.25 129,154.17 130,138.75 131,123.33 132,154.17 133,138.75 134,123.33 135,107.92 136,138.75 137,138.75 138,123.33 139,185 140,138.75 141,123.33 142,154.17 143,185 144,138.75 145,123.33 145.53,370"><title>LR761640.1</title></polygon><rect class="average" height="1" width="145.53" x="0" y="162"><title>average:13.49</title></rect><rect class="median" height="1" width="145.53" x="0" y="154.17"><title>median:14</title></rect><text class="chromName" x="72.77" y="-12">LR761640.1<title>LR761640.1 62,107,823 bp</title></text><rect class="frame" height="370" width="145.53" x="0" y="0"/></g><g id="chrom-LR761641.1" transform="translate(1039.265271917344,0)"><polygon class="cov1" points="0,370 0,354.58 1,169.58 2,169.58 3,231.25 4,185 5,138.75 6,323.75 7,292.92 8,169.58 9,138.75 10,107.92 11,277.5 12,200.42 13,123.33 14,231.25 15,123.33 16,123.33 17,185 18,123.33 20,123.33 21,154.17 22,231.25 23,154.17 24,185 25,169.58 26,246.67 27,200.42 28,215.83 29,262.08 30,231.25 31,200.42 32,246.67 33,215.83 34,277.5 35,277.5 36,339.17 37,262.08 39,262.08 40,231.25 41,262.08 42,308.33 43,339.17 44,246.67 46,246.67 47,277.5 48,277.5 49,154.17 50,200.42 51,154.17 52,138.75 53,123.33 54,138.75 56,138.75 57,185 58,169.58 59,185 60,154.17 61,277.5 62,154.17 63,185 64,169.58 65,185 66,215.83 67,215.83 68,277.5 69,169.58 70,185 71,123.33 72,200.42 73,292.92 74,215.83 75,292.92 76,185 77,215.83 78,185 79,185 80,262.08 81,354.58 82,354.58 83,308.33 84,169.58 85,138.75 86,262.08 87,123.33 88,231.25 89,185 90,246.67 91,277.5 92,138.75 93,231.25 94,262.08 95,200.42 96,169.58 97,308.33 98,123.33 99,370 100,215.83 101,107.92 102,154.17 103,123.33 104,169.58 105,123.33 106,262.08 107,138.75 109,138.75 110,123.33 111,308.33 112,123.33 113,246.67 114,138.75 115,169.58 116,107.92 117,169.58 118,123.33 119,185 120,215.83 121,138.75 122,154.17 123,246.67 124,138.75 125,215.83 126,246.67 127,123.33 128,246.67 129,154.17 130,277.5 131,185 132,339.17 133,277.5 134,123.33 135,354.58 136,354.58 136.99,370"><title>LR761641.1</title></polygon><rect class="average" height="1" width="136.99" x="0" y="182.36"><title>average:12.17</title></rect><rect class="median" height="1" width="136.99" x="0" y="200.42"><title>median:11</title></rect><text class="chromName" x="68.5" y="-12">LR761641.1<title>LR761641.1 58,462,999 bp</title></text><rect class="frame" height="370" width="136.99" x="0" y="0"/></g><g id="chrom-LR761642.1" transform="translate(1177.25719230686,0)"><polygon class="cov0" points="0,370 0,277.5 1,262.08 2,262.08 3,246.67 4,308.33 5,323.75 6,292.92 10,292.92 11,200.42 12,262.08 13,123.33 14,215.83 15,185 16,262.08 17,200.42 18,292.92 19,215.83 20,169.58 21,169.58 22,308.33 23,262.08 24,154.17 25,123.33 26,154.17 27,185 28,277.5 29,154.17 30,246.67 31,138.75 32,154.17 33,200.42 34,169.58 35,277.5 36,138.75 38,138.75 39,200.42 40,154.17 41,169.58 42,138.75 43,154.17 44,154.17 45,185 46,154.17 47,262.08 48,231.25 49,277.5 50,185 51,185 52,215.83 53,123.33 54,138.75 55,215.83 56,169.58 57,200.42 58,231.25 59,154.17 60,154.17 61,339.17 62,185 63,154.17 64,200.42 65,169.58 66,169.58 67,339.17 68,231.25 69,154.17 70,138.75 71,231.25 72,154.17 73,215.83 74,138.75 75,185 76,308.33 77,154.17 78,123.33 79,215.83 80,246.67 81,169.58 82,308.33 83,246.67 84,292.92 85,215.83 86,323.75 86.91,370"><title>LR761642.1</title></polygon><rect class="average" height="1" width="86.91" x="0" y="174.68"><title>average:12.67</title></rect><rect class="median" height="1" width="86.91" x="0" y="200.42"><title>median:11</title></rect><text class="chromName" x="43.45" y="-12">LR761642.1<title>LR761642.1 37,089,910 bp</title></text><rect class="frame" height="370" width="86.91" x="0" y="0"/></g><g id="chrom-LR761643.1" transform="translate(1265.1671710093603,0)"><polygon class="cov1" points="0,370 0,323.75 1,262.08 2,169.58 3,123.33 4,154.17 5,231.25 6,169.58 7,169.58 8,154.17 9,138.75 10,154.17 11,185 12,138.75 13,154.17 14,231.25 15,154.17 16,123.33 17,154.17 18,154.17 19,185 20,354.58 21,154.17 22,138.75 23,138.75 24,185 25,169.58 26,323.75 27,292.92 28,277.5 29,138.75 30,215.83 31,169.58 32,231.25 33,154.17 34,185 35,231.25 36,231.25 37,138.75 38,154.17 39,138.75 40,154.17 41,169.58 42,185 43,277.5 44,169.58 45,185 46,138.75 47,231.25 48,169.58 49,154.17 50,200.42 51,154.17 53,154.17 54,185 55,154.17 56,138.75 57,154.17 58,169.58 59,154.17 60,138.75 61,138.75 62,185 63,154.17 64,169.58 65,200.42 66,169.58 68,169.58 69,154.17 70,169.58 71,231.25 72,200.42 73,185 74,138.75 75,215.83 76,154.17 77,138.75 78,231.25 79,262.08 80,138.75 81,138.75 82,154.17 83,154.17 84,138.75 85,138.75 86,154.17 87,138.75 88,185 89,354.58 90,185 91,138.75 92,123.33 93,154.17 94,123.33 95,154.17 96,138.75 98,138.75 99,123.33 100,138.75 101,231.25 102,138.75 103,154.17 105,154.17 106,138.75 107,138.75 108,154.17 109,123.33 110,138.75 112,138.75 113,200.42 114,154.17 115,138.75 116,123.33 118,123.33 119,154.17 120,138.75 121,123.33 122,138.75 123,123.33 124,138.75 125,138.75 126,107.92 127,154.17 128,154.17 129,123.33 130,169.58 131,200.42 132,123.33 133,200.42 134,246.67 134.83,370"><title>LR761643.1</title></polygon><rect class="average" height="1" width="134.83" x="0" y="164.67"><title>average:13.32</title></rect><rect class="median" height="1" width="134.83" x="0" y="154.17"><title>median:14</title></rect><text class="chromName" x="67.42" y="-12">LR761643.1<title>LR761643.1 57,541,580 bp</title></text><rect class="frame" height="370" width="134.83" x="0" y="0"/></g><g><line class="ruler" x1="-2" x2="1390" y1="333" y2="333"><title>2</title></line><text class="ruler" x="-5" y="333">2</text><line class="ruler" x1="-2" x2="1390" y1="296" y2="296"><title>4</title></line><text class="ruler" x="-5" y="296">4</text><line class="ruler" x1="-2" x2="1390" y1="259" y2="259"><title>7</title></line><text class="ruler" x="-5" y="259">7</text><line class="ruler" x1="-2" x2="1390" y1="222" y2="222"><title>9</title></line><text class="ruler" x="-5" y="222">9</text><line class="ruler" x1="-2" x2="1390" y1="185" y2="185"><title>12</title></line><text class="ruler" x="-5" y="185">12</text><line class="ruler" x1="-2" x2="1390" y1="148" y2="148"><title>14</title></line><text class="ruler" x="-5" y="148">14</text><line class="ruler" x1="-2" x2="1390" y1="111" y2="111"><title>16</title></line><text class="ruler" x="-5" y="111">16</text><line class="ruler" x1="-2" x2="1390" y1="74" y2="74"><title>19</title></line><text class="ruler" x="-5" y="74">19</text><line class="ruler" x1="-2" x2="1390" y1="37" y2="37"><title>21</title></line><text class="ruler" x="-5" y="37">21</text><line class="ruler" x1="-2" x2="1390" y1="0" y2="0"><title>24</title></line><text class="ruler" x="-5" y="0">24</text></g></g><text class="title" x="795" y="40">F7_M8_14.merged.realigned.bam F7_M8_14 F7_M8_14_1 F7_M8_14_2<title>./F7_M8_14.merged.realigned.bam</title></text><text class="xLabel" x="795" y="475">GCA_902806645.1_cgigas_uk_roslin_v1_genomic.fna  (589,358,857 bp)<title>../ref/GCA_902806645.1_cgigas_uk_roslin_v1_genomic.fna</title></text><text class="yLabel" transform="translate(25,265) rotate(90)" x="0" y="0">Coverage bp (median)</text></g></svg>