<?xml version="1.0" encoding="UTF-8" standalone="no"?><svg height="500" width="1500" xmlns="http://www.w3.org/2000/svg"><title>F7_M9_14.merged.realigned.bam</title><desc>Made with wgscoverageplotter undefined Author: Pierre Lindenbaum</desc><style>g.maing {stroke:black;stroke-width:0.5px;fill:none;}
text.title {stroke:none;fill:black;stroke-width:1px;text-anchor:middle;}
rect.frame {stroke:darkgray;fill:none;stroke-width:0.5px;}
text.ruler {stroke:none;fill:darkgray;stroke-width:1px;text-anchor:end;}
text.chromName {stroke:none;fill:darkgray;stroke-width:1px;text-anchor:middle;}
text.xLabel {stroke:none;fill:black;stroke-width:1px;text-anchor:middle;}
text.yLabel {stroke:none;fill:black;stroke-width:1px;text-anchor:middle;}
.cov0 {stroke:gray;fill:antiquewhite;stroke-width:0.5px;}
.cov1 {stroke:gray;fill:beige;stroke-width:0.5px;}
rect.average {stroke:green;fill:green;stroke-width:0.5px;opacity:0.3;}
rect.median {stroke:red;fill:red;stroke-width:0.5px;opacity:0.3;}
line.ruler {stroke:darkgray;stroke-dasharray:4;fill:none;stroke-width:1;}
</style><g class="maing"><g id="chromosomes" transform="translate(100.0,80.0)"><g id="chrom-LR761634.1" transform="translate(10.0,0)"><polygon class="cov0" points="0,370 0,317.14 1,132.14 2,171.79 3,303.93 4,211.43 5,185 6,303.93 7,198.21 8,171.79 9,145.36 10,171.79 11,132.14 12,171.79 13,237.86 14,251.07 15,145.36 16,132.14 17,224.64 18,132.14 19,145.36 20,132.14 21,145.36 22,158.57 23,158.57 24,171.79 25,132.14 26,132.14 27,145.36 31,145.36 32,264.29 33,145.36 34,145.36 35,158.57 36,132.14 37,198.21 38,185 39,132.14 42,132.14 43,185 44,145.36 45,185 46,185 47,145.36 48,158.57 49,145.36 50,158.57 51,145.36 52,132.14 53,145.36 54,171.79 55,158.57 56,118.93 57,132.14 58,145.36 59,145.36 60,158.57 61,132.14 62,158.57 63,185 64,211.43 65,171.79 66,145.36 67,198.21 68,132.14 69,185 70,145.36 71,145.36 72,251.07 73,185 74,158.57 75,145.36 76,145.36 77,198.21 78,185 79,145.36 80,317.14 81,290.71 82,132.14 83,145.36 84,158.57 85,145.36 86,132.14 87,198.21 88,132.14 89,277.5 90,158.57 91,171.79 92,132.14 93,158.57 94,132.14 95,132.14 96,118.93 97,198.21 98,237.86 99,132.14 100,145.36 101,158.57 102,145.36 103,171.79 104,198.21 105,132.14 106,211.43 107,185 108,264.29 109,132.14 110,118.93 111,145.36 112,132.14 113,185 114,264.29 115,198.21 116,118.93 118,118.93 119,158.57 120,237.86 121,132.14 122,145.36 123,132.14 124,145.36 125,118.93 126,145.36 127,145.36 128,198.21 129,198.21 130,251.07 130.72,370"><title>LR761634.1</title></polygon><rect class="average" height="1" width="130.72" x="0" y="162.27"><title>average:15.72</title></rect><rect class="median" height="1" width="130.72" x="0" y="158.57"><title>median:16</title></rect><text class="chromName" x="65.36" y="-12">LR761634.1<title>LR761634.1 55,785,328 bp</title></text><rect class="frame" height="370" width="130.72" x="0" y="0"/></g><g id="chrom-LR761635.1" transform="translate(141.71753661284166,0)"><polygon class="cov1" points="0,370 0,343.57 1,356.79 2,317.14 3,303.93 4,343.57 5,330.36 6,237.86 7,277.5 8,290.71 9,198.21 10,198.21 11,251.07 12,171.79 13,158.57 14,224.64 15,277.5 16,290.71 17,251.07 18,251.07 19,211.43 20,264.29 21,277.5 22,264.29 23,224.64 24,317.14 25,343.57 26,290.71 27,343.57 28,290.71 29,330.36 30,343.57 31,317.14 32,264.29 33,224.64 34,224.64 35,251.07 36,251.07 37,317.14 38,343.57 39,198.21 40,224.64 41,251.07 42,185 43,198.21 44,145.36 45,198.21 46,211.43 47,158.57 48,290.71 49,198.21 50,264.29 51,343.57 52,264.29 53,237.86 54,290.71 55,277.5 56,330.36 57,277.5 58,171.79 59,317.14 60,303.93 61,264.29 62,145.36 63,251.07 64,237.86 65,237.86 66,290.71 67,277.5 68,251.07 69,303.93 70,277.5 71,224.64 72,198.21 73,224.64 74,237.86 75,198.21 76,343.57 77,26.43 78,264.29 79,303.93 80,158.57 81,317.14 82,317.14 83,303.93 84,343.57 85,290.71 86,343.57 87,343.57 88,330.36 89,317.14 90,264.29 91,330.36 92,290.71 93,264.29 94,277.5 95,277.5 96,330.36 97,290.71 98,317.14 99,290.71 100,277.5 101,264.29 102,317.14 103,224.64 104,224.64 105,145.36 106,224.64 107,264.29 108,185 109,198.21 110,277.5 111,198.21 112,317.14 113,330.36 114,303.93 115,317.14 116,317.14 117,277.5 118,185 119,185 120,145.36 121,185 122,251.07 123,251.07 124,264.29 125,145.36 126,211.43 127,251.07 128,185 129,224.64 130,171.79 131,277.5 132,224.64 133,290.71 134,303.93 135,303.93 136,330.36 137,317.14 138,317.14 139,277.5 140,330.36 141,290.71 142,277.5 143,303.93 144,264.29 145,224.64 146,277.5 147,92.5 148,171.79 149,145.36 150,237.86 151,277.5 152,343.57 153,224.64 154,317.14 155,251.07 156,251.07 157,211.43 158,251.07 159,158.57 160,237.86 161,237.86 162,290.71 163,251.07 164,237.86 165,264.29 166,290.71 167,303.93 168,277.5 169,317.14 170,317.14 171,330.36 171.58,370"><title>LR761635.1</title></polygon><rect class="average" height="1" width="171.58" x="0" y="210.47"><title>average:12.07</title></rect><rect class="median" height="1" width="171.58" x="0" y="264.29"><title>median:8</title></rect><text class="chromName" x="85.79" y="-12">LR761635.1<title>LR761635.1 73,222,313 bp</title></text><rect class="frame" height="370" width="171.58" x="0" y="0"/></g><g id="chrom-LR761636.1" transform="translate(314.2938403401308,0)"><polygon class="cov0" points="0,370 0,343.57 1,145.36 2,224.64 3,330.36 4,224.64 5,145.36 6,132.14 7,145.36 8,132.14 9,158.57 10,118.93 11,132.14 12,145.36 13,224.64 14,118.93 15,145.36 16,118.93 17,132.14 18,158.57 19,158.57 20,132.14 23,132.14 24,211.43 25,145.36 26,211.43 27,277.5 28,132.14 29,118.93 30,132.14 33,132.14 34,145.36 35,198.21 36,145.36 37,185 38,158.57 39,145.36 40,171.79 41,171.79 42,158.57 43,171.79 44,145.36 45,158.57 46,171.79 47,145.36 48,237.86 49,158.57 50,171.79 51,132.14 52,145.36 53,145.36 54,264.29 55,185 56,171.79 57,145.36 58,171.79 59,145.36 60,171.79 61,224.64 62,171.79 63,145.36 65,145.36 66,158.57 67,158.57 68,171.79 69,158.57 70,185 71,132.14 72,132.14 73,185 74,171.79 75,158.57 76,303.93 77,211.43 78,237.86 79,264.29 80,277.5 81,145.36 82,224.64 83,158.57 84,132.14 85,145.36 86,264.29 87,171.79 88,158.57 89,198.21 90,158.57 91,132.14 92,198.21 93,158.57 94,145.36 95,198.21 96,224.64 97,145.36 98,145.36 99,171.79 100,171.79 101,158.57 102,158.57 103,118.93 104,132.14 105,145.36 106,158.57 107,145.36 108,132.14 110,132.14 111,171.79 112,158.57 113,185 114,132.14 115,132.14 116,145.36 117,145.36 118,171.79 119,145.36 120,145.36 121,224.64 122,132.14 123,132.14 124,198.21 125,132.14 126,132.14 127,237.86 128,251.07 129,132.14 130,145.36 131,145.36 132,158.57 133,158.57 134,132.14 135,145.36 136,317.14 136.65,370"><title>LR761636.1</title></polygon><rect class="average" height="1" width="136.65" x="0" y="162.76"><title>average:15.68</title></rect><rect class="median" height="1" width="136.65" x="0" y="158.57"><title>median:16</title></rect><text class="chromName" x="68.33" y="-12">LR761636.1<title>LR761636.1 58,319,100 bp</title></text><rect class="frame" height="370" width="136.65" x="0" y="0"/></g><g id="chrom-LR761637.1" transform="translate(451.9485730949149,0)"><polygon class="cov1" points="0,370 0,277.5 1,237.86 2,264.29 3,224.64 4,198.21 5,158.57 6,185 7,251.07 8,198.21 9,251.07 10,343.57 11,171.79 12,224.64 13,277.5 14,317.14 15,198.21 16,237.86 17,118.93 18,264.29 19,290.71 20,211.43 21,158.57 22,158.57 23,211.43 24,303.93 25,171.79 26,145.36 27,264.29 28,224.64 29,251.07 30,264.29 31,145.36 32,158.57 33,185 34,132.14 35,198.21 36,290.71 37,198.21 38,171.79 39,158.57 40,158.57 41,290.71 42,251.07 43,303.93 44,330.36 45,198.21 46,158.57 47,145.36 49,145.36 50,198.21 51,145.36 52,118.93 53,185 54,132.14 55,145.36 56,171.79 57,224.64 58,277.5 59,303.93 60,317.14 61,237.86 62,145.36 64,145.36 65,158.57 66,145.36 67,171.79 68,185 69,132.14 70,158.57 71,158.57 72,185 73,145.36 74,171.79 75,171.79 76,145.36 77,158.57 78,185 79,198.21 80,171.79 81,171.79 82,145.36 83,158.57 84,171.79 85,132.14 86,224.64 87,171.79 88,145.36 89,145.36 90,132.14 91,145.36 92,132.14 93,171.79 94,185 95,237.86 96,198.21 97,145.36 98,118.93 99,132.14 100,251.07 101,277.5 102,264.29 103,277.5 104,277.5 105,290.71 106,132.14 107,118.93 108,132.14 109,132.14 110,118.93 111,158.57 112,145.36 113,118.93 114,290.71 115,198.21 116,185 117,171.79 118,145.36 119,317.14 120,171.79 121,132.14 122,277.5 123,330.36 124,303.93 124.49,370"><title>LR761637.1</title></polygon><rect class="average" height="1" width="124.49" x="0" y="183.22"><title>average:14.13</title></rect><rect class="median" height="1" width="124.49" x="0" y="185"><title>median:14</title></rect><text class="chromName" x="62.25" y="-12">LR761637.1<title>LR761637.1 53,127,865 bp</title></text><rect class="frame" height="370" width="124.49" x="0" y="0"/></g><g id="chrom-LR761638.1" transform="translate(577.4390778079033,0)"><polygon class="cov0" points="0,370 0,158.57 1,132.14 2,185 3,145.36 4,303.93 5,158.57 6,198.21 7,198.21 8,211.43 9,132.14 10,171.79 11,237.86 12,145.36 13,171.79 14,132.14 15,158.57 16,105.71 17,132.14 18,264.29 19,343.57 20,171.79 21,237.86 22,145.36 23,132.14 24,132.14 25,158.57 26,317.14 27,132.14 28,185 29,330.36 30,264.29 31,158.57 32,370 33,356.79 34,198.21 35,237.86 36,171.79 37,343.57 38,277.5 39,343.57 40,356.79 41,317.14 42,264.29 43,158.57 44,158.57 45,317.14 46,224.64 47,118.93 48,145.36 49,251.07 50,356.79 51,237.86 52,198.21 53,185 54,251.07 55,251.07 56,158.57 57,237.86 58,158.57 59,185 60,158.57 61,211.43 62,171.79 63,330.36 64,343.57 65,343.57 66,198.21 67,198.21 68,185 69,277.5 70,185 71,343.57 72,356.79 73,303.93 74,277.5 75,356.79 76,343.57 77,224.64 78,370 79,343.57 80,330.36 81,211.43 82,330.36 83,330.36 84,303.93 85,185 86,145.36 87,171.79 88,317.14 89,158.57 90,290.71 91,158.57 92,132.14 93,132.14 94,158.57 95,237.86 96,330.36 97,158.57 98,277.5 99,224.64 100,198.21 101,185 102,277.5 103,198.21 104,317.14 105,317.14 106,251.07 107,185 108,211.43 109,211.43 110,237.86 111,211.43 112,303.93 113,264.29 114,264.29 115,277.5 116,290.71 117,303.93 118,356.79 119,290.71 120,277.5 121,343.57 122,356.79 123,356.79 124,317.14 125,290.71 126,343.57 127,264.29 128,356.79 129,277.5 130,330.36 131,317.14 132,277.5 133,343.57 134,251.07 135,303.93 136,171.79 137,356.79 138,343.57 139,303.93 140,370 141,370 142,303.93 143,303.93 144,171.79 145,185 146,277.5 147,145.36 148,171.79 149,171.79 150,198.21 151,224.64 152,171.79 153,158.57 154,237.86 155,290.71 156,211.43 157,251.07 158,303.93 159,171.79 160,198.21 161,185 162,185 163,211.43 164,277.5 165,290.71 166,290.71 167,303.93 168,251.07 169,185 170,370 171,343.57 172,343.57 172.35,370"><title>LR761638.1</title></polygon><rect class="average" height="1" width="172.35" x="0" y="213.57"><title>average:11.84</title></rect><rect class="median" height="1" width="172.35" x="0" y="251.07"><title>median:9</title></rect><text class="chromName" x="86.17" y="-12">LR761638.1<title>LR761638.1 73,550,375 bp</title></text><rect class="frame" height="370" width="172.35" x="0" y="0"/></g><g id="chrom-LR761639.1" transform="translate(750.784104388203,0)"><polygon class="cov1" points="0,370 0,317.14 1,132.14 2,118.93 3,264.29 4,158.57 5,224.64 6,343.57 7,198.21 8,145.36 9,145.36 10,171.79 11,264.29 12,264.29 13,132.14 14,158.57 15,145.36 16,145.36 17,132.14 18,145.36 19,132.14 20,132.14 21,145.36 22,158.57 23,171.79 24,171.79 25,198.21 26,198.21 27,330.36 28,356.79 29,237.86 30,330.36 31,145.36 32,145.36 33,132.14 34,198.21 35,224.64 36,171.79 37,145.36 39,145.36 40,211.43 41,145.36 42,158.57 43,132.14 44,158.57 45,132.14 46,171.79 47,145.36 48,145.36 49,158.57 50,158.57 51,145.36 52,185 53,171.79 54,171.79 55,145.36 59,145.36 60,132.14 61,145.36 62,158.57 63,171.79 64,132.14 65,145.36 66,171.79 67,145.36 68,145.36 69,185 70,145.36 71,158.57 72,158.57 73,145.36 74,224.64 75,145.36 76,145.36 77,158.57 78,145.36 79,145.36 80,171.79 81,145.36 82,132.14 83,145.36 84,198.21 85,145.36 86,132.14 87,145.36 88,132.14 89,132.14 90,118.93 91,145.36 92,145.36 93,171.79 94,158.57 95,145.36 96,132.14 97,132.14 98,118.93 99,145.36 100,145.36 101,132.14 102,145.36 103,145.36 104,132.14 105,132.14 106,251.07 107,145.36 108,132.14 109,145.36 110,132.14 111,317.14 112,185 113,118.93 114,185 115,132.14 116,158.57 117,145.36 118,145.36 119,132.14 120,158.57 121,132.14 123,132.14 124,171.79 125,145.36 126,132.14 127,132.14 128,145.36 129,145.36 130,185 131,145.36 132,185 133,343.57 134,118.93 135,185 136,158.57 137,145.36 138,211.43 139,185 140,317.14 140.95,370"><title>LR761639.1</title></polygon><rect class="average" height="1" width="140.95" x="0" y="162.35"><title>average:15.71</title></rect><rect class="median" height="1" width="140.95" x="0" y="158.57"><title>median:16</title></rect><text class="chromName" x="70.47" y="-12">LR761639.1<title>LR761639.1 60,151,564 bp</title></text><rect class="frame" height="370" width="140.95" x="0" y="0"/></g><g id="chrom-LR761640.1" transform="translate(892.7327113317651,0)"><polygon class="cov0" points="0,370 0,198.21 1,118.93 2,198.21 3,171.79 4,158.57 5,118.93 6,185 7,198.21 8,132.14 9,171.79 10,145.36 11,132.14 12,118.93 13,237.86 14,185 15,158.57 16,211.43 17,145.36 18,132.14 19,211.43 20,145.36 21,145.36 22,132.14 23,132.14 24,158.57 25,158.57 26,118.93 27,132.14 28,158.57 29,145.36 30,145.36 31,158.57 32,145.36 33,132.14 34,145.36 35,132.14 36,145.36 37,198.21 38,118.93 39,171.79 40,118.93 41,132.14 42,118.93 43,132.14 44,132.14 45,158.57 46,145.36 47,251.07 48,264.29 49,132.14 50,145.36 51,132.14 52,132.14 53,145.36 54,132.14 56,132.14 57,198.21 58,158.57 59,185 60,251.07 61,145.36 62,158.57 63,185 64,145.36 65,317.14 66,145.36 67,145.36 68,158.57 69,198.21 70,198.21 71,158.57 72,171.79 73,185 74,185 75,145.36 76,145.36 77,224.64 78,145.36 79,198.21 80,132.14 81,118.93 82,118.93 83,145.36 84,158.57 85,132.14 86,290.71 87,158.57 88,171.79 90,171.79 91,317.14 92,277.5 93,198.21 94,290.71 95,158.57 96,145.36 97,145.36 98,171.79 99,158.57 100,118.93 101,198.21 102,290.71 103,198.21 104,132.14 106,132.14 107,185 108,185 109,145.36 110,158.57 111,198.21 112,158.57 113,158.57 114,185 115,145.36 116,317.14 117,343.57 118,356.79 119,330.36 120,158.57 121,132.14 122,145.36 124,145.36 125,132.14 126,132.14 127,145.36 128,264.29 129,158.57 130,132.14 131,145.36 133,145.36 134,118.93 135,132.14 136,145.36 137,145.36 138,132.14 139,185 140,145.36 141,132.14 142,171.79 143,185 144,145.36 145,132.14 145.53,370"><title>LR761640.1</title></polygon><rect class="average" height="1" width="145.53" x="0" y="164.5"><title>average:15.55</title></rect><rect class="median" height="1" width="145.53" x="0" y="158.57"><title>median:16</title></rect><text class="chromName" x="72.77" y="-12">LR761640.1<title>LR761640.1 62,107,823 bp</title></text><rect class="frame" height="370" width="145.53" x="0" y="0"/></g><g id="chrom-LR761641.1" transform="translate(1039.265271917344,0)"><polygon class="cov1" points="0,370 0,317.14 1,171.79 2,185 3,211.43 4,145.36 5,171.79 6,317.14 7,290.71 8,211.43 9,158.57 10,132.14 11,237.86 12,251.07 13,132.14 14,251.07 15,132.14 16,158.57 17,277.5 18,132.14 20,132.14 21,171.79 22,198.21 23,158.57 24,185 25,185 26,237.86 27,224.64 28,237.86 29,290.71 30,237.86 31,198.21 32,264.29 33,224.64 34,290.71 35,277.5 36,343.57 37,251.07 38,264.29 39,264.29 40,211.43 41,277.5 42,330.36 43,343.57 44,251.07 45,224.64 46,237.86 47,277.5 48,303.93 49,145.36 50,198.21 51,158.57 52,132.14 53,145.36 54,145.36 55,132.14 56,132.14 57,171.79 58,171.79 59,185 60,158.57 61,290.71 62,158.57 63,198.21 64,171.79 65,198.21 66,224.64 67,224.64 68,264.29 69,171.79 70,198.21 71,132.14 72,198.21 73,317.14 74,211.43 75,303.93 76,198.21 77,198.21 78,185 79,224.64 80,290.71 81,343.57 82,343.57 83,330.36 84,198.21 85,145.36 86,264.29 87,132.14 88,224.64 89,198.21 90,277.5 91,224.64 92,145.36 93,224.64 94,290.71 95,211.43 96,198.21 97,317.14 98,145.36 99,370 100,251.07 101,132.14 102,158.57 103,132.14 104,171.79 105,132.14 106,277.5 107,145.36 108,158.57 109,145.36 110,132.14 111,303.93 112,132.14 113,251.07 114,145.36 115,171.79 116,118.93 117,171.79 118,145.36 119,198.21 120,211.43 121,185 122,185 123,237.86 124,158.57 125,224.64 126,251.07 127,132.14 128,264.29 129,171.79 130,290.71 131,211.43 132,317.14 133,277.5 134,132.14 135,356.79 136,317.14 136.99,370"><title>LR761641.1</title></polygon><rect class="average" height="1" width="136.99" x="0" y="192.05"><title>average:13.47</title></rect><rect class="median" height="1" width="136.99" x="0" y="211.43"><title>median:12</title></rect><text class="chromName" x="68.5" y="-12">LR761641.1<title>LR761641.1 58,462,999 bp</title></text><rect class="frame" height="370" width="136.99" x="0" y="0"/></g><g id="chrom-LR761642.1" transform="translate(1177.25719230686,0)"><polygon class="cov0" points="0,370 0,303.93 1,290.71 2,303.93 3,317.14 4,356.79 5,370 6,343.57 7,343.57 8,317.14 9,277.5 10,277.5 11,237.86 12,264.29 13,145.36 14,198.21 15,158.57 16,251.07 17,211.43 18,303.93 19,237.86 20,224.64 21,171.79 22,303.93 23,290.71 24,185 25,132.14 26,198.21 27,211.43 28,290.71 29,171.79 30,211.43 31,145.36 32,158.57 33,211.43 34,185 35,264.29 36,145.36 38,145.36 39,198.21 40,158.57 41,171.79 42,145.36 43,158.57 44,158.57 45,224.64 46,158.57 47,264.29 48,290.71 49,303.93 50,185 51,224.64 52,237.86 53,132.14 54,145.36 55,224.64 56,185 57,198.21 58,237.86 59,145.36 60,171.79 61,343.57 62,185 63,171.79 64,211.43 65,185 66,185 67,330.36 68,277.5 69,158.57 70,158.57 71,237.86 72,158.57 73,211.43 74,158.57 75,198.21 76,317.14 77,158.57 78,145.36 79,237.86 80,224.64 81,171.79 82,317.14 83,251.07 84,290.71 85,251.07 86,317.14 86.91,370"><title>LR761642.1</title></polygon><rect class="average" height="1" width="86.91" x="0" y="188.51"><title>average:13.73</title></rect><rect class="median" height="1" width="86.91" x="0" y="224.64"><title>median:11</title></rect><text class="chromName" x="43.45" y="-12">LR761642.1<title>LR761642.1 37,089,910 bp</title></text><rect class="frame" height="370" width="86.91" x="0" y="0"/></g><g id="chrom-LR761643.1" transform="translate(1265.1671710093603,0)"><polygon class="cov1" points="0,370 0,290.71 1,251.07 2,171.79 3,132.14 4,145.36 5,237.86 6,171.79 7,171.79 8,145.36 9,132.14 10,145.36 11,185 12,132.14 13,185 14,251.07 15,158.57 16,132.14 17,158.57 18,158.57 19,185 20,330.36 21,158.57 22,145.36 23,145.36 24,171.79 25,185 26,330.36 27,290.71 28,277.5 29,145.36 30,211.43 31,171.79 32,211.43 33,158.57 34,171.79 35,211.43 36,251.07 37,145.36 38,145.36 39,132.14 40,158.57 41,171.79 42,198.21 43,277.5 44,158.57 45,185 46,145.36 47,251.07 48,171.79 49,158.57 50,185 51,145.36 52,158.57 53,158.57 54,171.79 55,145.36 57,145.36 58,171.79 59,145.36 60,132.14 61,145.36 62,171.79 63,158.57 64,158.57 65,198.21 66,171.79 67,171.79 68,158.57 70,158.57 71,251.07 72,211.43 73,185 74,145.36 75,224.64 76,158.57 77,132.14 78,211.43 79,251.07 80,145.36 81,132.14 82,158.57 83,145.36 84,132.14 85,145.36 86,145.36 87,118.93 88,171.79 89,343.57 90,185 91,145.36 92,132.14 93,158.57 94,132.14 95,158.57 96,132.14 99,132.14 100,145.36 101,224.64 102,145.36 103,158.57 104,158.57 105,145.36 106,132.14 107,132.14 108,145.36 109,132.14 112,132.14 113,211.43 114,158.57 115,145.36 116,118.93 118,118.93 119,158.57 120,132.14 121,118.93 122,132.14 123,132.14 124,145.36 125,145.36 126,118.93 127,158.57 128,171.79 129,118.93 130,171.79 131,198.21 132,132.14 133,211.43 134,251.07 134.83,370"><title>LR761643.1</title></polygon><rect class="average" height="1" width="134.83" x="0" y="166.88"><title>average:15.37</title></rect><rect class="median" height="1" width="134.83" x="0" y="158.57"><title>median:16</title></rect><text class="chromName" x="67.42" y="-12">LR761643.1<title>LR761643.1 57,541,580 bp</title></text><rect class="frame" height="370" width="134.83" x="0" y="0"/></g><g><line class="ruler" x1="-2" x2="1390" y1="333" y2="333"><title>2</title></line><text class="ruler" x="-5" y="333">2</text><line class="ruler" x1="-2" x2="1390" y1="296" y2="296"><title>5</title></line><text class="ruler" x="-5" y="296">5</text><line class="ruler" x1="-2" x2="1390" y1="259" y2="259"><title>8</title></line><text class="ruler" x="-5" y="259">8</text><line class="ruler" x1="-2" x2="1390" y1="222" y2="222"><title>11</title></line><text class="ruler" x="-5" y="222">11</text><line class="ruler" x1="-2" x2="1390" y1="185" y2="185"><title>14</title></line><text class="ruler" x="-5" y="185">14</text><line class="ruler" x1="-2" x2="1390" y1="148" y2="148"><title>16</title></line><text class="ruler" x="-5" y="148">16</text><line class="ruler" x1="-2" x2="1390" y1="111" y2="111"><title>19</title></line><text class="ruler" x="-5" y="111">19</text><line class="ruler" x1="-2" x2="1390" y1="74" y2="74"><title>22</title></line><text class="ruler" x="-5" y="74">22</text><line class="ruler" x1="-2" x2="1390" y1="37" y2="37"><title>25</title></line><text class="ruler" x="-5" y="37">25</text><line class="ruler" x1="-2" x2="1390" y1="0" y2="0"><title>28</title></line><text class="ruler" x="-5" y="0">28</text></g></g><text class="title" x="795" y="40">F7_M9_14.merged.realigned.bam F7_M9_14 F7_M9_14_1 F7_M9_14_2<title>./F7_M9_14.merged.realigned.bam</title></text><text class="xLabel" x="795" y="475">GCA_902806645.1_cgigas_uk_roslin_v1_genomic.fna  (589,358,857 bp)<title>../ref/GCA_902806645.1_cgigas_uk_roslin_v1_genomic.fna</title></text><text class="yLabel" transform="translate(25,265) rotate(90)" x="0" y="0">Coverage bp (median)</text></g></svg>