<?xml version="1.0" encoding="UTF-8" standalone="no"?><svg height="500" width="1500" xmlns="http://www.w3.org/2000/svg"><title>F8_M9_14.merged.realigned.bam</title><desc>Made with wgscoverageplotter undefined Author: Pierre Lindenbaum</desc><style>g.maing {stroke:black;stroke-width:0.5px;fill:none;}
text.title {stroke:none;fill:black;stroke-width:1px;text-anchor:middle;}
rect.frame {stroke:darkgray;fill:none;stroke-width:0.5px;}
text.ruler {stroke:none;fill:darkgray;stroke-width:1px;text-anchor:end;}
text.chromName {stroke:none;fill:darkgray;stroke-width:1px;text-anchor:middle;}
text.xLabel {stroke:none;fill:black;stroke-width:1px;text-anchor:middle;}
text.yLabel {stroke:none;fill:black;stroke-width:1px;text-anchor:middle;}
.cov0 {stroke:gray;fill:antiquewhite;stroke-width:0.5px;}
.cov1 {stroke:gray;fill:beige;stroke-width:0.5px;}
rect.average {stroke:green;fill:green;stroke-width:0.5px;opacity:0.3;}
rect.median {stroke:red;fill:red;stroke-width:0.5px;opacity:0.3;}
line.ruler {stroke:darkgray;stroke-dasharray:4;fill:none;stroke-width:1;}
</style><g class="maing"><g id="chromosomes" transform="translate(100.0,80.0)"><g id="chrom-LR761634.1" transform="translate(10.0,0)"><polygon class="cov0" points="0,370 0,336.36 1,151.36 2,168.18 3,285.91 4,218.64 5,185 6,269.09 7,201.82 8,168.18 9,134.55 10,168.18 11,117.73 12,151.36 13,218.64 14,285.91 15,134.55 16,134.55 17,201.82 18,134.55 19,134.55 20,117.73 21,151.36 22,168.18 24,168.18 25,117.73 26,134.55 27,134.55 28,151.36 29,134.55 30,151.36 31,151.36 32,269.09 33,134.55 34,151.36 35,151.36 36,117.73 37,201.82 38,201.82 39,134.55 42,134.55 43,201.82 44,168.18 45,218.64 46,185 47,151.36 51,151.36 52,134.55 53,151.36 54,235.45 55,269.09 56,134.55 57,117.73 58,134.55 59,151.36 60,151.36 61,134.55 62,168.18 63,185 64,201.82 65,185 66,168.18 67,185 68,134.55 69,218.64 70,134.55 71,134.55 72,235.45 73,185 74,151.36 75,134.55 76,134.55 77,201.82 78,168.18 79,151.36 80,269.09 81,269.09 82,134.55 83,151.36 85,151.36 86,117.73 87,201.82 88,134.55 89,285.91 90,168.18 91,151.36 92,134.55 93,168.18 94,117.73 95,134.55 96,117.73 97,151.36 98,319.55 99,134.55 100,151.36 101,185 102,151.36 103,185 104,201.82 105,117.73 106,218.64 107,185 108,252.27 109,117.73 110,117.73 111,151.36 112,134.55 113,168.18 114,269.09 115,218.64 116,117.73 117,134.55 118,117.73 119,168.18 120,201.82 121,134.55 122,134.55 123,117.73 124,151.36 125,134.55 126,134.55 127,151.36 128,201.82 129,185 130,235.45 130.72,370"><title>LR761634.1</title></polygon><rect class="average" height="1" width="130.72" x="0" y="161.18"><title>average:12.42</title></rect><rect class="median" height="1" width="130.72" x="0" y="168.18"><title>median:12</title></rect><text class="chromName" x="65.36" y="-12">LR761634.1<title>LR761634.1 55,785,328 bp</title></text><rect class="frame" height="370" width="130.72" x="0" y="0"/></g><g id="chrom-LR761635.1" transform="translate(141.71753661284166,0)"><polygon class="cov1" points="0,370 0,336.36 1,353.18 2,336.36 3,269.09 4,336.36 5,370 6,218.64 7,302.73 8,319.55 9,252.27 10,235.45 11,285.91 12,252.27 13,185 14,218.64 15,302.73 16,302.73 17,252.27 18,285.91 19,235.45 20,285.91 22,285.91 23,269.09 24,302.73 25,353.18 26,302.73 27,336.36 28,302.73 29,353.18 30,336.36 31,302.73 32,252.27 33,218.64 34,235.45 35,235.45 36,285.91 37,319.55 38,319.55 39,185 40,185 41,235.45 42,185 43,201.82 44,168.18 45,185 46,218.64 47,168.18 48,302.73 49,201.82 50,218.64 51,353.18 52,285.91 53,252.27 54,319.55 55,302.73 56,336.36 57,319.55 58,185 59,302.73 60,302.73 61,269.09 62,185 63,302.73 64,285.91 65,252.27 66,269.09 67,302.73 68,252.27 69,285.91 70,302.73 71,252.27 72,252.27 73,235.45 74,252.27 75,201.82 76,336.36 77,0 78,269.09 79,302.73 80,151.36 81,285.91 82,319.55 83,285.91 84,370 85,302.73 86,336.36 87,353.18 88,319.55 89,319.55 90,269.09 91,302.73 92,336.36 93,336.36 94,302.73 95,302.73 96,353.18 97,302.73 98,319.55 99,319.55 100,285.91 101,302.73 102,319.55 103,235.45 104,252.27 105,218.64 106,269.09 107,285.91 108,218.64 109,185 110,302.73 111,201.82 112,336.36 113,336.36 114,302.73 115,336.36 116,302.73 117,269.09 118,185 119,185 120,151.36 121,201.82 122,235.45 123,235.45 124,252.27 125,168.18 126,252.27 127,269.09 128,185 129,252.27 130,185 131,269.09 132,235.45 133,285.91 134,319.55 135,302.73 136,319.55 138,319.55 139,302.73 140,336.36 141,319.55 142,319.55 143,302.73 144,269.09 145,252.27 146,235.45 147,134.55 148,185 149,151.36 150,235.45 151,302.73 152,336.36 153,252.27 154,285.91 155,235.45 156,285.91 157,269.09 158,302.73 159,168.18 160,269.09 161,269.09 162,302.73 163,285.91 164,235.45 165,252.27 166,319.55 167,336.36 168,285.91 169,319.55 170,302.73 171,319.55 171.58,370"><title>LR761635.1</title></polygon><rect class="average" height="1" width="171.58" x="0" y="223.1"><title>average:8.73</title></rect><rect class="median" height="1" width="171.58" x="0" y="285.91"><title>median:5</title></rect><text class="chromName" x="85.79" y="-12">LR761635.1<title>LR761635.1 73,222,313 bp</title></text><rect class="frame" height="370" width="171.58" x="0" y="0"/></g><g id="chrom-LR761636.1" transform="translate(314.2938403401308,0)"><polygon class="cov0" points="0,370 0,336.36 1,151.36 2,269.09 3,285.91 4,235.45 5,151.36 6,168.18 7,168.18 8,134.55 9,151.36 10,134.55 11,151.36 12,151.36 13,252.27 14,117.73 15,151.36 16,134.55 17,134.55 18,151.36 19,168.18 20,151.36 21,134.55 23,134.55 24,201.82 25,134.55 26,218.64 27,252.27 28,134.55 30,134.55 31,117.73 32,134.55 33,134.55 34,151.36 35,185 36,151.36 37,185 38,151.36 39,134.55 40,151.36 41,168.18 42,168.18 43,151.36 44,134.55 45,151.36 46,185 47,151.36 48,218.64 49,168.18 50,168.18 51,134.55 52,151.36 53,134.55 54,235.45 55,185 56,168.18 57,134.55 58,168.18 59,134.55 60,185 61,235.45 62,185 63,151.36 64,134.55 65,168.18 66,151.36 67,168.18 69,168.18 70,201.82 71,117.73 72,134.55 73,185 74,168.18 75,168.18 76,319.55 77,201.82 78,235.45 79,269.09 80,285.91 81,151.36 82,218.64 83,151.36 84,117.73 85,151.36 86,252.27 87,168.18 88,151.36 89,201.82 90,151.36 91,134.55 92,201.82 93,168.18 94,151.36 95,168.18 96,218.64 97,134.55 98,151.36 99,185 100,151.36 101,168.18 102,168.18 103,117.73 104,134.55 105,134.55 106,151.36 107,151.36 108,134.55 110,134.55 111,151.36 112,151.36 113,168.18 114,117.73 115,117.73 116,134.55 117,151.36 118,168.18 119,134.55 120,134.55 121,252.27 122,134.55 123,134.55 124,185 125,134.55 126,117.73 127,201.82 128,235.45 129,117.73 130,134.55 131,168.18 132,168.18 133,151.36 134,134.55 135,134.55 136,302.73 136.65,370"><title>LR761636.1</title></polygon><rect class="average" height="1" width="136.65" x="0" y="160.18"><title>average:12.48</title></rect><rect class="median" height="1" width="136.65" x="0" y="151.36"><title>median:13</title></rect><text class="chromName" x="68.33" y="-12">LR761636.1<title>LR761636.1 58,319,100 bp</title></text><rect class="frame" height="370" width="136.65" x="0" y="0"/></g><g id="chrom-LR761637.1" transform="translate(451.9485730949149,0)"><polygon class="cov1" points="0,370 0,353.18 1,269.09 2,302.73 3,269.09 4,235.45 5,185 6,218.64 7,252.27 8,252.27 9,302.73 10,285.91 11,168.18 12,285.91 13,269.09 14,302.73 15,168.18 16,252.27 17,134.55 18,269.09 19,302.73 20,252.27 21,168.18 22,168.18 23,252.27 24,353.18 25,151.36 26,151.36 27,252.27 28,218.64 29,235.45 30,252.27 31,151.36 32,151.36 33,201.82 34,117.73 35,185 36,285.91 37,252.27 38,168.18 39,168.18 40,151.36 41,302.73 42,235.45 43,269.09 44,319.55 45,235.45 46,151.36 47,151.36 48,134.55 49,134.55 50,185 51,151.36 52,100.91 53,168.18 54,117.73 55,151.36 56,168.18 57,218.64 58,285.91 59,319.55 60,302.73 61,235.45 62,134.55 63,151.36 64,151.36 65,168.18 66,151.36 67,168.18 68,185 69,134.55 70,151.36 71,151.36 72,185 73,134.55 74,185 75,168.18 76,151.36 77,151.36 78,168.18 79,201.82 80,168.18 81,168.18 82,134.55 83,151.36 84,168.18 85,134.55 86,235.45 87,151.36 88,134.55 89,151.36 90,134.55 91,151.36 92,134.55 93,168.18 94,168.18 95,218.64 96,185 97,151.36 98,117.73 99,134.55 100,269.09 101,302.73 102,285.91 103,319.55 104,319.55 105,218.64 106,134.55 107,117.73 108,134.55 109,134.55 110,117.73 111,117.73 112,134.55 113,117.73 114,302.73 115,201.82 116,185 117,168.18 118,151.36 119,302.73 120,168.18 121,134.55 122,302.73 123,336.36 124,319.55 124.49,370"><title>LR761637.1</title></polygon><rect class="average" height="1" width="124.49" x="0" y="182.38"><title>average:11.16</title></rect><rect class="median" height="1" width="124.49" x="0" y="185"><title>median:11</title></rect><text class="chromName" x="62.25" y="-12">LR761637.1<title>LR761637.1 53,127,865 bp</title></text><rect class="frame" height="370" width="124.49" x="0" y="0"/></g><g id="chrom-LR761638.1" transform="translate(577.4390778079033,0)"><polygon class="cov0" points="0,370 0,218.64 1,134.55 2,269.09 3,151.36 4,252.27 5,151.36 6,218.64 7,201.82 8,185 9,134.55 10,185 11,302.73 12,134.55 13,168.18 14,134.55 15,168.18 16,168.18 17,151.36 18,269.09 19,302.73 20,151.36 21,235.45 22,134.55 23,117.73 24,134.55 25,168.18 26,353.18 27,134.55 28,185 29,269.09 30,235.45 31,151.36 32,353.18 33,353.18 34,201.82 35,235.45 36,168.18 37,269.09 38,252.27 39,269.09 40,302.73 41,302.73 42,252.27 43,168.18 44,168.18 45,269.09 46,185 47,117.73 48,134.55 49,235.45 50,353.18 51,252.27 52,185 53,185 54,269.09 55,235.45 56,168.18 57,218.64 58,134.55 59,201.82 60,201.82 61,218.64 62,185 63,302.73 64,336.36 65,302.73 66,252.27 67,218.64 68,185 69,302.73 70,185 71,319.55 72,353.18 73,285.91 74,252.27 75,319.55 76,319.55 77,218.64 78,370 79,353.18 80,302.73 81,201.82 82,319.55 83,319.55 84,302.73 85,201.82 86,168.18 87,185 88,319.55 89,151.36 90,285.91 91,168.18 92,117.73 93,134.55 94,151.36 95,235.45 96,302.73 97,185 98,285.91 99,201.82 100,218.64 101,185 102,319.55 103,201.82 104,285.91 105,302.73 106,252.27 107,201.82 108,269.09 109,185 110,235.45 111,185 112,319.55 113,235.45 114,269.09 115,302.73 116,336.36 118,336.36 119,285.91 120,302.73 121,353.18 123,353.18 124,302.73 125,319.55 126,319.55 127,269.09 128,370 129,285.91 130,336.36 131,336.36 132,285.91 133,319.55 134,252.27 135,302.73 136,185 137,302.73 138,319.55 139,252.27 140,336.36 141,353.18 142,319.55 143,252.27 144,168.18 145,201.82 146,201.82 147,151.36 148,151.36 149,185 150,201.82 151,302.73 152,201.82 153,151.36 154,269.09 155,285.91 156,201.82 157,302.73 158,336.36 159,302.73 160,336.36 161,319.55 162,302.73 163,218.64 164,353.18 166,353.18 167,370 168,353.18 169,252.27 170,370 171,370 172,353.18 172.35,370"><title>LR761638.1</title></polygon><rect class="average" height="1" width="172.35" x="0" y="215.39"><title>average:9.19</title></rect><rect class="median" height="1" width="172.35" x="0" y="252.27"><title>median:7</title></rect><text class="chromName" x="86.17" y="-12">LR761638.1<title>LR761638.1 73,550,375 bp</title></text><rect class="frame" height="370" width="172.35" x="0" y="0"/></g><g id="chrom-LR761639.1" transform="translate(750.784104388203,0)"><polygon class="cov1" points="0,370 0,269.09 1,168.18 2,134.55 3,235.45 4,151.36 5,218.64 6,285.91 7,269.09 8,151.36 9,134.55 10,168.18 11,269.09 12,252.27 13,134.55 14,151.36 15,134.55 18,134.55 19,117.73 20,134.55 21,151.36 22,168.18 23,168.18 24,185 25,201.82 26,185 27,336.36 28,285.91 29,185 30,302.73 31,134.55 32,151.36 33,151.36 34,201.82 35,185 36,185 37,134.55 39,134.55 40,252.27 41,134.55 42,151.36 43,117.73 44,151.36 45,134.55 46,168.18 47,151.36 48,134.55 49,168.18 50,168.18 51,134.55 52,185 53,151.36 54,168.18 55,134.55 56,134.55 57,151.36 58,151.36 59,134.55 60,134.55 61,151.36 62,168.18 63,168.18 64,117.73 65,134.55 66,168.18 67,151.36 68,134.55 69,185 70,151.36 72,151.36 73,134.55 74,235.45 75,134.55 76,151.36 77,151.36 78,134.55 79,151.36 80,168.18 81,151.36 82,151.36 83,134.55 84,201.82 85,151.36 86,134.55 88,134.55 89,151.36 90,134.55 91,151.36 92,151.36 93,168.18 94,151.36 96,151.36 97,134.55 98,117.73 99,134.55 100,151.36 101,134.55 102,117.73 103,151.36 104,117.73 105,134.55 106,235.45 107,151.36 108,117.73 109,134.55 110,134.55 111,319.55 112,185 113,117.73 114,185 115,134.55 116,151.36 117,134.55 118,151.36 119,134.55 120,168.18 121,134.55 123,134.55 124,168.18 125,151.36 126,134.55 127,134.55 128,151.36 129,134.55 130,201.82 131,151.36 132,185 133,353.18 134,134.55 135,185 136,151.36 137,151.36 138,218.64 139,201.82 140,319.55 140.95,370"><title>LR761639.1</title></polygon><rect class="average" height="1" width="140.95" x="0" y="157.54"><title>average:12.63</title></rect><rect class="median" height="1" width="140.95" x="0" y="151.36"><title>median:13</title></rect><text class="chromName" x="70.47" y="-12">LR761639.1<title>LR761639.1 60,151,564 bp</title></text><rect class="frame" height="370" width="140.95" x="0" y="0"/></g><g id="chrom-LR761640.1" transform="translate(892.7327113317651,0)"><polygon class="cov0" points="0,370 0,218.64 1,134.55 2,201.82 3,168.18 4,168.18 5,134.55 6,201.82 7,201.82 8,134.55 9,168.18 10,151.36 11,168.18 12,134.55 13,285.91 14,151.36 15,134.55 16,235.45 17,151.36 18,134.55 19,201.82 20,134.55 21,151.36 22,134.55 23,117.73 24,151.36 25,151.36 26,117.73 27,134.55 28,151.36 29,134.55 30,134.55 31,151.36 32,134.55 33,134.55 34,168.18 35,134.55 36,134.55 37,201.82 38,117.73 39,168.18 40,117.73 41,134.55 42,117.73 43,134.55 44,134.55 45,151.36 46,151.36 47,235.45 48,252.27 49,134.55 50,151.36 51,134.55 52,134.55 53,168.18 54,134.55 56,134.55 57,218.64 58,168.18 59,168.18 60,252.27 61,134.55 62,168.18 63,185 64,134.55 65,302.73 66,151.36 68,151.36 69,201.82 70,185 71,151.36 72,185 73,218.64 74,185 75,151.36 76,134.55 77,235.45 78,134.55 79,201.82 80,117.73 81,100.91 82,117.73 83,134.55 84,151.36 85,134.55 86,353.18 87,151.36 88,168.18 89,185 90,168.18 91,269.09 92,285.91 93,201.82 94,252.27 95,168.18 96,151.36 98,151.36 99,168.18 100,134.55 101,185 102,336.36 103,252.27 104,134.55 106,134.55 107,185 108,235.45 109,134.55 110,201.82 111,201.82 112,151.36 113,151.36 114,201.82 115,134.55 116,353.18 117,336.36 118,353.18 119,319.55 120,151.36 121,134.55 122,151.36 124,151.36 125,117.73 126,134.55 127,134.55 128,235.45 129,151.36 130,134.55 131,134.55 132,151.36 133,134.55 134,117.73 135,84.09 136,134.55 137,134.55 138,151.36 139,168.18 140,134.55 141,134.55 142,151.36 143,252.27 144,117.73 145,134.55 145.53,370"><title>LR761640.1</title></polygon><rect class="average" height="1" width="145.53" x="0" y="161.98"><title>average:12.37</title></rect><rect class="median" height="1" width="145.53" x="0" y="168.18"><title>median:12</title></rect><text class="chromName" x="72.77" y="-12">LR761640.1<title>LR761640.1 62,107,823 bp</title></text><rect class="frame" height="370" width="145.53" x="0" y="0"/></g><g id="chrom-LR761641.1" transform="translate(1039.265271917344,0)"><polygon class="cov1" points="0,370 0,285.91 1,185 2,235.45 3,185 4,117.73 5,218.64 6,319.55 7,252.27 8,252.27 9,168.18 10,134.55 11,218.64 12,235.45 13,151.36 14,218.64 15,134.55 16,134.55 17,269.09 18,134.55 19,134.55 20,151.36 21,151.36 22,201.82 23,168.18 24,201.82 25,185 26,252.27 27,201.82 28,218.64 29,269.09 30,252.27 31,218.64 32,269.09 33,252.27 34,285.91 35,302.73 36,336.36 37,285.91 39,285.91 40,185 41,269.09 42,319.55 43,353.18 44,269.09 45,218.64 46,252.27 47,269.09 48,285.91 49,151.36 50,185 51,151.36 52,134.55 55,134.55 56,117.73 57,168.18 58,201.82 59,168.18 60,151.36 61,235.45 62,168.18 63,201.82 64,185 65,168.18 66,218.64 67,252.27 68,252.27 69,185 70,269.09 71,134.55 72,201.82 73,319.55 74,235.45 75,302.73 76,235.45 77,252.27 78,168.18 79,269.09 80,302.73 81,336.36 82,353.18 83,336.36 84,185 85,168.18 86,252.27 87,134.55 88,201.82 89,185 90,302.73 91,235.45 92,134.55 93,252.27 94,285.91 95,218.64 96,185 97,319.55 98,151.36 99,370 100,302.73 101,151.36 102,185 103,134.55 104,185 105,134.55 106,252.27 107,134.55 108,151.36 110,151.36 111,285.91 112,151.36 113,269.09 114,168.18 115,168.18 116,134.55 117,185 118,168.18 119,218.64 120,201.82 121,185 122,168.18 123,235.45 124,168.18 125,218.64 126,252.27 127,134.55 128,235.45 129,185 130,285.91 131,235.45 132,336.36 133,285.91 134,168.18 135,370 136,353.18 136.99,370"><title>LR761641.1</title></polygon><rect class="average" height="1" width="136.99" x="0" y="191.37"><title>average:10.62</title></rect><rect class="median" height="1" width="136.99" x="0" y="218.64"><title>median:9</title></rect><text class="chromName" x="68.5" y="-12">LR761641.1<title>LR761641.1 58,462,999 bp</title></text><rect class="frame" height="370" width="136.99" x="0" y="0"/></g><g id="chrom-LR761642.1" transform="translate(1177.25719230686,0)"><polygon class="cov0" points="0,370 0,319.55 1,319.55 2,302.73 3,252.27 4,302.73 5,319.55 6,302.73 8,302.73 9,319.55 10,269.09 11,235.45 12,269.09 13,151.36 14,201.82 15,185 16,302.73 17,252.27 18,302.73 19,235.45 20,235.45 21,185 22,302.73 23,252.27 24,168.18 25,134.55 26,168.18 27,201.82 28,285.91 29,185 30,235.45 31,151.36 32,185 33,252.27 34,168.18 35,252.27 36,151.36 37,168.18 38,134.55 39,201.82 40,151.36 41,168.18 42,134.55 43,151.36 44,151.36 45,218.64 46,151.36 47,252.27 48,185 49,269.09 50,185 51,185 52,235.45 53,134.55 54,134.55 55,235.45 56,168.18 57,235.45 58,252.27 59,168.18 60,168.18 61,336.36 62,218.64 63,185 64,201.82 65,201.82 66,185 67,336.36 68,269.09 69,168.18 70,151.36 71,252.27 72,151.36 73,235.45 74,168.18 75,201.82 76,319.55 77,151.36 78,168.18 79,285.91 80,252.27 81,185 82,336.36 83,252.27 84,319.55 85,252.27 86,319.55 86.91,370"><title>LR761642.1</title></polygon><rect class="average" height="1" width="86.91" x="0" y="179.82"><title>average:11.31</title></rect><rect class="median" height="1" width="86.91" x="0" y="218.64"><title>median:9</title></rect><text class="chromName" x="43.45" y="-12">LR761642.1<title>LR761642.1 37,089,910 bp</title></text><rect class="frame" height="370" width="86.91" x="0" y="0"/></g><g id="chrom-LR761643.1" transform="translate(1265.1671710093603,0)"><polygon class="cov1" points="0,370 0,353.18 1,285.91 2,168.18 3,134.55 4,151.36 5,235.45 6,185 7,168.18 8,151.36 9,134.55 10,151.36 11,168.18 12,134.55 13,201.82 14,252.27 15,151.36 16,117.73 17,168.18 19,168.18 20,336.36 21,168.18 22,134.55 23,134.55 24,235.45 25,185 26,353.18 27,285.91 28,269.09 29,134.55 30,235.45 31,151.36 32,235.45 33,151.36 34,168.18 35,218.64 36,235.45 37,134.55 38,151.36 39,134.55 40,151.36 41,168.18 42,168.18 43,269.09 44,168.18 45,185 46,151.36 47,201.82 48,168.18 49,151.36 50,151.36 51,134.55 52,134.55 53,151.36 54,168.18 55,151.36 56,134.55 57,134.55 58,151.36 59,151.36 60,117.73 61,151.36 62,168.18 63,151.36 64,168.18 65,201.82 66,168.18 67,151.36 70,151.36 71,252.27 72,201.82 73,235.45 74,134.55 75,235.45 76,151.36 77,134.55 78,201.82 79,252.27 80,134.55 81,134.55 82,151.36 83,151.36 84,134.55 85,134.55 86,151.36 87,134.55 88,168.18 89,319.55 90,185 91,151.36 92,134.55 93,168.18 94,134.55 95,168.18 96,134.55 98,134.55 99,117.73 100,134.55 101,235.45 102,151.36 103,151.36 104,168.18 105,151.36 106,134.55 107,117.73 108,168.18 109,117.73 110,134.55 111,117.73 112,134.55 113,218.64 114,168.18 115,134.55 116,100.91 117,117.73 118,134.55 119,168.18 120,117.73 123,117.73 124,151.36 125,134.55 126,134.55 127,185 128,185 129,134.55 130,151.36 131,235.45 132,134.55 133,235.45 134,336.36 134.83,370"><title>LR761643.1</title></polygon><rect class="average" height="1" width="134.83" x="0" y="164.47"><title>average:12.22</title></rect><rect class="median" height="1" width="134.83" x="0" y="168.18"><title>median:12</title></rect><text class="chromName" x="67.42" y="-12">LR761643.1<title>LR761643.1 57,541,580 bp</title></text><rect class="frame" height="370" width="134.83" x="0" y="0"/></g><g><line class="ruler" x1="-2" x2="1390" y1="333" y2="333"><title>2</title></line><text class="ruler" x="-5" y="333">2</text><line class="ruler" x1="-2" x2="1390" y1="296" y2="296"><title>4</title></line><text class="ruler" x="-5" y="296">4</text><line class="ruler" x1="-2" x2="1390" y1="259" y2="259"><title>6</title></line><text class="ruler" x="-5" y="259">6</text><line class="ruler" x1="-2" x2="1390" y1="222" y2="222"><title>8</title></line><text class="ruler" x="-5" y="222">8</text><line class="ruler" x1="-2" x2="1390" y1="185" y2="185"><title>11</title></line><text class="ruler" x="-5" y="185">11</text><line class="ruler" x1="-2" x2="1390" y1="148" y2="148"><title>13</title></line><text class="ruler" x="-5" y="148">13</text><line class="ruler" x1="-2" x2="1390" y1="111" y2="111"><title>15</title></line><text class="ruler" x="-5" y="111">15</text><line class="ruler" x1="-2" x2="1390" y1="74" y2="74"><title>17</title></line><text class="ruler" x="-5" y="74">17</text><line class="ruler" x1="-2" x2="1390" y1="37" y2="37"><title>19</title></line><text class="ruler" x="-5" y="37">19</text><line class="ruler" x1="-2" x2="1390" y1="0" y2="0"><title>22</title></line><text class="ruler" x="-5" y="0">22</text></g></g><text class="title" x="795" y="40">F8_M9_14.merged.realigned.bam F8_M9_14 F8_M9_14_1 F8_M9_14_2<title>./F8_M9_14.merged.realigned.bam</title></text><text class="xLabel" x="795" y="475">GCA_902806645.1_cgigas_uk_roslin_v1_genomic.fna  (589,358,857 bp)<title>../ref/GCA_902806645.1_cgigas_uk_roslin_v1_genomic.fna</title></text><text class="yLabel" transform="translate(25,265) rotate(90)" x="0" y="0">Coverage bp (median)</text></g></svg>