<?xml version="1.0" encoding="UTF-8" standalone="no"?><svg height="500" width="1500" xmlns="http://www.w3.org/2000/svg"><title>F8_M8_14.merged.realigned.bam</title><desc>Made with wgscoverageplotter undefined Author: Pierre Lindenbaum</desc><style>g.maing {stroke:black;stroke-width:0.5px;fill:none;}
text.title {stroke:none;fill:black;stroke-width:1px;text-anchor:middle;}
rect.frame {stroke:darkgray;fill:none;stroke-width:0.5px;}
text.ruler {stroke:none;fill:darkgray;stroke-width:1px;text-anchor:end;}
text.chromName {stroke:none;fill:darkgray;stroke-width:1px;text-anchor:middle;}
text.xLabel {stroke:none;fill:black;stroke-width:1px;text-anchor:middle;}
text.yLabel {stroke:none;fill:black;stroke-width:1px;text-anchor:middle;}
.cov0 {stroke:gray;fill:antiquewhite;stroke-width:0.5px;}
.cov1 {stroke:gray;fill:beige;stroke-width:0.5px;}
rect.average {stroke:green;fill:green;stroke-width:0.5px;opacity:0.3;}
rect.median {stroke:red;fill:red;stroke-width:0.5px;opacity:0.3;}
line.ruler {stroke:darkgray;stroke-dasharray:4;fill:none;stroke-width:1;}
</style><g class="maing"><g id="chromosomes" transform="translate(100.0,80.0)"><g id="chrom-LR761634.1" transform="translate(10.0,0)"><polygon class="cov0" points="0,370 0,351.5 1,129.5 2,166.5 3,277.5 4,259 5,166.5 6,277.5 7,203.5 8,148 9,111 10,148 11,111 12,148 13,240.5 14,277.5 15,129.5 16,111 17,203.5 18,111 19,129.5 20,129.5 21,148 24,148 25,111 26,111 27,129.5 28,129.5 29,111 30,129.5 31,129.5 32,259 33,129.5 34,129.5 35,148 36,111 37,185 38,185 39,129.5 40,111 41,111 42,129.5 43,185 44,148 45,185 46,166.5 47,129.5 48,148 49,129.5 50,148 51,129.5 52,111 53,129.5 54,203.5 55,222 56,111 57,111 58,129.5 59,148 60,148 61,111 62,148 63,185 64,185 65,166.5 66,129.5 67,203.5 68,111 69,185 70,129.5 71,111 72,240.5 73,185 74,148 75,129.5 76,129.5 77,203.5 78,148 79,148 80,314.5 81,277.5 82,111 83,129.5 84,148 85,129.5 86,111 87,185 88,129.5 89,277.5 90,166.5 91,148 92,111 93,148 94,111 95,111 96,92.5 97,148 98,277.5 99,129.5 100,129.5 101,166.5 102,148 103,148 104,185 105,111 106,203.5 107,185 108,240.5 109,111 110,92.5 111,129.5 112,111 113,129.5 114,296 115,203.5 116,111 118,111 119,148 120,203.5 121,129.5 122,129.5 123,111 124,129.5 125,111 126,129.5 127,129.5 128,185 129,166.5 130,240.5 130.72,370"><title>LR761634.1</title></polygon><rect class="average" height="1" width="130.72" x="0" y="148.18"><title>average:11.99</title></rect><rect class="median" height="1" width="130.72" x="0" y="148"><title>median:12</title></rect><text class="chromName" x="65.36" y="-12">LR761634.1<title>LR761634.1 55,785,328 bp</title></text><rect class="frame" height="370" width="130.72" x="0" y="0"/></g><g id="chrom-LR761635.1" transform="translate(141.71753661284166,0)"><polygon class="cov1" points="0,370 0,351.5 1,351.5 2,333 3,277.5 4,333 5,370 6,259 7,296 8,314.5 9,222 10,166.5 11,240.5 12,166.5 13,148 14,166.5 15,296 16,314.5 17,240.5 18,259 19,240.5 20,259 21,259 22,277.5 23,222 24,277.5 25,333 26,259 27,333 28,296 29,333 30,351.5 31,314.5 32,240.5 33,203.5 34,203.5 35,222 36,296 37,333 38,314.5 39,166.5 40,166.5 41,203.5 42,166.5 43,185 44,148 45,185 46,203.5 47,148 48,296 49,203.5 50,222 51,333 52,259 53,240.5 54,314.5 55,296 56,370 57,277.5 58,148 59,314.5 60,277.5 61,259 62,148 63,240.5 64,240.5 65,222 66,277.5 67,296 68,240.5 69,296 70,296 71,222 72,203.5 73,203.5 74,240.5 75,203.5 76,333 77,0 78,240.5 79,296 80,166.5 81,296 83,296 84,370 85,296 86,333 87,333 88,314.5 89,314.5 90,259 91,296 92,314.5 93,314.5 94,277.5 95,277.5 96,351.5 97,296 98,314.5 99,314.5 100,277.5 101,277.5 102,314.5 103,259 104,259 105,185 106,259 107,277.5 108,203.5 109,222 110,277.5 111,185 112,333 113,333 114,296 115,314.5 116,314.5 117,277.5 118,166.5 119,185 120,129.5 121,203.5 122,240.5 124,240.5 125,148 126,240.5 127,296 128,185 129,314.5 130,185 131,240.5 132,222 133,259 134,296 135,296 136,314.5 137,296 139,296 140,314.5 141,296 142,277.5 143,314.5 144,259 145,222 146,277.5 147,74 148,166.5 149,129.5 150,222 151,277.5 152,333 153,222 154,296 156,296 157,240.5 158,314.5 159,166.5 160,259 161,259 162,333 163,351.5 164,240.5 165,259 166,296 167,314.5 168,277.5 169,314.5 170,314.5 171,333 171.58,370"><title>LR761635.1</title></polygon><rect class="average" height="1" width="171.58" x="0" y="204.87"><title>average:8.93</title></rect><rect class="median" height="1" width="171.58" x="0" y="277.5"><title>median:5</title></rect><text class="chromName" x="85.79" y="-12">LR761635.1<title>LR761635.1 73,222,313 bp</title></text><rect class="frame" height="370" width="171.58" x="0" y="0"/></g><g id="chrom-LR761636.1" transform="translate(314.2938403401308,0)"><polygon class="cov0" points="0,370 0,333 1,148 2,240.5 3,314.5 4,222 5,129.5 6,148 7,166.5 8,111 9,148 10,111 11,111 12,129.5 13,203.5 14,111 15,129.5 16,111 17,111 18,148 19,148 20,129.5 21,111 23,111 24,185 25,111 26,185 27,240.5 28,111 30,111 31,92.5 32,111 33,111 34,129.5 35,166.5 36,129.5 37,166.5 38,129.5 39,129.5 40,148 43,148 44,129.5 45,148 46,166.5 47,111 48,222 49,148 50,166.5 51,111 52,129.5 53,129.5 54,259 55,166.5 56,148 57,129.5 58,148 59,129.5 60,148 61,222 62,166.5 63,129.5 64,129.5 65,148 66,129.5 67,148 69,148 70,203.5 71,92.5 72,111 73,185 74,148 75,148 76,314.5 77,185 78,222 79,259 80,259 81,129.5 82,203.5 83,129.5 84,111 85,148 86,222 87,148 88,148 89,185 90,148 91,111 92,203.5 93,148 94,129.5 95,185 96,203.5 97,129.5 98,129.5 99,166.5 100,148 101,166.5 102,166.5 103,111 104,111 105,129.5 107,129.5 108,111 109,111 110,129.5 111,148 112,148 113,185 114,111 115,111 116,129.5 117,129.5 118,148 119,111 120,111 121,222 122,111 123,111 124,166.5 125,111 126,111 127,222 128,240.5 129,111 130,129.5 131,129.5 132,148 133,129.5 134,111 135,129.5 136,314.5 136.65,370"><title>LR761636.1</title></polygon><rect class="average" height="1" width="136.65" x="0" y="144.32"><title>average:12.2</title></rect><rect class="median" height="1" width="136.65" x="0" y="148"><title>median:12</title></rect><text class="chromName" x="68.33" y="-12">LR761636.1<title>LR761636.1 58,319,100 bp</title></text><rect class="frame" height="370" width="136.65" x="0" y="0"/></g><g id="chrom-LR761637.1" transform="translate(451.9485730949149,0)"><polygon class="cov1" points="0,370 0,370 1,277.5 2,277.5 3,240.5 4,222 5,185 6,222 7,240.5 8,222 9,296 10,277.5 11,148 12,277.5 13,277.5 14,296 15,148 16,222 17,111 18,296 19,296 20,203.5 21,148 22,166.5 23,222 24,370 25,148 26,129.5 27,240.5 28,185 29,259 30,277.5 31,148 32,148 33,185 34,111 35,185 36,296 37,185 38,148 39,148 40,129.5 41,296 42,222 43,259 44,314.5 45,185 46,148 47,129.5 48,111 49,129.5 50,185 51,129.5 52,92.5 53,148 54,92.5 55,129.5 56,148 57,203.5 58,277.5 59,314.5 60,296 61,222 62,129.5 64,129.5 65,148 67,148 68,185 69,111 70,148 71,148 72,185 73,129.5 74,166.5 75,148 76,129.5 77,148 78,148 79,185 80,166.5 81,148 82,129.5 83,148 84,148 85,111 86,222 87,148 88,129.5 89,129.5 90,111 91,129.5 92,111 93,166.5 94,166.5 95,222 96,185 97,148 98,92.5 99,111 100,240.5 101,259 102,259 103,277.5 104,277.5 105,259 106,111 107,92.5 108,111 109,111 110,92.5 111,111 112,129.5 113,111 114,277.5 115,185 116,166.5 117,166.5 118,129.5 119,296 120,166.5 121,111 122,240.5 123,333 124,333 124.49,370"><title>LR761637.1</title></polygon><rect class="average" height="1" width="124.49" x="0" y="167.82"><title>average:10.93</title></rect><rect class="median" height="1" width="124.49" x="0" y="185"><title>median:10</title></rect><text class="chromName" x="62.25" y="-12">LR761637.1<title>LR761637.1 53,127,865 bp</title></text><rect class="frame" height="370" width="124.49" x="0" y="0"/></g><g id="chrom-LR761638.1" transform="translate(577.4390778079033,0)"><polygon class="cov0" points="0,370 0,185 1,74 2,203.5 3,129.5 4,259 5,148 6,185 7,203.5 8,185 9,111 10,185 11,296 12,129.5 13,166.5 14,111 15,148 16,129.5 17,129.5 18,259 19,333 20,148 21,240.5 22,129.5 23,111 24,111 25,148 26,351.5 27,111 28,185 29,314.5 30,259 31,148 32,370 33,351.5 34,185 35,222 36,148 37,314.5 38,296 39,351.5 40,333 41,277.5 42,240.5 43,129.5 44,148 45,296 46,203.5 47,111 48,129.5 49,240.5 50,351.5 51,222 52,185 53,185 54,240.5 55,240.5 56,148 57,203.5 58,148 59,203.5 60,166.5 62,166.5 63,333 64,333 65,314.5 66,222 67,203.5 68,166.5 69,277.5 70,166.5 71,333 72,351.5 73,277.5 74,259 75,314.5 76,333 77,222 78,370 79,351.5 80,296 81,203.5 82,333 83,314.5 84,314.5 85,185 86,166.5 87,166.5 88,314.5 89,129.5 90,277.5 91,148 92,111 93,129.5 94,148 95,222 96,296 97,148 98,277.5 99,203.5 100,203.5 101,166.5 102,296 103,185 104,277.5 105,296 106,240.5 107,185 108,259 109,185 110,240.5 111,185 112,314.5 113,222 114,240.5 115,259 116,333 117,333 118,351.5 119,314.5 120,296 121,333 122,351.5 123,351.5 124,296 125,296 126,314.5 127,259 128,370 129,277.5 130,333 131,314.5 132,259 133,333 134,259 135,314.5 136,166.5 137,370 138,351.5 139,277.5 140,370 141,370 142,333 143,277.5 144,148 145,185 146,222 147,129.5 148,129.5 149,166.5 150,203.5 151,240.5 152,166.5 153,129.5 154,240.5 155,296 156,203.5 157,277.5 158,333 159,240.5 160,259 161,259 162,240.5 163,240.5 164,259 165,277.5 166,277.5 167,296 168,277.5 169,203.5 170,370 171,351.5 172,351.5 172.35,370"><title>LR761638.1</title></polygon><rect class="average" height="1" width="172.35" x="0" y="202.76"><title>average:9.04</title></rect><rect class="median" height="1" width="172.35" x="0" y="240.5"><title>median:7</title></rect><text class="chromName" x="86.17" y="-12">LR761638.1<title>LR761638.1 73,550,375 bp</title></text><rect class="frame" height="370" width="172.35" x="0" y="0"/></g><g id="chrom-LR761639.1" transform="translate(750.784104388203,0)"><polygon class="cov1" points="0,370 0,277.5 1,148 2,111 3,277.5 4,148 5,203.5 6,370 7,240.5 8,129.5 9,129.5 10,166.5 11,240.5 12,277.5 13,129.5 14,148 15,129.5 16,129.5 17,111 18,129.5 19,111 20,111 21,129.5 22,166.5 24,166.5 25,203.5 26,185 27,333 28,351.5 29,203.5 30,333 31,129.5 33,129.5 34,203.5 35,185 36,166.5 37,129.5 39,129.5 40,259 41,129.5 42,129.5 43,111 44,129.5 45,129.5 46,166.5 47,129.5 48,129.5 49,148 50,148 51,129.5 52,185 53,148 54,148 55,129.5 63,129.5 64,111 65,129.5 66,148 67,129.5 68,129.5 69,166.5 70,129.5 71,148 72,148 73,129.5 74,222 75,129.5 76,129.5 77,148 78,129.5 79,129.5 80,148 81,129.5 82,129.5 83,148 84,185 85,148 86,111 87,129.5 88,111 89,129.5 90,111 91,129.5 92,129.5 93,166.5 94,148 95,129.5 96,129.5 97,111 98,111 99,129.5 100,129.5 101,111 102,129.5 103,129.5 104,111 105,111 106,222 107,129.5 108,111 109,129.5 110,111 111,314.5 112,185 113,111 114,166.5 115,111 116,129.5 118,129.5 119,111 120,129.5 121,111 123,111 124,166.5 125,129.5 126,111 127,111 128,148 129,111 130,185 131,129.5 132,166.5 133,351.5 134,111 135,185 136,129.5 137,129.5 138,222 139,185 140,333 140.95,370"><title>LR761639.1</title></polygon><rect class="average" height="1" width="140.95" x="0" y="146.11"><title>average:12.1</title></rect><rect class="median" height="1" width="140.95" x="0" y="148"><title>median:12</title></rect><text class="chromName" x="70.47" y="-12">LR761639.1<title>LR761639.1 60,151,564 bp</title></text><rect class="frame" height="370" width="140.95" x="0" y="0"/></g><g id="chrom-LR761640.1" transform="translate(892.7327113317651,0)"><polygon class="cov0" points="0,370 0,203.5 1,111 2,185 3,148 4,166.5 5,111 6,185 7,185 8,111 9,166.5 10,148 11,129.5 12,129.5 13,296 14,148 15,129.5 16,203.5 17,148 18,111 19,222 20,129.5 22,129.5 23,111 24,111 25,129.5 26,111 27,129.5 30,129.5 31,148 32,129.5 33,111 34,148 35,129.5 36,129.5 37,203.5 38,111 39,166.5 40,111 44,111 45,129.5 46,129.5 47,222 48,259 49,111 50,148 51,111 52,111 53,129.5 54,111 55,129.5 56,111 57,203.5 58,148 59,166.5 60,240.5 61,129.5 62,148 63,166.5 64,129.5 65,296 66,129.5 67,148 68,148 69,185 70,166.5 71,129.5 72,166.5 73,222 74,166.5 75,129.5 76,129.5 77,222 78,129.5 79,166.5 80,92.5 82,92.5 83,129.5 84,129.5 85,111 86,351.5 87,148 88,148 89,166.5 90,166.5 91,259 92,259 93,185 94,240.5 95,148 96,148 97,129.5 98,148 99,148 100,111 101,166.5 102,296 103,203.5 104,111 105,129.5 106,129.5 107,166.5 108,185 109,129.5 110,166.5 111,185 112,148 113,129.5 114,166.5 115,129.5 116,333 117,333 118,351.5 119,314.5 120,148 121,111 122,129.5 124,129.5 125,111 127,111 128,222 129,148 130,111 131,129.5 132,129.5 133,111 134,92.5 135,74 136,129.5 138,129.5 139,166.5 140,129.5 141,129.5 142,148 143,259 144,111 145,129.5 145.53,370"><title>LR761640.1</title></polygon><rect class="average" height="1" width="145.53" x="0" y="147.56"><title>average:12.02</title></rect><rect class="median" height="1" width="145.53" x="0" y="148"><title>median:12</title></rect><text class="chromName" x="72.77" y="-12">LR761640.1<title>LR761640.1 62,107,823 bp</title></text><rect class="frame" height="370" width="145.53" x="0" y="0"/></g><g id="chrom-LR761641.1" transform="translate(1039.265271917344,0)"><polygon class="cov1" points="0,370 0,296 1,148 2,203.5 3,185 4,166.5 5,203.5 6,296 7,259 8,259 9,166.5 10,129.5 11,203.5 12,240.5 13,129.5 14,222 15,111 16,129.5 17,259 18,129.5 20,129.5 21,148 22,185 23,148 24,185 25,166.5 26,240.5 27,222 28,240.5 29,277.5 30,240.5 31,185 32,259 33,240.5 34,296 35,296 36,333 37,240.5 38,277.5 39,240.5 40,185 41,240.5 42,333 43,351.5 44,277.5 45,185 46,240.5 47,277.5 48,296 49,129.5 50,185 51,148 52,129.5 54,129.5 55,111 56,111 57,166.5 58,185 59,166.5 60,129.5 61,296 62,148 63,185 65,185 66,222 67,240.5 68,240.5 69,148 70,240.5 71,129.5 72,203.5 73,314.5 74,222 75,333 76,222 77,222 78,166.5 79,240.5 80,277.5 81,333 83,333 84,166.5 85,148 86,259 87,111 88,222 89,185 90,296 91,203.5 92,111 93,203.5 94,259 95,185 96,185 97,314.5 98,129.5 99,370 100,296 101,148 102,185 103,129.5 104,166.5 105,129.5 106,277.5 107,111 108,148 109,129.5 110,129.5 111,277.5 112,129.5 113,259 114,129.5 115,148 116,111 117,166.5 118,148 119,203.5 120,185 121,166.5 122,148 123,222 124,148 125,203.5 126,240.5 127,111 128,240.5 129,185 130,259 131,240.5 132,314.5 133,277.5 134,129.5 135,370 136,296 136.99,370"><title>LR761641.1</title></polygon><rect class="average" height="1" width="136.99" x="0" y="178.65"><title>average:10.34</title></rect><rect class="median" height="1" width="136.99" x="0" y="203.5"><title>median:9</title></rect><text class="chromName" x="68.5" y="-12">LR761641.1<title>LR761641.1 58,462,999 bp</title></text><rect class="frame" height="370" width="136.99" x="0" y="0"/></g><g id="chrom-LR761642.1" transform="translate(1177.25719230686,0)"><polygon class="cov0" points="0,370 0,333 1,351.5 2,351.5 3,259 4,296 5,333 6,296 8,296 9,277.5 10,259 11,203.5 12,259 13,129.5 14,185 15,166.5 16,277.5 17,240.5 18,296 19,222 20,203.5 21,185 22,296 23,277.5 24,166.5 25,129.5 26,166.5 27,185 28,277.5 29,166.5 30,222 31,129.5 32,166.5 33,203.5 34,148 35,185 36,129.5 37,129.5 38,111 39,185 40,129.5 41,148 42,111 43,129.5 44,148 45,185 46,148 47,240.5 48,203.5 49,259 50,166.5 51,185 52,222 53,111 54,129.5 55,222 56,166.5 57,222 58,240.5 59,129.5 60,166.5 61,333 62,148 63,166.5 64,203.5 65,166.5 66,166.5 67,314.5 68,259 69,148 70,148 71,259 72,148 73,203.5 74,148 75,203.5 76,314.5 77,148 78,129.5 79,240.5 80,222 81,166.5 82,314.5 83,259 84,277.5 85,222 86,314.5 86.91,370"><title>LR761642.1</title></polygon><rect class="average" height="1" width="86.91" x="0" y="170.66"><title>average:10.78</title></rect><rect class="median" height="1" width="86.91" x="0" y="203.5"><title>median:9</title></rect><text class="chromName" x="43.45" y="-12">LR761642.1<title>LR761642.1 37,089,910 bp</title></text><rect class="frame" height="370" width="86.91" x="0" y="0"/></g><g id="chrom-LR761643.1" transform="translate(1265.1671710093603,0)"><polygon class="cov1" points="0,370 0,277.5 1,259 2,148 3,111 4,129.5 5,222 6,166.5 7,166.5 8,129.5 9,111 10,129.5 11,166.5 12,111 13,185 14,240.5 15,129.5 16,111 17,148 19,148 20,333 21,148 22,129.5 23,111 24,185 25,166.5 26,351.5 27,277.5 28,259 29,129.5 30,222 31,148 32,222 33,148 34,148 35,203.5 36,259 37,129.5 38,129.5 39,111 40,148 41,148 42,166.5 43,259 44,148 45,185 46,129.5 47,222 48,166.5 49,148 50,185 51,129.5 52,129.5 53,166.5 54,166.5 55,129.5 57,129.5 58,148 59,129.5 60,111 61,129.5 62,166.5 63,148 64,148 65,203.5 66,148 70,148 71,240.5 72,203.5 73,203.5 74,129.5 75,240.5 76,129.5 77,111 78,203.5 79,240.5 80,129.5 81,111 82,148 83,129.5 84,111 85,129.5 86,148 87,111 88,166.5 89,314.5 90,166.5 91,129.5 92,111 93,148 94,111 95,148 96,111 97,129.5 98,111 99,111 100,129.5 101,222 102,129.5 103,129.5 104,148 105,129.5 106,111 107,111 108,148 109,111 111,111 112,129.5 113,222 114,148 115,129.5 116,92.5 117,111 118,111 119,166.5 120,111 123,111 124,129.5 125,111 126,111 127,166.5 128,185 129,111 130,148 131,203.5 132,111 133,222 134,314.5 134.83,370"><title>LR761643.1</title></polygon><rect class="average" height="1" width="134.83" x="0" y="151.34"><title>average:11.82</title></rect><rect class="median" height="1" width="134.83" x="0" y="148"><title>median:12</title></rect><text class="chromName" x="67.42" y="-12">LR761643.1<title>LR761643.1 57,541,580 bp</title></text><rect class="frame" height="370" width="134.83" x="0" y="0"/></g><g><line class="ruler" x1="-2" x2="1390" y1="333" y2="333"><title>2</title></line><text class="ruler" x="-5" y="333">2</text><line class="ruler" x1="-2" x2="1390" y1="296" y2="296"><title>4</title></line><text class="ruler" x="-5" y="296">4</text><line class="ruler" x1="-2" x2="1390" y1="259" y2="259"><title>6</title></line><text class="ruler" x="-5" y="259">6</text><line class="ruler" x1="-2" x2="1390" y1="222" y2="222"><title>8</title></line><text class="ruler" x="-5" y="222">8</text><line class="ruler" x1="-2" x2="1390" y1="185" y2="185"><title>10</title></line><text class="ruler" x="-5" y="185">10</text><line class="ruler" x1="-2" x2="1390" y1="148" y2="148"><title>12</title></line><text class="ruler" x="-5" y="148">12</text><line class="ruler" x1="-2" x2="1390" y1="111" y2="111"><title>14</title></line><text class="ruler" x="-5" y="111">14</text><line class="ruler" x1="-2" x2="1390" y1="74" y2="74"><title>16</title></line><text class="ruler" x="-5" y="74">16</text><line class="ruler" x1="-2" x2="1390" y1="37" y2="37"><title>18</title></line><text class="ruler" x="-5" y="37">18</text><line class="ruler" x1="-2" x2="1390" y1="0" y2="0"><title>20</title></line><text class="ruler" x="-5" y="0">20</text></g></g><text class="title" x="795" y="40">F8_M8_14.merged.realigned.bam F8_M8_14 F8_M8_14_1 F8_M8_14_2<title>./F8_M8_14.merged.realigned.bam</title></text><text class="xLabel" x="795" y="475">GCA_902806645.1_cgigas_uk_roslin_v1_genomic.fna  (589,358,857 bp)<title>../ref/GCA_902806645.1_cgigas_uk_roslin_v1_genomic.fna</title></text><text class="yLabel" transform="translate(25,265) rotate(90)" x="0" y="0">Coverage bp (median)</text></g></svg>