<?xml version="1.0" encoding="UTF-8" standalone="no"?><svg height="500" width="1500" xmlns="http://www.w3.org/2000/svg"><title>F8_M9_24.merged.realigned.bam</title><desc>Made with wgscoverageplotter undefined Author: Pierre Lindenbaum</desc><style>g.maing {stroke:black;stroke-width:0.5px;fill:none;}
text.title {stroke:none;fill:black;stroke-width:1px;text-anchor:middle;}
rect.frame {stroke:darkgray;fill:none;stroke-width:0.5px;}
text.ruler {stroke:none;fill:darkgray;stroke-width:1px;text-anchor:end;}
text.chromName {stroke:none;fill:darkgray;stroke-width:1px;text-anchor:middle;}
text.xLabel {stroke:none;fill:black;stroke-width:1px;text-anchor:middle;}
text.yLabel {stroke:none;fill:black;stroke-width:1px;text-anchor:middle;}
.cov0 {stroke:gray;fill:antiquewhite;stroke-width:0.5px;}
.cov1 {stroke:gray;fill:beige;stroke-width:0.5px;}
rect.average {stroke:green;fill:green;stroke-width:0.5px;opacity:0.3;}
rect.median {stroke:red;fill:red;stroke-width:0.5px;opacity:0.3;}
line.ruler {stroke:darkgray;stroke-dasharray:4;fill:none;stroke-width:1;}
</style><g class="maing"><g id="chromosomes" transform="translate(100.0,80.0)"><g id="chrom-LR761634.1" transform="translate(10.0,0)"><polygon class="cov0" points="0,370 0,333 1,148 2,148 3,314.5 4,185 5,185 6,296 7,185 8,148 9,129.5 10,148 11,111 12,148 13,222 14,277.5 15,129.5 16,129.5 17,166.5 18,129.5 19,111 20,111 21,129.5 22,148 23,148 24,166.5 25,111 27,111 28,129.5 29,111 31,111 32,259 33,111 34,129.5 35,129.5 36,92.5 37,185 38,185 39,111 42,111 43,185 44,148 45,203.5 46,185 47,129.5 48,129.5 49,111 50,129.5 51,129.5 52,111 53,129.5 54,240.5 55,296 56,111 57,92.5 58,111 59,129.5 60,129.5 61,111 62,129.5 63,166.5 64,185 65,166.5 66,148 67,166.5 68,111 69,185 70,111 71,111 72,203.5 73,166.5 74,129.5 75,111 76,129.5 77,166.5 78,148 79,129.5 80,259 81,240.5 82,111 83,129.5 85,129.5 86,92.5 87,185 88,111 89,259 90,166.5 91,148 92,111 93,148 94,92.5 95,111 96,92.5 97,129.5 98,314.5 99,129.5 100,148 101,185 102,148 103,166.5 104,185 105,111 106,203.5 107,166.5 108,259 109,111 110,111 111,129.5 112,129.5 113,185 114,259 115,203.5 116,92.5 117,129.5 118,111 119,166.5 120,203.5 121,129.5 122,148 123,111 124,148 125,129.5 126,148 127,148 128,203.5 129,185 130,222 130.72,370"><title>LR761634.1</title></polygon><rect class="average" height="1" width="130.72" x="0" y="144.92"><title>average:12.17</title></rect><rect class="median" height="1" width="130.72" x="0" y="148"><title>median:12</title></rect><text class="chromName" x="65.36" y="-12">LR761634.1<title>LR761634.1 55,785,328 bp</title></text><rect class="frame" height="370" width="130.72" x="0" y="0"/></g><g id="chrom-LR761635.1" transform="translate(141.71753661284166,0)"><polygon class="cov1" points="0,370 0,351.5 1,351.5 2,333 3,296 4,351.5 5,370 6,203.5 7,314.5 8,314.5 9,259 10,296 11,314.5 12,333 13,166.5 14,240.5 15,240.5 16,277.5 17,259 18,296 19,203.5 20,296 22,296 23,314.5 24,351.5 25,370 26,351.5 27,351.5 28,296 29,370 30,351.5 31,333 32,240.5 33,240.5 34,222 35,259 36,259 37,333 38,333 39,185 40,240.5 41,259 42,166.5 43,259 44,129.5 45,166.5 46,203.5 47,185 48,259 49,185 50,240.5 51,333 52,296 53,259 54,277.5 55,277.5 56,333 57,314.5 58,166.5 59,277.5 60,314.5 61,259 62,148 63,277.5 64,296 65,259 66,277.5 67,296 68,259 69,259 70,277.5 71,259 72,259 73,222 74,240.5 75,203.5 76,351.5 77,37 78,277.5 79,296 80,129.5 81,296 82,333 83,277.5 84,351.5 85,314.5 86,351.5 87,333 88,333 89,314.5 90,296 91,314.5 92,314.5 93,277.5 94,296 95,296 96,333 97,277.5 98,314.5 99,296 101,296 102,314.5 103,222 104,240.5 105,185 106,259 107,277.5 108,185 109,166.5 110,296 111,185 112,314.5 113,333 114,296 115,314.5 116,314.5 117,277.5 118,166.5 119,166.5 120,129.5 121,185 122,240.5 124,240.5 125,148 126,240.5 127,259 128,185 129,166.5 130,148 131,277.5 132,203.5 133,296 134,314.5 135,296 136,333 137,333 138,314.5 139,277.5 140,333 141,296 142,277.5 143,277.5 144,259 145,240.5 146,240.5 147,148 148,185 149,148 150,203.5 151,296 152,351.5 153,240.5 154,296 155,240.5 156,277.5 157,259 158,277.5 159,166.5 160,240.5 161,259 162,277.5 163,222 164,166.5 165,203.5 166,259 167,314.5 168,222 169,314.5 170,296 171,333 171.58,370"><title>LR761635.1</title></polygon><rect class="average" height="1" width="171.58" x="0" y="213.97"><title>average:8.43</title></rect><rect class="median" height="1" width="171.58" x="0" y="277.5"><title>median:5</title></rect><text class="chromName" x="85.79" y="-12">LR761635.1<title>LR761635.1 73,222,313 bp</title></text><rect class="frame" height="370" width="171.58" x="0" y="0"/></g><g id="chrom-LR761636.1" transform="translate(314.2938403401308,0)"><polygon class="cov0" points="0,370 0,333 1,166.5 2,259 3,296 4,259 5,148 6,185 7,166.5 8,111 9,148 10,111 11,148 12,148 13,240.5 14,111 15,148 16,111 17,111 18,129.5 19,166.5 20,129.5 21,111 22,129.5 23,111 24,203.5 25,111 26,203.5 27,240.5 28,111 29,92.5 30,111 31,92.5 32,92.5 33,111 34,129.5 35,203.5 36,111 37,166.5 38,129.5 39,111 40,129.5 41,148 42,166.5 43,148 44,111 45,129.5 46,166.5 47,148 48,203.5 49,148 50,148 51,111 52,129.5 53,129.5 54,259 55,148 56,148 57,111 58,148 59,111 60,148 61,222 62,148 63,129.5 64,111 65,148 66,129.5 67,129.5 68,148 69,129.5 70,185 71,92.5 72,111 73,148 75,148 76,314.5 77,203.5 78,222 79,259 80,259 81,129.5 82,222 83,129.5 84,111 85,129.5 86,259 87,148 88,111 89,185 90,129.5 91,111 92,166.5 93,148 94,111 95,129.5 96,203.5 97,111 98,129.5 99,166.5 100,129.5 101,111 102,166.5 103,92.5 104,111 105,129.5 106,111 110,111 111,129.5 112,129.5 113,148 114,92.5 115,92.5 116,111 117,111 118,148 119,111 120,111 121,222 122,111 123,111 124,166.5 125,111 126,111 127,185 128,240.5 129,111 130,148 133,148 134,111 135,129.5 136,259 136.65,370"><title>LR761636.1</title></polygon><rect class="average" height="1" width="136.65" x="0" y="141.65"><title>average:12.34</title></rect><rect class="median" height="1" width="136.65" x="0" y="148"><title>median:12</title></rect><text class="chromName" x="68.33" y="-12">LR761636.1<title>LR761636.1 58,319,100 bp</title></text><rect class="frame" height="370" width="136.65" x="0" y="0"/></g><g id="chrom-LR761637.1" transform="translate(451.9485730949149,0)"><polygon class="cov1" points="0,370 0,351.5 1,277.5 2,314.5 3,314.5 4,222 5,185 6,203.5 7,240.5 8,277.5 9,277.5 10,333 11,185 12,259 13,277.5 14,296 15,166.5 16,222 17,148 18,259 19,296 20,259 21,148 22,166.5 23,240.5 24,333 25,166.5 26,129.5 27,240.5 28,222 29,185 30,222 31,129.5 32,148 33,166.5 34,92.5 35,185 36,277.5 37,296 38,148 39,148 40,129.5 41,259 42,185 43,259 44,314.5 45,185 46,129.5 47,111 49,111 50,166.5 51,111 52,92.5 53,148 54,92.5 55,111 56,148 57,222 58,259 59,296 60,314.5 61,222 62,111 63,129.5 64,129.5 65,148 66,129.5 67,148 68,166.5 69,111 70,148 71,129.5 72,166.5 73,129.5 74,185 75,129.5 77,129.5 78,166.5 79,166.5 80,148 81,166.5 82,111 83,129.5 84,148 85,111 86,222 87,148 88,111 89,129.5 90,111 91,129.5 92,111 93,148 94,166.5 95,222 96,185 97,129.5 98,111 99,111 100,259 101,314.5 102,277.5 103,314.5 104,314.5 105,203.5 106,129.5 107,111 110,111 111,148 112,129.5 113,111 114,277.5 115,203.5 116,185 117,166.5 118,129.5 119,314.5 120,166.5 121,129.5 122,333 123,333 124,314.5 124.49,370"><title>LR761637.1</title></polygon><rect class="average" height="1" width="124.49" x="0" y="170.3"><title>average:10.79</title></rect><rect class="median" height="1" width="124.49" x="0" y="185"><title>median:10</title></rect><text class="chromName" x="62.25" y="-12">LR761637.1<title>LR761637.1 53,127,865 bp</title></text><rect class="frame" height="370" width="124.49" x="0" y="0"/></g><g id="chrom-LR761638.1" transform="translate(577.4390778079033,0)"><polygon class="cov0" points="0,370 0,240.5 1,166.5 2,314.5 3,148 4,222 5,148 6,203.5 7,185 8,185 9,129.5 10,166.5 11,314.5 12,129.5 13,148 14,111 15,148 16,148 17,129.5 18,277.5 19,314.5 20,129.5 21,240.5 22,129.5 23,111 24,111 25,166.5 26,314.5 27,111 28,166.5 29,259 30,222 31,129.5 32,351.5 33,351.5 34,185 35,240.5 36,148 37,259 39,259 40,296 41,333 42,240.5 43,166.5 44,148 45,277.5 46,166.5 47,111 48,129.5 49,240.5 50,351.5 51,259 52,185 53,166.5 54,240.5 55,203.5 56,166.5 57,222 58,129.5 59,203.5 60,259 61,222 62,148 63,314.5 64,314.5 65,296 66,222 67,203.5 68,166.5 69,314.5 70,185 71,314.5 72,351.5 73,277.5 74,259 75,333 76,314.5 77,203.5 78,351.5 79,314.5 80,314.5 81,148 82,314.5 83,333 84,314.5 85,185 86,129.5 87,166.5 88,314.5 89,148 90,259 91,148 92,92.5 93,92.5 94,129.5 95,203.5 96,351.5 97,222 98,259 99,166.5 100,166.5 101,148 102,240.5 103,166.5 104,240.5 105,259 106,240.5 107,166.5 108,203.5 109,166.5 110,185 111,166.5 112,277.5 113,259 114,240.5 115,296 116,296 117,314.5 118,314.5 119,240.5 120,296 121,351.5 122,370 123,370 124,314.5 125,296 126,333 127,222 128,277.5 129,203.5 130,259 131,259 132,296 133,314.5 134,222 135,296 136,185 137,296 138,314.5 139,296 140,333 141,370 142,296 143,259 144,185 145,185 146,259 147,129.5 148,148 149,185 150,203.5 151,222 152,148 153,148 154,259 155,296 156,203.5 157,259 158,296 159,296 160,314.5 161,296 162,296 163,185 164,259 165,277.5 167,277.5 168,259 169,185 170,277.5 172,277.5 172.35,370"><title>LR761638.1</title></polygon><rect class="average" height="1" width="172.35" x="0" y="200.34"><title>average:9.17</title></rect><rect class="median" height="1" width="172.35" x="0" y="240.5"><title>median:7</title></rect><text class="chromName" x="86.17" y="-12">LR761638.1<title>LR761638.1 73,550,375 bp</title></text><rect class="frame" height="370" width="172.35" x="0" y="0"/></g><g id="chrom-LR761639.1" transform="translate(750.784104388203,0)"><polygon class="cov1" points="0,370 0,277.5 1,148 2,129.5 3,222 4,129.5 5,222 6,277.5 7,240.5 8,129.5 9,129.5 10,148 11,296 12,222 13,129.5 14,166.5 15,111 21,111 22,148 23,129.5 24,166.5 25,185 26,166.5 27,314.5 28,277.5 29,166.5 30,277.5 31,111 32,148 33,129.5 34,185 36,185 37,129.5 38,111 39,129.5 40,203.5 41,111 42,129.5 43,92.5 44,129.5 45,111 46,148 47,129.5 48,129.5 49,148 50,148 51,111 52,166.5 53,129.5 54,148 55,111 56,111 57,129.5 58,129.5 59,111 61,111 62,129.5 63,166.5 64,111 65,111 66,148 67,129.5 68,111 69,185 70,129.5 73,129.5 74,203.5 75,111 76,111 77,129.5 78,111 79,111 80,148 81,111 83,111 84,203.5 85,129.5 86,111 87,111 88,92.5 89,111 90,111 91,129.5 92,129.5 93,148 94,148 95,129.5 96,129.5 97,111 100,111 101,129.5 102,111 103,129.5 104,92.5 105,111 106,240.5 107,129.5 108,111 110,111 111,296 112,166.5 113,111 114,166.5 115,111 116,129.5 117,111 118,129.5 119,111 120,148 121,111 123,111 124,166.5 125,129.5 126,111 127,129.5 128,148 129,129.5 130,203.5 131,166.5 132,185 133,333 134,129.5 135,148 136,166.5 137,166.5 138,203.5 139,203.5 140,277.5 140.95,370"><title>LR761639.1</title></polygon><rect class="average" height="1" width="140.95" x="0" y="139.78"><title>average:12.44</title></rect><rect class="median" height="1" width="140.95" x="0" y="148"><title>median:12</title></rect><text class="chromName" x="70.47" y="-12">LR761639.1<title>LR761639.1 60,151,564 bp</title></text><rect class="frame" height="370" width="140.95" x="0" y="0"/></g><g id="chrom-LR761640.1" transform="translate(892.7327113317651,0)"><polygon class="cov0" points="0,370 0,222 1,129.5 2,203.5 3,166.5 4,166.5 5,111 6,203.5 7,166.5 8,129.5 9,166.5 10,129.5 11,166.5 12,129.5 13,259 14,166.5 15,129.5 16,240.5 17,129.5 18,129.5 19,185 20,129.5 21,129.5 22,111 23,92.5 24,129.5 25,129.5 26,92.5 27,111 28,129.5 29,111 30,129.5 31,129.5 32,111 33,111 34,148 35,111 36,111 37,185 38,92.5 39,148 40,92.5 41,92.5 42,74 43,92.5 44,111 45,129.5 46,148 47,222 48,240.5 49,111 50,129.5 51,111 52,111 53,129.5 54,111 56,111 57,185 58,148 59,166.5 60,259 61,111 62,148 63,166.5 64,111 65,296 66,129.5 68,129.5 69,185 70,166.5 71,129.5 72,166.5 73,222 74,166.5 75,129.5 76,111 77,222 78,111 79,185 80,92.5 81,74 82,92.5 83,111 85,111 86,351.5 87,129.5 88,148 90,148 91,277.5 92,277.5 93,185 94,240.5 95,148 96,129.5 97,129.5 98,148 99,129.5 100,92.5 101,203.5 102,333 103,222 104,111 106,111 107,166.5 108,185 109,111 110,166.5 111,185 112,129.5 113,148 114,166.5 115,111 116,333 117,333 118,351.5 119,333 120,148 121,92.5 122,129.5 123,111 124,129.5 125,92.5 126,111 127,111 128,240.5 129,129.5 130,111 131,111 132,129.5 133,111 134,92.5 135,92.5 136,129.5 138,129.5 139,185 140,129.5 141,129.5 142,148 143,203.5 144,129.5 145,111 145.53,370"><title>LR761640.1</title></polygon><rect class="average" height="1" width="145.53" x="0" y="143.42"><title>average:12.25</title></rect><rect class="median" height="1" width="145.53" x="0" y="148"><title>median:12</title></rect><text class="chromName" x="72.77" y="-12">LR761640.1<title>LR761640.1 62,107,823 bp</title></text><rect class="frame" height="370" width="145.53" x="0" y="0"/></g><g id="chrom-LR761641.1" transform="translate(1039.265271917344,0)"><polygon class="cov1" points="0,370 0,277.5 1,166.5 2,240.5 3,166.5 4,111 5,240.5 6,296 7,240.5 8,277.5 9,203.5 10,148 11,222 12,240.5 13,129.5 14,166.5 15,129.5 16,148 17,333 18,111 19,148 21,148 22,203.5 23,148 24,185 25,148 26,240.5 27,185 28,222 29,259 30,240.5 31,203.5 32,259 33,222 34,277.5 35,277.5 36,351.5 37,296 38,259 39,277.5 40,166.5 41,296 42,314.5 43,333 44,240.5 45,203.5 46,240.5 47,277.5 48,277.5 49,148 50,185 51,148 52,111 56,111 57,166.5 58,185 59,148 60,148 61,240.5 62,129.5 63,166.5 65,166.5 66,203.5 67,222 68,240.5 69,166.5 70,314.5 71,111 72,185 73,314.5 74,222 75,277.5 76,203.5 77,203.5 78,166.5 79,240.5 80,277.5 81,333 83,333 84,185 85,166.5 86,203.5 87,111 88,148 89,185 90,277.5 91,222 92,129.5 93,259 94,314.5 95,222 96,166.5 97,370 98,148 99,370 100,296 101,129.5 102,166.5 103,129.5 104,185 105,129.5 106,240.5 107,111 108,148 109,148 110,129.5 111,277.5 112,129.5 113,259 114,148 115,148 116,111 117,166.5 118,129.5 119,222 120,166.5 121,185 122,148 123,185 124,148 125,203.5 126,259 127,129.5 128,222 129,166.5 130,277.5 131,185 132,259 133,222 134,148 135,351.5 136,314.5 136.99,370"><title>LR761641.1</title></polygon><rect class="average" height="1" width="136.99" x="0" y="177.62"><title>average:10.4</title></rect><rect class="median" height="1" width="136.99" x="0" y="203.5"><title>median:9</title></rect><text class="chromName" x="68.5" y="-12">LR761641.1<title>LR761641.1 58,462,999 bp</title></text><rect class="frame" height="370" width="136.99" x="0" y="0"/></g><g id="chrom-LR761642.1" transform="translate(1177.25719230686,0)"><polygon class="cov0" points="0,370 0,314.5 1,296 2,296 3,277.5 4,314.5 5,333 6,314.5 8,314.5 9,296 10,296 11,259 12,259 13,129.5 14,166.5 15,166.5 16,259 17,259 18,277.5 19,222 20,222 21,166.5 22,296 23,222 24,166.5 25,129.5 26,166.5 27,203.5 28,277.5 29,148 30,222 31,129.5 32,166.5 33,222 34,148 35,314.5 36,129.5 37,166.5 38,111 39,166.5 40,129.5 41,148 42,111 43,148 44,129.5 45,222 46,129.5 47,240.5 48,240.5 49,259 50,185 51,203.5 52,222 53,111 54,129.5 55,203.5 56,148 57,222 58,240.5 59,166.5 60,166.5 61,333 62,240.5 63,166.5 64,203.5 65,185 66,166.5 67,296 68,222 69,148 70,148 71,240.5 72,129.5 73,203.5 74,148 75,166.5 76,296 77,166.5 78,148 79,277.5 80,240.5 81,185 82,314.5 83,240.5 84,296 85,203.5 86,314.5 86.91,370"><title>LR761642.1</title></polygon><rect class="average" height="1" width="86.91" x="0" y="175.33"><title>average:10.52</title></rect><rect class="median" height="1" width="86.91" x="0" y="203.5"><title>median:9</title></rect><text class="chromName" x="43.45" y="-12">LR761642.1<title>LR761642.1 37,089,910 bp</title></text><rect class="frame" height="370" width="86.91" x="0" y="0"/></g><g id="chrom-LR761643.1" transform="translate(1265.1671710093603,0)"><polygon class="cov1" points="0,370 0,351.5 1,277.5 2,185 3,129.5 4,148 5,185 6,166.5 7,166.5 8,148 9,111 10,129.5 11,166.5 12,129.5 13,185 14,240.5 15,148 16,111 17,166.5 18,148 19,203.5 20,333 21,148 22,111 23,111 24,222 25,166.5 26,333 27,314.5 28,222 29,111 30,240.5 31,148 32,222 33,129.5 34,148 35,203.5 36,222 37,111 39,111 40,129.5 41,148 42,166.5 43,277.5 44,148 45,166.5 46,111 47,203.5 48,148 49,129.5 50,148 51,111 52,129.5 53,129.5 54,148 55,111 57,111 58,148 59,111 60,92.5 61,111 62,148 63,129.5 64,129.5 65,166.5 66,129.5 69,129.5 70,148 71,240.5 72,185 73,222 74,111 75,203.5 76,129.5 77,111 78,203.5 79,259 80,111 81,92.5 82,129.5 83,129.5 84,111 85,111 86,129.5 87,111 88,148 89,314.5 90,148 91,111 92,111 93,148 94,92.5 95,129.5 96,111 97,111 98,92.5 99,92.5 100,111 101,222 102,129.5 103,129.5 104,148 105,129.5 106,111 107,111 108,148 109,92.5 110,111 111,92.5 112,111 113,203.5 114,148 115,111 116,92.5 117,92.5 118,111 119,148 120,111 122,111 123,92.5 124,129.5 125,129.5 126,111 127,166.5 128,185 129,129.5 130,166.5 131,240.5 132,129.5 133,240.5 134,314.5 134.83,370"><title>LR761643.1</title></polygon><rect class="average" height="1" width="134.83" x="0" y="147.18"><title>average:12.04</title></rect><rect class="median" height="1" width="134.83" x="0" y="148"><title>median:12</title></rect><text class="chromName" x="67.42" y="-12">LR761643.1<title>LR761643.1 57,541,580 bp</title></text><rect class="frame" height="370" width="134.83" x="0" y="0"/></g><g><line class="ruler" x1="-2" x2="1390" y1="333" y2="333"><title>2</title></line><text class="ruler" x="-5" y="333">2</text><line class="ruler" x1="-2" x2="1390" y1="296" y2="296"><title>4</title></line><text class="ruler" x="-5" y="296">4</text><line class="ruler" x1="-2" x2="1390" y1="259" y2="259"><title>6</title></line><text class="ruler" x="-5" y="259">6</text><line class="ruler" x1="-2" x2="1390" y1="222" y2="222"><title>8</title></line><text class="ruler" x="-5" y="222">8</text><line class="ruler" x1="-2" x2="1390" y1="185" y2="185"><title>10</title></line><text class="ruler" x="-5" y="185">10</text><line class="ruler" x1="-2" x2="1390" y1="148" y2="148"><title>12</title></line><text class="ruler" x="-5" y="148">12</text><line class="ruler" x1="-2" x2="1390" y1="111" y2="111"><title>14</title></line><text class="ruler" x="-5" y="111">14</text><line class="ruler" x1="-2" x2="1390" y1="74" y2="74"><title>16</title></line><text class="ruler" x="-5" y="74">16</text><line class="ruler" x1="-2" x2="1390" y1="37" y2="37"><title>18</title></line><text class="ruler" x="-5" y="37">18</text><line class="ruler" x1="-2" x2="1390" y1="0" y2="0"><title>20</title></line><text class="ruler" x="-5" y="0">20</text></g></g><text class="title" x="795" y="40">F8_M9_24.merged.realigned.bam F8_M9_24 F8_M9_24_1 F8_M9_24_2<title>./F8_M9_24.merged.realigned.bam</title></text><text class="xLabel" x="795" y="475">GCA_902806645.1_cgigas_uk_roslin_v1_genomic.fna  (589,358,857 bp)<title>../ref/GCA_902806645.1_cgigas_uk_roslin_v1_genomic.fna</title></text><text class="yLabel" transform="translate(25,265) rotate(90)" x="0" y="0">Coverage bp (median)</text></g></svg>