<?xml version="1.0" encoding="UTF-8" standalone="no"?><svg height="500" width="1500" xmlns="http://www.w3.org/2000/svg"><title>F8_M7_14.merged.realigned.bam</title><desc>Made with wgscoverageplotter undefined Author: Pierre Lindenbaum</desc><style>g.maing {stroke:black;stroke-width:0.5px;fill:none;}
text.title {stroke:none;fill:black;stroke-width:1px;text-anchor:middle;}
rect.frame {stroke:darkgray;fill:none;stroke-width:0.5px;}
text.ruler {stroke:none;fill:darkgray;stroke-width:1px;text-anchor:end;}
text.chromName {stroke:none;fill:darkgray;stroke-width:1px;text-anchor:middle;}
text.xLabel {stroke:none;fill:black;stroke-width:1px;text-anchor:middle;}
text.yLabel {stroke:none;fill:black;stroke-width:1px;text-anchor:middle;}
.cov0 {stroke:gray;fill:antiquewhite;stroke-width:0.5px;}
.cov1 {stroke:gray;fill:beige;stroke-width:0.5px;}
rect.average {stroke:green;fill:green;stroke-width:0.5px;opacity:0.3;}
rect.median {stroke:red;fill:red;stroke-width:0.5px;opacity:0.3;}
line.ruler {stroke:darkgray;stroke-dasharray:4;fill:none;stroke-width:1;}
</style><g class="maing"><g id="chromosomes" transform="translate(100.0,80.0)"><g id="chrom-LR761634.1" transform="translate(10.0,0)"><polygon class="cov0" points="0,370 0,320.67 1,123.33 2,172.67 3,283.67 4,246.67 5,185 6,259 7,197.33 8,148 9,123.33 10,148 11,111 12,148 13,234.33 14,283.67 15,135.67 16,135.67 17,209.67 18,135.67 19,123.33 20,123.33 21,148 23,148 24,160.33 25,111 26,123.33 27,123.33 28,135.67 29,123.33 30,135.67 31,135.67 32,271.33 33,123.33 34,135.67 35,148 36,111 37,185 38,197.33 39,148 40,123.33 42,123.33 43,172.67 44,160.33 45,197.33 46,172.67 47,135.67 48,148 49,135.67 51,135.67 52,123.33 53,135.67 54,197.33 55,222 56,111 57,111 58,123.33 59,148 60,148 61,111 62,148 63,172.67 64,197.33 65,172.67 66,148 67,197.33 68,123.33 69,209.67 70,135.67 71,123.33 72,209.67 73,185 74,135.67 75,123.33 76,123.33 77,185 78,148 79,148 80,320.67 81,271.33 82,123.33 83,135.67 84,148 85,135.67 86,111 87,185 88,123.33 89,271.33 90,160.33 91,148 92,123.33 93,148 94,123.33 95,111 96,111 97,160.33 98,320.67 99,135.67 100,148 101,185 102,148 103,160.33 104,160.33 105,111 106,222 107,197.33 108,271.33 109,111 110,111 111,148 112,123.33 113,148 114,296 115,197.33 116,111 117,135.67 118,111 119,160.33 120,197.33 121,123.33 122,135.67 123,123.33 124,148 125,148 126,135.67 127,148 128,197.33 129,172.67 130,222 130.72,370"><title>LR761634.1</title></polygon><rect class="average" height="1" width="130.72" x="0" y="157.38"><title>average:17.24</title></rect><rect class="median" height="1" width="130.72" x="0" y="148"><title>median:18</title></rect><text class="chromName" x="65.36" y="-12">LR761634.1<title>LR761634.1 55,785,328 bp</title></text><rect class="frame" height="370" width="130.72" x="0" y="0"/></g><g id="chrom-LR761635.1" transform="translate(141.71753661284166,0)"><polygon class="cov1" points="0,370 0,333 1,345.33 2,333 3,271.33 4,345.33 5,370 6,271.33 7,320.67 8,308.33 9,209.67 10,209.67 11,271.33 12,234.33 13,185 14,209.67 15,308.33 16,320.67 17,222 18,283.67 19,246.67 20,283.67 21,271.33 22,283.67 23,259 24,271.33 25,308.33 26,271.33 27,333 28,333 29,320.67 30,345.33 31,296 32,246.67 33,209.67 34,209.67 35,222 36,271.33 37,333 38,320.67 39,148 40,160.33 41,197.33 42,185 43,185 44,135.67 45,172.67 46,222 47,160.33 48,246.67 49,172.67 50,197.33 51,271.33 52,222 53,271.33 54,320.67 55,259 56,283.67 57,283.67 58,172.67 59,308.33 60,320.67 61,283.67 62,185 63,296 64,283.67 65,246.67 66,259 67,271.33 68,246.67 69,296 70,246.67 71,222 72,234.33 73,222 74,259 75,234.33 76,308.33 77,0 78,246.67 79,283.67 80,172.67 81,320.67 82,320.67 83,296 84,345.33 85,308.33 86,345.33 87,357.67 88,345.33 89,357.67 90,283.67 91,296 92,333 93,333 94,283.67 95,296 96,345.33 97,308.33 98,320.67 99,320.67 100,296 101,320.67 102,320.67 103,246.67 104,234.33 105,234.33 106,296 107,271.33 108,209.67 109,222 110,296 111,197.33 112,370 113,345.33 114,308.33 115,320.67 116,308.33 117,271.33 118,172.67 119,172.67 120,135.67 121,209.67 122,234.33 123,246.67 124,246.67 125,148 126,259 127,296 128,209.67 129,296 130,172.67 131,246.67 132,234.33 133,259 134,308.33 135,308.33 136,333 137,320.67 138,308.33 139,259 140,320.67 141,308.33 142,320.67 143,308.33 144,283.67 145,222 146,283.67 147,111 148,160.33 149,135.67 150,222 151,271.33 152,345.33 153,222 154,271.33 155,222 156,259 157,234.33 158,296 159,172.67 160,296 161,234.33 162,320.67 163,296 164,259 165,283.67 166,320.67 167,320.67 168,296 170,296 171,308.33 171.58,370"><title>LR761635.1</title></polygon><rect class="average" height="1" width="171.58" x="0" y="217.78"><title>average:12.34</title></rect><rect class="median" height="1" width="171.58" x="0" y="271.33"><title>median:8</title></rect><text class="chromName" x="85.79" y="-12">LR761635.1<title>LR761635.1 73,222,313 bp</title></text><rect class="frame" height="370" width="171.58" x="0" y="0"/></g><g id="chrom-LR761636.1" transform="translate(314.2938403401308,0)"><polygon class="cov0" points="0,370 0,333 1,160.33 2,246.67 3,296 4,209.67 5,148 6,148 7,172.67 8,111 9,148 10,135.67 12,135.67 13,234.33 14,111 15,135.67 16,123.33 17,111 18,148 19,160.33 20,123.33 21,123.33 22,135.67 23,123.33 24,197.33 25,123.33 26,197.33 27,246.67 28,123.33 30,123.33 31,111 32,111 33,123.33 34,148 35,185 36,148 37,172.67 38,135.67 39,135.67 40,160.33 41,148 43,148 44,135.67 45,135.67 46,172.67 47,123.33 48,209.67 49,148 50,172.67 51,123.33 52,135.67 53,123.33 54,222 55,172.67 56,148 57,135.67 58,160.33 59,135.67 60,160.33 61,222 62,160.33 63,135.67 64,135.67 65,148 66,135.67 67,148 68,160.33 69,148 70,209.67 71,111 72,111 73,172.67 74,148 75,160.33 76,308.33 77,197.33 78,234.33 79,259 80,271.33 81,135.67 82,209.67 83,135.67 84,123.33 85,135.67 86,209.67 87,160.33 88,148 89,209.67 90,148 91,123.33 92,197.33 93,148 94,135.67 95,185 96,197.33 97,123.33 98,135.67 99,160.33 100,148 101,160.33 102,148 103,111 104,135.67 107,135.67 108,123.33 110,123.33 111,148 112,148 113,160.33 114,123.33 115,111 116,111 117,135.67 118,160.33 119,123.33 120,123.33 121,234.33 122,111 123,123.33 124,185 125,123.33 126,123.33 127,209.67 128,246.67 129,111 130,148 131,172.67 132,160.33 133,148 134,123.33 135,135.67 136,308.33 136.65,370"><title>LR761636.1</title></polygon><rect class="average" height="1" width="136.65" x="0" y="155.51"><title>average:17.39</title></rect><rect class="median" height="1" width="136.65" x="0" y="148"><title>median:18</title></rect><text class="chromName" x="68.33" y="-12">LR761636.1<title>LR761636.1 58,319,100 bp</title></text><rect class="frame" height="370" width="136.65" x="0" y="0"/></g><g id="chrom-LR761637.1" transform="translate(451.9485730949149,0)"><polygon class="cov1" points="0,370 0,357.67 1,283.67 2,296 3,259 4,234.33 5,172.67 6,209.67 7,246.67 8,259 9,308.33 10,283.67 11,160.33 12,234.33 13,283.67 14,296 15,148 16,234.33 17,111 18,296 19,296 20,259 21,160.33 22,148 23,246.67 24,308.33 25,148 26,148 27,234.33 28,209.67 29,271.33 30,283.67 31,148 32,148 33,160.33 34,123.33 35,197.33 36,283.67 37,222 38,160.33 39,160.33 40,148 41,308.33 42,234.33 43,259 44,320.67 45,209.67 46,148 47,135.67 48,123.33 49,123.33 50,185 51,135.67 52,98.67 53,160.33 54,98.67 55,123.33 56,148 57,197.33 58,283.67 59,320.67 60,296 61,222 62,123.33 63,135.67 64,123.33 65,148 67,148 68,172.67 69,123.33 70,148 71,148 72,172.67 73,135.67 74,148 75,148 76,135.67 77,160.33 78,160.33 79,209.67 80,160.33 81,160.33 82,123.33 83,148 84,148 85,123.33 86,209.67 87,148 88,135.67 89,135.67 90,111 91,135.67 92,123.33 93,160.33 94,197.33 95,209.67 96,185 97,135.67 98,111 99,123.33 100,283.67 101,296 102,283.67 103,333 104,320.67 105,246.67 106,123.33 107,111 109,111 110,98.67 111,123.33 112,135.67 113,111 114,283.67 115,197.33 116,172.67 117,172.67 118,135.67 119,283.67 120,172.67 121,123.33 122,296 123,333 124,320.67 124.49,370"><title>LR761637.1</title></polygon><rect class="average" height="1" width="124.49" x="0" y="177.98"><title>average:15.57</title></rect><rect class="median" height="1" width="124.49" x="0" y="185"><title>median:15</title></rect><text class="chromName" x="62.25" y="-12">LR761637.1<title>LR761637.1 53,127,865 bp</title></text><rect class="frame" height="370" width="124.49" x="0" y="0"/></g><g id="chrom-LR761638.1" transform="translate(577.4390778079033,0)"><polygon class="cov0" points="0,370 0,148 1,12.33 2,209.67 3,135.67 4,246.67 5,160.33 6,197.33 7,197.33 8,185 9,123.33 10,160.33 11,308.33 12,123.33 13,160.33 14,123.33 15,160.33 16,148 17,135.67 18,246.67 19,345.33 20,135.67 21,197.33 22,135.67 23,111 24,123.33 25,160.33 26,357.67 27,111 28,172.67 29,333 30,246.67 31,135.67 32,357.67 33,357.67 34,197.33 35,209.67 36,160.33 37,320.67 38,296 39,345.33 40,333 41,296 42,246.67 43,135.67 44,160.33 45,271.33 46,209.67 47,111 48,123.33 49,234.33 50,345.33 51,234.33 52,185 53,172.67 54,246.67 55,234.33 56,160.33 57,222 58,148 59,197.33 60,160.33 61,222 62,172.67 63,320.67 64,308.33 65,308.33 66,197.33 67,222 68,185 69,296 70,160.33 71,333 72,345.33 73,296 74,271.33 75,320.67 76,333 77,222 78,370 79,296 80,271.33 81,197.33 82,333 83,320.67 84,296 85,172.67 86,160.33 87,172.67 88,320.67 89,135.67 90,271.33 91,160.33 92,111 93,123.33 94,148 95,222 96,308.33 97,135.67 98,308.33 99,209.67 100,209.67 101,172.67 102,308.33 103,197.33 104,283.67 105,296 106,246.67 107,185 108,259 109,172.67 110,234.33 111,197.33 112,320.67 113,234.33 114,234.33 115,283.67 116,333 117,345.33 118,333 119,308.33 120,296 121,320.67 122,345.33 123,357.67 124,296 125,296 126,308.33 127,259 128,345.33 129,308.33 130,333 131,333 132,259 133,333 134,296 135,320.67 136,160.33 137,370 138,357.67 139,259 140,345.33 141,357.67 142,320.67 143,271.33 144,160.33 145,197.33 146,185 147,148 148,135.67 149,172.67 150,197.33 151,283.67 152,197.33 153,148 154,246.67 155,296 156,209.67 157,308.33 158,308.33 159,283.67 160,308.33 161,308.33 162,271.33 163,308.33 164,345.33 165,357.67 166,320.67 167,370 168,345.33 169,246.67 170,357.67 171,370 172,333 172.35,370"><title>LR761638.1</title></polygon><rect class="average" height="1" width="172.35" x="0" y="211.72"><title>average:12.83</title></rect><rect class="median" height="1" width="172.35" x="0" y="259"><title>median:9</title></rect><text class="chromName" x="86.17" y="-12">LR761638.1<title>LR761638.1 73,550,375 bp</title></text><rect class="frame" height="370" width="172.35" x="0" y="0"/></g><g id="chrom-LR761639.1" transform="translate(750.784104388203,0)"><polygon class="cov1" points="0,370 0,308.33 1,160.33 2,160.33 3,283.67 4,148 5,222 6,333 7,296 8,148 9,123.33 10,160.33 11,259 12,246.67 13,123.33 14,148 15,123.33 17,123.33 18,135.67 19,111 20,111 21,135.67 22,148 23,160.33 24,172.67 25,197.33 26,172.67 27,320.67 28,333 29,185 30,308.33 31,135.67 32,160.33 33,123.33 34,209.67 35,185 36,209.67 37,123.33 38,135.67 39,123.33 40,246.67 41,135.67 42,148 43,111 44,148 45,123.33 46,160.33 47,135.67 48,123.33 49,148 50,160.33 51,123.33 52,197.33 53,148 54,160.33 55,123.33 56,123.33 57,135.67 58,135.67 59,123.33 60,123.33 61,135.67 63,135.67 64,111 65,123.33 66,148 67,135.67 68,135.67 69,172.67 70,135.67 71,135.67 72,148 73,123.33 74,234.33 75,123.33 76,135.67 77,135.67 78,123.33 79,135.67 80,148 81,123.33 82,123.33 83,135.67 84,197.33 85,135.67 86,111 87,123.33 88,111 89,123.33 90,123.33 91,135.67 92,135.67 93,160.33 94,148 95,123.33 96,135.67 97,123.33 98,111 99,123.33 100,135.67 101,111 102,111 103,123.33 104,98.67 105,111 106,222 107,123.33 108,111 109,123.33 110,111 111,271.33 112,148 113,111 114,172.67 115,111 116,148 117,135.67 118,135.67 119,111 120,148 121,123.33 123,123.33 124,160.33 125,135.67 126,135.67 127,123.33 128,148 129,123.33 130,185 131,148 132,172.67 133,345.33 134,123.33 135,172.67 136,135.67 137,148 138,234.33 139,197.33 140,345.33 140.95,370"><title>LR761639.1</title></polygon><rect class="average" height="1" width="140.95" x="0" y="153.05"><title>average:17.59</title></rect><rect class="median" height="1" width="140.95" x="0" y="148"><title>median:18</title></rect><text class="chromName" x="70.47" y="-12">LR761639.1<title>LR761639.1 60,151,564 bp</title></text><rect class="frame" height="370" width="140.95" x="0" y="0"/></g><g id="chrom-LR761640.1" transform="translate(892.7327113317651,0)"><polygon class="cov0" points="0,370 0,197.33 1,123.33 2,197.33 3,172.67 4,172.67 5,123.33 6,197.33 7,185 8,123.33 9,172.67 10,135.67 11,135.67 12,111 13,296 14,148 15,135.67 16,234.33 17,135.67 18,123.33 19,222 20,123.33 21,135.67 22,123.33 23,111 24,135.67 25,160.33 26,111 27,123.33 28,135.67 29,123.33 30,123.33 31,135.67 32,123.33 33,123.33 34,148 35,123.33 36,135.67 37,209.67 38,111 39,172.67 40,111 41,111 42,98.67 43,111 44,123.33 45,148 46,148 47,246.67 48,308.33 49,123.33 50,160.33 51,135.67 52,111 53,135.67 54,111 55,123.33 56,111 57,222 58,148 59,160.33 60,246.67 61,135.67 62,148 63,172.67 64,123.33 65,296 66,135.67 67,148 68,135.67 69,185 70,172.67 71,135.67 72,172.67 73,209.67 74,172.67 75,135.67 76,123.33 77,222 78,123.33 79,172.67 80,98.67 81,86.33 82,98.67 83,123.33 84,123.33 85,111 86,345.33 87,148 88,148 89,160.33 90,160.33 91,234.33 92,259 93,185 94,234.33 95,160.33 96,135.67 97,123.33 98,135.67 99,135.67 100,111 101,160.33 102,345.33 103,259 104,123.33 106,123.33 107,185 108,209.67 109,123.33 110,172.67 111,185 112,148 113,135.67 114,172.67 115,123.33 116,308.33 117,333 118,357.67 119,320.67 120,148 121,111 122,135.67 123,123.33 124,135.67 125,111 126,123.33 127,123.33 128,209.67 129,148 130,123.33 131,123.33 132,135.67 133,123.33 134,98.67 135,74 136,123.33 138,123.33 139,172.67 140,135.67 141,135.67 142,160.33 143,246.67 144,135.67 145,123.33 145.53,370"><title>LR761640.1</title></polygon><rect class="average" height="1" width="145.53" x="0" y="155.05"><title>average:17.43</title></rect><rect class="median" height="1" width="145.53" x="0" y="148"><title>median:18</title></rect><text class="chromName" x="72.77" y="-12">LR761640.1<title>LR761640.1 62,107,823 bp</title></text><rect class="frame" height="370" width="145.53" x="0" y="0"/></g><g id="chrom-LR761641.1" transform="translate(1039.265271917344,0)"><polygon class="cov1" points="0,370 0,320.67 1,172.67 2,209.67 3,209.67 4,222 5,185 6,308.33 7,271.33 8,222 9,148 10,111 11,234.33 12,209.67 13,135.67 14,222 15,123.33 16,123.33 17,197.33 18,135.67 20,135.67 21,148 22,234.33 23,148 24,185 25,185 26,246.67 27,209.67 28,234.33 29,271.33 30,234.33 31,197.33 32,259 33,246.67 34,296 35,296 36,345.33 37,271.33 38,259 39,246.67 40,209.67 41,222 42,320.67 43,333 44,271.33 45,197.33 46,246.67 47,271.33 48,271.33 49,148 50,172.67 51,148 52,123.33 54,123.33 55,111 56,111 57,172.67 58,185 59,185 60,148 61,283.67 62,148 63,172.67 64,197.33 65,172.67 66,222 67,234.33 68,259 69,160.33 70,234.33 71,135.67 72,197.33 73,283.67 74,222 75,320.67 76,209.67 77,246.67 78,172.67 79,209.67 80,271.33 81,357.67 82,345.33 83,308.33 84,160.33 85,160.33 86,259 87,123.33 88,222 89,185 90,271.33 91,259 92,135.67 93,222 94,246.67 95,197.33 96,172.67 97,320.67 98,135.67 99,370 100,259 101,135.67 102,185 103,123.33 104,172.67 105,135.67 106,271.33 107,123.33 108,135.67 109,148 110,135.67 111,296 112,160.33 113,259 114,148 115,160.33 116,123.33 117,172.67 118,148 119,197.33 120,185 121,160.33 122,148 123,222 124,148 125,197.33 126,246.67 127,123.33 128,234.33 129,185 130,259 131,222 132,333 133,283.67 134,160.33 135,357.67 136,345.33 136.99,370"><title>LR761641.1</title></polygon><rect class="average" height="1" width="136.99" x="0" y="187.84"><title>average:14.77</title></rect><rect class="median" height="1" width="136.99" x="0" y="209.67"><title>median:13</title></rect><text class="chromName" x="68.5" y="-12">LR761641.1<title>LR761641.1 58,462,999 bp</title></text><rect class="frame" height="370" width="136.99" x="0" y="0"/></g><g id="chrom-LR761642.1" transform="translate(1177.25719230686,0)"><polygon class="cov0" points="0,370 0,320.67 1,320.67 2,296 3,234.33 4,283.67 5,308.33 6,283.67 7,271.33 8,283.67 9,308.33 10,271.33 11,197.33 12,271.33 13,135.67 14,222 15,222 16,308.33 17,259 18,296 19,209.67 20,185 21,172.67 22,308.33 23,271.33 24,172.67 25,123.33 26,160.33 27,185 28,259 29,172.67 30,259 31,135.67 32,160.33 33,234.33 34,160.33 35,209.67 36,148 37,148 38,123.33 39,197.33 40,123.33 41,148 42,123.33 43,148 44,135.67 45,160.33 46,148 47,246.67 48,172.67 49,259 50,160.33 51,148 52,209.67 53,123.33 54,135.67 55,234.33 56,172.67 57,222 58,222 59,148 60,160.33 61,345.33 62,172.67 63,172.67 64,197.33 65,172.67 66,172.67 67,345.33 68,234.33 69,160.33 70,160.33 71,259 72,160.33 73,209.67 74,148 75,197.33 76,308.33 77,148 78,148 79,234.33 80,246.67 81,185 82,308.33 83,271.33 84,296 85,209.67 86,320.67 86.91,370"><title>LR761642.1</title></polygon><rect class="average" height="1" width="86.91" x="0" y="175.7"><title>average:15.75</title></rect><rect class="median" height="1" width="86.91" x="0" y="209.67"><title>median:13</title></rect><text class="chromName" x="43.45" y="-12">LR761642.1<title>LR761642.1 37,089,910 bp</title></text><rect class="frame" height="370" width="86.91" x="0" y="0"/></g><g id="chrom-LR761643.1" transform="translate(1265.1671710093603,0)"><polygon class="cov1" points="0,370 0,333 1,271.33 2,160.33 3,135.67 4,148 5,246.67 6,172.67 7,172.67 8,148 9,123.33 10,135.67 11,160.33 12,135.67 13,185 14,234.33 15,148 16,111 17,160.33 19,160.33 20,357.67 21,160.33 22,123.33 23,123.33 24,222 25,160.33 26,357.67 27,283.67 28,271.33 29,123.33 30,222 31,148 32,222 33,135.67 34,148 35,209.67 36,222 37,123.33 38,123.33 39,111 40,135.67 41,148 42,160.33 43,259 44,148 45,185 46,135.67 47,197.33 48,160.33 49,135.67 50,185 51,123.33 52,123.33 53,160.33 54,160.33 55,135.67 56,123.33 57,123.33 58,135.67 59,135.67 60,123.33 61,123.33 62,148 63,135.67 64,148 65,197.33 66,148 67,148 68,135.67 69,135.67 70,148 71,234.33 72,185 73,209.67 74,123.33 75,222 76,135.67 77,123.33 78,197.33 79,246.67 80,123.33 81,111 82,135.67 83,135.67 84,111 85,123.33 86,135.67 87,123.33 88,172.67 89,345.33 90,172.67 91,135.67 92,123.33 93,148 94,123.33 95,148 96,111 97,123.33 98,111 99,111 100,123.33 101,222 102,135.67 103,135.67 104,148 105,135.67 106,123.33 107,123.33 108,135.67 109,123.33 110,111 111,111 112,123.33 113,209.67 114,148 115,123.33 116,98.67 117,111 118,123.33 119,160.33 120,123.33 121,111 123,111 124,135.67 125,123.33 126,123.33 127,172.67 128,172.67 129,123.33 130,160.33 131,234.33 132,123.33 133,234.33 134,308.33 134.83,370"><title>LR761643.1</title></polygon><rect class="average" height="1" width="134.83" x="0" y="158.61"><title>average:17.14</title></rect><rect class="median" height="1" width="134.83" x="0" y="148"><title>median:18</title></rect><text class="chromName" x="67.42" y="-12">LR761643.1<title>LR761643.1 57,541,580 bp</title></text><rect class="frame" height="370" width="134.83" x="0" y="0"/></g><g><line class="ruler" x1="-2" x2="1390" y1="333" y2="333"><title>3</title></line><text class="ruler" x="-5" y="333">3</text><line class="ruler" x1="-2" x2="1390" y1="296" y2="296"><title>6</title></line><text class="ruler" x="-5" y="296">6</text><line class="ruler" x1="-2" x2="1390" y1="259" y2="259"><title>9</title></line><text class="ruler" x="-5" y="259">9</text><line class="ruler" x1="-2" x2="1390" y1="222" y2="222"><title>12</title></line><text class="ruler" x="-5" y="222">12</text><line class="ruler" x1="-2" x2="1390" y1="185" y2="185"><title>15</title></line><text class="ruler" x="-5" y="185">15</text><line class="ruler" x1="-2" x2="1390" y1="148" y2="148"><title>18</title></line><text class="ruler" x="-5" y="148">18</text><line class="ruler" x1="-2" x2="1390" y1="111" y2="111"><title>21</title></line><text class="ruler" x="-5" y="111">21</text><line class="ruler" x1="-2" x2="1390" y1="74" y2="74"><title>24</title></line><text class="ruler" x="-5" y="74">24</text><line class="ruler" x1="-2" x2="1390" y1="37" y2="37"><title>27</title></line><text class="ruler" x="-5" y="37">27</text><line class="ruler" x1="-2" x2="1390" y1="0" y2="0"><title>30</title></line><text class="ruler" x="-5" y="0">30</text></g></g><text class="title" x="795" y="40">F8_M7_14.merged.realigned.bam F8_M7_14 F8_M7_14_1 F8_M7_14_2<title>./F8_M7_14.merged.realigned.bam</title></text><text class="xLabel" x="795" y="475">GCA_902806645.1_cgigas_uk_roslin_v1_genomic.fna  (589,358,857 bp)<title>../ref/GCA_902806645.1_cgigas_uk_roslin_v1_genomic.fna</title></text><text class="yLabel" transform="translate(25,265) rotate(90)" x="0" y="0">Coverage bp (median)</text></g></svg>