<?xml version="1.0" encoding="UTF-8" standalone="no"?><svg height="500" width="1500" xmlns="http://www.w3.org/2000/svg"><title>F8_M7_24.merged.realigned.bam</title><desc>Made with wgscoverageplotter undefined Author: Pierre Lindenbaum</desc><style>g.maing {stroke:black;stroke-width:0.5px;fill:none;}
text.title {stroke:none;fill:black;stroke-width:1px;text-anchor:middle;}
rect.frame {stroke:darkgray;fill:none;stroke-width:0.5px;}
text.ruler {stroke:none;fill:darkgray;stroke-width:1px;text-anchor:end;}
text.chromName {stroke:none;fill:darkgray;stroke-width:1px;text-anchor:middle;}
text.xLabel {stroke:none;fill:black;stroke-width:1px;text-anchor:middle;}
text.yLabel {stroke:none;fill:black;stroke-width:1px;text-anchor:middle;}
.cov0 {stroke:gray;fill:antiquewhite;stroke-width:0.5px;}
.cov1 {stroke:gray;fill:beige;stroke-width:0.5px;}
rect.average {stroke:green;fill:green;stroke-width:0.5px;opacity:0.3;}
rect.median {stroke:red;fill:red;stroke-width:0.5px;opacity:0.3;}
line.ruler {stroke:darkgray;stroke-dasharray:4;fill:none;stroke-width:1;}
</style><g class="maing"><g id="chromosomes" transform="translate(100.0,80.0)"><g id="chrom-LR761634.1" transform="translate(10.0,0)"><polygon class="cov0" points="0,370 0,319.55 1,134.55 2,168.18 3,302.73 4,218.64 5,185 6,285.91 7,201.82 8,151.36 9,134.55 10,151.36 11,117.73 12,151.36 13,235.45 14,285.91 15,134.55 16,134.55 17,168.18 18,134.55 19,134.55 20,117.73 21,134.55 22,151.36 23,151.36 24,168.18 25,117.73 27,117.73 28,134.55 29,117.73 31,117.73 32,269.09 33,117.73 34,134.55 35,134.55 36,100.91 37,185 38,185 39,134.55 40,117.73 41,100.91 42,117.73 43,168.18 44,151.36 45,185 46,168.18 47,134.55 51,134.55 52,117.73 53,134.55 54,201.82 55,218.64 56,100.91 57,100.91 58,117.73 59,134.55 60,134.55 61,100.91 62,134.55 63,168.18 64,201.82 65,168.18 66,134.55 67,185 68,117.73 69,201.82 70,117.73 71,117.73 72,185 73,168.18 74,134.55 75,117.73 76,117.73 77,168.18 78,151.36 79,134.55 80,319.55 81,252.27 82,117.73 83,134.55 85,134.55 86,100.91 87,185 88,117.73 89,269.09 90,151.36 91,151.36 92,117.73 93,151.36 94,117.73 95,117.73 96,100.91 97,151.36 98,302.73 99,134.55 100,151.36 101,185 102,151.36 103,151.36 104,168.18 105,117.73 106,201.82 107,201.82 108,269.09 109,117.73 110,100.91 111,134.55 112,134.55 113,168.18 114,285.91 115,185 116,100.91 117,117.73 118,117.73 119,168.18 120,201.82 121,134.55 122,151.36 123,117.73 124,151.36 125,134.55 126,134.55 127,151.36 128,185 129,185 130,201.82 130.72,370"><title>LR761634.1</title></polygon><rect class="average" height="1" width="130.72" x="0" y="150.32"><title>average:13.06</title></rect><rect class="median" height="1" width="130.72" x="0" y="151.36"><title>median:13</title></rect><text class="chromName" x="65.36" y="-12">LR761634.1<title>LR761634.1 55,785,328 bp</title></text><rect class="frame" height="370" width="130.72" x="0" y="0"/></g><g id="chrom-LR761635.1" transform="translate(141.71753661284166,0)"><polygon class="cov1" points="0,370 0,336.36 1,353.18 2,319.55 3,285.91 4,353.18 5,370 6,252.27 7,319.55 8,302.73 9,218.64 10,285.91 11,302.73 12,302.73 13,168.18 14,235.45 15,235.45 16,302.73 17,218.64 18,269.09 19,218.64 20,269.09 21,269.09 22,285.91 23,285.91 24,302.73 25,319.55 26,319.55 27,336.36 28,319.55 29,319.55 30,336.36 31,302.73 32,235.45 33,218.64 34,201.82 35,235.45 36,252.27 37,336.36 38,336.36 39,168.18 40,185 41,235.45 42,168.18 43,269.09 44,117.73 45,151.36 46,201.82 47,168.18 48,201.82 49,168.18 50,201.82 51,269.09 52,218.64 53,269.09 54,302.73 55,235.45 56,269.09 57,269.09 58,185 59,269.09 60,336.36 61,269.09 62,151.36 63,285.91 64,285.91 65,252.27 66,285.91 67,269.09 69,269.09 70,218.64 71,235.45 72,252.27 73,201.82 74,252.27 75,235.45 76,319.55 77,0 78,252.27 79,285.91 80,151.36 81,336.36 82,336.36 83,285.91 84,336.36 85,302.73 86,353.18 89,353.18 90,336.36 91,302.73 92,319.55 93,285.91 94,285.91 95,302.73 96,319.55 97,285.91 98,319.55 99,302.73 100,319.55 102,319.55 103,218.64 104,218.64 105,201.82 106,285.91 107,252.27 108,185 109,201.82 110,302.73 111,185 112,336.36 113,336.36 114,319.55 115,302.73 116,319.55 117,285.91 118,168.18 119,185 120,134.55 121,201.82 122,252.27 123,235.45 124,252.27 125,151.36 126,252.27 127,285.91 128,218.64 129,218.64 130,151.36 131,269.09 132,218.64 133,285.91 134,302.73 135,285.91 136,336.36 137,336.36 138,319.55 139,252.27 140,336.36 141,302.73 142,269.09 143,302.73 144,269.09 145,201.82 146,285.91 147,134.55 148,168.18 149,134.55 150,201.82 151,269.09 152,353.18 153,218.64 154,285.91 155,218.64 156,235.45 157,218.64 158,269.09 159,168.18 160,252.27 161,235.45 162,285.91 163,218.64 164,185 165,218.64 166,269.09 167,302.73 168,218.64 169,269.09 170,285.91 171,319.55 171.58,370"><title>LR761635.1</title></polygon><rect class="average" height="1" width="171.58" x="0" y="210.3"><title>average:9.5</title></rect><rect class="median" height="1" width="171.58" x="0" y="269.09"><title>median:6</title></rect><text class="chromName" x="85.79" y="-12">LR761635.1<title>LR761635.1 73,222,313 bp</title></text><rect class="frame" height="370" width="171.58" x="0" y="0"/></g><g id="chrom-LR761636.1" transform="translate(314.2938403401308,0)"><polygon class="cov0" points="0,370 0,336.36 1,168.18 2,252.27 3,319.55 4,235.45 5,151.36 6,151.36 7,168.18 8,100.91 9,151.36 10,117.73 11,134.55 12,151.36 13,252.27 14,117.73 15,151.36 16,134.55 17,117.73 18,134.55 19,151.36 20,117.73 23,117.73 24,185 25,117.73 26,201.82 27,252.27 28,100.91 29,100.91 30,117.73 31,100.91 32,100.91 33,117.73 34,134.55 35,201.82 36,134.55 37,168.18 38,134.55 39,134.55 40,168.18 41,151.36 43,151.36 44,134.55 45,134.55 46,168.18 47,134.55 48,201.82 49,151.36 50,151.36 51,117.73 52,117.73 53,134.55 54,235.45 55,151.36 56,151.36 57,117.73 58,151.36 59,117.73 60,151.36 61,218.64 62,151.36 63,134.55 64,134.55 65,151.36 66,134.55 67,151.36 68,151.36 69,134.55 70,185 71,100.91 72,100.91 73,168.18 74,151.36 75,151.36 76,302.73 77,201.82 78,235.45 79,252.27 80,235.45 81,134.55 82,218.64 83,151.36 84,117.73 85,134.55 86,235.45 87,151.36 88,134.55 89,201.82 90,134.55 91,117.73 92,151.36 93,151.36 94,117.73 95,151.36 96,185 97,117.73 98,134.55 99,168.18 100,134.55 101,134.55 102,151.36 103,100.91 104,117.73 105,117.73 106,134.55 107,117.73 110,117.73 111,151.36 112,151.36 113,168.18 114,117.73 115,100.91 116,100.91 117,117.73 118,151.36 119,117.73 120,117.73 121,218.64 122,117.73 123,117.73 124,185 125,117.73 126,117.73 127,201.82 128,252.27 129,117.73 130,134.55 131,168.18 132,151.36 133,151.36 134,117.73 135,134.55 136,269.09 136.65,370"><title>LR761636.1</title></polygon><rect class="average" height="1" width="136.65" x="0" y="147.18"><title>average:13.25</title></rect><rect class="median" height="1" width="136.65" x="0" y="151.36"><title>median:13</title></rect><text class="chromName" x="68.33" y="-12">LR761636.1<title>LR761636.1 58,319,100 bp</title></text><rect class="frame" height="370" width="136.65" x="0" y="0"/></g><g id="chrom-LR761637.1" transform="translate(451.9485730949149,0)"><polygon class="cov1" points="0,370 0,353.18 1,302.73 3,302.73 4,218.64 5,185 6,185 7,252.27 8,285.91 9,269.09 10,319.55 11,168.18 12,218.64 13,302.73 14,302.73 15,151.36 16,218.64 17,117.73 18,285.91 19,302.73 20,269.09 21,151.36 22,151.36 23,235.45 24,302.73 25,151.36 26,134.55 27,218.64 28,218.64 29,235.45 30,252.27 31,134.55 32,151.36 33,151.36 34,100.91 35,201.82 36,269.09 37,252.27 38,151.36 39,134.55 40,134.55 41,252.27 42,185 43,285.91 44,319.55 45,168.18 46,134.55 47,117.73 49,117.73 50,168.18 51,117.73 52,84.09 53,168.18 54,100.91 55,117.73 56,151.36 57,218.64 58,269.09 59,302.73 60,302.73 61,218.64 62,134.55 64,134.55 65,151.36 66,134.55 67,151.36 68,168.18 69,117.73 70,151.36 71,134.55 72,185 73,134.55 74,151.36 75,134.55 76,134.55 77,151.36 78,168.18 79,185 80,168.18 81,151.36 82,117.73 83,134.55 84,151.36 85,117.73 86,218.64 87,151.36 88,117.73 89,134.55 90,117.73 91,134.55 92,117.73 93,151.36 94,185 95,218.64 96,168.18 97,134.55 98,117.73 99,117.73 100,285.91 101,319.55 102,285.91 103,336.36 104,319.55 105,252.27 106,117.73 107,100.91 108,117.73 109,117.73 110,100.91 111,168.18 112,134.55 113,117.73 114,269.09 115,201.82 116,185 117,168.18 118,134.55 119,302.73 120,168.18 121,134.55 122,336.36 123,336.36 124,319.55 124.49,370"><title>LR761637.1</title></polygon><rect class="average" height="1" width="124.49" x="0" y="173.6"><title>average:11.68</title></rect><rect class="median" height="1" width="124.49" x="0" y="185"><title>median:11</title></rect><text class="chromName" x="62.25" y="-12">LR761637.1<title>LR761637.1 53,127,865 bp</title></text><rect class="frame" height="370" width="124.49" x="0" y="0"/></g><g id="chrom-LR761638.1" transform="translate(577.4390778079033,0)"><polygon class="cov0" points="0,370 0,151.36 1,50.45 2,252.27 3,134.55 4,235.45 5,151.36 6,201.82 8,201.82 9,117.73 10,151.36 11,302.73 12,117.73 13,168.18 14,117.73 15,134.55 17,134.55 18,269.09 19,319.55 20,134.55 21,201.82 22,134.55 23,117.73 24,117.73 25,168.18 26,319.55 27,117.73 28,185 29,319.55 30,235.45 31,134.55 32,370 33,353.18 34,201.82 35,218.64 36,151.36 37,319.55 38,302.73 39,353.18 40,336.36 41,319.55 42,252.27 43,168.18 44,151.36 45,269.09 46,201.82 47,100.91 48,134.55 49,235.45 50,353.18 51,235.45 52,201.82 53,168.18 54,235.45 55,218.64 56,168.18 57,235.45 58,134.55 59,201.82 60,201.82 61,235.45 62,151.36 63,353.18 64,302.73 65,302.73 66,185 67,235.45 68,185 69,319.55 70,168.18 71,336.36 72,353.18 73,285.91 74,252.27 75,336.36 76,336.36 77,218.64 78,353.18 79,269.09 80,285.91 81,168.18 82,319.55 83,336.36 84,302.73 85,185 86,134.55 87,168.18 88,319.55 89,134.55 90,252.27 91,151.36 92,117.73 93,100.91 94,134.55 95,201.82 96,336.36 97,168.18 98,252.27 99,201.82 100,168.18 101,151.36 102,218.64 103,168.18 104,235.45 105,235.45 106,252.27 107,134.55 108,218.64 109,168.18 110,168.18 111,185 112,269.09 113,252.27 114,185 115,285.91 116,302.73 117,319.55 118,319.55 119,285.91 120,302.73 121,319.55 122,353.18 123,370 124,319.55 125,285.91 126,319.55 127,218.64 128,269.09 129,201.82 130,252.27 131,252.27 132,302.73 133,319.55 134,269.09 135,302.73 136,151.36 137,370 138,353.18 139,302.73 140,370 141,353.18 142,285.91 143,269.09 144,168.18 145,185 146,252.27 147,134.55 148,134.55 149,151.36 150,201.82 151,201.82 152,151.36 153,151.36 154,235.45 155,285.91 156,218.64 157,269.09 158,269.09 159,285.91 161,285.91 162,252.27 163,269.09 164,252.27 165,269.09 166,252.27 167,285.91 168,252.27 169,185 170,269.09 171,285.91 172,269.09 172.35,370"><title>LR761638.1</title></polygon><rect class="average" height="1" width="172.35" x="0" y="200.63"><title>average:10.07</title></rect><rect class="median" height="1" width="172.35" x="0" y="235.45"><title>median:8</title></rect><text class="chromName" x="86.17" y="-12">LR761638.1<title>LR761638.1 73,550,375 bp</title></text><rect class="frame" height="370" width="172.35" x="0" y="0"/></g><g id="chrom-LR761639.1" transform="translate(750.784104388203,0)"><polygon class="cov1" points="0,370 0,319.55 1,151.36 2,151.36 3,269.09 4,151.36 5,252.27 6,353.18 7,285.91 8,134.55 9,117.73 10,151.36 11,252.27 12,235.45 13,134.55 14,168.18 15,117.73 18,117.73 19,100.91 20,117.73 21,117.73 22,151.36 23,151.36 24,185 25,201.82 26,168.18 27,302.73 28,319.55 29,185 30,285.91 31,134.55 32,151.36 33,117.73 34,201.82 35,201.82 36,218.64 37,134.55 38,117.73 39,117.73 40,201.82 41,117.73 42,134.55 43,100.91 44,151.36 45,117.73 46,151.36 47,134.55 48,117.73 49,151.36 50,168.18 51,117.73 52,185 53,134.55 54,151.36 55,117.73 56,117.73 57,134.55 58,134.55 59,117.73 61,117.73 62,134.55 63,117.73 64,100.91 65,117.73 66,151.36 67,134.55 68,117.73 69,185 70,134.55 73,134.55 74,218.64 75,117.73 76,134.55 77,134.55 78,117.73 79,117.73 80,151.36 81,117.73 82,117.73 83,134.55 84,201.82 85,134.55 86,117.73 87,134.55 88,100.91 89,117.73 90,100.91 91,134.55 92,134.55 93,151.36 94,151.36 95,117.73 97,117.73 98,100.91 99,117.73 102,117.73 103,134.55 104,100.91 105,117.73 106,235.45 107,117.73 108,100.91 109,117.73 110,117.73 111,252.27 112,134.55 113,117.73 114,168.18 115,117.73 116,151.36 117,117.73 118,117.73 119,100.91 120,151.36 121,117.73 123,117.73 124,168.18 125,151.36 126,134.55 127,134.55 128,151.36 129,134.55 130,185 131,151.36 132,168.18 133,336.36 134,117.73 135,134.55 136,168.18 137,168.18 138,235.45 139,201.82 140,285.91 140.95,370"><title>LR761639.1</title></polygon><rect class="average" height="1" width="140.95" x="0" y="147.39"><title>average:13.24</title></rect><rect class="median" height="1" width="140.95" x="0" y="151.36"><title>median:13</title></rect><text class="chromName" x="70.47" y="-12">LR761639.1<title>LR761639.1 60,151,564 bp</title></text><rect class="frame" height="370" width="140.95" x="0" y="0"/></g><g id="chrom-LR761640.1" transform="translate(892.7327113317651,0)"><polygon class="cov0" points="0,370 0,218.64 1,117.73 2,201.82 3,185 4,168.18 5,117.73 6,201.82 7,185 8,134.55 9,168.18 10,134.55 11,134.55 12,100.91 13,269.09 14,168.18 15,134.55 16,252.27 17,134.55 18,117.73 19,201.82 20,117.73 21,134.55 22,117.73 23,100.91 24,134.55 25,151.36 26,100.91 27,117.73 28,134.55 29,134.55 30,117.73 31,134.55 32,117.73 33,117.73 34,151.36 35,117.73 36,134.55 37,201.82 38,100.91 39,151.36 40,100.91 41,117.73 42,67.27 43,117.73 44,117.73 45,134.55 46,151.36 47,235.45 48,319.55 49,117.73 50,134.55 51,134.55 52,100.91 53,134.55 54,100.91 55,117.73 56,100.91 57,185 58,134.55 59,185 60,252.27 61,134.55 62,151.36 63,168.18 64,117.73 65,269.09 66,134.55 68,134.55 69,168.18 70,168.18 71,134.55 72,168.18 73,218.64 74,168.18 75,117.73 76,117.73 77,218.64 78,117.73 79,168.18 80,84.09 82,84.09 83,117.73 84,117.73 85,100.91 86,353.18 87,134.55 88,151.36 90,151.36 91,269.09 92,252.27 93,185 94,218.64 95,151.36 96,134.55 99,134.55 100,117.73 101,185 102,336.36 103,235.45 104,117.73 106,117.73 107,168.18 108,185 109,117.73 110,168.18 111,185 112,151.36 113,134.55 114,168.18 115,117.73 116,285.91 117,336.36 118,353.18 119,319.55 120,134.55 121,100.91 122,134.55 123,117.73 124,134.55 125,117.73 127,117.73 128,235.45 129,151.36 130,117.73 131,117.73 132,151.36 133,117.73 134,100.91 135,100.91 136,134.55 137,134.55 138,117.73 139,185 140,151.36 141,134.55 142,151.36 143,201.82 144,151.36 145,117.73 145.53,370"><title>LR761640.1</title></polygon><rect class="average" height="1" width="145.53" x="0" y="149.04"><title>average:13.14</title></rect><rect class="median" height="1" width="145.53" x="0" y="151.36"><title>median:13</title></rect><text class="chromName" x="72.77" y="-12">LR761640.1<title>LR761640.1 62,107,823 bp</title></text><rect class="frame" height="370" width="145.53" x="0" y="0"/></g><g id="chrom-LR761641.1" transform="translate(1039.265271917344,0)"><polygon class="cov1" points="0,370 0,319.55 1,185 2,235.45 3,201.82 4,235.45 5,218.64 6,269.09 7,235.45 8,252.27 9,168.18 10,134.55 11,218.64 12,218.64 13,134.55 14,168.18 15,117.73 16,134.55 17,235.45 18,117.73 19,151.36 20,134.55 21,151.36 22,218.64 23,151.36 24,168.18 25,168.18 26,252.27 27,201.82 28,235.45 29,252.27 30,235.45 31,201.82 32,252.27 33,218.64 34,302.73 35,269.09 36,336.36 37,269.09 38,252.27 39,252.27 40,201.82 41,235.45 42,319.55 43,319.55 44,252.27 45,201.82 46,235.45 47,269.09 48,285.91 49,134.55 50,168.18 51,151.36 52,117.73 54,117.73 55,100.91 56,100.91 57,151.36 58,185 59,168.18 60,151.36 61,302.73 62,134.55 63,151.36 64,168.18 65,185 66,201.82 67,218.64 68,235.45 69,168.18 70,285.91 71,117.73 72,185 73,285.91 74,218.64 75,285.91 76,185 77,201.82 78,185 79,185 80,269.09 81,336.36 82,336.36 83,302.73 84,185 85,151.36 86,235.45 87,117.73 88,185 89,185 90,252.27 91,252.27 92,134.55 93,235.45 94,269.09 95,201.82 96,168.18 97,353.18 98,151.36 99,370 100,269.09 101,134.55 102,168.18 103,117.73 104,185 105,134.55 106,252.27 107,117.73 108,151.36 109,151.36 110,134.55 111,302.73 112,151.36 113,252.27 114,151.36 115,151.36 116,117.73 117,168.18 118,117.73 119,201.82 120,168.18 121,168.18 122,134.55 123,185 124,151.36 125,185 126,252.27 127,117.73 128,201.82 129,168.18 130,269.09 131,168.18 132,252.27 133,218.64 134,151.36 135,353.18 136,302.73 136.99,370"><title>LR761641.1</title></polygon><rect class="average" height="1" width="136.99" x="0" y="179.4"><title>average:11.33</title></rect><rect class="median" height="1" width="136.99" x="0" y="201.82"><title>median:10</title></rect><text class="chromName" x="68.5" y="-12">LR761641.1<title>LR761641.1 58,462,999 bp</title></text><rect class="frame" height="370" width="136.99" x="0" y="0"/></g><g id="chrom-LR761642.1" transform="translate(1177.25719230686,0)"><polygon class="cov0" points="0,370 0,319.55 1,302.73 2,319.55 3,252.27 4,302.73 5,302.73 6,285.91 7,269.09 8,302.73 9,285.91 10,285.91 11,235.45 12,269.09 13,134.55 14,185 15,201.82 16,252.27 17,269.09 18,285.91 19,201.82 20,185 21,168.18 22,302.73 23,218.64 24,151.36 25,117.73 26,168.18 27,185 28,269.09 29,151.36 30,235.45 31,134.55 32,151.36 33,218.64 34,151.36 35,252.27 36,134.55 37,134.55 38,117.73 39,185 40,134.55 41,151.36 42,117.73 43,134.55 44,134.55 45,185 46,151.36 47,235.45 48,235.45 49,252.27 50,185 51,168.18 52,201.82 53,117.73 54,134.55 55,201.82 56,168.18 57,201.82 58,235.45 59,151.36 60,168.18 61,336.36 62,201.82 63,151.36 64,201.82 65,168.18 66,168.18 67,302.73 68,201.82 69,168.18 70,185 71,252.27 72,151.36 73,201.82 74,134.55 75,168.18 76,285.91 77,168.18 78,134.55 79,235.45 80,235.45 81,185 82,302.73 83,252.27 84,285.91 85,185 86,302.73 86.91,370"><title>LR761642.1</title></polygon><rect class="average" height="1" width="86.91" x="0" y="170.61"><title>average:11.86</title></rect><rect class="median" height="1" width="86.91" x="0" y="201.82"><title>median:10</title></rect><text class="chromName" x="43.45" y="-12">LR761642.1<title>LR761642.1 37,089,910 bp</title></text><rect class="frame" height="370" width="86.91" x="0" y="0"/></g><g id="chrom-LR761643.1" transform="translate(1265.1671710093603,0)"><polygon class="cov1" points="0,370 0,336.36 1,269.09 2,185 3,134.55 4,151.36 5,185 6,168.18 7,168.18 8,151.36 9,117.73 10,134.55 11,168.18 12,134.55 13,185 14,235.45 15,134.55 16,117.73 17,151.36 18,151.36 19,185 20,353.18 21,151.36 22,117.73 23,117.73 24,201.82 25,168.18 26,319.55 27,319.55 28,235.45 29,117.73 30,235.45 31,151.36 32,218.64 33,117.73 34,151.36 35,201.82 36,218.64 37,117.73 38,134.55 39,117.73 40,134.55 41,151.36 42,168.18 43,269.09 44,151.36 45,168.18 46,117.73 47,218.64 48,151.36 49,134.55 50,185 51,117.73 52,134.55 53,134.55 54,151.36 55,117.73 56,117.73 57,134.55 58,151.36 59,134.55 60,117.73 61,117.73 62,151.36 63,134.55 64,134.55 65,185 66,151.36 67,134.55 69,134.55 70,151.36 71,218.64 72,185 73,218.64 74,117.73 75,201.82 76,134.55 77,117.73 78,201.82 79,269.09 80,117.73 81,117.73 82,134.55 83,117.73 85,117.73 86,134.55 87,117.73 88,151.36 89,336.36 90,168.18 91,117.73 92,117.73 93,151.36 94,100.91 95,151.36 96,117.73 97,117.73 98,100.91 99,117.73 100,117.73 101,218.64 102,134.55 103,134.55 104,151.36 105,134.55 106,117.73 107,117.73 108,134.55 109,117.73 110,100.91 111,117.73 112,117.73 113,201.82 114,134.55 115,117.73 116,100.91 117,100.91 118,117.73 119,151.36 120,117.73 121,100.91 122,117.73 123,117.73 124,134.55 125,134.55 126,117.73 127,185 128,168.18 129,117.73 130,168.18 131,235.45 132,134.55 133,235.45 134,302.73 134.83,370"><title>LR761643.1</title></polygon><rect class="average" height="1" width="134.83" x="0" y="153.76"><title>average:12.86</title></rect><rect class="median" height="1" width="134.83" x="0" y="151.36"><title>median:13</title></rect><text class="chromName" x="67.42" y="-12">LR761643.1<title>LR761643.1 57,541,580 bp</title></text><rect class="frame" height="370" width="134.83" x="0" y="0"/></g><g><line class="ruler" x1="-2" x2="1390" y1="333" y2="333"><title>2</title></line><text class="ruler" x="-5" y="333">2</text><line class="ruler" x1="-2" x2="1390" y1="296" y2="296"><title>4</title></line><text class="ruler" x="-5" y="296">4</text><line class="ruler" x1="-2" x2="1390" y1="259" y2="259"><title>6</title></line><text class="ruler" x="-5" y="259">6</text><line class="ruler" x1="-2" x2="1390" y1="222" y2="222"><title>8</title></line><text class="ruler" x="-5" y="222">8</text><line class="ruler" x1="-2" x2="1390" y1="185" y2="185"><title>11</title></line><text class="ruler" x="-5" y="185">11</text><line class="ruler" x1="-2" x2="1390" y1="148" y2="148"><title>13</title></line><text class="ruler" x="-5" y="148">13</text><line class="ruler" x1="-2" x2="1390" y1="111" y2="111"><title>15</title></line><text class="ruler" x="-5" y="111">15</text><line class="ruler" x1="-2" x2="1390" y1="74" y2="74"><title>17</title></line><text class="ruler" x="-5" y="74">17</text><line class="ruler" x1="-2" x2="1390" y1="37" y2="37"><title>19</title></line><text class="ruler" x="-5" y="37">19</text><line class="ruler" x1="-2" x2="1390" y1="0" y2="0"><title>22</title></line><text class="ruler" x="-5" y="0">22</text></g></g><text class="title" x="795" y="40">F8_M7_24.merged.realigned.bam F8_M7_24 F8_M7_24_1 F8_M7_24_2<title>./F8_M7_24.merged.realigned.bam</title></text><text class="xLabel" x="795" y="475">GCA_902806645.1_cgigas_uk_roslin_v1_genomic.fna  (589,358,857 bp)<title>../ref/GCA_902806645.1_cgigas_uk_roslin_v1_genomic.fna</title></text><text class="yLabel" transform="translate(25,265) rotate(90)" x="0" y="0">Coverage bp (median)</text></g></svg>