<?xml version="1.0" encoding="UTF-8" standalone="no"?><svg height="500" width="1500" xmlns="http://www.w3.org/2000/svg"><title>F8_M8_24.merged.realigned.bam</title><desc>Made with wgscoverageplotter undefined Author: Pierre Lindenbaum</desc><style>g.maing {stroke:black;stroke-width:0.5px;fill:none;}
text.title {stroke:none;fill:black;stroke-width:1px;text-anchor:middle;}
rect.frame {stroke:darkgray;fill:none;stroke-width:0.5px;}
text.ruler {stroke:none;fill:darkgray;stroke-width:1px;text-anchor:end;}
text.chromName {stroke:none;fill:darkgray;stroke-width:1px;text-anchor:middle;}
text.xLabel {stroke:none;fill:black;stroke-width:1px;text-anchor:middle;}
text.yLabel {stroke:none;fill:black;stroke-width:1px;text-anchor:middle;}
.cov0 {stroke:gray;fill:antiquewhite;stroke-width:0.5px;}
.cov1 {stroke:gray;fill:beige;stroke-width:0.5px;}
rect.average {stroke:green;fill:green;stroke-width:0.5px;opacity:0.3;}
rect.median {stroke:red;fill:red;stroke-width:0.5px;opacity:0.3;}
line.ruler {stroke:darkgray;stroke-dasharray:4;fill:none;stroke-width:1;}
</style><g class="maing"><g id="chromosomes" transform="translate(100.0,80.0)"><g id="chrom-LR761634.1" transform="translate(10.0,0)"><polygon class="cov0" points="0,370 0,326.47 1,130.59 2,163.24 3,304.71 4,250.29 5,185 6,293.82 7,206.76 8,163.24 9,130.59 10,152.35 11,119.71 12,152.35 13,250.29 14,282.94 15,141.47 16,130.59 17,195.88 18,141.47 19,130.59 20,130.59 21,141.47 22,152.35 23,163.24 24,163.24 25,119.71 26,130.59 27,130.59 28,141.47 29,130.59 30,141.47 31,141.47 32,272.06 33,130.59 34,141.47 35,152.35 36,119.71 37,185 38,195.88 39,130.59 42,130.59 43,185 44,163.24 45,195.88 46,174.12 47,141.47 48,152.35 49,141.47 50,152.35 51,152.35 52,130.59 53,141.47 54,217.65 55,239.41 56,130.59 57,119.71 58,141.47 59,152.35 60,152.35 61,130.59 62,152.35 63,185 64,185 65,163.24 66,152.35 67,185 68,130.59 69,185 70,130.59 71,130.59 72,217.65 73,174.12 74,152.35 75,130.59 76,141.47 77,185 78,163.24 79,152.35 80,315.59 81,272.06 82,130.59 83,141.47 84,152.35 85,141.47 86,119.71 87,195.88 88,119.71 89,272.06 90,163.24 91,163.24 92,119.71 93,152.35 94,119.71 95,119.71 96,108.82 97,163.24 98,282.94 99,141.47 100,141.47 101,174.12 102,152.35 103,152.35 104,195.88 105,119.71 106,206.76 107,185 108,261.18 109,119.71 110,97.94 111,130.59 112,130.59 113,163.24 114,304.71 115,185 116,108.82 117,119.71 118,108.82 119,152.35 120,217.65 121,130.59 123,130.59 124,141.47 125,119.71 126,130.59 127,141.47 128,185 129,163.24 130,217.65 130.72,370"><title>LR761634.1</title></polygon><rect class="average" height="1" width="130.72" x="0" y="159.98"><title>average:19.3</title></rect><rect class="median" height="1" width="130.72" x="0" y="152.35"><title>median:20</title></rect><text class="chromName" x="65.36" y="-12">LR761634.1<title>LR761634.1 55,785,328 bp</title></text><rect class="frame" height="370" width="130.72" x="0" y="0"/></g><g id="chrom-LR761635.1" transform="translate(141.71753661284166,0)"><polygon class="cov1" points="0,370 0,348.24 1,348.24 2,326.47 3,304.71 4,348.24 5,370 6,239.41 7,304.71 8,304.71 9,228.53 10,228.53 11,272.06 12,228.53 13,141.47 14,206.76 15,239.41 16,293.82 17,250.29 18,261.18 19,228.53 20,239.41 21,282.94 22,272.06 23,239.41 24,304.71 25,348.24 26,304.71 27,337.35 28,272.06 29,348.24 30,337.35 31,326.47 32,228.53 33,239.41 34,206.76 35,239.41 36,272.06 37,337.35 38,348.24 39,195.88 40,217.65 41,261.18 42,163.24 43,250.29 44,141.47 45,174.12 46,195.88 47,163.24 48,250.29 49,195.88 50,250.29 51,337.35 52,272.06 53,250.29 54,293.82 55,282.94 56,359.12 57,272.06 58,152.35 59,282.94 60,282.94 61,250.29 62,141.47 63,228.53 64,239.41 65,239.41 66,304.71 67,272.06 68,250.29 69,272.06 70,282.94 71,228.53 72,228.53 73,206.76 74,239.41 75,206.76 76,348.24 77,0 78,250.29 79,293.82 80,141.47 81,315.59 82,315.59 83,282.94 84,348.24 85,293.82 86,337.35 87,337.35 88,315.59 89,304.71 90,261.18 91,315.59 92,315.59 93,272.06 94,282.94 95,272.06 96,326.47 97,282.94 98,304.71 99,293.82 100,293.82 101,272.06 102,304.71 103,239.41 104,250.29 105,163.24 106,261.18 107,282.94 108,185 109,217.65 110,282.94 111,195.88 112,326.47 113,348.24 114,304.71 115,304.71 116,348.24 117,282.94 118,174.12 119,185 120,141.47 121,206.76 122,250.29 123,250.29 124,261.18 125,152.35 126,239.41 127,304.71 128,206.76 129,250.29 130,163.24 131,272.06 132,217.65 133,293.82 134,304.71 135,282.94 136,315.59 137,326.47 138,304.71 139,282.94 140,315.59 141,293.82 142,239.41 143,315.59 144,250.29 145,217.65 146,282.94 147,119.71 148,174.12 149,141.47 150,195.88 151,282.94 152,326.47 153,228.53 154,304.71 155,282.94 156,272.06 157,239.41 158,293.82 159,152.35 160,217.65 161,261.18 162,282.94 163,261.18 164,185 165,195.88 166,239.41 167,282.94 168,195.88 169,304.71 170,304.71 171,326.47 171.58,370"><title>LR761635.1</title></polygon><rect class="average" height="1" width="171.58" x="0" y="209.97"><title>average:14.71</title></rect><rect class="median" height="1" width="171.58" x="0" y="272.06"><title>median:9</title></rect><text class="chromName" x="85.79" y="-12">LR761635.1<title>LR761635.1 73,222,313 bp</title></text><rect class="frame" height="370" width="171.58" x="0" y="0"/></g><g id="chrom-LR761636.1" transform="translate(314.2938403401308,0)"><polygon class="cov0" points="0,370 0,337.35 1,163.24 2,250.29 3,337.35 4,250.29 5,141.47 6,152.35 7,141.47 8,119.71 9,141.47 10,108.82 11,130.59 12,141.47 13,228.53 14,108.82 15,130.59 16,119.71 17,119.71 18,141.47 19,152.35 20,130.59 21,119.71 22,119.71 23,130.59 24,185 25,130.59 26,185 27,250.29 28,119.71 29,108.82 30,119.71 33,119.71 34,141.47 35,185 36,130.59 37,185 38,152.35 39,130.59 40,152.35 41,163.24 43,163.24 44,130.59 45,152.35 46,174.12 47,141.47 48,217.65 49,152.35 50,163.24 51,130.59 52,130.59 53,141.47 54,293.82 55,163.24 56,163.24 57,130.59 58,152.35 59,141.47 60,163.24 61,228.53 62,163.24 63,141.47 64,141.47 65,152.35 67,152.35 68,163.24 69,141.47 70,195.88 71,119.71 72,130.59 73,185 74,163.24 75,152.35 76,315.59 77,206.76 78,217.65 79,261.18 80,239.41 81,141.47 82,217.65 83,152.35 84,119.71 85,141.47 86,250.29 87,152.35 88,141.47 89,195.88 90,141.47 91,119.71 92,163.24 93,152.35 94,130.59 95,163.24 96,206.76 97,130.59 98,130.59 99,185 100,152.35 101,152.35 102,163.24 103,119.71 104,130.59 105,141.47 107,141.47 108,119.71 109,130.59 110,130.59 111,163.24 112,152.35 113,174.12 114,119.71 115,119.71 116,130.59 117,141.47 118,152.35 119,130.59 120,130.59 121,195.88 122,119.71 123,130.59 124,174.12 125,119.71 126,130.59 127,217.65 128,250.29 129,108.82 130,141.47 132,141.47 133,152.35 134,119.71 135,141.47 136,272.06 136.65,370"><title>LR761636.1</title></polygon><rect class="average" height="1" width="136.65" x="0" y="155.64"><title>average:19.7</title></rect><rect class="median" height="1" width="136.65" x="0" y="152.35"><title>median:20</title></rect><text class="chromName" x="68.33" y="-12">LR761636.1<title>LR761636.1 58,319,100 bp</title></text><rect class="frame" height="370" width="136.65" x="0" y="0"/></g><g id="chrom-LR761637.1" transform="translate(451.9485730949149,0)"><polygon class="cov1" points="0,370 0,359.12 1,282.94 2,293.82 3,293.82 4,217.65 5,185 6,195.88 7,239.41 8,239.41 9,261.18 10,326.47 11,163.24 12,250.29 13,293.82 14,304.71 15,163.24 16,228.53 17,119.71 18,293.82 19,304.71 20,217.65 21,152.35 22,163.24 23,217.65 24,348.24 25,152.35 26,130.59 27,250.29 28,195.88 29,217.65 30,250.29 31,141.47 32,152.35 33,174.12 34,119.71 35,185 36,293.82 37,217.65 38,163.24 39,152.35 40,152.35 41,261.18 42,185 43,293.82 44,315.59 45,163.24 46,141.47 47,130.59 49,130.59 50,174.12 51,130.59 52,108.82 53,174.12 54,119.71 55,141.47 56,163.24 57,217.65 58,282.94 59,304.71 60,315.59 61,228.53 62,141.47 63,152.35 64,141.47 65,152.35 66,152.35 67,163.24 68,185 69,130.59 70,163.24 71,152.35 72,174.12 73,141.47 74,185 75,152.35 76,141.47 77,141.47 78,163.24 79,174.12 80,163.24 81,174.12 82,141.47 83,141.47 84,152.35 85,130.59 86,228.53 87,163.24 88,130.59 89,141.47 90,130.59 91,141.47 92,130.59 93,163.24 94,174.12 95,217.65 96,185 97,152.35 98,119.71 99,119.71 100,239.41 101,272.06 102,261.18 103,272.06 104,282.94 105,282.94 106,119.71 107,108.82 108,119.71 109,119.71 110,108.82 111,152.35 112,130.59 113,119.71 114,272.06 115,195.88 116,174.12 117,152.35 118,141.47 119,315.59 120,163.24 121,119.71 122,272.06 123,337.35 124,315.59 124.49,370"><title>LR761637.1</title></polygon><rect class="average" height="1" width="124.49" x="0" y="180.01"><title>average:17.46</title></rect><rect class="median" height="1" width="124.49" x="0" y="185"><title>median:17</title></rect><text class="chromName" x="62.25" y="-12">LR761637.1<title>LR761637.1 53,127,865 bp</title></text><rect class="frame" height="370" width="124.49" x="0" y="0"/></g><g id="chrom-LR761638.1" transform="translate(577.4390778079033,0)"><polygon class="cov0" points="0,370 0,195.88 1,130.59 2,250.29 3,141.47 4,250.29 5,141.47 6,195.88 7,195.88 8,206.76 9,119.71 10,174.12 11,293.82 12,130.59 13,152.35 14,119.71 15,141.47 16,119.71 17,130.59 18,272.06 19,315.59 20,141.47 21,239.41 22,130.59 23,130.59 24,119.71 25,152.35 26,315.59 27,119.71 28,185 29,326.47 30,261.18 31,152.35 32,370 33,348.24 34,195.88 35,239.41 36,163.24 37,326.47 38,293.82 39,348.24 40,348.24 41,315.59 42,250.29 43,152.35 44,152.35 45,315.59 46,217.65 47,119.71 48,130.59 49,261.18 50,348.24 51,239.41 52,206.76 53,174.12 54,228.53 55,206.76 56,152.35 57,239.41 58,141.47 59,195.88 60,228.53 61,195.88 62,152.35 63,359.12 64,315.59 65,315.59 66,217.65 67,217.65 68,185 69,293.82 70,185 71,337.35 72,348.24 73,282.94 74,261.18 75,337.35 76,337.35 77,217.65 78,348.24 79,304.71 80,315.59 81,174.12 82,326.47 83,337.35 84,315.59 85,195.88 86,141.47 87,174.12 88,315.59 89,152.35 90,272.06 91,163.24 92,119.71 93,119.71 94,141.47 95,206.76 96,326.47 97,217.65 98,228.53 99,195.88 100,174.12 101,152.35 102,228.53 103,174.12 104,250.29 105,261.18 106,250.29 107,163.24 108,228.53 109,185 110,195.88 111,174.12 112,282.94 113,261.18 114,228.53 115,272.06 116,293.82 117,315.59 118,326.47 119,282.94 120,304.71 121,326.47 122,348.24 123,359.12 124,315.59 125,282.94 126,326.47 127,228.53 128,272.06 129,206.76 130,261.18 131,239.41 132,293.82 133,326.47 134,250.29 135,304.71 136,163.24 137,359.12 138,348.24 139,315.59 140,370 141,370 142,293.82 143,282.94 144,163.24 145,174.12 146,304.71 147,130.59 148,141.47 149,163.24 150,185 151,163.24 152,130.59 153,152.35 154,250.29 155,293.82 156,217.65 157,272.06 158,293.82 159,228.53 160,239.41 161,228.53 162,228.53 163,206.76 164,185 165,206.76 166,217.65 167,217.65 168,195.88 169,141.47 170,282.94 172,282.94 172.35,370"><title>LR761638.1</title></polygon><rect class="average" height="1" width="172.35" x="0" y="205.2"><title>average:15.14</title></rect><rect class="median" height="1" width="172.35" x="0" y="239.41"><title>median:12</title></rect><text class="chromName" x="86.17" y="-12">LR761638.1<title>LR761638.1 73,550,375 bp</title></text><rect class="frame" height="370" width="172.35" x="0" y="0"/></g><g id="chrom-LR761639.1" transform="translate(750.784104388203,0)"><polygon class="cov1" points="0,370 0,304.71 1,130.59 2,130.59 3,272.06 4,152.35 5,228.53 6,359.12 7,228.53 8,130.59 9,130.59 10,152.35 11,261.18 12,250.29 13,130.59 14,174.12 15,130.59 16,130.59 17,119.71 18,130.59 19,119.71 20,130.59 21,141.47 22,163.24 23,163.24 24,174.12 25,206.76 26,174.12 27,315.59 28,337.35 29,217.65 30,293.82 31,130.59 32,141.47 33,130.59 34,206.76 35,206.76 36,185 37,141.47 39,141.47 40,217.65 41,130.59 42,141.47 43,119.71 44,152.35 45,130.59 46,163.24 47,141.47 48,130.59 49,163.24 50,152.35 51,130.59 52,195.88 53,152.35 54,152.35 55,141.47 58,141.47 59,130.59 60,130.59 61,141.47 63,141.47 64,119.71 65,130.59 66,163.24 67,141.47 68,141.47 69,185 70,152.35 73,152.35 74,217.65 75,130.59 76,141.47 77,152.35 78,130.59 79,141.47 80,163.24 81,130.59 82,130.59 83,141.47 84,195.88 85,152.35 86,130.59 87,141.47 88,130.59 89,141.47 90,119.71 91,141.47 92,141.47 93,174.12 94,163.24 95,141.47 96,141.47 97,130.59 98,130.59 99,141.47 101,141.47 102,152.35 103,152.35 104,119.71 105,130.59 106,250.29 107,130.59 108,119.71 109,141.47 110,130.59 111,304.71 112,174.12 113,119.71 114,174.12 115,119.71 116,141.47 117,130.59 118,130.59 119,119.71 120,141.47 121,119.71 122,130.59 123,130.59 124,163.24 125,141.47 126,130.59 127,130.59 128,141.47 129,130.59 130,174.12 131,152.35 132,174.12 133,348.24 134,119.71 135,152.35 136,152.35 137,141.47 138,217.65 139,195.88 140,282.94 140.95,370"><title>LR761639.1</title></polygon><rect class="average" height="1" width="140.95" x="0" y="158.99"><title>average:19.39</title></rect><rect class="median" height="1" width="140.95" x="0" y="152.35"><title>median:20</title></rect><text class="chromName" x="70.47" y="-12">LR761639.1<title>LR761639.1 60,151,564 bp</title></text><rect class="frame" height="370" width="140.95" x="0" y="0"/></g><g id="chrom-LR761640.1" transform="translate(892.7327113317651,0)"><polygon class="cov0" points="0,370 0,228.53 1,119.71 2,206.76 3,174.12 4,163.24 5,119.71 6,195.88 7,185 8,130.59 9,163.24 10,130.59 11,130.59 12,108.82 13,272.06 14,174.12 15,130.59 16,217.65 17,141.47 18,119.71 19,195.88 20,130.59 21,141.47 22,130.59 23,119.71 24,130.59 25,152.35 26,119.71 27,130.59 28,141.47 30,141.47 31,152.35 32,130.59 33,130.59 34,152.35 35,130.59 36,130.59 37,206.76 38,119.71 39,152.35 40,119.71 41,130.59 42,108.82 43,119.71 44,130.59 45,141.47 46,141.47 47,228.53 48,261.18 49,119.71 50,141.47 51,130.59 52,119.71 53,152.35 54,130.59 55,130.59 56,119.71 57,185 58,152.35 59,185 60,239.41 61,141.47 62,163.24 63,185 64,141.47 65,293.82 66,141.47 67,152.35 68,152.35 69,185 70,174.12 71,152.35 72,174.12 73,228.53 74,185 75,141.47 76,141.47 77,217.65 78,141.47 79,174.12 80,119.71 81,108.82 82,108.82 83,141.47 84,141.47 85,130.59 86,348.24 87,152.35 88,163.24 89,174.12 90,163.24 91,282.94 92,272.06 93,195.88 94,239.41 95,163.24 96,152.35 97,141.47 98,174.12 99,152.35 100,119.71 101,206.76 102,293.82 103,195.88 104,130.59 105,130.59 106,119.71 107,152.35 108,152.35 109,130.59 110,152.35 111,195.88 112,152.35 113,152.35 114,163.24 115,141.47 116,315.59 117,337.35 118,359.12 119,315.59 120,152.35 121,119.71 122,141.47 124,141.47 125,119.71 126,130.59 127,130.59 128,261.18 129,152.35 130,130.59 131,130.59 132,152.35 133,130.59 134,119.71 135,119.71 136,141.47 137,141.47 138,130.59 139,195.88 140,152.35 141,130.59 142,163.24 143,195.88 144,141.47 145,119.71 145.53,370"><title>LR761640.1</title></polygon><rect class="average" height="1" width="145.53" x="0" y="159.85"><title>average:19.31</title></rect><rect class="median" height="1" width="145.53" x="0" y="152.35"><title>median:20</title></rect><text class="chromName" x="72.77" y="-12">LR761640.1<title>LR761640.1 62,107,823 bp</title></text><rect class="frame" height="370" width="145.53" x="0" y="0"/></g><g id="chrom-LR761641.1" transform="translate(1039.265271917344,0)"><polygon class="cov1" points="0,370 0,304.71 1,163.24 2,239.41 3,195.88 4,185 5,239.41 6,282.94 7,228.53 8,293.82 9,185 10,152.35 11,206.76 12,239.41 13,141.47 14,163.24 15,119.71 16,152.35 17,326.47 18,130.59 19,141.47 20,141.47 21,163.24 22,195.88 23,152.35 24,185 25,152.35 26,239.41 27,217.65 28,250.29 29,282.94 30,239.41 31,185 32,261.18 33,228.53 34,304.71 35,282.94 36,326.47 37,261.18 39,261.18 40,185 41,250.29 42,315.59 43,326.47 44,261.18 45,195.88 46,250.29 47,293.82 48,304.71 49,141.47 50,195.88 51,152.35 52,130.59 54,130.59 55,119.71 56,130.59 57,174.12 59,174.12 60,141.47 61,304.71 62,141.47 63,163.24 64,163.24 65,195.88 66,195.88 67,228.53 68,239.41 69,163.24 70,282.94 71,119.71 72,206.76 73,304.71 74,217.65 75,304.71 76,195.88 77,195.88 78,174.12 79,228.53 80,272.06 81,326.47 83,326.47 84,185 85,163.24 86,228.53 87,119.71 88,185 89,195.88 90,272.06 91,206.76 92,130.59 93,228.53 94,293.82 95,195.88 96,185 97,359.12 98,141.47 99,370 100,293.82 101,141.47 102,163.24 103,119.71 104,185 105,130.59 106,261.18 107,119.71 108,152.35 109,141.47 110,130.59 111,293.82 112,130.59 113,250.29 114,130.59 115,130.59 116,119.71 117,163.24 118,130.59 119,206.76 120,174.12 121,163.24 122,141.47 123,185 124,152.35 125,174.12 126,250.29 127,119.71 128,217.65 129,163.24 130,272.06 131,195.88 132,239.41 133,228.53 134,130.59 135,359.12 136,261.18 136.99,370"><title>LR761641.1</title></polygon><rect class="average" height="1" width="136.99" x="0" y="184.82"><title>average:17.02</title></rect><rect class="median" height="1" width="136.99" x="0" y="206.76"><title>median:15</title></rect><text class="chromName" x="68.5" y="-12">LR761641.1<title>LR761641.1 58,462,999 bp</title></text><rect class="frame" height="370" width="136.99" x="0" y="0"/></g><g id="chrom-LR761642.1" transform="translate(1177.25719230686,0)"><polygon class="cov0" points="0,370 0,348.24 1,337.35 2,359.12 3,304.71 4,337.35 5,348.24 6,326.47 8,326.47 9,261.18 10,282.94 11,250.29 12,272.06 13,130.59 14,163.24 15,174.12 16,261.18 17,261.18 18,282.94 19,217.65 20,217.65 21,163.24 22,293.82 23,261.18 24,163.24 25,130.59 26,185 27,195.88 28,272.06 29,152.35 30,217.65 31,141.47 32,163.24 33,206.76 34,152.35 35,228.53 36,141.47 37,141.47 38,119.71 39,185 40,152.35 41,152.35 42,130.59 43,141.47 44,141.47 45,217.65 46,141.47 47,239.41 48,293.82 49,282.94 50,185 51,195.88 52,228.53 53,130.59 54,130.59 55,185 56,152.35 57,195.88 58,239.41 59,141.47 60,163.24 61,337.35 62,185 63,152.35 64,195.88 65,185 66,174.12 67,282.94 68,217.65 69,163.24 70,185 71,261.18 72,152.35 73,185 74,152.35 75,174.12 76,282.94 77,152.35 78,141.47 79,250.29 80,217.65 81,174.12 82,315.59 83,239.41 84,282.94 85,195.88 86,304.71 86.91,370"><title>LR761642.1</title></polygon><rect class="average" height="1" width="86.91" x="0" y="184.19"><title>average:17.07</title></rect><rect class="median" height="1" width="86.91" x="0" y="206.76"><title>median:15</title></rect><text class="chromName" x="43.45" y="-12">LR761642.1<title>LR761642.1 37,089,910 bp</title></text><rect class="frame" height="370" width="86.91" x="0" y="0"/></g><g id="chrom-LR761643.1" transform="translate(1265.1671710093603,0)"><polygon class="cov1" points="0,370 0,282.94 1,250.29 2,163.24 3,130.59 4,141.47 5,185 6,163.24 7,174.12 8,141.47 9,108.82 10,130.59 11,174.12 12,130.59 13,217.65 14,250.29 15,141.47 16,119.71 17,152.35 18,152.35 19,195.88 20,337.35 21,152.35 22,119.71 23,130.59 24,195.88 25,174.12 26,326.47 27,315.59 28,228.53 29,141.47 30,239.41 31,152.35 32,206.76 33,141.47 34,152.35 35,206.76 36,250.29 37,130.59 38,141.47 39,130.59 40,152.35 41,163.24 42,185 43,282.94 44,174.12 45,185 46,130.59 47,250.29 48,163.24 49,152.35 50,185 51,141.47 52,152.35 53,163.24 54,163.24 55,141.47 57,141.47 58,163.24 59,141.47 60,130.59 61,141.47 62,163.24 63,152.35 64,152.35 65,195.88 66,163.24 67,163.24 68,141.47 69,141.47 70,163.24 71,250.29 72,206.76 73,217.65 74,130.59 75,228.53 76,152.35 77,130.59 78,206.76 79,261.18 80,141.47 81,130.59 82,152.35 83,141.47 84,119.71 85,141.47 86,152.35 87,119.71 88,163.24 89,315.59 90,174.12 91,141.47 92,130.59 93,163.24 94,119.71 95,152.35 96,130.59 98,130.59 99,119.71 100,141.47 101,217.65 102,141.47 103,152.35 104,163.24 105,152.35 106,130.59 107,130.59 108,141.47 109,130.59 111,130.59 112,141.47 113,217.65 114,152.35 115,141.47 116,108.82 117,119.71 118,119.71 119,163.24 120,130.59 121,119.71 123,119.71 124,141.47 125,130.59 126,119.71 127,174.12 128,163.24 129,119.71 130,163.24 131,228.53 132,119.71 133,217.65 134,315.59 134.83,370"><title>LR761643.1</title></polygon><rect class="average" height="1" width="134.83" x="0" y="165.34"><title>average:18.81</title></rect><rect class="median" height="1" width="134.83" x="0" y="152.35"><title>median:20</title></rect><text class="chromName" x="67.42" y="-12">LR761643.1<title>LR761643.1 57,541,580 bp</title></text><rect class="frame" height="370" width="134.83" x="0" y="0"/></g><g><line class="ruler" x1="-2" x2="1390" y1="333" y2="333"><title>3</title></line><text class="ruler" x="-5" y="333">3</text><line class="ruler" x1="-2" x2="1390" y1="296" y2="296"><title>6</title></line><text class="ruler" x="-5" y="296">6</text><line class="ruler" x1="-2" x2="1390" y1="259" y2="259"><title>10</title></line><text class="ruler" x="-5" y="259">10</text><line class="ruler" x1="-2" x2="1390" y1="222" y2="222"><title>13</title></line><text class="ruler" x="-5" y="222">13</text><line class="ruler" x1="-2" x2="1390" y1="185" y2="185"><title>17</title></line><text class="ruler" x="-5" y="185">17</text><line class="ruler" x1="-2" x2="1390" y1="148" y2="148"><title>20</title></line><text class="ruler" x="-5" y="148">20</text><line class="ruler" x1="-2" x2="1390" y1="111" y2="111"><title>23</title></line><text class="ruler" x="-5" y="111">23</text><line class="ruler" x1="-2" x2="1390" y1="74" y2="74"><title>27</title></line><text class="ruler" x="-5" y="74">27</text><line class="ruler" x1="-2" x2="1390" y1="37" y2="37"><title>30</title></line><text class="ruler" x="-5" y="37">30</text><line class="ruler" x1="-2" x2="1390" y1="0" y2="0"><title>34</title></line><text class="ruler" x="-5" y="0">34</text></g></g><text class="title" x="795" y="40">F8_M8_24.merged.realigned.bam F8_M8_24 F8_M8_24_1 F8_M8_24_2<title>./F8_M8_24.merged.realigned.bam</title></text><text class="xLabel" x="795" y="475">GCA_902806645.1_cgigas_uk_roslin_v1_genomic.fna  (589,358,857 bp)<title>../ref/GCA_902806645.1_cgigas_uk_roslin_v1_genomic.fna</title></text><text class="yLabel" transform="translate(25,265) rotate(90)" x="0" y="0">Coverage bp (median)</text></g></svg>