<?xml version="1.0" encoding="UTF-8" standalone="no"?><svg height="500" width="1500" xmlns="http://www.w3.org/2000/svg"><title>F9_M7_14.merged.realigned.bam</title><desc>Made with wgscoverageplotter undefined Author: Pierre Lindenbaum</desc><style>g.maing {stroke:black;stroke-width:0.5px;fill:none;}
text.title {stroke:none;fill:black;stroke-width:1px;text-anchor:middle;}
rect.frame {stroke:darkgray;fill:none;stroke-width:0.5px;}
text.ruler {stroke:none;fill:darkgray;stroke-width:1px;text-anchor:end;}
text.chromName {stroke:none;fill:darkgray;stroke-width:1px;text-anchor:middle;}
text.xLabel {stroke:none;fill:black;stroke-width:1px;text-anchor:middle;}
text.yLabel {stroke:none;fill:black;stroke-width:1px;text-anchor:middle;}
.cov0 {stroke:gray;fill:antiquewhite;stroke-width:0.5px;}
.cov1 {stroke:gray;fill:beige;stroke-width:0.5px;}
rect.average {stroke:green;fill:green;stroke-width:0.5px;opacity:0.3;}
rect.median {stroke:red;fill:red;stroke-width:0.5px;opacity:0.3;}
line.ruler {stroke:darkgray;stroke-dasharray:4;fill:none;stroke-width:1;}
</style><g class="maing"><g id="chromosomes" transform="translate(100.0,80.0)"><g id="chrom-LR761634.1" transform="translate(10.0,0)"><polygon class="cov0" points="0,370 0,308.33 1,138.75 2,169.58 3,308.33 4,231.25 5,185 6,277.5 7,200.42 8,169.58 9,138.75 10,154.17 11,123.33 12,154.17 13,246.67 14,277.5 15,154.17 16,138.75 17,185 18,154.17 19,138.75 20,138.75 21,154.17 22,169.58 23,169.58 24,185 25,138.75 31,138.75 32,277.5 33,138.75 34,154.17 35,154.17 36,123.33 37,185 38,200.42 39,154.17 40,138.75 42,138.75 43,185 44,169.58 45,200.42 46,185 47,154.17 48,154.17 49,138.75 50,154.17 51,154.17 52,138.75 53,154.17 54,215.83 55,231.25 56,123.33 57,123.33 58,138.75 59,154.17 60,154.17 61,123.33 62,154.17 63,185 64,200.42 65,185 66,154.17 67,200.42 68,138.75 69,215.83 70,138.75 71,138.75 72,200.42 73,185 74,154.17 75,138.75 76,138.75 77,185 78,169.58 79,154.17 80,308.33 81,262.08 82,138.75 83,138.75 84,154.17 85,154.17 86,123.33 87,200.42 88,138.75 89,277.5 90,169.58 91,169.58 92,138.75 93,169.58 94,138.75 95,138.75 96,123.33 97,169.58 98,308.33 99,154.17 100,154.17 101,200.42 102,154.17 103,169.58 104,169.58 105,123.33 106,215.83 107,200.42 108,277.5 109,123.33 110,123.33 111,154.17 112,138.75 113,185 114,292.92 115,200.42 116,123.33 117,138.75 118,123.33 119,169.58 120,200.42 121,138.75 122,154.17 123,138.75 124,154.17 125,138.75 126,154.17 127,154.17 128,200.42 129,185 130,215.83 130.72,370"><title>LR761634.1</title></polygon><rect class="average" height="1" width="130.72" x="0" y="164.27"><title>average:13.34</title></rect><rect class="median" height="1" width="130.72" x="0" y="169.58"><title>median:13</title></rect><text class="chromName" x="65.36" y="-12">LR761634.1<title>LR761634.1 55,785,328 bp</title></text><rect class="frame" height="370" width="130.72" x="0" y="0"/></g><g id="chrom-LR761635.1" transform="translate(141.71753661284166,0)"><polygon class="cov1" points="0,370 0,339.17 1,354.58 2,323.75 3,292.92 4,354.58 5,370 6,246.67 7,323.75 8,308.33 9,231.25 10,277.5 11,308.33 12,308.33 13,169.58 14,231.25 15,246.67 16,292.92 17,231.25 18,277.5 19,231.25 20,277.5 21,277.5 22,292.92 23,292.92 24,308.33 26,308.33 27,339.17 28,323.75 29,323.75 30,339.17 31,308.33 32,231.25 33,231.25 34,200.42 35,231.25 36,262.08 37,339.17 38,323.75 39,185 40,200.42 41,246.67 42,169.58 43,277.5 44,107.92 45,169.58 46,215.83 47,185 48,200.42 49,169.58 50,215.83 51,277.5 52,231.25 53,277.5 54,292.92 55,246.67 56,277.5 57,277.5 58,185 59,277.5 60,339.17 61,277.5 62,169.58 63,292.92 64,292.92 65,246.67 66,277.5 67,262.08 68,277.5 69,277.5 70,231.25 71,246.67 72,262.08 73,215.83 74,246.67 75,246.67 76,308.33 77,15.42 78,246.67 79,277.5 80,154.17 81,339.17 82,339.17 83,292.92 84,339.17 85,308.33 86,354.58 89,354.58 90,339.17 91,308.33 92,323.75 93,277.5 94,292.92 95,292.92 96,323.75 97,292.92 98,323.75 99,292.92 100,323.75 102,323.75 103,215.83 104,231.25 105,200.42 106,277.5 107,262.08 108,185 109,215.83 110,308.33 111,200.42 112,339.17 113,339.17 114,308.33 115,308.33 116,323.75 117,277.5 118,185 119,200.42 120,154.17 121,215.83 122,262.08 123,246.67 124,246.67 125,154.17 126,262.08 127,292.92 128,215.83 129,231.25 130,169.58 131,277.5 132,215.83 133,277.5 134,292.92 135,292.92 136,323.75 137,339.17 138,308.33 139,246.67 140,339.17 141,308.33 142,277.5 143,308.33 144,277.5 145,215.83 146,292.92 147,138.75 148,185 149,138.75 150,200.42 151,277.5 152,339.17 153,231.25 154,292.92 155,215.83 156,246.67 157,231.25 158,277.5 159,169.58 160,262.08 161,246.67 162,277.5 163,215.83 164,185 165,231.25 166,262.08 167,292.92 168,215.83 169,277.5 170,292.92 171,323.75 171.58,370"><title>LR761635.1</title></polygon><rect class="average" height="1" width="171.58" x="0" y="215.67"><title>average:10.01</title></rect><rect class="median" height="1" width="171.58" x="0" y="277.5"><title>median:6</title></rect><text class="chromName" x="85.79" y="-12">LR761635.1<title>LR761635.1 73,222,313 bp</title></text><rect class="frame" height="370" width="171.58" x="0" y="0"/></g><g id="chrom-LR761636.1" transform="translate(314.2938403401308,0)"><polygon class="cov0" points="0,370 0,339.17 1,169.58 2,262.08 3,308.33 4,246.67 5,154.17 6,169.58 7,169.58 8,123.33 9,154.17 10,123.33 11,138.75 12,154.17 13,246.67 14,123.33 15,154.17 16,138.75 17,123.33 18,154.17 19,169.58 20,138.75 23,138.75 24,200.42 25,138.75 26,215.83 27,262.08 28,123.33 31,123.33 32,107.92 33,138.75 34,154.17 35,215.83 36,154.17 37,185 38,154.17 39,138.75 40,169.58 42,169.58 43,154.17 44,138.75 45,154.17 46,185 47,154.17 48,200.42 49,154.17 50,169.58 51,138.75 53,138.75 54,246.67 55,169.58 56,169.58 57,138.75 58,169.58 59,138.75 60,169.58 61,231.25 62,169.58 63,138.75 64,138.75 65,169.58 66,154.17 67,169.58 68,169.58 69,154.17 70,200.42 71,123.33 72,123.33 73,185 74,169.58 75,169.58 76,308.33 77,215.83 78,231.25 79,262.08 80,246.67 81,154.17 82,231.25 83,154.17 84,123.33 85,154.17 86,246.67 87,154.17 88,138.75 89,215.83 90,154.17 91,123.33 92,169.58 93,154.17 94,138.75 95,169.58 96,185 97,138.75 98,138.75 99,185 100,154.17 101,138.75 102,154.17 103,107.92 104,138.75 110,138.75 111,169.58 112,154.17 113,169.58 114,123.33 116,123.33 117,138.75 118,169.58 119,138.75 120,138.75 121,215.83 122,138.75 123,138.75 124,185 125,138.75 126,138.75 127,200.42 128,246.67 129,123.33 130,154.17 131,169.58 132,169.58 133,154.17 134,123.33 135,154.17 136,262.08 136.65,370"><title>LR761636.1</title></polygon><rect class="average" height="1" width="136.65" x="0" y="160.54"><title>average:13.59</title></rect><rect class="median" height="1" width="136.65" x="0" y="154.17"><title>median:14</title></rect><text class="chromName" x="68.33" y="-12">LR761636.1<title>LR761636.1 58,319,100 bp</title></text><rect class="frame" height="370" width="136.65" x="0" y="0"/></g><g id="chrom-LR761637.1" transform="translate(451.9485730949149,0)"><polygon class="cov1" points="0,370 0,354.58 1,292.92 2,308.33 3,308.33 4,231.25 5,185 6,185 7,246.67 8,277.5 9,277.5 10,323.75 11,169.58 12,231.25 13,308.33 14,308.33 15,169.58 16,231.25 17,123.33 18,292.92 19,308.33 20,262.08 21,154.17 22,154.17 23,231.25 24,308.33 25,169.58 26,154.17 27,231.25 28,231.25 29,246.67 30,262.08 31,154.17 32,169.58 33,154.17 34,123.33 35,200.42 36,277.5 37,262.08 38,169.58 39,154.17 40,154.17 41,262.08 42,200.42 43,292.92 44,323.75 45,185 46,154.17 47,138.75 49,138.75 50,185 51,138.75 52,123.33 53,185 54,123.33 55,154.17 56,169.58 57,231.25 58,277.5 59,308.33 60,308.33 61,231.25 62,138.75 63,154.17 64,138.75 65,169.58 66,154.17 67,169.58 68,185 69,138.75 70,169.58 71,154.17 72,200.42 73,154.17 74,169.58 75,154.17 76,154.17 77,169.58 78,185 79,200.42 80,169.58 81,169.58 82,138.75 83,154.17 84,169.58 85,138.75 86,215.83 87,169.58 88,138.75 89,154.17 90,138.75 92,138.75 93,169.58 94,200.42 95,231.25 96,185 97,138.75 98,123.33 99,123.33 100,292.92 101,323.75 102,292.92 103,323.75 104,323.75 105,246.67 106,138.75 107,123.33 108,123.33 109,138.75 110,123.33 111,169.58 112,154.17 113,123.33 114,262.08 115,215.83 116,185 117,169.58 118,154.17 119,308.33 120,169.58 121,138.75 122,339.17 123,339.17 124,308.33 124.49,370"><title>LR761637.1</title></polygon><rect class="average" height="1" width="124.49" x="0" y="185.27"><title>average:11.98</title></rect><rect class="median" height="1" width="124.49" x="0" y="185"><title>median:12</title></rect><text class="chromName" x="62.25" y="-12">LR761637.1<title>LR761637.1 53,127,865 bp</title></text><rect class="frame" height="370" width="124.49" x="0" y="0"/></g><g id="chrom-LR761638.1" transform="translate(577.4390778079033,0)"><polygon class="cov0" points="0,370 0,154.17 1,46.25 2,262.08 3,154.17 4,231.25 5,154.17 6,200.42 7,215.83 8,200.42 9,123.33 10,154.17 11,292.92 12,138.75 13,169.58 14,123.33 15,154.17 16,138.75 17,138.75 18,277.5 19,323.75 20,154.17 21,200.42 22,138.75 24,138.75 25,185 26,323.75 27,123.33 28,200.42 29,308.33 30,246.67 31,154.17 32,370 33,354.58 34,200.42 35,231.25 36,169.58 37,323.75 38,308.33 39,354.58 40,339.17 41,323.75 42,262.08 43,169.58 44,169.58 45,277.5 46,215.83 47,123.33 48,138.75 49,246.67 50,354.58 51,246.67 52,200.42 53,185 54,246.67 55,231.25 56,169.58 57,246.67 58,154.17 59,215.83 60,215.83 61,246.67 62,169.58 63,354.58 64,292.92 65,308.33 66,185 67,231.25 68,200.42 69,323.75 70,185 71,339.17 72,354.58 73,292.92 74,262.08 75,339.17 76,339.17 77,231.25 78,354.58 79,277.5 80,277.5 81,185 82,323.75 83,339.17 84,308.33 85,200.42 86,138.75 87,185 88,323.75 89,154.17 90,262.08 91,169.58 92,123.33 93,123.33 94,154.17 95,215.83 96,323.75 97,185 98,262.08 99,200.42 100,185 101,169.58 102,215.83 103,169.58 104,231.25 105,246.67 106,262.08 107,154.17 108,215.83 109,169.58 110,185 111,185 112,277.5 113,262.08 114,200.42 115,277.5 116,292.92 117,323.75 118,323.75 119,277.5 120,308.33 121,323.75 122,354.58 123,370 124,308.33 125,292.92 126,323.75 127,231.25 128,262.08 129,215.83 130,262.08 131,246.67 132,292.92 133,308.33 134,262.08 135,308.33 136,169.58 137,370 138,354.58 139,308.33 140,370 141,354.58 142,292.92 143,277.5 144,169.58 145,200.42 146,262.08 147,138.75 148,154.17 149,169.58 150,200.42 151,215.83 152,154.17 153,154.17 154,231.25 155,292.92 156,215.83 157,277.5 158,262.08 159,277.5 160,292.92 161,277.5 162,262.08 163,262.08 164,246.67 165,277.5 166,262.08 167,277.5 168,262.08 169,200.42 170,277.5 171,277.5 172,262.08 172.35,370"><title>LR761638.1</title></polygon><rect class="average" height="1" width="172.35" x="0" y="207.51"><title>average:10.54</title></rect><rect class="median" height="1" width="172.35" x="0" y="246.67"><title>median:8</title></rect><text class="chromName" x="86.17" y="-12">LR761638.1<title>LR761638.1 73,550,375 bp</title></text><rect class="frame" height="370" width="172.35" x="0" y="0"/></g><g id="chrom-LR761639.1" transform="translate(750.784104388203,0)"><polygon class="cov1" points="0,370 0,323.75 1,154.17 2,154.17 3,277.5 4,154.17 5,246.67 6,354.58 7,277.5 8,154.17 9,138.75 10,154.17 11,262.08 12,246.67 13,138.75 14,185 15,138.75 18,138.75 19,123.33 20,138.75 21,138.75 22,169.58 23,169.58 24,185 25,215.83 26,185 27,308.33 28,323.75 29,200.42 30,277.5 31,138.75 32,169.58 33,123.33 34,215.83 35,215.83 36,231.25 37,138.75 39,138.75 40,200.42 41,123.33 42,154.17 43,123.33 44,169.58 45,138.75 46,169.58 47,154.17 48,138.75 49,169.58 50,169.58 51,138.75 52,200.42 53,154.17 54,169.58 55,138.75 56,138.75 57,154.17 58,154.17 59,138.75 61,138.75 62,154.17 63,154.17 64,123.33 65,138.75 66,169.58 67,154.17 68,138.75 69,200.42 70,154.17 73,154.17 74,231.25 75,138.75 76,154.17 77,154.17 78,138.75 79,154.17 80,169.58 81,123.33 82,138.75 83,138.75 84,215.83 85,154.17 86,138.75 89,138.75 90,123.33 91,154.17 92,154.17 93,169.58 94,169.58 95,138.75 97,138.75 98,123.33 99,138.75 102,138.75 103,154.17 104,123.33 105,123.33 106,246.67 107,138.75 108,123.33 109,138.75 110,138.75 111,246.67 112,154.17 113,123.33 114,185 115,123.33 116,169.58 117,138.75 118,138.75 119,123.33 120,169.58 121,123.33 122,138.75 123,138.75 124,169.58 125,154.17 126,154.17 127,138.75 128,154.17 129,138.75 130,185 131,169.58 132,185 133,339.17 134,138.75 135,138.75 136,169.58 137,169.58 138,231.25 139,200.42 140,292.92 140.95,370"><title>LR761639.1</title></polygon><rect class="average" height="1" width="140.95" x="0" y="161.85"><title>average:13.5</title></rect><rect class="median" height="1" width="140.95" x="0" y="154.17"><title>median:14</title></rect><text class="chromName" x="70.47" y="-12">LR761639.1<title>LR761639.1 60,151,564 bp</title></text><rect class="frame" height="370" width="140.95" x="0" y="0"/></g><g id="chrom-LR761640.1" transform="translate(892.7327113317651,0)"><polygon class="cov0" points="0,370 0,215.83 1,138.75 2,215.83 3,185 4,169.58 5,138.75 6,200.42 7,185 8,138.75 9,185 10,138.75 11,138.75 12,107.92 13,277.5 14,185 15,154.17 16,246.67 17,154.17 18,138.75 19,200.42 20,138.75 21,154.17 22,138.75 23,123.33 24,154.17 25,169.58 26,123.33 27,138.75 28,154.17 29,138.75 30,138.75 31,154.17 32,138.75 33,138.75 34,154.17 35,138.75 36,154.17 37,215.83 38,123.33 39,169.58 40,123.33 41,138.75 42,92.5 43,123.33 44,138.75 45,154.17 46,154.17 47,246.67 48,323.75 49,138.75 50,154.17 51,154.17 52,123.33 53,154.17 54,123.33 55,138.75 56,123.33 57,200.42 58,154.17 59,185 60,262.08 61,138.75 62,154.17 63,185 64,138.75 65,277.5 66,138.75 67,154.17 68,154.17 69,185 70,185 71,154.17 72,185 73,231.25 74,200.42 75,138.75 76,138.75 77,231.25 78,138.75 79,169.58 80,107.92 82,107.92 83,154.17 84,138.75 85,123.33 86,354.58 87,154.17 88,169.58 90,169.58 91,262.08 92,262.08 93,185 94,231.25 95,169.58 96,154.17 98,154.17 99,138.75 100,123.33 101,200.42 102,339.17 103,246.67 104,138.75 106,138.75 107,185 108,200.42 109,138.75 110,169.58 111,200.42 112,154.17 113,154.17 114,185 115,138.75 116,292.92 117,339.17 118,354.58 119,323.75 120,154.17 121,123.33 122,154.17 123,138.75 124,154.17 125,123.33 126,138.75 127,138.75 128,246.67 129,154.17 130,138.75 131,123.33 132,154.17 133,138.75 134,123.33 135,107.92 136,138.75 137,154.17 138,138.75 139,200.42 140,154.17 141,138.75 142,169.58 143,200.42 144,138.75 145,123.33 145.53,370"><title>LR761640.1</title></polygon><rect class="average" height="1" width="145.53" x="0" y="163.63"><title>average:13.39</title></rect><rect class="median" height="1" width="145.53" x="0" y="154.17"><title>median:14</title></rect><text class="chromName" x="72.77" y="-12">LR761640.1<title>LR761640.1 62,107,823 bp</title></text><rect class="frame" height="370" width="145.53" x="0" y="0"/></g><g id="chrom-LR761641.1" transform="translate(1039.265271917344,0)"><polygon class="cov1" points="0,370 0,323.75 1,185 2,246.67 3,200.42 4,231.25 5,231.25 6,277.5 7,246.67 8,262.08 9,185 10,154.17 11,231.25 12,215.83 13,154.17 14,169.58 15,138.75 16,154.17 17,246.67 18,123.33 19,154.17 20,154.17 21,169.58 22,231.25 23,169.58 24,185 25,185 26,246.67 27,215.83 28,246.67 29,262.08 30,246.67 31,200.42 32,262.08 33,231.25 34,308.33 35,277.5 36,339.17 37,277.5 38,246.67 39,262.08 40,215.83 41,246.67 42,308.33 43,323.75 44,262.08 45,215.83 46,246.67 47,277.5 48,292.92 49,154.17 50,185 51,154.17 52,138.75 54,138.75 55,123.33 56,138.75 57,185 59,185 60,154.17 61,308.33 62,154.17 63,169.58 64,185 65,200.42 66,215.83 67,231.25 68,246.67 69,169.58 70,292.92 71,138.75 72,200.42 73,292.92 74,231.25 75,292.92 76,200.42 77,215.83 78,200.42 79,185 80,277.5 81,339.17 82,339.17 83,308.33 84,185 85,169.58 86,231.25 87,138.75 88,200.42 89,200.42 90,262.08 91,246.67 92,138.75 93,246.67 94,277.5 95,200.42 96,169.58 97,354.58 98,154.17 99,370 100,262.08 101,154.17 102,169.58 103,123.33 104,185 105,138.75 106,262.08 107,138.75 108,154.17 109,154.17 110,138.75 111,308.33 112,154.17 113,262.08 114,154.17 115,154.17 116,123.33 117,185 118,138.75 119,200.42 120,185 121,169.58 122,138.75 123,185 124,154.17 125,185 126,246.67 127,123.33 128,215.83 129,169.58 130,277.5 131,169.58 132,246.67 133,231.25 134,154.17 135,354.58 136,292.92 136.99,370"><title>LR761641.1</title></polygon><rect class="average" height="1" width="136.99" x="0" y="188.2"><title>average:11.79</title></rect><rect class="median" height="1" width="136.99" x="0" y="215.83"><title>median:10</title></rect><text class="chromName" x="68.5" y="-12">LR761641.1<title>LR761641.1 58,462,999 bp</title></text><rect class="frame" height="370" width="136.99" x="0" y="0"/></g><g id="chrom-LR761642.1" transform="translate(1177.25719230686,0)"><polygon class="cov0" points="0,370 0,323.75 1,292.92 2,323.75 3,246.67 4,292.92 5,308.33 6,292.92 7,277.5 8,308.33 9,277.5 10,292.92 11,231.25 12,277.5 13,138.75 14,200.42 15,215.83 16,262.08 17,277.5 18,292.92 19,215.83 20,185 21,169.58 22,308.33 23,231.25 24,169.58 25,138.75 26,169.58 27,200.42 28,262.08 29,169.58 30,231.25 31,154.17 32,154.17 33,215.83 34,169.58 35,262.08 36,138.75 37,154.17 38,123.33 39,200.42 40,154.17 41,169.58 42,138.75 43,154.17 44,138.75 45,200.42 46,154.17 47,246.67 48,246.67 49,262.08 50,200.42 51,185 52,215.83 53,138.75 54,138.75 55,200.42 56,169.58 57,200.42 58,246.67 59,154.17 60,169.58 61,339.17 62,200.42 63,169.58 64,215.83 65,185 66,185 67,308.33 68,215.83 69,169.58 70,185 71,262.08 72,154.17 73,200.42 74,154.17 75,185 76,277.5 77,169.58 78,138.75 79,231.25 80,231.25 81,200.42 82,308.33 83,246.67 84,292.92 85,185 86,308.33 86.91,370"><title>LR761642.1</title></polygon><rect class="average" height="1" width="86.91" x="0" y="179.98"><title>average:12.33</title></rect><rect class="median" height="1" width="86.91" x="0" y="215.83"><title>median:10</title></rect><text class="chromName" x="43.45" y="-12">LR761642.1<title>LR761642.1 37,089,910 bp</title></text><rect class="frame" height="370" width="86.91" x="0" y="0"/></g><g id="chrom-LR761643.1" transform="translate(1265.1671710093603,0)"><polygon class="cov1" points="0,370 0,339.17 1,277.5 2,185 3,138.75 4,169.58 5,200.42 6,169.58 7,185 8,154.17 9,123.33 10,138.75 11,185 12,138.75 13,200.42 14,246.67 15,154.17 16,138.75 17,169.58 18,154.17 19,200.42 20,354.58 21,169.58 22,138.75 23,138.75 24,215.83 25,185 26,323.75 27,323.75 28,246.67 29,138.75 30,246.67 31,169.58 32,246.67 33,138.75 34,169.58 35,215.83 36,231.25 37,138.75 38,154.17 39,123.33 40,154.17 41,169.58 42,185 43,292.92 44,169.58 45,185 46,138.75 47,231.25 48,169.58 49,154.17 50,200.42 51,154.17 53,154.17 54,169.58 55,154.17 56,138.75 57,138.75 58,169.58 59,138.75 60,123.33 61,138.75 62,169.58 63,154.17 64,154.17 65,200.42 66,169.58 67,154.17 69,154.17 70,169.58 71,246.67 72,200.42 73,215.83 74,138.75 75,215.83 76,154.17 77,123.33 78,215.83 79,277.5 80,138.75 81,123.33 82,154.17 83,138.75 85,138.75 86,154.17 87,123.33 88,169.58 89,339.17 90,169.58 91,138.75 92,123.33 93,154.17 94,123.33 95,154.17 96,123.33 97,138.75 98,123.33 99,123.33 100,138.75 101,231.25 102,138.75 103,154.17 104,154.17 105,138.75 106,123.33 107,138.75 108,154.17 109,123.33 110,123.33 111,138.75 112,138.75 113,200.42 114,154.17 115,138.75 116,107.92 117,123.33 118,138.75 119,169.58 120,138.75 121,123.33 122,138.75 123,123.33 124,154.17 125,138.75 126,123.33 127,185 128,169.58 129,138.75 130,169.58 131,246.67 132,138.75 133,231.25 134,308.33 134.83,370"><title>LR761643.1</title></polygon><rect class="average" height="1" width="134.83" x="0" y="168.14"><title>average:13.09</title></rect><rect class="median" height="1" width="134.83" x="0" y="169.58"><title>median:13</title></rect><text class="chromName" x="67.42" y="-12">LR761643.1<title>LR761643.1 57,541,580 bp</title></text><rect class="frame" height="370" width="134.83" x="0" y="0"/></g><g><line class="ruler" x1="-2" x2="1390" y1="333" y2="333"><title>2</title></line><text class="ruler" x="-5" y="333">2</text><line class="ruler" x1="-2" x2="1390" y1="296" y2="296"><title>4</title></line><text class="ruler" x="-5" y="296">4</text><line class="ruler" x1="-2" x2="1390" y1="259" y2="259"><title>7</title></line><text class="ruler" x="-5" y="259">7</text><line class="ruler" x1="-2" x2="1390" y1="222" y2="222"><title>9</title></line><text class="ruler" x="-5" y="222">9</text><line class="ruler" x1="-2" x2="1390" y1="185" y2="185"><title>12</title></line><text class="ruler" x="-5" y="185">12</text><line class="ruler" x1="-2" x2="1390" y1="148" y2="148"><title>14</title></line><text class="ruler" x="-5" y="148">14</text><line class="ruler" x1="-2" x2="1390" y1="111" y2="111"><title>16</title></line><text class="ruler" x="-5" y="111">16</text><line class="ruler" x1="-2" x2="1390" y1="74" y2="74"><title>19</title></line><text class="ruler" x="-5" y="74">19</text><line class="ruler" x1="-2" x2="1390" y1="37" y2="37"><title>21</title></line><text class="ruler" x="-5" y="37">21</text><line class="ruler" x1="-2" x2="1390" y1="0" y2="0"><title>24</title></line><text class="ruler" x="-5" y="0">24</text></g></g><text class="title" x="795" y="40">F9_M7_14.merged.realigned.bam F9_M7_14 F9_M7_14_1 F9_M7_14_2<title>./F9_M7_14.merged.realigned.bam</title></text><text class="xLabel" x="795" y="475">GCA_902806645.1_cgigas_uk_roslin_v1_genomic.fna  (589,358,857 bp)<title>../ref/GCA_902806645.1_cgigas_uk_roslin_v1_genomic.fna</title></text><text class="yLabel" transform="translate(25,265) rotate(90)" x="0" y="0">Coverage bp (median)</text></g></svg>