<?xml version="1.0" encoding="UTF-8" standalone="no"?><svg height="500" width="1500" xmlns="http://www.w3.org/2000/svg"><title>F9_M7_24.merged.realigned.bam</title><desc>Made with wgscoverageplotter undefined Author: Pierre Lindenbaum</desc><style>g.maing {stroke:black;stroke-width:0.5px;fill:none;}
text.title {stroke:none;fill:black;stroke-width:1px;text-anchor:middle;}
rect.frame {stroke:darkgray;fill:none;stroke-width:0.5px;}
text.ruler {stroke:none;fill:darkgray;stroke-width:1px;text-anchor:end;}
text.chromName {stroke:none;fill:darkgray;stroke-width:1px;text-anchor:middle;}
text.xLabel {stroke:none;fill:black;stroke-width:1px;text-anchor:middle;}
text.yLabel {stroke:none;fill:black;stroke-width:1px;text-anchor:middle;}
.cov0 {stroke:gray;fill:antiquewhite;stroke-width:0.5px;}
.cov1 {stroke:gray;fill:beige;stroke-width:0.5px;}
rect.average {stroke:green;fill:green;stroke-width:0.5px;opacity:0.3;}
rect.median {stroke:red;fill:red;stroke-width:0.5px;opacity:0.3;}
line.ruler {stroke:darkgray;stroke-dasharray:4;fill:none;stroke-width:1;}
</style><g class="maing"><g id="chromosomes" transform="translate(100.0,80.0)"><g id="chrom-LR761634.1" transform="translate(10.0,0)"><polygon class="cov0" points="0,370 0,298.85 1,128.08 2,170.77 3,298.85 4,199.23 5,170.77 6,284.62 7,199.23 8,156.54 9,128.08 10,156.54 11,128.08 12,156.54 13,227.69 14,241.92 15,142.31 16,128.08 17,199.23 18,128.08 19,142.31 20,128.08 21,128.08 22,142.31 23,156.54 24,170.77 25,128.08 27,128.08 28,142.31 29,128.08 30,128.08 31,142.31 32,256.15 33,128.08 34,142.31 35,142.31 36,113.85 37,185 38,199.23 39,142.31 40,128.08 42,128.08 43,170.77 44,142.31 45,185 46,185 47,142.31 48,142.31 49,156.54 50,156.54 51,128.08 52,128.08 53,142.31 54,156.54 55,156.54 56,99.62 57,113.85 58,128.08 59,142.31 60,156.54 61,113.85 62,156.54 63,170.77 64,227.69 65,170.77 66,142.31 67,185 68,128.08 69,199.23 70,142.31 71,128.08 72,213.46 73,185 74,142.31 75,128.08 76,142.31 77,199.23 78,185 79,142.31 80,313.08 81,270.38 82,128.08 83,142.31 84,156.54 85,142.31 86,113.85 87,199.23 88,128.08 89,270.38 90,156.54 91,156.54 92,128.08 93,156.54 94,128.08 95,128.08 96,113.85 97,185 98,270.38 99,128.08 100,142.31 101,170.77 102,142.31 103,170.77 104,170.77 105,128.08 106,213.46 107,185 108,270.38 109,113.85 110,113.85 111,156.54 112,128.08 113,185 114,270.38 115,199.23 116,113.85 117,128.08 118,113.85 119,170.77 120,227.69 121,128.08 122,156.54 123,128.08 124,156.54 125,142.31 126,142.31 127,156.54 128,199.23 129,199.23 130,227.69 130.72,370"><title>LR761634.1</title></polygon><rect class="average" height="1" width="130.72" x="0" y="156.37"><title>average:15.01</title></rect><rect class="median" height="1" width="130.72" x="0" y="156.54"><title>median:15</title></rect><text class="chromName" x="65.36" y="-12">LR761634.1<title>LR761634.1 55,785,328 bp</title></text><rect class="frame" height="370" width="130.72" x="0" y="0"/></g><g id="chrom-LR761635.1" transform="translate(141.71753661284166,0)"><polygon class="cov1" points="0,370 0,327.31 1,355.77 2,313.08 3,298.85 4,355.77 5,341.54 6,256.15 7,284.62 8,298.85 9,185 10,227.69 11,284.62 12,241.92 13,185 14,241.92 15,284.62 16,313.08 17,227.69 18,270.38 19,213.46 20,284.62 21,270.38 22,284.62 23,270.38 24,298.85 25,313.08 26,298.85 27,327.31 28,313.08 29,327.31 30,341.54 31,284.62 32,256.15 33,213.46 34,199.23 35,241.92 36,227.69 37,313.08 38,327.31 39,170.77 40,199.23 41,227.69 42,185 43,199.23 44,99.62 45,170.77 46,227.69 47,156.54 48,241.92 49,170.77 50,213.46 51,270.38 52,227.69 53,256.15 54,298.85 55,241.92 56,256.15 57,284.62 58,199.23 59,327.31 60,370 61,284.62 62,156.54 63,284.62 64,284.62 65,241.92 66,256.15 67,270.38 68,256.15 69,298.85 70,227.69 73,227.69 74,256.15 75,227.69 76,313.08 77,113.85 78,256.15 79,298.85 80,156.54 81,327.31 82,341.54 83,313.08 84,327.31 85,298.85 86,355.77 89,355.77 90,327.31 91,313.08 92,298.85 93,270.38 94,270.38 95,298.85 96,327.31 97,313.08 98,327.31 99,298.85 100,313.08 101,313.08 102,327.31 103,213.46 104,185 105,156.54 106,256.15 107,256.15 108,185 109,185 110,298.85 111,199.23 112,327.31 113,341.54 114,298.85 115,327.31 116,298.85 117,270.38 118,185 119,170.77 120,142.31 121,185 122,256.15 123,241.92 124,270.38 125,142.31 126,213.46 127,241.92 128,185 129,213.46 130,170.77 131,270.38 132,241.92 133,284.62 134,313.08 135,298.85 136,341.54 137,327.31 138,327.31 139,256.15 140,341.54 141,313.08 142,298.85 143,298.85 144,284.62 145,199.23 146,284.62 147,128.08 148,156.54 149,142.31 150,227.69 151,256.15 152,355.77 153,213.46 154,298.85 155,185 156,227.69 157,199.23 158,241.92 159,156.54 160,270.38 161,213.46 162,284.62 163,213.46 164,241.92 165,284.62 166,313.08 167,313.08 168,298.85 169,284.62 170,298.85 171,313.08 171.58,370"><title>LR761635.1</title></polygon><rect class="average" height="1" width="171.58" x="0" y="210.7"><title>average:11.19</title></rect><rect class="median" height="1" width="171.58" x="0" y="270.38"><title>median:7</title></rect><text class="chromName" x="85.79" y="-12">LR761635.1<title>LR761635.1 73,222,313 bp</title></text><rect class="frame" height="370" width="171.58" x="0" y="0"/></g><g id="chrom-LR761636.1" transform="translate(314.2938403401308,0)"><polygon class="cov0" points="0,370 0,341.54 1,156.54 2,256.15 3,313.08 4,213.46 5,142.31 6,128.08 7,156.54 8,113.85 9,156.54 10,128.08 11,113.85 12,156.54 13,241.92 14,113.85 15,142.31 16,128.08 17,128.08 18,156.54 19,156.54 20,128.08 21,142.31 22,142.31 23,128.08 24,199.23 25,128.08 26,213.46 27,270.38 28,128.08 29,113.85 30,128.08 31,113.85 32,113.85 33,128.08 34,142.31 35,213.46 36,142.31 37,185 38,142.31 39,142.31 40,185 41,156.54 43,156.54 44,128.08 45,156.54 46,170.77 47,142.31 48,213.46 49,156.54 50,170.77 51,128.08 52,142.31 53,142.31 54,213.46 55,170.77 56,170.77 57,128.08 58,156.54 59,128.08 60,156.54 61,227.69 62,156.54 63,128.08 64,142.31 65,142.31 66,156.54 67,156.54 68,170.77 69,156.54 70,185 71,113.85 72,128.08 73,185 74,156.54 75,156.54 76,298.85 77,213.46 78,241.92 79,270.38 80,270.38 81,142.31 82,227.69 83,142.31 84,128.08 85,142.31 86,227.69 87,156.54 88,142.31 89,213.46 90,142.31 91,128.08 92,185 93,156.54 94,142.31 95,199.23 96,199.23 97,128.08 98,142.31 99,156.54 100,156.54 101,142.31 102,156.54 103,113.85 104,128.08 105,128.08 106,142.31 107,128.08 110,128.08 111,156.54 112,156.54 113,170.77 114,128.08 116,128.08 117,142.31 118,170.77 119,142.31 120,142.31 121,256.15 122,128.08 123,128.08 124,185 125,128.08 126,128.08 127,213.46 128,241.92 129,128.08 130,142.31 131,170.77 133,170.77 134,128.08 135,142.31 136,313.08 136.65,370"><title>LR761636.1</title></polygon><rect class="average" height="1" width="136.65" x="0" y="158.1"><title>average:14.89</title></rect><rect class="median" height="1" width="136.65" x="0" y="156.54"><title>median:15</title></rect><text class="chromName" x="68.33" y="-12">LR761636.1<title>LR761636.1 58,319,100 bp</title></text><rect class="frame" height="370" width="136.65" x="0" y="0"/></g><g id="chrom-LR761637.1" transform="translate(451.9485730949149,0)"><polygon class="cov1" points="0,370 0,284.62 1,241.92 2,270.38 3,241.92 4,199.23 5,142.31 6,170.77 7,256.15 8,241.92 9,256.15 10,327.31 11,170.77 12,185 13,284.62 14,313.08 15,170.77 16,213.46 17,113.85 18,270.38 19,284.62 20,241.92 21,156.54 22,142.31 23,199.23 24,270.38 25,170.77 26,142.31 27,241.92 28,241.92 29,270.38 30,270.38 31,142.31 32,156.54 33,170.77 34,128.08 35,213.46 36,270.38 37,227.69 38,170.77 39,156.54 40,156.54 41,298.85 42,241.92 43,284.62 44,313.08 45,199.23 46,142.31 47,142.31 48,128.08 49,128.08 50,199.23 51,142.31 52,99.62 53,170.77 54,113.85 55,142.31 56,156.54 57,227.69 58,284.62 59,313.08 60,313.08 61,227.69 62,142.31 64,142.31 65,156.54 66,128.08 67,156.54 68,170.77 69,128.08 70,156.54 71,142.31 72,170.77 73,128.08 74,156.54 75,156.54 76,142.31 77,170.77 78,170.77 79,213.46 80,170.77 81,156.54 82,128.08 83,142.31 84,156.54 85,128.08 86,213.46 87,170.77 88,142.31 89,142.31 90,128.08 92,128.08 93,156.54 94,199.23 95,227.69 96,185 97,128.08 98,113.85 99,128.08 100,284.62 101,313.08 102,284.62 103,327.31 104,327.31 105,256.15 106,128.08 107,113.85 108,128.08 109,128.08 110,99.62 111,156.54 112,156.54 113,113.85 114,284.62 115,199.23 116,185 117,156.54 118,156.54 119,313.08 120,170.77 121,128.08 122,327.31 123,327.31 124,298.85 124.49,370"><title>LR761637.1</title></polygon><rect class="average" height="1" width="124.49" x="0" y="178.7"><title>average:13.44</title></rect><rect class="median" height="1" width="124.49" x="0" y="185"><title>median:13</title></rect><text class="chromName" x="62.25" y="-12">LR761637.1<title>LR761637.1 53,127,865 bp</title></text><rect class="frame" height="370" width="124.49" x="0" y="0"/></g><g id="chrom-LR761638.1" transform="translate(577.4390778079033,0)"><polygon class="cov0" points="0,370 0,128.08 1,56.92 2,185 3,142.31 4,270.38 5,156.54 6,199.23 7,199.23 8,213.46 9,128.08 10,142.31 11,256.15 12,142.31 13,185 14,113.85 15,156.54 16,113.85 17,128.08 18,256.15 19,355.77 20,156.54 21,185 22,128.08 24,128.08 25,170.77 26,313.08 27,113.85 28,185 29,313.08 30,241.92 31,156.54 32,370 33,355.77 34,199.23 35,227.69 36,170.77 37,341.54 38,270.38 39,341.54 40,341.54 41,313.08 42,256.15 43,156.54 44,156.54 45,270.38 46,213.46 47,113.85 48,128.08 49,241.92 50,355.77 51,241.92 52,185 53,185 54,241.92 55,256.15 56,156.54 57,241.92 58,156.54 59,170.77 60,142.31 61,241.92 62,170.77 63,313.08 64,313.08 65,341.54 66,156.54 67,213.46 68,170.77 69,298.85 70,170.77 71,327.31 72,355.77 73,298.85 74,270.38 75,341.54 76,341.54 77,227.69 78,370 79,298.85 80,284.62 81,213.46 82,327.31 83,327.31 84,298.85 85,170.77 86,128.08 87,170.77 88,313.08 89,142.31 90,270.38 91,156.54 92,128.08 93,128.08 94,156.54 95,227.69 96,313.08 97,128.08 98,298.85 99,227.69 100,199.23 101,185 102,270.38 103,185 104,313.08 105,313.08 106,256.15 107,170.77 108,213.46 109,185 110,227.69 111,199.23 112,313.08 113,270.38 114,227.69 115,284.62 116,298.85 117,327.31 118,341.54 119,313.08 120,270.38 121,327.31 122,355.77 123,355.77 124,313.08 125,298.85 126,313.08 127,256.15 128,341.54 129,270.38 130,327.31 131,313.08 132,270.38 133,327.31 134,270.38 135,298.85 136,156.54 137,370 138,341.54 139,284.62 140,370 141,355.77 142,298.85 143,284.62 144,170.77 145,185 146,227.69 147,142.31 148,156.54 149,156.54 150,185 151,256.15 152,185 153,156.54 154,241.92 155,284.62 156,213.46 157,284.62 158,284.62 159,227.69 160,256.15 161,227.69 162,199.23 163,256.15 164,327.31 165,341.54 166,327.31 167,370 168,298.85 169,227.69 170,370 171,341.54 172,327.31 172.35,370"><title>LR761638.1</title></polygon><rect class="average" height="1" width="172.35" x="0" y="210"><title>average:11.24</title></rect><rect class="median" height="1" width="172.35" x="0" y="256.15"><title>median:8</title></rect><text class="chromName" x="86.17" y="-12">LR761638.1<title>LR761638.1 73,550,375 bp</title></text><rect class="frame" height="370" width="172.35" x="0" y="0"/></g><g id="chrom-LR761639.1" transform="translate(750.784104388203,0)"><polygon class="cov1" points="0,370 0,327.31 1,142.31 2,156.54 3,270.38 4,156.54 5,227.69 6,341.54 7,256.15 8,142.31 9,142.31 10,156.54 11,270.38 12,241.92 13,128.08 14,156.54 15,142.31 16,128.08 18,128.08 19,113.85 20,113.85 21,128.08 22,156.54 23,170.77 24,185 25,199.23 26,170.77 27,313.08 28,327.31 29,213.46 30,298.85 31,142.31 32,156.54 33,113.85 34,199.23 35,213.46 36,213.46 37,128.08 38,142.31 39,128.08 40,199.23 41,128.08 42,156.54 43,113.85 44,156.54 45,128.08 46,156.54 47,142.31 48,128.08 49,156.54 50,156.54 51,128.08 52,185 53,156.54 54,156.54 55,128.08 56,128.08 57,142.31 58,142.31 59,128.08 61,128.08 62,142.31 63,170.77 64,113.85 65,128.08 66,156.54 67,142.31 68,142.31 69,170.77 70,142.31 73,142.31 74,227.69 75,128.08 76,142.31 77,142.31 78,128.08 79,142.31 80,170.77 81,128.08 82,142.31 83,128.08 84,199.23 85,142.31 86,128.08 87,142.31 88,113.85 89,128.08 90,113.85 91,142.31 92,128.08 93,156.54 94,142.31 95,128.08 97,128.08 98,113.85 99,128.08 100,142.31 101,113.85 102,113.85 103,142.31 104,113.85 105,128.08 106,227.69 107,128.08 108,113.85 109,128.08 110,128.08 111,270.38 112,156.54 113,113.85 114,170.77 115,113.85 116,156.54 117,128.08 118,128.08 119,113.85 120,156.54 121,113.85 122,128.08 123,128.08 124,170.77 125,142.31 126,142.31 127,128.08 128,156.54 129,142.31 130,185 131,156.54 132,185 133,341.54 134,128.08 135,156.54 137,156.54 138,213.46 139,185 140,341.54 140.95,370"><title>LR761639.1</title></polygon><rect class="average" height="1" width="140.95" x="0" y="155.58"><title>average:15.07</title></rect><rect class="median" height="1" width="140.95" x="0" y="156.54"><title>median:15</title></rect><text class="chromName" x="70.47" y="-12">LR761639.1<title>LR761639.1 60,151,564 bp</title></text><rect class="frame" height="370" width="140.95" x="0" y="0"/></g><g id="chrom-LR761640.1" transform="translate(892.7327113317651,0)"><polygon class="cov0" points="0,370 0,199.23 1,128.08 2,213.46 3,170.77 4,170.77 5,113.85 6,199.23 7,199.23 8,128.08 9,185 10,142.31 11,128.08 12,113.85 13,241.92 14,185 15,142.31 16,227.69 17,142.31 18,128.08 19,199.23 20,142.31 21,128.08 22,128.08 23,113.85 24,142.31 25,156.54 26,128.08 27,128.08 28,142.31 29,128.08 30,142.31 31,156.54 32,142.31 33,128.08 34,142.31 35,128.08 36,142.31 37,199.23 38,113.85 39,170.77 40,113.85 41,128.08 42,85.38 43,113.85 44,128.08 45,156.54 46,142.31 47,256.15 48,313.08 49,128.08 50,142.31 51,142.31 52,128.08 53,142.31 54,113.85 55,128.08 56,128.08 57,213.46 58,156.54 59,185 60,256.15 61,142.31 62,156.54 63,170.77 64,128.08 65,298.85 66,142.31 67,142.31 68,156.54 69,185 70,185 71,142.31 72,170.77 73,185 74,170.77 75,142.31 76,142.31 77,227.69 78,128.08 79,185 80,113.85 81,99.62 82,113.85 83,142.31 84,128.08 85,113.85 86,298.85 87,142.31 88,156.54 90,156.54 91,284.62 92,270.38 93,199.23 94,256.15 95,156.54 96,142.31 99,142.31 100,113.85 101,170.77 102,327.31 103,241.92 104,128.08 106,128.08 107,199.23 108,213.46 109,128.08 110,170.77 111,199.23 112,142.31 113,156.54 114,185 115,142.31 116,298.85 117,341.54 118,355.77 119,327.31 120,156.54 121,113.85 122,128.08 123,128.08 124,142.31 125,128.08 127,128.08 128,227.69 129,142.31 130,128.08 131,128.08 132,142.31 133,128.08 134,113.85 135,113.85 136,142.31 137,142.31 138,128.08 139,185 140,142.31 141,142.31 142,156.54 143,185 144,142.31 145,128.08 145.53,370"><title>LR761640.1</title></polygon><rect class="average" height="1" width="145.53" x="0" y="158.69"><title>average:14.85</title></rect><rect class="median" height="1" width="145.53" x="0" y="156.54"><title>median:15</title></rect><text class="chromName" x="72.77" y="-12">LR761640.1<title>LR761640.1 62,107,823 bp</title></text><rect class="frame" height="370" width="145.53" x="0" y="0"/></g><g id="chrom-LR761641.1" transform="translate(1039.265271917344,0)"><polygon class="cov1" points="0,370 0,355.77 1,170.77 2,185 3,241.92 4,199.23 5,156.54 6,313.08 7,284.62 8,185 9,142.31 10,113.85 11,284.62 12,213.46 13,142.31 14,241.92 15,128.08 16,128.08 17,185 18,128.08 20,128.08 21,156.54 22,227.69 23,156.54 24,185 25,170.77 26,241.92 27,213.46 28,213.46 29,256.15 30,227.69 31,199.23 32,256.15 33,227.69 34,284.62 35,270.38 36,341.54 37,270.38 38,256.15 39,256.15 40,227.69 41,256.15 42,313.08 43,341.54 44,241.92 46,241.92 47,284.62 48,284.62 49,142.31 50,185 51,142.31 52,128.08 54,128.08 55,113.85 56,128.08 57,170.77 58,170.77 59,185 60,156.54 61,284.62 62,142.31 63,185 64,170.77 65,185 66,213.46 67,227.69 68,284.62 69,170.77 70,199.23 71,128.08 72,199.23 73,298.85 74,213.46 75,298.85 76,185 77,213.46 78,199.23 79,185 80,270.38 81,355.77 82,355.77 83,298.85 84,170.77 85,142.31 86,256.15 87,128.08 88,227.69 89,185 90,256.15 91,270.38 92,142.31 93,227.69 94,256.15 95,199.23 96,170.77 97,313.08 98,142.31 99,370 100,213.46 101,113.85 102,156.54 103,128.08 104,170.77 105,128.08 106,270.38 107,128.08 108,142.31 109,156.54 110,128.08 111,313.08 112,142.31 113,256.15 114,156.54 115,185 116,113.85 117,170.77 118,128.08 119,199.23 120,213.46 121,156.54 122,170.77 123,241.92 124,156.54 125,227.69 126,256.15 127,128.08 128,256.15 129,170.77 130,284.62 131,199.23 132,341.54 133,284.62 134,142.31 135,355.77 136,355.77 136.99,370"><title>LR761641.1</title></polygon><rect class="average" height="1" width="136.99" x="0" y="187.19"><title>average:12.85</title></rect><rect class="median" height="1" width="136.99" x="0" y="199.23"><title>median:12</title></rect><text class="chromName" x="68.5" y="-12">LR761641.1<title>LR761641.1 58,462,999 bp</title></text><rect class="frame" height="370" width="136.99" x="0" y="0"/></g><g id="chrom-LR761642.1" transform="translate(1177.25719230686,0)"><polygon class="cov0" points="0,370 0,284.62 1,270.38 2,270.38 3,256.15 4,313.08 5,327.31 6,298.85 8,298.85 9,284.62 10,298.85 11,213.46 12,270.38 13,142.31 14,227.69 15,199.23 16,270.38 17,213.46 18,298.85 19,227.69 20,170.77 21,170.77 22,313.08 23,256.15 24,170.77 25,128.08 26,170.77 27,185 28,270.38 29,170.77 30,241.92 31,142.31 32,142.31 33,199.23 34,170.77 35,270.38 36,142.31 37,142.31 38,128.08 39,199.23 40,142.31 41,156.54 42,128.08 43,142.31 44,156.54 45,170.77 46,156.54 47,256.15 48,241.92 49,284.62 50,185 51,185 52,213.46 53,128.08 54,142.31 55,227.69 56,170.77 57,199.23 58,227.69 59,156.54 60,156.54 61,341.54 62,185 63,156.54 64,213.46 65,170.77 66,170.77 67,341.54 68,227.69 69,156.54 70,142.31 71,241.92 72,142.31 73,213.46 74,142.31 75,185 76,298.85 77,156.54 78,142.31 79,227.69 80,256.15 81,185 82,313.08 83,256.15 84,284.62 85,227.69 86,313.08 86.91,370"><title>LR761642.1</title></polygon><rect class="average" height="1" width="86.91" x="0" y="179.92"><title>average:13.36</title></rect><rect class="median" height="1" width="86.91" x="0" y="213.46"><title>median:11</title></rect><text class="chromName" x="43.45" y="-12">LR761642.1<title>LR761642.1 37,089,910 bp</title></text><rect class="frame" height="370" width="86.91" x="0" y="0"/></g><g id="chrom-LR761643.1" transform="translate(1265.1671710093603,0)"><polygon class="cov1" points="0,370 0,327.31 1,270.38 2,170.77 3,128.08 4,156.54 5,241.92 6,170.77 7,185 8,156.54 9,128.08 10,142.31 11,185 12,142.31 13,156.54 14,227.69 15,156.54 16,128.08 17,142.31 18,156.54 19,185 20,355.77 21,156.54 22,128.08 23,128.08 24,185 25,170.77 26,313.08 27,298.85 28,270.38 29,142.31 30,213.46 31,156.54 32,227.69 33,142.31 34,170.77 35,213.46 36,227.69 37,128.08 38,142.31 39,128.08 40,142.31 41,156.54 42,170.77 43,270.38 44,156.54 45,170.77 46,128.08 47,227.69 48,170.77 49,142.31 50,185 51,142.31 53,142.31 54,170.77 55,142.31 56,128.08 57,128.08 58,156.54 59,142.31 60,128.08 61,128.08 62,170.77 63,156.54 64,156.54 65,199.23 66,170.77 67,156.54 68,156.54 69,142.31 70,142.31 71,227.69 72,185 73,185 74,128.08 75,213.46 76,142.31 77,128.08 78,213.46 79,270.38 80,128.08 81,128.08 82,142.31 83,142.31 84,128.08 85,128.08 86,142.31 87,128.08 88,170.77 89,355.77 90,185 91,128.08 92,113.85 93,142.31 94,128.08 95,156.54 96,128.08 98,128.08 99,113.85 100,128.08 101,241.92 102,142.31 105,142.31 106,128.08 107,113.85 108,142.31 109,128.08 110,113.85 111,113.85 112,128.08 113,199.23 114,142.31 115,128.08 116,113.85 117,113.85 118,128.08 119,156.54 120,128.08 123,128.08 124,142.31 125,128.08 126,113.85 127,156.54 128,170.77 129,128.08 130,170.77 131,199.23 132,128.08 133,199.23 134,256.15 134.83,370"><title>LR761643.1</title></polygon><rect class="average" height="1" width="134.83" x="0" y="161.08"><title>average:14.68</title></rect><rect class="median" height="1" width="134.83" x="0" y="156.54"><title>median:15</title></rect><text class="chromName" x="67.42" y="-12">LR761643.1<title>LR761643.1 57,541,580 bp</title></text><rect class="frame" height="370" width="134.83" x="0" y="0"/></g><g><line class="ruler" x1="-2" x2="1390" y1="333" y2="333"><title>2</title></line><text class="ruler" x="-5" y="333">2</text><line class="ruler" x1="-2" x2="1390" y1="296" y2="296"><title>5</title></line><text class="ruler" x="-5" y="296">5</text><line class="ruler" x1="-2" x2="1390" y1="259" y2="259"><title>7</title></line><text class="ruler" x="-5" y="259">7</text><line class="ruler" x1="-2" x2="1390" y1="222" y2="222"><title>10</title></line><text class="ruler" x="-5" y="222">10</text><line class="ruler" x1="-2" x2="1390" y1="185" y2="185"><title>13</title></line><text class="ruler" x="-5" y="185">13</text><line class="ruler" x1="-2" x2="1390" y1="148" y2="148"><title>15</title></line><text class="ruler" x="-5" y="148">15</text><line class="ruler" x1="-2" x2="1390" y1="111" y2="111"><title>18</title></line><text class="ruler" x="-5" y="111">18</text><line class="ruler" x1="-2" x2="1390" y1="74" y2="74"><title>20</title></line><text class="ruler" x="-5" y="74">20</text><line class="ruler" x1="-2" x2="1390" y1="37" y2="37"><title>23</title></line><text class="ruler" x="-5" y="37">23</text><line class="ruler" x1="-2" x2="1390" y1="0" y2="0"><title>26</title></line><text class="ruler" x="-5" y="0">26</text></g></g><text class="title" x="795" y="40">F9_M7_24.merged.realigned.bam F9_M7_24 F9_M7_24_1 F9_M7_24_2<title>./F9_M7_24.merged.realigned.bam</title></text><text class="xLabel" x="795" y="475">GCA_902806645.1_cgigas_uk_roslin_v1_genomic.fna  (589,358,857 bp)<title>../ref/GCA_902806645.1_cgigas_uk_roslin_v1_genomic.fna</title></text><text class="yLabel" transform="translate(25,265) rotate(90)" x="0" y="0">Coverage bp (median)</text></g></svg>