<?xml version="1.0" encoding="UTF-8" standalone="no"?><svg height="500" width="1500" xmlns="http://www.w3.org/2000/svg"><title>F9_M8_14.merged.realigned.bam</title><desc>Made with wgscoverageplotter undefined Author: Pierre Lindenbaum</desc><style>g.maing {stroke:black;stroke-width:0.5px;fill:none;}
text.title {stroke:none;fill:black;stroke-width:1px;text-anchor:middle;}
rect.frame {stroke:darkgray;fill:none;stroke-width:0.5px;}
text.ruler {stroke:none;fill:darkgray;stroke-width:1px;text-anchor:end;}
text.chromName {stroke:none;fill:darkgray;stroke-width:1px;text-anchor:middle;}
text.xLabel {stroke:none;fill:black;stroke-width:1px;text-anchor:middle;}
text.yLabel {stroke:none;fill:black;stroke-width:1px;text-anchor:middle;}
.cov0 {stroke:gray;fill:antiquewhite;stroke-width:0.5px;}
.cov1 {stroke:gray;fill:beige;stroke-width:0.5px;}
rect.average {stroke:green;fill:green;stroke-width:0.5px;opacity:0.3;}
rect.median {stroke:red;fill:red;stroke-width:0.5px;opacity:0.3;}
line.ruler {stroke:darkgray;stroke-dasharray:4;fill:none;stroke-width:1;}
</style><g class="maing"><g id="chromosomes" transform="translate(100.0,80.0)"><g id="chrom-LR761634.1" transform="translate(10.0,0)"><polygon class="cov0" points="0,370 0,339.17 1,138.75 2,169.58 3,308.33 4,246.67 5,185 6,308.33 7,200.42 8,169.58 9,138.75 10,154.17 11,123.33 12,154.17 13,246.67 14,277.5 15,138.75 16,123.33 17,200.42 18,138.75 20,138.75 21,154.17 23,154.17 24,169.58 25,123.33 27,123.33 28,138.75 29,123.33 30,138.75 31,138.75 32,277.5 33,138.75 35,138.75 36,107.92 37,185 38,185 39,138.75 40,123.33 42,123.33 43,185 44,154.17 45,200.42 46,185 47,138.75 48,154.17 49,138.75 50,154.17 51,138.75 52,123.33 53,138.75 54,215.83 55,231.25 56,107.92 57,123.33 58,138.75 59,154.17 60,154.17 61,123.33 62,154.17 63,185 64,185 65,169.58 66,154.17 67,185 68,138.75 69,185 70,123.33 71,123.33 72,215.83 73,185 74,154.17 75,123.33 76,138.75 77,185 78,154.17 79,154.17 80,323.75 81,262.08 82,123.33 83,138.75 84,154.17 85,138.75 86,123.33 87,185 88,123.33 89,277.5 90,169.58 91,169.58 92,123.33 93,154.17 94,123.33 95,123.33 96,107.92 97,169.58 98,277.5 99,138.75 100,154.17 101,185 102,154.17 103,154.17 104,200.42 105,123.33 106,200.42 107,200.42 108,262.08 109,123.33 110,107.92 111,138.75 112,138.75 113,169.58 114,292.92 115,200.42 116,123.33 118,123.33 119,169.58 120,215.83 121,138.75 123,138.75 124,154.17 125,123.33 126,138.75 127,154.17 128,200.42 129,185 130,231.25 130.72,370"><title>LR761634.1</title></polygon><rect class="average" height="1" width="130.72" x="0" y="158.95"><title>average:13.69</title></rect><rect class="median" height="1" width="130.72" x="0" y="154.17"><title>median:14</title></rect><text class="chromName" x="65.36" y="-12">LR761634.1<title>LR761634.1 55,785,328 bp</title></text><rect class="frame" height="370" width="130.72" x="0" y="0"/></g><g id="chrom-LR761635.1" transform="translate(141.71753661284166,0)"><polygon class="cov1" points="0,370 0,354.58 1,354.58 2,323.75 3,308.33 4,354.58 5,370 6,246.67 7,308.33 8,308.33 9,231.25 10,246.67 11,277.5 12,231.25 13,154.17 14,215.83 15,246.67 16,292.92 17,262.08 18,262.08 19,231.25 20,246.67 21,277.5 22,277.5 23,262.08 24,308.33 25,354.58 26,308.33 27,339.17 28,292.92 29,354.58 30,339.17 31,339.17 32,231.25 33,246.67 34,215.83 35,246.67 36,277.5 37,339.17 38,354.58 39,200.42 40,231.25 41,262.08 42,169.58 43,262.08 44,154.17 45,185 46,200.42 47,169.58 48,246.67 49,200.42 50,246.67 51,339.17 52,277.5 53,262.08 54,292.92 55,277.5 56,354.58 57,277.5 58,169.58 59,277.5 60,292.92 61,262.08 62,154.17 63,246.67 65,246.67 66,308.33 67,277.5 68,262.08 69,277.5 70,292.92 71,246.67 72,246.67 73,215.83 74,231.25 75,215.83 76,339.17 77,0 78,246.67 79,292.92 80,154.17 81,323.75 82,308.33 83,292.92 84,354.58 85,292.92 86,339.17 87,339.17 88,323.75 89,308.33 90,262.08 91,323.75 92,323.75 93,277.5 94,292.92 95,277.5 96,323.75 97,292.92 98,308.33 99,292.92 100,292.92 101,277.5 102,308.33 103,246.67 104,262.08 105,185 106,262.08 107,277.5 108,200.42 109,231.25 110,292.92 111,200.42 112,323.75 113,339.17 114,308.33 115,308.33 116,354.58 117,277.5 118,169.58 119,185 120,138.75 121,215.83 122,262.08 123,246.67 124,262.08 125,154.17 126,246.67 127,308.33 128,215.83 129,246.67 130,169.58 131,277.5 132,215.83 133,292.92 135,292.92 136,323.75 137,323.75 138,308.33 139,277.5 140,323.75 141,292.92 142,246.67 143,323.75 144,262.08 145,231.25 146,292.92 147,123.33 148,185 149,154.17 150,200.42 151,292.92 152,339.17 153,231.25 154,308.33 155,292.92 156,277.5 157,246.67 158,292.92 159,169.58 160,231.25 161,277.5 162,292.92 163,262.08 164,185 165,200.42 166,246.67 167,292.92 168,200.42 169,308.33 170,308.33 171,339.17 171.58,370"><title>LR761635.1</title></polygon><rect class="average" height="1" width="171.58" x="0" y="214.9"><title>average:10.06</title></rect><rect class="median" height="1" width="171.58" x="0" y="277.5"><title>median:6</title></rect><text class="chromName" x="85.79" y="-12">LR761635.1<title>LR761635.1 73,222,313 bp</title></text><rect class="frame" height="370" width="171.58" x="0" y="0"/></g><g id="chrom-LR761636.1" transform="translate(314.2938403401308,0)"><polygon class="cov0" points="0,370 0,339.17 1,169.58 2,246.67 3,339.17 4,262.08 5,154.17 6,169.58 7,154.17 8,123.33 9,154.17 10,123.33 11,138.75 12,154.17 13,231.25 14,107.92 15,138.75 16,123.33 17,123.33 18,138.75 19,154.17 20,138.75 21,123.33 23,123.33 24,185 25,123.33 26,185 27,262.08 28,123.33 29,107.92 30,123.33 31,107.92 32,123.33 33,123.33 34,154.17 35,185 36,138.75 37,185 38,154.17 39,123.33 40,154.17 41,154.17 42,169.58 43,169.58 44,123.33 45,154.17 46,169.58 47,138.75 48,215.83 49,154.17 50,154.17 51,123.33 52,138.75 53,138.75 54,292.92 55,169.58 56,154.17 57,138.75 58,154.17 59,138.75 60,154.17 61,231.25 62,169.58 63,138.75 64,138.75 65,154.17 66,138.75 67,154.17 69,154.17 70,200.42 71,107.92 72,123.33 73,185 74,154.17 75,154.17 76,323.75 77,200.42 78,215.83 79,262.08 80,246.67 81,138.75 82,215.83 83,154.17 84,123.33 85,138.75 86,262.08 87,154.17 88,138.75 89,200.42 90,138.75 91,123.33 92,169.58 93,154.17 94,138.75 95,154.17 96,200.42 97,123.33 98,138.75 99,185 100,154.17 101,154.17 102,169.58 103,107.92 104,123.33 105,138.75 107,138.75 108,123.33 110,123.33 111,169.58 112,154.17 113,185 114,123.33 115,123.33 116,138.75 117,138.75 118,154.17 119,138.75 120,138.75 121,200.42 122,123.33 123,123.33 124,185 125,123.33 126,123.33 127,215.83 128,262.08 129,123.33 130,154.17 133,154.17 134,123.33 135,138.75 136,262.08 136.65,370"><title>LR761636.1</title></polygon><rect class="average" height="1" width="136.65" x="0" y="153.92"><title>average:14.02</title></rect><rect class="median" height="1" width="136.65" x="0" y="154.17"><title>median:14</title></rect><text class="chromName" x="68.33" y="-12">LR761636.1<title>LR761636.1 58,319,100 bp</title></text><rect class="frame" height="370" width="136.65" x="0" y="0"/></g><g id="chrom-LR761637.1" transform="translate(451.9485730949149,0)"><polygon class="cov1" points="0,370 0,354.58 1,292.92 2,292.92 3,308.33 4,215.83 5,200.42 6,200.42 7,246.67 8,246.67 9,262.08 10,339.17 11,169.58 12,246.67 13,292.92 14,308.33 15,169.58 16,231.25 17,138.75 18,292.92 19,308.33 20,215.83 21,169.58 22,169.58 23,231.25 24,354.58 25,154.17 26,138.75 27,246.67 28,200.42 29,231.25 30,262.08 31,154.17 32,154.17 33,169.58 34,107.92 35,185 36,292.92 37,231.25 38,169.58 39,154.17 40,154.17 41,262.08 42,185 43,292.92 44,323.75 45,154.17 46,138.75 47,123.33 49,123.33 50,169.58 51,123.33 52,107.92 53,169.58 54,107.92 55,138.75 56,154.17 57,215.83 58,277.5 59,308.33 60,308.33 61,231.25 62,138.75 63,154.17 64,138.75 65,154.17 67,154.17 68,185 69,123.33 70,169.58 71,154.17 72,185 73,138.75 74,185 75,154.17 76,138.75 77,138.75 78,169.58 79,185 80,169.58 81,169.58 82,123.33 83,154.17 84,154.17 85,123.33 86,231.25 87,169.58 88,138.75 89,154.17 90,123.33 91,138.75 92,123.33 93,154.17 94,185 95,215.83 96,185 97,154.17 98,123.33 99,123.33 100,246.67 101,277.5 102,262.08 103,277.5 104,292.92 105,277.5 106,123.33 107,107.92 108,123.33 110,123.33 111,154.17 112,138.75 113,123.33 114,277.5 115,200.42 116,185 117,154.17 118,138.75 119,308.33 120,169.58 121,138.75 122,277.5 123,339.17 124,323.75 124.49,370"><title>LR761637.1</title></polygon><rect class="average" height="1" width="124.49" x="0" y="180.59"><title>average:12.29</title></rect><rect class="median" height="1" width="124.49" x="0" y="185"><title>median:12</title></rect><text class="chromName" x="62.25" y="-12">LR761637.1<title>LR761637.1 53,127,865 bp</title></text><rect class="frame" height="370" width="124.49" x="0" y="0"/></g><g id="chrom-LR761638.1" transform="translate(577.4390778079033,0)"><polygon class="cov0" points="0,370 0,200.42 1,138.75 2,262.08 3,138.75 4,246.67 5,154.17 6,200.42 8,200.42 9,123.33 10,185 11,292.92 12,138.75 13,169.58 14,123.33 15,154.17 16,123.33 17,138.75 18,277.5 19,323.75 20,154.17 21,246.67 22,138.75 23,138.75 24,123.33 25,169.58 26,323.75 27,123.33 28,185 29,323.75 30,262.08 31,154.17 32,370 33,354.58 34,200.42 35,246.67 36,169.58 37,323.75 38,292.92 39,354.58 40,339.17 41,323.75 42,246.67 43,154.17 44,154.17 45,308.33 46,231.25 47,123.33 48,138.75 49,262.08 50,354.58 51,246.67 52,215.83 53,185 54,231.25 55,215.83 56,154.17 57,246.67 58,154.17 59,200.42 60,231.25 61,200.42 62,169.58 63,354.58 64,323.75 65,308.33 66,231.25 67,231.25 68,185 69,292.92 70,185 71,339.17 72,354.58 73,292.92 74,262.08 75,339.17 76,339.17 77,215.83 78,354.58 79,308.33 80,308.33 81,169.58 82,323.75 83,339.17 84,323.75 85,200.42 86,138.75 87,185 88,308.33 89,154.17 90,277.5 91,154.17 92,123.33 93,123.33 94,138.75 95,200.42 96,339.17 97,215.83 98,231.25 99,200.42 100,169.58 101,154.17 102,231.25 103,185 104,246.67 105,262.08 106,246.67 107,169.58 108,231.25 109,185 110,200.42 111,185 112,277.5 113,262.08 114,231.25 115,277.5 116,292.92 117,308.33 118,339.17 119,277.5 120,308.33 121,323.75 122,354.58 123,370 124,323.75 125,292.92 126,339.17 127,231.25 128,277.5 129,215.83 130,262.08 131,231.25 132,292.92 133,323.75 134,262.08 135,308.33 136,185 137,370 138,354.58 139,323.75 140,370 141,370 142,292.92 143,277.5 144,169.58 145,185 146,308.33 147,138.75 148,154.17 149,169.58 150,200.42 151,169.58 152,138.75 153,154.17 154,246.67 155,308.33 156,215.83 157,277.5 158,292.92 159,231.25 160,246.67 161,231.25 162,246.67 163,215.83 164,200.42 165,215.83 167,215.83 168,200.42 169,154.17 170,277.5 172,277.5 172.35,370"><title>LR761638.1</title></polygon><rect class="average" height="1" width="172.35" x="0" y="207.48"><title>average:10.54</title></rect><rect class="median" height="1" width="172.35" x="0" y="246.67"><title>median:8</title></rect><text class="chromName" x="86.17" y="-12">LR761638.1<title>LR761638.1 73,550,375 bp</title></text><rect class="frame" height="370" width="172.35" x="0" y="0"/></g><g id="chrom-LR761639.1" transform="translate(750.784104388203,0)"><polygon class="cov1" points="0,370 0,308.33 1,138.75 2,138.75 3,277.5 4,154.17 5,231.25 6,370 7,246.67 8,138.75 9,138.75 10,154.17 11,262.08 12,262.08 13,138.75 14,169.58 15,138.75 16,138.75 17,123.33 20,123.33 21,138.75 22,169.58 23,169.58 24,185 25,215.83 26,185 27,323.75 28,339.17 29,215.83 30,292.92 31,138.75 32,154.17 33,138.75 34,215.83 35,215.83 36,185 37,138.75 39,138.75 40,231.25 41,138.75 42,138.75 43,123.33 44,154.17 45,123.33 46,169.58 47,154.17 48,138.75 49,169.58 50,154.17 51,138.75 52,200.42 53,154.17 54,154.17 55,138.75 58,138.75 59,123.33 60,123.33 61,138.75 63,138.75 64,123.33 65,138.75 66,154.17 67,138.75 68,138.75 69,185 70,138.75 71,154.17 73,154.17 74,215.83 75,123.33 76,138.75 77,138.75 78,123.33 79,138.75 80,169.58 81,123.33 82,123.33 83,138.75 84,200.42 85,138.75 86,123.33 87,138.75 88,123.33 89,138.75 90,123.33 91,138.75 92,138.75 93,169.58 94,169.58 95,138.75 96,138.75 97,123.33 98,123.33 99,138.75 101,138.75 102,154.17 103,138.75 104,123.33 105,123.33 106,246.67 107,138.75 108,123.33 109,138.75 110,123.33 111,308.33 112,185 113,123.33 114,169.58 115,123.33 116,154.17 117,138.75 118,138.75 119,123.33 120,154.17 121,123.33 123,123.33 124,169.58 125,154.17 126,123.33 127,138.75 128,154.17 129,138.75 130,185 131,169.58 132,185 133,354.58 134,123.33 135,154.17 137,154.17 138,231.25 139,200.42 140,292.92 140.95,370"><title>LR761639.1</title></polygon><rect class="average" height="1" width="140.95" x="0" y="156.64"><title>average:13.84</title></rect><rect class="median" height="1" width="140.95" x="0" y="154.17"><title>median:14</title></rect><text class="chromName" x="70.47" y="-12">LR761639.1<title>LR761639.1 60,151,564 bp</title></text><rect class="frame" height="370" width="140.95" x="0" y="0"/></g><g id="chrom-LR761640.1" transform="translate(892.7327113317651,0)"><polygon class="cov0" points="0,370 0,231.25 1,123.33 2,215.83 3,185 4,169.58 5,123.33 6,200.42 7,185 8,138.75 9,169.58 10,138.75 11,138.75 12,123.33 13,277.5 14,169.58 15,138.75 16,231.25 17,138.75 18,123.33 19,200.42 20,138.75 21,138.75 22,123.33 23,107.92 24,138.75 25,138.75 26,123.33 27,123.33 28,138.75 29,123.33 30,138.75 31,154.17 32,138.75 33,123.33 34,154.17 35,138.75 36,123.33 37,200.42 38,107.92 39,154.17 40,107.92 41,123.33 42,107.92 43,123.33 44,123.33 45,138.75 46,154.17 47,231.25 48,262.08 49,123.33 50,138.75 51,123.33 52,123.33 53,138.75 54,123.33 55,138.75 56,123.33 57,185 58,154.17 59,185 60,246.67 61,138.75 62,154.17 63,185 64,123.33 65,292.92 66,138.75 67,154.17 68,154.17 69,185 70,169.58 71,138.75 72,169.58 73,231.25 74,185 75,138.75 76,123.33 77,215.83 78,138.75 79,169.58 80,107.92 81,92.5 82,107.92 83,138.75 84,138.75 85,123.33 86,354.58 87,154.17 88,154.17 89,169.58 90,169.58 91,292.92 92,277.5 93,185 94,231.25 95,154.17 96,154.17 97,138.75 98,169.58 99,138.75 100,107.92 101,200.42 102,292.92 103,200.42 104,138.75 105,123.33 106,123.33 107,154.17 108,154.17 109,123.33 110,154.17 111,185 112,154.17 113,138.75 114,169.58 115,138.75 116,323.75 117,339.17 118,354.58 119,323.75 120,154.17 121,123.33 122,138.75 124,138.75 125,123.33 126,123.33 127,138.75 128,246.67 129,154.17 130,123.33 131,123.33 132,154.17 133,138.75 134,123.33 135,123.33 136,138.75 138,138.75 139,200.42 140,154.17 141,138.75 142,169.58 143,215.83 144,154.17 145,123.33 145.53,370"><title>LR761640.1</title></polygon><rect class="average" height="1" width="145.53" x="0" y="157.17"><title>average:13.8</title></rect><rect class="median" height="1" width="145.53" x="0" y="154.17"><title>median:14</title></rect><text class="chromName" x="72.77" y="-12">LR761640.1<title>LR761640.1 62,107,823 bp</title></text><rect class="frame" height="370" width="145.53" x="0" y="0"/></g><g id="chrom-LR761641.1" transform="translate(1039.265271917344,0)"><polygon class="cov1" points="0,370 0,308.33 1,169.58 2,246.67 3,200.42 4,200.42 5,246.67 6,277.5 7,246.67 8,292.92 9,200.42 10,169.58 11,215.83 12,246.67 13,154.17 14,169.58 15,138.75 16,169.58 17,323.75 18,138.75 19,154.17 20,154.17 21,169.58 22,200.42 23,169.58 24,185 25,154.17 26,246.67 27,215.83 28,262.08 29,292.92 30,246.67 31,200.42 32,262.08 33,231.25 34,308.33 35,277.5 36,323.75 37,262.08 39,262.08 40,185 41,262.08 42,323.75 43,323.75 44,262.08 45,200.42 46,246.67 47,292.92 48,308.33 49,138.75 50,200.42 51,154.17 52,123.33 53,123.33 54,138.75 55,123.33 56,123.33 57,169.58 58,185 59,169.58 60,154.17 61,308.33 62,154.17 63,169.58 64,185 65,200.42 66,215.83 67,231.25 68,246.67 69,169.58 70,292.92 71,138.75 72,200.42 73,308.33 74,231.25 75,292.92 76,200.42 77,200.42 78,185 79,231.25 80,277.5 81,339.17 82,323.75 83,323.75 84,200.42 85,169.58 86,231.25 87,123.33 88,185 89,200.42 90,277.5 91,215.83 92,138.75 93,231.25 94,292.92 95,200.42 96,185 97,354.58 98,154.17 99,370 100,308.33 101,138.75 102,169.58 103,123.33 104,200.42 105,138.75 106,262.08 107,123.33 108,154.17 109,154.17 110,138.75 111,292.92 112,138.75 113,262.08 114,138.75 115,138.75 116,123.33 117,169.58 118,138.75 119,215.83 120,185 121,169.58 122,154.17 123,185 124,154.17 125,185 126,246.67 127,123.33 128,215.83 129,185 130,277.5 131,200.42 132,231.25 133,231.25 134,138.75 135,354.58 136,277.5 136.99,370"><title>LR761641.1</title></polygon><rect class="average" height="1" width="136.99" x="0" y="187.65"><title>average:11.83</title></rect><rect class="median" height="1" width="136.99" x="0" y="215.83"><title>median:10</title></rect><text class="chromName" x="68.5" y="-12">LR761641.1<title>LR761641.1 58,462,999 bp</title></text><rect class="frame" height="370" width="136.99" x="0" y="0"/></g><g id="chrom-LR761642.1" transform="translate(1177.25719230686,0)"><polygon class="cov0" points="0,370 0,339.17 1,339.17 2,354.58 3,308.33 4,339.17 5,339.17 6,323.75 8,323.75 9,277.5 10,277.5 11,262.08 12,277.5 13,138.75 14,185 15,185 16,262.08 17,262.08 18,292.92 19,231.25 20,231.25 21,169.58 22,308.33 23,262.08 24,169.58 25,138.75 26,185 27,200.42 28,277.5 29,154.17 30,215.83 31,154.17 32,169.58 33,215.83 34,154.17 35,246.67 36,138.75 37,154.17 38,123.33 39,185 40,154.17 41,154.17 42,123.33 43,154.17 44,138.75 45,215.83 46,154.17 47,231.25 48,292.92 49,277.5 50,200.42 51,200.42 52,231.25 53,138.75 54,138.75 55,200.42 56,154.17 57,200.42 58,246.67 59,154.17 60,169.58 61,339.17 62,185 63,169.58 64,215.83 65,185 66,185 67,292.92 68,231.25 69,169.58 70,200.42 71,262.08 72,154.17 73,200.42 74,154.17 75,169.58 76,277.5 77,169.58 78,154.17 79,246.67 80,215.83 81,185 82,323.75 83,246.67 84,292.92 85,200.42 86,308.33 86.91,370"><title>LR761642.1</title></polygon><rect class="average" height="1" width="86.91" x="0" y="186.32"><title>average:11.91</title></rect><rect class="median" height="1" width="86.91" x="0" y="215.83"><title>median:10</title></rect><text class="chromName" x="43.45" y="-12">LR761642.1<title>LR761642.1 37,089,910 bp</title></text><rect class="frame" height="370" width="86.91" x="0" y="0"/></g><g id="chrom-LR761643.1" transform="translate(1265.1671710093603,0)"><polygon class="cov1" points="0,370 0,292.92 1,246.67 2,169.58 3,138.75 4,154.17 5,185 6,169.58 7,185 8,138.75 9,123.33 10,138.75 11,169.58 12,138.75 13,215.83 14,246.67 15,154.17 16,138.75 17,169.58 18,154.17 19,200.42 20,339.17 21,154.17 22,123.33 23,123.33 24,200.42 25,185 26,323.75 27,323.75 28,231.25 29,138.75 30,246.67 31,154.17 32,215.83 33,138.75 34,138.75 35,200.42 36,246.67 37,123.33 38,138.75 39,123.33 40,138.75 41,154.17 42,185 43,277.5 44,169.58 45,185 46,138.75 47,246.67 48,169.58 49,138.75 50,185 51,138.75 52,138.75 53,169.58 54,169.58 55,138.75 56,123.33 57,138.75 58,169.58 59,138.75 60,123.33 61,138.75 62,169.58 63,138.75 64,154.17 65,185 66,154.17 67,154.17 68,138.75 69,138.75 70,169.58 71,246.67 72,200.42 73,215.83 74,123.33 75,231.25 76,154.17 77,123.33 78,200.42 79,262.08 80,138.75 81,123.33 82,154.17 83,138.75 84,107.92 85,138.75 86,138.75 87,123.33 88,154.17 89,323.75 90,169.58 91,138.75 92,123.33 93,154.17 94,123.33 95,154.17 96,123.33 99,123.33 100,138.75 101,215.83 102,138.75 103,154.17 105,154.17 106,123.33 107,123.33 108,138.75 109,123.33 112,123.33 113,215.83 114,154.17 115,138.75 116,107.92 117,123.33 118,123.33 119,169.58 120,123.33 123,123.33 124,138.75 125,138.75 126,123.33 127,185 128,185 129,123.33 130,169.58 131,231.25 132,138.75 133,231.25 134,323.75 134.83,370"><title>LR761643.1</title></polygon><rect class="average" height="1" width="134.83" x="0" y="161.96"><title>average:13.49</title></rect><rect class="median" height="1" width="134.83" x="0" y="154.17"><title>median:14</title></rect><text class="chromName" x="67.42" y="-12">LR761643.1<title>LR761643.1 57,541,580 bp</title></text><rect class="frame" height="370" width="134.83" x="0" y="0"/></g><g><line class="ruler" x1="-2" x2="1390" y1="333" y2="333"><title>2</title></line><text class="ruler" x="-5" y="333">2</text><line class="ruler" x1="-2" x2="1390" y1="296" y2="296"><title>4</title></line><text class="ruler" x="-5" y="296">4</text><line class="ruler" x1="-2" x2="1390" y1="259" y2="259"><title>7</title></line><text class="ruler" x="-5" y="259">7</text><line class="ruler" x1="-2" x2="1390" y1="222" y2="222"><title>9</title></line><text class="ruler" x="-5" y="222">9</text><line class="ruler" x1="-2" x2="1390" y1="185" y2="185"><title>12</title></line><text class="ruler" x="-5" y="185">12</text><line class="ruler" x1="-2" x2="1390" y1="148" y2="148"><title>14</title></line><text class="ruler" x="-5" y="148">14</text><line class="ruler" x1="-2" x2="1390" y1="111" y2="111"><title>16</title></line><text class="ruler" x="-5" y="111">16</text><line class="ruler" x1="-2" x2="1390" y1="74" y2="74"><title>19</title></line><text class="ruler" x="-5" y="74">19</text><line class="ruler" x1="-2" x2="1390" y1="37" y2="37"><title>21</title></line><text class="ruler" x="-5" y="37">21</text><line class="ruler" x1="-2" x2="1390" y1="0" y2="0"><title>24</title></line><text class="ruler" x="-5" y="0">24</text></g></g><text class="title" x="795" y="40">F9_M8_14.merged.realigned.bam F9_M8_14 F9_M8_14_1 F9_M8_14_2<title>./F9_M8_14.merged.realigned.bam</title></text><text class="xLabel" x="795" y="475">GCA_902806645.1_cgigas_uk_roslin_v1_genomic.fna  (589,358,857 bp)<title>../ref/GCA_902806645.1_cgigas_uk_roslin_v1_genomic.fna</title></text><text class="yLabel" transform="translate(25,265) rotate(90)" x="0" y="0">Coverage bp (median)</text></g></svg>