<?xml version="1.0" encoding="UTF-8" standalone="no"?><svg height="500" width="1500" xmlns="http://www.w3.org/2000/svg"><title>F9_M9_14.merged.realigned.bam</title><desc>Made with wgscoverageplotter undefined Author: Pierre Lindenbaum</desc><style>g.maing {stroke:black;stroke-width:0.5px;fill:none;}
text.title {stroke:none;fill:black;stroke-width:1px;text-anchor:middle;}
rect.frame {stroke:darkgray;fill:none;stroke-width:0.5px;}
text.ruler {stroke:none;fill:darkgray;stroke-width:1px;text-anchor:end;}
text.chromName {stroke:none;fill:darkgray;stroke-width:1px;text-anchor:middle;}
text.xLabel {stroke:none;fill:black;stroke-width:1px;text-anchor:middle;}
text.yLabel {stroke:none;fill:black;stroke-width:1px;text-anchor:middle;}
.cov0 {stroke:gray;fill:antiquewhite;stroke-width:0.5px;}
.cov1 {stroke:gray;fill:beige;stroke-width:0.5px;}
rect.average {stroke:green;fill:green;stroke-width:0.5px;opacity:0.3;}
rect.median {stroke:red;fill:red;stroke-width:0.5px;opacity:0.3;}
line.ruler {stroke:darkgray;stroke-dasharray:4;fill:none;stroke-width:1;}
</style><g class="maing"><g id="chromosomes" transform="translate(100.0,80.0)"><g id="chrom-LR761634.1" transform="translate(10.0,0)"><polygon class="cov0" points="0,370 0,333 1,166.5 2,166.5 3,314.5 4,222 5,185 6,296 7,203.5 8,166.5 9,148 10,166.5 11,129.5 12,166.5 13,240.5 14,277.5 15,148 16,148 17,185 18,148 19,129.5 20,129.5 21,148 22,166.5 23,166.5 24,185 25,129.5 27,129.5 28,148 29,129.5 30,148 31,148 32,277.5 33,129.5 34,148 35,148 36,111 37,185 38,185 39,129.5 42,129.5 43,185 44,166.5 45,203.5 46,203.5 47,129.5 48,148 51,148 52,129.5 53,148 54,240.5 55,277.5 56,129.5 57,111 58,129.5 59,148 60,148 61,129.5 62,148 63,185 64,203.5 65,185 66,166.5 67,185 68,129.5 69,203.5 70,129.5 71,129.5 72,203.5 73,185 74,148 75,129.5 76,148 77,185 78,166.5 79,148 80,277.5 81,259 82,129.5 83,148 84,148 85,129.5 86,129.5 87,185 88,129.5 89,277.5 90,185 91,166.5 92,129.5 93,166.5 94,111 95,129.5 96,111 97,148 98,333 99,148 100,148 101,203.5 102,166.5 103,185 104,203.5 105,129.5 106,222 107,185 108,277.5 109,129.5 110,111 111,148 112,148 113,185 114,277.5 115,222 116,111 117,148 118,129.5 119,185 120,222 121,129.5 122,148 123,129.5 124,166.5 125,129.5 126,148 127,166.5 128,203.5 129,185 130,222 130.72,370"><title>LR761634.1</title></polygon><rect class="average" height="1" width="130.72" x="0" y="160"><title>average:11.35</title></rect><rect class="median" height="1" width="130.72" x="0" y="166.5"><title>median:11</title></rect><text class="chromName" x="65.36" y="-12">LR761634.1<title>LR761634.1 55,785,328 bp</title></text><rect class="frame" height="370" width="130.72" x="0" y="0"/></g><g id="chrom-LR761635.1" transform="translate(141.71753661284166,0)"><polygon class="cov1" points="0,370 0,351.5 2,351.5 3,314.5 4,351.5 5,370 6,222 7,333 8,314.5 9,259 10,296 11,314.5 12,333 13,166.5 14,240.5 15,240.5 16,296 17,259 18,314.5 19,222 20,277.5 21,296 22,296 23,314.5 24,370 25,370 26,351.5 27,351.5 28,314.5 29,370 30,351.5 31,351.5 32,259 33,240.5 34,240.5 35,277.5 36,277.5 37,351.5 38,333 39,203.5 40,240.5 41,277.5 42,185 43,277.5 44,148 45,185 46,222 47,203.5 48,259 49,203.5 50,240.5 51,351.5 52,296 53,277.5 54,277.5 55,296 56,333 57,314.5 58,185 59,277.5 60,314.5 61,259 62,166.5 63,296 64,296 65,259 66,296 67,296 68,277.5 69,277.5 70,296 71,277.5 72,277.5 73,222 74,240.5 75,222 76,351.5 77,74 78,277.5 79,296 80,148 81,296 82,333 83,277.5 84,351.5 85,314.5 86,351.5 87,351.5 88,333 89,333 90,314.5 91,314.5 92,333 93,296 94,314.5 95,296 96,333 97,296 98,314.5 102,314.5 103,240.5 104,259 105,203.5 106,277.5 107,277.5 108,203.5 109,185 110,314.5 111,203.5 112,314.5 113,333 114,314.5 116,314.5 117,277.5 118,166.5 119,185 120,148 121,203.5 122,259 123,240.5 124,259 125,148 126,259 127,277.5 128,203.5 129,203.5 130,166.5 131,277.5 132,222 133,314.5 134,314.5 135,296 136,351.5 137,333 138,333 139,277.5 140,333 141,296 142,277.5 143,296 144,259 145,240.5 146,259 147,148 148,203.5 149,166.5 150,203.5 151,296 152,351.5 153,240.5 154,296 155,259 156,277.5 158,277.5 159,166.5 160,240.5 161,277.5 162,277.5 163,240.5 164,185 165,222 166,259 167,314.5 168,222 169,314.5 170,296 171,333 171.58,370"><title>LR761635.1</title></polygon><rect class="average" height="1" width="171.58" x="0" y="224.39"><title>average:7.87</title></rect><rect class="median" height="1" width="171.58" x="0" y="277.5"><title>median:5</title></rect><text class="chromName" x="85.79" y="-12">LR761635.1<title>LR761635.1 73,222,313 bp</title></text><rect class="frame" height="370" width="171.58" x="0" y="0"/></g><g id="chrom-LR761636.1" transform="translate(314.2938403401308,0)"><polygon class="cov0" points="0,370 0,333 1,166.5 2,259 3,314.5 4,259 5,166.5 6,185 7,166.5 8,129.5 9,166.5 10,129.5 11,166.5 12,148 13,240.5 14,111 15,148 16,148 17,129.5 18,148 19,166.5 20,148 21,129.5 22,148 23,129.5 24,203.5 25,129.5 26,222 27,259 28,129.5 29,111 30,129.5 31,111 32,129.5 33,129.5 34,148 35,222 36,129.5 37,185 38,148 39,129.5 40,148 41,166.5 42,185 43,166.5 44,129.5 45,148 46,185 47,148 48,203.5 49,166.5 50,166.5 51,129.5 52,148 53,148 54,277.5 55,185 56,166.5 57,129.5 58,166.5 59,129.5 60,166.5 61,240.5 62,166.5 63,148 64,129.5 65,166.5 66,148 67,148 68,166.5 69,148 70,185 71,111 72,129.5 73,166.5 75,166.5 76,314.5 77,222 78,222 79,259 80,259 81,148 82,240.5 83,148 84,129.5 85,148 86,277.5 87,166.5 88,129.5 89,203.5 90,148 91,129.5 92,166.5 93,148 94,129.5 95,148 96,203.5 97,129.5 98,129.5 99,185 100,148 101,129.5 102,185 103,111 104,129.5 105,148 106,129.5 110,129.5 111,166.5 113,166.5 114,129.5 115,111 116,129.5 117,129.5 118,166.5 119,129.5 120,148 121,222 122,129.5 123,129.5 124,185 125,129.5 126,129.5 127,203.5 128,259 129,129.5 130,148 131,166.5 133,166.5 134,129.5 135,148 136,259 136.65,370"><title>LR761636.1</title></polygon><rect class="average" height="1" width="136.65" x="0" y="156.53"><title>average:11.54</title></rect><rect class="median" height="1" width="136.65" x="0" y="148"><title>median:12</title></rect><text class="chromName" x="68.33" y="-12">LR761636.1<title>LR761636.1 58,319,100 bp</title></text><rect class="frame" height="370" width="136.65" x="0" y="0"/></g><g id="chrom-LR761637.1" transform="translate(451.9485730949149,0)"><polygon class="cov1" points="0,370 0,351.5 1,296 2,296 3,314.5 4,222 5,185 6,203.5 7,259 8,277.5 9,277.5 10,333 11,185 12,259 13,296 14,296 15,185 16,240.5 17,166.5 18,277.5 19,314.5 20,259 21,166.5 22,185 23,240.5 24,333 25,166.5 26,148 27,259 28,222 29,203.5 30,240.5 31,148 32,166.5 33,185 34,111 35,203.5 36,296 37,296 38,166.5 39,166.5 40,148 41,259 42,203.5 43,277.5 44,314.5 45,185 46,148 47,129.5 49,129.5 50,166.5 51,129.5 52,111 53,166.5 54,111 55,129.5 56,166.5 57,222 58,277.5 59,314.5 60,314.5 61,240.5 62,129.5 63,148 66,148 67,166.5 68,185 69,129.5 70,166.5 71,148 72,185 73,148 74,185 75,148 77,148 78,185 79,185 80,166.5 81,166.5 82,148 83,148 84,166.5 85,129.5 86,240.5 87,166.5 88,129.5 89,148 90,129.5 91,148 92,129.5 93,166.5 94,185 95,222 96,185 97,148 98,129.5 99,148 100,277.5 101,314.5 102,296 103,314.5 104,333 105,222 106,148 107,129.5 110,129.5 111,166.5 112,148 113,129.5 114,296 115,222 116,185 117,166.5 118,148 119,314.5 120,166.5 121,129.5 122,333 123,351.5 124,314.5 124.49,370"><title>LR761637.1</title></polygon><rect class="average" height="1" width="124.49" x="0" y="184.01"><title>average:10.05</title></rect><rect class="median" height="1" width="124.49" x="0" y="185"><title>median:10</title></rect><text class="chromName" x="62.25" y="-12">LR761637.1<title>LR761637.1 53,127,865 bp</title></text><rect class="frame" height="370" width="124.49" x="0" y="0"/></g><g id="chrom-LR761638.1" transform="translate(577.4390778079033,0)"><polygon class="cov0" points="0,370 0,240.5 1,166.5 2,314.5 3,148 4,240.5 5,166.5 6,203.5 8,203.5 9,129.5 10,185 11,314.5 12,129.5 13,166.5 14,129.5 15,166.5 16,148 17,148 18,277.5 19,314.5 20,148 21,240.5 22,148 23,129.5 24,129.5 25,185 26,314.5 27,129.5 28,185 29,277.5 30,240.5 31,148 32,370 33,351.5 34,203.5 35,240.5 36,166.5 37,277.5 38,259 39,277.5 40,314.5 41,333 42,259 43,185 44,166.5 45,296 46,185 47,129.5 48,148 49,259 50,351.5 51,277.5 52,203.5 53,185 54,259 55,222 56,185 57,240.5 58,148 59,203.5 60,259 61,240.5 62,166.5 63,333 64,314.5 65,296 66,240.5 67,222 68,185 69,314.5 70,203.5 71,333 72,351.5 73,296 74,259 75,351.5 76,333 77,203.5 78,351.5 79,314.5 80,333 81,185 82,333 84,333 85,203.5 86,148 87,185 88,314.5 89,148 90,259 91,148 92,111 93,111 94,148 95,203.5 96,351.5 97,240.5 98,259 99,203.5 100,166.5 101,166.5 102,240.5 103,185 104,240.5 105,259 106,240.5 107,185 108,222 109,185 110,185 111,166.5 112,277.5 113,259 114,240.5 115,296 116,296 117,314.5 118,314.5 119,259 120,314.5 121,351.5 122,370 123,370 124,333 125,296 126,333 127,240.5 128,277.5 129,203.5 130,259 131,240.5 132,314.5 133,314.5 134,240.5 135,296 136,185 137,296 138,333 139,296 140,351.5 141,370 142,296 143,259 144,185 145,203.5 146,277.5 147,148 148,148 149,185 150,222 151,222 152,166.5 153,166.5 154,259 155,296 156,222 157,277.5 158,296 159,296 160,314.5 161,296 162,296 163,203.5 164,240.5 165,277.5 167,277.5 168,259 169,185 170,277.5 172,277.5 172.35,370"><title>LR761638.1</title></polygon><rect class="average" height="1" width="172.35" x="0" y="209.87"><title>average:8.66</title></rect><rect class="median" height="1" width="172.35" x="0" y="240.5"><title>median:7</title></rect><text class="chromName" x="86.17" y="-12">LR761638.1<title>LR761638.1 73,550,375 bp</title></text><rect class="frame" height="370" width="172.35" x="0" y="0"/></g><g id="chrom-LR761639.1" transform="translate(750.784104388203,0)"><polygon class="cov1" points="0,370 0,296 1,148 2,148 3,240.5 4,148 5,240.5 6,296 7,259 8,148 10,148 11,296 12,240.5 13,129.5 14,185 15,129.5 18,129.5 19,111 20,129.5 21,148 22,166.5 23,148 24,185 25,203.5 26,185 27,314.5 28,296 29,185 30,277.5 31,129.5 32,166.5 33,129.5 34,203.5 36,203.5 37,129.5 39,129.5 40,222 41,129.5 42,148 43,129.5 44,148 45,129.5 46,166.5 47,148 48,129.5 49,166.5 50,166.5 51,129.5 52,185 53,148 54,166.5 55,129.5 57,129.5 58,148 59,129.5 61,129.5 62,148 63,166.5 64,129.5 65,129.5 66,166.5 67,148 68,148 69,185 70,148 73,148 74,203.5 75,129.5 76,148 77,148 78,129.5 79,148 80,166.5 81,129.5 82,129.5 83,148 84,222 85,148 86,129.5 87,148 88,129.5 90,129.5 91,148 92,148 93,166.5 94,166.5 95,148 96,148 97,129.5 99,129.5 100,148 101,148 102,129.5 103,148 104,111 105,129.5 106,240.5 107,148 108,129.5 110,129.5 111,314.5 112,185 113,129.5 114,185 115,129.5 116,148 117,129.5 118,148 119,129.5 120,166.5 121,129.5 123,129.5 124,185 125,148 126,129.5 127,129.5 128,166.5 129,148 130,203.5 131,166.5 132,185 133,333 134,129.5 135,166.5 136,185 137,166.5 138,222 139,222 140,277.5 140.95,370"><title>LR761639.1</title></polygon><rect class="average" height="1" width="140.95" x="0" y="155.58"><title>average:11.59</title></rect><rect class="median" height="1" width="140.95" x="0" y="148"><title>median:12</title></rect><text class="chromName" x="70.47" y="-12">LR761639.1<title>LR761639.1 60,151,564 bp</title></text><rect class="frame" height="370" width="140.95" x="0" y="0"/></g><g id="chrom-LR761640.1" transform="translate(892.7327113317651,0)"><polygon class="cov0" points="0,370 0,240.5 1,129.5 2,222 3,185 4,166.5 5,129.5 6,222 7,185 8,148 9,185 10,148 11,166.5 12,129.5 13,277.5 14,185 15,148 16,240.5 17,148 18,129.5 19,203.5 20,148 21,148 22,129.5 23,111 24,148 25,148 26,111 27,129.5 28,148 29,129.5 30,148 31,148 32,129.5 33,129.5 34,148 35,129.5 36,129.5 37,203.5 38,111 39,166.5 40,111 41,129.5 42,92.5 43,129.5 44,129.5 45,148 46,166.5 47,222 48,259 49,129.5 50,148 51,129.5 52,129.5 53,148 54,129.5 56,129.5 57,185 58,166.5 59,185 60,277.5 61,148 62,166.5 63,185 64,129.5 65,296 66,148 68,148 69,203.5 70,185 71,148 72,166.5 73,222 74,185 75,129.5 76,129.5 77,222 78,148 79,185 80,111 81,92.5 82,111 83,129.5 85,129.5 86,351.5 87,148 88,166.5 89,185 90,166.5 91,296 92,277.5 93,203.5 94,240.5 95,166.5 96,148 97,129.5 98,166.5 99,148 100,129.5 101,222 102,333 103,240.5 104,129.5 106,129.5 107,185 108,185 109,129.5 110,185 111,203.5 112,166.5 113,148 114,185 115,129.5 116,333 117,333 118,351.5 119,333 120,166.5 121,129.5 122,148 123,129.5 124,148 125,129.5 127,129.5 128,259 129,148 130,129.5 131,129.5 132,148 133,129.5 134,111 135,111 136,148 137,148 138,129.5 139,203.5 140,148 141,129.5 142,166.5 143,203.5 144,129.5 145,129.5 145.53,370"><title>LR761640.1</title></polygon><rect class="average" height="1" width="145.53" x="0" y="158.74"><title>average:11.42</title></rect><rect class="median" height="1" width="145.53" x="0" y="166.5"><title>median:11</title></rect><text class="chromName" x="72.77" y="-12">LR761640.1<title>LR761640.1 62,107,823 bp</title></text><rect class="frame" height="370" width="145.53" x="0" y="0"/></g><g id="chrom-LR761641.1" transform="translate(1039.265271917344,0)"><polygon class="cov1" points="0,370 0,296 1,185 2,259 3,185 4,148 5,259 6,296 7,240.5 8,277.5 9,203.5 10,166.5 11,222 12,259 13,148 14,166.5 15,129.5 16,166.5 17,333 18,129.5 19,166.5 20,148 21,166.5 22,203.5 23,166.5 24,185 25,166.5 26,259 27,203.5 28,240.5 29,277.5 30,259 31,222 32,277.5 33,240.5 34,296 35,277.5 36,351.5 37,296 38,259 39,296 40,185 41,296 42,333 43,333 44,259 45,222 46,259 47,296 48,296 49,148 50,203.5 51,166.5 52,129.5 56,129.5 57,166.5 58,203.5 59,166.5 60,166.5 61,259 62,148 63,185 65,185 66,222 67,240.5 68,240.5 69,166.5 70,314.5 71,129.5 72,185 73,314.5 74,240.5 75,277.5 76,222 77,222 78,185 79,240.5 80,296 81,351.5 82,333 83,333 84,203.5 85,185 86,203.5 87,129.5 88,166.5 89,203.5 90,277.5 91,240.5 92,148 93,259 94,333 95,240.5 96,185 97,370 98,148 99,370 100,296 101,148 102,166.5 103,148 104,203.5 105,148 106,240.5 107,129.5 108,166.5 109,166.5 110,148 111,296 112,148 113,259 114,166.5 115,148 116,129.5 117,185 118,148 119,222 120,185 121,185 122,148 123,203.5 124,166.5 125,203.5 126,259 127,129.5 128,222 129,185 130,277.5 131,185 132,259 133,222 134,148 135,370 136,296 136.99,370"><title>LR761641.1</title></polygon><rect class="average" height="1" width="136.99" x="0" y="189.5"><title>average:9.76</title></rect><rect class="median" height="1" width="136.99" x="0" y="222"><title>median:8</title></rect><text class="chromName" x="68.5" y="-12">LR761641.1<title>LR761641.1 58,462,999 bp</title></text><rect class="frame" height="370" width="136.99" x="0" y="0"/></g><g id="chrom-LR761642.1" transform="translate(1177.25719230686,0)"><polygon class="cov0" points="0,370 0,314.5 1,296 2,314.5 3,277.5 4,314.5 5,333 6,314.5 8,314.5 9,296 10,296 11,277.5 12,277.5 13,148 14,185 15,185 16,259 17,259 18,296 19,240.5 20,240.5 21,166.5 22,314.5 23,222 24,166.5 25,148 26,185 27,203.5 28,277.5 29,166.5 30,222 31,148 32,166.5 33,222 34,166.5 35,314.5 36,148 37,166.5 38,129.5 39,185 40,148 41,166.5 42,129.5 43,148 44,148 45,240.5 46,166.5 47,259 48,259 49,277.5 50,203.5 51,203.5 52,240.5 53,129.5 54,148 55,222 56,166.5 57,222 58,259 59,185 60,185 61,333 62,240.5 63,185 64,222 65,203.5 66,185 67,296 68,222 69,166.5 70,166.5 71,240.5 72,148 73,222 74,166.5 75,166.5 76,296 77,166.5 78,166.5 79,277.5 80,240.5 81,185 82,314.5 83,240.5 84,314.5 85,203.5 86,314.5 86.91,370"><title>LR761642.1</title></polygon><rect class="average" height="1" width="86.91" x="0" y="187.05"><title>average:9.89</title></rect><rect class="median" height="1" width="86.91" x="0" y="222"><title>median:8</title></rect><text class="chromName" x="43.45" y="-12">LR761642.1<title>LR761642.1 37,089,910 bp</title></text><rect class="frame" height="370" width="86.91" x="0" y="0"/></g><g id="chrom-LR761643.1" transform="translate(1265.1671710093603,0)"><polygon class="cov1" points="0,370 0,351.5 1,277.5 2,203.5 3,148 4,166.5 5,203.5 6,185 7,203.5 8,166.5 9,129.5 10,148 11,185 12,129.5 13,203.5 14,259 15,148 16,129.5 17,166.5 18,166.5 19,222 20,351.5 21,166.5 22,129.5 23,129.5 24,222 25,185 26,333 27,314.5 28,259 29,129.5 30,240.5 31,166.5 32,240.5 33,148 34,166.5 35,222 36,240.5 37,129.5 39,129.5 40,148 41,166.5 42,185 43,277.5 44,166.5 45,185 46,129.5 47,222 48,166.5 49,148 50,166.5 51,129.5 52,148 53,148 54,166.5 55,129.5 57,129.5 58,166.5 59,148 60,111 61,129.5 62,166.5 63,148 64,148 65,185 66,166.5 67,148 69,148 70,166.5 71,259 72,203.5 73,240.5 74,129.5 75,222 76,148 77,129.5 78,203.5 79,277.5 80,129.5 81,129.5 82,148 83,148 84,129.5 85,129.5 86,148 87,129.5 88,166.5 89,314.5 90,166.5 91,148 92,129.5 93,148 94,129.5 95,148 96,129.5 97,129.5 98,111 99,111 100,129.5 101,222 102,148 103,148 104,166.5 105,148 106,129.5 107,129.5 108,148 109,129.5 110,111 111,129.5 112,129.5 113,203.5 114,166.5 115,129.5 116,111 117,129.5 118,129.5 119,166.5 120,129.5 123,129.5 124,148 125,129.5 126,129.5 127,185 128,185 129,129.5 130,166.5 131,240.5 132,129.5 133,259 134,333 134.83,370"><title>LR761643.1</title></polygon><rect class="average" height="1" width="134.83" x="0" y="163.1"><title>average:11.18</title></rect><rect class="median" height="1" width="134.83" x="0" y="166.5"><title>median:11</title></rect><text class="chromName" x="67.42" y="-12">LR761643.1<title>LR761643.1 57,541,580 bp</title></text><rect class="frame" height="370" width="134.83" x="0" y="0"/></g><g><line class="ruler" x1="-2" x2="1390" y1="333" y2="333"><title>2</title></line><text class="ruler" x="-5" y="333">2</text><line class="ruler" x1="-2" x2="1390" y1="296" y2="296"><title>4</title></line><text class="ruler" x="-5" y="296">4</text><line class="ruler" x1="-2" x2="1390" y1="259" y2="259"><title>6</title></line><text class="ruler" x="-5" y="259">6</text><line class="ruler" x1="-2" x2="1390" y1="222" y2="222"><title>8</title></line><text class="ruler" x="-5" y="222">8</text><line class="ruler" x1="-2" x2="1390" y1="185" y2="185"><title>10</title></line><text class="ruler" x="-5" y="185">10</text><line class="ruler" x1="-2" x2="1390" y1="148" y2="148"><title>12</title></line><text class="ruler" x="-5" y="148">12</text><line class="ruler" x1="-2" x2="1390" y1="111" y2="111"><title>14</title></line><text class="ruler" x="-5" y="111">14</text><line class="ruler" x1="-2" x2="1390" y1="74" y2="74"><title>16</title></line><text class="ruler" x="-5" y="74">16</text><line class="ruler" x1="-2" x2="1390" y1="37" y2="37"><title>18</title></line><text class="ruler" x="-5" y="37">18</text><line class="ruler" x1="-2" x2="1390" y1="0" y2="0"><title>20</title></line><text class="ruler" x="-5" y="0">20</text></g></g><text class="title" x="795" y="40">F9_M9_14.merged.realigned.bam F9_M9_14 F9_M9_14_1 F9_M9_14_2<title>./F9_M9_14.merged.realigned.bam</title></text><text class="xLabel" x="795" y="475">GCA_902806645.1_cgigas_uk_roslin_v1_genomic.fna  (589,358,857 bp)<title>../ref/GCA_902806645.1_cgigas_uk_roslin_v1_genomic.fna</title></text><text class="yLabel" transform="translate(25,265) rotate(90)" x="0" y="0">Coverage bp (median)</text></g></svg>