<?xml version="1.0" encoding="UTF-8" standalone="no"?><svg height="500" width="1500" xmlns="http://www.w3.org/2000/svg"><title>F9_M9_24.merged.realigned.bam</title><desc>Made with wgscoverageplotter undefined Author: Pierre Lindenbaum</desc><style>g.maing {stroke:black;stroke-width:0.5px;fill:none;}
text.title {stroke:none;fill:black;stroke-width:1px;text-anchor:middle;}
rect.frame {stroke:darkgray;fill:none;stroke-width:0.5px;}
text.ruler {stroke:none;fill:darkgray;stroke-width:1px;text-anchor:end;}
text.chromName {stroke:none;fill:darkgray;stroke-width:1px;text-anchor:middle;}
text.xLabel {stroke:none;fill:black;stroke-width:1px;text-anchor:middle;}
text.yLabel {stroke:none;fill:black;stroke-width:1px;text-anchor:middle;}
.cov0 {stroke:gray;fill:antiquewhite;stroke-width:0.5px;}
.cov1 {stroke:gray;fill:beige;stroke-width:0.5px;}
rect.average {stroke:green;fill:green;stroke-width:0.5px;opacity:0.3;}
rect.median {stroke:red;fill:red;stroke-width:0.5px;opacity:0.3;}
line.ruler {stroke:darkgray;stroke-dasharray:4;fill:none;stroke-width:1;}
</style><g class="maing"><g id="chromosomes" transform="translate(100.0,80.0)"><g id="chrom-LR761634.1" transform="translate(10.0,0)"><polygon class="cov0" points="0,370 0,313.08 1,142.31 2,142.31 3,284.62 4,170.77 5,185 6,298.85 7,185 8,156.54 9,128.08 10,156.54 11,113.85 12,156.54 13,199.23 14,241.92 15,128.08 16,128.08 17,199.23 18,128.08 19,128.08 20,113.85 21,128.08 22,142.31 23,156.54 24,170.77 25,113.85 26,128.08 27,128.08 28,142.31 29,128.08 30,142.31 31,142.31 32,270.38 33,142.31 34,142.31 35,156.54 36,113.85 37,185 38,185 39,128.08 42,128.08 43,185 44,156.54 45,199.23 46,199.23 47,128.08 48,142.31 51,142.31 52,128.08 53,142.31 54,185 55,199.23 56,113.85 57,113.85 58,142.31 59,142.31 60,156.54 61,128.08 62,156.54 63,170.77 64,227.69 65,156.54 66,156.54 67,170.77 68,128.08 69,199.23 70,142.31 71,128.08 72,256.15 73,185 74,142.31 75,128.08 76,142.31 77,185 78,185 79,128.08 80,270.38 81,284.62 82,128.08 83,142.31 84,156.54 85,142.31 86,128.08 87,199.23 88,128.08 89,270.38 90,156.54 91,156.54 92,128.08 93,156.54 94,113.85 95,128.08 96,113.85 97,156.54 98,284.62 99,128.08 100,128.08 101,156.54 102,128.08 103,170.77 104,185 105,113.85 106,199.23 107,156.54 108,284.62 109,113.85 110,113.85 111,128.08 112,128.08 113,199.23 114,227.69 115,199.23 116,99.62 117,113.85 118,113.85 119,156.54 120,227.69 121,113.85 122,142.31 123,113.85 124,142.31 125,113.85 126,128.08 127,142.31 128,199.23 129,185 130,241.92 130.72,370"><title>LR761634.1</title></polygon><rect class="average" height="1" width="130.72" x="0" y="153.49"><title>average:15.21</title></rect><rect class="median" height="1" width="130.72" x="0" y="156.54"><title>median:15</title></rect><text class="chromName" x="65.36" y="-12">LR761634.1<title>LR761634.1 55,785,328 bp</title></text><rect class="frame" height="370" width="130.72" x="0" y="0"/></g><g id="chrom-LR761635.1" transform="translate(141.71753661284166,0)"><polygon class="cov1" points="0,370 0,341.54 1,355.77 2,327.31 3,270.38 4,341.54 5,327.31 6,199.23 7,270.38 8,284.62 9,227.69 10,241.92 11,284.62 12,241.92 13,185 14,241.92 15,284.62 16,284.62 17,241.92 18,270.38 19,185 20,284.62 23,284.62 24,341.54 25,355.77 26,313.08 27,355.77 28,284.62 29,355.77 30,341.54 31,313.08 32,256.15 33,213.46 34,227.69 35,256.15 36,241.92 37,298.85 38,327.31 39,185 40,213.46 41,241.92 42,170.77 43,199.23 44,128.08 45,170.77 46,227.69 47,156.54 48,298.85 49,185 50,227.69 51,341.54 52,284.62 53,241.92 54,284.62 55,270.38 56,327.31 57,313.08 58,185 59,313.08 60,341.54 61,270.38 62,142.31 63,284.62 64,284.62 65,241.92 66,270.38 67,298.85 68,241.92 69,298.85 70,270.38 71,241.92 72,213.46 73,227.69 74,227.69 75,185 76,341.54 77,128.08 78,284.62 79,298.85 80,128.08 81,284.62 82,341.54 83,298.85 84,355.77 85,298.85 86,341.54 88,341.54 89,313.08 90,284.62 91,327.31 92,284.62 93,270.38 94,284.62 95,298.85 96,327.31 97,298.85 98,313.08 99,298.85 100,298.85 101,284.62 102,313.08 103,213.46 104,185 105,128.08 106,227.69 107,256.15 108,199.23 109,142.31 110,284.62 111,199.23 112,313.08 113,327.31 114,298.85 115,327.31 116,313.08 117,270.38 118,170.77 119,156.54 120,142.31 121,170.77 122,256.15 123,227.69 124,270.38 125,128.08 126,185 127,199.23 128,156.54 130,156.54 131,298.85 132,227.69 133,298.85 134,313.08 135,298.85 136,341.54 137,327.31 138,341.54 139,284.62 140,341.54 141,298.85 142,313.08 143,284.62 144,270.38 145,227.69 146,227.69 147,113.85 148,170.77 149,128.08 150,213.46 151,270.38 152,341.54 153,227.69 154,313.08 155,199.23 156,241.92 157,227.69 158,227.69 159,142.31 160,241.92 161,227.69 162,284.62 163,199.23 164,213.46 165,256.15 166,298.85 167,327.31 168,284.62 169,313.08 170,298.85 171,327.31 171.58,370"><title>LR761635.1</title></polygon><rect class="average" height="1" width="171.58" x="0" y="209.1"><title>average:11.31</title></rect><rect class="median" height="1" width="171.58" x="0" y="270.38"><title>median:7</title></rect><text class="chromName" x="85.79" y="-12">LR761635.1<title>LR761635.1 73,222,313 bp</title></text><rect class="frame" height="370" width="171.58" x="0" y="0"/></g><g id="chrom-LR761636.1" transform="translate(314.2938403401308,0)"><polygon class="cov0" points="0,370 0,341.54 1,128.08 2,256.15 3,298.85 4,227.69 5,128.08 6,128.08 7,142.31 8,113.85 9,142.31 10,113.85 11,128.08 12,142.31 13,227.69 14,99.62 15,142.31 16,113.85 17,113.85 18,128.08 19,156.54 20,128.08 23,128.08 24,199.23 25,128.08 26,227.69 27,256.15 28,128.08 29,113.85 30,128.08 31,113.85 32,113.85 33,128.08 34,142.31 35,213.46 36,142.31 37,170.77 38,142.31 39,128.08 40,142.31 41,156.54 42,170.77 43,156.54 44,128.08 45,156.54 46,170.77 47,142.31 48,213.46 49,142.31 50,170.77 51,128.08 52,142.31 53,142.31 54,241.92 55,170.77 56,156.54 57,128.08 58,170.77 59,128.08 60,170.77 61,213.46 62,156.54 63,142.31 64,142.31 65,156.54 66,142.31 67,156.54 68,170.77 69,156.54 70,170.77 71,113.85 72,128.08 73,170.77 74,156.54 75,142.31 76,313.08 77,213.46 78,241.92 79,270.38 80,284.62 81,142.31 82,227.69 83,142.31 84,128.08 85,142.31 86,270.38 87,170.77 88,142.31 89,199.23 90,142.31 91,128.08 92,185 93,142.31 94,128.08 95,170.77 96,227.69 97,128.08 98,128.08 99,170.77 100,142.31 101,128.08 102,156.54 103,113.85 104,128.08 105,142.31 106,142.31 107,128.08 110,128.08 111,156.54 112,156.54 113,170.77 114,128.08 116,128.08 117,142.31 118,170.77 119,142.31 120,128.08 121,256.15 122,128.08 123,128.08 124,185 125,113.85 126,113.85 127,213.46 128,227.69 129,113.85 130,142.31 131,142.31 132,156.54 133,156.54 134,128.08 135,128.08 136,298.85 136.65,370"><title>LR761636.1</title></polygon><rect class="average" height="1" width="136.65" x="0" y="155.08"><title>average:15.1</title></rect><rect class="median" height="1" width="136.65" x="0" y="156.54"><title>median:15</title></rect><text class="chromName" x="68.33" y="-12">LR761636.1<title>LR761636.1 58,319,100 bp</title></text><rect class="frame" height="370" width="136.65" x="0" y="0"/></g><g id="chrom-LR761637.1" transform="translate(451.9485730949149,0)"><polygon class="cov1" points="0,370 0,284.62 1,241.92 2,270.38 3,241.92 4,185 5,156.54 6,170.77 7,256.15 8,213.46 9,256.15 10,341.54 11,156.54 12,227.69 13,284.62 14,313.08 15,185 16,227.69 17,113.85 18,227.69 19,284.62 20,241.92 21,142.31 22,156.54 23,199.23 24,298.85 25,170.77 26,128.08 27,256.15 28,241.92 30,241.92 31,128.08 32,142.31 33,185 34,113.85 35,185 36,270.38 37,270.38 38,156.54 39,142.31 40,156.54 41,298.85 42,241.92 43,270.38 44,327.31 45,213.46 46,156.54 47,142.31 48,128.08 49,128.08 50,185 51,142.31 52,99.62 53,170.77 54,128.08 55,142.31 56,156.54 57,227.69 58,284.62 59,313.08 60,313.08 61,227.69 62,142.31 64,142.31 65,156.54 66,142.31 67,156.54 68,185 69,128.08 70,156.54 71,142.31 72,170.77 73,128.08 74,170.77 75,156.54 76,142.31 77,156.54 78,185 79,199.23 80,170.77 81,156.54 82,142.31 83,142.31 84,156.54 85,128.08 86,227.69 87,156.54 88,142.31 89,142.31 90,128.08 91,142.31 92,128.08 93,156.54 94,170.77 95,227.69 96,185 97,142.31 98,113.85 99,113.85 100,256.15 101,313.08 102,270.38 103,313.08 104,327.31 105,199.23 106,113.85 109,113.85 110,99.62 111,142.31 112,142.31 113,113.85 114,313.08 115,185 116,170.77 117,156.54 118,142.31 119,313.08 120,142.31 121,113.85 122,313.08 123,341.54 124,313.08 124.49,370"><title>LR761637.1</title></polygon><rect class="average" height="1" width="124.49" x="0" y="176.3"><title>average:13.61</title></rect><rect class="median" height="1" width="124.49" x="0" y="185"><title>median:13</title></rect><text class="chromName" x="62.25" y="-12">LR761637.1<title>LR761637.1 53,127,865 bp</title></text><rect class="frame" height="370" width="124.49" x="0" y="0"/></g><g id="chrom-LR761638.1" transform="translate(577.4390778079033,0)"><polygon class="cov0" points="0,370 0,199.23 1,156.54 2,241.92 3,128.08 4,270.38 5,142.31 6,199.23 7,185 8,185 9,113.85 10,156.54 11,256.15 12,128.08 13,170.77 14,113.85 15,156.54 16,99.62 17,113.85 18,270.38 19,327.31 20,156.54 21,227.69 22,128.08 24,128.08 25,156.54 26,313.08 27,113.85 28,170.77 29,270.38 30,227.69 31,142.31 32,355.77 33,341.54 34,185 35,241.92 36,156.54 37,270.38 38,227.69 39,256.15 40,298.85 41,327.31 42,256.15 43,156.54 44,156.54 45,284.62 46,170.77 47,113.85 48,128.08 49,256.15 50,355.77 51,256.15 52,170.77 53,170.77 54,256.15 55,241.92 56,142.31 57,241.92 58,142.31 59,170.77 60,185 61,213.46 62,156.54 63,298.85 64,341.54 65,327.31 66,185 67,185 68,170.77 69,284.62 70,185 71,327.31 72,355.77 73,284.62 74,270.38 75,341.54 76,313.08 77,213.46 78,370 79,355.77 80,298.85 81,185 82,313.08 83,327.31 84,298.85 85,185 86,128.08 87,156.54 88,313.08 89,142.31 90,270.38 91,156.54 92,113.85 93,128.08 94,142.31 95,227.69 96,327.31 97,142.31 98,284.62 99,199.23 100,199.23 101,185 102,284.62 103,185 104,313.08 105,327.31 106,227.69 107,185 108,199.23 109,185 110,227.69 111,185 112,298.85 113,256.15 114,284.62 115,284.62 116,298.85 117,313.08 118,327.31 119,270.38 120,256.15 121,355.77 122,355.77 123,370 124,313.08 125,298.85 126,327.31 127,256.15 128,370 129,256.15 130,327.31 131,313.08 132,284.62 133,327.31 134,241.92 135,284.62 136,170.77 137,284.62 138,313.08 139,270.38 140,341.54 141,370 142,284.62 143,256.15 144,170.77 145,170.77 146,227.69 147,142.31 148,156.54 149,170.77 150,170.77 151,256.15 152,170.77 153,142.31 154,256.15 155,284.62 156,199.23 157,256.15 158,298.85 159,227.69 160,256.15 161,227.69 162,227.69 163,199.23 164,327.31 165,341.54 166,355.77 167,370 168,313.08 169,213.46 170,370 171,341.54 172,341.54 172.35,370"><title>LR761638.1</title></polygon><rect class="average" height="1" width="172.35" x="0" y="206"><title>average:11.52</title></rect><rect class="median" height="1" width="172.35" x="0" y="241.92"><title>median:9</title></rect><text class="chromName" x="86.17" y="-12">LR761638.1<title>LR761638.1 73,550,375 bp</title></text><rect class="frame" height="370" width="172.35" x="0" y="0"/></g><g id="chrom-LR761639.1" transform="translate(750.784104388203,0)"><polygon class="cov1" points="0,370 0,284.62 1,128.08 2,113.85 3,213.46 4,142.31 5,213.46 6,270.38 7,213.46 8,142.31 9,128.08 10,142.31 11,298.85 12,227.69 13,113.85 14,156.54 15,128.08 19,128.08 20,113.85 21,128.08 22,142.31 23,156.54 24,170.77 25,199.23 26,185 27,313.08 28,284.62 29,185 30,298.85 31,128.08 32,142.31 33,128.08 34,185 35,199.23 36,170.77 37,128.08 38,128.08 39,142.31 40,199.23 41,128.08 42,142.31 43,113.85 44,142.31 45,128.08 46,156.54 47,142.31 48,128.08 49,170.77 50,156.54 51,142.31 52,170.77 53,156.54 54,170.77 55,142.31 56,142.31 57,156.54 58,142.31 60,142.31 61,128.08 62,156.54 63,199.23 64,128.08 65,128.08 66,170.77 67,142.31 68,142.31 69,185 70,142.31 71,142.31 72,156.54 73,142.31 74,227.69 75,128.08 76,142.31 77,142.31 78,128.08 79,142.31 80,170.77 81,142.31 82,142.31 83,128.08 84,213.46 85,142.31 86,128.08 87,142.31 88,128.08 89,128.08 90,113.85 91,142.31 92,128.08 93,170.77 94,156.54 95,142.31 96,142.31 97,128.08 98,128.08 99,142.31 100,142.31 101,128.08 102,113.85 103,142.31 104,113.85 105,128.08 106,241.92 107,142.31 108,128.08 110,128.08 111,313.08 112,170.77 113,113.85 114,170.77 115,113.85 116,142.31 117,128.08 119,128.08 120,156.54 121,128.08 122,128.08 123,113.85 124,156.54 125,128.08 127,128.08 128,142.31 129,128.08 130,185 131,142.31 132,170.77 133,341.54 134,113.85 135,156.54 136,142.31 137,142.31 138,185 139,185 140,313.08 140.95,370"><title>LR761639.1</title></polygon><rect class="average" height="1" width="140.95" x="0" y="151.91"><title>average:15.33</title></rect><rect class="median" height="1" width="140.95" x="0" y="156.54"><title>median:15</title></rect><text class="chromName" x="70.47" y="-12">LR761639.1<title>LR761639.1 60,151,564 bp</title></text><rect class="frame" height="370" width="140.95" x="0" y="0"/></g><g id="chrom-LR761640.1" transform="translate(892.7327113317651,0)"><polygon class="cov0" points="0,370 0,199.23 1,113.85 2,185 3,170.77 4,156.54 5,113.85 6,199.23 7,185 8,128.08 9,170.77 10,128.08 11,142.31 12,113.85 13,227.69 14,170.77 15,128.08 16,227.69 17,142.31 18,113.85 19,185 20,128.08 21,142.31 22,128.08 23,113.85 24,142.31 25,142.31 26,128.08 27,128.08 28,142.31 29,128.08 30,142.31 32,142.31 33,128.08 34,156.54 35,128.08 36,142.31 37,199.23 38,113.85 39,170.77 40,113.85 41,113.85 42,99.62 43,113.85 44,128.08 45,142.31 46,142.31 47,241.92 48,241.92 49,128.08 50,142.31 51,128.08 52,113.85 53,142.31 54,128.08 56,128.08 57,213.46 58,156.54 59,185 60,256.15 61,128.08 62,156.54 63,185 64,128.08 65,313.08 66,142.31 67,142.31 68,156.54 69,199.23 70,199.23 71,142.31 72,170.77 73,185 74,185 75,142.31 76,142.31 77,227.69 78,142.31 79,199.23 80,128.08 81,113.85 82,113.85 83,142.31 84,142.31 85,128.08 86,298.85 87,156.54 88,170.77 89,170.77 90,156.54 91,313.08 92,284.62 93,185 94,284.62 95,156.54 96,142.31 97,142.31 98,156.54 99,142.31 100,128.08 101,185 102,341.54 103,227.69 104,128.08 105,113.85 106,128.08 107,185 108,227.69 109,142.31 110,170.77 111,199.23 112,142.31 113,142.31 114,185 115,128.08 116,327.31 117,341.54 118,355.77 119,341.54 120,156.54 121,113.85 122,128.08 123,128.08 124,142.31 125,128.08 127,128.08 128,256.15 129,142.31 130,128.08 131,128.08 132,142.31 133,128.08 134,99.62 135,99.62 136,128.08 137,128.08 138,113.85 139,170.77 140,128.08 141,128.08 142,142.31 143,185 144,128.08 145,128.08 145.53,370"><title>LR761640.1</title></polygon><rect class="average" height="1" width="145.53" x="0" y="157.14"><title>average:14.96</title></rect><rect class="median" height="1" width="145.53" x="0" y="156.54"><title>median:15</title></rect><text class="chromName" x="72.77" y="-12">LR761640.1<title>LR761640.1 62,107,823 bp</title></text><rect class="frame" height="370" width="145.53" x="0" y="0"/></g><g id="chrom-LR761641.1" transform="translate(1039.265271917344,0)"><polygon class="cov1" points="0,370 0,298.85 1,185 2,227.69 3,199.23 4,99.62 5,170.77 6,327.31 7,270.38 8,213.46 9,156.54 10,113.85 11,227.69 12,227.69 13,128.08 14,227.69 15,128.08 16,142.31 17,270.38 18,113.85 19,128.08 20,128.08 21,142.31 22,185 23,156.54 24,185 25,170.77 26,227.69 27,185 28,199.23 29,256.15 30,227.69 31,199.23 32,270.38 33,213.46 34,270.38 35,270.38 36,341.54 37,270.38 38,270.38 39,284.62 40,185 41,313.08 42,313.08 43,341.54 44,241.92 46,241.92 47,270.38 48,284.62 49,142.31 50,185 51,142.31 52,128.08 54,128.08 55,113.85 56,128.08 57,170.77 59,170.77 60,142.31 61,241.92 62,142.31 63,185 64,156.54 65,170.77 66,213.46 67,227.69 68,270.38 69,185 70,213.46 71,113.85 72,185 73,313.08 74,213.46 75,270.38 76,199.23 77,213.46 78,170.77 79,213.46 80,298.85 81,341.54 82,341.54 83,327.31 84,185 85,156.54 86,227.69 87,113.85 88,199.23 89,185 90,270.38 91,256.15 92,128.08 93,241.92 94,298.85 95,227.69 96,170.77 97,313.08 98,128.08 99,370 100,241.92 101,113.85 102,156.54 103,113.85 104,170.77 105,128.08 106,241.92 107,128.08 108,142.31 109,142.31 110,128.08 111,298.85 112,113.85 113,256.15 114,156.54 115,170.77 116,113.85 117,156.54 118,128.08 119,199.23 120,213.46 121,170.77 122,170.77 123,241.92 124,142.31 125,241.92 126,256.15 127,113.85 128,241.92 129,156.54 130,284.62 131,199.23 132,355.77 133,284.62 134,128.08 135,355.77 136,370 136.99,370"><title>LR761641.1</title></polygon><rect class="average" height="1" width="136.99" x="0" y="182.32"><title>average:13.19</title></rect><rect class="median" height="1" width="136.99" x="0" y="199.23"><title>median:12</title></rect><text class="chromName" x="68.5" y="-12">LR761641.1<title>LR761641.1 58,462,999 bp</title></text><rect class="frame" height="370" width="136.99" x="0" y="0"/></g><g id="chrom-LR761642.1" transform="translate(1177.25719230686,0)"><polygon class="cov0" points="0,370 0,284.62 1,256.15 2,256.15 3,284.62 4,341.54 5,355.77 6,327.31 7,327.31 8,313.08 9,298.85 10,284.62 11,241.92 12,256.15 13,128.08 14,199.23 15,128.08 16,256.15 17,213.46 18,284.62 19,241.92 20,213.46 21,170.77 22,313.08 23,256.15 24,156.54 25,128.08 26,170.77 27,199.23 28,298.85 29,170.77 30,227.69 31,128.08 32,156.54 33,213.46 34,170.77 35,313.08 36,142.31 37,156.54 38,128.08 39,185 40,142.31 41,170.77 42,128.08 43,156.54 44,142.31 45,213.46 46,142.31 47,270.38 48,241.92 49,284.62 50,185 51,213.46 52,213.46 53,128.08 54,128.08 55,213.46 56,156.54 57,213.46 58,241.92 59,170.77 60,156.54 61,341.54 62,213.46 63,170.77 64,213.46 65,185 66,170.77 67,341.54 68,270.38 69,142.31 70,113.85 71,213.46 72,142.31 73,213.46 74,142.31 75,170.77 76,327.31 77,156.54 78,142.31 79,241.92 80,256.15 81,170.77 82,327.31 83,241.92 84,313.08 85,241.92 86,313.08 86.91,370"><title>LR761642.1</title></polygon><rect class="average" height="1" width="86.91" x="0" y="179.69"><title>average:13.37</title></rect><rect class="median" height="1" width="86.91" x="0" y="213.46"><title>median:11</title></rect><text class="chromName" x="43.45" y="-12">LR761642.1<title>LR761642.1 37,089,910 bp</title></text><rect class="frame" height="370" width="86.91" x="0" y="0"/></g><g id="chrom-LR761643.1" transform="translate(1265.1671710093603,0)"><polygon class="cov1" points="0,370 0,341.54 1,270.38 2,170.77 3,113.85 4,142.31 5,227.69 6,170.77 7,170.77 8,142.31 9,128.08 10,128.08 11,185 12,128.08 13,156.54 14,241.92 15,156.54 16,113.85 17,142.31 18,156.54 19,170.77 20,341.54 21,156.54 22,128.08 23,128.08 24,185 25,170.77 26,327.31 27,284.62 28,270.38 29,128.08 30,213.46 31,156.54 32,227.69 33,142.31 34,185 35,213.46 36,227.69 37,128.08 38,142.31 39,128.08 40,142.31 41,170.77 42,185 43,270.38 44,156.54 45,170.77 46,128.08 47,213.46 48,170.77 49,156.54 50,156.54 51,142.31 53,142.31 54,170.77 55,142.31 56,128.08 57,128.08 58,156.54 59,142.31 60,113.85 61,142.31 62,170.77 63,156.54 64,156.54 65,185 66,156.54 68,156.54 69,142.31 70,156.54 71,241.92 72,199.23 73,199.23 74,128.08 75,213.46 76,142.31 77,128.08 78,227.69 79,256.15 80,128.08 81,128.08 82,142.31 83,142.31 84,128.08 85,128.08 86,142.31 87,128.08 88,170.77 89,341.54 90,185 91,128.08 92,128.08 93,142.31 94,113.85 95,156.54 96,128.08 100,128.08 101,227.69 102,142.31 103,142.31 104,156.54 105,142.31 106,128.08 107,128.08 108,142.31 109,128.08 112,128.08 113,199.23 114,142.31 115,128.08 116,113.85 118,113.85 119,156.54 120,113.85 123,113.85 124,142.31 125,128.08 126,113.85 127,142.31 128,156.54 129,113.85 130,142.31 131,199.23 132,113.85 133,199.23 134,256.15 134.83,370"><title>LR761643.1</title></polygon><rect class="average" height="1" width="134.83" x="0" y="158.59"><title>average:14.86</title></rect><rect class="median" height="1" width="134.83" x="0" y="156.54"><title>median:15</title></rect><text class="chromName" x="67.42" y="-12">LR761643.1<title>LR761643.1 57,541,580 bp</title></text><rect class="frame" height="370" width="134.83" x="0" y="0"/></g><g><line class="ruler" x1="-2" x2="1390" y1="333" y2="333"><title>2</title></line><text class="ruler" x="-5" y="333">2</text><line class="ruler" x1="-2" x2="1390" y1="296" y2="296"><title>5</title></line><text class="ruler" x="-5" y="296">5</text><line class="ruler" x1="-2" x2="1390" y1="259" y2="259"><title>7</title></line><text class="ruler" x="-5" y="259">7</text><line class="ruler" x1="-2" x2="1390" y1="222" y2="222"><title>10</title></line><text class="ruler" x="-5" y="222">10</text><line class="ruler" x1="-2" x2="1390" y1="185" y2="185"><title>13</title></line><text class="ruler" x="-5" y="185">13</text><line class="ruler" x1="-2" x2="1390" y1="148" y2="148"><title>15</title></line><text class="ruler" x="-5" y="148">15</text><line class="ruler" x1="-2" x2="1390" y1="111" y2="111"><title>18</title></line><text class="ruler" x="-5" y="111">18</text><line class="ruler" x1="-2" x2="1390" y1="74" y2="74"><title>20</title></line><text class="ruler" x="-5" y="74">20</text><line class="ruler" x1="-2" x2="1390" y1="37" y2="37"><title>23</title></line><text class="ruler" x="-5" y="37">23</text><line class="ruler" x1="-2" x2="1390" y1="0" y2="0"><title>26</title></line><text class="ruler" x="-5" y="0">26</text></g></g><text class="title" x="795" y="40">F9_M9_24.merged.realigned.bam F9_M9_24 F9_M9_24_1 F9_M9_24_2<title>./F9_M9_24.merged.realigned.bam</title></text><text class="xLabel" x="795" y="475">GCA_902806645.1_cgigas_uk_roslin_v1_genomic.fna  (589,358,857 bp)<title>../ref/GCA_902806645.1_cgigas_uk_roslin_v1_genomic.fna</title></text><text class="yLabel" transform="translate(25,265) rotate(90)" x="0" y="0">Coverage bp (median)</text></g></svg>