<?xml version="1.0" encoding="UTF-8" standalone="no"?><svg height="500" width="1500" xmlns="http://www.w3.org/2000/svg"><title>F9_M8_24.merged.realigned.bam</title><desc>Made with wgscoverageplotter undefined Author: Pierre Lindenbaum</desc><style>g.maing {stroke:black;stroke-width:0.5px;fill:none;}
text.title {stroke:none;fill:black;stroke-width:1px;text-anchor:middle;}
rect.frame {stroke:darkgray;fill:none;stroke-width:0.5px;}
text.ruler {stroke:none;fill:darkgray;stroke-width:1px;text-anchor:end;}
text.chromName {stroke:none;fill:darkgray;stroke-width:1px;text-anchor:middle;}
text.xLabel {stroke:none;fill:black;stroke-width:1px;text-anchor:middle;}
text.yLabel {stroke:none;fill:black;stroke-width:1px;text-anchor:middle;}
.cov0 {stroke:gray;fill:antiquewhite;stroke-width:0.5px;}
.cov1 {stroke:gray;fill:beige;stroke-width:0.5px;}
rect.average {stroke:green;fill:green;stroke-width:0.5px;opacity:0.3;}
rect.median {stroke:red;fill:red;stroke-width:0.5px;opacity:0.3;}
line.ruler {stroke:darkgray;stroke-dasharray:4;fill:none;stroke-width:1;}
</style><g class="maing"><g id="chromosomes" transform="translate(100.0,80.0)"><g id="chrom-LR761634.1" transform="translate(10.0,0)"><polygon class="cov0" points="0,370 0,327.31 1,128.08 2,170.77 3,298.85 4,213.46 5,185 6,298.85 7,185 8,156.54 9,128.08 10,156.54 11,128.08 12,156.54 13,241.92 14,241.92 15,142.31 16,128.08 17,227.69 18,128.08 19,142.31 20,128.08 21,142.31 22,156.54 23,156.54 24,170.77 25,128.08 26,128.08 27,142.31 28,142.31 29,128.08 30,142.31 31,142.31 32,256.15 33,142.31 34,142.31 35,156.54 36,128.08 37,199.23 38,185 39,142.31 40,142.31 41,128.08 42,142.31 43,185 44,142.31 45,185 46,185 47,142.31 48,156.54 50,156.54 51,142.31 53,142.31 54,170.77 55,156.54 56,113.85 57,128.08 58,142.31 59,142.31 60,156.54 61,128.08 62,170.77 63,185 64,213.46 65,170.77 66,142.31 67,199.23 68,128.08 69,185 70,142.31 71,142.31 72,256.15 73,185 74,156.54 75,142.31 76,142.31 77,199.23 78,185 79,142.31 80,313.08 81,298.85 82,128.08 83,156.54 84,156.54 85,142.31 86,128.08 87,199.23 88,128.08 89,270.38 90,156.54 91,156.54 92,128.08 93,170.77 94,128.08 95,128.08 96,113.85 97,199.23 98,241.92 99,128.08 100,142.31 102,142.31 103,170.77 104,199.23 105,128.08 106,213.46 107,170.77 108,256.15 109,113.85 110,113.85 111,128.08 112,128.08 113,170.77 114,270.38 115,199.23 116,113.85 118,113.85 119,156.54 120,227.69 121,128.08 122,142.31 123,128.08 124,142.31 125,113.85 126,128.08 127,142.31 128,199.23 129,185 130,256.15 130.72,370"><title>LR761634.1</title></polygon><rect class="average" height="1" width="130.72" x="0" y="158.14"><title>average:14.89</title></rect><rect class="median" height="1" width="130.72" x="0" y="156.54"><title>median:15</title></rect><text class="chromName" x="65.36" y="-12">LR761634.1<title>LR761634.1 55,785,328 bp</title></text><rect class="frame" height="370" width="130.72" x="0" y="0"/></g><g id="chrom-LR761635.1" transform="translate(141.71753661284166,0)"><polygon class="cov1" points="0,370 0,341.54 1,355.77 2,327.31 3,298.85 4,341.54 5,327.31 6,241.92 7,270.38 8,284.62 9,199.23 10,199.23 11,256.15 12,156.54 13,156.54 14,213.46 15,284.62 16,298.85 17,256.15 18,241.92 19,213.46 20,256.15 21,270.38 22,256.15 23,227.69 24,313.08 25,341.54 26,298.85 27,341.54 28,284.62 29,327.31 30,341.54 31,313.08 32,270.38 33,213.46 34,213.46 35,241.92 36,256.15 37,313.08 38,341.54 39,199.23 40,227.69 41,241.92 42,170.77 43,199.23 44,128.08 45,185 46,213.46 47,156.54 48,284.62 49,199.23 50,256.15 51,341.54 52,270.38 53,241.92 54,298.85 55,270.38 56,327.31 57,270.38 58,170.77 59,313.08 60,298.85 61,256.15 62,142.31 63,241.92 64,241.92 65,227.69 66,284.62 67,284.62 68,241.92 69,298.85 70,284.62 71,213.46 72,199.23 73,227.69 74,241.92 75,199.23 76,341.54 77,28.46 78,256.15 79,313.08 80,142.31 81,313.08 82,313.08 83,298.85 84,341.54 85,284.62 86,341.54 87,341.54 88,327.31 89,313.08 90,270.38 91,327.31 92,284.62 93,256.15 94,270.38 95,270.38 96,327.31 97,284.62 98,313.08 99,284.62 100,270.38 101,256.15 102,313.08 103,227.69 104,213.46 105,128.08 106,227.69 107,270.38 108,185 109,199.23 110,270.38 111,199.23 112,313.08 113,327.31 114,298.85 115,313.08 116,313.08 117,270.38 118,185 119,170.77 120,142.31 121,170.77 122,241.92 123,241.92 124,256.15 125,142.31 126,213.46 127,241.92 128,170.77 129,213.46 130,170.77 131,270.38 132,213.46 133,298.85 135,298.85 136,327.31 137,313.08 138,313.08 139,284.62 140,327.31 141,284.62 142,270.38 143,298.85 144,256.15 145,213.46 146,284.62 147,99.62 148,156.54 149,142.31 150,227.69 151,270.38 152,341.54 153,227.69 154,313.08 155,241.92 156,256.15 157,213.46 158,241.92 159,142.31 160,241.92 161,227.69 162,284.62 163,241.92 164,227.69 165,256.15 166,284.62 167,313.08 168,284.62 169,313.08 170,327.31 171,341.54 171.58,370"><title>LR761635.1</title></polygon><rect class="average" height="1" width="171.58" x="0" y="205.23"><title>average:11.58</title></rect><rect class="median" height="1" width="171.58" x="0" y="270.38"><title>median:7</title></rect><text class="chromName" x="85.79" y="-12">LR761635.1<title>LR761635.1 73,222,313 bp</title></text><rect class="frame" height="370" width="171.58" x="0" y="0"/></g><g id="chrom-LR761636.1" transform="translate(314.2938403401308,0)"><polygon class="cov0" points="0,370 0,341.54 1,142.31 2,227.69 3,327.31 4,227.69 5,128.08 6,113.85 7,142.31 8,113.85 9,142.31 10,113.85 11,113.85 12,142.31 13,213.46 14,113.85 15,128.08 16,113.85 17,113.85 18,156.54 19,156.54 20,128.08 23,128.08 24,199.23 25,128.08 26,199.23 27,270.38 28,128.08 29,113.85 30,128.08 33,128.08 34,142.31 35,199.23 36,142.31 37,185 38,156.54 39,142.31 40,170.77 43,170.77 44,142.31 45,156.54 46,170.77 47,142.31 48,241.92 49,156.54 50,170.77 51,128.08 52,142.31 53,156.54 54,256.15 55,170.77 56,170.77 57,142.31 58,156.54 59,142.31 60,156.54 61,227.69 62,170.77 63,142.31 64,142.31 65,156.54 67,156.54 68,170.77 69,156.54 70,185 71,128.08 72,128.08 73,185 74,170.77 75,156.54 76,313.08 77,213.46 78,227.69 79,270.38 80,270.38 81,142.31 82,213.46 83,156.54 84,128.08 85,156.54 86,256.15 87,170.77 88,156.54 89,213.46 90,156.54 91,128.08 92,185 93,156.54 94,142.31 95,185 96,213.46 97,142.31 98,142.31 99,170.77 100,170.77 101,156.54 102,170.77 103,128.08 104,128.08 105,142.31 107,142.31 108,128.08 109,142.31 110,128.08 111,170.77 112,156.54 113,185 114,142.31 115,128.08 116,142.31 117,142.31 118,170.77 119,142.31 120,142.31 121,213.46 122,128.08 123,128.08 124,185 125,128.08 126,128.08 127,227.69 128,241.92 129,113.85 130,142.31 131,142.31 132,156.54 133,156.54 134,128.08 135,142.31 136,313.08 136.65,370"><title>LR761636.1</title></polygon><rect class="average" height="1" width="136.65" x="0" y="158.16"><title>average:14.89</title></rect><rect class="median" height="1" width="136.65" x="0" y="156.54"><title>median:15</title></rect><text class="chromName" x="68.33" y="-12">LR761636.1<title>LR761636.1 58,319,100 bp</title></text><rect class="frame" height="370" width="136.65" x="0" y="0"/></g><g id="chrom-LR761637.1" transform="translate(451.9485730949149,0)"><polygon class="cov1" points="0,370 0,270.38 1,227.69 2,256.15 3,227.69 4,199.23 5,142.31 6,170.77 7,241.92 8,199.23 9,241.92 10,341.54 11,170.77 12,213.46 13,270.38 14,313.08 15,185 16,227.69 17,113.85 18,270.38 19,284.62 20,199.23 21,142.31 22,156.54 23,199.23 24,298.85 25,170.77 26,128.08 27,270.38 28,213.46 29,256.15 30,256.15 31,128.08 32,142.31 33,185 34,128.08 35,199.23 36,284.62 37,199.23 38,170.77 39,156.54 40,156.54 41,298.85 42,241.92 43,298.85 44,327.31 45,199.23 46,156.54 47,156.54 48,142.31 49,142.31 50,199.23 51,142.31 52,113.85 53,185 54,128.08 55,142.31 56,170.77 57,227.69 58,284.62 59,313.08 60,313.08 61,227.69 62,142.31 63,156.54 64,142.31 65,156.54 66,156.54 67,170.77 68,185 69,142.31 70,170.77 71,142.31 72,185 73,142.31 74,170.77 75,170.77 76,142.31 77,156.54 78,185 79,199.23 80,170.77 81,170.77 82,142.31 83,156.54 84,156.54 85,128.08 86,227.69 87,170.77 88,142.31 89,156.54 90,128.08 91,142.31 92,128.08 93,170.77 94,185 95,227.69 96,185 97,142.31 98,113.85 99,128.08 100,256.15 101,284.62 102,256.15 103,284.62 105,284.62 106,113.85 107,113.85 108,128.08 109,128.08 110,113.85 111,156.54 112,128.08 113,113.85 114,284.62 115,199.23 116,185 117,156.54 118,142.31 119,313.08 120,170.77 121,113.85 122,270.38 123,341.54 124,298.85 124.49,370"><title>LR761637.1</title></polygon><rect class="average" height="1" width="124.49" x="0" y="178.77"><title>average:13.44</title></rect><rect class="median" height="1" width="124.49" x="0" y="185"><title>median:13</title></rect><text class="chromName" x="62.25" y="-12">LR761637.1<title>LR761637.1 53,127,865 bp</title></text><rect class="frame" height="370" width="124.49" x="0" y="0"/></g><g id="chrom-LR761638.1" transform="translate(577.4390778079033,0)"><polygon class="cov0" points="0,370 0,156.54 1,113.85 2,185 3,142.31 4,298.85 5,156.54 6,185 7,185 8,213.46 9,128.08 10,170.77 11,241.92 12,142.31 13,170.77 14,113.85 15,142.31 16,99.62 17,113.85 18,256.15 19,341.54 20,156.54 21,227.69 22,142.31 23,128.08 24,128.08 25,156.54 26,313.08 27,128.08 28,185 29,327.31 30,256.15 31,156.54 32,370 33,355.77 34,199.23 35,241.92 36,170.77 37,341.54 38,270.38 39,355.77 40,355.77 41,313.08 42,256.15 43,156.54 44,156.54 45,313.08 46,213.46 47,113.85 48,142.31 49,256.15 50,355.77 51,241.92 52,199.23 53,185 54,241.92 55,241.92 56,142.31 57,241.92 58,156.54 59,185 60,156.54 61,213.46 62,170.77 63,327.31 64,341.54 65,355.77 66,185 67,199.23 68,170.77 69,284.62 70,185 71,355.77 72,355.77 73,298.85 74,270.38 75,355.77 76,341.54 77,227.69 78,370 79,341.54 80,327.31 81,213.46 82,327.31 83,341.54 84,298.85 85,185 86,142.31 87,170.77 88,313.08 89,156.54 90,284.62 91,142.31 92,128.08 93,128.08 94,142.31 95,227.69 96,327.31 97,156.54 98,270.38 99,213.46 100,199.23 101,185 102,270.38 103,199.23 104,313.08 105,327.31 106,241.92 107,185 108,213.46 109,213.46 110,241.92 111,199.23 112,313.08 113,256.15 114,256.15 115,270.38 116,298.85 117,298.85 118,355.77 119,298.85 120,270.38 121,341.54 122,355.77 123,355.77 124,313.08 125,298.85 126,341.54 127,256.15 128,355.77 129,270.38 130,327.31 131,313.08 132,270.38 133,341.54 134,241.92 135,298.85 136,170.77 137,370 138,341.54 139,298.85 140,370 141,370 142,298.85 143,298.85 144,170.77 145,170.77 146,270.38 147,142.31 148,156.54 149,156.54 150,185 151,213.46 152,156.54 153,142.31 154,241.92 155,284.62 156,213.46 157,256.15 158,298.85 159,170.77 160,199.23 161,185 162,170.77 163,213.46 164,270.38 165,284.62 166,284.62 167,298.85 168,241.92 169,185 170,370 171,341.54 172,355.77 172.35,370"><title>LR761638.1</title></polygon><rect class="average" height="1" width="172.35" x="0" y="208.75"><title>average:11.33</title></rect><rect class="median" height="1" width="172.35" x="0" y="241.92"><title>median:9</title></rect><text class="chromName" x="86.17" y="-12">LR761638.1<title>LR761638.1 73,550,375 bp</title></text><rect class="frame" height="370" width="172.35" x="0" y="0"/></g><g id="chrom-LR761639.1" transform="translate(750.784104388203,0)"><polygon class="cov1" points="0,370 0,313.08 1,128.08 2,113.85 3,270.38 4,142.31 5,213.46 6,341.54 7,199.23 8,142.31 9,128.08 10,156.54 11,270.38 12,256.15 13,128.08 14,156.54 15,128.08 16,142.31 17,128.08 18,142.31 19,128.08 20,128.08 21,142.31 22,156.54 23,170.77 24,170.77 25,199.23 26,185 27,327.31 28,355.77 29,227.69 30,327.31 31,142.31 32,142.31 33,128.08 34,199.23 35,227.69 36,170.77 37,128.08 38,142.31 39,142.31 40,213.46 41,128.08 42,156.54 43,128.08 44,156.54 45,142.31 46,170.77 47,142.31 48,142.31 49,156.54 50,156.54 51,142.31 52,185 53,170.77 54,170.77 55,142.31 56,142.31 57,156.54 58,156.54 59,142.31 61,142.31 62,156.54 63,170.77 64,128.08 65,142.31 66,170.77 67,142.31 68,142.31 69,185 70,156.54 73,156.54 74,227.69 75,142.31 76,142.31 77,156.54 78,142.31 79,142.31 80,170.77 81,142.31 83,142.31 84,199.23 85,142.31 86,128.08 87,142.31 88,128.08 89,142.31 90,128.08 91,142.31 92,142.31 93,170.77 94,156.54 95,142.31 96,128.08 98,128.08 99,142.31 100,142.31 101,128.08 102,142.31 103,142.31 104,128.08 105,142.31 106,241.92 107,142.31 108,128.08 109,142.31 110,128.08 111,313.08 112,185 113,128.08 114,185 115,128.08 116,156.54 117,142.31 118,128.08 119,128.08 120,156.54 121,128.08 123,128.08 124,170.77 125,128.08 127,128.08 128,142.31 129,128.08 130,185 131,142.31 132,170.77 133,341.54 134,113.85 135,170.77 136,142.31 137,142.31 138,199.23 139,185 140,327.31 140.95,370"><title>LR761639.1</title></polygon><rect class="average" height="1" width="140.95" x="0" y="158.89"><title>average:14.83</title></rect><rect class="median" height="1" width="140.95" x="0" y="156.54"><title>median:15</title></rect><text class="chromName" x="70.47" y="-12">LR761639.1<title>LR761639.1 60,151,564 bp</title></text><rect class="frame" height="370" width="140.95" x="0" y="0"/></g><g id="chrom-LR761640.1" transform="translate(892.7327113317651,0)"><polygon class="cov0" points="0,370 0,199.23 1,99.62 2,199.23 3,170.77 4,156.54 5,113.85 6,185 7,199.23 8,128.08 9,170.77 10,142.31 11,128.08 12,113.85 13,227.69 14,170.77 15,142.31 16,213.46 17,142.31 18,128.08 19,199.23 20,142.31 21,142.31 22,128.08 23,128.08 24,156.54 25,142.31 26,128.08 27,142.31 28,156.54 29,142.31 30,142.31 31,156.54 32,142.31 33,128.08 34,156.54 35,142.31 36,142.31 37,199.23 38,128.08 39,170.77 40,128.08 44,128.08 45,142.31 46,142.31 47,241.92 48,256.15 49,128.08 50,142.31 51,128.08 52,128.08 53,156.54 54,128.08 55,142.31 56,128.08 57,199.23 58,156.54 59,185 60,241.92 61,142.31 62,156.54 63,185 64,142.31 65,313.08 66,142.31 67,156.54 68,156.54 69,199.23 70,199.23 71,156.54 72,170.77 73,185 74,185 75,156.54 76,142.31 77,227.69 78,142.31 79,185 80,128.08 81,113.85 82,128.08 83,142.31 84,156.54 85,128.08 86,298.85 87,156.54 88,170.77 90,170.77 91,313.08 92,270.38 93,199.23 94,284.62 95,156.54 96,142.31 97,142.31 98,170.77 99,156.54 100,128.08 101,199.23 102,298.85 103,213.46 104,142.31 105,128.08 106,128.08 107,185 108,185 109,142.31 110,156.54 111,213.46 112,156.54 113,156.54 114,185 115,142.31 116,313.08 117,341.54 118,355.77 119,327.31 120,156.54 121,128.08 122,142.31 127,142.31 128,256.15 129,156.54 130,128.08 131,142.31 133,142.31 134,113.85 135,128.08 136,142.31 137,142.31 138,128.08 139,185 140,142.31 141,128.08 142,156.54 143,185 144,142.31 145,128.08 145.53,370"><title>LR761640.1</title></polygon><rect class="average" height="1" width="145.53" x="0" y="161.59"><title>average:14.65</title></rect><rect class="median" height="1" width="145.53" x="0" y="156.54"><title>median:15</title></rect><text class="chromName" x="72.77" y="-12">LR761640.1<title>LR761640.1 62,107,823 bp</title></text><rect class="frame" height="370" width="145.53" x="0" y="0"/></g><g id="chrom-LR761641.1" transform="translate(1039.265271917344,0)"><polygon class="cov1" points="0,370 0,313.08 1,170.77 2,185 3,213.46 4,142.31 5,170.77 6,327.31 7,284.62 8,213.46 9,156.54 10,128.08 11,227.69 12,241.92 13,128.08 14,241.92 15,128.08 16,156.54 17,270.38 18,128.08 20,128.08 21,156.54 22,185 23,156.54 24,185 25,170.77 26,227.69 27,213.46 28,227.69 29,284.62 30,227.69 31,185 32,256.15 33,227.69 34,284.62 35,270.38 36,341.54 37,241.92 38,270.38 39,256.15 40,213.46 41,270.38 42,327.31 43,341.54 44,256.15 45,227.69 46,241.92 47,284.62 48,298.85 49,142.31 50,199.23 51,156.54 52,128.08 56,128.08 57,170.77 58,170.77 59,185 60,156.54 61,284.62 62,156.54 63,185 64,170.77 65,199.23 66,213.46 67,227.69 68,256.15 69,170.77 70,185 71,128.08 72,199.23 73,313.08 74,213.46 75,298.85 76,199.23 77,185 78,185 79,213.46 80,284.62 81,341.54 82,341.54 83,327.31 84,199.23 85,142.31 86,256.15 87,128.08 88,213.46 89,199.23 90,270.38 91,227.69 92,128.08 93,227.69 94,284.62 95,199.23 96,199.23 97,313.08 98,128.08 99,370 100,241.92 101,113.85 102,156.54 103,128.08 104,170.77 105,128.08 106,270.38 107,128.08 108,142.31 109,142.31 110,128.08 111,313.08 112,128.08 113,256.15 114,142.31 115,170.77 116,113.85 117,156.54 118,128.08 119,199.23 120,213.46 121,170.77 122,185 123,241.92 124,156.54 125,227.69 126,256.15 127,113.85 128,256.15 129,170.77 130,284.62 131,213.46 132,313.08 133,270.38 134,128.08 135,355.77 136,313.08 136.99,370"><title>LR761641.1</title></polygon><rect class="average" height="1" width="136.99" x="0" y="186.26"><title>average:12.91</title></rect><rect class="median" height="1" width="136.99" x="0" y="213.46"><title>median:11</title></rect><text class="chromName" x="68.5" y="-12">LR761641.1<title>LR761641.1 58,462,999 bp</title></text><rect class="frame" height="370" width="136.99" x="0" y="0"/></g><g id="chrom-LR761642.1" transform="translate(1177.25719230686,0)"><polygon class="cov0" points="0,370 0,313.08 1,284.62 2,313.08 3,313.08 4,355.77 5,370 6,341.54 7,341.54 8,313.08 9,284.62 10,270.38 11,227.69 12,256.15 13,142.31 14,199.23 15,142.31 16,256.15 17,213.46 18,298.85 19,241.92 20,213.46 21,170.77 22,298.85 23,284.62 24,170.77 25,128.08 26,185 27,199.23 28,298.85 29,170.77 30,213.46 31,142.31 32,156.54 33,213.46 34,170.77 35,270.38 36,142.31 38,142.31 39,185 40,142.31 41,170.77 42,142.31 43,156.54 44,156.54 45,213.46 46,156.54 47,256.15 48,284.62 49,298.85 50,185 51,213.46 52,241.92 53,128.08 54,142.31 55,213.46 56,170.77 57,199.23 58,241.92 59,142.31 60,156.54 61,341.54 62,170.77 63,170.77 64,213.46 65,185 66,170.77 67,327.31 68,270.38 69,156.54 70,142.31 71,241.92 72,142.31 73,213.46 74,142.31 75,185 76,313.08 77,142.31 78,142.31 79,227.69 80,227.69 81,170.77 82,327.31 83,256.15 84,284.62 85,256.15 86,313.08 86.91,370"><title>LR761642.1</title></polygon><rect class="average" height="1" width="86.91" x="0" y="184.99"><title>average:13</title></rect><rect class="median" height="1" width="86.91" x="0" y="213.46"><title>median:11</title></rect><text class="chromName" x="43.45" y="-12">LR761642.1<title>LR761642.1 37,089,910 bp</title></text><rect class="frame" height="370" width="86.91" x="0" y="0"/></g><g id="chrom-LR761643.1" transform="translate(1265.1671710093603,0)"><polygon class="cov1" points="0,370 0,284.62 1,241.92 2,156.54 3,128.08 4,142.31 5,241.92 6,170.77 7,170.77 8,142.31 9,128.08 10,142.31 11,185 12,128.08 13,185 14,241.92 15,156.54 16,128.08 17,156.54 18,156.54 19,185 20,327.31 21,156.54 22,128.08 23,142.31 24,170.77 25,170.77 26,327.31 27,298.85 28,270.38 29,142.31 30,213.46 31,170.77 32,213.46 33,156.54 34,170.77 35,213.46 36,256.15 37,142.31 38,156.54 39,128.08 40,156.54 41,170.77 42,199.23 43,284.62 44,170.77 45,185 46,142.31 47,241.92 48,170.77 49,156.54 50,185 51,142.31 52,156.54 53,156.54 54,170.77 55,156.54 56,142.31 57,142.31 58,170.77 59,142.31 60,128.08 61,142.31 62,185 63,156.54 64,170.77 65,199.23 66,170.77 67,170.77 68,156.54 70,156.54 71,241.92 72,213.46 73,185 74,142.31 75,227.69 76,156.54 77,142.31 78,213.46 79,241.92 80,142.31 81,128.08 82,156.54 83,156.54 84,128.08 85,142.31 86,156.54 87,128.08 88,170.77 89,341.54 90,199.23 91,142.31 92,128.08 93,156.54 94,128.08 95,156.54 96,128.08 97,142.31 98,128.08 99,128.08 100,142.31 101,227.69 102,142.31 103,156.54 104,170.77 105,156.54 106,142.31 107,128.08 108,142.31 109,128.08 112,128.08 113,227.69 114,156.54 115,142.31 116,113.85 117,128.08 118,113.85 119,156.54 120,128.08 123,128.08 124,142.31 125,128.08 126,113.85 127,156.54 128,156.54 129,113.85 130,156.54 131,185 132,128.08 133,199.23 134,241.92 134.83,370"><title>LR761643.1</title></polygon><rect class="average" height="1" width="134.83" x="0" y="164.14"><title>average:14.47</title></rect><rect class="median" height="1" width="134.83" x="0" y="156.54"><title>median:15</title></rect><text class="chromName" x="67.42" y="-12">LR761643.1<title>LR761643.1 57,541,580 bp</title></text><rect class="frame" height="370" width="134.83" x="0" y="0"/></g><g><line class="ruler" x1="-2" x2="1390" y1="333" y2="333"><title>2</title></line><text class="ruler" x="-5" y="333">2</text><line class="ruler" x1="-2" x2="1390" y1="296" y2="296"><title>5</title></line><text class="ruler" x="-5" y="296">5</text><line class="ruler" x1="-2" x2="1390" y1="259" y2="259"><title>7</title></line><text class="ruler" x="-5" y="259">7</text><line class="ruler" x1="-2" x2="1390" y1="222" y2="222"><title>10</title></line><text class="ruler" x="-5" y="222">10</text><line class="ruler" x1="-2" x2="1390" y1="185" y2="185"><title>13</title></line><text class="ruler" x="-5" y="185">13</text><line class="ruler" x1="-2" x2="1390" y1="148" y2="148"><title>15</title></line><text class="ruler" x="-5" y="148">15</text><line class="ruler" x1="-2" x2="1390" y1="111" y2="111"><title>18</title></line><text class="ruler" x="-5" y="111">18</text><line class="ruler" x1="-2" x2="1390" y1="74" y2="74"><title>20</title></line><text class="ruler" x="-5" y="74">20</text><line class="ruler" x1="-2" x2="1390" y1="37" y2="37"><title>23</title></line><text class="ruler" x="-5" y="37">23</text><line class="ruler" x1="-2" x2="1390" y1="0" y2="0"><title>26</title></line><text class="ruler" x="-5" y="0">26</text></g></g><text class="title" x="795" y="40">F9_M8_24.merged.realigned.bam F9_M8_24 F9_M8_24_1 F9_M8_24_2<title>./F9_M8_24.merged.realigned.bam</title></text><text class="xLabel" x="795" y="475">GCA_902806645.1_cgigas_uk_roslin_v1_genomic.fna  (589,358,857 bp)<title>../ref/GCA_902806645.1_cgigas_uk_roslin_v1_genomic.fna</title></text><text class="yLabel" transform="translate(25,265) rotate(90)" x="0" y="0">Coverage bp (median)</text></g></svg>