<?xml version="1.0" encoding="UTF-8" standalone="no"?><svg height="500" width="1500" xmlns="http://www.w3.org/2000/svg"><title>M01.realigned.bam</title><desc>Made with wgscoverageplotter undefined Author: Pierre Lindenbaum</desc><style>g.maing {stroke:black;stroke-width:0.5px;fill:none;}
text.title {stroke:none;fill:black;stroke-width:1px;text-anchor:middle;}
rect.frame {stroke:darkgray;fill:none;stroke-width:0.5px;}
text.ruler {stroke:none;fill:darkgray;stroke-width:1px;text-anchor:end;}
text.chromName {stroke:none;fill:darkgray;stroke-width:1px;text-anchor:middle;}
text.xLabel {stroke:none;fill:black;stroke-width:1px;text-anchor:middle;}
text.yLabel {stroke:none;fill:black;stroke-width:1px;text-anchor:middle;}
.cov0 {stroke:gray;fill:antiquewhite;stroke-width:0.5px;}
.cov1 {stroke:gray;fill:beige;stroke-width:0.5px;}
rect.average {stroke:green;fill:green;stroke-width:0.5px;opacity:0.3;}
rect.median {stroke:red;fill:red;stroke-width:0.5px;opacity:0.3;}
line.ruler {stroke:darkgray;stroke-dasharray:4;fill:none;stroke-width:1;}
</style><g class="maing"><g id="chromosomes" transform="translate(100.0,80.0)"><g id="chrom-LR761634.1" transform="translate(10.0,0)"><polygon class="cov0" points="0,370 0,370 1,138.75 2,138.75 3,277.5 4,185 5,138.75 6,277.5 7,185 8,138.75 9,92.5 10,138.75 11,92.5 12,138.75 13,185 14,138.75 15,138.75 16,92.5 17,231.25 18,92.5 21,92.5 22,138.75 24,138.75 25,92.5 31,92.5 32,231.25 33,92.5 35,92.5 36,46.25 37,138.75 38,138.75 39,92.5 40,92.5 41,46.25 42,92.5 43,138.75 44,92.5 45,185 46,138.75 47,92.5 53,92.5 54,277.5 55,370 56,92.5 57,46.25 58,92.5 61,92.5 62,138.75 65,138.75 66,92.5 67,185 68,92.5 69,185 70,92.5 71,92.5 72,185 73,138.75 74,92.5 75,92.5 76,46.25 77,92.5 78,138.75 79,138.75 80,277.5 81,277.5 82,92.5 83,92.5 84,138.75 85,92.5 86,46.25 87,185 88,92.5 89,231.25 90,92.5 91,138.75 92,92.5 93,138.75 94,46.25 95,92.5 96,46.25 97,185 98,323.75 99,92.5 100,92.5 101,138.75 104,138.75 105,92.5 106,185 107,138.75 108,277.5 109,92.5 112,92.5 113,138.75 114,323.75 115,185 116,92.5 118,92.5 119,185 120,231.25 121,92.5 123,92.5 124,138.75 125,92.5 127,92.5 128,138.75 129,138.75 130,185 130.72,370"><title>LR761634.1</title></polygon><rect class="average" height="1" width="130.72" x="0" y="108.12"><title>average:5.66</title></rect><rect class="median" height="1" width="130.72" x="0" y="138.75"><title>median:5</title></rect><text class="chromName" x="65.36" y="-12">LR761634.1<title>LR761634.1 55,785,328 bp</title></text><rect class="frame" height="370" width="130.72" x="0" y="0"/></g><g id="chrom-LR761635.1" transform="translate(141.71753661284166,0)"><polygon class="cov1" points="0,370 0,370 2,370 3,323.75 4,370 5,370 6,231.25 7,323.75 8,370 9,231.25 10,231.25 11,277.5 12,185 13,138.75 14,185 15,323.75 16,370 17,231.25 19,231.25 20,277.5 22,277.5 23,185 24,277.5 25,323.75 26,277.5 27,323.75 28,323.75 29,370 30,323.75 31,277.5 32,231.25 33,231.25 34,138.75 35,231.25 36,277.5 37,323.75 38,323.75 39,138.75 40,92.5 41,185 42,138.75 43,185 44,138.75 45,138.75 46,185 47,46.25 48,138.75 49,92.5 50,138.75 51,185 52,138.75 53,323.75 54,323.75 55,185 56,185 57,231.25 58,185 59,323.75 60,370 61,231.25 62,92.5 63,277.5 64,323.75 65,277.5 66,323.75 67,323.75 68,277.5 69,185 70,277.5 71,277.5 72,323.75 73,231.25 74,277.5 75,231.25 76,370 77,0 78,231.25 79,323.75 80,138.75 81,323.75 82,370 83,277.5 84,370 85,277.5 86,370 92,370 93,231.25 94,277.5 95,277.5 96,323.75 97,277.5 98,323.75 99,231.25 100,323.75 101,323.75 102,370 103,231.25 104,185 105,92.5 106,277.5 107,323.75 108,185 109,185 110,323.75 111,185 112,370 113,323.75 114,323.75 115,370 116,323.75 117,277.5 118,138.75 119,185 120,92.5 121,138.75 122,231.25 123,231.25 124,277.5 125,138.75 126,231.25 127,277.5 128,231.25 129,277.5 130,138.75 132,138.75 133,231.25 134,323.75 135,323.75 136,370 137,323.75 138,323.75 139,370 140,323.75 141,277.5 142,231.25 143,277.5 144,277.5 145,185 146,277.5 147,46.25 148,138.75 149,92.5 150,185 151,323.75 152,323.75 153,185 154,231.25 155,323.75 156,277.5 157,277.5 158,323.75 159,138.75 160,231.25 161,231.25 162,277.5 163,277.5 164,185 165,138.75 166,185 167,231.25 168,92.5 169,277.5 170,323.75 171,323.75 171.58,370"><title>LR761635.1</title></polygon><rect class="average" height="1" width="171.58" x="0" y="174.8"><title>average:4.22</title></rect><rect class="median" height="1" width="171.58" x="0" y="277.5"><title>median:2</title></rect><text class="chromName" x="85.79" y="-12">LR761635.1<title>LR761635.1 73,222,313 bp</title></text><rect class="frame" height="370" width="171.58" x="0" y="0"/></g><g id="chrom-LR761636.1" transform="translate(314.2938403401308,0)"><polygon class="cov0" points="0,370 0,323.75 1,138.75 2,231.25 3,323.75 4,185 5,138.75 6,46.25 7,92.5 8,92.5 9,138.75 10,92.5 12,92.5 13,231.25 14,92.5 18,92.5 19,138.75 20,92.5 23,92.5 24,185 25,92.5 26,231.25 27,185 28,92.5 30,92.5 31,46.25 32,92.5 34,92.5 35,185 36,92.5 37,138.75 38,92.5 39,92.5 40,138.75 43,138.75 44,92.5 45,92.5 46,138.75 47,92.5 48,185 49,138.75 50,138.75 51,46.25 52,92.5 53,92.5 54,231.25 55,138.75 56,138.75 57,92.5 58,138.75 59,92.5 60,138.75 61,231.25 62,138.75 63,92.5 64,92.5 65,138.75 66,92.5 67,92.5 68,138.75 70,138.75 71,46.25 72,46.25 73,92.5 74,138.75 75,138.75 76,277.5 77,185 78,185 79,231.25 80,231.25 81,92.5 82,185 83,92.5 85,92.5 86,277.5 87,92.5 88,92.5 89,185 90,92.5 91,92.5 92,138.75 93,138.75 94,92.5 95,185 96,138.75 97,92.5 98,92.5 99,138.75 100,138.75 101,92.5 102,138.75 103,46.25 104,92.5 110,92.5 111,138.75 112,92.5 113,138.75 114,92.5 115,46.25 116,46.25 117,92.5 118,138.75 119,92.5 120,92.5 121,277.5 122,92.5 123,92.5 124,138.75 125,92.5 126,92.5 127,185 128,231.25 129,92.5 130,138.75 131,138.75 132,185 133,138.75 134,92.5 135,138.75 136,231.25 136.65,370"><title>LR761636.1</title></polygon><rect class="average" height="1" width="136.65" x="0" y="104.27"><title>average:5.75</title></rect><rect class="median" height="1" width="136.65" x="0" y="138.75"><title>median:5</title></rect><text class="chromName" x="68.33" y="-12">LR761636.1<title>LR761636.1 58,319,100 bp</title></text><rect class="frame" height="370" width="136.65" x="0" y="0"/></g><g id="chrom-LR761637.1" transform="translate(451.9485730949149,0)"><polygon class="cov1" points="0,370 0,370 1,323.75 3,323.75 4,231.25 5,138.75 6,231.25 8,231.25 9,277.5 10,323.75 11,138.75 12,231.25 13,277.5 14,277.5 15,185 16,185 17,92.5 18,231.25 19,277.5 20,231.25 21,92.5 22,138.75 23,185 24,323.75 25,138.75 26,92.5 27,231.25 30,231.25 31,138.75 33,138.75 34,92.5 35,185 36,323.75 37,323.75 38,138.75 39,138.75 40,92.5 41,323.75 42,277.5 43,231.25 44,323.75 45,185 46,92.5 49,92.5 50,185 51,92.5 52,46.25 53,138.75 54,46.25 55,92.5 56,138.75 57,231.25 58,277.5 59,323.75 60,323.75 61,185 62,92.5 66,92.5 67,138.75 68,185 69,92.5 71,92.5 72,138.75 73,92.5 74,185 75,92.5 78,92.5 79,138.75 81,138.75 82,92.5 83,92.5 84,138.75 85,92.5 86,231.25 87,138.75 88,92.5 92,92.5 93,138.75 95,138.75 96,231.25 97,92.5 99,92.5 100,231.25 101,277.5 102,323.75 103,323.75 104,277.5 105,185 106,46.25 107,92.5 109,92.5 110,46.25 111,185 112,138.75 113,92.5 114,277.5 115,185 116,185 117,138.75 118,138.75 119,323.75 120,138.75 121,92.5 122,323.75 124,323.75 124.49,370"><title>LR761637.1</title></polygon><rect class="average" height="1" width="124.49" x="0" y="137.79"><title>average:5.02</title></rect><rect class="median" height="1" width="124.49" x="0" y="185"><title>median:4</title></rect><text class="chromName" x="62.25" y="-12">LR761637.1<title>LR761637.1 53,127,865 bp</title></text><rect class="frame" height="370" width="124.49" x="0" y="0"/></g><g id="chrom-LR761638.1" transform="translate(577.4390778079033,0)"><polygon class="cov0" points="0,370 0,277.5 1,231.25 2,323.75 3,138.75 4,231.25 5,138.75 6,185 7,185 8,231.25 9,92.5 10,138.75 11,323.75 12,92.5 13,138.75 14,92.5 15,138.75 16,92.5 17,92.5 18,277.5 19,277.5 20,92.5 21,185 22,92.5 24,92.5 25,138.75 26,323.75 27,92.5 28,138.75 29,370 30,231.25 31,92.5 32,370 33,370 34,185 35,231.25 36,92.5 37,323.75 38,323.75 39,370 40,370 41,323.75 42,231.25 43,92.5 44,138.75 45,277.5 46,185 47,92.5 48,92.5 49,231.25 50,370 51,231.25 52,138.75 53,138.75 54,185 55,185 56,138.75 57,231.25 58,185 59,185 60,323.75 61,138.75 62,138.75 63,323.75 64,231.25 65,370 66,138.75 67,231.25 68,138.75 69,323.75 70,138.75 71,370 72,370 73,277.5 74,277.5 75,323.75 76,323.75 77,185 78,370 79,323.75 80,370 81,185 82,370 83,231.25 84,185 85,138.75 86,46.25 87,138.75 88,323.75 89,92.5 90,277.5 91,138.75 92,92.5 93,46.25 94,92.5 95,185 96,231.25 97,92.5 98,231.25 99,185 100,138.75 101,138.75 102,277.5 103,185 104,185 105,277.5 106,185 109,185 110,231.25 111,185 112,323.75 113,185 114,231.25 115,277.5 116,370 118,370 119,323.75 120,323.75 121,370 123,370 124,277.5 125,323.75 126,323.75 127,277.5 128,370 129,323.75 131,323.75 132,277.5 133,323.75 134,277.5 135,277.5 136,138.75 137,370 138,370 139,277.5 140,370 141,323.75 142,277.5 143,231.25 144,185 145,185 146,231.25 147,138.75 148,92.5 149,138.75 150,185 151,323.75 152,138.75 153,138.75 154,231.25 155,323.75 156,185 157,231.25 158,370 159,323.75 160,370 161,323.75 162,277.5 163,185 164,370 168,370 169,231.25 170,370 172,370 172.35,370"><title>LR761638.1</title></polygon><rect class="average" height="1" width="172.35" x="0" y="178.08"><title>average:4.15</title></rect><rect class="median" height="1" width="172.35" x="0" y="231.25"><title>median:3</title></rect><text class="chromName" x="86.17" y="-12">LR761638.1<title>LR761638.1 73,550,375 bp</title></text><rect class="frame" height="370" width="172.35" x="0" y="0"/></g><g id="chrom-LR761639.1" transform="translate(750.784104388203,0)"><polygon class="cov1" points="0,370 0,323.75 1,138.75 2,138.75 3,231.25 4,138.75 5,231.25 6,370 7,231.25 8,138.75 9,92.5 10,138.75 11,277.5 12,231.25 13,92.5 14,138.75 15,92.5 18,92.5 19,46.25 20,46.25 21,92.5 22,138.75 23,92.5 24,185 25,185 26,138.75 27,323.75 28,370 29,231.25 30,323.75 31,92.5 33,92.5 34,185 35,231.25 36,231.25 37,92.5 39,92.5 40,185 41,92.5 42,92.5 43,46.25 44,92.5 45,92.5 46,138.75 47,92.5 48,92.5 49,138.75 50,138.75 51,92.5 52,138.75 53,92.5 62,92.5 63,138.75 64,46.25 65,92.5 68,92.5 69,185 70,92.5 73,92.5 74,185 75,92.5 83,92.5 84,185 85,92.5 87,92.5 88,46.25 89,92.5 91,92.5 92,46.25 93,138.75 94,92.5 95,92.5 96,46.25 98,46.25 99,92.5 100,92.5 101,46.25 102,92.5 103,92.5 104,46.25 105,92.5 106,231.25 107,92.5 108,46.25 109,92.5 110,92.5 111,370 112,138.75 113,46.25 114,138.75 115,46.25 116,92.5 118,92.5 119,46.25 120,138.75 121,92.5 123,92.5 124,138.75 125,92.5 128,92.5 129,46.25 130,138.75 131,138.75 132,185 133,370 134,92.5 135,138.75 136,92.5 137,92.5 138,185 139,92.5 140,92.5 140.95,370"><title>LR761639.1</title></polygon><rect class="average" height="1" width="140.95" x="0" y="99.38"><title>average:5.85</title></rect><rect class="median" height="1" width="140.95" x="0" y="92.5"><title>median:6</title></rect><text class="chromName" x="70.47" y="-12">LR761639.1<title>LR761639.1 60,151,564 bp</title></text><rect class="frame" height="370" width="140.95" x="0" y="0"/></g><g id="chrom-LR761640.1" transform="translate(892.7327113317651,0)"><polygon class="cov0" points="0,370 0,185 1,92.5 2,138.75 4,138.75 5,92.5 6,185 7,185 8,92.5 9,138.75 10,92.5 11,138.75 12,92.5 13,231.25 14,185 15,92.5 16,185 17,92.5 18,46.25 19,185 20,92.5 22,92.5 23,46.25 24,92.5 25,138.75 26,46.25 27,92.5 32,92.5 33,46.25 34,138.75 35,92.5 36,92.5 37,185 38,46.25 39,138.75 40,46.25 42,46.25 43,92.5 45,92.5 46,138.75 47,231.25 48,323.75 49,92.5 51,92.5 52,46.25 53,92.5 54,46.25 55,92.5 56,92.5 57,185 58,92.5 59,138.75 60,231.25 61,92.5 62,138.75 63,138.75 64,92.5 65,231.25 66,92.5 67,92.5 68,138.75 69,185 70,138.75 71,92.5 72,92.5 73,138.75 74,138.75 75,92.5 76,92.5 77,185 78,92.5 79,138.75 80,46.25 81,0 82,46.25 83,92.5 85,92.5 86,323.75 87,92.5 88,92.5 89,138.75 90,92.5 91,323.75 92,231.25 93,138.75 94,277.5 95,92.5 100,92.5 101,231.25 102,370 103,231.25 104,92.5 106,92.5 107,138.75 108,231.25 109,92.5 110,138.75 113,138.75 114,185 115,92.5 116,323.75 117,370 119,370 120,92.5 121,46.25 122,92.5 124,92.5 125,46.25 126,92.5 127,92.5 128,185 129,138.75 130,92.5 138,92.5 139,185 140,92.5 141,92.5 142,138.75 143,185 144,138.75 145,92.5 145.53,370"><title>LR761640.1</title></polygon><rect class="average" height="1" width="145.53" x="0" y="105.05"><title>average:5.73</title></rect><rect class="median" height="1" width="145.53" x="0" y="138.75"><title>median:5</title></rect><text class="chromName" x="72.77" y="-12">LR761640.1<title>LR761640.1 62,107,823 bp</title></text><rect class="frame" height="370" width="145.53" x="0" y="0"/></g><g id="chrom-LR761641.1" transform="translate(1039.265271917344,0)"><polygon class="cov1" points="0,370 0,231.25 1,138.75 2,231.25 3,185 4,231.25 8,231.25 9,185 10,138.75 11,185 12,231.25 13,92.5 14,231.25 15,92.5 16,138.75 17,323.75 18,92.5 20,92.5 21,185 22,185 23,92.5 24,185 25,138.75 26,231.25 27,185 28,185 29,231.25 30,231.25 31,185 32,323.75 33,231.25 34,231.25 35,277.5 36,323.75 37,231.25 38,231.25 39,277.5 40,185 41,323.75 42,277.5 45,277.5 46,231.25 47,277.5 48,323.75 49,92.5 50,138.75 51,138.75 52,92.5 56,92.5 57,138.75 59,138.75 60,92.5 61,231.25 62,138.75 64,138.75 65,185 66,185 67,231.25 68,277.5 69,138.75 70,185 71,92.5 72,231.25 73,323.75 74,185 75,370 76,185 77,185 78,138.75 79,231.25 80,323.75 81,370 82,370 83,323.75 84,185 85,138.75 86,277.5 87,92.5 88,185 90,185 91,231.25 92,92.5 93,231.25 94,277.5 95,277.5 96,138.75 97,277.5 98,92.5 99,370 100,277.5 101,138.75 102,138.75 103,92.5 104,185 105,92.5 106,277.5 107,92.5 108,138.75 110,138.75 111,231.25 112,92.5 113,231.25 114,138.75 115,138.75 116,92.5 117,138.75 118,138.75 119,185 120,185 121,138.75 122,138.75 123,231.25 124,138.75 125,185 126,185 127,92.5 128,231.25 129,185 130,277.5 131,185 132,370 133,231.25 134,138.75 135,370 136,370 136.99,370"><title>LR761641.1</title></polygon><rect class="average" height="1" width="136.99" x="0" y="146.94"><title>average:4.82</title></rect><rect class="median" height="1" width="136.99" x="0" y="185"><title>median:4</title></rect><text class="chromName" x="68.5" y="-12">LR761641.1<title>LR761641.1 58,462,999 bp</title></text><rect class="frame" height="370" width="136.99" x="0" y="0"/></g><g id="chrom-LR761642.1" transform="translate(1177.25719230686,0)"><polygon class="cov0" points="0,370 0,277.5 1,231.25 2,277.5 3,277.5 4,370 5,370 6,323.75 7,370 8,277.5 9,323.75 10,277.5 11,185 12,231.25 13,92.5 14,185 15,138.75 16,277.5 17,231.25 18,323.75 19,185 20,231.25 21,138.75 22,323.75 23,323.75 24,138.75 25,92.5 26,138.75 27,138.75 28,277.5 29,138.75 30,231.25 31,92.5 32,138.75 33,231.25 34,92.5 35,323.75 36,138.75 37,138.75 38,92.5 39,138.75 40,92.5 41,138.75 42,92.5 43,92.5 44,138.75 45,185 46,92.5 47,231.25 48,185 49,277.5 50,185 51,185 52,231.25 53,92.5 54,138.75 55,231.25 56,138.75 57,185 58,185 59,138.75 60,138.75 61,370 62,185 63,138.75 64,185 65,185 66,138.75 67,323.75 68,185 69,138.75 70,185 71,277.5 72,138.75 73,185 74,92.5 75,185 76,277.5 77,185 78,138.75 79,231.25 80,231.25 81,185 82,277.5 83,231.25 84,277.5 85,231.25 86,323.75 86.91,370"><title>LR761642.1</title></polygon><rect class="average" height="1" width="86.91" x="0" y="138.28"><title>average:5.01</title></rect><rect class="median" height="1" width="86.91" x="0" y="185"><title>median:4</title></rect><text class="chromName" x="43.45" y="-12">LR761642.1<title>LR761642.1 37,089,910 bp</title></text><rect class="frame" height="370" width="86.91" x="0" y="0"/></g><g id="chrom-LR761643.1" transform="translate(1265.1671710093603,0)"><polygon class="cov1" points="0,370 0,370 1,277.5 2,138.75 3,92.5 4,138.75 5,231.25 6,185 7,138.75 8,138.75 9,46.25 10,92.5 11,138.75 12,92.5 13,185 14,231.25 15,92.5 16,92.5 17,138.75 19,138.75 20,370 21,138.75 22,92.5 23,92.5 24,138.75 25,138.75 26,370 28,370 29,92.5 30,138.75 31,138.75 32,185 33,92.5 34,138.75 35,185 36,231.25 37,92.5 41,92.5 42,138.75 43,231.25 44,92.5 45,138.75 46,92.5 47,231.25 48,138.75 49,92.5 50,138.75 51,92.5 52,92.5 53,138.75 54,138.75 55,92.5 56,46.25 57,92.5 58,46.25 59,92.5 60,46.25 61,92.5 62,138.75 63,92.5 64,138.75 65,185 66,138.75 67,138.75 68,92.5 69,92.5 70,138.75 71,185 72,138.75 73,185 74,46.25 75,185 76,92.5 77,46.25 78,138.75 79,277.5 80,92.5 86,92.5 87,46.25 88,138.75 89,370 90,138.75 91,92.5 92,46.25 93,92.5 94,46.25 95,92.5 96,46.25 99,46.25 100,92.5 101,185 102,92.5 103,92.5 104,138.75 105,92.5 106,46.25 107,46.25 108,92.5 109,46.25 112,46.25 113,138.75 114,138.75 115,92.5 116,46.25 117,92.5 118,92.5 119,138.75 120,92.5 121,46.25 122,92.5 126,92.5 127,185 128,185 129,92.5 130,138.75 131,231.25 132,92.5 133,277.5 134,323.75 134.83,370"><title>LR761643.1</title></polygon><rect class="average" height="1" width="134.83" x="0" y="108.37"><title>average:5.66</title></rect><rect class="median" height="1" width="134.83" x="0" y="138.75"><title>median:5</title></rect><text class="chromName" x="67.42" y="-12">LR761643.1<title>LR761643.1 57,541,580 bp</title></text><rect class="frame" height="370" width="134.83" x="0" y="0"/></g><g><line class="ruler" x1="-2" x2="1390" y1="296" y2="296"><title>1</title></line><text class="ruler" x="-5" y="296">1</text><line class="ruler" x1="-2" x2="1390" y1="259" y2="259"><title>2</title></line><text class="ruler" x="-5" y="259">2</text><line class="ruler" x1="-2" x2="1390" y1="222" y2="222"><title>3</title></line><text class="ruler" x="-5" y="222">3</text><line class="ruler" x1="-2" x2="1390" y1="185" y2="185"><title>4</title></line><text class="ruler" x="-5" y="185">4</text><line class="ruler" x1="-2" x2="1390" y1="111" y2="111"><title>5</title></line><text class="ruler" x="-5" y="111">5</text><line class="ruler" x1="-2" x2="1390" y1="74" y2="74"><title>6</title></line><text class="ruler" x="-5" y="74">6</text><line class="ruler" x1="-2" x2="1390" y1="37" y2="37"><title>7</title></line><text class="ruler" x="-5" y="37">7</text><line class="ruler" x1="-2" x2="1390" y1="0" y2="0"><title>8</title></line><text class="ruler" x="-5" y="0">8</text></g></g><text class="title" x="795" y="40">M01.realigned.bam M01<title>./M01.realigned.bam</title></text><text class="xLabel" x="795" y="475">GCA_902806645.1_cgigas_uk_roslin_v1_genomic.fna  (589,358,857 bp)<title>../ref/GCA_902806645.1_cgigas_uk_roslin_v1_genomic.fna</title></text><text class="yLabel" transform="translate(25,265) rotate(90)" x="0" y="0">Coverage bp (median)</text></g></svg>