<?xml version="1.0" encoding="UTF-8" standalone="no"?><svg height="500" width="1500" xmlns="http://www.w3.org/2000/svg"><title>M02.realigned.bam</title><desc>Made with wgscoverageplotter undefined Author: Pierre Lindenbaum</desc><style>g.maing {stroke:black;stroke-width:0.5px;fill:none;}
text.title {stroke:none;fill:black;stroke-width:1px;text-anchor:middle;}
rect.frame {stroke:darkgray;fill:none;stroke-width:0.5px;}
text.ruler {stroke:none;fill:darkgray;stroke-width:1px;text-anchor:end;}
text.chromName {stroke:none;fill:darkgray;stroke-width:1px;text-anchor:middle;}
text.xLabel {stroke:none;fill:black;stroke-width:1px;text-anchor:middle;}
text.yLabel {stroke:none;fill:black;stroke-width:1px;text-anchor:middle;}
.cov0 {stroke:gray;fill:antiquewhite;stroke-width:0.5px;}
.cov1 {stroke:gray;fill:beige;stroke-width:0.5px;}
rect.average {stroke:green;fill:green;stroke-width:0.5px;opacity:0.3;}
rect.median {stroke:red;fill:red;stroke-width:0.5px;opacity:0.3;}
line.ruler {stroke:darkgray;stroke-dasharray:4;fill:none;stroke-width:1;}
</style><g class="maing"><g id="chromosomes" transform="translate(100.0,80.0)"><g id="chrom-LR761634.1" transform="translate(10.0,0)"><polygon class="cov0" points="0,370 0,317.14 1,185 2,158.57 3,317.14 4,211.43 5,185 6,317.14 7,211.43 8,185 9,132.14 10,158.57 11,105.71 12,158.57 13,211.43 14,211.43 15,132.14 16,132.14 17,211.43 18,132.14 21,132.14 22,158.57 24,158.57 25,105.71 27,105.71 28,132.14 29,105.71 30,105.71 31,132.14 32,264.29 33,105.71 34,132.14 35,132.14 36,105.71 37,185 38,211.43 39,132.14 40,132.14 41,105.71 42,132.14 43,185 44,158.57 45,211.43 46,158.57 47,132.14 48,158.57 49,132.14 51,132.14 52,105.71 53,132.14 54,264.29 55,343.57 56,132.14 57,79.29 58,132.14 59,132.14 60,158.57 61,105.71 62,158.57 63,185 64,211.43 65,158.57 66,132.14 67,211.43 68,132.14 69,211.43 70,132.14 71,105.71 72,211.43 73,185 74,158.57 75,105.71 76,132.14 77,185 78,158.57 79,132.14 80,290.71 81,264.29 82,105.71 83,132.14 85,132.14 86,105.71 87,185 88,132.14 89,237.86 90,158.57 91,132.14 92,132.14 93,158.57 94,105.71 95,132.14 96,105.71 97,185 98,290.71 99,158.57 102,158.57 103,132.14 104,211.43 105,132.14 106,211.43 107,185 108,264.29 109,105.71 110,105.71 111,158.57 112,132.14 113,185 114,343.57 115,185 116,105.71 117,132.14 118,132.14 119,185 120,211.43 121,132.14 122,158.57 123,132.14 124,158.57 125,132.14 126,158.57 127,158.57 128,237.86 129,211.43 130,264.29 130.72,370"><title>LR761634.1</title></polygon><rect class="average" height="1" width="130.72" x="0" y="149.79"><title>average:8.33</title></rect><rect class="median" height="1" width="130.72" x="0" y="158.57"><title>median:8</title></rect><text class="chromName" x="65.36" y="-12">LR761634.1<title>LR761634.1 55,785,328 bp</title></text><rect class="frame" height="370" width="130.72" x="0" y="0"/></g><g id="chrom-LR761635.1" transform="translate(141.71753661284166,0)"><polygon class="cov1" points="0,370 0,370 1,370 2,343.57 3,317.14 4,343.57 5,370 6,264.29 7,317.14 8,343.57 9,211.43 10,132.14 11,237.86 12,237.86 13,185 14,237.86 15,317.14 16,370 17,290.71 18,237.86 20,237.86 21,290.71 22,290.71 23,185 24,343.57 26,343.57 27,317.14 28,237.86 29,343.57 30,343.57 31,370 32,264.29 33,264.29 34,211.43 35,211.43 36,185 37,317.14 38,343.57 39,158.57 41,158.57 42,185 43,211.43 44,185 45,158.57 46,237.86 47,132.14 48,185 49,158.57 50,158.57 51,211.43 52,158.57 53,290.71 54,343.57 55,211.43 56,211.43 57,264.29 58,185 59,290.71 60,343.57 61,290.71 62,158.57 63,317.14 65,317.14 66,264.29 67,317.14 68,264.29 69,237.86 70,317.14 71,237.86 72,317.14 73,264.29 74,237.86 75,185 76,237.86 77,0 78,158.57 79,185 80,132.14 81,158.57 82,158.57 83,185 84,211.43 86,211.43 87,237.86 88,211.43 89,237.86 90,237.86 91,370 92,370 93,290.71 94,370 101,370 102,343.57 103,211.43 104,132.14 105,158.57 106,264.29 107,317.14 108,185 109,211.43 110,290.71 111,211.43 112,343.57 113,370 114,317.14 115,343.57 116,290.71 117,290.71 118,185 119,185 120,158.57 121,158.57 122,237.86 123,237.86 124,264.29 125,158.57 126,237.86 127,237.86 128,158.57 129,132.14 130,158.57 131,290.71 132,211.43 133,317.14 134,343.57 136,343.57 137,317.14 138,343.57 139,290.71 140,343.57 141,317.14 142,343.57 143,317.14 144,237.86 145,264.29 146,237.86 147,158.57 148,185 149,132.14 150,237.86 151,264.29 152,370 153,211.43 154,317.14 155,211.43 156,264.29 157,237.86 158,290.71 159,158.57 160,264.29 161,237.86 162,290.71 163,158.57 164,237.86 165,290.71 166,343.57 168,343.57 169,290.71 170,343.57 171,343.57 171.58,370"><title>LR761635.1</title></polygon><rect class="average" height="1" width="171.58" x="0" y="201.65"><title>average:6.37</title></rect><rect class="median" height="1" width="171.58" x="0" y="264.29"><title>median:4</title></rect><text class="chromName" x="85.79" y="-12">LR761635.1<title>LR761635.1 73,222,313 bp</title></text><rect class="frame" height="370" width="171.58" x="0" y="0"/></g><g id="chrom-LR761636.1" transform="translate(314.2938403401308,0)"><polygon class="cov0" points="0,370 0,343.57 1,211.43 2,290.71 3,343.57 4,237.86 5,158.57 6,185 7,211.43 8,132.14 9,158.57 10,132.14 11,158.57 12,158.57 13,290.71 14,105.71 15,158.57 16,132.14 17,132.14 18,185 19,132.14 22,132.14 23,105.71 24,211.43 25,105.71 26,237.86 27,290.71 28,105.71 29,79.29 30,105.71 33,105.71 34,132.14 35,185 36,132.14 37,158.57 38,132.14 39,132.14 40,105.71 41,132.14 42,158.57 43,132.14 44,132.14 45,158.57 46,158.57 47,132.14 48,185 49,158.57 50,158.57 51,132.14 53,132.14 54,317.14 55,158.57 56,158.57 57,105.71 58,132.14 59,105.71 60,132.14 61,237.86 62,132.14 64,132.14 65,158.57 66,132.14 67,132.14 68,158.57 70,158.57 71,105.71 72,105.71 73,158.57 75,158.57 76,343.57 77,211.43 78,237.86 79,237.86 80,264.29 81,132.14 82,237.86 83,158.57 84,105.71 85,132.14 86,317.14 87,158.57 88,132.14 89,185 90,158.57 91,105.71 92,185 93,158.57 94,132.14 95,158.57 96,211.43 97,132.14 98,132.14 99,158.57 100,185 101,105.71 102,132.14 103,105.71 104,132.14 107,132.14 108,105.71 110,105.71 111,158.57 112,158.57 113,132.14 114,105.71 116,105.71 117,132.14 118,158.57 119,132.14 120,132.14 121,211.43 122,105.71 123,132.14 124,185 125,132.14 126,132.14 127,158.57 128,290.71 129,132.14 130,158.57 131,185 132,158.57 133,185 134,132.14 135,132.14 136,343.57 136.65,370"><title>LR761636.1</title></polygon><rect class="average" height="1" width="136.65" x="0" y="146.62"><title>average:8.45</title></rect><rect class="median" height="1" width="136.65" x="0" y="158.57"><title>median:8</title></rect><text class="chromName" x="68.33" y="-12">LR761636.1<title>LR761636.1 58,319,100 bp</title></text><rect class="frame" height="370" width="136.65" x="0" y="0"/></g><g id="chrom-LR761637.1" transform="translate(451.9485730949149,0)"><polygon class="cov1" points="0,370 0,370 1,343.57 2,370 3,317.14 4,237.86 5,185 6,185 7,290.71 8,290.71 9,317.14 10,343.57 11,132.14 12,237.86 13,290.71 14,317.14 15,185 16,237.86 17,132.14 18,317.14 19,317.14 20,185 22,185 23,237.86 24,317.14 25,132.14 26,132.14 27,237.86 28,211.43 29,237.86 30,290.71 31,158.57 32,158.57 33,185 34,132.14 35,211.43 36,317.14 37,237.86 38,158.57 40,158.57 41,317.14 42,237.86 43,290.71 44,343.57 45,158.57 46,132.14 47,158.57 48,132.14 49,132.14 50,185 51,132.14 52,79.29 53,185 54,105.71 55,132.14 56,158.57 57,237.86 58,290.71 59,317.14 60,317.14 61,211.43 62,132.14 66,132.14 67,158.57 68,185 69,132.14 71,132.14 72,185 73,105.71 74,211.43 75,132.14 77,132.14 78,158.57 79,185 80,158.57 81,158.57 82,132.14 83,132.14 84,158.57 85,132.14 86,211.43 87,158.57 88,105.71 89,132.14 92,132.14 93,237.86 94,185 95,211.43 96,185 97,132.14 99,132.14 100,185 101,211.43 104,211.43 105,290.71 106,132.14 109,132.14 110,105.71 111,185 112,132.14 113,132.14 114,290.71 115,211.43 116,211.43 117,185 118,158.57 119,317.14 120,185 121,158.57 122,264.29 123,343.57 124,290.71 124.49,370"><title>LR761637.1</title></polygon><rect class="average" height="1" width="124.49" x="0" y="168.26"><title>average:7.63</title></rect><rect class="median" height="1" width="124.49" x="0" y="185"><title>median:7</title></rect><text class="chromName" x="62.25" y="-12">LR761637.1<title>LR761637.1 53,127,865 bp</title></text><rect class="frame" height="370" width="124.49" x="0" y="0"/></g><g id="chrom-LR761638.1" transform="translate(577.4390778079033,0)"><polygon class="cov0" points="0,370 0,132.14 1,26.43 2,317.14 3,158.57 4,237.86 5,185 6,211.43 8,211.43 9,158.57 10,185 11,237.86 12,158.57 13,185 14,132.14 15,158.57 16,105.71 17,132.14 18,264.29 19,370 20,132.14 21,185 22,158.57 23,132.14 24,132.14 25,185 26,264.29 27,132.14 28,185 29,343.57 30,290.71 31,158.57 32,370 33,343.57 34,211.43 35,211.43 36,158.57 37,370 38,317.14 39,343.57 40,343.57 41,317.14 42,290.71 43,158.57 44,158.57 45,317.14 46,132.14 48,132.14 49,185 50,211.43 51,158.57 52,132.14 53,158.57 54,211.43 55,185 56,158.57 57,264.29 58,158.57 59,185 60,132.14 61,211.43 62,158.57 63,343.57 65,343.57 66,211.43 67,211.43 68,158.57 69,211.43 70,185 71,370 72,370 73,317.14 74,237.86 75,370 76,343.57 77,211.43 78,317.14 80,317.14 81,158.57 82,264.29 83,343.57 84,317.14 85,185 86,132.14 87,158.57 88,317.14 89,132.14 90,290.71 91,158.57 92,105.71 93,105.71 94,158.57 95,185 96,290.71 97,185 98,264.29 99,185 101,185 102,290.71 103,211.43 104,290.71 105,317.14 106,237.86 107,158.57 108,185 109,237.86 110,264.29 111,211.43 112,317.14 113,237.86 114,264.29 115,237.86 116,343.57 117,317.14 118,317.14 119,370 120,290.71 121,370 123,370 124,317.14 125,343.57 127,343.57 128,370 129,290.71 130,343.57 131,343.57 132,290.71 133,343.57 134,264.29 135,317.14 136,185 137,370 138,370 139,264.29 140,370 141,370 142,343.57 143,264.29 144,158.57 145,211.43 146,237.86 147,158.57 148,158.57 149,185 150,211.43 151,317.14 152,185 153,158.57 154,264.29 155,290.71 156,237.86 157,317.14 158,290.71 159,317.14 160,370 161,317.14 162,317.14 163,211.43 164,343.57 165,370 168,370 169,211.43 170,370 171,370 172,343.57 172.35,370"><title>LR761638.1</title></polygon><rect class="average" height="1" width="172.35" x="0" y="202.83"><title>average:6.33</title></rect><rect class="median" height="1" width="172.35" x="0" y="264.29"><title>median:4</title></rect><text class="chromName" x="86.17" y="-12">LR761638.1<title>LR761638.1 73,550,375 bp</title></text><rect class="frame" height="370" width="172.35" x="0" y="0"/></g><g id="chrom-LR761639.1" transform="translate(750.784104388203,0)"><polygon class="cov1" points="0,370 0,317.14 1,158.57 2,132.14 3,211.43 4,158.57 5,211.43 6,370 7,237.86 8,158.57 9,132.14 10,158.57 11,264.29 12,264.29 13,132.14 14,158.57 15,132.14 16,132.14 17,105.71 20,105.71 21,132.14 22,158.57 23,158.57 24,185 25,211.43 26,185 27,317.14 28,370 29,264.29 30,237.86 31,132.14 32,158.57 33,105.71 34,211.43 35,185 36,185 37,132.14 38,158.57 39,132.14 40,237.86 41,132.14 42,132.14 43,105.71 44,132.14 45,105.71 46,158.57 47,132.14 48,132.14 49,158.57 50,158.57 51,132.14 52,158.57 54,158.57 55,132.14 58,132.14 59,105.71 62,105.71 63,158.57 64,105.71 65,105.71 66,158.57 67,132.14 68,132.14 69,185 70,132.14 72,132.14 73,105.71 74,211.43 75,105.71 76,132.14 77,132.14 78,105.71 79,132.14 80,158.57 81,105.71 82,105.71 83,132.14 84,185 85,132.14 86,105.71 87,132.14 88,105.71 90,105.71 91,132.14 92,132.14 93,158.57 94,158.57 95,132.14 96,105.71 98,105.71 99,132.14 103,132.14 104,105.71 105,132.14 106,237.86 107,132.14 108,105.71 109,132.14 110,132.14 111,343.57 112,185 113,105.71 114,185 115,105.71 116,132.14 118,132.14 119,105.71 120,158.57 121,105.71 122,132.14 123,132.14 124,185 125,132.14 129,132.14 130,185 131,158.57 132,185 133,370 134,132.14 135,211.43 136,211.43 137,158.57 138,185 139,185 140,343.57 140.95,370"><title>LR761639.1</title></polygon><rect class="average" height="1" width="140.95" x="0" y="143.18"><title>average:8.58</title></rect><rect class="median" height="1" width="140.95" x="0" y="158.57"><title>median:8</title></rect><text class="chromName" x="70.47" y="-12">LR761639.1<title>LR761639.1 60,151,564 bp</title></text><rect class="frame" height="370" width="140.95" x="0" y="0"/></g><g id="chrom-LR761640.1" transform="translate(892.7327113317651,0)"><polygon class="cov0" points="0,370 0,211.43 1,132.14 2,211.43 3,185 4,185 5,132.14 6,185 7,211.43 8,132.14 9,158.57 12,158.57 13,264.29 14,185 15,158.57 16,211.43 17,158.57 18,132.14 19,211.43 20,132.14 22,132.14 23,105.71 24,132.14 25,158.57 26,105.71 27,132.14 30,132.14 31,158.57 32,132.14 33,105.71 34,132.14 36,132.14 37,211.43 38,105.71 39,158.57 40,105.71 44,105.71 45,158.57 46,132.14 47,264.29 48,290.71 49,105.71 50,158.57 51,132.14 52,105.71 53,158.57 54,105.71 56,105.71 57,185 58,132.14 59,211.43 60,264.29 61,132.14 62,158.57 63,185 64,132.14 65,237.86 66,132.14 67,132.14 68,158.57 69,211.43 70,158.57 71,132.14 72,158.57 73,185 74,185 75,132.14 76,132.14 77,211.43 78,132.14 79,158.57 80,79.29 81,79.29 82,105.71 83,132.14 84,132.14 85,105.71 86,343.57 87,132.14 88,132.14 89,158.57 90,158.57 91,343.57 92,264.29 93,185 94,211.43 95,158.57 96,132.14 97,132.14 98,158.57 99,132.14 100,105.71 101,211.43 102,343.57 103,237.86 104,105.71 106,105.71 107,158.57 108,185 109,105.71 110,158.57 111,185 112,132.14 113,158.57 114,185 115,132.14 116,290.71 117,343.57 118,370 119,343.57 120,158.57 121,105.71 122,132.14 124,132.14 125,105.71 126,132.14 127,105.71 128,237.86 129,158.57 130,105.71 131,132.14 132,158.57 133,132.14 134,105.71 135,132.14 137,132.14 138,105.71 139,185 140,158.57 141,132.14 142,132.14 143,158.57 144,105.71 145,132.14 145.53,370"><title>LR761640.1</title></polygon><rect class="average" height="1" width="145.53" x="0" y="146.53"><title>average:8.46</title></rect><rect class="median" height="1" width="145.53" x="0" y="158.57"><title>median:8</title></rect><text class="chromName" x="72.77" y="-12">LR761640.1<title>LR761640.1 62,107,823 bp</title></text><rect class="frame" height="370" width="145.53" x="0" y="0"/></g><g id="chrom-LR761641.1" transform="translate(1039.265271917344,0)"><polygon class="cov1" points="0,370 0,290.71 1,158.57 2,237.86 3,211.43 4,105.71 5,264.29 6,317.14 7,290.71 8,317.14 9,211.43 10,185 11,211.43 12,264.29 13,105.71 14,211.43 15,158.57 16,158.57 17,370 18,158.57 20,158.57 21,237.86 22,237.86 23,158.57 24,185 25,132.14 26,290.71 27,237.86 28,237.86 29,264.29 30,237.86 31,211.43 32,290.71 33,290.71 34,317.14 35,317.14 36,343.57 37,317.14 38,290.71 39,317.14 40,185 41,317.14 42,343.57 43,370 44,264.29 45,237.86 46,237.86 47,264.29 48,264.29 49,132.14 50,185 51,158.57 52,132.14 54,132.14 55,105.71 56,132.14 57,185 59,185 60,132.14 61,264.29 62,185 63,211.43 64,211.43 65,237.86 66,211.43 67,237.86 68,237.86 69,158.57 70,237.86 71,132.14 72,158.57 73,343.57 74,211.43 75,317.14 76,185 77,158.57 78,185 79,237.86 80,264.29 81,370 82,370 83,343.57 84,185 85,132.14 86,264.29 87,132.14 88,211.43 89,211.43 90,290.71 91,264.29 92,132.14 93,290.71 94,290.71 95,185 96,185 97,370 98,158.57 99,370 100,317.14 101,158.57 102,185 103,132.14 104,185 105,158.57 106,237.86 107,132.14 108,158.57 110,158.57 111,290.71 112,132.14 113,317.14 114,158.57 115,211.43 116,132.14 117,185 118,158.57 119,211.43 120,211.43 121,158.57 122,185 123,237.86 124,158.57 125,158.57 126,237.86 127,132.14 128,211.43 129,158.57 130,264.29 131,185 133,185 134,132.14 135,370 136,237.86 136.99,370"><title>LR761641.1</title></polygon><rect class="average" height="1" width="136.99" x="0" y="183.52"><title>average:7.06</title></rect><rect class="median" height="1" width="136.99" x="0" y="211.43"><title>median:6</title></rect><text class="chromName" x="68.5" y="-12">LR761641.1<title>LR761641.1 58,462,999 bp</title></text><rect class="frame" height="370" width="136.99" x="0" y="0"/></g><g id="chrom-LR761642.1" transform="translate(1177.25719230686,0)"><polygon class="cov0" points="0,370 0,343.57 1,343.57 2,370 3,237.86 4,264.29 5,317.14 6,290.71 7,264.29 8,317.14 9,343.57 10,264.29 11,211.43 12,290.71 13,158.57 14,211.43 15,185 16,237.86 17,185 18,317.14 19,264.29 20,185 21,185 22,290.71 23,290.71 24,158.57 25,132.14 26,185 27,237.86 28,290.71 29,158.57 30,237.86 31,132.14 32,158.57 33,237.86 34,158.57 35,343.57 36,132.14 37,185 38,105.71 39,185 40,158.57 41,185 42,132.14 43,132.14 44,158.57 45,211.43 46,158.57 47,237.86 48,264.29 49,290.71 50,185 51,264.29 52,237.86 53,132.14 54,132.14 55,211.43 56,185 57,211.43 58,264.29 59,132.14 60,158.57 61,343.57 62,185 63,185 64,211.43 65,185 66,185 67,317.14 68,237.86 69,211.43 70,211.43 71,237.86 72,158.57 73,211.43 74,158.57 75,211.43 76,343.57 77,158.57 78,158.57 79,211.43 80,237.86 81,211.43 82,317.14 83,264.29 84,290.71 85,185 86,317.14 86.91,370"><title>LR761642.1</title></polygon><rect class="average" height="1" width="86.91" x="0" y="178.48"><title>average:7.25</title></rect><rect class="median" height="1" width="86.91" x="0" y="211.43"><title>median:6</title></rect><text class="chromName" x="43.45" y="-12">LR761642.1<title>LR761642.1 37,089,910 bp</title></text><rect class="frame" height="370" width="86.91" x="0" y="0"/></g><g id="chrom-LR761643.1" transform="translate(1265.1671710093603,0)"><polygon class="cov1" points="0,370 0,343.57 1,264.29 2,185 3,132.14 4,158.57 5,211.43 6,185 7,185 8,158.57 9,132.14 10,158.57 11,158.57 12,132.14 13,185 14,237.86 15,132.14 16,105.71 17,132.14 18,158.57 19,185 20,370 21,158.57 22,132.14 23,132.14 24,211.43 25,158.57 26,370 27,343.57 28,370 29,132.14 30,158.57 31,132.14 32,185 33,132.14 34,105.71 35,185 36,264.29 37,105.71 38,132.14 39,105.71 40,132.14 41,132.14 42,158.57 43,290.71 44,132.14 45,158.57 46,105.71 47,185 48,158.57 49,132.14 50,211.43 51,132.14 52,132.14 53,158.57 54,158.57 55,132.14 57,132.14 58,158.57 59,132.14 60,105.71 61,132.14 62,158.57 63,132.14 64,158.57 65,211.43 66,158.57 67,158.57 68,132.14 70,132.14 71,211.43 72,185 73,158.57 74,105.71 75,185 76,132.14 77,105.71 78,211.43 79,264.29 80,105.71 81,105.71 82,132.14 83,132.14 84,105.71 85,105.71 86,132.14 87,105.71 88,158.57 89,370 90,185 91,105.71 92,105.71 93,132.14 94,79.29 95,132.14 96,105.71 99,105.71 100,132.14 101,237.86 102,132.14 103,132.14 104,158.57 105,132.14 106,105.71 107,105.71 108,132.14 109,105.71 112,105.71 113,185 114,158.57 115,132.14 116,105.71 117,105.71 118,132.14 119,158.57 120,105.71 123,105.71 124,132.14 126,132.14 127,237.86 128,211.43 129,132.14 130,185 131,211.43 132,132.14 133,264.29 134,370 134.83,370"><title>LR761643.1</title></polygon><rect class="average" height="1" width="134.83" x="0" y="149.5"><title>average:8.34</title></rect><rect class="median" height="1" width="134.83" x="0" y="158.57"><title>median:8</title></rect><text class="chromName" x="67.42" y="-12">LR761643.1<title>LR761643.1 57,541,580 bp</title></text><rect class="frame" height="370" width="134.83" x="0" y="0"/></g><g><line class="ruler" x1="-2" x2="1390" y1="333" y2="333"><title>1</title></line><text class="ruler" x="-5" y="333">1</text><line class="ruler" x1="-2" x2="1390" y1="296" y2="296"><title>2</title></line><text class="ruler" x="-5" y="296">2</text><line class="ruler" x1="-2" x2="1390" y1="259" y2="259"><title>4</title></line><text class="ruler" x="-5" y="259">4</text><line class="ruler" x1="-2" x2="1390" y1="222" y2="222"><title>5</title></line><text class="ruler" x="-5" y="222">5</text><line class="ruler" x1="-2" x2="1390" y1="185" y2="185"><title>7</title></line><text class="ruler" x="-5" y="185">7</text><line class="ruler" x1="-2" x2="1390" y1="148" y2="148"><title>8</title></line><text class="ruler" x="-5" y="148">8</text><line class="ruler" x1="-2" x2="1390" y1="111" y2="111"><title>9</title></line><text class="ruler" x="-5" y="111">9</text><line class="ruler" x1="-2" x2="1390" y1="74" y2="74"><title>11</title></line><text class="ruler" x="-5" y="74">11</text><line class="ruler" x1="-2" x2="1390" y1="37" y2="37"><title>12</title></line><text class="ruler" x="-5" y="37">12</text><line class="ruler" x1="-2" x2="1390" y1="0" y2="0"><title>14</title></line><text class="ruler" x="-5" y="0">14</text></g></g><text class="title" x="795" y="40">M02.realigned.bam M02<title>./M02.realigned.bam</title></text><text class="xLabel" x="795" y="475">GCA_902806645.1_cgigas_uk_roslin_v1_genomic.fna  (589,358,857 bp)<title>../ref/GCA_902806645.1_cgigas_uk_roslin_v1_genomic.fna</title></text><text class="yLabel" transform="translate(25,265) rotate(90)" x="0" y="0">Coverage bp (median)</text></g></svg>