<?xml version="1.0" encoding="UTF-8" standalone="no"?><svg height="500" width="1500" xmlns="http://www.w3.org/2000/svg"><title>M03.realigned.bam</title><desc>Made with wgscoverageplotter undefined Author: Pierre Lindenbaum</desc><style>g.maing {stroke:black;stroke-width:0.5px;fill:none;}
text.title {stroke:none;fill:black;stroke-width:1px;text-anchor:middle;}
rect.frame {stroke:darkgray;fill:none;stroke-width:0.5px;}
text.ruler {stroke:none;fill:darkgray;stroke-width:1px;text-anchor:end;}
text.chromName {stroke:none;fill:darkgray;stroke-width:1px;text-anchor:middle;}
text.xLabel {stroke:none;fill:black;stroke-width:1px;text-anchor:middle;}
text.yLabel {stroke:none;fill:black;stroke-width:1px;text-anchor:middle;}
.cov0 {stroke:gray;fill:antiquewhite;stroke-width:0.5px;}
.cov1 {stroke:gray;fill:beige;stroke-width:0.5px;}
rect.average {stroke:green;fill:green;stroke-width:0.5px;opacity:0.3;}
rect.median {stroke:red;fill:red;stroke-width:0.5px;opacity:0.3;}
line.ruler {stroke:darkgray;stroke-dasharray:4;fill:none;stroke-width:1;}
</style><g class="maing"><g id="chromosomes" transform="translate(100.0,80.0)"><g id="chrom-LR761634.1" transform="translate(10.0,0)"><polygon class="cov0" points="0,370 0,308.33 1,123.33 2,185 3,308.33 4,246.67 5,123.33 6,308.33 7,185 8,123.33 10,123.33 11,61.67 12,123.33 13,185 14,308.33 15,123.33 17,123.33 18,61.67 20,61.67 21,123.33 24,123.33 25,61.67 27,61.67 28,123.33 29,61.67 30,61.67 31,123.33 32,246.67 33,61.67 34,61.67 35,123.33 36,61.67 37,185 38,123.33 39,61.67 42,61.67 43,123.33 44,123.33 45,185 46,185 47,123.33 48,61.67 49,123.33 51,123.33 52,61.67 53,123.33 54,123.33 55,61.67 58,61.67 59,123.33 60,123.33 61,61.67 62,123.33 63,185 64,185 65,123.33 66,123.33 67,185 68,61.67 69,246.67 70,123.33 71,61.67 72,185 73,185 74,123.33 75,61.67 76,61.67 77,185 78,123.33 79,61.67 80,246.67 81,185 82,61.67 83,123.33 85,123.33 86,61.67 87,185 88,61.67 89,246.67 90,123.33 91,123.33 92,61.67 93,123.33 94,61.67 96,61.67 97,185 98,308.33 99,123.33 103,123.33 104,185 105,123.33 106,185 107,185 108,246.67 109,61.67 110,61.67 111,123.33 112,61.67 113,185 114,308.33 115,185 116,61.67 117,123.33 118,123.33 119,185 120,185 121,123.33 122,123.33 123,61.67 124,123.33 125,61.67 126,123.33 127,123.33 128,185 129,185 130,246.67 130.72,370"><title>LR761634.1</title></polygon><rect class="average" height="1" width="130.72" x="0" y="99.49"><title>average:4.39</title></rect><rect class="median" height="1" width="130.72" x="0" y="123.33"><title>median:4</title></rect><text class="chromName" x="65.36" y="-12">LR761634.1<title>LR761634.1 55,785,328 bp</title></text><rect class="frame" height="370" width="130.72" x="0" y="0"/></g><g id="chrom-LR761635.1" transform="translate(141.71753661284166,0)"><polygon class="cov1" points="0,370 0,370 1,308.33 2,370 5,370 6,123.33 7,308.33 8,308.33 9,185 10,185 11,246.67 12,123.33 13,123.33 14,185 15,246.67 16,246.67 17,185 18,308.33 19,123.33 20,308.33 21,246.67 22,246.67 23,185 24,370 27,370 28,308.33 29,370 31,370 32,246.67 33,246.67 34,308.33 35,185 36,246.67 37,370 38,370 39,185 40,246.67 41,246.67 42,185 43,246.67 44,308.33 45,185 46,185 47,123.33 48,308.33 49,185 50,246.67 51,370 52,185 53,246.67 54,308.33 55,308.33 56,370 57,246.67 58,123.33 59,370 60,246.67 61,246.67 62,123.33 63,185 65,185 66,308.33 69,308.33 70,370 71,123.33 72,185 73,246.67 74,123.33 75,123.33 76,185 77,0 78,123.33 79,185 80,61.67 81,123.33 82,185 90,185 91,370 98,370 99,308.33 100,308.33 101,370 102,370 103,123.33 105,123.33 106,185 107,308.33 108,185 109,246.67 110,308.33 111,185 112,308.33 113,370 114,308.33 115,123.33 116,123.33 117,185 118,123.33 119,123.33 120,61.67 121,123.33 122,123.33 123,246.67 124,308.33 125,123.33 126,246.67 128,246.67 129,308.33 130,185 131,308.33 132,123.33 133,308.33 139,308.33 140,370 141,308.33 142,308.33 143,246.67 146,246.67 147,61.67 148,123.33 149,123.33 150,246.67 151,246.67 152,370 153,246.67 157,246.67 158,185 159,123.33 160,185 161,246.67 162,308.33 163,246.67 164,246.67 165,308.33 166,370 168,370 169,308.33 171,308.33 171.58,370"><title>LR761635.1</title></polygon><rect class="average" height="1" width="171.58" x="0" y="167.05"><title>average:3.29</title></rect><rect class="median" height="1" width="171.58" x="0" y="246.67"><title>median:2</title></rect><text class="chromName" x="85.79" y="-12">LR761635.1<title>LR761635.1 73,222,313 bp</title></text><rect class="frame" height="370" width="171.58" x="0" y="0"/></g><g id="chrom-LR761636.1" transform="translate(314.2938403401308,0)"><polygon class="cov0" points="0,370 0,370 1,123.33 2,246.67 3,308.33 4,246.67 5,123.33 7,123.33 8,61.67 9,123.33 12,123.33 13,246.67 14,61.67 15,123.33 16,123.33 17,61.67 18,123.33 21,123.33 22,61.67 23,61.67 24,185 25,123.33 26,185 27,246.67 28,61.67 33,61.67 34,123.33 35,123.33 36,61.67 37,185 38,123.33 46,123.33 47,61.67 48,123.33 50,123.33 51,61.67 52,61.67 53,123.33 54,246.67 55,185 56,123.33 57,61.67 58,123.33 59,61.67 60,123.33 61,185 62,123.33 63,61.67 64,61.67 65,123.33 69,123.33 70,185 71,61.67 72,61.67 73,185 74,123.33 75,123.33 76,308.33 77,185 78,246.67 80,246.67 81,123.33 82,185 83,123.33 84,61.67 85,123.33 86,308.33 87,123.33 88,123.33 89,185 90,123.33 91,61.67 92,185 93,123.33 94,61.67 95,123.33 96,185 97,123.33 98,61.67 99,185 100,123.33 101,61.67 102,123.33 103,61.67 104,123.33 105,123.33 106,61.67 107,123.33 108,61.67 110,61.67 111,123.33 113,123.33 114,61.67 117,61.67 118,123.33 119,61.67 123,61.67 124,185 125,61.67 126,61.67 127,185 128,246.67 129,123.33 131,123.33 132,185 133,123.33 135,123.33 136,308.33 136.65,370"><title>LR761636.1</title></polygon><rect class="average" height="1" width="136.65" x="0" y="99.39"><title>average:4.39</title></rect><rect class="median" height="1" width="136.65" x="0" y="123.33"><title>median:4</title></rect><text class="chromName" x="68.33" y="-12">LR761636.1<title>LR761636.1 58,319,100 bp</title></text><rect class="frame" height="370" width="136.65" x="0" y="0"/></g><g id="chrom-LR761637.1" transform="translate(451.9485730949149,0)"><polygon class="cov1" points="0,370 0,370 1,246.67 2,246.67 3,185 4,246.67 5,185 6,246.67 8,246.67 9,308.33 10,246.67 11,185 12,246.67 13,308.33 14,308.33 15,123.33 16,246.67 17,123.33 18,308.33 19,308.33 20,246.67 21,123.33 22,123.33 23,246.67 24,370 25,123.33 26,123.33 27,185 28,185 29,246.67 30,308.33 31,123.33 32,123.33 33,185 34,61.67 35,185 36,370 37,246.67 38,123.33 40,123.33 41,308.33 42,185 43,246.67 44,308.33 45,246.67 46,123.33 47,61.67 49,61.67 50,185 51,61.67 52,61.67 53,123.33 54,61.67 55,61.67 56,123.33 57,185 58,246.67 59,308.33 60,308.33 61,185 62,123.33 63,61.67 64,61.67 65,123.33 67,123.33 68,185 69,61.67 70,123.33 71,123.33 72,185 73,123.33 74,185 75,123.33 77,123.33 78,61.67 79,123.33 81,123.33 82,61.67 83,123.33 84,123.33 85,61.67 86,246.67 87,123.33 88,61.67 89,123.33 90,61.67 91,123.33 92,61.67 93,123.33 94,185 96,185 97,123.33 98,61.67 99,123.33 100,246.67 101,308.33 104,308.33 105,185 106,61.67 107,61.67 108,123.33 109,123.33 110,61.67 111,123.33 112,123.33 113,61.67 114,308.33 115,246.67 116,185 117,123.33 118,123.33 119,370 120,185 121,123.33 122,370 123,370 124,308.33 124.49,370"><title>LR761637.1</title></polygon><rect class="average" height="1" width="124.49" x="0" y="131.91"><title>average:3.86</title></rect><rect class="median" height="1" width="124.49" x="0" y="185"><title>median:3</title></rect><text class="chromName" x="62.25" y="-12">LR761637.1<title>LR761637.1 53,127,865 bp</title></text><rect class="frame" height="370" width="124.49" x="0" y="0"/></g><g id="chrom-LR761638.1" transform="translate(577.4390778079033,0)"><polygon class="cov0" points="0,370 0,246.67 1,123.33 2,308.33 3,123.33 4,123.33 5,61.67 6,185 7,185 8,246.67 9,123.33 10,123.33 11,308.33 12,123.33 13,185 14,61.67 15,123.33 17,123.33 18,185 19,308.33 20,61.67 21,185 22,123.33 23,123.33 24,61.67 25,185 26,370 27,61.67 28,185 29,308.33 30,246.67 31,123.33 32,370 33,370 34,185 35,246.67 36,123.33 37,246.67 38,185 39,370 41,370 42,246.67 43,123.33 44,123.33 45,370 46,185 47,61.67 48,123.33 49,185 50,370 51,308.33 52,123.33 53,185 54,246.67 55,246.67 56,123.33 57,185 61,185 62,123.33 63,246.67 64,246.67 65,370 66,185 67,185 68,123.33 69,185 70,123.33 71,185 72,370 73,308.33 74,246.67 75,370 76,185 77,185 78,370 79,246.67 80,246.67 81,185 82,370 83,370 84,246.67 85,185 86,123.33 87,123.33 88,308.33 89,123.33 90,185 91,123.33 92,61.67 93,61.67 94,123.33 95,246.67 96,246.67 97,123.33 98,308.33 99,185 101,185 102,308.33 103,185 104,308.33 105,308.33 106,246.67 107,123.33 108,246.67 109,185 110,185 111,123.33 112,308.33 113,246.67 115,246.67 116,308.33 117,370 118,308.33 120,308.33 121,370 123,370 124,308.33 126,308.33 127,246.67 128,370 129,308.33 130,370 131,246.67 132,308.33 133,370 134,308.33 135,308.33 136,123.33 137,370 138,370 139,246.67 140,370 142,370 143,246.67 144,185 145,185 146,308.33 147,123.33 148,123.33 149,185 150,185 151,308.33 152,185 153,185 154,246.67 155,308.33 156,185 157,308.33 159,308.33 160,370 161,308.33 164,308.33 165,370 168,370 169,246.67 170,370 172,370 172.35,370"><title>LR761638.1</title></polygon><rect class="average" height="1" width="172.35" x="0" y="171.12"><title>average:3.23</title></rect><rect class="median" height="1" width="172.35" x="0" y="246.67"><title>median:2</title></rect><text class="chromName" x="86.17" y="-12">LR761638.1<title>LR761638.1 73,550,375 bp</title></text><rect class="frame" height="370" width="172.35" x="0" y="0"/></g><g id="chrom-LR761639.1" transform="translate(750.784104388203,0)"><polygon class="cov1" points="0,370 0,308.33 1,123.33 2,123.33 3,308.33 4,123.33 5,246.67 6,370 7,185 8,123.33 10,123.33 11,246.67 12,246.67 13,61.67 14,123.33 15,61.67 16,123.33 17,61.67 20,61.67 21,123.33 22,123.33 23,185 25,185 26,123.33 27,370 28,370 29,246.67 30,370 31,123.33 32,123.33 33,61.67 34,185 35,246.67 36,185 37,123.33 38,123.33 39,61.67 40,246.67 41,61.67 42,123.33 43,61.67 44,123.33 45,61.67 46,123.33 50,123.33 51,61.67 52,123.33 54,123.33 55,61.67 56,61.67 57,123.33 58,123.33 59,61.67 60,61.67 61,123.33 62,123.33 63,61.67 66,61.67 67,123.33 68,123.33 69,185 70,123.33 72,123.33 73,61.67 74,185 75,61.67 76,123.33 77,123.33 78,61.67 79,61.67 80,123.33 81,61.67 82,61.67 83,123.33 84,185 85,123.33 86,61.67 90,61.67 91,123.33 92,123.33 93,185 94,123.33 95,123.33 96,61.67 101,61.67 102,123.33 103,123.33 104,61.67 105,61.67 106,246.67 107,123.33 108,61.67 109,123.33 110,61.67 111,370 112,185 113,61.67 114,123.33 115,61.67 116,123.33 118,123.33 119,61.67 120,123.33 121,61.67 123,61.67 124,123.33 131,123.33 132,185 133,370 134,123.33 135,185 136,123.33 137,185 138,246.67 139,185 140,246.67 140.95,370"><title>LR761639.1</title></polygon><rect class="average" height="1" width="140.95" x="0" y="99.39"><title>average:4.39</title></rect><rect class="median" height="1" width="140.95" x="0" y="123.33"><title>median:4</title></rect><text class="chromName" x="70.47" y="-12">LR761639.1<title>LR761639.1 60,151,564 bp</title></text><rect class="frame" height="370" width="140.95" x="0" y="0"/></g><g id="chrom-LR761640.1" transform="translate(892.7327113317651,0)"><polygon class="cov0" points="0,370 0,185 1,123.33 2,185 3,123.33 4,185 5,123.33 6,185 7,185 8,123.33 11,123.33 12,61.67 13,308.33 14,185 15,123.33 16,185 17,123.33 18,61.67 19,185 20,61.67 21,123.33 22,61.67 23,61.67 24,123.33 25,123.33 26,61.67 27,61.67 28,123.33 29,61.67 33,61.67 34,123.33 35,61.67 36,123.33 37,185 38,61.67 39,123.33 40,61.67 44,61.67 45,123.33 46,123.33 47,246.67 48,246.67 49,61.67 50,123.33 51,123.33 52,61.67 53,123.33 54,61.67 55,123.33 56,61.67 57,246.67 58,123.33 59,185 60,246.67 61,61.67 62,123.33 63,185 64,123.33 65,308.33 66,123.33 68,123.33 69,185 70,185 71,123.33 72,123.33 73,185 74,123.33 75,123.33 76,61.67 77,185 78,61.67 79,123.33 80,61.67 81,0 82,61.67 83,123.33 84,123.33 85,61.67 86,308.33 87,123.33 90,123.33 91,308.33 92,246.67 93,123.33 94,308.33 95,123.33 99,123.33 100,61.67 101,185 102,370 103,246.67 104,61.67 106,61.67 107,123.33 108,185 109,61.67 110,123.33 111,185 112,123.33 113,123.33 114,61.67 115,123.33 116,308.33 117,370 118,370 119,308.33 120,123.33 121,61.67 122,123.33 123,61.67 124,123.33 125,61.67 127,61.67 128,246.67 129,123.33 130,61.67 131,61.67 132,123.33 133,61.67 135,61.67 136,123.33 138,123.33 139,185 140,61.67 141,61.67 142,185 143,185 144,123.33 145,123.33 145.53,370"><title>LR761640.1</title></polygon><rect class="average" height="1" width="145.53" x="0" y="103.06"><title>average:4.33</title></rect><rect class="median" height="1" width="145.53" x="0" y="123.33"><title>median:4</title></rect><text class="chromName" x="72.77" y="-12">LR761640.1<title>LR761640.1 62,107,823 bp</title></text><rect class="frame" height="370" width="145.53" x="0" y="0"/></g><g id="chrom-LR761641.1" transform="translate(1039.265271917344,0)"><polygon class="cov1" points="0,370 0,185 1,123.33 2,246.67 3,123.33 4,61.67 5,246.67 6,308.33 7,185 8,308.33 9,185 10,123.33 11,123.33 12,185 13,61.67 14,123.33 16,123.33 17,370 18,123.33 28,123.33 29,185 30,123.33 33,123.33 34,370 35,308.33 36,246.67 37,308.33 38,185 40,185 41,246.67 42,185 43,185 44,123.33 45,308.33 46,308.33 47,185 48,123.33 49,123.33 50,185 51,123.33 54,123.33 55,61.67 56,61.67 57,123.33 58,185 59,123.33 60,123.33 61,370 62,123.33 65,123.33 66,185 68,185 69,123.33 70,123.33 71,61.67 72,185 73,370 74,185 75,370 76,185 77,185 78,123.33 79,246.67 80,246.67 81,370 83,370 84,185 85,123.33 86,246.67 87,61.67 88,246.67 89,185 90,308.33 91,185 92,123.33 93,185 94,308.33 95,185 96,185 97,370 98,123.33 99,370 100,246.67 101,123.33 103,123.33 104,185 105,123.33 106,308.33 107,123.33 110,123.33 111,308.33 112,123.33 113,308.33 114,123.33 115,185 116,61.67 117,123.33 118,123.33 119,185 120,123.33 124,123.33 125,185 126,246.67 127,123.33 128,185 129,123.33 130,246.67 131,123.33 132,185 133,123.33 134,123.33 135,370 136,308.33 136.99,370"><title>LR761641.1</title></polygon><rect class="average" height="1" width="136.99" x="0" y="128.93"><title>average:3.91</title></rect><rect class="median" height="1" width="136.99" x="0" y="185"><title>median:3</title></rect><text class="chromName" x="68.5" y="-12">LR761641.1<title>LR761641.1 58,462,999 bp</title></text><rect class="frame" height="370" width="136.99" x="0" y="0"/></g><g id="chrom-LR761642.1" transform="translate(1177.25719230686,0)"><polygon class="cov0" points="0,370 0,308.33 1,246.67 2,308.33 4,308.33 5,370 6,308.33 11,308.33 12,246.67 13,123.33 14,185 15,185 16,308.33 17,246.67 18,308.33 19,246.67 20,185 21,123.33 22,246.67 23,308.33 24,123.33 26,123.33 27,185 28,308.33 29,123.33 30,246.67 31,123.33 32,123.33 33,246.67 34,123.33 35,308.33 36,123.33 37,123.33 38,61.67 39,185 40,123.33 41,185 42,61.67 43,123.33 44,123.33 45,185 46,123.33 47,246.67 48,185 49,308.33 50,185 52,185 53,61.67 54,123.33 55,185 56,123.33 57,185 58,185 59,123.33 60,123.33 61,308.33 62,185 63,123.33 64,185 66,185 67,308.33 68,246.67 69,123.33 70,123.33 71,308.33 72,123.33 73,185 74,123.33 75,246.67 76,308.33 77,123.33 78,123.33 79,246.67 80,246.67 81,185 82,308.33 83,246.67 84,308.33 85,246.67 86,370 86.91,370"><title>LR761642.1</title></polygon><rect class="average" height="1" width="86.91" x="0" y="132.42"><title>average:3.85</title></rect><rect class="median" height="1" width="86.91" x="0" y="185"><title>median:3</title></rect><text class="chromName" x="43.45" y="-12">LR761642.1<title>LR761642.1 37,089,910 bp</title></text><rect class="frame" height="370" width="86.91" x="0" y="0"/></g><g id="chrom-LR761643.1" transform="translate(1265.1671710093603,0)"><polygon class="cov1" points="0,370 0,308.33 1,308.33 2,185 3,61.67 4,123.33 5,246.67 6,185 7,123.33 8,61.67 10,61.67 11,123.33 12,61.67 13,185 14,246.67 15,123.33 16,61.67 17,123.33 18,123.33 19,185 20,370 21,123.33 22,123.33 23,61.67 24,185 25,185 26,370 27,308.33 28,308.33 29,61.67 30,246.67 31,123.33 32,246.67 33,123.33 34,123.33 35,185 36,246.67 37,61.67 38,123.33 39,61.67 40,123.33 41,123.33 42,185 43,246.67 44,123.33 45,185 46,61.67 47,246.67 48,123.33 50,123.33 51,61.67 52,123.33 53,185 54,123.33 55,61.67 57,61.67 58,123.33 59,123.33 60,61.67 61,61.67 62,123.33 72,123.33 73,246.67 74,61.67 75,123.33 76,123.33 77,61.67 78,185 79,246.67 80,123.33 81,61.67 82,123.33 83,123.33 84,61.67 85,61.67 86,123.33 87,61.67 88,123.33 89,308.33 90,123.33 91,123.33 92,61.67 93,123.33 94,61.67 95,123.33 96,61.67 100,61.67 101,246.67 102,123.33 105,123.33 106,61.67 107,61.67 108,123.33 109,61.67 112,61.67 113,246.67 114,123.33 115,123.33 116,61.67 117,61.67 118,123.33 119,123.33 120,61.67 123,61.67 124,123.33 125,123.33 126,61.67 127,185 128,123.33 129,61.67 130,123.33 131,246.67 132,123.33 133,308.33 134,370 134.83,370"><title>LR761643.1</title></polygon><rect class="average" height="1" width="134.83" x="0" y="107.02"><title>average:4.26</title></rect><rect class="median" height="1" width="134.83" x="0" y="123.33"><title>median:4</title></rect><text class="chromName" x="67.42" y="-12">LR761643.1<title>LR761643.1 57,541,580 bp</title></text><rect class="frame" height="370" width="134.83" x="0" y="0"/></g><g><line class="ruler" x1="-2" x2="1390" y1="296" y2="296"><title>1</title></line><text class="ruler" x="-5" y="296">1</text><line class="ruler" x1="-2" x2="1390" y1="222" y2="222"><title>2</title></line><text class="ruler" x="-5" y="222">2</text><line class="ruler" x1="-2" x2="1390" y1="185" y2="185"><title>3</title></line><text class="ruler" x="-5" y="185">3</text><line class="ruler" x1="-2" x2="1390" y1="111" y2="111"><title>4</title></line><text class="ruler" x="-5" y="111">4</text><line class="ruler" x1="-2" x2="1390" y1="37" y2="37"><title>5</title></line><text class="ruler" x="-5" y="37">5</text><line class="ruler" x1="-2" x2="1390" y1="0" y2="0"><title>6</title></line><text class="ruler" x="-5" y="0">6</text></g></g><text class="title" x="795" y="40">M03.realigned.bam M03<title>./M03.realigned.bam</title></text><text class="xLabel" x="795" y="475">GCA_902806645.1_cgigas_uk_roslin_v1_genomic.fna  (589,358,857 bp)<title>../ref/GCA_902806645.1_cgigas_uk_roslin_v1_genomic.fna</title></text><text class="yLabel" transform="translate(25,265) rotate(90)" x="0" y="0">Coverage bp (median)</text></g></svg>