<?xml version="1.0" encoding="UTF-8" standalone="no"?><svg height="500" width="1500" xmlns="http://www.w3.org/2000/svg"><title>M04.realigned.bam</title><desc>Made with wgscoverageplotter undefined Author: Pierre Lindenbaum</desc><style>g.maing {stroke:black;stroke-width:0.5px;fill:none;}
text.title {stroke:none;fill:black;stroke-width:1px;text-anchor:middle;}
rect.frame {stroke:darkgray;fill:none;stroke-width:0.5px;}
text.ruler {stroke:none;fill:darkgray;stroke-width:1px;text-anchor:end;}
text.chromName {stroke:none;fill:darkgray;stroke-width:1px;text-anchor:middle;}
text.xLabel {stroke:none;fill:black;stroke-width:1px;text-anchor:middle;}
text.yLabel {stroke:none;fill:black;stroke-width:1px;text-anchor:middle;}
.cov0 {stroke:gray;fill:antiquewhite;stroke-width:0.5px;}
.cov1 {stroke:gray;fill:beige;stroke-width:0.5px;}
rect.average {stroke:green;fill:green;stroke-width:0.5px;opacity:0.3;}
rect.median {stroke:red;fill:red;stroke-width:0.5px;opacity:0.3;}
line.ruler {stroke:darkgray;stroke-dasharray:4;fill:none;stroke-width:1;}
</style><g class="maing"><g id="chromosomes" transform="translate(100.0,80.0)"><g id="chrom-LR761634.1" transform="translate(10.0,0)"><polygon class="cov0" points="0,370 0,185 1,111 2,185 3,296 4,185 5,185 6,259 7,148 8,111 9,111 10,148 11,74 12,111 13,148 14,259 15,111 16,111 17,222 18,111 21,111 22,148 24,148 25,111 28,111 29,74 30,74 31,111 32,222 33,74 34,111 35,111 36,74 37,148 38,148 39,111 41,111 42,74 43,148 44,111 45,148 46,185 47,111 51,111 52,74 53,111 54,111 55,74 57,74 58,111 60,111 61,74 62,111 63,148 64,185 65,148 66,111 67,185 68,111 69,185 70,111 71,111 72,185 73,148 74,111 76,111 77,148 78,148 79,111 80,259 81,259 82,111 85,111 86,74 87,185 88,111 89,259 90,148 91,111 92,111 93,148 94,74 95,111 96,74 97,222 98,222 99,111 100,111 101,222 102,148 103,185 104,185 105,74 106,222 107,148 108,296 109,74 110,111 111,148 112,111 113,148 114,296 115,185 116,111 118,111 119,148 120,185 121,111 123,111 124,148 127,148 128,185 129,222 130,222 130.72,370"><title>LR761634.1</title></polygon><rect class="average" height="1" width="130.72" x="0" y="120.44"><title>average:6.74</title></rect><rect class="median" height="1" width="130.72" x="0" y="148"><title>median:6</title></rect><text class="chromName" x="65.36" y="-12">LR761634.1<title>LR761634.1 55,785,328 bp</title></text><rect class="frame" height="370" width="130.72" x="0" y="0"/></g><g id="chrom-LR761635.1" transform="translate(141.71753661284166,0)"><polygon class="cov1" points="0,370 0,370 1,370 2,333 3,296 4,370 5,333 6,222 7,296 8,333 9,222 10,222 11,296 12,185 13,148 14,185 15,296 16,333 17,185 18,296 19,185 20,296 21,259 22,296 23,259 24,370 26,370 27,333 28,259 29,370 31,370 32,222 34,222 35,259 36,259 37,296 38,333 39,185 40,259 41,222 42,148 43,259 44,111 45,185 46,222 47,148 48,296 49,185 50,222 51,333 52,259 53,259 54,222 55,296 56,370 57,296 58,185 59,259 60,370 61,296 62,148 63,296 64,259 66,259 67,333 68,259 69,333 70,222 72,222 73,185 74,222 75,185 76,296 77,74 78,259 79,333 80,185 81,296 82,333 83,222 84,370 85,333 86,370 89,370 90,333 91,259 92,296 93,333 94,259 95,259 96,370 97,370 98,333 99,333 100,370 101,333 102,333 103,222 104,185 105,148 106,296 107,259 108,185 109,185 110,370 111,185 112,333 113,370 114,296 115,333 116,333 117,259 118,148 119,185 120,111 121,148 122,222 123,222 124,259 125,111 126,185 127,222 128,148 130,148 131,296 132,222 133,333 134,296 135,259 136,259 137,296 138,296 139,259 140,370 141,296 142,333 143,259 145,259 146,222 147,111 148,148 149,148 150,259 151,296 152,333 153,222 154,259 156,259 157,185 158,222 159,148 160,296 161,222 162,296 163,296 164,259 165,259 166,296 167,296 168,259 169,222 170,333 171,333 171.58,370"><title>LR761635.1</title></polygon><rect class="average" height="1" width="171.58" x="0" y="195.45"><title>average:4.72</title></rect><rect class="median" height="1" width="171.58" x="0" y="259"><title>median:3</title></rect><text class="chromName" x="85.79" y="-12">LR761635.1<title>LR761635.1 73,222,313 bp</title></text><rect class="frame" height="370" width="171.58" x="0" y="0"/></g><g id="chrom-LR761636.1" transform="translate(314.2938403401308,0)"><polygon class="cov0" points="0,370 0,333 1,148 2,222 3,333 4,222 5,148 7,148 8,111 9,148 10,111 12,111 13,259 14,111 17,111 18,148 19,148 20,111 23,111 24,185 25,74 26,185 27,222 28,74 33,74 34,111 35,148 36,111 37,148 38,111 39,111 40,185 41,148 43,148 44,111 45,148 46,148 47,111 48,259 49,148 50,148 51,74 52,111 53,111 54,222 55,148 56,148 57,111 58,148 59,111 60,111 61,148 62,148 63,111 64,111 65,148 66,111 67,111 68,148 70,148 71,74 72,74 73,111 74,148 75,111 76,333 77,185 78,222 79,259 80,259 81,111 82,185 83,148 84,74 85,111 86,370 87,111 88,111 89,185 90,111 91,111 92,148 93,148 94,111 95,185 96,148 97,111 98,111 99,185 100,148 101,111 102,111 103,74 104,111 107,111 108,74 109,111 110,111 111,148 112,111 113,148 114,74 116,74 117,111 118,148 119,111 120,111 121,222 122,74 123,111 124,185 125,111 126,111 127,185 128,259 129,111 131,111 132,148 133,111 135,111 136,296 136.65,370"><title>LR761636.1</title></polygon><rect class="average" height="1" width="136.65" x="0" y="122.24"><title>average:6.7</title></rect><rect class="median" height="1" width="136.65" x="0" y="148"><title>median:6</title></rect><text class="chromName" x="68.33" y="-12">LR761636.1<title>LR761636.1 58,319,100 bp</title></text><rect class="frame" height="370" width="136.65" x="0" y="0"/></g><g id="chrom-LR761637.1" transform="translate(451.9485730949149,0)"><polygon class="cov1" points="0,370 0,222 1,185 2,185 3,148 4,185 5,111 6,111 7,222 8,185 9,185 10,333 11,185 12,185 13,222 14,333 15,185 16,222 17,74 18,185 19,259 20,222 21,148 22,148 23,185 24,296 25,185 26,111 27,259 28,185 29,259 30,259 31,148 33,148 34,74 35,185 36,259 37,111 38,148 39,148 40,111 41,333 42,222 43,296 44,333 45,222 46,148 47,111 49,111 50,148 51,111 52,74 53,148 54,74 55,111 56,111 57,185 58,296 59,333 60,333 61,148 62,74 63,111 64,74 65,111 67,111 68,185 69,74 70,111 71,111 72,185 73,111 74,148 75,148 76,111 77,148 78,148 79,111 80,148 81,185 82,111 83,111 84,148 85,111 86,185 87,148 88,111 92,111 93,148 94,185 95,222 96,185 97,111 99,111 100,222 101,259 102,296 103,333 104,259 105,185 106,111 111,111 112,148 113,111 114,296 115,222 116,185 117,148 118,148 119,296 120,185 121,111 122,333 123,333 124,296 124.49,370"><title>LR761637.1</title></polygon><rect class="average" height="1" width="124.49" x="0" y="144.83"><title>average:6.09</title></rect><rect class="median" height="1" width="124.49" x="0" y="185"><title>median:5</title></rect><text class="chromName" x="62.25" y="-12">LR761637.1<title>LR761637.1 53,127,865 bp</title></text><rect class="frame" height="370" width="124.49" x="0" y="0"/></g><g id="chrom-LR761638.1" transform="translate(577.4390778079033,0)"><polygon class="cov0" points="0,370 0,222 1,148 2,333 3,148 4,259 5,148 6,185 8,185 9,111 10,148 11,296 12,111 13,148 14,111 15,148 16,74 17,111 18,185 19,370 20,148 21,222 22,111 24,111 25,148 26,370 27,111 28,185 29,333 30,222 31,148 32,370 33,370 34,185 35,222 36,148 37,296 38,333 39,333 40,370 41,333 42,222 43,111 44,148 45,333 46,185 47,111 48,111 49,222 50,370 51,259 52,185 53,148 54,222 55,222 56,148 57,222 58,148 59,185 60,148 61,222 62,148 63,333 64,333 65,370 66,222 67,222 68,185 69,296 70,148 71,333 72,370 73,296 74,259 75,333 76,333 77,222 78,370 79,370 80,296 81,185 82,333 83,370 84,333 85,185 86,111 87,148 88,333 89,111 90,296 91,111 94,111 95,222 96,259 97,185 98,259 99,185 101,185 102,259 103,185 104,259 105,296 106,259 107,111 108,259 109,185 110,259 111,185 112,333 113,259 114,296 115,296 116,333 117,370 118,333 119,296 120,296 121,370 123,370 124,333 125,333 126,296 127,296 128,370 129,259 130,370 131,333 132,296 133,333 134,222 135,296 136,185 137,370 138,370 139,259 140,370 141,370 142,333 143,259 144,148 145,185 146,222 147,148 148,148 149,185 150,222 151,333 152,185 153,148 154,259 155,296 156,222 157,259 158,333 159,333 160,370 161,333 162,296 163,333 164,370 168,370 169,222 170,370 172,370 172.35,370"><title>LR761638.1</title></polygon><rect class="average" height="1" width="172.35" x="0" y="195.4"><title>average:4.72</title></rect><rect class="median" height="1" width="172.35" x="0" y="259"><title>median:3</title></rect><text class="chromName" x="86.17" y="-12">LR761638.1<title>LR761638.1 73,550,375 bp</title></text><rect class="frame" height="370" width="172.35" x="0" y="0"/></g><g id="chrom-LR761639.1" transform="translate(750.784104388203,0)"><polygon class="cov1" points="0,370 0,296 1,148 2,111 3,259 4,148 5,222 6,370 7,222 8,148 9,111 10,185 11,185 12,333 13,111 14,148 15,111 16,111 17,74 18,111 19,111 20,74 21,111 22,148 24,148 25,185 26,185 27,296 28,370 29,296 30,333 31,111 32,148 33,111 34,185 35,148 36,222 37,111 39,111 40,222 41,111 42,111 43,74 44,111 45,74 46,148 47,111 48,111 49,148 50,111 51,111 52,148 53,111 62,111 63,148 64,74 65,111 68,111 69,148 70,111 73,111 74,185 75,111 79,111 80,148 81,74 82,74 83,111 84,185 85,111 86,74 87,111 88,74 89,111 90,74 91,111 92,111 93,148 94,148 95,111 96,111 97,74 98,74 99,111 100,74 101,74 102,111 103,111 104,74 105,74 106,222 107,111 108,74 110,74 111,185 112,111 113,74 114,148 115,74 116,148 117,111 118,111 119,74 120,148 121,111 123,111 124,185 125,74 126,111 127,111 128,148 129,111 130,148 131,148 132,222 133,370 134,111 135,185 136,148 137,148 138,185 139,111 140,111 140.95,370"><title>LR761639.1</title></polygon><rect class="average" height="1" width="140.95" x="0" y="117.43"><title>average:6.83</title></rect><rect class="median" height="1" width="140.95" x="0" y="111"><title>median:7</title></rect><text class="chromName" x="70.47" y="-12">LR761639.1<title>LR761639.1 60,151,564 bp</title></text><rect class="frame" height="370" width="140.95" x="0" y="0"/></g><g id="chrom-LR761640.1" transform="translate(892.7327113317651,0)"><polygon class="cov0" points="0,370 0,185 1,111 2,185 3,148 4,185 5,111 6,185 7,185 8,148 9,222 10,111 12,111 13,259 14,148 15,148 16,185 17,111 18,111 19,222 20,111 22,111 23,74 24,111 25,148 26,74 27,111 36,111 37,185 38,74 39,148 40,74 43,74 44,111 45,111 46,148 47,222 48,333 49,111 50,148 51,111 53,111 54,74 55,74 56,111 57,148 59,148 60,222 61,111 62,111 63,185 64,111 65,259 66,111 67,111 68,148 69,185 70,148 71,111 72,148 73,185 74,148 75,111 76,111 77,222 78,111 79,148 80,74 81,37 82,74 83,111 85,111 86,296 87,148 90,148 91,333 92,296 93,148 94,259 95,148 96,111 97,111 98,148 99,111 100,74 101,185 102,333 103,185 104,111 105,111 106,74 107,185 108,148 109,111 110,148 111,185 112,111 113,148 114,148 115,111 116,333 117,333 118,370 119,333 120,111 121,74 122,111 127,111 128,259 129,148 130,111 131,74 132,148 133,111 134,74 135,74 136,111 138,111 139,185 140,148 141,111 142,148 143,296 144,148 145,111 145.53,370"><title>LR761640.1</title></polygon><rect class="average" height="1" width="145.53" x="0" y="125.32"><title>average:6.61</title></rect><rect class="median" height="1" width="145.53" x="0" y="148"><title>median:6</title></rect><text class="chromName" x="72.77" y="-12">LR761640.1<title>LR761640.1 62,107,823 bp</title></text><rect class="frame" height="370" width="145.53" x="0" y="0"/></g><g id="chrom-LR761641.1" transform="translate(1039.265271917344,0)"><polygon class="cov1" points="0,370 0,259 1,185 2,259 3,185 4,111 5,185 6,222 7,259 8,296 9,185 10,111 11,185 12,222 13,74 14,222 15,148 16,185 17,370 18,148 19,111 20,111 21,148 22,185 23,148 25,148 26,259 27,185 28,259 29,333 30,222 32,222 33,185 34,296 35,296 36,370 37,296 38,259 39,259 40,148 41,296 42,333 43,333 44,259 45,222 46,259 47,296 48,222 49,111 50,148 51,148 52,111 54,111 55,74 56,111 57,185 58,185 59,148 60,111 61,185 62,148 63,222 64,148 65,185 66,222 67,259 68,259 69,111 70,296 71,111 72,185 73,333 74,222 75,333 76,148 77,185 78,148 79,222 80,296 81,333 82,333 83,296 84,185 85,148 86,259 87,111 88,222 89,185 90,259 91,185 92,148 93,222 94,370 95,259 96,185 97,333 98,111 99,370 100,296 101,111 102,185 103,111 104,185 105,111 106,259 107,111 108,148 110,148 111,296 112,111 113,185 114,148 115,148 116,111 117,185 118,111 119,222 120,296 121,148 122,185 123,259 124,148 125,222 126,259 127,111 128,259 129,185 130,259 131,222 132,370 133,296 134,185 135,370 136,370 136.99,370"><title>LR761641.1</title></polygon><rect class="average" height="1" width="136.99" x="0" y="166.26"><title>average:5.51</title></rect><rect class="median" height="1" width="136.99" x="0" y="222"><title>median:4</title></rect><text class="chromName" x="68.5" y="-12">LR761641.1<title>LR761641.1 58,462,999 bp</title></text><rect class="frame" height="370" width="136.99" x="0" y="0"/></g><g id="chrom-LR761642.1" transform="translate(1177.25719230686,0)"><polygon class="cov0" points="0,370 0,333 2,333 3,296 4,333 8,333 9,296 10,296 11,259 12,259 13,148 14,148 15,222 16,296 17,222 18,296 19,259 20,222 21,148 22,296 23,222 24,148 25,111 26,185 27,185 28,259 29,148 30,259 31,111 32,148 33,185 34,148 35,333 36,111 37,185 38,111 39,185 40,111 41,148 42,111 44,111 45,185 46,148 47,259 48,296 49,296 50,185 51,222 52,222 53,111 54,111 55,222 56,148 57,222 58,222 59,111 60,148 61,333 62,222 63,111 64,222 65,185 66,148 67,333 68,259 69,111 70,74 71,259 72,148 73,185 74,148 75,185 76,333 77,148 78,148 79,259 80,259 81,185 82,333 83,259 84,296 85,185 86,333 86.91,370"><title>LR761642.1</title></polygon><rect class="average" height="1" width="86.91" x="0" y="154.29"><title>average:5.83</title></rect><rect class="median" height="1" width="86.91" x="0" y="222"><title>median:4</title></rect><text class="chromName" x="43.45" y="-12">LR761642.1<title>LR761642.1 37,089,910 bp</title></text><rect class="frame" height="370" width="86.91" x="0" y="0"/></g><g id="chrom-LR761643.1" transform="translate(1265.1671710093603,0)"><polygon class="cov1" points="0,370 0,370 1,259 2,148 3,111 4,148 5,222 6,185 7,185 8,148 9,111 10,111 11,148 12,111 13,185 14,222 15,111 16,111 17,148 18,148 19,185 20,370 21,148 22,111 23,111 24,185 25,148 26,370 27,333 28,296 29,111 30,222 31,148 32,222 33,111 34,74 35,148 36,259 37,74 38,111 41,111 42,148 43,296 44,148 45,148 46,74 47,259 48,148 49,111 50,222 51,111 52,111 53,148 54,148 55,111 57,111 58,148 59,111 60,74 61,111 62,148 63,111 64,111 65,185 66,148 67,111 68,148 69,111 70,148 71,222 72,185 73,222 74,111 75,222 76,111 77,74 78,111 79,259 80,111 81,74 82,111 83,111 84,74 85,111 86,111 87,74 88,148 89,333 90,148 91,111 92,74 93,148 94,74 95,111 96,74 97,111 98,74 99,74 100,111 101,259 102,111 103,111 104,148 105,111 106,74 107,74 108,111 109,74 112,74 113,185 114,148 115,111 116,74 118,74 119,148 120,111 121,74 123,74 124,111 126,111 127,185 128,148 129,111 130,148 131,222 132,111 133,259 134,370 134.83,370"><title>LR761643.1</title></polygon><rect class="average" height="1" width="134.83" x="0" y="128.69"><title>average:6.52</title></rect><rect class="median" height="1" width="134.83" x="0" y="148"><title>median:6</title></rect><text class="chromName" x="67.42" y="-12">LR761643.1<title>LR761643.1 57,541,580 bp</title></text><rect class="frame" height="370" width="134.83" x="0" y="0"/></g><g><line class="ruler" x1="-2" x2="1390" y1="333" y2="333"><title>1</title></line><text class="ruler" x="-5" y="333">1</text><line class="ruler" x1="-2" x2="1390" y1="296" y2="296"><title>2</title></line><text class="ruler" x="-5" y="296">2</text><line class="ruler" x1="-2" x2="1390" y1="259" y2="259"><title>3</title></line><text class="ruler" x="-5" y="259">3</text><line class="ruler" x1="-2" x2="1390" y1="222" y2="222"><title>4</title></line><text class="ruler" x="-5" y="222">4</text><line class="ruler" x1="-2" x2="1390" y1="185" y2="185"><title>5</title></line><text class="ruler" x="-5" y="185">5</text><line class="ruler" x1="-2" x2="1390" y1="148" y2="148"><title>6</title></line><text class="ruler" x="-5" y="148">6</text><line class="ruler" x1="-2" x2="1390" y1="111" y2="111"><title>7</title></line><text class="ruler" x="-5" y="111">7</text><line class="ruler" x1="-2" x2="1390" y1="74" y2="74"><title>8</title></line><text class="ruler" x="-5" y="74">8</text><line class="ruler" x1="-2" x2="1390" y1="37" y2="37"><title>9</title></line><text class="ruler" x="-5" y="37">9</text><line class="ruler" x1="-2" x2="1390" y1="0" y2="0"><title>10</title></line><text class="ruler" x="-5" y="0">10</text></g></g><text class="title" x="795" y="40">M04.realigned.bam M04<title>./M04.realigned.bam</title></text><text class="xLabel" x="795" y="475">GCA_902806645.1_cgigas_uk_roslin_v1_genomic.fna  (589,358,857 bp)<title>../ref/GCA_902806645.1_cgigas_uk_roslin_v1_genomic.fna</title></text><text class="yLabel" transform="translate(25,265) rotate(90)" x="0" y="0">Coverage bp (median)</text></g></svg>