<?xml version="1.0" encoding="UTF-8" standalone="no"?><svg height="500" width="1500" xmlns="http://www.w3.org/2000/svg"><title>M05.realigned.bam</title><desc>Made with wgscoverageplotter undefined Author: Pierre Lindenbaum</desc><style>g.maing {stroke:black;stroke-width:0.5px;fill:none;}
text.title {stroke:none;fill:black;stroke-width:1px;text-anchor:middle;}
rect.frame {stroke:darkgray;fill:none;stroke-width:0.5px;}
text.ruler {stroke:none;fill:darkgray;stroke-width:1px;text-anchor:end;}
text.chromName {stroke:none;fill:darkgray;stroke-width:1px;text-anchor:middle;}
text.xLabel {stroke:none;fill:black;stroke-width:1px;text-anchor:middle;}
text.yLabel {stroke:none;fill:black;stroke-width:1px;text-anchor:middle;}
.cov0 {stroke:gray;fill:antiquewhite;stroke-width:0.5px;}
.cov1 {stroke:gray;fill:beige;stroke-width:0.5px;}
rect.average {stroke:green;fill:green;stroke-width:0.5px;opacity:0.3;}
rect.median {stroke:red;fill:red;stroke-width:0.5px;opacity:0.3;}
line.ruler {stroke:darkgray;stroke-dasharray:4;fill:none;stroke-width:1;}
</style><g class="maing"><g id="chromosomes" transform="translate(100.0,80.0)"><g id="chrom-LR761634.1" transform="translate(10.0,0)"><polygon class="cov0" points="0,370 0,370 1,148 2,185 3,259 4,222 5,222 6,296 7,222 8,148 9,111 10,148 11,74 12,148 13,222 14,259 15,111 16,111 17,185 18,111 19,111 20,74 21,111 22,111 23,148 24,148 25,74 26,111 28,111 29,74 31,74 32,222 33,74 34,111 35,111 36,74 37,148 38,148 39,74 41,74 42,111 43,148 44,148 45,185 46,148 47,111 51,111 52,74 53,111 54,185 55,185 56,74 58,74 59,111 60,111 61,74 62,111 63,148 64,222 65,111 66,111 67,185 68,74 69,185 70,74 71,74 72,222 73,148 74,111 75,74 76,111 77,148 78,185 79,111 80,333 81,259 82,74 83,111 85,111 86,74 87,185 88,74 89,259 90,111 92,111 93,148 94,74 95,111 96,74 97,222 98,222 99,74 100,111 102,111 103,148 104,185 105,74 106,185 107,185 108,259 109,74 110,74 111,148 112,111 113,222 114,259 115,222 116,74 117,111 118,74 119,148 120,222 121,111 123,111 124,148 125,111 126,111 127,148 128,185 129,185 130,222 130.72,370"><title>LR761634.1</title></polygon><rect class="average" height="1" width="130.72" x="0" y="117.38"><title>average:6.83</title></rect><rect class="median" height="1" width="130.72" x="0" y="111"><title>median:7</title></rect><text class="chromName" x="65.36" y="-12">LR761634.1<title>LR761634.1 55,785,328 bp</title></text><rect class="frame" height="370" width="130.72" x="0" y="0"/></g><g id="chrom-LR761635.1" transform="translate(141.71753661284166,0)"><polygon class="cov1" points="0,370 0,370 1,333 2,333 3,296 4,370 5,370 6,148 7,296 8,296 9,222 10,259 11,296 12,185 13,148 14,222 15,296 16,222 17,259 18,370 19,296 21,296 22,259 23,222 24,370 25,333 26,333 27,370 28,259 29,333 30,370 31,370 32,259 33,222 34,259 35,222 36,259 37,370 38,370 39,185 40,222 41,259 42,148 43,222 44,111 45,185 46,222 47,148 48,296 49,185 50,259 51,333 52,259 54,259 55,296 56,333 57,296 58,185 59,296 60,370 61,259 62,111 63,296 64,296 65,222 66,296 67,296 68,222 69,259 70,333 71,185 73,185 74,259 75,222 76,370 77,0 78,259 79,333 80,148 81,259 82,296 83,296 84,370 85,296 86,333 87,370 88,333 89,370 90,259 91,333 92,333 93,296 94,259 95,222 96,333 97,296 98,222 99,296 100,259 101,296 102,333 103,259 104,296 105,148 106,222 107,333 108,185 109,222 110,296 111,185 112,296 113,333 116,333 117,259 118,148 119,148 120,111 121,148 122,222 123,222 124,296 125,111 126,185 127,185 128,111 129,185 130,148 131,259 132,222 133,333 138,333 139,296 140,333 141,296 142,259 143,296 144,296 145,222 146,222 147,74 148,148 149,111 150,259 151,296 152,370 153,222 154,370 155,222 156,259 157,222 158,148 159,148 160,259 161,185 162,370 163,370 164,222 165,296 166,333 168,333 169,222 170,370 171,333 171.58,370"><title>LR761635.1</title></polygon><rect class="average" height="1" width="171.58" x="0" y="191.16"><title>average:4.83</title></rect><rect class="median" height="1" width="171.58" x="0" y="259"><title>median:3</title></rect><text class="chromName" x="85.79" y="-12">LR761635.1<title>LR761635.1 73,222,313 bp</title></text><rect class="frame" height="370" width="171.58" x="0" y="0"/></g><g id="chrom-LR761636.1" transform="translate(314.2938403401308,0)"><polygon class="cov0" points="0,370 0,333 1,148 2,333 3,333 4,259 5,111 6,111 7,148 8,111 12,111 13,259 14,74 15,111 17,111 18,148 19,74 23,74 24,185 25,74 26,111 27,222 28,74 29,37 30,74 33,74 34,111 35,111 36,74 37,148 38,111 41,111 42,148 43,111 45,111 46,148 47,111 48,185 49,111 50,148 51,74 52,111 53,111 54,296 55,148 56,148 57,74 58,148 59,74 60,148 61,185 62,111 67,111 68,148 69,148 70,185 71,74 72,74 73,148 74,111 75,111 76,333 77,185 78,222 79,259 80,259 81,111 82,185 83,111 84,74 85,111 86,296 87,111 88,111 89,185 90,111 91,74 92,148 93,148 94,111 95,148 96,222 97,111 98,111 99,148 100,148 101,111 102,111 103,74 105,74 106,111 107,111 108,74 110,74 111,111 112,111 113,148 114,74 116,74 117,111 118,111 119,74 120,111 121,148 122,111 123,74 124,148 125,74 126,111 127,222 128,259 129,111 130,111 131,74 132,185 133,148 134,111 135,148 136,296 136.65,370"><title>LR761636.1</title></polygon><rect class="average" height="1" width="136.65" x="0" y="112.01"><title>average:6.97</title></rect><rect class="median" height="1" width="136.65" x="0" y="111"><title>median:7</title></rect><text class="chromName" x="68.33" y="-12">LR761636.1<title>LR761636.1 58,319,100 bp</title></text><rect class="frame" height="370" width="136.65" x="0" y="0"/></g><g id="chrom-LR761637.1" transform="translate(451.9485730949149,0)"><polygon class="cov1" points="0,370 0,370 1,296 3,296 4,259 5,185 6,222 7,259 8,222 9,296 10,333 11,111 12,222 13,259 14,222 15,148 16,185 17,148 18,296 19,296 20,222 21,148 22,148 23,185 24,333 25,148 26,111 27,222 28,148 29,185 30,222 31,148 32,111 33,185 34,74 35,185 36,296 37,333 38,148 39,111 40,111 41,296 42,222 43,222 44,333 45,148 46,111 47,74 48,111 49,74 50,185 51,111 52,37 53,148 54,74 55,111 56,148 57,222 58,259 59,333 60,333 61,185 62,111 63,111 64,74 65,111 67,111 68,148 69,74 70,111 71,111 72,185 73,74 74,185 75,111 78,111 79,148 81,148 82,111 83,111 84,148 85,74 86,222 87,148 88,111 89,111 90,74 91,111 92,111 93,185 94,148 95,185 96,185 97,111 98,74 99,111 100,333 101,370 102,333 103,370 104,370 105,259 106,111 107,74 110,74 111,111 112,111 113,74 114,296 115,185 117,185 118,148 119,296 120,148 121,111 122,333 123,370 124,259 124.49,370"><title>LR761637.1</title></polygon><rect class="average" height="1" width="124.49" x="0" y="146.08"><title>average:6.05</title></rect><rect class="median" height="1" width="124.49" x="0" y="185"><title>median:5</title></rect><text class="chromName" x="62.25" y="-12">LR761637.1<title>LR761637.1 53,127,865 bp</title></text><rect class="frame" height="370" width="124.49" x="0" y="0"/></g><g id="chrom-LR761638.1" transform="translate(577.4390778079033,0)"><polygon class="cov0" points="0,370 0,222 1,111 2,296 3,111 4,185 5,111 6,185 8,185 9,111 10,185 11,296 12,148 13,148 14,74 15,148 16,111 17,111 18,259 19,333 20,148 21,185 22,111 23,74 24,111 25,185 26,370 27,74 28,185 29,259 30,259 31,111 32,370 33,370 34,185 35,222 36,148 37,296 38,333 39,370 40,370 41,333 42,259 43,111 44,148 45,333 46,148 47,111 48,111 49,185 50,370 51,222 52,185 53,148 54,259 55,185 56,148 57,185 59,185 60,222 61,185 62,148 63,333 64,333 65,370 66,185 67,222 68,148 69,296 70,148 71,370 72,370 73,296 74,259 75,370 76,333 77,222 78,370 79,296 80,333 81,185 82,333 83,333 84,296 85,185 86,111 87,148 88,333 89,111 90,259 91,148 92,74 93,74 94,111 95,185 96,222 97,222 98,333 99,296 100,222 101,148 102,259 103,148 104,296 105,333 106,222 107,148 108,222 109,148 110,259 111,185 112,222 113,222 114,333 116,333 117,370 118,333 119,222 120,370 123,370 124,333 125,296 126,333 127,296 128,370 129,259 130,333 131,370 132,333 133,333 134,259 135,333 136,148 137,222 138,296 139,259 140,333 141,333 142,296 143,222 144,185 145,148 146,222 147,148 150,148 151,222 152,185 153,111 154,259 155,296 156,185 157,259 158,333 159,333 160,370 161,370 162,296 163,111 164,370 165,370 166,333 167,370 168,370 169,259 170,370 171,370 172,333 172.35,370"><title>LR761638.1</title></polygon><rect class="average" height="1" width="172.35" x="0" y="186.04"><title>average:4.97</title></rect><rect class="median" height="1" width="172.35" x="0" y="259"><title>median:3</title></rect><text class="chromName" x="86.17" y="-12">LR761638.1<title>LR761638.1 73,550,375 bp</title></text><rect class="frame" height="370" width="172.35" x="0" y="0"/></g><g id="chrom-LR761639.1" transform="translate(750.784104388203,0)"><polygon class="cov1" points="0,370 0,370 1,185 2,148 3,259 4,148 5,222 6,370 7,259 8,111 9,111 10,148 11,296 12,333 13,111 16,111 17,74 18,111 19,74 20,74 21,111 22,148 23,148 24,111 25,185 26,148 27,333 28,370 29,185 30,222 31,111 32,148 33,74 34,185 35,185 36,222 37,111 39,111 40,148 41,74 42,111 43,74 44,111 45,74 46,111 48,111 49,148 50,148 51,74 52,148 53,111 54,111 55,74 56,74 57,111 58,111 59,74 62,74 63,111 64,74 65,74 66,148 67,111 68,111 69,148 70,111 73,111 74,222 75,74 76,111 77,111 78,74 79,74 80,111 81,74 82,111 83,74 84,185 85,111 86,74 87,111 88,74 89,111 90,74 91,111 92,74 93,148 94,74 95,74 96,148 97,74 99,74 100,111 101,74 102,111 103,74 105,74 106,222 107,111 108,74 109,111 110,111 111,333 112,185 113,74 114,148 115,74 116,111 118,111 119,74 120,111 121,74 122,74 123,111 124,148 125,111 127,111 128,148 129,111 130,148 131,148 132,185 133,370 134,111 135,185 136,111 137,148 138,259 139,148 140,222 140.95,370"><title>LR761639.1</title></polygon><rect class="average" height="1" width="140.95" x="0" y="113.79"><title>average:6.92</title></rect><rect class="median" height="1" width="140.95" x="0" y="111"><title>median:7</title></rect><text class="chromName" x="70.47" y="-12">LR761639.1<title>LR761639.1 60,151,564 bp</title></text><rect class="frame" height="370" width="140.95" x="0" y="0"/></g><g id="chrom-LR761640.1" transform="translate(892.7327113317651,0)"><polygon class="cov0" points="0,370 0,185 1,111 2,185 3,148 4,148 5,111 6,148 7,185 8,111 9,185 10,148 11,148 12,111 13,296 14,148 15,111 16,185 17,111 18,74 19,185 20,111 21,111 22,74 23,74 24,111 25,111 26,74 27,111 28,111 29,74 30,111 31,111 32,74 33,74 34,111 35,74 36,111 37,185 38,74 39,111 40,74 41,74 42,37 43,74 44,74 45,111 46,148 47,259 48,333 49,74 50,148 51,111 52,74 53,111 54,74 56,74 57,259 58,111 59,148 60,259 61,111 62,111 63,185 64,111 65,296 66,111 68,111 69,148 70,148 71,74 72,148 73,185 74,148 75,111 76,74 77,185 78,111 79,148 80,37 81,37 82,74 83,111 84,111 85,74 86,370 87,111 88,148 89,148 90,111 91,259 92,259 93,148 94,222 95,111 99,111 100,74 101,148 102,333 103,148 104,111 105,74 106,111 107,148 108,185 109,74 110,148 111,185 112,111 113,111 114,148 115,111 116,296 117,333 118,370 119,296 120,148 121,74 122,111 123,74 124,111 125,74 126,111 127,111 128,222 129,111 130,74 131,111 132,148 133,74 135,74 136,111 138,111 139,185 140,111 141,111 142,148 143,222 144,111 145,111 145.53,370"><title>LR761640.1</title></polygon><rect class="average" height="1" width="145.53" x="0" y="116.95"><title>average:6.84</title></rect><rect class="median" height="1" width="145.53" x="0" y="111"><title>median:7</title></rect><text class="chromName" x="72.77" y="-12">LR761640.1<title>LR761640.1 62,107,823 bp</title></text><rect class="frame" height="370" width="145.53" x="0" y="0"/></g><g id="chrom-LR761641.1" transform="translate(1039.265271917344,0)"><polygon class="cov1" points="0,370 0,259 1,148 2,222 3,185 4,111 5,148 6,222 7,185 8,296 9,185 10,148 11,185 12,222 13,111 14,185 15,111 16,185 17,370 18,111 19,111 20,148 21,185 22,222 23,148 24,185 25,148 26,222 27,185 28,222 29,333 30,222 31,185 32,259 33,222 34,259 35,296 36,333 37,222 38,259 39,259 40,148 41,259 42,222 43,333 44,222 45,185 46,259 47,259 48,296 49,111 50,185 51,111 54,111 55,74 56,74 57,148 58,111 59,148 60,111 61,333 62,148 63,185 64,148 65,222 66,185 67,259 68,296 69,111 70,111 71,74 72,185 73,370 74,185 75,296 76,185 77,185 78,148 79,185 80,259 81,370 82,370 83,333 84,185 85,111 86,259 87,74 88,222 89,148 90,259 91,259 92,111 93,259 94,296 95,185 96,148 97,296 98,111 99,370 100,296 101,111 102,148 103,111 104,148 105,111 106,222 107,111 108,111 109,148 110,148 111,296 112,148 113,222 114,148 115,185 116,111 117,148 118,74 119,185 122,185 123,259 124,111 125,222 126,296 127,111 128,296 129,185 130,259 131,222 132,333 133,259 134,148 135,370 136,333 136.99,370"><title>LR761641.1</title></polygon><rect class="average" height="1" width="136.99" x="0" y="155.24"><title>average:5.8</title></rect><rect class="median" height="1" width="136.99" x="0" y="185"><title>median:5</title></rect><text class="chromName" x="68.5" y="-12">LR761641.1<title>LR761641.1 58,462,999 bp</title></text><rect class="frame" height="370" width="136.99" x="0" y="0"/></g><g id="chrom-LR761642.1" transform="translate(1177.25719230686,0)"><polygon class="cov0" points="0,370 0,370 2,370 3,333 4,333 5,370 6,333 7,333 8,370 9,333 10,222 11,185 12,259 13,111 14,148 15,148 16,296 17,222 18,296 19,222 20,222 21,148 22,333 23,222 24,148 25,111 26,185 27,185 28,222 29,148 30,222 31,111 32,148 33,222 34,111 35,296 36,148 37,148 38,74 39,148 40,111 41,148 42,74 43,111 44,111 45,222 46,111 47,259 48,148 49,333 50,185 51,185 52,222 53,74 54,111 55,185 56,148 57,222 58,185 59,111 60,148 61,296 62,185 63,148 64,185 65,185 66,148 67,333 68,185 69,148 70,111 71,296 72,148 73,222 74,111 75,185 76,259 77,148 78,111 79,259 80,222 81,185 82,333 83,222 84,296 85,222 86,296 86.91,370"><title>LR761642.1</title></polygon><rect class="average" height="1" width="86.91" x="0" y="156.13"><title>average:5.78</title></rect><rect class="median" height="1" width="86.91" x="0" y="222"><title>median:4</title></rect><text class="chromName" x="43.45" y="-12">LR761642.1<title>LR761642.1 37,089,910 bp</title></text><rect class="frame" height="370" width="86.91" x="0" y="0"/></g><g id="chrom-LR761643.1" transform="translate(1265.1671710093603,0)"><polygon class="cov1" points="0,370 0,333 1,259 2,148 3,111 4,148 5,222 6,148 7,148 8,111 10,111 11,148 12,111 13,148 14,185 15,111 16,74 17,111 18,111 19,148 20,370 21,148 22,111 23,74 24,111 25,148 26,333 27,370 28,296 29,111 30,259 31,111 32,148 33,111 34,111 35,185 36,222 37,74 38,111 39,74 40,111 41,111 42,148 43,259 44,111 45,148 46,111 47,259 48,148 49,111 50,185 51,111 55,111 56,74 57,111 58,148 59,111 60,74 61,74 62,148 63,111 64,111 65,148 66,111 69,111 70,148 71,185 72,185 73,222 74,74 75,185 76,111 77,74 78,185 79,259 80,74 81,74 82,111 83,111 84,74 85,111 86,111 87,74 88,111 89,296 90,148 91,111 92,74 93,148 94,74 95,111 96,74 100,74 101,222 102,111 105,111 106,74 112,74 113,185 114,111 115,111 116,74 118,74 119,111 120,74 123,74 124,111 126,111 127,185 128,185 129,74 130,148 131,222 132,111 133,222 134,296 134.83,370"><title>LR761643.1</title></polygon><rect class="average" height="1" width="134.83" x="0" y="118.98"><title>average:6.78</title></rect><rect class="median" height="1" width="134.83" x="0" y="111"><title>median:7</title></rect><text class="chromName" x="67.42" y="-12">LR761643.1<title>LR761643.1 57,541,580 bp</title></text><rect class="frame" height="370" width="134.83" x="0" y="0"/></g><g><line class="ruler" x1="-2" x2="1390" y1="333" y2="333"><title>1</title></line><text class="ruler" x="-5" y="333">1</text><line class="ruler" x1="-2" x2="1390" y1="296" y2="296"><title>2</title></line><text class="ruler" x="-5" y="296">2</text><line class="ruler" x1="-2" x2="1390" y1="259" y2="259"><title>3</title></line><text class="ruler" x="-5" y="259">3</text><line class="ruler" x1="-2" x2="1390" y1="222" y2="222"><title>4</title></line><text class="ruler" x="-5" y="222">4</text><line class="ruler" x1="-2" x2="1390" y1="185" y2="185"><title>5</title></line><text class="ruler" x="-5" y="185">5</text><line class="ruler" x1="-2" x2="1390" y1="148" y2="148"><title>6</title></line><text class="ruler" x="-5" y="148">6</text><line class="ruler" x1="-2" x2="1390" y1="111" y2="111"><title>7</title></line><text class="ruler" x="-5" y="111">7</text><line class="ruler" x1="-2" x2="1390" y1="74" y2="74"><title>8</title></line><text class="ruler" x="-5" y="74">8</text><line class="ruler" x1="-2" x2="1390" y1="37" y2="37"><title>9</title></line><text class="ruler" x="-5" y="37">9</text><line class="ruler" x1="-2" x2="1390" y1="0" y2="0"><title>10</title></line><text class="ruler" x="-5" y="0">10</text></g></g><text class="title" x="795" y="40">M05.realigned.bam M05<title>./M05.realigned.bam</title></text><text class="xLabel" x="795" y="475">GCA_902806645.1_cgigas_uk_roslin_v1_genomic.fna  (589,358,857 bp)<title>../ref/GCA_902806645.1_cgigas_uk_roslin_v1_genomic.fna</title></text><text class="yLabel" transform="translate(25,265) rotate(90)" x="0" y="0">Coverage bp (median)</text></g></svg>