<?xml version="1.0" encoding="UTF-8" standalone="no"?><svg height="500" width="1500" xmlns="http://www.w3.org/2000/svg"><title>M08.realigned.bam</title><desc>Made with wgscoverageplotter undefined Author: Pierre Lindenbaum</desc><style>g.maing {stroke:black;stroke-width:0.5px;fill:none;}
text.title {stroke:none;fill:black;stroke-width:1px;text-anchor:middle;}
rect.frame {stroke:darkgray;fill:none;stroke-width:0.5px;}
text.ruler {stroke:none;fill:darkgray;stroke-width:1px;text-anchor:end;}
text.chromName {stroke:none;fill:darkgray;stroke-width:1px;text-anchor:middle;}
text.xLabel {stroke:none;fill:black;stroke-width:1px;text-anchor:middle;}
text.yLabel {stroke:none;fill:black;stroke-width:1px;text-anchor:middle;}
.cov0 {stroke:gray;fill:antiquewhite;stroke-width:0.5px;}
.cov1 {stroke:gray;fill:beige;stroke-width:0.5px;}
rect.average {stroke:green;fill:green;stroke-width:0.5px;opacity:0.3;}
rect.median {stroke:red;fill:red;stroke-width:0.5px;opacity:0.3;}
line.ruler {stroke:darkgray;stroke-dasharray:4;fill:none;stroke-width:1;}
</style><g class="maing"><g id="chromosomes" transform="translate(100.0,80.0)"><g id="chrom-LR761634.1" transform="translate(10.0,0)"><polygon class="cov0" points="0,370 0,346.88 1,161.88 2,185 3,300.62 4,277.5 5,185 6,323.75 7,208.12 8,185 9,138.75 10,161.88 11,138.75 12,185 13,231.25 14,300.62 15,161.88 16,138.75 17,231.25 18,138.75 20,138.75 21,161.88 24,161.88 25,115.62 26,115.62 27,138.75 28,138.75 29,115.62 30,138.75 31,138.75 32,277.5 33,138.75 35,138.75 36,115.62 37,208.12 38,208.12 39,138.75 40,115.62 42,115.62 43,161.88 44,138.75 45,185 46,185 47,138.75 48,161.88 49,138.75 50,161.88 51,138.75 53,138.75 54,208.12 55,231.25 56,115.62 57,138.75 59,138.75 60,161.88 61,115.62 62,161.88 63,185 65,185 66,138.75 67,185 68,138.75 69,185 70,138.75 71,138.75 72,254.38 73,185 74,161.88 75,138.75 76,138.75 77,208.12 78,185 79,138.75 80,323.75 81,300.62 82,115.62 83,138.75 85,138.75 86,115.62 87,208.12 88,138.75 89,277.5 90,161.88 91,161.88 92,138.75 93,161.88 94,138.75 95,138.75 96,115.62 97,185 98,231.25 99,138.75 100,161.88 103,161.88 104,208.12 105,138.75 106,231.25 107,208.12 108,254.38 109,138.75 110,115.62 111,138.75 112,138.75 113,161.88 114,323.75 115,208.12 116,115.62 117,138.75 118,115.62 119,161.88 120,231.25 121,161.88 122,161.88 123,138.75 124,161.88 125,138.75 126,161.88 127,161.88 128,208.12 129,208.12 130,254.38 130.72,370"><title>LR761634.1</title></polygon><rect class="average" height="1" width="130.72" x="0" y="158.9"><title>average:9.13</title></rect><rect class="median" height="1" width="130.72" x="0" y="161.88"><title>median:9</title></rect><text class="chromName" x="65.36" y="-12">LR761634.1<title>LR761634.1 55,785,328 bp</title></text><rect class="frame" height="370" width="130.72" x="0" y="0"/></g><g id="chrom-LR761635.1" transform="translate(141.71753661284166,0)"><polygon class="cov1" points="0,370 0,346.88 1,370 2,346.88 4,346.88 5,370 6,300.62 7,300.62 8,346.88 9,231.25 10,185 11,254.38 12,161.88 13,161.88 14,208.12 15,323.75 16,323.75 17,277.5 18,254.38 19,277.5 20,254.38 21,277.5 22,277.5 23,208.12 24,277.5 25,346.88 26,277.5 27,346.88 28,277.5 29,346.88 31,346.88 32,254.38 33,254.38 34,208.12 35,231.25 36,300.62 37,346.88 38,370 39,208.12 40,254.38 41,277.5 42,185 43,208.12 44,161.88 45,208.12 46,208.12 47,161.88 48,300.62 49,208.12 50,254.38 51,346.88 52,254.38 53,254.38 54,323.75 55,300.62 56,370 57,254.38 58,161.88 59,323.75 60,277.5 61,254.38 62,161.88 63,185 64,185 65,208.12 66,323.75 67,277.5 68,231.25 69,323.75 70,323.75 71,208.12 72,254.38 73,231.25 74,254.38 75,208.12 76,346.88 77,0 78,277.5 79,323.75 80,185 81,323.75 82,323.75 83,300.62 84,370 85,300.62 86,346.88 87,346.88 88,323.75 89,277.5 90,231.25 91,346.88 92,346.88 93,300.62 94,300.62 95,323.75 96,346.88 97,323.75 99,323.75 100,277.5 101,254.38 102,323.75 103,231.25 104,231.25 105,161.88 106,231.25 107,323.75 108,185 109,231.25 110,300.62 111,208.12 112,346.88 113,346.88 114,300.62 115,323.75 116,370 117,277.5 118,185 119,208.12 120,161.88 121,208.12 122,254.38 124,254.38 125,161.88 126,254.38 127,323.75 128,231.25 129,323.75 130,185 131,277.5 132,231.25 133,300.62 135,300.62 136,323.75 137,323.75 138,300.62 139,323.75 140,323.75 141,300.62 142,254.38 143,323.75 144,231.25 145,254.38 146,277.5 147,138.75 148,185 149,161.88 150,231.25 151,300.62 152,346.88 153,231.25 154,323.75 155,323.75 156,300.62 157,254.38 158,346.88 159,185 160,231.25 161,277.5 162,323.75 163,346.88 164,231.25 165,231.25 166,277.5 167,277.5 168,254.38 169,323.75 170,323.75 171,346.88 171.58,370"><title>LR761635.1</title></polygon><rect class="average" height="1" width="171.58" x="0" y="212.21"><title>average:6.82</title></rect><rect class="median" height="1" width="171.58" x="0" y="277.5"><title>median:4</title></rect><text class="chromName" x="85.79" y="-12">LR761635.1<title>LR761635.1 73,222,313 bp</title></text><rect class="frame" height="370" width="171.58" x="0" y="0"/></g><g id="chrom-LR761636.1" transform="translate(314.2938403401308,0)"><polygon class="cov0" points="0,370 0,346.88 1,185 2,254.38 3,346.88 4,254.38 5,161.88 6,185 7,185 8,138.75 9,161.88 10,115.62 11,138.75 12,161.88 13,185 14,115.62 15,138.75 16,138.75 17,115.62 18,138.75 20,138.75 21,115.62 23,115.62 24,185 25,115.62 26,161.88 27,254.38 28,115.62 33,115.62 34,138.75 35,115.62 36,138.75 37,185 38,161.88 39,115.62 40,138.75 41,161.88 42,138.75 43,161.88 44,138.75 45,161.88 46,161.88 47,115.62 48,231.25 49,161.88 50,161.88 51,115.62 52,138.75 53,161.88 54,277.5 55,161.88 56,185 57,138.75 59,138.75 60,161.88 61,231.25 62,161.88 63,138.75 66,138.75 67,161.88 69,161.88 70,231.25 71,115.62 72,115.62 73,185 74,161.88 75,161.88 76,323.75 77,208.12 78,208.12 79,254.38 80,254.38 81,138.75 82,208.12 83,161.88 84,115.62 85,138.75 86,231.25 87,161.88 88,138.75 89,208.12 90,161.88 91,115.62 92,185 93,161.88 94,138.75 95,185 96,231.25 97,138.75 98,138.75 99,185 101,185 102,161.88 103,115.62 104,115.62 105,138.75 107,138.75 108,115.62 110,115.62 111,161.88 112,161.88 113,185 114,115.62 115,115.62 116,138.75 117,138.75 118,161.88 119,138.75 120,138.75 121,231.25 122,115.62 123,138.75 124,185 125,138.75 126,138.75 127,254.38 128,277.5 129,138.75 130,161.88 131,138.75 132,185 133,161.88 135,161.88 136,323.75 136.65,370"><title>LR761636.1</title></polygon><rect class="average" height="1" width="136.65" x="0" y="152.31"><title>average:9.41</title></rect><rect class="median" height="1" width="136.65" x="0" y="161.88"><title>median:9</title></rect><text class="chromName" x="68.33" y="-12">LR761636.1<title>LR761636.1 58,319,100 bp</title></text><rect class="frame" height="370" width="136.65" x="0" y="0"/></g><g id="chrom-LR761637.1" transform="translate(451.9485730949149,0)"><polygon class="cov1" points="0,370 0,370 1,323.75 3,323.75 4,231.25 6,231.25 7,254.38 8,231.25 9,300.62 10,346.88 11,185 12,300.62 13,277.5 14,323.75 15,185 16,231.25 17,115.62 18,300.62 19,323.75 20,208.12 21,185 22,185 23,208.12 24,370 25,161.88 26,138.75 27,277.5 28,208.12 29,254.38 30,277.5 31,161.88 32,161.88 33,208.12 34,138.75 35,185 36,300.62 37,138.75 38,161.88 40,161.88 41,277.5 42,231.25 43,323.75 44,346.88 45,185 46,161.88 47,138.75 49,138.75 50,185 51,138.75 52,115.62 53,185 54,115.62 55,138.75 56,161.88 57,231.25 58,277.5 59,323.75 60,323.75 61,231.25 62,138.75 64,138.75 65,161.88 66,138.75 67,161.88 68,185 69,115.62 70,161.88 71,161.88 72,185 73,138.75 74,185 75,161.88 76,138.75 78,138.75 79,161.88 80,161.88 81,185 82,138.75 83,161.88 84,161.88 85,115.62 86,231.25 87,161.88 88,115.62 89,161.88 90,115.62 91,138.75 92,138.75 93,185 94,185 95,231.25 96,208.12 97,161.88 98,115.62 99,138.75 100,185 101,208.12 102,208.12 103,231.25 104,231.25 105,300.62 106,115.62 107,115.62 108,138.75 110,138.75 111,161.88 112,138.75 113,115.62 114,277.5 115,208.12 116,208.12 117,161.88 118,161.88 119,323.75 120,208.12 121,138.75 122,254.38 123,323.75 124,323.75 124.49,370"><title>LR761637.1</title></polygon><rect class="average" height="1" width="124.49" x="0" y="177.85"><title>average:8.31</title></rect><rect class="median" height="1" width="124.49" x="0" y="185"><title>median:8</title></rect><text class="chromName" x="62.25" y="-12">LR761637.1<title>LR761637.1 53,127,865 bp</title></text><rect class="frame" height="370" width="124.49" x="0" y="0"/></g><g id="chrom-LR761638.1" transform="translate(577.4390778079033,0)"><polygon class="cov0" points="0,370 0,208.12 1,185 2,208.12 3,161.88 4,323.75 5,185 6,208.12 7,208.12 8,231.25 9,138.75 10,208.12 11,277.5 12,161.88 13,185 14,138.75 15,185 16,115.62 17,138.75 18,277.5 19,346.88 20,185 21,254.38 22,138.75 23,115.62 24,138.75 25,161.88 26,370 27,138.75 28,185 29,346.88 30,277.5 31,161.88 32,370 33,370 34,208.12 35,277.5 36,161.88 37,370 38,300.62 39,346.88 40,370 41,323.75 42,254.38 43,138.75 44,185 45,300.62 46,231.25 47,138.75 48,138.75 49,254.38 50,370 51,208.12 52,208.12 53,185 54,231.25 55,208.12 56,161.88 57,231.25 58,161.88 59,208.12 60,208.12 61,185 62,161.88 63,370 64,346.88 65,346.88 66,208.12 67,208.12 68,185 69,277.5 70,185 71,370 72,370 73,300.62 74,277.5 75,346.88 76,346.88 77,231.25 78,370 79,346.88 80,346.88 81,185 82,346.88 83,346.88 84,323.75 85,208.12 86,161.88 87,161.88 88,323.75 89,161.88 90,277.5 91,161.88 92,138.75 93,138.75 94,161.88 95,231.25 96,323.75 97,208.12 98,231.25 99,231.25 100,208.12 101,185 102,300.62 103,208.12 104,300.62 105,323.75 106,254.38 107,185 108,254.38 109,231.25 110,231.25 111,208.12 112,323.75 113,254.38 114,277.5 115,300.62 116,323.75 117,370 118,370 119,300.62 120,300.62 121,346.88 122,346.88 123,370 124,323.75 125,277.5 126,346.88 127,254.38 128,370 129,277.5 130,323.75 131,300.62 132,277.5 133,370 134,277.5 135,323.75 136,185 137,370 138,346.88 139,323.75 140,370 141,370 142,300.62 143,300.62 144,185 145,185 146,323.75 147,161.88 148,185 149,185 150,208.12 151,185 152,161.88 153,161.88 154,254.38 155,300.62 156,231.25 157,277.5 158,346.88 159,185 160,208.12 161,208.12 162,185 163,185 164,208.12 165,208.12 166,231.25 167,231.25 168,208.12 169,185 170,370 171,370 172,346.88 172.35,370"><title>LR761638.1</title></polygon><rect class="average" height="1" width="172.35" x="0" y="213.06"><title>average:6.79</title></rect><rect class="median" height="1" width="172.35" x="0" y="254.38"><title>median:5</title></rect><text class="chromName" x="86.17" y="-12">LR761638.1<title>LR761638.1 73,550,375 bp</title></text><rect class="frame" height="370" width="172.35" x="0" y="0"/></g><g id="chrom-LR761639.1" transform="translate(750.784104388203,0)"><polygon class="cov1" points="0,370 0,277.5 1,161.88 2,138.75 3,277.5 4,185 5,231.25 6,370 7,185 8,161.88 9,161.88 10,185 11,254.38 12,254.38 13,138.75 14,161.88 15,138.75 18,138.75 19,115.62 20,115.62 21,138.75 22,185 24,185 25,231.25 26,185 27,346.88 28,346.88 29,231.25 30,346.88 31,138.75 33,138.75 34,231.25 35,208.12 36,185 37,138.75 38,161.88 39,138.75 40,231.25 41,138.75 42,161.88 43,115.62 44,161.88 45,138.75 46,161.88 47,138.75 48,138.75 49,161.88 50,161.88 51,138.75 52,208.12 53,161.88 54,138.75 58,138.75 59,115.62 65,115.62 66,161.88 67,138.75 68,138.75 69,185 70,138.75 73,138.75 74,231.25 75,138.75 77,138.75 78,115.62 79,115.62 80,161.88 81,115.62 82,115.62 83,138.75 84,185 85,138.75 86,115.62 87,138.75 88,115.62 90,115.62 91,138.75 92,138.75 93,185 94,161.88 95,138.75 96,115.62 98,115.62 99,138.75 101,138.75 102,161.88 103,138.75 104,115.62 105,115.62 106,254.38 107,138.75 108,115.62 109,138.75 110,138.75 111,323.75 112,185 113,115.62 114,185 115,115.62 116,138.75 118,138.75 119,115.62 120,138.75 123,138.75 124,185 125,161.88 126,138.75 127,138.75 128,161.88 129,138.75 130,185 131,185 132,208.12 133,370 134,138.75 135,231.25 136,161.88 137,161.88 138,231.25 139,231.25 140,346.88 140.95,370"><title>LR761639.1</title></polygon><rect class="average" height="1" width="140.95" x="0" y="154.1"><title>average:9.34</title></rect><rect class="median" height="1" width="140.95" x="0" y="161.88"><title>median:9</title></rect><text class="chromName" x="70.47" y="-12">LR761639.1<title>LR761639.1 60,151,564 bp</title></text><rect class="frame" height="370" width="140.95" x="0" y="0"/></g><g id="chrom-LR761640.1" transform="translate(892.7327113317651,0)"><polygon class="cov0" points="0,370 0,231.25 1,138.75 2,231.25 3,185 4,185 5,138.75 6,208.12 7,208.12 8,138.75 9,185 10,161.88 11,161.88 12,138.75 13,300.62 14,185 15,161.88 16,208.12 17,138.75 18,115.62 19,208.12 20,138.75 22,138.75 23,115.62 24,138.75 25,115.62 29,115.62 30,138.75 31,138.75 32,115.62 33,115.62 34,138.75 35,138.75 36,115.62 37,185 38,115.62 39,161.88 40,115.62 44,115.62 45,138.75 46,138.75 47,208.12 48,208.12 49,115.62 52,115.62 53,138.75 54,115.62 55,115.62 56,138.75 57,161.88 58,161.88 59,185 60,231.25 61,138.75 62,161.88 63,208.12 64,138.75 65,323.75 66,138.75 68,138.75 69,185 70,185 71,138.75 72,161.88 73,231.25 74,185 75,138.75 76,138.75 77,208.12 78,138.75 79,185 80,115.62 81,92.5 82,115.62 83,138.75 84,138.75 85,115.62 86,370 87,161.88 88,161.88 89,185 90,161.88 91,300.62 92,277.5 93,185 94,254.38 95,161.88 96,138.75 97,138.75 98,185 99,138.75 100,115.62 101,185 102,254.38 103,185 104,115.62 106,115.62 107,138.75 109,138.75 110,161.88 111,185 112,161.88 114,161.88 115,138.75 116,323.75 117,346.88 118,370 119,323.75 120,161.88 121,115.62 122,138.75 126,138.75 127,115.62 128,277.5 129,161.88 130,138.75 133,138.75 134,115.62 135,138.75 138,138.75 139,208.12 140,161.88 141,138.75 142,185 143,277.5 144,161.88 145,161.88 145.53,370"><title>LR761640.1</title></polygon><rect class="average" height="1" width="145.53" x="0" y="152.4"><title>average:9.41</title></rect><rect class="median" height="1" width="145.53" x="0" y="161.88"><title>median:9</title></rect><text class="chromName" x="72.77" y="-12">LR761640.1<title>LR761640.1 62,107,823 bp</title></text><rect class="frame" height="370" width="145.53" x="0" y="0"/></g><g id="chrom-LR761641.1" transform="translate(1039.265271917344,0)"><polygon class="cov1" points="0,370 0,323.75 1,185 2,254.38 3,208.12 4,138.75 5,254.38 6,300.62 7,254.38 8,323.75 9,208.12 10,185 11,208.12 12,254.38 13,161.88 14,231.25 15,138.75 16,185 17,323.75 18,161.88 20,161.88 21,185 22,185 23,161.88 24,208.12 25,185 26,254.38 27,231.25 28,254.38 29,323.75 30,254.38 31,208.12 32,277.5 33,254.38 34,300.62 35,300.62 36,346.88 37,254.38 38,277.5 39,254.38 40,185 41,231.25 42,346.88 43,346.88 44,277.5 45,208.12 46,231.25 47,277.5 48,323.75 49,138.75 50,185 51,161.88 52,138.75 54,138.75 55,115.62 56,138.75 57,185 58,161.88 59,185 60,138.75 61,346.88 62,161.88 63,208.12 64,161.88 65,208.12 66,231.25 67,254.38 68,277.5 69,161.88 70,231.25 71,138.75 72,208.12 73,323.75 74,231.25 75,346.88 76,231.25 77,185 78,185 79,254.38 80,277.5 81,346.88 83,346.88 84,208.12 85,185 86,254.38 87,138.75 88,208.12 89,208.12 90,277.5 91,208.12 92,138.75 93,208.12 94,277.5 95,185 96,208.12 97,370 98,138.75 99,370 100,300.62 101,161.88 102,185 103,138.75 104,208.12 105,161.88 106,300.62 107,138.75 108,185 109,161.88 110,161.88 111,300.62 112,161.88 113,277.5 114,161.88 115,161.88 116,138.75 117,185 118,161.88 119,231.25 120,208.12 121,185 122,208.12 123,254.38 124,161.88 125,208.12 126,277.5 127,138.75 128,277.5 129,185 130,277.5 131,254.38 132,323.75 133,277.5 134,185 135,370 136,277.5 136.99,370"><title>LR761641.1</title></polygon><rect class="average" height="1" width="136.99" x="0" y="192.32"><title>average:7.68</title></rect><rect class="median" height="1" width="136.99" x="0" y="231.25"><title>median:6</title></rect><text class="chromName" x="68.5" y="-12">LR761641.1<title>LR761641.1 58,462,999 bp</title></text><rect class="frame" height="370" width="136.99" x="0" y="0"/></g><g id="chrom-LR761642.1" transform="translate(1177.25719230686,0)"><polygon class="cov0" points="0,370 0,370 2,370 3,346.88 4,370 8,370 9,277.5 10,254.38 11,231.25 12,300.62 13,161.88 14,185 15,185 16,300.62 17,254.38 18,300.62 19,231.25 20,254.38 21,185 22,300.62 23,277.5 24,185 25,138.75 26,208.12 27,208.12 28,277.5 29,161.88 30,208.12 31,138.75 32,161.88 33,208.12 34,161.88 35,185 36,138.75 38,138.75 39,208.12 40,161.88 41,161.88 42,138.75 43,161.88 44,161.88 45,231.25 46,138.75 47,254.38 48,300.62 49,300.62 50,208.12 51,208.12 52,231.25 53,138.75 54,138.75 55,208.12 56,161.88 57,231.25 58,231.25 59,138.75 60,185 61,346.88 62,161.88 63,161.88 64,231.25 65,185 66,185 67,323.75 68,277.5 69,161.88 70,208.12 71,277.5 72,161.88 73,208.12 74,161.88 75,208.12 76,323.75 77,161.88 78,161.88 79,254.38 80,208.12 81,185 82,323.75 83,254.38 84,277.5 85,254.38 86,323.75 86.91,370"><title>LR761642.1</title></polygon><rect class="average" height="1" width="86.91" x="0" y="188.43"><title>average:7.85</title></rect><rect class="median" height="1" width="86.91" x="0" y="231.25"><title>median:6</title></rect><text class="chromName" x="43.45" y="-12">LR761642.1<title>LR761642.1 37,089,910 bp</title></text><rect class="frame" height="370" width="86.91" x="0" y="0"/></g><g id="chrom-LR761643.1" transform="translate(1265.1671710093603,0)"><polygon class="cov1" points="0,370 0,231.25 1,231.25 2,161.88 3,138.75 4,161.88 5,208.12 6,161.88 7,185 8,138.75 9,115.62 10,138.75 11,185 12,115.62 13,231.25 14,231.25 15,161.88 16,115.62 17,161.88 18,161.88 19,185 20,346.88 21,161.88 22,115.62 23,115.62 24,185 25,185 26,370 27,300.62 28,185 29,138.75 30,254.38 31,161.88 32,185 33,138.75 34,138.75 35,208.12 36,254.38 37,115.62 38,138.75 39,115.62 40,138.75 41,161.88 42,185 43,300.62 44,161.88 45,185 46,115.62 47,231.25 48,161.88 49,138.75 50,161.88 51,138.75 52,138.75 53,185 54,161.88 55,138.75 57,138.75 58,115.62 59,138.75 60,115.62 61,138.75 62,161.88 63,138.75 64,161.88 67,161.88 68,138.75 69,138.75 70,161.88 71,254.38 72,208.12 73,208.12 74,115.62 75,231.25 76,138.75 77,115.62 78,231.25 79,254.38 80,138.75 81,115.62 82,161.88 83,138.75 84,115.62 85,138.75 86,138.75 87,115.62 88,161.88 89,346.88 90,185 91,138.75 92,115.62 93,161.88 94,115.62 95,161.88 96,115.62 99,115.62 100,138.75 101,231.25 102,138.75 103,138.75 104,161.88 105,138.75 106,115.62 107,115.62 108,138.75 109,115.62 111,115.62 112,138.75 113,254.38 114,161.88 115,138.75 116,115.62 118,115.62 119,161.88 120,115.62 123,115.62 124,138.75 126,138.75 127,208.12 128,185 129,138.75 130,161.88 131,231.25 132,138.75 133,231.25 134,323.75 134.83,370"><title>LR761643.1</title></polygon><rect class="average" height="1" width="134.83" x="0" y="154.75"><title>average:9.31</title></rect><rect class="median" height="1" width="134.83" x="0" y="161.88"><title>median:9</title></rect><text class="chromName" x="67.42" y="-12">LR761643.1<title>LR761643.1 57,541,580 bp</title></text><rect class="frame" height="370" width="134.83" x="0" y="0"/></g><g><line class="ruler" x1="-2" x2="1390" y1="333" y2="333"><title>1</title></line><text class="ruler" x="-5" y="333">1</text><line class="ruler" x1="-2" x2="1390" y1="296" y2="296"><title>3</title></line><text class="ruler" x="-5" y="296">3</text><line class="ruler" x1="-2" x2="1390" y1="259" y2="259"><title>4</title></line><text class="ruler" x="-5" y="259">4</text><line class="ruler" x1="-2" x2="1390" y1="222" y2="222"><title>6</title></line><text class="ruler" x="-5" y="222">6</text><line class="ruler" x1="-2" x2="1390" y1="185" y2="185"><title>8</title></line><text class="ruler" x="-5" y="185">8</text><line class="ruler" x1="-2" x2="1390" y1="148" y2="148"><title>9</title></line><text class="ruler" x="-5" y="148">9</text><line class="ruler" x1="-2" x2="1390" y1="111" y2="111"><title>11</title></line><text class="ruler" x="-5" y="111">11</text><line class="ruler" x1="-2" x2="1390" y1="74" y2="74"><title>12</title></line><text class="ruler" x="-5" y="74">12</text><line class="ruler" x1="-2" x2="1390" y1="37" y2="37"><title>14</title></line><text class="ruler" x="-5" y="37">14</text><line class="ruler" x1="-2" x2="1390" y1="0" y2="0"><title>16</title></line><text class="ruler" x="-5" y="0">16</text></g></g><text class="title" x="795" y="40">M08.realigned.bam M08<title>./M08.realigned.bam</title></text><text class="xLabel" x="795" y="475">GCA_902806645.1_cgigas_uk_roslin_v1_genomic.fna  (589,358,857 bp)<title>../ref/GCA_902806645.1_cgigas_uk_roslin_v1_genomic.fna</title></text><text class="yLabel" transform="translate(25,265) rotate(90)" x="0" y="0">Coverage bp (median)</text></g></svg>