<?xml version="1.0" encoding="UTF-8" standalone="no"?><svg height="500" width="1500" xmlns="http://www.w3.org/2000/svg"><title>M09.realigned.bam</title><desc>Made with wgscoverageplotter undefined Author: Pierre Lindenbaum</desc><style>g.maing {stroke:black;stroke-width:0.5px;fill:none;}
text.title {stroke:none;fill:black;stroke-width:1px;text-anchor:middle;}
rect.frame {stroke:darkgray;fill:none;stroke-width:0.5px;}
text.ruler {stroke:none;fill:darkgray;stroke-width:1px;text-anchor:end;}
text.chromName {stroke:none;fill:darkgray;stroke-width:1px;text-anchor:middle;}
text.xLabel {stroke:none;fill:black;stroke-width:1px;text-anchor:middle;}
text.yLabel {stroke:none;fill:black;stroke-width:1px;text-anchor:middle;}
.cov0 {stroke:gray;fill:antiquewhite;stroke-width:0.5px;}
.cov1 {stroke:gray;fill:beige;stroke-width:0.5px;}
rect.average {stroke:green;fill:green;stroke-width:0.5px;opacity:0.3;}
rect.median {stroke:red;fill:red;stroke-width:0.5px;opacity:0.3;}
line.ruler {stroke:darkgray;stroke-dasharray:4;fill:none;stroke-width:1;}
</style><g class="maing"><g id="chromosomes" transform="translate(100.0,80.0)"><g id="chrom-LR761634.1" transform="translate(10.0,0)"><polygon class="cov0" points="0,370 0,343.57 1,185 2,158.57 3,317.14 4,185 5,185 6,343.57 7,211.43 8,185 9,132.14 10,185 11,132.14 12,158.57 13,185 14,317.14 15,158.57 16,158.57 17,185 18,158.57 19,132.14 20,132.14 21,158.57 23,158.57 24,185 25,132.14 27,132.14 28,158.57 29,132.14 31,132.14 32,264.29 33,132.14 34,158.57 35,158.57 36,105.71 37,185 38,185 39,132.14 42,132.14 43,211.43 44,158.57 45,211.43 46,237.86 47,132.14 49,132.14 50,158.57 51,132.14 53,132.14 54,290.71 55,343.57 56,132.14 57,105.71 58,132.14 59,132.14 60,158.57 61,132.14 62,158.57 63,185 64,211.43 65,185 66,158.57 67,185 68,132.14 69,237.86 70,158.57 71,132.14 72,264.29 73,185 74,132.14 76,132.14 77,185 78,185 79,158.57 80,211.43 81,264.29 82,132.14 83,132.14 84,158.57 85,132.14 86,132.14 87,185 88,132.14 89,290.71 90,158.57 91,158.57 92,132.14 93,185 94,105.71 95,132.14 96,105.71 97,132.14 98,343.57 99,158.57 100,158.57 101,185 102,132.14 103,185 104,211.43 105,132.14 106,211.43 107,185 108,290.71 109,132.14 110,132.14 111,158.57 112,158.57 113,211.43 114,237.86 115,237.86 116,132.14 118,132.14 119,185 120,211.43 121,158.57 122,158.57 123,132.14 124,158.57 125,132.14 126,158.57 127,158.57 128,237.86 129,211.43 130,264.29 130.72,370"><title>LR761634.1</title></polygon><rect class="average" height="1" width="130.72" x="0" y="158.23"><title>average:8.01</title></rect><rect class="median" height="1" width="130.72" x="0" y="158.57"><title>median:8</title></rect><text class="chromName" x="65.36" y="-12">LR761634.1<title>LR761634.1 55,785,328 bp</title></text><rect class="frame" height="370" width="130.72" x="0" y="0"/></g><g id="chrom-LR761635.1" transform="translate(141.71753661284166,0)"><polygon class="cov1" points="0,370 0,343.57 1,370 2,343.57 3,317.14 4,370 5,370 6,211.43 7,317.14 8,343.57 9,290.71 10,290.71 11,317.14 12,343.57 13,237.86 14,264.29 15,317.14 16,317.14 17,264.29 18,290.71 19,237.86 20,317.14 22,317.14 23,290.71 24,370 25,370 26,343.57 27,370 28,290.71 29,370 30,343.57 31,343.57 32,264.29 33,237.86 34,237.86 35,264.29 36,264.29 37,370 38,343.57 39,211.43 40,264.29 41,290.71 42,185 43,211.43 44,132.14 45,185 46,237.86 47,185 48,317.14 49,211.43 50,237.86 51,370 52,290.71 53,264.29 54,290.71 55,317.14 56,343.57 57,317.14 58,211.43 59,317.14 60,370 61,264.29 62,185 63,290.71 64,317.14 65,237.86 66,290.71 67,317.14 68,237.86 69,290.71 70,290.71 71,237.86 72,290.71 73,237.86 74,264.29 75,185 76,343.57 77,52.86 78,290.71 79,317.14 80,158.57 81,264.29 82,370 83,317.14 84,370 85,317.14 86,343.57 88,343.57 89,317.14 90,290.71 91,343.57 93,343.57 94,317.14 95,343.57 96,370 97,343.57 99,343.57 100,290.71 101,290.71 102,317.14 103,211.43 104,211.43 105,185 106,264.29 107,317.14 108,211.43 109,132.14 110,343.57 111,211.43 112,317.14 113,343.57 114,317.14 115,343.57 116,317.14 117,264.29 118,185 119,185 120,158.57 121,185 122,264.29 123,237.86 124,290.71 125,158.57 126,237.86 127,237.86 128,185 129,158.57 130,158.57 131,317.14 132,237.86 133,343.57 134,343.57 135,317.14 136,343.57 139,343.57 140,370 141,317.14 142,343.57 143,290.71 144,264.29 145,317.14 146,211.43 147,185 148,211.43 149,158.57 150,237.86 151,317.14 152,343.57 153,264.29 154,317.14 155,211.43 156,290.71 157,317.14 158,317.14 159,185 160,264.29 161,264.29 162,290.71 163,237.86 164,211.43 165,237.86 166,290.71 167,343.57 168,264.29 169,317.14 170,290.71 171,317.14 171.58,370"><title>LR761635.1</title></polygon><rect class="average" height="1" width="171.58" x="0" y="224.71"><title>average:5.5</title></rect><rect class="median" height="1" width="171.58" x="0" y="290.71"><title>median:3</title></rect><text class="chromName" x="85.79" y="-12">LR761635.1<title>LR761635.1 73,222,313 bp</title></text><rect class="frame" height="370" width="171.58" x="0" y="0"/></g><g id="chrom-LR761636.1" transform="translate(314.2938403401308,0)"><polygon class="cov0" points="0,370 0,343.57 1,158.57 2,290.71 3,290.71 4,264.29 5,158.57 6,211.43 7,185 8,158.57 9,185 10,132.14 11,158.57 12,158.57 13,264.29 14,132.14 15,158.57 16,132.14 18,132.14 19,185 20,158.57 21,132.14 23,132.14 24,211.43 25,132.14 26,211.43 27,237.86 28,132.14 34,132.14 35,158.57 36,132.14 37,185 38,158.57 39,132.14 40,132.14 41,158.57 42,185 43,158.57 44,132.14 45,158.57 46,185 47,158.57 48,211.43 49,158.57 50,158.57 51,132.14 53,132.14 54,237.86 55,185 56,185 57,132.14 58,185 59,132.14 60,185 61,237.86 62,158.57 63,132.14 64,132.14 65,158.57 67,158.57 68,185 69,158.57 70,185 71,105.71 72,132.14 73,158.57 74,185 75,158.57 76,343.57 77,211.43 78,237.86 79,264.29 80,290.71 81,158.57 82,237.86 83,158.57 84,132.14 85,158.57 86,264.29 87,158.57 88,158.57 89,211.43 90,158.57 91,132.14 92,185 93,158.57 94,132.14 95,158.57 96,237.86 97,158.57 98,158.57 99,185 100,158.57 101,158.57 102,185 103,105.71 104,132.14 111,132.14 112,158.57 113,158.57 114,105.71 115,105.71 116,132.14 117,132.14 118,185 119,132.14 120,132.14 121,290.71 122,132.14 123,132.14 124,185 125,132.14 126,132.14 127,211.43 128,264.29 129,132.14 130,158.57 131,158.57 132,185 133,185 134,158.57 135,158.57 136,317.14 136.65,370"><title>LR761636.1</title></polygon><rect class="average" height="1" width="136.65" x="0" y="155.72"><title>average:8.11</title></rect><rect class="median" height="1" width="136.65" x="0" y="158.57"><title>median:8</title></rect><text class="chromName" x="68.33" y="-12">LR761636.1<title>LR761636.1 58,319,100 bp</title></text><rect class="frame" height="370" width="136.65" x="0" y="0"/></g><g id="chrom-LR761637.1" transform="translate(451.9485730949149,0)"><polygon class="cov1" points="0,370 0,370 1,317.14 2,343.57 3,317.14 4,237.86 5,211.43 6,237.86 7,264.29 8,290.71 9,317.14 10,343.57 11,185 12,290.71 13,290.71 14,317.14 15,185 16,237.86 17,158.57 18,237.86 19,290.71 20,264.29 21,185 22,185 23,211.43 24,343.57 25,185 26,158.57 27,264.29 28,237.86 30,237.86 31,158.57 32,158.57 33,211.43 34,132.14 35,185 36,237.86 37,290.71 38,158.57 40,158.57 41,290.71 42,237.86 43,264.29 44,317.14 45,264.29 46,158.57 47,132.14 49,132.14 50,185 51,132.14 52,105.71 53,185 54,105.71 55,132.14 56,158.57 57,211.43 58,290.71 59,317.14 60,317.14 61,237.86 62,132.14 64,132.14 65,158.57 66,132.14 67,158.57 68,185 69,132.14 70,158.57 71,158.57 72,185 73,132.14 74,211.43 75,158.57 76,132.14 77,132.14 78,185 81,185 82,132.14 83,158.57 84,158.57 85,132.14 86,237.86 87,158.57 88,132.14 89,158.57 90,132.14 92,132.14 93,185 94,185 95,237.86 96,185 97,158.57 98,132.14 99,132.14 100,237.86 101,290.71 102,264.29 103,290.71 104,317.14 105,185 106,132.14 110,132.14 111,158.57 112,158.57 113,132.14 114,317.14 115,211.43 116,211.43 117,185 118,185 119,317.14 120,185 121,158.57 122,343.57 123,343.57 124,317.14 124.49,370"><title>LR761637.1</title></polygon><rect class="average" height="1" width="124.49" x="0" y="180.61"><title>average:7.17</title></rect><rect class="median" height="1" width="124.49" x="0" y="185"><title>median:7</title></rect><text class="chromName" x="62.25" y="-12">LR761637.1<title>LR761637.1 53,127,865 bp</title></text><rect class="frame" height="370" width="124.49" x="0" y="0"/></g><g id="chrom-LR761638.1" transform="translate(577.4390778079033,0)"><polygon class="cov0" points="0,370 0,290.71 1,264.29 2,317.14 3,158.57 4,264.29 5,158.57 6,237.86 7,211.43 8,211.43 9,132.14 10,185 11,290.71 12,158.57 13,185 14,132.14 15,185 16,158.57 17,158.57 18,290.71 19,317.14 20,158.57 21,264.29 22,132.14 24,132.14 25,185 26,370 27,132.14 28,185 29,211.43 30,211.43 31,158.57 32,370 33,370 34,211.43 35,264.29 36,158.57 37,237.86 38,211.43 39,185 40,264.29 41,343.57 42,264.29 43,185 44,185 45,264.29 46,158.57 47,132.14 48,158.57 49,237.86 50,370 51,264.29 52,185 53,185 54,264.29 55,211.43 56,185 57,237.86 58,158.57 59,211.43 60,264.29 61,237.86 62,185 63,290.71 64,343.57 65,317.14 66,237.86 67,185 68,185 69,317.14 70,211.43 71,317.14 72,370 73,290.71 74,264.29 75,343.57 76,317.14 77,211.43 78,370 79,370 80,343.57 81,158.57 82,317.14 83,343.57 84,317.14 85,211.43 86,158.57 87,185 88,317.14 89,158.57 90,264.29 91,185 92,132.14 93,132.14 94,158.57 95,237.86 96,343.57 97,237.86 98,290.71 99,211.43 100,211.43 101,185 102,317.14 103,211.43 104,290.71 105,343.57 106,237.86 107,211.43 108,264.29 109,211.43 110,237.86 111,185 112,317.14 113,264.29 114,343.57 115,343.57 116,317.14 117,370 118,317.14 119,237.86 120,290.71 121,370 123,370 124,343.57 125,317.14 126,343.57 127,264.29 128,370 129,264.29 130,343.57 133,343.57 134,237.86 135,290.71 136,211.43 137,237.86 138,290.71 139,264.29 140,343.57 141,370 142,290.71 143,237.86 144,211.43 145,185 146,237.86 147,158.57 148,158.57 149,211.43 150,211.43 151,264.29 152,185 153,158.57 154,290.71 155,290.71 156,211.43 157,290.71 158,370 159,317.14 160,343.57 161,343.57 162,317.14 163,158.57 164,343.57 165,370 166,343.57 167,370 168,370 169,264.29 170,370 172,370 172.35,370"><title>LR761638.1</title></polygon><rect class="average" height="1" width="172.35" x="0" y="214.31"><title>average:5.89</title></rect><rect class="median" height="1" width="172.35" x="0" y="264.29"><title>median:4</title></rect><text class="chromName" x="86.17" y="-12">LR761638.1<title>LR761638.1 73,550,375 bp</title></text><rect class="frame" height="370" width="172.35" x="0" y="0"/></g><g id="chrom-LR761639.1" transform="translate(750.784104388203,0)"><polygon class="cov1" points="0,370 0,211.43 1,158.57 2,132.14 3,185 4,158.57 5,237.86 6,237.86 7,211.43 8,158.57 10,158.57 11,317.14 12,211.43 13,132.14 14,158.57 15,132.14 19,132.14 20,105.71 21,132.14 22,158.57 23,158.57 24,185 25,185 26,158.57 27,317.14 28,237.86 29,158.57 30,317.14 31,132.14 32,158.57 33,132.14 34,185 35,185 36,158.57 37,132.14 39,132.14 40,211.43 41,105.71 42,158.57 43,105.71 44,132.14 45,132.14 46,158.57 47,158.57 48,132.14 49,185 50,158.57 51,132.14 52,185 53,158.57 54,158.57 55,132.14 62,132.14 63,185 64,132.14 65,132.14 66,185 67,132.14 68,132.14 69,185 70,132.14 71,132.14 72,158.57 73,132.14 74,237.86 75,132.14 76,132.14 77,158.57 78,132.14 79,132.14 80,158.57 81,132.14 83,132.14 84,211.43 85,158.57 86,132.14 87,132.14 88,105.71 89,132.14 90,105.71 91,132.14 92,132.14 93,158.57 94,158.57 95,132.14 101,132.14 102,105.71 103,158.57 104,105.71 105,132.14 106,237.86 107,132.14 110,132.14 111,317.14 112,185 113,132.14 114,185 115,132.14 119,132.14 120,158.57 121,132.14 123,132.14 124,185 125,132.14 126,132.14 127,158.57 128,158.57 129,132.14 130,211.43 131,185 132,211.43 133,370 134,132.14 135,185 137,185 138,211.43 139,211.43 140,317.14 140.95,370"><title>LR761639.1</title></polygon><rect class="average" height="1" width="140.95" x="0" y="148.18"><title>average:8.39</title></rect><rect class="median" height="1" width="140.95" x="0" y="158.57"><title>median:8</title></rect><text class="chromName" x="70.47" y="-12">LR761639.1<title>LR761639.1 60,151,564 bp</title></text><rect class="frame" height="370" width="140.95" x="0" y="0"/></g><g id="chrom-LR761640.1" transform="translate(892.7327113317651,0)"><polygon class="cov0" points="0,370 0,211.43 1,132.14 2,211.43 3,185 4,185 5,158.57 6,211.43 7,185 8,158.57 9,185 10,158.57 11,211.43 12,158.57 13,290.71 14,185 15,158.57 16,237.86 17,158.57 18,132.14 19,185 20,158.57 21,132.14 22,132.14 23,105.71 24,158.57 25,158.57 26,105.71 27,132.14 33,132.14 34,158.57 35,132.14 36,132.14 37,185 38,105.71 39,158.57 40,105.71 41,105.71 42,79.29 43,105.71 44,105.71 45,132.14 46,158.57 47,211.43 48,185 49,105.71 50,132.14 52,132.14 53,158.57 54,132.14 55,105.71 56,132.14 57,185 58,158.57 59,185 60,264.29 61,132.14 62,158.57 63,185 64,132.14 65,317.14 66,132.14 67,158.57 68,158.57 69,211.43 70,185 71,158.57 72,185 73,211.43 74,185 75,132.14 76,132.14 77,211.43 78,132.14 79,211.43 80,132.14 81,105.71 82,105.71 83,132.14 85,132.14 86,370 87,158.57 88,158.57 89,185 90,158.57 91,290.71 92,290.71 93,185 94,264.29 95,158.57 96,132.14 97,132.14 98,158.57 99,158.57 100,132.14 101,185 102,343.57 103,211.43 104,132.14 105,105.71 106,132.14 107,185 108,211.43 109,132.14 110,211.43 111,185 112,158.57 113,158.57 114,185 115,132.14 116,343.57 117,343.57 118,370 119,343.57 120,158.57 121,105.71 122,132.14 123,132.14 124,158.57 125,132.14 127,132.14 128,264.29 129,132.14 131,132.14 132,158.57 133,132.14 134,105.71 135,105.71 136,158.57 137,158.57 138,132.14 139,185 140,132.14 142,132.14 143,264.29 144,132.14 145,132.14 145.53,370"><title>LR761640.1</title></polygon><rect class="average" height="1" width="145.53" x="0" y="154.06"><title>average:8.17</title></rect><rect class="median" height="1" width="145.53" x="0" y="158.57"><title>median:8</title></rect><text class="chromName" x="72.77" y="-12">LR761640.1<title>LR761640.1 62,107,823 bp</title></text><rect class="frame" height="370" width="145.53" x="0" y="0"/></g><g id="chrom-LR761641.1" transform="translate(1039.265271917344,0)"><polygon class="cov1" points="0,370 0,290.71 1,211.43 2,343.57 3,185 4,79.29 5,264.29 6,317.14 7,264.29 8,317.14 9,211.43 10,158.57 11,211.43 12,237.86 13,158.57 14,211.43 15,158.57 16,158.57 17,317.14 18,158.57 20,158.57 21,185 22,211.43 23,158.57 24,211.43 25,185 26,264.29 27,185 28,185 29,264.29 30,237.86 31,237.86 32,290.71 33,264.29 34,290.71 35,290.71 36,370 37,317.14 38,290.71 39,290.71 40,185 41,317.14 42,317.14 43,343.57 44,264.29 45,237.86 46,237.86 47,290.71 48,290.71 49,158.57 50,185 51,158.57 52,132.14 56,132.14 57,185 58,185 59,158.57 60,158.57 61,211.43 62,158.57 63,211.43 64,158.57 65,158.57 66,211.43 67,264.29 68,317.14 69,211.43 70,343.57 71,132.14 72,185 73,343.57 74,237.86 75,264.29 76,237.86 77,237.86 78,158.57 79,264.29 80,290.71 81,343.57 83,343.57 84,211.43 85,185 86,211.43 87,132.14 88,158.57 89,211.43 90,290.71 91,237.86 92,158.57 93,264.29 94,317.14 95,237.86 96,211.43 97,370 98,158.57 99,370 100,317.14 101,158.57 102,185 103,132.14 104,211.43 105,158.57 106,237.86 107,158.57 110,158.57 111,290.71 112,158.57 113,290.71 114,185 115,158.57 116,158.57 117,185 118,158.57 119,237.86 120,211.43 121,211.43 122,185 123,237.86 124,158.57 125,237.86 126,264.29 127,158.57 128,264.29 129,185 130,290.71 131,211.43 132,370 133,290.71 134,185 135,370 136,370 136.99,370"><title>LR761641.1</title></polygon><rect class="average" height="1" width="136.99" x="0" y="190.35"><title>average:6.8</title></rect><rect class="median" height="1" width="136.99" x="0" y="211.43"><title>median:6</title></rect><text class="chromName" x="68.5" y="-12">LR761641.1<title>LR761641.1 58,462,999 bp</title></text><rect class="frame" height="370" width="136.99" x="0" y="0"/></g><g id="chrom-LR761642.1" transform="translate(1177.25719230686,0)"><polygon class="cov0" points="0,370 0,317.14 1,317.14 2,264.29 3,290.71 4,343.57 5,370 6,343.57 9,343.57 10,264.29 11,264.29 12,290.71 13,158.57 14,185 15,158.57 16,317.14 17,237.86 18,290.71 19,237.86 20,264.29 21,185 22,317.14 23,211.43 24,185 25,158.57 26,185 27,211.43 28,290.71 29,185 30,237.86 31,132.14 32,185 33,237.86 34,185 35,317.14 36,158.57 37,185 38,132.14 39,211.43 40,158.57 41,185 42,132.14 43,158.57 44,158.57 45,237.86 46,158.57 47,264.29 48,237.86 49,290.71 50,211.43 51,237.86 52,211.43 53,132.14 54,132.14 55,211.43 56,158.57 57,264.29 58,237.86 59,185 60,185 61,343.57 62,264.29 63,158.57 64,237.86 65,211.43 66,185 67,343.57 68,290.71 69,158.57 70,132.14 71,237.86 72,158.57 73,237.86 74,158.57 75,211.43 76,343.57 77,185 78,185 79,317.14 80,264.29 81,211.43 82,343.57 83,237.86 84,317.14 85,264.29 86,343.57 86.91,370"><title>LR761642.1</title></polygon><rect class="average" height="1" width="86.91" x="0" y="183.58"><title>average:7.05</title></rect><rect class="median" height="1" width="86.91" x="0" y="237.86"><title>median:5</title></rect><text class="chromName" x="43.45" y="-12">LR761642.1<title>LR761642.1 37,089,910 bp</title></text><rect class="frame" height="370" width="86.91" x="0" y="0"/></g><g id="chrom-LR761643.1" transform="translate(1265.1671710093603,0)"><polygon class="cov1" points="0,370 0,343.57 1,290.71 2,185 3,158.57 4,185 5,237.86 6,185 7,185 8,158.57 9,132.14 10,158.57 11,185 12,132.14 13,185 14,264.29 15,158.57 16,132.14 17,158.57 18,158.57 19,185 20,343.57 21,185 22,132.14 23,132.14 24,264.29 25,185 26,370 27,290.71 28,185 29,132.14 30,237.86 31,158.57 32,237.86 33,132.14 34,185 35,211.43 36,185 37,132.14 39,132.14 40,158.57 41,158.57 42,185 43,290.71 44,158.57 45,185 46,105.71 47,185 48,158.57 49,132.14 50,105.71 51,132.14 53,132.14 54,158.57 55,132.14 57,132.14 58,105.71 59,158.57 60,105.71 61,132.14 62,158.57 63,132.14 64,158.57 68,158.57 69,132.14 70,158.57 71,264.29 72,185 73,237.86 74,132.14 75,211.43 76,158.57 77,132.14 78,237.86 79,264.29 80,132.14 81,105.71 82,132.14 87,132.14 88,158.57 89,343.57 90,185 91,132.14 92,132.14 93,158.57 94,105.71 95,158.57 96,132.14 97,132.14 98,105.71 99,105.71 100,132.14 101,237.86 102,132.14 103,132.14 104,158.57 105,158.57 106,132.14 107,105.71 108,158.57 109,105.71 110,132.14 111,105.71 112,132.14 113,237.86 114,158.57 115,132.14 116,105.71 117,132.14 118,132.14 119,185 120,132.14 123,132.14 124,158.57 125,132.14 126,132.14 127,185 128,211.43 129,132.14 130,158.57 131,237.86 132,158.57 133,237.86 134,317.14 134.83,370"><title>LR761643.1</title></polygon><rect class="average" height="1" width="134.83" x="0" y="156.11"><title>average:8.09</title></rect><rect class="median" height="1" width="134.83" x="0" y="158.57"><title>median:8</title></rect><text class="chromName" x="67.42" y="-12">LR761643.1<title>LR761643.1 57,541,580 bp</title></text><rect class="frame" height="370" width="134.83" x="0" y="0"/></g><g><line class="ruler" x1="-2" x2="1390" y1="333" y2="333"><title>1</title></line><text class="ruler" x="-5" y="333">1</text><line class="ruler" x1="-2" x2="1390" y1="296" y2="296"><title>2</title></line><text class="ruler" x="-5" y="296">2</text><line class="ruler" x1="-2" x2="1390" y1="259" y2="259"><title>4</title></line><text class="ruler" x="-5" y="259">4</text><line class="ruler" x1="-2" x2="1390" y1="222" y2="222"><title>5</title></line><text class="ruler" x="-5" y="222">5</text><line class="ruler" x1="-2" x2="1390" y1="185" y2="185"><title>7</title></line><text class="ruler" x="-5" y="185">7</text><line class="ruler" x1="-2" x2="1390" y1="148" y2="148"><title>8</title></line><text class="ruler" x="-5" y="148">8</text><line class="ruler" x1="-2" x2="1390" y1="111" y2="111"><title>9</title></line><text class="ruler" x="-5" y="111">9</text><line class="ruler" x1="-2" x2="1390" y1="74" y2="74"><title>11</title></line><text class="ruler" x="-5" y="74">11</text><line class="ruler" x1="-2" x2="1390" y1="37" y2="37"><title>12</title></line><text class="ruler" x="-5" y="37">12</text><line class="ruler" x1="-2" x2="1390" y1="0" y2="0"><title>14</title></line><text class="ruler" x="-5" y="0">14</text></g></g><text class="title" x="795" y="40">M09.realigned.bam M09<title>./M09.realigned.bam</title></text><text class="xLabel" x="795" y="475">GCA_902806645.1_cgigas_uk_roslin_v1_genomic.fna  (589,358,857 bp)<title>../ref/GCA_902806645.1_cgigas_uk_roslin_v1_genomic.fna</title></text><text class="yLabel" transform="translate(25,265) rotate(90)" x="0" y="0">Coverage bp (median)</text></g></svg>