<?xml version="1.0" encoding="UTF-8" standalone="no"?><svg height="500" width="1500" xmlns="http://www.w3.org/2000/svg"><title>M11.realigned.bam</title><desc>Made with wgscoverageplotter undefined Author: Pierre Lindenbaum</desc><style>g.maing {stroke:black;stroke-width:0.5px;fill:none;}
text.title {stroke:none;fill:black;stroke-width:1px;text-anchor:middle;}
rect.frame {stroke:darkgray;fill:none;stroke-width:0.5px;}
text.ruler {stroke:none;fill:darkgray;stroke-width:1px;text-anchor:end;}
text.chromName {stroke:none;fill:darkgray;stroke-width:1px;text-anchor:middle;}
text.xLabel {stroke:none;fill:black;stroke-width:1px;text-anchor:middle;}
text.yLabel {stroke:none;fill:black;stroke-width:1px;text-anchor:middle;}
.cov0 {stroke:gray;fill:antiquewhite;stroke-width:0.5px;}
.cov1 {stroke:gray;fill:beige;stroke-width:0.5px;}
rect.average {stroke:green;fill:green;stroke-width:0.5px;opacity:0.3;}
rect.median {stroke:red;fill:red;stroke-width:0.5px;opacity:0.3;}
line.ruler {stroke:darkgray;stroke-dasharray:4;fill:none;stroke-width:1;}
</style><g class="maing"><g id="chromosomes" transform="translate(100.0,80.0)"><g id="chrom-LR761634.1" transform="translate(10.0,0)"><polygon class="cov0" points="0,370 0,339.17 1,123.33 2,185 3,246.67 4,215.83 5,185 6,277.5 7,215.83 8,185 9,123.33 10,154.17 11,123.33 12,185 13,246.67 14,277.5 15,154.17 16,123.33 17,215.83 18,154.17 19,123.33 20,123.33 21,154.17 22,154.17 23,123.33 24,154.17 25,123.33 31,123.33 32,246.67 33,123.33 35,123.33 36,92.5 37,185 38,185 39,123.33 40,123.33 41,92.5 42,123.33 43,154.17 44,123.33 45,185 46,185 47,123.33 48,154.17 49,123.33 50,154.17 51,123.33 53,123.33 54,246.67 55,339.17 56,123.33 57,92.5 58,123.33 59,154.17 60,123.33 61,123.33 62,154.17 63,185 64,215.83 65,154.17 66,123.33 67,185 68,123.33 69,215.83 70,123.33 71,123.33 72,215.83 73,154.17 74,154.17 75,123.33 76,123.33 77,185 78,154.17 79,154.17 80,308.33 81,308.33 82,123.33 85,123.33 86,92.5 87,185 88,123.33 89,277.5 90,154.17 91,123.33 92,123.33 93,185 94,92.5 95,123.33 96,92.5 97,154.17 98,339.17 99,154.17 100,154.17 101,215.83 102,154.17 103,123.33 104,185 105,123.33 106,185 107,215.83 108,185 109,123.33 112,123.33 113,215.83 114,308.33 115,215.83 116,123.33 117,154.17 118,123.33 119,154.17 120,185 121,123.33 122,154.17 123,123.33 124,154.17 128,154.17 129,185 130,277.5 130.72,370"><title>LR761634.1</title></polygon><rect class="average" height="1" width="130.72" x="0" y="146.18"><title>average:7.26</title></rect><rect class="median" height="1" width="130.72" x="0" y="154.17"><title>median:7</title></rect><text class="chromName" x="65.36" y="-12">LR761634.1<title>LR761634.1 55,785,328 bp</title></text><rect class="frame" height="370" width="130.72" x="0" y="0"/></g><g id="chrom-LR761635.1" transform="translate(141.71753661284166,0)"><polygon class="cov1" points="0,370 0,370 2,370 3,246.67 4,370 5,339.17 6,246.67 7,308.33 8,308.33 9,123.33 10,123.33 11,215.83 12,123.33 13,185 14,246.67 15,308.33 16,339.17 17,246.67 18,308.33 19,246.67 20,277.5 21,277.5 22,246.67 23,277.5 24,370 25,339.17 26,308.33 27,370 28,308.33 29,370 30,339.17 31,339.17 32,277.5 33,246.67 34,277.5 36,277.5 37,308.33 38,370 39,185 40,215.83 41,277.5 42,185 43,246.67 44,123.33 45,215.83 46,185 47,185 48,308.33 49,185 50,215.83 51,339.17 52,246.67 53,215.83 54,246.67 55,277.5 56,339.17 57,308.33 58,185 59,277.5 60,370 61,277.5 62,154.17 63,308.33 64,339.17 65,308.33 66,308.33 67,246.67 68,246.67 69,308.33 70,308.33 71,215.83 72,246.67 73,215.83 74,277.5 75,185 76,339.17 77,0 78,246.67 79,308.33 80,185 81,308.33 82,308.33 83,339.17 84,308.33 85,339.17 86,370 89,370 90,308.33 91,370 92,339.17 93,277.5 95,277.5 96,308.33 97,277.5 98,339.17 99,277.5 100,339.17 101,339.17 102,308.33 103,246.67 104,246.67 105,185 106,246.67 107,339.17 108,185 109,246.67 110,246.67 111,185 112,339.17 115,339.17 116,308.33 117,308.33 118,154.17 119,185 120,154.17 121,215.83 122,246.67 123,246.67 124,277.5 125,154.17 126,246.67 127,277.5 128,215.83 129,308.33 130,185 131,215.83 132,246.67 133,339.17 134,308.33 135,308.33 136,339.17 137,308.33 138,308.33 139,277.5 140,370 141,308.33 142,277.5 143,308.33 144,277.5 145,246.67 146,246.67 147,154.17 148,185 149,154.17 150,215.83 151,308.33 152,339.17 153,246.67 154,339.17 155,246.67 156,308.33 157,277.5 158,215.83 159,154.17 160,246.67 161,246.67 162,277.5 163,246.67 164,215.83 165,277.5 166,308.33 167,339.17 168,308.33 169,246.67 170,308.33 171,339.17 171.58,370"><title>LR761635.1</title></polygon><rect class="average" height="1" width="171.58" x="0" y="209.78"><title>average:5.2</title></rect><rect class="median" height="1" width="171.58" x="0" y="277.5"><title>median:3</title></rect><text class="chromName" x="85.79" y="-12">LR761635.1<title>LR761635.1 73,222,313 bp</title></text><rect class="frame" height="370" width="171.58" x="0" y="0"/></g><g id="chrom-LR761636.1" transform="translate(314.2938403401308,0)"><polygon class="cov0" points="0,370 0,215.83 1,185 2,215.83 3,339.17 4,215.83 5,123.33 6,185 7,215.83 8,123.33 9,154.17 10,123.33 11,123.33 12,154.17 13,246.67 14,123.33 15,154.17 16,123.33 17,123.33 18,154.17 19,123.33 20,123.33 21,92.5 23,92.5 24,185 25,92.5 26,154.17 27,246.67 28,123.33 29,92.5 30,123.33 31,92.5 32,92.5 33,123.33 34,123.33 35,185 36,123.33 37,185 38,123.33 39,123.33 40,185 41,154.17 43,154.17 44,123.33 45,154.17 46,185 47,123.33 48,185 49,154.17 50,185 51,92.5 52,123.33 53,123.33 54,277.5 55,185 56,154.17 57,123.33 58,154.17 59,123.33 60,154.17 61,246.67 62,154.17 63,123.33 64,123.33 65,154.17 66,123.33 67,123.33 68,154.17 70,154.17 71,92.5 72,92.5 73,185 74,154.17 75,154.17 76,308.33 77,215.83 78,215.83 79,246.67 80,246.67 81,123.33 82,215.83 83,154.17 84,92.5 85,123.33 86,246.67 87,154.17 88,154.17 89,215.83 90,123.33 91,123.33 92,154.17 93,154.17 94,123.33 95,185 96,185 97,123.33 98,123.33 99,185 100,154.17 102,154.17 103,92.5 104,123.33 110,123.33 111,154.17 112,154.17 113,123.33 114,92.5 115,92.5 116,123.33 117,123.33 118,154.17 119,123.33 120,123.33 121,215.83 122,123.33 123,123.33 124,185 125,123.33 126,123.33 127,185 128,277.5 129,123.33 130,154.17 131,154.17 132,185 133,154.17 134,123.33 135,154.17 136,215.83 136.65,370"><title>LR761636.1</title></polygon><rect class="average" height="1" width="136.65" x="0" y="138.17"><title>average:7.52</title></rect><rect class="median" height="1" width="136.65" x="0" y="154.17"><title>median:7</title></rect><text class="chromName" x="68.33" y="-12">LR761636.1<title>LR761636.1 58,319,100 bp</title></text><rect class="frame" height="370" width="136.65" x="0" y="0"/></g><g id="chrom-LR761637.1" transform="translate(451.9485730949149,0)"><polygon class="cov1" points="0,370 0,370 1,246.67 2,277.5 3,215.83 5,215.83 6,246.67 7,277.5 8,277.5 9,308.33 10,339.17 11,154.17 12,246.67 13,277.5 14,339.17 15,185 16,215.83 17,154.17 18,308.33 19,308.33 20,215.83 21,185 22,154.17 23,246.67 24,308.33 25,215.83 26,154.17 27,246.67 29,246.67 30,277.5 31,154.17 33,154.17 34,123.33 35,215.83 36,308.33 37,339.17 38,185 39,154.17 40,123.33 41,246.67 42,185 43,277.5 44,308.33 45,246.67 46,154.17 47,154.17 48,123.33 49,123.33 50,185 51,154.17 52,92.5 53,185 54,92.5 55,123.33 56,154.17 57,246.67 58,277.5 59,308.33 60,308.33 61,215.83 62,123.33 67,123.33 68,185 69,123.33 70,123.33 71,154.17 72,185 73,123.33 74,185 75,154.17 76,123.33 77,185 78,185 79,215.83 80,154.17 81,185 82,123.33 83,154.17 84,154.17 85,123.33 86,215.83 87,154.17 88,123.33 89,154.17 90,92.5 91,123.33 92,123.33 93,154.17 94,185 95,246.67 96,215.83 97,154.17 98,123.33 99,123.33 100,185 102,185 103,215.83 104,215.83 105,277.5 106,123.33 107,92.5 108,123.33 109,123.33 110,92.5 111,154.17 112,123.33 113,123.33 114,308.33 115,185 116,154.17 118,154.17 119,339.17 120,154.17 121,154.17 122,246.67 123,215.83 124,123.33 124.49,370"><title>LR761637.1</title></polygon><rect class="average" height="1" width="124.49" x="0" y="163.21"><title>average:6.71</title></rect><rect class="median" height="1" width="124.49" x="0" y="185"><title>median:6</title></rect><text class="chromName" x="62.25" y="-12">LR761637.1<title>LR761637.1 53,127,865 bp</title></text><rect class="frame" height="370" width="124.49" x="0" y="0"/></g><g id="chrom-LR761638.1" transform="translate(577.4390778079033,0)"><polygon class="cov0" points="0,370 0,215.83 1,154.17 2,308.33 3,154.17 4,215.83 5,154.17 6,215.83 7,215.83 8,185 9,123.33 10,185 11,308.33 12,123.33 13,154.17 14,123.33 15,154.17 16,92.5 17,123.33 18,246.67 19,308.33 20,154.17 21,246.67 22,154.17 23,123.33 24,123.33 25,185 26,370 27,123.33 28,185 29,277.5 30,277.5 31,154.17 32,370 33,339.17 34,185 35,246.67 36,154.17 37,308.33 38,308.33 39,339.17 41,339.17 42,246.67 43,154.17 44,154.17 45,339.17 46,185 47,123.33 48,123.33 49,215.83 50,370 51,246.67 52,185 53,154.17 54,215.83 55,215.83 56,154.17 57,185 58,123.33 59,215.83 60,185 61,215.83 62,154.17 63,308.33 64,308.33 65,339.17 66,215.83 67,246.67 68,215.83 69,308.33 70,185 71,370 72,370 73,277.5 74,277.5 75,370 76,370 77,215.83 78,308.33 79,308.33 80,277.5 81,215.83 82,370 83,339.17 84,308.33 85,215.83 86,154.17 87,154.17 88,308.33 89,123.33 90,308.33 91,154.17 92,92.5 93,123.33 94,154.17 95,246.67 96,308.33 97,154.17 98,308.33 99,185 100,215.83 101,154.17 102,308.33 103,185 104,277.5 105,308.33 106,246.67 107,185 108,215.83 109,185 110,246.67 111,185 112,308.33 113,215.83 114,246.67 115,246.67 116,339.17 117,308.33 118,370 119,339.17 120,246.67 121,370 123,370 124,308.33 125,339.17 127,339.17 128,370 129,277.5 130,339.17 131,308.33 132,246.67 133,370 134,277.5 135,308.33 136,185 137,370 138,370 139,277.5 140,370 142,370 143,308.33 144,185 145,215.83 146,308.33 147,154.17 148,154.17 149,185 150,215.83 151,308.33 152,154.17 153,185 154,277.5 155,308.33 156,215.83 157,277.5 158,277.5 159,339.17 160,370 161,339.17 162,277.5 163,339.17 164,339.17 165,370 168,370 169,246.67 170,370 172,370 172.35,370"><title>LR761638.1</title></polygon><rect class="average" height="1" width="172.35" x="0" y="206.3"><title>average:5.31</title></rect><rect class="median" height="1" width="172.35" x="0" y="246.67"><title>median:4</title></rect><text class="chromName" x="86.17" y="-12">LR761638.1<title>LR761638.1 73,550,375 bp</title></text><rect class="frame" height="370" width="172.35" x="0" y="0"/></g><g id="chrom-LR761639.1" transform="translate(750.784104388203,0)"><polygon class="cov1" points="0,370 0,370 1,185 2,154.17 3,308.33 4,185 5,246.67 6,370 7,339.17 8,154.17 9,123.33 10,154.17 11,308.33 12,185 13,123.33 14,185 15,123.33 21,123.33 22,154.17 23,154.17 24,185 25,215.83 26,185 27,215.83 28,370 29,246.67 30,246.67 31,123.33 32,154.17 33,123.33 34,185 35,215.83 36,246.67 37,123.33 39,123.33 40,246.67 41,123.33 42,123.33 43,92.5 44,123.33 45,123.33 46,154.17 47,123.33 48,123.33 49,154.17 50,154.17 51,123.33 52,185 53,154.17 54,154.17 55,123.33 58,123.33 59,92.5 60,92.5 61,123.33 62,123.33 63,92.5 65,92.5 66,154.17 67,123.33 68,123.33 69,185 70,123.33 72,123.33 73,92.5 74,215.83 75,123.33 79,123.33 80,154.17 81,123.33 83,123.33 84,185 85,123.33 86,92.5 87,123.33 88,92.5 90,92.5 91,123.33 92,123.33 93,154.17 94,154.17 95,123.33 96,154.17 97,123.33 100,123.33 101,92.5 102,154.17 103,123.33 104,92.5 105,123.33 106,246.67 107,123.33 110,123.33 111,370 112,154.17 113,92.5 114,185 115,92.5 116,154.17 117,123.33 118,123.33 119,92.5 120,154.17 121,92.5 122,123.33 123,123.33 124,185 125,123.33 127,123.33 128,154.17 129,123.33 130,185 131,185 132,215.83 133,370 134,123.33 135,185 136,154.17 137,154.17 138,215.83 139,123.33 140,123.33 140.95,370"><title>LR761639.1</title></polygon><rect class="average" height="1" width="140.95" x="0" y="138.62"><title>average:7.5</title></rect><rect class="median" height="1" width="140.95" x="0" y="154.17"><title>median:7</title></rect><text class="chromName" x="70.47" y="-12">LR761639.1<title>LR761639.1 60,151,564 bp</title></text><rect class="frame" height="370" width="140.95" x="0" y="0"/></g><g id="chrom-LR761640.1" transform="translate(892.7327113317651,0)"><polygon class="cov0" points="0,370 0,215.83 1,123.33 2,215.83 3,154.17 4,185 5,154.17 6,215.83 7,215.83 8,123.33 9,154.17 11,154.17 12,123.33 13,277.5 14,185 15,123.33 16,215.83 17,123.33 18,92.5 19,215.83 20,123.33 22,123.33 23,92.5 24,154.17 25,154.17 26,92.5 27,123.33 30,123.33 31,92.5 32,123.33 33,123.33 34,154.17 35,123.33 36,123.33 37,185 38,92.5 39,154.17 40,92.5 41,123.33 42,92.5 43,92.5 44,123.33 46,123.33 47,277.5 48,339.17 49,92.5 50,154.17 51,123.33 53,123.33 54,92.5 55,123.33 56,123.33 57,215.83 58,154.17 59,185 60,246.67 61,123.33 62,154.17 63,154.17 64,123.33 65,277.5 66,123.33 68,123.33 69,185 70,185 71,123.33 72,154.17 73,185 74,185 75,123.33 76,123.33 77,215.83 78,123.33 79,154.17 80,92.5 81,61.67 82,92.5 83,123.33 84,154.17 85,123.33 86,370 87,154.17 90,154.17 91,339.17 92,246.67 93,185 94,246.67 95,154.17 96,123.33 97,123.33 98,154.17 99,154.17 100,123.33 101,123.33 102,339.17 103,215.83 104,123.33 106,123.33 107,154.17 108,215.83 109,123.33 110,154.17 111,185 112,154.17 114,154.17 115,123.33 116,339.17 117,339.17 118,370 119,308.33 120,123.33 121,92.5 122,123.33 127,123.33 128,277.5 129,154.17 130,123.33 133,123.33 134,92.5 135,123.33 138,123.33 139,185 140,154.17 141,123.33 142,185 143,246.67 144,154.17 145,154.17 145.53,370"><title>LR761640.1</title></polygon><rect class="average" height="1" width="145.53" x="0" y="142.15"><title>average:7.39</title></rect><rect class="median" height="1" width="145.53" x="0" y="154.17"><title>median:7</title></rect><text class="chromName" x="72.77" y="-12">LR761640.1<title>LR761640.1 62,107,823 bp</title></text><rect class="frame" height="370" width="145.53" x="0" y="0"/></g><g id="chrom-LR761641.1" transform="translate(1039.265271917344,0)"><polygon class="cov1" points="0,370 0,339.17 1,185 2,215.83 3,185 4,154.17 5,246.67 6,308.33 7,246.67 8,308.33 9,185 10,154.17 11,215.83 12,246.67 13,92.5 14,215.83 15,123.33 16,154.17 17,370 18,154.17 20,154.17 21,185 22,215.83 23,154.17 24,185 25,154.17 26,185 27,154.17 28,215.83 29,185 30,185 31,154.17 32,154.17 33,185 34,339.17 35,339.17 36,370 37,246.67 38,215.83 39,215.83 40,185 41,246.67 42,215.83 43,215.83 44,185 45,246.67 46,308.33 47,185 48,185 49,123.33 50,154.17 51,154.17 52,123.33 53,92.5 55,92.5 56,123.33 57,185 58,215.83 59,185 60,154.17 61,370 62,154.17 63,215.83 65,215.83 66,185 67,215.83 68,246.67 69,154.17 71,154.17 72,215.83 73,339.17 74,215.83 75,339.17 76,246.67 77,215.83 78,154.17 79,215.83 80,246.67 81,370 82,370 83,339.17 84,185 85,185 86,277.5 87,123.33 88,215.83 89,185 90,370 91,370 92,123.33 93,308.33 94,308.33 95,154.17 96,185 97,370 98,154.17 99,370 100,246.67 101,123.33 102,185 103,123.33 104,185 105,154.17 106,277.5 107,123.33 108,154.17 110,154.17 111,308.33 112,185 113,185 114,154.17 115,154.17 116,123.33 117,185 118,154.17 119,215.83 120,215.83 121,185 122,154.17 123,246.67 124,154.17 125,215.83 126,277.5 127,154.17 128,277.5 129,215.83 130,277.5 131,246.67 132,370 133,277.5 134,185 135,370 136,370 136.99,370"><title>LR761641.1</title></polygon><rect class="average" height="1" width="136.99" x="0" y="177.56"><title>average:6.24</title></rect><rect class="median" height="1" width="136.99" x="0" y="215.83"><title>median:5</title></rect><text class="chromName" x="68.5" y="-12">LR761641.1<title>LR761641.1 58,462,999 bp</title></text><rect class="frame" height="370" width="136.99" x="0" y="0"/></g><g id="chrom-LR761642.1" transform="translate(1177.25719230686,0)"><polygon class="cov0" points="0,370 0,308.33 1,370 2,370 3,277.5 4,339.17 7,339.17 8,277.5 9,339.17 10,308.33 11,277.5 12,277.5 13,154.17 14,215.83 15,246.67 16,308.33 17,277.5 18,308.33 19,246.67 20,215.83 21,185 22,277.5 23,277.5 24,185 25,123.33 26,154.17 28,154.17 29,123.33 30,154.17 31,123.33 32,154.17 33,215.83 34,185 35,308.33 36,123.33 37,154.17 38,123.33 39,185 40,154.17 41,185 42,123.33 43,154.17 44,154.17 45,215.83 46,154.17 47,246.67 48,308.33 49,308.33 50,215.83 52,215.83 53,123.33 54,154.17 55,215.83 56,185 57,215.83 58,215.83 59,154.17 60,154.17 61,308.33 62,215.83 63,154.17 64,215.83 65,154.17 66,154.17 67,308.33 68,246.67 69,154.17 70,185 71,277.5 72,154.17 73,215.83 74,154.17 75,215.83 76,277.5 77,154.17 78,154.17 79,277.5 80,246.67 81,185 82,339.17 83,277.5 84,308.33 85,246.67 86,339.17 86.91,370"><title>LR761642.1</title></polygon><rect class="average" height="1" width="86.91" x="0" y="173.89"><title>average:6.36</title></rect><rect class="median" height="1" width="86.91" x="0" y="215.83"><title>median:5</title></rect><text class="chromName" x="43.45" y="-12">LR761642.1<title>LR761642.1 37,089,910 bp</title></text><rect class="frame" height="370" width="86.91" x="0" y="0"/></g><g id="chrom-LR761643.1" transform="translate(1265.1671710093603,0)"><polygon class="cov1" points="0,370 0,339.17 1,277.5 2,185 3,154.17 4,185 5,215.83 6,185 7,185 8,154.17 9,123.33 10,123.33 11,154.17 12,123.33 13,215.83 14,246.67 15,154.17 16,123.33 17,154.17 18,154.17 19,185 20,370 21,154.17 22,123.33 23,123.33 24,185 25,154.17 26,370 27,339.17 28,370 29,123.33 30,215.83 31,154.17 32,215.83 33,123.33 34,123.33 35,185 36,246.67 37,123.33 38,123.33 39,92.5 40,123.33 41,154.17 42,154.17 43,277.5 44,154.17 45,154.17 46,92.5 47,215.83 48,154.17 49,154.17 50,185 51,123.33 53,123.33 54,154.17 55,123.33 57,123.33 58,215.83 59,123.33 60,92.5 61,123.33 62,154.17 63,123.33 64,154.17 65,215.83 66,154.17 67,154.17 68,123.33 69,123.33 70,154.17 71,246.67 72,215.83 73,215.83 74,92.5 75,215.83 76,123.33 77,123.33 78,185 79,277.5 80,123.33 81,92.5 82,154.17 83,123.33 84,92.5 85,123.33 86,123.33 87,92.5 88,154.17 89,370 90,154.17 91,123.33 92,123.33 93,154.17 94,92.5 95,154.17 96,123.33 97,92.5 99,92.5 100,123.33 101,246.67 102,123.33 103,123.33 104,154.17 105,123.33 106,92.5 107,92.5 108,154.17 109,92.5 111,92.5 112,123.33 113,246.67 114,154.17 115,123.33 116,92.5 118,92.5 119,154.17 120,92.5 121,92.5 122,123.33 126,123.33 127,215.83 128,154.17 129,123.33 130,185 131,185 132,123.33 133,277.5 134,308.33 134.83,370"><title>LR761643.1</title></polygon><rect class="average" height="1" width="134.83" x="0" y="144.61"><title>average:7.31</title></rect><rect class="median" height="1" width="134.83" x="0" y="154.17"><title>median:7</title></rect><text class="chromName" x="67.42" y="-12">LR761643.1<title>LR761643.1 57,541,580 bp</title></text><rect class="frame" height="370" width="134.83" x="0" y="0"/></g><g><line class="ruler" x1="-2" x2="1390" y1="333" y2="333"><title>1</title></line><text class="ruler" x="-5" y="333">1</text><line class="ruler" x1="-2" x2="1390" y1="296" y2="296"><title>2</title></line><text class="ruler" x="-5" y="296">2</text><line class="ruler" x1="-2" x2="1390" y1="259" y2="259"><title>3</title></line><text class="ruler" x="-5" y="259">3</text><line class="ruler" x1="-2" x2="1390" y1="222" y2="222"><title>4</title></line><text class="ruler" x="-5" y="222">4</text><line class="ruler" x1="-2" x2="1390" y1="185" y2="185"><title>6</title></line><text class="ruler" x="-5" y="185">6</text><line class="ruler" x1="-2" x2="1390" y1="148" y2="148"><title>7</title></line><text class="ruler" x="-5" y="148">7</text><line class="ruler" x1="-2" x2="1390" y1="111" y2="111"><title>8</title></line><text class="ruler" x="-5" y="111">8</text><line class="ruler" x1="-2" x2="1390" y1="74" y2="74"><title>9</title></line><text class="ruler" x="-5" y="74">9</text><line class="ruler" x1="-2" x2="1390" y1="37" y2="37"><title>10</title></line><text class="ruler" x="-5" y="37">10</text><line class="ruler" x1="-2" x2="1390" y1="0" y2="0"><title>12</title></line><text class="ruler" x="-5" y="0">12</text></g></g><text class="title" x="795" y="40">M11.realigned.bam M11<title>./M11.realigned.bam</title></text><text class="xLabel" x="795" y="475">GCA_902806645.1_cgigas_uk_roslin_v1_genomic.fna  (589,358,857 bp)<title>../ref/GCA_902806645.1_cgigas_uk_roslin_v1_genomic.fna</title></text><text class="yLabel" transform="translate(25,265) rotate(90)" x="0" y="0">Coverage bp (median)</text></g></svg>