<?xml version="1.0" encoding="UTF-8" standalone="no"?><svg height="500" width="1500" xmlns="http://www.w3.org/2000/svg"><title>M12.realigned.bam</title><desc>Made with wgscoverageplotter undefined Author: Pierre Lindenbaum</desc><style>g.maing {stroke:black;stroke-width:0.5px;fill:none;}
text.title {stroke:none;fill:black;stroke-width:1px;text-anchor:middle;}
rect.frame {stroke:darkgray;fill:none;stroke-width:0.5px;}
text.ruler {stroke:none;fill:darkgray;stroke-width:1px;text-anchor:end;}
text.chromName {stroke:none;fill:darkgray;stroke-width:1px;text-anchor:middle;}
text.xLabel {stroke:none;fill:black;stroke-width:1px;text-anchor:middle;}
text.yLabel {stroke:none;fill:black;stroke-width:1px;text-anchor:middle;}
.cov0 {stroke:gray;fill:antiquewhite;stroke-width:0.5px;}
.cov1 {stroke:gray;fill:beige;stroke-width:0.5px;}
rect.average {stroke:green;fill:green;stroke-width:0.5px;opacity:0.3;}
rect.median {stroke:red;fill:red;stroke-width:0.5px;opacity:0.3;}
line.ruler {stroke:darkgray;stroke-dasharray:4;fill:none;stroke-width:1;}
</style><g class="maing"><g id="chromosomes" transform="translate(100.0,80.0)"><g id="chrom-LR761634.1" transform="translate(10.0,0)"><polygon class="cov0" points="0,370 0,323.75 1,138.75 2,185 3,323.75 4,231.25 5,138.75 6,277.5 7,185 8,138.75 9,92.5 10,92.5 11,46.25 12,138.75 13,185 14,277.5 15,92.5 19,92.5 20,46.25 21,92.5 22,138.75 23,138.75 24,92.5 25,46.25 26,46.25 27,92.5 28,92.5 29,46.25 30,46.25 31,92.5 32,231.25 33,46.25 34,46.25 35,92.5 36,46.25 37,138.75 38,185 39,92.5 40,46.25 42,46.25 43,92.5 44,92.5 45,185 46,138.75 47,92.5 51,92.5 52,46.25 53,92.5 54,277.5 55,370 56,46.25 58,46.25 59,92.5 61,92.5 62,138.75 63,138.75 64,185 65,138.75 66,92.5 67,138.75 68,92.5 69,185 70,92.5 71,46.25 72,185 73,138.75 74,92.5 75,46.25 76,92.5 77,138.75 78,138.75 79,92.5 80,185 81,231.25 82,92.5 84,92.5 85,46.25 86,46.25 87,138.75 88,92.5 89,277.5 90,138.75 91,138.75 92,92.5 93,138.75 94,46.25 95,92.5 96,46.25 97,138.75 98,323.75 99,92.5 100,92.5 101,185 102,92.5 103,138.75 104,138.75 105,92.5 106,185 107,185 108,277.5 109,46.25 110,92.5 112,92.5 113,185 114,323.75 115,231.25 116,46.25 117,138.75 118,92.5 119,185 120,185 121,138.75 122,138.75 123,92.5 124,138.75 127,138.75 128,185 129,185 130,231.25 130.72,370"><title>LR761634.1</title></polygon><rect class="average" height="1" width="130.72" x="0" y="101.32"><title>average:5.81</title></rect><rect class="median" height="1" width="130.72" x="0" y="138.75"><title>median:5</title></rect><text class="chromName" x="65.36" y="-12">LR761634.1<title>LR761634.1 55,785,328 bp</title></text><rect class="frame" height="370" width="130.72" x="0" y="0"/></g><g id="chrom-LR761635.1" transform="translate(141.71753661284166,0)"><polygon class="cov1" points="0,370 0,370 1,370 2,323.75 3,323.75 4,370 5,323.75 6,277.5 7,323.75 8,277.5 9,277.5 10,323.75 12,323.75 13,138.75 14,231.25 15,231.25 16,277.5 17,231.25 18,277.5 19,231.25 20,323.75 21,277.5 23,277.5 24,370 30,370 31,323.75 32,277.5 33,185 34,185 35,231.25 36,231.25 37,323.75 38,323.75 39,138.75 40,138.75 41,185 42,185 43,231.25 44,231.25 45,185 46,231.25 47,138.75 48,185 49,138.75 50,185 52,185 53,323.75 54,323.75 55,231.25 56,231.25 57,277.5 58,185 59,277.5 60,370 61,277.5 62,185 63,277.5 64,323.75 65,231.25 66,323.75 67,277.5 68,277.5 69,323.75 70,277.5 71,231.25 72,185 73,185 74,323.75 75,231.25 76,370 77,0 78,277.5 79,277.5 80,138.75 81,277.5 82,277.5 83,323.75 84,370 85,323.75 86,370 89,370 90,277.5 91,323.75 93,323.75 94,277.5 95,277.5 96,231.25 97,231.25 98,277.5 99,277.5 100,370 101,277.5 102,323.75 103,185 104,138.75 105,185 106,231.25 107,277.5 108,231.25 109,277.5 110,323.75 111,185 112,323.75 114,323.75 115,370 116,323.75 117,277.5 118,138.75 119,185 120,138.75 121,231.25 124,231.25 125,138.75 126,277.5 127,323.75 128,185 129,231.25 130,185 131,323.75 132,185 133,323.75 135,323.75 136,370 137,323.75 139,323.75 140,370 141,323.75 142,323.75 143,370 144,323.75 145,231.25 146,277.5 147,185 148,185 149,138.75 150,277.5 151,277.5 152,370 153,231.25 154,277.5 155,323.75 156,277.5 158,277.5 159,185 160,277.5 161,277.5 162,138.75 163,185 164,277.5 165,277.5 166,323.75 167,370 169,370 170,323.75 171,370 171.58,370"><title>LR761635.1</title></polygon><rect class="average" height="1" width="171.58" x="0" y="196.73"><title>average:3.75</title></rect><rect class="median" height="1" width="171.58" x="0" y="277.5"><title>median:2</title></rect><text class="chromName" x="85.79" y="-12">LR761635.1<title>LR761635.1 73,222,313 bp</title></text><rect class="frame" height="370" width="171.58" x="0" y="0"/></g><g id="chrom-LR761636.1" transform="translate(314.2938403401308,0)"><polygon class="cov0" points="0,370 0,323.75 1,138.75 2,231.25 3,323.75 4,231.25 5,185 6,185 7,138.75 8,92.5 9,138.75 10,92.5 12,92.5 13,185 14,46.25 15,92.5 16,92.5 17,46.25 18,92.5 19,92.5 20,46.25 22,46.25 23,0 24,138.75 25,0 26,92.5 27,231.25 28,46.25 29,0 30,46.25 31,0 32,46.25 33,46.25 34,92.5 35,92.5 36,46.25 37,138.75 38,92.5 39,46.25 40,138.75 41,92.5 43,92.5 44,46.25 45,92.5 46,138.75 47,92.5 48,138.75 49,92.5 50,138.75 51,46.25 52,46.25 53,92.5 54,138.75 55,92.5 56,92.5 57,46.25 58,92.5 59,46.25 60,92.5 61,185 62,92.5 64,92.5 65,138.75 66,92.5 67,92.5 68,138.75 70,138.75 71,46.25 72,46.25 73,92.5 74,138.75 75,138.75 76,323.75 77,185 78,185 79,231.25 80,231.25 81,92.5 82,185 83,92.5 84,46.25 85,92.5 86,277.5 87,138.75 88,92.5 89,185 90,92.5 91,46.25 92,185 93,46.25 94,92.5 95,138.75 96,185 97,92.5 99,92.5 100,138.75 101,46.25 102,92.5 103,46.25 105,46.25 106,92.5 107,46.25 110,46.25 111,92.5 113,92.5 114,46.25 115,0 116,46.25 117,46.25 118,92.5 119,46.25 120,92.5 121,185 122,46.25 123,46.25 124,138.75 125,46.25 126,92.5 127,231.25 128,277.5 129,92.5 130,138.75 133,138.75 134,92.5 135,138.75 136,323.75 136.65,370"><title>LR761636.1</title></polygon><rect class="average" height="1" width="136.65" x="0" y="84.45"><title>average:6.17</title></rect><rect class="median" height="1" width="136.65" x="0" y="92.5"><title>median:6</title></rect><text class="chromName" x="68.33" y="-12">LR761636.1<title>LR761636.1 58,319,100 bp</title></text><rect class="frame" height="370" width="136.65" x="0" y="0"/></g><g id="chrom-LR761637.1" transform="translate(451.9485730949149,0)"><polygon class="cov1" points="0,370 0,370 1,277.5 2,323.75 3,323.75 4,231.25 5,185 6,185 7,277.5 8,231.25 9,277.5 10,323.75 11,185 12,277.5 13,323.75 14,323.75 15,185 16,231.25 17,138.75 18,323.75 19,323.75 20,231.25 21,138.75 22,185 23,185 24,323.75 25,185 26,138.75 27,231.25 28,185 29,231.25 30,231.25 31,92.5 32,138.75 34,138.75 35,185 36,277.5 37,277.5 38,138.75 39,138.75 40,92.5 41,323.75 42,277.5 43,277.5 44,323.75 45,185 46,92.5 49,92.5 50,138.75 51,138.75 52,46.25 53,185 54,46.25 55,92.5 56,92.5 57,231.25 58,277.5 59,323.75 60,323.75 61,185 62,92.5 63,92.5 64,46.25 65,92.5 66,46.25 67,92.5 68,138.75 69,46.25 70,92.5 71,92.5 72,138.75 73,46.25 74,138.75 75,92.5 76,46.25 77,138.75 78,92.5 79,138.75 80,138.75 81,92.5 82,46.25 83,92.5 84,138.75 85,92.5 86,231.25 87,138.75 88,46.25 89,92.5 90,46.25 91,92.5 92,92.5 93,185 96,185 97,138.75 98,92.5 99,138.75 100,231.25 101,277.5 102,277.5 103,323.75 104,323.75 105,185 106,92.5 108,92.5 109,138.75 110,92.5 111,138.75 112,138.75 113,92.5 114,323.75 115,185 117,185 118,138.75 119,323.75 120,185 121,92.5 122,370 123,370 124,323.75 124.49,370"><title>LR761637.1</title></polygon><rect class="average" height="1" width="124.49" x="0" y="138.29"><title>average:5.01</title></rect><rect class="median" height="1" width="124.49" x="0" y="185"><title>median:4</title></rect><text class="chromName" x="62.25" y="-12">LR761637.1<title>LR761637.1 53,127,865 bp</title></text><rect class="frame" height="370" width="124.49" x="0" y="0"/></g><g id="chrom-LR761638.1" transform="translate(577.4390778079033,0)"><polygon class="cov0" points="0,370 0,138.75 1,92.5 2,323.75 3,138.75 4,185 5,138.75 6,185 8,185 9,92.5 10,185 11,277.5 12,138.75 13,138.75 14,92.5 15,185 16,138.75 17,138.75 18,277.5 19,323.75 20,92.5 21,185 22,138.75 23,92.5 24,92.5 25,138.75 26,370 27,92.5 28,185 29,323.75 30,277.5 31,138.75 32,370 33,370 34,185 35,185 36,138.75 37,370 38,277.5 39,323.75 40,370 41,323.75 42,231.25 43,92.5 44,138.75 45,323.75 46,92.5 52,92.5 53,46.25 54,138.75 55,92.5 56,185 57,231.25 58,92.5 59,185 60,185 61,277.5 62,138.75 63,370 64,370 65,323.75 66,92.5 67,231.25 68,138.75 69,231.25 70,185 71,370 72,370 73,323.75 74,277.5 75,370 76,370 77,185 78,323.75 79,277.5 80,277.5 81,138.75 82,370 83,231.25 84,185 85,138.75 87,138.75 88,323.75 89,138.75 90,323.75 91,138.75 92,92.5 94,92.5 95,185 96,370 97,185 98,231.25 99,185 100,231.25 101,185 102,323.75 103,185 104,277.5 105,323.75 106,231.25 108,231.25 109,185 110,277.5 111,185 112,323.75 113,231.25 114,323.75 115,277.5 116,370 117,370 118,323.75 119,370 123,370 124,277.5 125,323.75 126,323.75 127,277.5 128,370 129,323.75 130,323.75 131,277.5 132,370 135,370 136,185 137,370 138,370 139,323.75 140,370 142,370 143,185 144,185 145,231.25 146,323.75 147,138.75 148,138.75 149,185 150,231.25 151,370 152,185 153,185 154,277.5 155,323.75 156,231.25 157,323.75 159,323.75 160,370 161,323.75 162,323.75 163,185 164,185 165,370 168,370 169,277.5 170,370 172,370 172.35,370"><title>LR761638.1</title></polygon><rect class="average" height="1" width="172.35" x="0" y="178.89"><title>average:4.13</title></rect><rect class="median" height="1" width="172.35" x="0" y="231.25"><title>median:3</title></rect><text class="chromName" x="86.17" y="-12">LR761638.1<title>LR761638.1 73,550,375 bp</title></text><rect class="frame" height="370" width="172.35" x="0" y="0"/></g><g id="chrom-LR761639.1" transform="translate(750.784104388203,0)"><polygon class="cov1" points="0,370 0,370 1,138.75 2,138.75 3,277.5 4,138.75 5,231.25 6,370 7,323.75 8,138.75 9,92.5 10,138.75 11,277.5 12,185 13,92.5 15,92.5 16,46.25 19,46.25 20,0 21,46.25 22,92.5 24,92.5 25,185 26,138.75 27,323.75 28,370 29,231.25 30,323.75 31,92.5 32,46.25 33,92.5 34,185 35,231.25 36,231.25 37,92.5 39,92.5 40,185 41,92.5 42,92.5 43,46.25 44,92.5 45,46.25 46,92.5 47,92.5 48,46.25 49,92.5 50,138.75 51,46.25 52,138.75 53,92.5 54,92.5 55,46.25 61,46.25 62,0 63,92.5 64,0 65,46.25 66,92.5 67,46.25 68,46.25 69,138.75 70,92.5 71,46.25 73,46.25 74,185 75,46.25 76,46.25 77,92.5 78,46.25 79,46.25 80,92.5 81,46.25 83,46.25 84,138.75 85,46.25 87,46.25 88,0 89,46.25 90,0 91,92.5 94,92.5 95,46.25 96,92.5 97,46.25 105,46.25 106,185 107,46.25 110,46.25 111,323.75 112,138.75 113,46.25 114,138.75 115,46.25 116,92.5 117,46.25 119,46.25 120,92.5 121,46.25 123,46.25 124,138.75 125,92.5 129,92.5 130,231.25 131,138.75 132,185 133,370 134,92.5 135,185 136,185 137,138.75 138,231.25 139,185 140,370 140.95,370"><title>LR761639.1</title></polygon><rect class="average" height="1" width="140.95" x="0" y="83.04"><title>average:6.2</title></rect><rect class="median" height="1" width="140.95" x="0" y="92.5"><title>median:6</title></rect><text class="chromName" x="70.47" y="-12">LR761639.1<title>LR761639.1 60,151,564 bp</title></text><rect class="frame" height="370" width="140.95" x="0" y="0"/></g><g id="chrom-LR761640.1" transform="translate(892.7327113317651,0)"><polygon class="cov0" points="0,370 0,185 1,92.5 2,185 3,185 4,138.75 5,92.5 6,138.75 7,185 8,46.25 9,92.5 12,92.5 13,277.5 14,92.5 15,92.5 16,185 17,92.5 18,46.25 19,185 20,46.25 22,46.25 23,0 24,46.25 25,92.5 26,46.25 33,46.25 34,92.5 35,46.25 36,46.25 37,138.75 38,46.25 39,92.5 40,0 41,46.25 42,0 43,46.25 44,46.25 45,92.5 46,138.75 47,231.25 48,323.75 49,46.25 50,92.5 51,46.25 52,46.25 53,92.5 54,46.25 56,46.25 57,231.25 58,92.5 59,92.5 60,231.25 61,46.25 62,92.5 63,138.75 64,46.25 65,323.75 66,46.25 67,92.5 68,46.25 69,138.75 70,138.75 71,92.5 72,138.75 73,185 74,138.75 75,46.25 76,46.25 77,185 78,46.25 79,138.75 80,0 82,0 83,46.25 84,46.25 85,0 86,370 87,92.5 88,92.5 89,138.75 90,92.5 91,323.75 92,277.5 93,138.75 94,277.5 95,92.5 96,92.5 97,46.25 98,92.5 99,46.25 100,46.25 101,185 102,185 103,92.5 104,46.25 105,46.25 106,92.5 108,92.5 109,46.25 110,92.5 111,138.75 112,92.5 113,92.5 114,138.75 115,92.5 116,277.5 117,370 119,370 120,92.5 121,46.25 127,46.25 128,231.25 129,92.5 130,46.25 131,46.25 132,92.5 133,46.25 134,0 135,46.25 136,46.25 137,92.5 138,92.5 139,138.75 140,92.5 141,92.5 142,138.75 143,231.25 144,138.75 145,92.5 145.53,370"><title>LR761640.1</title></polygon><rect class="average" height="1" width="145.53" x="0" y="78.92"><title>average:6.29</title></rect><rect class="median" height="1" width="145.53" x="0" y="92.5"><title>median:6</title></rect><text class="chromName" x="72.77" y="-12">LR761640.1<title>LR761640.1 62,107,823 bp</title></text><rect class="frame" height="370" width="145.53" x="0" y="0"/></g><g id="chrom-LR761641.1" transform="translate(1039.265271917344,0)"><polygon class="cov1" points="0,370 0,323.75 1,231.25 4,231.25 5,185 6,323.75 7,277.5 8,231.25 9,185 10,138.75 11,231.25 12,277.5 13,92.5 14,231.25 15,138.75 16,138.75 17,231.25 18,138.75 21,138.75 22,231.25 23,185 25,185 26,231.25 27,185 28,231.25 29,277.5 30,231.25 31,185 32,277.5 33,231.25 34,323.75 35,277.5 36,323.75 37,277.5 39,277.5 40,185 41,231.25 42,323.75 43,323.75 44,277.5 45,185 46,231.25 47,323.75 48,323.75 49,92.5 50,185 51,138.75 53,138.75 54,92.5 56,92.5 57,185 58,185 59,138.75 60,138.75 61,277.5 62,138.75 63,185 64,138.75 65,185 66,231.25 67,277.5 68,277.5 69,138.75 70,185 71,138.75 72,231.25 73,323.75 74,231.25 75,370 76,185 77,138.75 78,138.75 79,277.5 80,277.5 81,370 82,323.75 83,370 84,185 85,138.75 86,277.5 87,138.75 88,231.25 89,185 90,231.25 91,277.5 92,138.75 93,277.5 94,323.75 95,231.25 96,185 97,370 98,185 99,370 100,323.75 101,138.75 102,185 103,138.75 104,185 105,138.75 106,231.25 107,92.5 108,138.75 109,185 110,138.75 111,277.5 112,185 113,231.25 114,138.75 115,185 116,138.75 117,185 118,138.75 119,231.25 120,231.25 121,185 122,185 123,231.25 124,185 125,231.25 126,277.5 127,138.75 128,277.5 129,185 130,277.5 131,231.25 132,370 133,277.5 134,138.75 135,370 136,370 136.99,370"><title>LR761641.1</title></polygon><rect class="average" height="1" width="136.99" x="0" y="167.74"><title>average:4.37</title></rect><rect class="median" height="1" width="136.99" x="0" y="231.25"><title>median:3</title></rect><text class="chromName" x="68.5" y="-12">LR761641.1<title>LR761641.1 58,462,999 bp</title></text><rect class="frame" height="370" width="136.99" x="0" y="0"/></g><g id="chrom-LR761642.1" transform="translate(1177.25719230686,0)"><polygon class="cov0" points="0,370 0,323.75 2,323.75 3,277.5 4,323.75 5,370 6,323.75 7,323.75 8,370 9,323.75 10,277.5 12,277.5 13,138.75 14,231.25 15,185 16,277.5 17,138.75 18,185 20,185 21,138.75 22,185 24,185 25,138.75 26,185 27,231.25 28,277.5 29,138.75 30,231.25 31,138.75 32,185 33,231.25 34,138.75 35,323.75 36,185 37,185 38,92.5 39,185 40,138.75 41,185 42,138.75 44,138.75 45,231.25 46,138.75 47,277.5 48,231.25 49,323.75 50,231.25 51,185 52,231.25 53,92.5 54,138.75 55,231.25 56,185 57,231.25 58,231.25 59,185 60,185 61,323.75 62,231.25 63,185 66,185 67,323.75 68,277.5 69,185 71,185 72,138.75 73,185 74,138.75 75,231.25 76,323.75 77,138.75 78,138.75 79,231.25 80,231.25 81,185 82,323.75 83,277.5 84,323.75 85,185 86,323.75 86.91,370"><title>LR761642.1</title></polygon><rect class="average" height="1" width="86.91" x="0" y="154.77"><title>average:4.65</title></rect><rect class="median" height="1" width="86.91" x="0" y="231.25"><title>median:3</title></rect><text class="chromName" x="43.45" y="-12">LR761642.1<title>LR761642.1 37,089,910 bp</title></text><rect class="frame" height="370" width="86.91" x="0" y="0"/></g><g id="chrom-LR761643.1" transform="translate(1265.1671710093603,0)"><polygon class="cov1" points="0,370 0,323.75 1,277.5 2,185 3,92.5 4,138.75 5,231.25 6,185 7,138.75 8,138.75 9,46.25 10,92.5 11,138.75 12,92.5 13,138.75 14,231.25 15,92.5 16,46.25 17,92.5 18,92.5 19,138.75 20,370 21,92.5 22,46.25 23,46.25 24,185 25,138.75 26,370 27,277.5 28,138.75 29,46.25 30,185 31,92.5 32,185 33,46.25 34,92.5 35,185 36,138.75 37,46.25 41,46.25 42,138.75 43,277.5 44,92.5 45,138.75 46,46.25 47,231.25 48,92.5 49,46.25 50,185 51,46.25 52,46.25 53,92.5 54,92.5 55,46.25 57,46.25 58,92.5 59,46.25 61,46.25 62,92.5 63,46.25 64,92.5 65,138.75 66,92.5 67,46.25 69,46.25 70,92.5 71,185 72,92.5 73,185 74,46.25 75,138.75 76,46.25 77,46.25 78,138.75 79,277.5 80,46.25 87,46.25 88,92.5 89,323.75 90,92.5 91,46.25 93,46.25 94,0 95,92.5 96,46.25 98,46.25 99,0 100,46.25 101,185 102,46.25 105,46.25 106,0 107,0 108,46.25 109,0 111,0 112,46.25 113,231.25 114,92.5 115,46.25 116,0 117,46.25 118,46.25 119,92.5 120,46.25 121,0 122,0 123,46.25 124,92.5 125,46.25 126,92.5 127,185 128,92.5 129,92.5 130,138.75 131,138.75 132,92.5 133,231.25 134,231.25 134.83,370"><title>LR761643.1</title></polygon><rect class="average" height="1" width="134.83" x="0" y="78.89"><title>average:6.29</title></rect><rect class="median" height="1" width="134.83" x="0" y="92.5"><title>median:6</title></rect><text class="chromName" x="67.42" y="-12">LR761643.1<title>LR761643.1 57,541,580 bp</title></text><rect class="frame" height="370" width="134.83" x="0" y="0"/></g><g><line class="ruler" x1="-2" x2="1390" y1="296" y2="296"><title>1</title></line><text class="ruler" x="-5" y="296">1</text><line class="ruler" x1="-2" x2="1390" y1="259" y2="259"><title>2</title></line><text class="ruler" x="-5" y="259">2</text><line class="ruler" x1="-2" x2="1390" y1="222" y2="222"><title>3</title></line><text class="ruler" x="-5" y="222">3</text><line class="ruler" x1="-2" x2="1390" y1="185" y2="185"><title>4</title></line><text class="ruler" x="-5" y="185">4</text><line class="ruler" x1="-2" x2="1390" y1="111" y2="111"><title>5</title></line><text class="ruler" x="-5" y="111">5</text><line class="ruler" x1="-2" x2="1390" y1="74" y2="74"><title>6</title></line><text class="ruler" x="-5" y="74">6</text><line class="ruler" x1="-2" x2="1390" y1="37" y2="37"><title>7</title></line><text class="ruler" x="-5" y="37">7</text><line class="ruler" x1="-2" x2="1390" y1="0" y2="0"><title>8</title></line><text class="ruler" x="-5" y="0">8</text></g></g><text class="title" x="795" y="40">M12.realigned.bam M12<title>./M12.realigned.bam</title></text><text class="xLabel" x="795" y="475">GCA_902806645.1_cgigas_uk_roslin_v1_genomic.fna  (589,358,857 bp)<title>../ref/GCA_902806645.1_cgigas_uk_roslin_v1_genomic.fna</title></text><text class="yLabel" transform="translate(25,265) rotate(90)" x="0" y="0">Coverage bp (median)</text></g></svg>