<?xml version="1.0" encoding="UTF-8" standalone="no"?><svg height="500" width="1500" xmlns="http://www.w3.org/2000/svg"><title>M14.realigned.bam</title><desc>Made with wgscoverageplotter undefined Author: Pierre Lindenbaum</desc><style>g.maing {stroke:black;stroke-width:0.5px;fill:none;}
text.title {stroke:none;fill:black;stroke-width:1px;text-anchor:middle;}
rect.frame {stroke:darkgray;fill:none;stroke-width:0.5px;}
text.ruler {stroke:none;fill:darkgray;stroke-width:1px;text-anchor:end;}
text.chromName {stroke:none;fill:darkgray;stroke-width:1px;text-anchor:middle;}
text.xLabel {stroke:none;fill:black;stroke-width:1px;text-anchor:middle;}
text.yLabel {stroke:none;fill:black;stroke-width:1px;text-anchor:middle;}
.cov0 {stroke:gray;fill:antiquewhite;stroke-width:0.5px;}
.cov1 {stroke:gray;fill:beige;stroke-width:0.5px;}
rect.average {stroke:green;fill:green;stroke-width:0.5px;opacity:0.3;}
rect.median {stroke:red;fill:red;stroke-width:0.5px;opacity:0.3;}
line.ruler {stroke:darkgray;stroke-dasharray:4;fill:none;stroke-width:1;}
</style><g class="maing"><g id="chromosomes" transform="translate(100.0,80.0)"><g id="chrom-LR761634.1" transform="translate(10.0,0)"><polygon class="cov0" points="0,370 0,333 1,185 2,185 3,296 4,259 5,222 6,296 7,222 8,185 9,148 10,185 11,148 12,185 13,222 14,296 15,148 16,148 17,185 18,148 21,148 22,185 24,185 25,111 26,148 31,148 32,259 33,148 35,148 36,111 37,222 38,222 39,148 40,148 41,111 42,148 43,185 44,185 45,222 46,185 47,148 48,185 49,148 53,148 54,185 55,222 56,111 57,111 58,148 60,148 61,111 62,148 63,185 64,222 65,185 66,148 67,185 68,148 69,222 70,148 71,148 72,222 73,185 74,148 76,148 77,185 78,185 79,148 80,222 81,296 82,148 85,148 86,111 87,185 88,148 89,259 90,185 91,148 92,148 93,185 94,111 95,148 96,111 97,148 98,222 99,148 100,185 104,185 105,111 106,185 107,222 108,259 109,148 110,111 111,148 113,148 114,333 115,222 116,111 117,148 118,148 119,185 120,222 121,148 126,148 127,185 128,222 129,185 130,259 130.72,370"><title>LR761634.1</title></polygon><rect class="average" height="1" width="130.72" x="0" y="154.37"><title>average:5.83</title></rect><rect class="median" height="1" width="130.72" x="0" y="185"><title>median:5</title></rect><text class="chromName" x="65.36" y="-12">LR761634.1<title>LR761634.1 55,785,328 bp</title></text><rect class="frame" height="370" width="130.72" x="0" y="0"/></g><g id="chrom-LR761635.1" transform="translate(141.71753661284166,0)"><polygon class="cov1" points="0,370 0,370 2,370 3,296 4,370 5,333 6,222 7,333 8,333 9,148 10,74 11,222 12,74 13,148 14,259 15,296 16,333 17,222 18,296 19,222 20,296 21,296 22,333 23,185 24,296 25,370 26,333 27,333 28,259 29,370 30,333 31,370 32,259 33,222 34,259 36,259 37,296 38,370 39,185 40,259 41,222 42,185 43,222 44,185 45,222 46,222 47,185 48,333 49,222 50,259 51,370 52,259 53,259 54,333 55,296 56,333 57,333 58,222 59,333 60,370 61,296 62,185 63,296 64,333 65,296 66,296 67,259 68,259 69,333 70,333 71,222 72,259 73,222 74,259 75,222 76,370 77,148 78,296 79,333 80,185 81,333 82,333 83,296 84,370 85,296 86,333 88,333 89,296 90,222 91,370 92,333 93,296 95,296 96,370 97,333 99,333 100,296 101,296 102,333 103,296 104,333 105,222 106,296 107,333 108,222 109,185 110,296 111,222 112,333 113,370 114,333 115,370 116,296 117,296 118,185 119,185 120,148 121,185 122,259 124,259 125,148 126,259 127,222 128,185 129,259 130,185 131,333 132,222 133,333 134,333 135,296 136,333 137,333 138,296 139,259 140,370 141,296 144,296 145,259 146,259 147,148 148,185 149,185 150,259 151,296 152,370 153,259 154,296 155,259 156,296 157,296 158,259 159,222 160,222 161,259 162,333 163,259 164,259 165,296 166,333 168,333 169,296 170,333 171,333 171.58,370"><title>LR761635.1</title></polygon><rect class="average" height="1" width="171.58" x="0" y="214.07"><title>average:4.21</title></rect><rect class="median" height="1" width="171.58" x="0" y="296"><title>median:2</title></rect><text class="chromName" x="85.79" y="-12">LR761635.1<title>LR761635.1 73,222,313 bp</title></text><rect class="frame" height="370" width="171.58" x="0" y="0"/></g><g id="chrom-LR761636.1" transform="translate(314.2938403401308,0)"><polygon class="cov0" points="0,370 0,333 1,222 2,259 3,296 4,259 5,185 7,185 8,148 9,185 10,111 11,148 12,148 13,333 14,111 15,148 16,148 17,111 18,148 19,185 20,148 21,148 22,111 23,148 24,222 25,148 26,222 27,296 28,111 29,111 30,148 31,111 33,111 34,148 35,185 36,148 37,185 38,148 39,111 40,148 41,185 42,148 43,185 44,148 45,185 46,185 47,148 48,185 49,148 50,185 51,111 52,148 53,148 54,185 55,148 56,148 57,111 58,148 60,148 61,222 62,185 63,148 67,148 68,185 69,148 70,222 71,111 72,111 73,148 75,148 76,333 77,222 78,222 79,259 80,259 81,148 82,222 83,185 84,111 85,148 86,333 87,185 88,185 89,222 90,148 91,148 92,185 93,185 94,148 95,185 96,185 97,148 98,148 99,185 100,185 101,111 102,148 103,111 104,148 107,148 108,111 109,148 110,148 111,185 112,148 113,185 114,111 115,111 116,148 117,148 118,185 119,148 120,148 121,296 122,148 123,111 124,185 125,148 126,111 127,222 128,296 129,148 130,185 132,185 133,148 135,148 136,296 136.65,370"><title>LR761636.1</title></polygon><rect class="average" height="1" width="136.65" x="0" y="152.12"><title>average:5.89</title></rect><rect class="median" height="1" width="136.65" x="0" y="148"><title>median:6</title></rect><text class="chromName" x="68.33" y="-12">LR761636.1<title>LR761636.1 58,319,100 bp</title></text><rect class="frame" height="370" width="136.65" x="0" y="0"/></g><g id="chrom-LR761637.1" transform="translate(451.9485730949149,0)"><polygon class="cov1" points="0,370 0,370 1,296 2,259 4,259 5,222 6,296 7,259 8,259 9,296 10,333 11,185 12,222 13,296 14,333 15,185 16,222 17,148 18,296 19,333 20,222 21,222 22,185 23,185 24,370 25,185 26,148 27,259 28,185 29,185 30,222 31,185 33,185 34,148 35,222 36,333 37,259 38,185 39,148 40,148 41,296 42,259 43,259 44,333 45,185 46,148 49,148 50,222 51,148 52,111 53,185 54,111 55,148 56,148 57,222 58,296 59,333 60,333 61,222 62,148 67,148 68,222 69,111 70,148 71,148 72,185 73,148 74,185 75,185 76,148 77,185 78,185 79,222 80,185 81,148 85,148 86,259 87,185 88,111 89,148 92,148 93,185 94,222 95,222 96,185 97,148 99,148 100,296 101,370 102,333 103,370 104,370 105,259 106,148 109,148 110,111 111,185 112,148 113,148 114,296 115,222 116,185 117,222 118,222 119,296 120,222 121,148 122,333 123,370 124,296 124.49,370"><title>LR761637.1</title></polygon><rect class="average" height="1" width="124.49" x="0" y="179.37"><title>average:5.15</title></rect><rect class="median" height="1" width="124.49" x="0" y="185"><title>median:5</title></rect><text class="chromName" x="62.25" y="-12">LR761637.1<title>LR761637.1 53,127,865 bp</title></text><rect class="frame" height="370" width="124.49" x="0" y="0"/></g><g id="chrom-LR761638.1" transform="translate(577.4390778079033,0)"><polygon class="cov0" points="0,370 0,259 1,222 2,333 3,148 4,185 5,111 6,259 7,222 8,259 9,148 10,185 11,333 12,148 13,185 14,148 15,185 16,148 17,148 18,296 19,333 20,148 21,222 22,148 24,148 25,185 26,259 27,148 28,222 29,333 30,296 31,148 32,370 33,370 34,185 35,259 36,185 37,333 38,296 39,333 40,370 41,333 42,296 43,185 44,185 45,333 46,148 48,148 49,296 50,370 51,296 52,185 53,222 54,259 55,259 56,185 57,259 58,148 59,222 60,222 61,259 62,185 63,296 64,333 65,333 66,222 67,185 68,148 69,222 70,185 71,370 72,370 73,333 74,222 75,370 76,333 77,222 78,333 79,333 80,296 81,185 82,296 83,333 84,296 85,222 86,185 87,185 88,333 89,148 90,296 91,185 92,111 93,148 94,148 95,259 96,259 97,148 98,259 99,185 100,222 101,185 102,333 103,185 104,222 105,296 106,259 107,222 108,296 109,185 110,259 111,222 112,333 113,222 114,259 115,296 116,333 117,370 118,370 119,333 120,296 121,370 123,370 124,296 125,333 126,333 127,259 128,370 129,333 130,370 131,333 132,259 133,370 134,296 135,333 136,185 137,370 142,370 143,296 144,185 145,185 146,333 147,185 149,185 150,222 151,333 152,148 153,185 154,259 155,185 156,222 157,296 158,296 159,185 160,222 161,222 162,185 163,222 164,185 165,185 166,222 167,222 168,111 169,148 170,222 172,222 172.35,370"><title>LR761638.1</title></polygon><rect class="average" height="1" width="172.35" x="0" y="203.67"><title>average:4.5</title></rect><rect class="median" height="1" width="172.35" x="0" y="259"><title>median:3</title></rect><text class="chromName" x="86.17" y="-12">LR761638.1<title>LR761638.1 73,550,375 bp</title></text><rect class="frame" height="370" width="172.35" x="0" y="0"/></g><g id="chrom-LR761639.1" transform="translate(750.784104388203,0)"><polygon class="cov1" points="0,370 0,333 1,222 2,185 3,296 4,148 5,259 6,370 7,259 8,185 9,148 10,185 11,296 12,259 13,148 14,185 15,148 18,148 19,111 20,111 21,148 22,185 24,185 25,222 26,185 27,333 28,370 29,222 30,333 31,148 33,148 34,259 35,222 36,185 37,148 39,148 40,259 41,111 42,148 43,111 44,148 45,111 46,185 47,148 48,111 49,148 50,148 51,111 52,185 53,148 55,148 56,111 57,148 58,148 59,111 60,111 61,148 63,148 64,111 65,111 66,185 67,148 73,148 74,222 75,148 77,148 78,111 79,148 80,185 81,111 82,148 83,148 84,222 85,148 86,111 87,148 89,148 90,111 91,148 92,148 93,185 94,185 95,148 96,148 97,111 98,111 99,148 101,148 102,111 103,148 104,111 105,111 106,259 107,148 108,111 109,148 110,148 111,333 112,185 113,111 114,185 115,148 119,148 120,185 121,148 123,148 124,185 125,148 127,148 128,185 129,148 130,185 131,185 132,222 133,370 134,148 135,222 136,222 137,185 138,222 139,222 140,296 140.95,370"><title>LR761639.1</title></polygon><rect class="average" height="1" width="140.95" x="0" y="149.85"><title>average:5.95</title></rect><rect class="median" height="1" width="140.95" x="0" y="148"><title>median:6</title></rect><text class="chromName" x="70.47" y="-12">LR761639.1<title>LR761639.1 60,151,564 bp</title></text><rect class="frame" height="370" width="140.95" x="0" y="0"/></g><g id="chrom-LR761640.1" transform="translate(892.7327113317651,0)"><polygon class="cov0" points="0,370 0,259 1,148 2,222 3,222 4,185 5,148 6,185 7,222 8,148 9,185 10,148 11,111 12,148 13,222 14,148 15,148 16,222 17,148 19,148 20,111 21,148 22,148 23,111 24,111 25,148 26,111 27,111 28,148 29,111 30,148 31,111 33,111 34,148 35,148 36,111 37,185 38,111 39,185 40,111 44,111 45,148 46,185 48,185 49,111 50,111 51,148 52,111 53,148 54,111 56,111 57,185 58,148 59,148 60,259 61,111 62,185 63,222 64,148 65,296 66,148 68,148 69,185 70,185 71,148 72,148 73,222 74,185 75,148 76,148 77,222 78,111 79,185 80,111 81,74 82,111 83,148 85,148 86,370 87,185 90,185 91,333 92,296 93,185 94,296 95,148 99,148 100,111 101,222 102,370 103,222 104,148 105,111 106,111 107,185 108,222 109,148 110,185 111,222 112,148 113,148 114,185 115,148 116,333 117,333 118,370 119,333 120,185 121,111 122,148 124,148 125,111 126,148 127,148 128,259 129,185 130,148 133,148 134,111 135,111 136,148 138,148 139,222 140,148 141,148 142,185 143,148 145,148 145.53,370"><title>LR761640.1</title></polygon><rect class="average" height="1" width="145.53" x="0" y="148.91"><title>average:5.98</title></rect><rect class="median" height="1" width="145.53" x="0" y="148"><title>median:6</title></rect><text class="chromName" x="72.77" y="-12">LR761640.1<title>LR761640.1 62,107,823 bp</title></text><rect class="frame" height="370" width="145.53" x="0" y="0"/></g><g id="chrom-LR761641.1" transform="translate(1039.265271917344,0)"><polygon class="cov1" points="0,370 0,333 1,185 2,296 3,222 5,222 6,333 7,222 8,296 9,185 10,148 11,259 12,222 13,111 14,259 15,148 16,148 17,259 18,185 19,148 20,148 21,185 22,222 23,185 24,222 25,185 26,259 27,222 28,259 29,296 30,259 31,222 32,259 33,222 34,296 35,333 36,370 37,259 40,259 41,333 42,370 43,370 44,259 46,259 47,296 48,222 49,148 50,185 51,148 52,111 55,111 56,148 57,185 58,148 60,148 61,296 62,148 63,185 64,222 66,222 67,259 68,259 69,148 70,370 71,148 72,222 73,370 74,222 75,370 76,185 77,296 78,185 79,259 80,296 81,370 82,370 83,296 84,185 85,185 86,296 87,148 88,259 89,185 90,259 91,259 92,148 93,222 94,259 95,222 96,222 97,296 98,148 99,370 100,222 101,148 102,185 103,148 104,222 105,148 106,259 107,148 108,148 109,185 110,148 111,296 112,185 113,222 114,185 115,185 116,148 117,185 118,148 119,259 120,296 121,185 122,222 123,259 124,185 125,259 126,259 127,148 128,296 129,222 130,259 131,222 132,370 133,296 134,148 135,370 136,370 136.99,370"><title>LR761641.1</title></polygon><rect class="average" height="1" width="136.99" x="0" y="187.3"><title>average:4.94</title></rect><rect class="median" height="1" width="136.99" x="0" y="222"><title>median:4</title></rect><text class="chromName" x="68.5" y="-12">LR761641.1<title>LR761641.1 58,462,999 bp</title></text><rect class="frame" height="370" width="136.99" x="0" y="0"/></g><g id="chrom-LR761642.1" transform="translate(1177.25719230686,0)"><polygon class="cov0" points="0,370 0,370 1,333 2,222 4,222 5,259 6,296 7,296 8,222 9,185 12,185 13,148 14,148 15,296 16,259 17,185 18,185 19,148 20,148 21,111 22,185 23,259 24,185 25,148 27,148 28,185 29,148 30,185 31,148 32,185 33,259 34,148 35,185 36,148 38,148 39,222 40,148 44,148 45,185 46,148 47,259 48,148 49,259 50,185 51,148 52,222 53,148 54,148 55,222 56,185 57,222 58,222 59,148 60,185 61,333 62,185 63,185 64,222 65,185 66,185 67,333 68,259 69,185 70,148 71,222 72,185 73,222 74,148 75,222 76,333 77,148 78,148 79,333 80,296 81,185 82,370 83,259 84,333 85,222 86,370 86.91,370"><title>LR761642.1</title></polygon><rect class="average" height="1" width="86.91" x="0" y="158.67"><title>average:5.71</title></rect><rect class="median" height="1" width="86.91" x="0" y="185"><title>median:5</title></rect><text class="chromName" x="43.45" y="-12">LR761642.1<title>LR761642.1 37,089,910 bp</title></text><rect class="frame" height="370" width="86.91" x="0" y="0"/></g><g id="chrom-LR761643.1" transform="translate(1265.1671710093603,0)"><polygon class="cov1" points="0,370 0,370 1,296 2,185 3,148 4,148 5,259 6,185 8,185 9,148 10,148 11,185 12,148 13,222 14,259 15,148 16,148 17,185 19,185 20,333 21,185 22,148 24,148 25,185 26,370 27,370 28,296 29,148 30,259 31,185 32,185 33,148 34,148 35,222 36,259 37,111 38,148 39,111 40,148 41,148 42,185 43,259 44,148 45,185 46,148 47,222 48,148 49,148 50,185 51,148 52,148 53,185 54,185 55,148 57,148 58,185 59,148 60,111 61,111 62,185 63,148 64,148 65,185 66,148 67,148 68,185 69,148 70,148 71,259 72,222 73,259 74,111 75,222 76,148 77,111 78,222 79,259 80,148 81,111 82,185 83,148 84,111 85,111 86,148 87,111 88,185 89,296 90,185 91,148 92,111 93,148 94,111 95,148 96,148 97,111 100,111 101,259 102,148 105,148 106,111 107,111 108,148 109,111 112,111 113,222 114,148 115,148 116,111 118,111 119,148 120,111 123,111 124,148 127,148 128,185 129,148 130,148 131,222 132,148 133,185 134,185 134.83,370"><title>LR761643.1</title></polygon><rect class="average" height="1" width="134.83" x="0" y="152.89"><title>average:5.87</title></rect><rect class="median" height="1" width="134.83" x="0" y="148"><title>median:6</title></rect><text class="chromName" x="67.42" y="-12">LR761643.1<title>LR761643.1 57,541,580 bp</title></text><rect class="frame" height="370" width="134.83" x="0" y="0"/></g><g><line class="ruler" x1="-2" x2="1390" y1="333" y2="333"><title>1</title></line><text class="ruler" x="-5" y="333">1</text><line class="ruler" x1="-2" x2="1390" y1="296" y2="296"><title>2</title></line><text class="ruler" x="-5" y="296">2</text><line class="ruler" x1="-2" x2="1390" y1="259" y2="259"><title>3</title></line><text class="ruler" x="-5" y="259">3</text><line class="ruler" x1="-2" x2="1390" y1="222" y2="222"><title>4</title></line><text class="ruler" x="-5" y="222">4</text><line class="ruler" x1="-2" x2="1390" y1="185" y2="185"><title>5</title></line><text class="ruler" x="-5" y="185">5</text><line class="ruler" x1="-2" x2="1390" y1="148" y2="148"><title>6</title></line><text class="ruler" x="-5" y="148">6</text><line class="ruler" x1="-2" x2="1390" y1="111" y2="111"><title>7</title></line><text class="ruler" x="-5" y="111">7</text><line class="ruler" x1="-2" x2="1390" y1="74" y2="74"><title>8</title></line><text class="ruler" x="-5" y="74">8</text><line class="ruler" x1="-2" x2="1390" y1="37" y2="37"><title>9</title></line><text class="ruler" x="-5" y="37">9</text><line class="ruler" x1="-2" x2="1390" y1="0" y2="0"><title>10</title></line><text class="ruler" x="-5" y="0">10</text></g></g><text class="title" x="795" y="40">M14.realigned.bam M14<title>./M14.realigned.bam</title></text><text class="xLabel" x="795" y="475">GCA_902806645.1_cgigas_uk_roslin_v1_genomic.fna  (589,358,857 bp)<title>../ref/GCA_902806645.1_cgigas_uk_roslin_v1_genomic.fna</title></text><text class="yLabel" transform="translate(25,265) rotate(90)" x="0" y="0">Coverage bp (median)</text></g></svg>