<?xml version="1.0" encoding="UTF-8" standalone="no"?><svg height="500" width="1500" xmlns="http://www.w3.org/2000/svg"><title>M15.realigned.bam</title><desc>Made with wgscoverageplotter undefined Author: Pierre Lindenbaum</desc><style>g.maing {stroke:black;stroke-width:0.5px;fill:none;}
text.title {stroke:none;fill:black;stroke-width:1px;text-anchor:middle;}
rect.frame {stroke:darkgray;fill:none;stroke-width:0.5px;}
text.ruler {stroke:none;fill:darkgray;stroke-width:1px;text-anchor:end;}
text.chromName {stroke:none;fill:darkgray;stroke-width:1px;text-anchor:middle;}
text.xLabel {stroke:none;fill:black;stroke-width:1px;text-anchor:middle;}
text.yLabel {stroke:none;fill:black;stroke-width:1px;text-anchor:middle;}
.cov0 {stroke:gray;fill:antiquewhite;stroke-width:0.5px;}
.cov1 {stroke:gray;fill:beige;stroke-width:0.5px;}
rect.average {stroke:green;fill:green;stroke-width:0.5px;opacity:0.3;}
rect.median {stroke:red;fill:red;stroke-width:0.5px;opacity:0.3;}
line.ruler {stroke:darkgray;stroke-dasharray:4;fill:none;stroke-width:1;}
</style><g class="maing"><g id="chromosomes" transform="translate(100.0,80.0)"><g id="chrom-LR761634.1" transform="translate(10.0,0)"><polygon class="cov0" points="0,370 0,185 1,111 2,185 3,259 4,259 5,222 6,296 7,148 8,111 9,111 10,148 11,74 12,111 13,148 14,259 15,111 16,111 17,222 18,111 21,111 22,148 24,148 25,74 26,111 31,111 32,259 33,111 34,111 35,148 36,74 37,185 38,185 39,111 42,111 43,148 44,148 45,185 46,185 47,111 51,111 52,74 53,111 55,111 56,74 57,74 58,111 59,111 60,148 61,74 62,148 63,148 64,185 65,148 66,111 67,185 68,111 69,222 70,111 71,111 72,222 73,148 74,111 76,111 77,148 79,148 80,222 81,259 82,74 83,111 85,111 86,74 87,148 88,111 89,222 90,148 91,111 92,111 93,148 94,74 95,111 96,74 97,222 98,222 99,111 100,111 101,74 102,111 103,148 104,185 105,111 106,185 107,185 108,148 109,111 110,74 111,111 112,111 113,148 114,185 115,185 116,74 117,111 118,74 119,148 120,185 121,111 122,74 123,111 127,111 128,185 130,185 130.72,370"><title>LR761634.1</title></polygon><rect class="average" height="1" width="130.72" x="0" y="116.85"><title>average:6.84</title></rect><rect class="median" height="1" width="130.72" x="0" y="148"><title>median:6</title></rect><text class="chromName" x="65.36" y="-12">LR761634.1<title>LR761634.1 55,785,328 bp</title></text><rect class="frame" height="370" width="130.72" x="0" y="0"/></g><g id="chrom-LR761635.1" transform="translate(141.71753661284166,0)"><polygon class="cov1" points="0,370 0,370 1,370 2,333 3,296 4,370 5,370 6,185 7,259 8,259 9,333 10,259 11,296 12,296 13,148 14,185 15,296 16,296 17,259 18,296 19,259 20,296 21,333 22,296 23,296 24,370 25,333 26,333 27,370 28,296 29,370 30,370 31,333 32,259 33,259 34,222 35,222 36,259 37,333 38,333 39,185 40,222 41,259 42,148 43,185 44,111 45,148 46,222 47,148 48,296 49,185 50,222 51,370 52,296 53,259 54,370 55,296 56,370 57,296 58,148 59,296 60,333 61,296 62,111 63,296 65,296 66,259 67,296 68,222 69,296 70,370 71,148 72,259 73,222 74,259 75,185 76,370 77,0 78,222 79,333 80,148 81,333 82,296 83,333 84,370 85,333 86,370 89,370 90,259 91,333 92,333 93,296 94,259 95,370 97,370 98,333 99,333 100,370 101,370 102,333 103,296 104,296 105,185 106,259 107,296 108,185 109,37 110,370 111,185 112,296 113,333 114,333 115,370 116,333 117,296 118,148 119,185 120,148 121,185 122,259 123,259 124,296 125,148 126,222 127,296 128,185 129,333 130,185 131,259 132,222 133,296 134,333 138,333 139,185 140,370 141,296 142,259 143,296 144,259 145,222 146,222 147,148 148,185 149,148 150,222 151,259 152,370 153,222 154,333 155,333 156,296 157,222 158,296 159,148 160,222 161,296 162,333 163,222 164,222 165,259 166,296 167,333 168,296 169,296 170,333 171,333 171.58,370"><title>LR761635.1</title></polygon><rect class="average" height="1" width="171.58" x="0" y="201.66"><title>average:4.55</title></rect><rect class="median" height="1" width="171.58" x="0" y="296"><title>median:2</title></rect><text class="chromName" x="85.79" y="-12">LR761635.1<title>LR761635.1 73,222,313 bp</title></text><rect class="frame" height="370" width="171.58" x="0" y="0"/></g><g id="chrom-LR761636.1" transform="translate(314.2938403401308,0)"><polygon class="cov0" points="0,370 0,333 1,185 2,185 3,333 4,259 5,148 6,185 7,185 8,111 9,148 10,111 11,148 12,148 13,259 14,111 15,148 16,111 17,111 18,148 19,111 23,111 24,185 25,74 26,185 27,259 28,111 29,74 32,74 33,111 34,111 35,185 36,111 37,148 38,111 40,111 41,148 42,148 43,111 45,111 46,148 47,74 48,148 49,111 50,148 51,74 52,111 53,111 54,185 55,148 56,148 57,74 58,111 59,111 60,148 61,222 62,148 63,111 64,111 65,148 66,111 67,111 68,148 69,111 70,185 71,74 72,74 73,148 74,148 75,111 76,333 77,185 78,185 79,222 80,259 81,111 82,222 83,111 84,74 85,111 86,222 87,148 88,111 89,185 90,111 91,111 92,185 93,148 94,111 95,111 96,222 97,111 98,111 99,148 100,185 101,111 102,148 103,74 104,74 105,111 107,111 108,74 109,111 110,111 111,148 112,111 113,148 114,74 116,74 117,111 118,148 119,111 120,111 121,148 122,111 123,111 124,148 125,111 126,111 127,222 128,259 129,111 130,111 131,148 132,185 133,185 134,111 135,148 136,333 136.65,370"><title>LR761636.1</title></polygon><rect class="average" height="1" width="136.65" x="0" y="120.69"><title>average:6.74</title></rect><rect class="median" height="1" width="136.65" x="0" y="148"><title>median:6</title></rect><text class="chromName" x="68.33" y="-12">LR761636.1<title>LR761636.1 58,319,100 bp</title></text><rect class="frame" height="370" width="136.65" x="0" y="0"/></g><g id="chrom-LR761637.1" transform="translate(451.9485730949149,0)"><polygon class="cov1" points="0,370 0,370 1,296 2,296 3,259 4,259 5,185 6,259 8,259 9,333 10,333 11,185 12,259 13,259 14,296 15,148 16,222 17,74 18,296 19,296 20,259 21,148 22,148 23,259 24,333 25,148 26,111 27,222 30,222 31,148 32,148 33,111 34,111 35,185 36,296 37,222 38,148 39,148 40,111 41,259 42,222 43,296 44,333 45,111 49,111 50,185 51,111 52,74 53,148 54,74 55,111 56,111 57,222 58,259 59,296 60,296 61,222 62,111 67,111 68,185 69,74 70,111 71,111 72,185 73,111 74,148 75,148 76,111 77,148 78,148 79,185 80,148 81,111 83,111 84,148 85,111 86,222 87,111 88,74 89,111 92,111 93,148 94,185 95,222 96,185 97,111 99,111 100,259 101,333 104,333 105,222 106,74 107,111 111,111 112,148 113,111 114,333 115,222 116,185 117,148 118,148 119,296 120,148 121,111 122,370 123,333 124,296 124.49,370"><title>LR761637.1</title></polygon><rect class="average" height="1" width="124.49" x="0" y="152.56"><title>average:5.88</title></rect><rect class="median" height="1" width="124.49" x="0" y="185"><title>median:5</title></rect><text class="chromName" x="62.25" y="-12">LR761637.1<title>LR761637.1 53,127,865 bp</title></text><rect class="frame" height="370" width="124.49" x="0" y="0"/></g><g id="chrom-LR761638.1" transform="translate(577.4390778079033,0)"><polygon class="cov0" points="0,370 0,222 1,74 2,296 3,148 4,222 5,148 6,185 7,185 8,222 9,111 10,148 11,296 12,148 13,185 14,111 15,148 16,185 17,111 18,259 19,370 20,148 21,222 22,148 23,111 24,111 25,148 26,370 27,111 28,185 29,333 30,259 31,148 32,370 33,333 34,185 35,222 36,148 37,370 38,296 39,333 40,370 41,333 42,222 43,148 44,148 45,296 46,222 47,111 48,111 49,185 50,370 51,222 52,185 53,148 54,185 55,185 56,148 57,222 58,148 59,185 60,222 61,148 62,148 63,296 64,333 65,259 66,222 67,222 68,185 69,333 70,148 71,333 72,296 73,296 74,222 75,370 76,333 77,259 78,370 79,370 80,333 81,148 82,222 83,370 84,296 85,222 86,74 87,148 88,296 89,111 90,296 91,148 92,74 93,74 94,111 95,185 96,333 97,185 98,222 99,222 100,185 101,185 102,259 103,185 104,296 105,296 106,259 107,185 108,222 109,185 110,222 111,148 112,333 113,222 114,222 115,259 116,333 117,370 118,296 119,370 120,333 121,370 123,370 124,333 125,296 126,296 127,259 128,370 129,296 130,370 131,333 132,296 133,370 134,296 135,333 136,185 137,370 138,370 139,296 140,333 141,370 142,370 143,222 144,185 145,185 146,296 147,148 148,185 149,148 150,185 151,333 152,185 153,148 154,259 155,296 156,222 157,333 158,296 159,296 160,333 161,333 162,296 163,259 164,296 165,296 166,370 167,370 168,222 169,222 170,370 171,370 172,333 172.35,370"><title>LR761638.1</title></polygon><rect class="average" height="1" width="172.35" x="0" y="191.8"><title>average:4.82</title></rect><rect class="median" height="1" width="172.35" x="0" y="259"><title>median:3</title></rect><text class="chromName" x="86.17" y="-12">LR761638.1<title>LR761638.1 73,550,375 bp</title></text><rect class="frame" height="370" width="172.35" x="0" y="0"/></g><g id="chrom-LR761639.1" transform="translate(750.784104388203,0)"><polygon class="cov1" points="0,370 0,296 1,148 2,111 3,296 4,185 5,222 6,370 7,296 8,148 9,111 10,148 11,222 12,259 13,111 14,185 15,111 18,111 19,74 20,74 21,111 22,148 24,148 25,222 26,185 27,333 28,370 29,185 30,296 31,111 32,148 33,111 34,222 36,222 37,111 39,111 40,185 41,111 42,111 43,74 44,148 45,111 46,148 47,111 48,111 49,148 50,148 51,111 52,148 53,111 58,111 59,74 65,74 66,148 67,74 68,111 69,185 70,111 73,111 74,222 75,111 77,111 78,74 79,111 80,148 81,74 82,111 83,111 84,185 85,111 86,74 87,111 88,74 89,111 90,74 91,111 92,111 93,148 94,148 95,111 96,111 97,74 98,74 99,111 103,111 104,74 105,74 106,259 107,111 108,74 109,111 110,111 111,333 112,185 113,74 114,148 115,74 116,148 117,111 118,111 119,74 120,148 121,111 123,111 124,148 125,111 127,111 128,148 129,111 130,185 131,148 132,185 133,333 134,111 135,185 136,148 137,185 138,148 139,185 140,222 140.95,370"><title>LR761639.1</title></polygon><rect class="average" height="1" width="140.95" x="0" y="120.73"><title>average:6.74</title></rect><rect class="median" height="1" width="140.95" x="0" y="148"><title>median:6</title></rect><text class="chromName" x="70.47" y="-12">LR761639.1<title>LR761639.1 60,151,564 bp</title></text><rect class="frame" height="370" width="140.95" x="0" y="0"/></g><g id="chrom-LR761640.1" transform="translate(892.7327113317651,0)"><polygon class="cov0" points="0,370 0,185 1,148 2,185 4,185 5,111 6,185 7,185 8,148 9,185 10,111 11,185 12,111 13,259 14,148 15,111 16,185 17,111 18,111 19,185 20,111 22,111 23,74 24,111 25,148 26,74 27,111 30,111 31,148 32,111 33,74 34,148 35,111 36,111 37,185 38,74 39,148 40,74 41,111 42,74 44,74 45,111 46,111 47,222 48,296 49,74 50,111 51,111 52,74 53,111 54,74 55,74 56,111 57,222 58,111 59,185 60,222 61,111 62,111 63,185 64,111 65,222 66,111 68,111 69,148 70,148 71,111 72,148 73,222 74,148 75,111 76,111 77,185 78,111 79,148 80,37 81,37 82,74 83,111 85,111 86,333 87,111 88,148 89,111 90,148 91,333 92,259 93,185 94,259 95,148 96,111 97,111 98,148 99,111 101,111 102,333 103,259 104,111 105,74 106,74 107,185 108,222 109,111 110,148 111,185 112,74 113,148 114,148 115,111 116,370 117,333 118,370 119,333 120,148 121,74 122,111 127,111 128,259 129,148 130,111 131,111 132,148 133,111 134,74 135,111 136,111 137,148 138,111 139,148 140,148 141,111 142,148 143,111 144,148 145,148 145.53,370"><title>LR761640.1</title></polygon><rect class="average" height="1" width="145.53" x="0" y="123.37"><title>average:6.67</title></rect><rect class="median" height="1" width="145.53" x="0" y="148"><title>median:6</title></rect><text class="chromName" x="72.77" y="-12">LR761640.1<title>LR761640.1 62,107,823 bp</title></text><rect class="frame" height="370" width="145.53" x="0" y="0"/></g><g id="chrom-LR761641.1" transform="translate(1039.265271917344,0)"><polygon class="cov1" points="0,370 0,296 1,185 2,259 3,185 4,37 5,185 6,259 7,222 8,296 9,185 10,148 11,222 12,222 13,111 14,222 15,111 16,148 17,370 18,111 19,111 20,148 21,185 22,185 23,148 24,185 25,148 26,222 27,185 28,259 29,333 30,222 31,185 32,296 33,259 34,296 35,296 36,259 38,259 39,222 40,222 41,259 42,333 43,333 44,259 45,185 46,222 47,259 48,333 49,148 50,185 51,148 52,111 54,111 55,74 56,111 57,185 59,185 60,111 61,370 62,111 63,148 64,185 65,148 66,185 67,222 68,222 69,185 70,370 71,111 72,222 73,296 74,222 75,259 76,185 77,185 78,148 79,185 80,296 81,370 82,370 83,333 84,185 85,148 86,259 87,111 88,222 89,148 90,296 91,222 92,111 93,259 94,333 95,296 96,148 97,296 98,148 99,370 100,222 101,111 102,185 103,111 104,185 105,148 106,222 107,111 108,148 110,148 111,296 112,111 113,296 114,148 115,222 116,111 117,148 118,148 119,222 120,222 121,185 122,148 123,222 124,148 125,222 126,259 127,111 128,259 129,222 130,296 131,185 132,370 133,296 134,148 135,370 136,370 136.99,370"><title>LR761641.1</title></polygon><rect class="average" height="1" width="136.99" x="0" y="166.34"><title>average:5.5</title></rect><rect class="median" height="1" width="136.99" x="0" y="222"><title>median:4</title></rect><text class="chromName" x="68.5" y="-12">LR761641.1<title>LR761641.1 58,462,999 bp</title></text><rect class="frame" height="370" width="136.99" x="0" y="0"/></g><g id="chrom-LR761642.1" transform="translate(1177.25719230686,0)"><polygon class="cov0" points="0,370 0,296 1,259 2,296 3,296 4,333 5,370 6,333 9,333 10,222 11,185 12,185 13,111 14,185 15,222 16,333 17,222 18,296 19,148 20,185 21,148 22,296 23,296 24,148 25,111 26,148 27,185 28,296 29,148 30,259 31,111 32,148 33,222 34,148 35,185 36,148 37,222 38,111 39,185 40,148 41,148 42,111 43,111 44,148 45,185 46,148 47,222 48,296 49,296 50,222 51,185 52,185 53,111 54,148 55,222 56,148 57,222 58,259 59,111 60,148 61,296 62,185 63,148 64,222 65,185 66,148 67,333 68,259 69,111 70,111 71,259 72,148 73,222 74,148 75,185 76,333 77,148 78,148 79,222 80,259 81,185 82,333 83,222 84,296 85,222 86,333 86.91,370"><title>LR761642.1</title></polygon><rect class="average" height="1" width="86.91" x="0" y="159.4"><title>average:5.69</title></rect><rect class="median" height="1" width="86.91" x="0" y="222"><title>median:4</title></rect><text class="chromName" x="43.45" y="-12">LR761642.1<title>LR761642.1 37,089,910 bp</title></text><rect class="frame" height="370" width="86.91" x="0" y="0"/></g><g id="chrom-LR761643.1" transform="translate(1265.1671710093603,0)"><polygon class="cov1" points="0,370 0,370 1,259 2,185 3,111 4,148 5,259 6,148 7,185 8,148 9,111 10,111 11,148 12,111 13,148 14,222 15,148 16,74 17,148 19,148 20,370 21,148 22,111 23,111 24,185 25,148 26,370 27,259 28,296 29,111 30,185 31,148 32,148 33,111 34,74 35,185 36,222 37,74 38,111 41,111 42,185 43,296 44,111 45,148 46,74 47,222 48,148 49,111 50,148 51,111 53,111 54,148 55,111 56,74 57,111 58,148 59,111 60,37 61,111 62,148 63,111 64,148 65,185 66,148 67,111 70,111 71,222 72,185 73,259 74,74 75,222 76,111 77,74 78,185 79,259 80,111 81,74 82,111 83,111 84,74 85,74 86,111 87,74 88,148 89,333 90,148 91,74 92,74 93,111 94,74 95,111 96,74 99,74 100,111 101,259 102,111 105,111 106,74 107,74 108,111 109,74 112,74 113,185 114,111 115,111 116,74 117,74 118,148 119,111 120,74 123,74 124,111 126,111 127,185 128,148 129,111 130,148 131,185 132,111 133,222 134,333 134.83,370"><title>LR761643.1</title></polygon><rect class="average" height="1" width="134.83" x="0" y="124.98"><title>average:6.62</title></rect><rect class="median" height="1" width="134.83" x="0" y="148"><title>median:6</title></rect><text class="chromName" x="67.42" y="-12">LR761643.1<title>LR761643.1 57,541,580 bp</title></text><rect class="frame" height="370" width="134.83" x="0" y="0"/></g><g><line class="ruler" x1="-2" x2="1390" y1="333" y2="333"><title>1</title></line><text class="ruler" x="-5" y="333">1</text><line class="ruler" x1="-2" x2="1390" y1="296" y2="296"><title>2</title></line><text class="ruler" x="-5" y="296">2</text><line class="ruler" x1="-2" x2="1390" y1="259" y2="259"><title>3</title></line><text class="ruler" x="-5" y="259">3</text><line class="ruler" x1="-2" x2="1390" y1="222" y2="222"><title>4</title></line><text class="ruler" x="-5" y="222">4</text><line class="ruler" x1="-2" x2="1390" y1="185" y2="185"><title>5</title></line><text class="ruler" x="-5" y="185">5</text><line class="ruler" x1="-2" x2="1390" y1="148" y2="148"><title>6</title></line><text class="ruler" x="-5" y="148">6</text><line class="ruler" x1="-2" x2="1390" y1="111" y2="111"><title>7</title></line><text class="ruler" x="-5" y="111">7</text><line class="ruler" x1="-2" x2="1390" y1="74" y2="74"><title>8</title></line><text class="ruler" x="-5" y="74">8</text><line class="ruler" x1="-2" x2="1390" y1="37" y2="37"><title>9</title></line><text class="ruler" x="-5" y="37">9</text><line class="ruler" x1="-2" x2="1390" y1="0" y2="0"><title>10</title></line><text class="ruler" x="-5" y="0">10</text></g></g><text class="title" x="795" y="40">M15.realigned.bam M15<title>./M15.realigned.bam</title></text><text class="xLabel" x="795" y="475">GCA_902806645.1_cgigas_uk_roslin_v1_genomic.fna  (589,358,857 bp)<title>../ref/GCA_902806645.1_cgigas_uk_roslin_v1_genomic.fna</title></text><text class="yLabel" transform="translate(25,265) rotate(90)" x="0" y="0">Coverage bp (median)</text></g></svg>